<svg width="1792" height="1024" viewBox="0 0 1792 1024" fill="none" xmlns="http://www.w3.org/2000/svg">
<rect width="1792" height="1024" fill="#080808"/>
<path d="M202.417 165.765C206.276 165.765 208.206 165.765 209.733 165.142C211.868 164.271 213.561 162.559 214.423 160.4C215.039 158.856 215.039 156.905 215.039 153.002V153.002V127.894C215.039 119.81 215.039 115.767 212.555 113.256C210.072 110.744 206.074 110.744 198.079 110.744H182.71C170.387 110.744 164.226 110.744 161.741 114.818C159.257 118.892 162.023 124.459 167.555 135.593L178.122 156.863C179.966 160.574 177.298 164.949 173.191 164.949C171.104 164.949 169.196 163.759 168.26 161.874L147.552 120.195C145.268 115.597 144.125 113.297 142.079 112.021C140.032 110.744 137.487 110.744 132.398 110.744L127.323 110.744C119.328 110.744 115.33 110.744 112.847 113.256C110.363 115.768 110.363 119.81 110.363 127.894L110.363 152.186C110.363 156.089 110.363 158.04 109.747 159.584C108.885 161.743 107.192 163.455 105.057 164.326C103.53 164.95 101.6 164.95 97.741 164.95H97.7409C93.8819 164.95 91.9523 164.95 90.4253 165.573C88.2902 166.444 86.5972 168.156 85.7355 170.315C85.1191 171.859 85.1191 173.81 85.1191 177.713V202.821C85.1191 210.905 85.1191 214.948 87.6029 217.459C90.0866 219.971 94.0841 219.971 102.079 219.971H102.079H117.449C129.771 219.971 135.932 219.971 138.417 215.897C140.901 211.823 138.135 206.256 132.604 195.122L122.036 173.852C120.192 170.14 122.86 165.766 126.967 165.766C129.054 165.766 130.962 166.956 131.899 168.841L152.606 210.52C154.891 215.118 156.033 217.418 158.08 218.694C160.126 219.97 162.671 219.97 167.761 219.97H167.761H172.835C180.83 219.97 184.828 219.97 187.312 217.459C189.795 214.947 189.795 210.905 189.795 202.82V178.529C189.795 174.626 189.795 172.675 190.412 171.131C191.274 168.972 192.966 167.26 195.102 166.389C196.629 165.765 198.558 165.765 202.417 165.765Z" fill="white"/>
<path d="M202.417 165.765C206.276 165.765 208.206 165.765 209.733 165.142C211.868 164.271 213.561 162.559 214.423 160.4C215.039 158.856 215.039 156.905 215.039 153.002V153.002V127.894C215.039 119.81 215.039 115.767 212.555 113.256C210.072 110.744 206.074 110.744 198.079 110.744H182.71C170.387 110.744 164.226 110.744 161.741 114.818C159.257 118.892 162.023 124.459 167.555 135.593L178.122 156.863C179.966 160.574 177.298 164.949 173.191 164.949C171.104 164.949 169.196 163.759 168.26 161.874L147.552 120.195C145.268 115.597 144.125 113.297 142.079 112.021C140.032 110.744 137.487 110.744 132.398 110.744L127.323 110.744C119.328 110.744 115.33 110.744 112.847 113.256C110.363 115.768 110.363 119.81 110.363 127.894L110.363 152.186C110.363 156.089 110.363 158.04 109.747 159.584C108.885 161.743 107.192 163.455 105.057 164.326C103.53 164.95 101.6 164.95 97.741 164.95H97.7409C93.8819 164.95 91.9523 164.95 90.4253 165.573C88.2902 166.444 86.5972 168.156 85.7355 170.315C85.1191 171.859 85.1191 173.81 85.1191 177.713V202.821C85.1191 210.905 85.1191 214.948 87.6029 217.459C90.0866 219.971 94.0841 219.971 102.079 219.971H102.079H117.449C129.771 219.971 135.932 219.971 138.417 215.897C140.901 211.823 138.135 206.256 132.604 195.122L122.036 173.852C120.192 170.14 122.86 165.766 126.967 165.766C129.054 165.766 130.962 166.956 131.899 168.841L152.606 210.52C154.891 215.118 156.033 217.418 158.08 218.694C160.126 219.97 162.671 219.97 167.761 219.97H167.761H172.835C180.83 219.97 184.828 219.97 187.312 217.459C189.795 214.947 189.795 210.905 189.795 202.82V178.529C189.795 174.626 189.795 172.675 190.412 171.131C191.274 168.972 192.966 167.26 195.102 166.389C196.629 165.765 198.558 165.765 202.417 165.765Z" stroke="white"/>
<path d="M129.415 399.441V329.623H137.87V360.714H175.097V329.623H183.552V399.441H175.097V368.214H137.87V399.441H129.415ZM218.74 400.532C214.013 400.532 209.865 399.407 206.297 397.157C202.751 394.907 199.978 391.76 197.978 387.714C196.001 383.669 195.013 378.941 195.013 373.532C195.013 368.078 196.001 363.316 197.978 359.248C199.978 355.18 202.751 352.021 206.297 349.771C209.865 347.521 214.013 346.396 218.74 346.396C223.467 346.396 227.603 347.521 231.149 349.771C234.717 352.021 237.49 355.18 239.467 359.248C241.467 363.316 242.467 368.078 242.467 373.532C242.467 378.941 241.467 383.669 239.467 387.714C237.49 391.76 234.717 394.907 231.149 397.157C227.603 399.407 223.467 400.532 218.74 400.532ZM218.74 393.305C222.331 393.305 225.285 392.385 227.603 390.544C229.922 388.703 231.638 386.282 232.751 383.282C233.865 380.282 234.422 377.032 234.422 373.532C234.422 370.032 233.865 366.771 232.751 363.748C231.638 360.725 229.922 358.282 227.603 356.419C225.285 354.555 222.331 353.623 218.74 353.623C215.149 353.623 212.194 354.555 209.876 356.419C207.558 358.282 205.842 360.725 204.728 363.748C203.615 366.771 203.058 370.032 203.058 373.532C203.058 377.032 203.615 380.282 204.728 383.282C205.842 386.282 207.558 388.703 209.876 390.544C212.194 392.385 215.149 393.305 218.74 393.305ZM262.911 399.441L246.956 347.078H255.411L266.729 387.169H267.274L278.456 347.078H287.047L298.093 387.032H298.638L309.956 347.078H318.411L302.456 399.441H294.547L283.093 359.214H282.274L270.82 399.441H262.911ZM374.98 347.078V353.896H347.843V347.078H374.98ZM355.753 334.532H363.798V384.441C363.798 386.714 364.128 388.419 364.787 389.555C365.468 390.669 366.332 391.419 367.378 391.805C368.446 392.169 369.571 392.35 370.753 392.35C371.639 392.35 372.366 392.305 372.934 392.214C373.503 392.1 373.957 392.01 374.298 391.941L375.934 399.169C375.389 399.373 374.628 399.578 373.65 399.782C372.673 400.01 371.434 400.123 369.934 400.123C367.662 400.123 365.434 399.635 363.253 398.657C361.093 397.68 359.298 396.191 357.866 394.191C356.457 392.191 355.753 389.669 355.753 386.623V334.532ZM405.872 400.532C401.145 400.532 396.997 399.407 393.429 397.157C389.884 394.907 387.111 391.76 385.111 387.714C383.134 383.669 382.145 378.941 382.145 373.532C382.145 368.078 383.134 363.316 385.111 359.248C387.111 355.18 389.884 352.021 393.429 349.771C396.997 347.521 401.145 346.396 405.872 346.396C410.6 346.396 414.736 347.521 418.281 349.771C421.85 352.021 424.622 355.18 426.6 359.248C428.6 363.316 429.6 368.078 429.6 373.532C429.6 378.941 428.6 383.669 426.6 387.714C424.622 391.76 421.85 394.907 418.281 397.157C414.736 399.407 410.6 400.532 405.872 400.532ZM405.872 393.305C409.463 393.305 412.418 392.385 414.736 390.544C417.054 388.703 418.77 386.282 419.884 383.282C420.997 380.282 421.554 377.032 421.554 373.532C421.554 370.032 420.997 366.771 419.884 363.748C418.77 360.725 417.054 358.282 414.736 356.419C412.418 354.555 409.463 353.623 405.872 353.623C402.281 353.623 399.327 354.555 397.009 356.419C394.69 358.282 392.975 360.725 391.861 363.748C390.747 366.771 390.19 370.032 390.19 373.532C390.19 377.032 390.747 380.282 391.861 383.282C392.975 386.282 394.69 388.703 397.009 390.544C399.327 392.385 402.281 393.305 405.872 393.305ZM480.45 400.669C477.132 400.669 474.12 400.044 471.416 398.794C468.711 397.521 466.564 395.691 464.973 393.305C463.382 390.896 462.586 387.987 462.586 384.578C462.586 381.578 463.177 379.146 464.359 377.282C465.541 375.396 467.12 373.919 469.098 372.85C471.075 371.782 473.257 370.987 475.643 370.464C478.052 369.919 480.473 369.487 482.904 369.169C486.086 368.76 488.666 368.453 490.643 368.248C492.643 368.021 494.098 367.646 495.007 367.123C495.939 366.6 496.404 365.691 496.404 364.396V364.123C496.404 360.76 495.484 358.146 493.643 356.282C491.825 354.419 489.064 353.487 485.359 353.487C481.518 353.487 478.507 354.328 476.325 356.01C474.143 357.691 472.609 359.487 471.723 361.396L464.086 358.669C465.45 355.487 467.268 353.01 469.541 351.237C471.836 349.441 474.336 348.191 477.041 347.487C479.768 346.76 482.45 346.396 485.086 346.396C486.768 346.396 488.7 346.6 490.882 347.01C493.086 347.396 495.211 348.203 497.257 349.43C499.325 350.657 501.041 352.51 502.404 354.987C503.768 357.464 504.45 360.782 504.45 364.941V399.441H496.404V392.35H495.995C495.45 393.487 494.541 394.703 493.268 395.998C491.995 397.294 490.302 398.396 488.189 399.305C486.075 400.214 483.495 400.669 480.45 400.669ZM481.677 393.441C484.859 393.441 487.541 392.816 489.723 391.566C491.927 390.316 493.586 388.703 494.7 386.725C495.836 384.748 496.404 382.669 496.404 380.487V373.123C496.064 373.532 495.314 373.907 494.154 374.248C493.018 374.566 491.7 374.85 490.2 375.1C488.723 375.328 487.279 375.532 485.87 375.714C484.484 375.873 483.359 376.01 482.495 376.123C480.404 376.396 478.45 376.839 476.632 377.453C474.836 378.044 473.382 378.941 472.268 380.146C471.177 381.328 470.632 382.941 470.632 384.987C470.632 387.782 471.666 389.896 473.734 391.328C475.825 392.737 478.473 393.441 481.677 393.441ZM525.26 367.941V399.441H517.215V347.078H524.987V355.26H525.669C526.896 352.6 528.76 350.464 531.26 348.85C533.76 347.214 536.987 346.396 540.942 346.396C544.487 346.396 547.59 347.123 550.249 348.578C552.908 350.01 554.976 352.191 556.453 355.123C557.93 358.032 558.669 361.714 558.669 366.169V399.441H550.624V366.714C550.624 362.6 549.556 359.396 547.419 357.1C545.283 354.782 542.351 353.623 538.624 353.623C536.055 353.623 533.76 354.18 531.737 355.294C529.737 356.407 528.158 358.032 526.999 360.169C525.84 362.305 525.26 364.896 525.26 367.941ZM592.724 400.532C587.996 400.532 583.849 399.407 580.28 397.157C576.735 394.907 573.962 391.76 571.962 387.714C569.985 383.669 568.996 378.941 568.996 373.532C568.996 368.078 569.985 363.316 571.962 359.248C573.962 355.18 576.735 352.021 580.28 349.771C583.849 347.521 587.996 346.396 592.724 346.396C597.451 346.396 601.587 347.521 605.133 349.771C608.701 352.021 611.474 355.18 613.451 359.248C615.451 363.316 616.451 368.078 616.451 373.532C616.451 378.941 615.451 383.669 613.451 387.714C611.474 391.76 608.701 394.907 605.133 397.157C601.587 399.407 597.451 400.532 592.724 400.532ZM592.724 393.305C596.314 393.305 599.269 392.385 601.587 390.544C603.905 388.703 605.621 386.282 606.735 383.282C607.849 380.282 608.405 377.032 608.405 373.532C608.405 370.032 607.849 366.771 606.735 363.748C605.621 360.725 603.905 358.282 601.587 356.419C599.269 354.555 596.314 353.623 592.724 353.623C589.133 353.623 586.178 354.555 583.86 356.419C581.542 358.282 579.826 360.725 578.712 363.748C577.599 366.771 577.042 370.032 577.042 373.532C577.042 377.032 577.599 380.282 578.712 383.282C579.826 386.282 581.542 388.703 583.86 390.544C586.178 392.385 589.133 393.305 592.724 393.305ZM634.858 367.941V399.441H626.812V347.078H634.585V355.26H635.267C636.494 352.6 638.358 350.464 640.858 348.85C643.358 347.214 646.585 346.396 650.539 346.396C654.085 346.396 657.187 347.123 659.846 348.578C662.505 350.01 664.573 352.191 666.051 355.123C667.528 358.032 668.267 361.714 668.267 366.169V399.441H660.221V366.714C660.221 362.6 659.153 359.396 657.017 357.1C654.88 354.782 651.948 353.623 648.221 353.623C645.653 353.623 643.358 354.18 641.335 355.294C639.335 356.407 637.755 358.032 636.596 360.169C635.437 362.305 634.858 364.896 634.858 367.941ZM684.355 419.078C682.992 419.078 681.776 418.964 680.707 418.737C679.639 418.532 678.901 418.328 678.492 418.123L680.537 411.032C682.492 411.532 684.219 411.714 685.719 411.578C687.219 411.441 688.548 410.771 689.707 409.566C690.889 408.385 691.969 406.464 692.946 403.805L694.446 399.714L675.082 347.078H683.81L698.264 388.805H698.81L713.264 347.078H721.992L699.764 407.078C698.764 409.782 697.526 412.021 696.048 413.794C694.571 415.589 692.855 416.919 690.901 417.782C688.969 418.646 686.787 419.078 684.355 419.078ZM730.691 399.441V347.078H738.464V355.26H739.145C740.236 352.464 741.998 350.294 744.429 348.748C746.861 347.18 749.782 346.396 753.191 346.396C756.645 346.396 759.52 347.18 761.816 348.748C764.134 350.294 765.941 352.464 767.236 355.26H767.782C769.123 352.555 771.134 350.407 773.816 348.816C776.498 347.203 779.714 346.396 783.464 346.396C788.145 346.396 791.975 347.862 794.952 350.794C797.929 353.703 799.418 358.237 799.418 364.396V399.441H791.373V364.396C791.373 360.532 790.316 357.771 788.202 356.112C786.089 354.453 783.6 353.623 780.736 353.623C777.054 353.623 774.202 354.737 772.179 356.964C770.157 359.169 769.145 361.964 769.145 365.35V399.441H760.964V363.578C760.964 360.6 759.998 358.203 758.066 356.385C756.134 354.544 753.645 353.623 750.6 353.623C748.509 353.623 746.554 354.18 744.736 355.294C742.941 356.407 741.486 357.953 740.373 359.93C739.282 361.885 738.736 364.146 738.736 366.714V399.441H730.691ZM812.208 399.441V347.078H820.254V399.441H812.208ZM816.299 338.35C814.731 338.35 813.379 337.816 812.242 336.748C811.129 335.68 810.572 334.396 810.572 332.896C810.572 331.396 811.129 330.112 812.242 329.044C813.379 327.975 814.731 327.441 816.299 327.441C817.867 327.441 819.208 327.975 820.322 329.044C821.458 330.112 822.026 331.396 822.026 332.896C822.026 334.396 821.458 335.68 820.322 336.748C819.208 337.816 817.867 338.35 816.299 338.35ZM831.57 399.441V393.305L861.297 355.123V354.578H832.524V347.078H871.66V353.487L842.751 391.396V391.941H872.615V399.441H831.57ZM903.542 400.532C898.496 400.532 894.144 399.419 890.485 397.191C886.848 394.941 884.042 391.805 882.064 387.782C880.11 383.737 879.133 379.032 879.133 373.669C879.133 368.305 880.11 363.578 882.064 359.487C884.042 355.373 886.792 352.169 890.314 349.873C893.86 347.555 897.996 346.396 902.723 346.396C905.451 346.396 908.144 346.85 910.803 347.76C913.462 348.669 915.883 350.146 918.064 352.191C920.246 354.214 921.985 356.896 923.28 360.237C924.576 363.578 925.223 367.691 925.223 372.578V375.987H884.86V369.032H917.042C917.042 366.078 916.451 363.441 915.269 361.123C914.11 358.805 912.451 356.975 910.292 355.635C908.155 354.294 905.633 353.623 902.723 353.623C899.519 353.623 896.746 354.419 894.405 356.01C892.087 357.578 890.303 359.623 889.053 362.146C887.803 364.669 887.178 367.373 887.178 370.26V374.896C887.178 378.85 887.86 382.203 889.223 384.953C890.61 387.68 892.53 389.76 894.985 391.191C897.439 392.6 900.292 393.305 903.542 393.305C905.655 393.305 907.564 393.01 909.269 392.419C910.996 391.805 912.485 390.896 913.735 389.691C914.985 388.464 915.951 386.941 916.633 385.123L924.405 387.305C923.587 389.941 922.212 392.26 920.28 394.26C918.348 396.237 915.962 397.782 913.121 398.896C910.28 399.987 907.087 400.532 903.542 400.532ZM980.395 400.532C976.031 400.532 972.179 399.43 968.838 397.225C965.497 394.998 962.883 391.862 960.997 387.816C959.111 383.748 958.168 378.941 958.168 373.396C958.168 367.896 959.111 363.123 960.997 359.078C962.883 355.032 965.508 351.907 968.872 349.703C972.236 347.498 976.122 346.396 980.531 346.396C983.94 346.396 986.633 346.964 988.611 348.1C990.611 349.214 992.133 350.487 993.179 351.919C994.247 353.328 995.077 354.487 995.668 355.396H996.349V329.623H1004.39V399.441H996.622V391.396H995.668C995.077 392.35 994.236 393.555 993.145 395.01C992.054 396.441 990.497 397.725 988.474 398.862C986.452 399.975 983.758 400.532 980.395 400.532ZM981.486 393.305C984.713 393.305 987.44 392.464 989.668 390.782C991.895 389.078 993.588 386.725 994.747 383.725C995.906 380.703 996.486 377.214 996.486 373.26C996.486 369.35 995.918 365.93 994.781 362.998C993.645 360.044 991.963 357.748 989.736 356.112C987.508 354.453 984.758 353.623 981.486 353.623C978.077 353.623 975.236 354.498 972.963 356.248C970.713 357.975 969.02 360.328 967.883 363.305C966.77 366.26 966.213 369.578 966.213 373.26C966.213 376.987 966.781 380.373 967.918 383.419C969.077 386.441 970.781 388.85 973.031 390.646C975.304 392.419 978.122 393.305 981.486 393.305ZM1033.74 400.669C1030.42 400.669 1027.41 400.044 1024.7 398.794C1022 397.521 1019.85 395.691 1018.26 393.305C1016.67 390.896 1015.87 387.987 1015.87 384.578C1015.87 381.578 1016.46 379.146 1017.65 377.282C1018.83 375.396 1020.41 373.919 1022.38 372.85C1024.36 371.782 1026.54 370.987 1028.93 370.464C1031.34 369.919 1033.76 369.487 1036.19 369.169C1039.37 368.76 1041.95 368.453 1043.93 368.248C1045.93 368.021 1047.38 367.646 1048.29 367.123C1049.22 366.6 1049.69 365.691 1049.69 364.396V364.123C1049.69 360.76 1048.77 358.146 1046.93 356.282C1045.11 354.419 1042.35 353.487 1038.65 353.487C1034.8 353.487 1031.79 354.328 1029.61 356.01C1027.43 357.691 1025.9 359.487 1025.01 361.396L1017.37 358.669C1018.74 355.487 1020.55 353.01 1022.83 351.237C1025.12 349.441 1027.62 348.191 1030.33 347.487C1033.05 346.76 1035.74 346.396 1038.37 346.396C1040.05 346.396 1041.99 346.6 1044.17 347.01C1046.37 347.396 1048.5 348.203 1050.54 349.43C1052.61 350.657 1054.33 352.51 1055.69 354.987C1057.05 357.464 1057.74 360.782 1057.74 364.941V399.441H1049.69V392.35H1049.28C1048.74 393.487 1047.83 394.703 1046.55 395.998C1045.28 397.294 1043.59 398.396 1041.47 399.305C1039.36 400.214 1036.78 400.669 1033.74 400.669ZM1034.96 393.441C1038.15 393.441 1040.83 392.816 1043.01 391.566C1045.21 390.316 1046.87 388.703 1047.99 386.725C1049.12 384.748 1049.69 382.669 1049.69 380.487V373.123C1049.35 373.532 1048.6 373.907 1047.44 374.248C1046.3 374.566 1044.99 374.85 1043.49 375.1C1042.01 375.328 1040.57 375.532 1039.16 375.714C1037.77 375.873 1036.65 376.01 1035.78 376.123C1033.69 376.396 1031.74 376.839 1029.92 377.453C1028.12 378.044 1026.67 378.941 1025.55 380.146C1024.46 381.328 1023.92 382.941 1023.92 384.987C1023.92 387.782 1024.95 389.896 1027.02 391.328C1029.11 392.737 1031.76 393.441 1034.96 393.441ZM1093.27 347.078V353.896H1066.14V347.078H1093.27ZM1074.05 334.532H1082.09V384.441C1082.09 386.714 1082.42 388.419 1083.08 389.555C1083.76 390.669 1084.63 391.419 1085.67 391.805C1086.74 392.169 1087.86 392.35 1089.05 392.35C1089.93 392.35 1090.66 392.305 1091.23 392.214C1091.8 392.1 1092.25 392.01 1092.59 391.941L1094.23 399.169C1093.68 399.373 1092.92 399.578 1091.94 399.782C1090.97 400.01 1089.73 400.123 1088.23 400.123C1085.96 400.123 1083.73 399.635 1081.55 398.657C1079.39 397.68 1077.59 396.191 1076.16 394.191C1074.75 392.191 1074.05 389.669 1074.05 386.623V334.532ZM1118.86 400.669C1115.55 400.669 1112.54 400.044 1109.83 398.794C1107.13 397.521 1104.98 395.691 1103.39 393.305C1101.8 390.896 1101 387.987 1101 384.578C1101 381.578 1101.59 379.146 1102.77 377.282C1103.96 375.396 1105.54 373.919 1107.51 372.85C1109.49 371.782 1111.67 370.987 1114.06 370.464C1116.47 369.919 1118.89 369.487 1121.32 369.169C1124.5 368.76 1127.08 368.453 1129.06 368.248C1131.06 368.021 1132.51 367.646 1133.42 367.123C1134.35 366.6 1134.82 365.691 1134.82 364.396V364.123C1134.82 360.76 1133.9 358.146 1132.06 356.282C1130.24 354.419 1127.48 353.487 1123.77 353.487C1119.93 353.487 1116.92 354.328 1114.74 356.01C1112.56 357.691 1111.02 359.487 1110.14 361.396L1102.5 358.669C1103.86 355.487 1105.68 353.01 1107.96 351.237C1110.25 349.441 1112.75 348.191 1115.46 347.487C1118.18 346.76 1120.86 346.396 1123.5 346.396C1125.18 346.396 1127.11 346.6 1129.3 347.01C1131.5 347.396 1133.63 348.203 1135.67 349.43C1137.74 350.657 1139.46 352.51 1140.82 354.987C1142.18 357.464 1142.86 360.782 1142.86 364.941V399.441H1134.82V392.35H1134.41C1133.86 393.487 1132.96 394.703 1131.68 395.998C1130.41 397.294 1128.72 398.396 1126.6 399.305C1124.49 400.214 1121.91 400.669 1118.86 400.669ZM1120.09 393.441C1123.27 393.441 1125.96 392.816 1128.14 391.566C1130.34 390.316 1132 388.703 1133.11 386.725C1134.25 384.748 1134.82 382.669 1134.82 380.487V373.123C1134.48 373.532 1133.73 373.907 1132.57 374.248C1131.43 374.566 1130.11 374.85 1128.61 375.1C1127.14 375.328 1125.69 375.532 1124.29 375.714C1122.9 375.873 1121.77 376.01 1120.91 376.123C1118.82 376.396 1116.86 376.839 1115.05 377.453C1113.25 378.044 1111.8 378.941 1110.68 380.146C1109.59 381.328 1109.05 382.941 1109.05 384.987C1109.05 387.782 1110.08 389.896 1112.15 391.328C1114.24 392.737 1116.89 393.441 1120.09 393.441ZM1180.71 399.441V347.078H1188.76V399.441H1180.71ZM1184.8 338.35C1183.23 338.35 1181.88 337.816 1180.74 336.748C1179.63 335.68 1179.07 334.396 1179.07 332.896C1179.07 331.396 1179.63 330.112 1180.74 329.044C1181.88 327.975 1183.23 327.441 1184.8 327.441C1186.37 327.441 1187.71 327.975 1188.82 329.044C1189.96 330.112 1190.53 331.396 1190.53 332.896C1190.53 334.396 1189.96 335.68 1188.82 336.748C1187.71 337.816 1186.37 338.35 1184.8 338.35ZM1209.62 367.941V399.441H1201.57V347.078H1209.34V355.26H1210.03C1211.25 352.6 1213.12 350.464 1215.62 348.85C1218.12 347.214 1221.34 346.396 1225.3 346.396C1228.84 346.396 1231.95 347.123 1234.6 348.578C1237.26 350.01 1239.33 352.191 1240.81 355.123C1242.29 358.032 1243.03 361.714 1243.03 366.169V399.441H1234.98V366.714C1234.98 362.6 1233.91 359.396 1231.78 357.1C1229.64 354.782 1226.71 353.623 1222.98 353.623C1220.41 353.623 1218.12 354.18 1216.09 355.294C1214.09 356.407 1212.51 358.032 1211.35 360.169C1210.2 362.305 1209.62 364.896 1209.62 367.941ZM1286.07 419.078C1284.71 419.078 1283.49 418.964 1282.42 418.737C1281.35 418.532 1280.61 418.328 1280.21 418.123L1282.25 411.032C1284.21 411.532 1285.93 411.714 1287.43 411.578C1288.93 411.441 1290.26 410.771 1291.42 409.566C1292.6 408.385 1293.68 406.464 1294.66 403.805L1296.16 399.714L1276.8 347.078H1285.52L1299.98 388.805H1300.52L1314.98 347.078H1323.71L1301.48 407.078C1300.48 409.782 1299.24 412.021 1297.76 413.794C1296.28 415.589 1294.57 416.919 1292.61 417.782C1290.68 418.646 1288.5 419.078 1286.07 419.078ZM1351.8 400.532C1347.07 400.532 1342.93 399.407 1339.36 397.157C1335.81 394.907 1333.04 391.76 1331.04 387.714C1329.06 383.669 1328.07 378.941 1328.07 373.532C1328.07 368.078 1329.06 363.316 1331.04 359.248C1333.04 355.18 1335.81 352.021 1339.36 349.771C1342.93 347.521 1347.07 346.396 1351.8 346.396C1356.53 346.396 1360.67 347.521 1364.21 349.771C1367.78 352.021 1370.55 355.18 1372.53 359.248C1374.53 363.316 1375.53 368.078 1375.53 373.532C1375.53 378.941 1374.53 383.669 1372.53 387.714C1370.55 391.76 1367.78 394.907 1364.21 397.157C1360.67 399.407 1356.53 400.532 1351.8 400.532ZM1351.8 393.305C1355.39 393.305 1358.35 392.385 1360.67 390.544C1362.98 388.703 1364.7 386.282 1365.81 383.282C1366.93 380.282 1367.48 377.032 1367.48 373.532C1367.48 370.032 1366.93 366.771 1365.81 363.748C1364.7 360.725 1362.98 358.282 1360.67 356.419C1358.35 354.555 1355.39 353.623 1351.8 353.623C1348.21 353.623 1345.26 354.555 1342.94 356.419C1340.62 358.282 1338.9 360.725 1337.79 363.748C1336.68 366.771 1336.12 370.032 1336.12 373.532C1336.12 377.032 1336.68 380.282 1337.79 383.282C1338.9 386.282 1340.62 388.703 1342.94 390.544C1345.26 392.385 1348.21 393.305 1351.8 393.305ZM1418.89 378.032V347.078H1426.94V399.441H1418.89V390.578H1418.35C1417.12 393.237 1415.21 395.498 1412.62 397.362C1410.03 399.203 1406.75 400.123 1402.8 400.123C1399.53 400.123 1396.62 399.407 1394.07 397.975C1391.53 396.521 1389.53 394.339 1388.07 391.43C1386.62 388.498 1385.89 384.805 1385.89 380.35V347.078H1393.94V379.805C1393.94 383.623 1395 386.669 1397.14 388.941C1399.3 391.214 1402.05 392.35 1405.39 392.35C1407.39 392.35 1409.42 391.839 1411.49 390.816C1413.58 389.794 1415.33 388.225 1416.74 386.112C1418.17 383.998 1418.89 381.305 1418.89 378.032ZM1439.75 399.441V347.078H1447.52V354.987H1448.07C1449.02 352.396 1450.75 350.294 1453.25 348.68C1455.75 347.066 1458.57 346.26 1461.71 346.26C1462.3 346.26 1463.04 346.271 1463.92 346.294C1464.81 346.316 1465.48 346.35 1465.93 346.396V354.578C1465.66 354.51 1465.04 354.407 1464.06 354.271C1463.1 354.112 1462.09 354.032 1461.02 354.032C1458.48 354.032 1456.21 354.566 1454.21 355.635C1452.23 356.68 1450.66 358.135 1449.5 359.998C1448.37 361.839 1447.8 363.941 1447.8 366.305V399.441H1439.75ZM184.779 445.623V515.441H176.597L138.552 460.623H137.87V515.441H129.415V445.623H137.597L175.779 500.578H176.461V445.623H184.779ZM220.64 516.532C215.595 516.532 211.243 515.419 207.584 513.191C203.947 510.941 201.14 507.805 199.163 503.782C197.209 499.737 196.231 495.032 196.231 489.669C196.231 484.305 197.209 479.578 199.163 475.487C201.14 471.373 203.89 468.169 207.413 465.873C210.959 463.555 215.095 462.396 219.822 462.396C222.549 462.396 225.243 462.85 227.902 463.76C230.561 464.669 232.981 466.146 235.163 468.191C237.345 470.214 239.084 472.896 240.379 476.237C241.674 479.578 242.322 483.691 242.322 488.578V491.987H201.959V485.032H234.14C234.14 482.078 233.549 479.441 232.368 477.123C231.209 474.805 229.549 472.975 227.39 471.635C225.254 470.294 222.731 469.623 219.822 469.623C216.618 469.623 213.845 470.419 211.504 472.01C209.186 473.578 207.402 475.623 206.152 478.146C204.902 480.669 204.277 483.373 204.277 486.26V490.896C204.277 494.85 204.959 498.203 206.322 500.953C207.709 503.68 209.629 505.76 212.084 507.191C214.538 508.6 217.39 509.305 220.64 509.305C222.754 509.305 224.663 509.01 226.368 508.419C228.095 507.805 229.584 506.896 230.834 505.691C232.084 504.464 233.049 502.941 233.731 501.123L241.504 503.305C240.686 505.941 239.311 508.26 237.379 510.26C235.447 512.237 233.061 513.782 230.22 514.896C227.379 515.987 224.186 516.532 220.64 516.532ZM273.914 516.532C269.186 516.532 265.039 515.407 261.47 513.157C257.925 510.907 255.152 507.76 253.152 503.714C251.175 499.669 250.186 494.941 250.186 489.532C250.186 484.078 251.175 479.316 253.152 475.248C255.152 471.18 257.925 468.021 261.47 465.771C265.039 463.521 269.186 462.396 273.914 462.396C278.641 462.396 282.777 463.521 286.323 465.771C289.891 468.021 292.664 471.18 294.641 475.248C296.641 479.316 297.641 484.078 297.641 489.532C297.641 494.941 296.641 499.669 294.641 503.714C292.664 507.76 289.891 510.907 286.323 513.157C282.777 515.407 278.641 516.532 273.914 516.532ZM273.914 509.305C277.504 509.305 280.459 508.385 282.777 506.544C285.095 504.703 286.811 502.282 287.925 499.282C289.039 496.282 289.595 493.032 289.595 489.532C289.595 486.032 289.039 482.771 287.925 479.748C286.811 476.725 285.095 474.282 282.777 472.419C280.459 470.555 277.504 469.623 273.914 469.623C270.323 469.623 267.368 470.555 265.05 472.419C262.732 474.282 261.016 476.725 259.902 479.748C258.789 482.771 258.232 486.032 258.232 489.532C258.232 493.032 258.789 496.282 259.902 499.282C261.016 502.282 262.732 504.703 265.05 506.544C267.368 508.385 270.323 509.305 273.914 509.305ZM316.048 483.941V515.441H308.002V463.078H315.775V471.26H316.457C317.684 468.6 319.548 466.464 322.048 464.85C324.548 463.214 327.775 462.396 331.729 462.396C335.275 462.396 338.377 463.123 341.036 464.578C343.695 466.01 345.763 468.191 347.241 471.123C348.718 474.032 349.457 477.714 349.457 482.169V515.441H341.411V482.714C341.411 478.6 340.343 475.396 338.207 473.1C336.07 470.782 333.138 469.623 329.411 469.623C326.843 469.623 324.548 470.18 322.525 471.294C320.525 472.407 318.945 474.032 317.786 476.169C316.627 478.305 316.048 480.896 316.048 483.941ZM409.955 515.441H388.409V445.623H410.909C417.682 445.623 423.477 447.021 428.296 449.816C433.114 452.589 436.807 456.578 439.375 461.782C441.943 466.964 443.227 473.169 443.227 480.396C443.227 487.669 441.932 493.93 439.341 499.18C436.75 504.407 432.977 508.43 428.023 511.248C423.068 514.044 417.046 515.441 409.955 515.441ZM396.864 507.941H409.409C415.182 507.941 419.966 506.828 423.762 504.6C427.557 502.373 430.386 499.203 432.25 495.089C434.114 490.975 435.046 486.078 435.046 480.396C435.046 474.76 434.125 469.907 432.284 465.839C430.443 461.748 427.693 458.612 424.034 456.43C420.375 454.225 415.818 453.123 410.364 453.123H396.864V507.941ZM455.489 515.441V445.623H479.898C484.762 445.623 488.773 446.464 491.932 448.146C495.092 449.805 497.444 452.044 498.989 454.862C500.535 457.657 501.307 460.76 501.307 464.169C501.307 467.169 500.773 469.646 499.705 471.6C498.66 473.555 497.273 475.1 495.546 476.237C493.842 477.373 491.989 478.214 489.989 478.76V479.441C492.126 479.578 494.273 480.328 496.432 481.691C498.592 483.055 500.398 485.01 501.853 487.555C503.307 490.1 504.035 493.214 504.035 496.896C504.035 500.396 503.239 503.544 501.648 506.339C500.057 509.135 497.546 511.35 494.114 512.987C490.682 514.623 486.217 515.441 480.717 515.441H455.489ZM463.944 507.941H480.717C486.239 507.941 490.16 506.873 492.478 504.737C494.819 502.578 495.989 499.964 495.989 496.896C495.989 494.532 495.387 492.35 494.182 490.35C492.978 488.328 491.262 486.714 489.035 485.51C486.807 484.282 484.171 483.669 481.126 483.669H463.944V507.941ZM463.944 476.305H479.626C482.171 476.305 484.467 475.805 486.512 474.805C488.58 473.805 490.217 472.396 491.421 470.578C492.648 468.76 493.262 466.623 493.262 464.169C493.262 461.1 492.194 458.498 490.057 456.362C487.921 454.203 484.535 453.123 479.898 453.123H463.944V476.305Z" fill="white"/>
<path d="M88.9714 928.381V936.256H86.96V923.165H88.9032V925.21H89.0737C89.3805 924.546 89.8464 924.012 90.4714 923.608C91.0964 923.199 91.9032 922.994 92.8919 922.994C93.7782 922.994 94.5538 923.176 95.2186 923.54C95.8833 923.898 96.4004 924.443 96.7697 925.176C97.139 925.904 97.3237 926.824 97.3237 927.938V936.256H95.3123V928.074C95.3123 927.046 95.0453 926.244 94.5112 925.671C93.9771 925.091 93.2441 924.801 92.3123 924.801C91.6703 924.801 91.0964 924.941 90.5907 925.219C90.0907 925.497 89.6958 925.904 89.4061 926.438C89.1163 926.972 88.9714 927.619 88.9714 928.381ZM106.008 936.529C104.746 936.529 103.658 936.25 102.744 935.693C101.834 935.131 101.133 934.347 100.638 933.341C100.15 932.33 99.9055 931.154 99.9055 929.813C99.9055 928.472 100.15 927.29 100.638 926.267C101.133 925.239 101.82 924.438 102.701 923.864C103.587 923.284 104.621 922.994 105.803 922.994C106.485 922.994 107.158 923.108 107.823 923.335C108.488 923.563 109.093 923.932 109.638 924.443C110.184 924.949 110.619 925.619 110.942 926.455C111.266 927.29 111.428 928.318 111.428 929.54V930.392H101.337V928.654H109.383C109.383 927.915 109.235 927.256 108.94 926.676C108.65 926.097 108.235 925.639 107.695 925.304C107.161 924.969 106.53 924.801 105.803 924.801C105.002 924.801 104.309 925 103.724 925.398C103.144 925.79 102.698 926.301 102.386 926.932C102.073 927.563 101.917 928.239 101.917 928.96V930.119C101.917 931.108 102.087 931.946 102.428 932.634C102.775 933.316 103.255 933.835 103.869 934.193C104.482 934.546 105.195 934.722 106.008 934.722C106.536 934.722 107.013 934.648 107.44 934.5C107.871 934.347 108.244 934.119 108.556 933.818C108.869 933.512 109.11 933.131 109.28 932.676L111.224 933.222C111.019 933.881 110.675 934.46 110.192 934.96C109.709 935.455 109.113 935.841 108.403 936.119C107.692 936.392 106.894 936.529 106.008 936.529ZM119.326 936.529C118.144 936.529 117.107 936.247 116.215 935.685C115.329 935.122 114.636 934.335 114.136 933.324C113.641 932.313 113.394 931.131 113.394 929.779C113.394 928.415 113.641 927.225 114.136 926.208C114.636 925.191 115.329 924.401 116.215 923.838C117.107 923.276 118.144 922.994 119.326 922.994C120.508 922.994 121.542 923.276 122.428 923.838C123.32 924.401 124.014 925.191 124.508 926.208C125.008 927.225 125.258 928.415 125.258 929.779C125.258 931.131 125.008 932.313 124.508 933.324C124.014 934.335 123.32 935.122 122.428 935.685C121.542 936.247 120.508 936.529 119.326 936.529ZM119.326 934.722C120.224 934.722 120.962 934.492 121.542 934.031C122.121 933.571 122.55 932.966 122.829 932.216C123.107 931.466 123.247 930.654 123.247 929.779C123.247 928.904 123.107 928.088 122.829 927.333C122.55 926.577 122.121 925.966 121.542 925.5C120.962 925.034 120.224 924.801 119.326 924.801C118.428 924.801 117.69 925.034 117.11 925.5C116.531 925.966 116.102 926.577 115.823 927.333C115.545 928.088 115.406 928.904 115.406 929.779C115.406 930.654 115.545 931.466 115.823 932.216C116.102 932.966 116.531 933.571 117.11 934.031C117.69 934.492 118.428 934.722 119.326 934.722ZM137.121 926.097L135.314 926.608C135.2 926.307 135.033 926.014 134.811 925.73C134.595 925.441 134.3 925.202 133.925 925.014C133.55 924.827 133.07 924.733 132.485 924.733C131.683 924.733 131.016 924.918 130.482 925.287C129.953 925.651 129.689 926.114 129.689 926.676C129.689 927.176 129.871 927.571 130.235 927.861C130.598 928.151 131.166 928.392 131.939 928.585L133.882 929.063C135.053 929.347 135.925 929.781 136.499 930.367C137.073 930.946 137.36 931.693 137.36 932.608C137.36 933.358 137.144 934.029 136.712 934.619C136.286 935.21 135.689 935.676 134.922 936.017C134.155 936.358 133.263 936.529 132.246 936.529C130.911 936.529 129.806 936.239 128.931 935.659C128.056 935.08 127.502 934.233 127.269 933.119L129.178 932.642C129.36 933.347 129.703 933.875 130.209 934.227C130.72 934.58 131.388 934.756 132.212 934.756C133.149 934.756 133.894 934.557 134.445 934.159C135.002 933.756 135.28 933.273 135.28 932.71C135.28 932.256 135.121 931.875 134.803 931.568C134.485 931.256 133.996 931.023 133.337 930.869L131.155 930.358C129.956 930.074 129.075 929.634 128.513 929.037C127.956 928.435 127.678 927.682 127.678 926.779C127.678 926.04 127.885 925.387 128.3 924.818C128.72 924.25 129.291 923.804 130.013 923.48C130.74 923.156 131.564 922.994 132.485 922.994C133.78 922.994 134.797 923.279 135.536 923.847C136.28 924.415 136.808 925.165 137.121 926.097ZM141.203 941.165C140.862 941.165 140.558 941.137 140.291 941.08C140.024 941.029 139.839 940.977 139.737 940.926L140.248 939.154C140.737 939.279 141.169 939.324 141.544 939.29C141.919 939.256 142.251 939.088 142.541 938.787C142.836 938.492 143.106 938.012 143.35 937.347L143.725 936.324L138.885 923.165H141.066L144.68 933.597H144.816L148.43 923.165H150.612L145.055 938.165C144.805 938.841 144.495 939.401 144.126 939.844C143.757 940.293 143.328 940.625 142.839 940.841C142.356 941.057 141.811 941.165 141.203 941.165ZM154.798 928.381V936.256H152.787V923.165H154.73V925.21H154.9C155.207 924.546 155.673 924.012 156.298 923.608C156.923 923.199 157.73 922.994 158.718 922.994C159.605 922.994 160.38 923.176 161.045 923.54C161.71 923.898 162.227 924.443 162.596 925.176C162.966 925.904 163.15 926.824 163.15 927.938V936.256H161.139V928.074C161.139 927.046 160.872 926.244 160.338 925.671C159.804 925.091 159.071 924.801 158.139 924.801C157.497 924.801 156.923 924.941 156.417 925.219C155.917 925.497 155.522 925.904 155.233 926.438C154.943 926.972 154.798 927.619 154.798 928.381ZM171.664 936.529C170.437 936.529 169.38 936.239 168.493 935.659C167.607 935.08 166.925 934.281 166.448 933.264C165.971 932.247 165.732 931.085 165.732 929.779C165.732 928.449 165.976 927.276 166.465 926.259C166.959 925.236 167.647 924.438 168.527 923.864C169.414 923.284 170.448 922.994 171.63 922.994C172.55 922.994 173.38 923.165 174.118 923.506C174.857 923.847 175.462 924.324 175.934 924.938C176.405 925.551 176.698 926.267 176.812 927.085H174.8C174.647 926.489 174.306 925.96 173.777 925.5C173.255 925.034 172.55 924.801 171.664 924.801C170.88 924.801 170.192 925.006 169.601 925.415C169.016 925.818 168.559 926.389 168.229 927.128C167.905 927.861 167.743 928.722 167.743 929.71C167.743 930.722 167.902 931.602 168.221 932.352C168.545 933.102 168.999 933.685 169.584 934.1C170.175 934.514 170.868 934.722 171.664 934.722C172.187 934.722 172.661 934.631 173.087 934.449C173.513 934.267 173.874 934.006 174.17 933.665C174.465 933.324 174.675 932.915 174.8 932.438H176.812C176.698 933.21 176.417 933.906 175.968 934.526C175.525 935.139 174.937 935.628 174.204 935.992C173.476 936.35 172.63 936.529 171.664 936.529ZM180.738 936.392C180.317 936.392 179.957 936.242 179.655 935.941C179.354 935.639 179.204 935.279 179.204 934.858C179.204 934.438 179.354 934.077 179.655 933.776C179.957 933.475 180.317 933.324 180.738 933.324C181.158 933.324 181.519 933.475 181.82 933.776C182.121 934.077 182.272 934.438 182.272 934.858C182.272 935.137 182.201 935.392 182.059 935.625C181.922 935.858 181.738 936.046 181.505 936.188C181.278 936.324 181.022 936.392 180.738 936.392ZM190.344 936.529C189.254 936.529 188.291 936.253 187.455 935.702C186.62 935.145 185.967 934.361 185.495 933.35C185.023 932.333 184.788 931.131 184.788 929.744C184.788 928.369 185.023 927.176 185.495 926.165C185.967 925.154 186.623 924.372 187.464 923.821C188.305 923.27 189.276 922.994 190.379 922.994C191.231 922.994 191.904 923.137 192.398 923.421C192.898 923.699 193.279 924.017 193.541 924.375C193.808 924.727 194.015 925.017 194.163 925.244H194.333V918.801H196.344V936.256H194.401V934.244H194.163C194.015 934.483 193.805 934.784 193.532 935.148C193.259 935.506 192.87 935.827 192.364 936.111C191.859 936.389 191.185 936.529 190.344 936.529ZM190.617 934.722C191.424 934.722 192.106 934.512 192.663 934.091C193.219 933.665 193.643 933.077 193.933 932.327C194.222 931.571 194.367 930.699 194.367 929.71C194.367 928.733 194.225 927.878 193.941 927.145C193.657 926.406 193.237 925.833 192.68 925.423C192.123 925.009 191.435 924.801 190.617 924.801C189.765 924.801 189.055 925.02 188.487 925.458C187.924 925.889 187.501 926.477 187.217 927.222C186.938 927.96 186.799 928.79 186.799 929.71C186.799 930.642 186.941 931.489 187.225 932.25C187.515 933.006 187.941 933.608 188.504 934.057C189.072 934.5 189.776 934.722 190.617 934.722ZM205.316 936.529C204.055 936.529 202.967 936.25 202.052 935.693C201.143 935.131 200.441 934.347 199.947 933.341C199.458 932.33 199.214 931.154 199.214 929.813C199.214 928.472 199.458 927.29 199.947 926.267C200.441 925.239 201.129 924.438 202.009 923.864C202.896 923.284 203.93 922.994 205.112 922.994C205.793 922.994 206.467 923.108 207.132 923.335C207.796 923.563 208.401 923.932 208.947 924.443C209.492 924.949 209.927 925.619 210.251 926.455C210.575 927.29 210.737 928.318 210.737 929.54V930.392H200.646V928.654H208.691C208.691 927.915 208.543 927.256 208.248 926.676C207.958 926.097 207.543 925.639 207.004 925.304C206.47 924.969 205.839 924.801 205.112 924.801C204.311 924.801 203.617 925 203.032 925.398C202.453 925.79 202.007 926.301 201.694 926.932C201.382 927.563 201.225 928.239 201.225 928.96V930.119C201.225 931.108 201.396 931.946 201.737 932.634C202.083 933.316 202.563 933.835 203.177 934.193C203.791 934.546 204.504 934.722 205.316 934.722C205.845 934.722 206.322 934.648 206.748 934.5C207.18 934.347 207.552 934.119 207.864 933.818C208.177 933.512 208.418 933.131 208.589 932.676L210.532 933.222C210.328 933.881 209.984 934.46 209.501 934.96C209.018 935.455 208.421 935.841 207.711 936.119C207.001 936.392 206.203 936.529 205.316 936.529ZM223.622 923.165L218.781 936.256H216.736L211.895 923.165H214.077L217.691 933.597H217.827L221.441 923.165H223.622Z" fill="#777777"/>
<path d="M1333.12 945.182C1332.15 945.182 1331.32 945.057 1330.62 944.807C1329.92 944.562 1329.34 944.239 1328.87 943.835C1328.41 943.438 1328.05 943.011 1327.77 942.557L1329.38 941.432C1329.56 941.67 1329.79 941.943 1330.07 942.25C1330.34 942.562 1330.72 942.832 1331.21 943.06C1331.7 943.293 1332.34 943.409 1333.12 943.409C1334.18 943.409 1335.05 943.153 1335.74 942.642C1336.43 942.131 1336.77 941.33 1336.77 940.239V937.58H1336.6C1336.45 937.818 1336.24 938.114 1335.97 938.466C1335.7 938.812 1335.32 939.122 1334.81 939.395C1334.31 939.662 1333.64 939.795 1332.78 939.795C1331.73 939.795 1330.78 939.545 1329.94 939.045C1329.1 938.545 1328.44 937.818 1327.95 936.864C1327.47 935.909 1327.23 934.75 1327.23 933.386C1327.23 932.045 1327.46 930.878 1327.93 929.884C1328.41 928.884 1329.06 928.111 1329.9 927.565C1330.74 927.014 1331.72 926.739 1332.82 926.739C1333.67 926.739 1334.35 926.881 1334.85 927.165C1335.35 927.443 1335.74 927.761 1336.01 928.119C1336.28 928.472 1336.49 928.761 1336.64 928.989H1336.84V926.909H1338.78V940.375C1338.78 941.5 1338.53 942.415 1338.02 943.119C1337.51 943.83 1336.83 944.349 1335.97 944.679C1335.12 945.014 1334.17 945.182 1333.12 945.182ZM1333.06 937.989C1333.86 937.989 1334.55 937.804 1335.1 937.435C1335.66 937.065 1336.08 936.534 1336.37 935.841C1336.66 935.148 1336.81 934.318 1336.81 933.352C1336.81 932.409 1336.66 931.577 1336.38 930.855C1336.1 930.134 1335.68 929.568 1335.12 929.159C1334.56 928.75 1333.88 928.545 1333.06 928.545C1332.2 928.545 1331.49 928.761 1330.93 929.193C1330.36 929.625 1329.94 930.205 1329.66 930.932C1329.38 931.659 1329.24 932.466 1329.24 933.352C1329.24 934.261 1329.38 935.065 1329.66 935.764C1329.95 936.457 1330.38 937.003 1330.94 937.401C1331.51 937.793 1332.22 937.989 1333.06 937.989ZM1341.99 940V926.909H1344V940H1341.99ZM1343.01 924.727C1342.62 924.727 1342.28 924.594 1341.99 924.327C1341.72 924.06 1341.58 923.739 1341.58 923.364C1341.58 922.989 1341.72 922.668 1341.99 922.401C1342.28 922.134 1342.62 922 1343.01 922C1343.4 922 1343.74 922.134 1344.01 922.401C1344.3 922.668 1344.44 922.989 1344.44 923.364C1344.44 923.739 1344.3 924.06 1344.01 924.327C1343.74 924.594 1343.4 924.727 1343.01 924.727ZM1352.89 926.909V928.614H1346.11V926.909H1352.89ZM1348.09 923.773H1350.1V936.25C1350.1 936.818 1350.18 937.244 1350.35 937.528C1350.52 937.807 1350.73 937.994 1350.99 938.091C1351.26 938.182 1351.54 938.227 1351.84 938.227C1352.06 938.227 1352.24 938.216 1352.38 938.193C1352.53 938.165 1352.64 938.142 1352.72 938.125L1353.13 939.932C1353 939.983 1352.81 940.034 1352.56 940.085C1352.32 940.142 1352.01 940.17 1351.63 940.17C1351.06 940.17 1350.51 940.048 1349.96 939.804C1349.42 939.56 1348.97 939.188 1348.62 938.688C1348.26 938.188 1348.09 937.557 1348.09 936.795V923.773ZM1357.73 932.125V940H1355.72V922.545H1357.73V928.955H1357.9C1358.21 928.278 1358.67 927.741 1359.28 927.344C1359.9 926.94 1360.73 926.739 1361.76 926.739C1362.65 926.739 1363.43 926.918 1364.1 927.276C1364.77 927.628 1365.29 928.17 1365.66 928.903C1366.03 929.631 1366.22 930.557 1366.22 931.682V940H1364.21V931.818C1364.21 930.778 1363.94 929.974 1363.4 929.406C1362.87 928.832 1362.12 928.545 1361.18 928.545C1360.52 928.545 1359.93 928.685 1359.4 928.963C1358.89 929.241 1358.48 929.648 1358.18 930.182C1357.88 930.716 1357.73 931.364 1357.73 932.125ZM1377.67 934.648V926.909H1379.68V940H1377.67V937.784H1377.53C1377.23 938.449 1376.75 939.014 1376.1 939.48C1375.46 939.94 1374.64 940.17 1373.65 940.17C1372.83 940.17 1372.1 939.991 1371.47 939.634C1370.83 939.27 1370.33 938.724 1369.97 937.997C1369.6 937.264 1369.42 936.341 1369.42 935.227V926.909H1371.43V935.091C1371.43 936.045 1371.7 936.807 1372.23 937.375C1372.77 937.943 1373.46 938.227 1374.3 938.227C1374.8 938.227 1375.3 938.099 1375.82 937.844C1376.34 937.588 1376.78 937.196 1377.13 936.668C1377.49 936.139 1377.67 935.466 1377.67 934.648ZM1383.16 940V922.545H1385.17V928.989H1385.34C1385.49 928.761 1385.69 928.472 1385.95 928.119C1386.22 927.761 1386.6 927.443 1387.1 927.165C1387.6 926.881 1388.27 926.739 1389.12 926.739C1390.23 926.739 1391.2 927.014 1392.04 927.565C1392.88 928.116 1393.54 928.898 1394.01 929.909C1394.48 930.92 1394.72 932.114 1394.72 933.489C1394.72 934.875 1394.48 936.077 1394.01 937.094C1393.54 938.105 1392.88 938.889 1392.05 939.446C1391.21 939.997 1390.25 940.273 1389.16 940.273C1388.32 940.273 1387.64 940.134 1387.14 939.855C1386.63 939.571 1386.24 939.25 1385.97 938.892C1385.7 938.528 1385.49 938.227 1385.34 937.989H1385.1V940H1383.16ZM1385.14 933.455C1385.14 934.443 1385.28 935.315 1385.57 936.071C1385.86 936.821 1386.28 937.409 1386.84 937.835C1387.4 938.256 1388.08 938.466 1388.89 938.466C1389.73 938.466 1390.43 938.244 1390.99 937.801C1391.56 937.352 1391.99 936.75 1392.27 935.994C1392.56 935.233 1392.7 934.386 1392.7 933.455C1392.7 932.534 1392.56 931.705 1392.28 930.966C1392 930.222 1391.58 929.634 1391.01 929.202C1390.45 928.764 1389.74 928.545 1388.89 928.545C1388.07 928.545 1387.38 928.753 1386.82 929.168C1386.27 929.577 1385.85 930.151 1385.56 930.889C1385.28 931.622 1385.14 932.477 1385.14 933.455ZM1398.78 940.136C1398.36 940.136 1398 939.986 1397.7 939.685C1397.39 939.384 1397.24 939.023 1397.24 938.602C1397.24 938.182 1397.39 937.821 1397.7 937.52C1398 937.219 1398.36 937.068 1398.78 937.068C1399.2 937.068 1399.56 937.219 1399.86 937.52C1400.16 937.821 1400.31 938.182 1400.31 938.602C1400.31 938.881 1400.24 939.136 1400.1 939.369C1399.96 939.602 1399.78 939.79 1399.55 939.932C1399.32 940.068 1399.06 940.136 1398.78 940.136ZM1408.76 940.273C1407.53 940.273 1406.48 939.983 1405.59 939.403C1404.7 938.824 1404.02 938.026 1403.54 937.009C1403.07 935.991 1402.83 934.83 1402.83 933.523C1402.83 932.193 1403.07 931.02 1403.56 930.003C1404.06 928.98 1404.74 928.182 1405.62 927.608C1406.51 927.028 1407.54 926.739 1408.73 926.739C1409.65 926.739 1410.48 926.909 1411.21 927.25C1411.95 927.591 1412.56 928.068 1413.03 928.682C1413.5 929.295 1413.79 930.011 1413.91 930.83H1411.9C1411.74 930.233 1411.4 929.705 1410.87 929.244C1410.35 928.778 1409.65 928.545 1408.76 928.545C1407.98 928.545 1407.29 928.75 1406.7 929.159C1406.11 929.562 1405.65 930.134 1405.33 930.872C1405 931.605 1404.84 932.466 1404.84 933.455C1404.84 934.466 1405 935.347 1405.32 936.097C1405.64 936.847 1406.1 937.429 1406.68 937.844C1407.27 938.259 1407.96 938.466 1408.76 938.466C1409.28 938.466 1409.76 938.375 1410.18 938.193C1410.61 938.011 1410.97 937.75 1411.27 937.409C1411.56 937.068 1411.77 936.659 1411.9 936.182H1413.91C1413.79 936.955 1413.51 937.651 1413.06 938.27C1412.62 938.884 1412.03 939.372 1411.3 939.736C1410.57 940.094 1409.73 940.273 1408.76 940.273ZM1421.69 940.273C1420.5 940.273 1419.47 939.991 1418.58 939.429C1417.69 938.866 1417 938.08 1416.5 937.068C1416 936.057 1415.75 934.875 1415.75 933.523C1415.75 932.159 1416 930.969 1416.5 929.952C1417 928.935 1417.69 928.145 1418.58 927.582C1419.47 927.02 1420.5 926.739 1421.69 926.739C1422.87 926.739 1423.9 927.02 1424.79 927.582C1425.68 928.145 1426.37 928.935 1426.87 929.952C1427.37 930.969 1427.62 932.159 1427.62 933.523C1427.62 934.875 1427.37 936.057 1426.87 937.068C1426.37 938.08 1425.68 938.866 1424.79 939.429C1423.9 939.991 1422.87 940.273 1421.69 940.273ZM1421.69 938.466C1422.58 938.466 1423.32 938.236 1423.9 937.776C1424.48 937.315 1424.91 936.71 1425.19 935.96C1425.47 935.21 1425.61 934.398 1425.61 933.523C1425.61 932.648 1425.47 931.832 1425.19 931.077C1424.91 930.321 1424.48 929.71 1423.9 929.244C1423.32 928.778 1422.58 928.545 1421.69 928.545C1420.79 928.545 1420.05 928.778 1419.47 929.244C1418.89 929.71 1418.46 930.321 1418.18 931.077C1417.91 931.832 1417.77 932.648 1417.77 933.523C1417.77 934.398 1417.91 935.21 1418.18 935.96C1418.46 936.71 1418.89 937.315 1419.47 937.776C1420.05 938.236 1420.79 938.466 1421.69 938.466ZM1430.21 940V926.909H1432.15V928.955H1432.32C1432.59 928.256 1433.04 927.713 1433.64 927.327C1434.25 926.935 1434.98 926.739 1435.83 926.739C1436.7 926.739 1437.42 926.935 1437.99 927.327C1438.57 927.713 1439.02 928.256 1439.34 928.955H1439.48C1439.82 928.278 1440.32 927.741 1440.99 927.344C1441.66 926.94 1442.46 926.739 1443.4 926.739C1444.57 926.739 1445.53 927.105 1446.27 927.838C1447.02 928.565 1447.39 929.699 1447.39 931.239V940H1445.38V931.239C1445.38 930.273 1445.11 929.582 1444.59 929.168C1444.06 928.753 1443.44 928.545 1442.72 928.545C1441.8 928.545 1441.09 928.824 1440.58 929.381C1440.07 929.932 1439.82 930.631 1439.82 931.477V940H1437.78V931.034C1437.78 930.29 1437.54 929.69 1437.05 929.236C1436.57 928.776 1435.95 928.545 1435.19 928.545C1434.66 928.545 1434.17 928.685 1433.72 928.963C1433.27 929.241 1432.91 929.628 1432.63 930.122C1432.36 930.611 1432.22 931.176 1432.22 931.818V940H1430.21ZM1456.76 921.727L1451.13 942.625H1449.29L1454.92 921.727H1456.76ZM1460.67 932.125V940H1458.66V926.909H1460.61V928.955H1460.78C1461.08 928.29 1461.55 927.756 1462.17 927.352C1462.8 926.943 1463.61 926.739 1464.59 926.739C1465.48 926.739 1466.26 926.92 1466.92 927.284C1467.59 927.642 1468.1 928.188 1468.47 928.92C1468.84 929.648 1469.03 930.568 1469.03 931.682V940H1467.01V931.818C1467.01 930.79 1466.75 929.989 1466.21 929.415C1465.68 928.835 1464.95 928.545 1464.01 928.545C1463.37 928.545 1462.8 928.685 1462.29 928.963C1461.79 929.241 1461.4 929.648 1461.11 930.182C1460.82 930.716 1460.67 931.364 1460.67 932.125ZM1480.47 934.648V926.909H1482.48V940H1480.47V937.784H1480.34C1480.03 938.449 1479.55 939.014 1478.9 939.48C1478.26 939.94 1477.44 940.17 1476.45 940.17C1475.63 940.17 1474.9 939.991 1474.27 939.634C1473.63 939.27 1473.13 938.724 1472.77 937.997C1472.4 937.264 1472.22 936.341 1472.22 935.227V926.909H1474.23V935.091C1474.23 936.045 1474.5 936.807 1475.03 937.375C1475.57 937.943 1476.26 938.227 1477.1 938.227C1477.6 938.227 1478.11 938.099 1478.62 937.844C1479.14 937.588 1479.58 937.196 1479.93 936.668C1480.29 936.139 1480.47 935.466 1480.47 934.648ZM1491.01 940.273C1489.78 940.273 1488.72 939.983 1487.83 939.403C1486.95 938.824 1486.27 938.026 1485.79 937.009C1485.31 935.991 1485.07 934.83 1485.07 933.523C1485.07 932.193 1485.32 931.02 1485.81 930.003C1486.3 928.98 1486.99 928.182 1487.87 927.608C1488.76 927.028 1489.79 926.739 1490.97 926.739C1491.89 926.739 1492.72 926.909 1493.46 927.25C1494.2 927.591 1494.8 928.068 1495.27 928.682C1495.75 929.295 1496.04 930.011 1496.15 930.83H1494.14C1493.99 930.233 1493.65 929.705 1493.12 929.244C1492.6 928.778 1491.89 928.545 1491.01 928.545C1490.22 928.545 1489.53 928.75 1488.94 929.159C1488.36 929.562 1487.9 930.134 1487.57 930.872C1487.25 931.605 1487.08 932.466 1487.08 933.455C1487.08 934.466 1487.24 935.347 1487.56 936.097C1487.89 936.847 1488.34 937.429 1488.93 937.844C1489.52 938.259 1490.21 938.466 1491.01 938.466C1491.53 938.466 1492 938.375 1492.43 938.193C1492.85 938.011 1493.22 937.75 1493.51 937.409C1493.81 937.068 1494.02 936.659 1494.14 936.182H1496.15C1496.04 936.955 1495.76 937.651 1495.31 938.27C1494.87 938.884 1494.28 939.372 1493.54 939.736C1492.82 940.094 1491.97 940.273 1491.01 940.273ZM1500.62 922.545V940H1498.61V922.545H1500.62ZM1509.32 940.273C1508.06 940.273 1506.97 939.994 1506.05 939.438C1505.14 938.875 1504.44 938.091 1503.95 937.085C1503.46 936.074 1503.21 934.898 1503.21 933.557C1503.21 932.216 1503.46 931.034 1503.95 930.011C1504.44 928.983 1505.13 928.182 1506.01 927.608C1506.9 927.028 1507.93 926.739 1509.11 926.739C1509.79 926.739 1510.47 926.852 1511.13 927.08C1511.8 927.307 1512.4 927.676 1512.95 928.188C1513.49 928.693 1513.93 929.364 1514.25 930.199C1514.58 931.034 1514.74 932.062 1514.74 933.284V934.136H1504.65V932.398H1512.69C1512.69 931.659 1512.54 931 1512.25 930.42C1511.96 929.841 1511.54 929.384 1511 929.048C1510.47 928.713 1509.84 928.545 1509.11 928.545C1508.31 928.545 1507.62 928.744 1507.03 929.142C1506.45 929.534 1506.01 930.045 1505.69 930.676C1505.38 931.307 1505.23 931.983 1505.23 932.705V933.864C1505.23 934.852 1505.4 935.69 1505.74 936.378C1506.08 937.06 1506.56 937.58 1507.18 937.938C1507.79 938.29 1508.5 938.466 1509.32 938.466C1509.85 938.466 1510.32 938.392 1510.75 938.244C1511.18 938.091 1511.55 937.864 1511.87 937.562C1512.18 937.256 1512.42 936.875 1512.59 936.42L1514.53 936.966C1514.33 937.625 1513.98 938.205 1513.5 938.705C1513.02 939.199 1512.42 939.585 1511.71 939.864C1511 940.136 1510.2 940.273 1509.32 940.273ZM1525.57 934.648V926.909H1527.58V940H1525.57V937.784H1525.43C1525.12 938.449 1524.65 939.014 1524 939.48C1523.35 939.94 1522.53 940.17 1521.54 940.17C1520.73 940.17 1520 939.991 1519.36 939.634C1518.73 939.27 1518.23 938.724 1517.86 937.997C1517.5 937.264 1517.32 936.341 1517.32 935.227V926.909H1519.33V935.091C1519.33 936.045 1519.6 936.807 1520.13 937.375C1520.67 937.943 1521.36 938.227 1522.19 938.227C1522.69 938.227 1523.2 938.099 1523.72 937.844C1524.24 937.588 1524.68 937.196 1525.03 936.668C1525.39 936.139 1525.57 935.466 1525.57 934.648ZM1540.06 929.841L1538.25 930.352C1538.13 930.051 1537.97 929.759 1537.75 929.474C1537.53 929.185 1537.23 928.946 1536.86 928.759C1536.48 928.571 1536 928.477 1535.42 928.477C1534.62 928.477 1533.95 928.662 1533.42 929.031C1532.89 929.395 1532.62 929.858 1532.62 930.42C1532.62 930.92 1532.81 931.315 1533.17 931.605C1533.53 931.895 1534.1 932.136 1534.87 932.33L1536.82 932.807C1537.99 933.091 1538.86 933.526 1539.43 934.111C1540.01 934.69 1540.29 935.437 1540.29 936.352C1540.29 937.102 1540.08 937.773 1539.65 938.364C1539.22 938.955 1538.62 939.42 1537.86 939.761C1537.09 940.102 1536.2 940.273 1535.18 940.273C1533.84 940.273 1532.74 939.983 1531.86 939.403C1530.99 938.824 1530.44 937.977 1530.2 936.864L1532.11 936.386C1532.29 937.091 1532.64 937.619 1533.14 937.972C1533.65 938.324 1534.32 938.5 1535.15 938.5C1536.08 938.5 1536.83 938.301 1537.38 937.903C1537.94 937.5 1538.21 937.017 1538.21 936.455C1538.21 936 1538.06 935.619 1537.74 935.312C1537.42 935 1536.93 934.767 1536.27 934.614L1534.09 934.102C1532.89 933.818 1532.01 933.378 1531.45 932.781C1530.89 932.179 1530.61 931.426 1530.61 930.523C1530.61 929.784 1530.82 929.131 1531.23 928.562C1531.65 927.994 1532.23 927.548 1532.95 927.224C1533.67 926.901 1534.5 926.739 1535.42 926.739C1536.71 926.739 1537.73 927.023 1538.47 927.591C1539.21 928.159 1539.74 928.909 1540.06 929.841ZM1548.16 940.273C1546.93 940.273 1545.88 939.983 1544.99 939.403C1544.1 938.824 1543.42 938.026 1542.94 937.009C1542.47 935.991 1542.23 934.83 1542.23 933.523C1542.23 932.193 1542.47 931.02 1542.96 930.003C1543.46 928.98 1544.14 928.182 1545.02 927.608C1545.91 927.028 1546.94 926.739 1548.13 926.739C1549.05 926.739 1549.88 926.909 1550.61 927.25C1551.35 927.591 1551.96 928.068 1552.43 928.682C1552.9 929.295 1553.19 930.011 1553.31 930.83H1551.3C1551.14 930.233 1550.8 929.705 1550.27 929.244C1549.75 928.778 1549.05 928.545 1548.16 928.545C1547.38 928.545 1546.69 928.75 1546.1 929.159C1545.51 929.562 1545.05 930.134 1544.73 930.872C1544.4 931.605 1544.24 932.466 1544.24 933.455C1544.24 934.466 1544.4 935.347 1544.72 936.097C1545.04 936.847 1545.49 937.429 1546.08 937.844C1546.67 938.259 1547.36 938.466 1548.16 938.466C1548.68 938.466 1549.16 938.375 1549.58 938.193C1550.01 938.011 1550.37 937.75 1550.67 937.409C1550.96 937.068 1551.17 936.659 1551.3 936.182H1553.31C1553.19 936.955 1552.91 937.651 1552.46 938.27C1552.02 938.884 1551.43 939.372 1550.7 939.736C1549.97 940.094 1549.13 940.273 1548.16 940.273ZM1557.78 922.545V940H1555.77V922.545H1557.78ZM1566.3 940.273C1565.12 940.273 1564.08 939.991 1563.19 939.429C1562.3 938.866 1561.61 938.08 1561.11 937.068C1560.62 936.057 1560.37 934.875 1560.37 933.523C1560.37 932.159 1560.62 930.969 1561.11 929.952C1561.61 928.935 1562.3 928.145 1563.19 927.582C1564.08 927.02 1565.12 926.739 1566.3 926.739C1567.48 926.739 1568.52 927.02 1569.4 927.582C1570.3 928.145 1570.99 928.935 1571.48 929.952C1571.98 930.969 1572.23 932.159 1572.23 933.523C1572.23 934.875 1571.98 936.057 1571.48 937.068C1570.99 938.08 1570.3 938.866 1569.4 939.429C1568.52 939.991 1567.48 940.273 1566.3 940.273ZM1566.3 938.466C1567.2 938.466 1567.94 938.236 1568.52 937.776C1569.1 937.315 1569.53 936.71 1569.8 935.96C1570.08 935.21 1570.22 934.398 1570.22 933.523C1570.22 932.648 1570.08 931.832 1569.8 931.077C1569.53 930.321 1569.1 929.71 1568.52 929.244C1567.94 928.778 1567.2 928.545 1566.3 928.545C1565.4 928.545 1564.66 928.778 1564.09 929.244C1563.51 929.71 1563.08 930.321 1562.8 931.077C1562.52 931.832 1562.38 932.648 1562.38 933.523C1562.38 934.398 1562.52 935.21 1562.8 935.96C1563.08 936.71 1563.51 937.315 1564.09 937.776C1564.66 938.236 1565.4 938.466 1566.3 938.466ZM1583.07 934.648V926.909H1585.08V940H1583.07V937.784H1582.94C1582.63 938.449 1582.15 939.014 1581.51 939.48C1580.86 939.94 1580.04 940.17 1579.05 940.17C1578.23 940.17 1577.51 939.991 1576.87 939.634C1576.23 939.27 1575.73 938.724 1575.37 937.997C1575.01 937.264 1574.82 936.341 1574.82 935.227V926.909H1576.83V935.091C1576.83 936.045 1577.1 936.807 1577.64 937.375C1578.18 937.943 1578.86 938.227 1579.7 938.227C1580.2 938.227 1580.71 938.099 1581.22 937.844C1581.75 937.588 1582.18 937.196 1582.54 936.668C1582.89 936.139 1583.07 935.466 1583.07 934.648ZM1593.23 940.273C1592.14 940.273 1591.18 939.997 1590.34 939.446C1589.51 938.889 1588.85 938.105 1588.38 937.094C1587.91 936.077 1587.68 934.875 1587.68 933.489C1587.68 932.114 1587.91 930.92 1588.38 929.909C1588.85 928.898 1589.51 928.116 1590.35 927.565C1591.19 927.014 1592.16 926.739 1593.27 926.739C1594.12 926.739 1594.79 926.881 1595.29 927.165C1595.79 927.443 1596.17 927.761 1596.43 928.119C1596.69 928.472 1596.9 928.761 1597.05 928.989H1597.22V922.545H1599.23V940H1597.29V937.989H1597.05C1596.9 938.227 1596.69 938.528 1596.42 938.892C1596.15 939.25 1595.76 939.571 1595.25 939.855C1594.75 940.134 1594.07 940.273 1593.23 940.273ZM1593.5 938.466C1594.31 938.466 1594.99 938.256 1595.55 937.835C1596.11 937.409 1596.53 936.821 1596.82 936.071C1597.11 935.315 1597.25 934.443 1597.25 933.455C1597.25 932.477 1597.11 931.622 1596.83 930.889C1596.54 930.151 1596.12 929.577 1595.57 929.168C1595.01 928.753 1594.32 928.545 1593.5 928.545C1592.65 928.545 1591.94 928.764 1591.37 929.202C1590.81 929.634 1590.39 930.222 1590.1 930.966C1589.83 931.705 1589.69 932.534 1589.69 933.455C1589.69 934.386 1589.83 935.233 1590.11 935.994C1590.4 936.75 1590.83 937.352 1591.39 937.801C1591.96 938.244 1592.66 938.466 1593.5 938.466ZM1608.89 921.727L1603.26 942.625H1601.42L1607.04 921.727H1608.89ZM1612.8 932.125V940H1610.79V926.909H1612.73V928.955H1612.9C1613.21 928.29 1613.68 927.756 1614.3 927.352C1614.93 926.943 1615.73 926.739 1616.72 926.739C1617.61 926.739 1618.38 926.92 1619.05 927.284C1619.71 927.642 1620.23 928.188 1620.6 928.92C1620.97 929.648 1621.15 930.568 1621.15 931.682V940H1619.14V931.818C1619.14 930.79 1618.87 929.989 1618.34 929.415C1617.81 928.835 1617.07 928.545 1616.14 928.545C1615.5 928.545 1614.93 928.685 1614.42 928.963C1613.92 929.241 1613.53 929.648 1613.24 930.182C1612.95 930.716 1612.8 931.364 1612.8 932.125ZM1629.84 940.273C1628.58 940.273 1627.49 939.994 1626.57 939.438C1625.66 938.875 1624.96 938.091 1624.47 937.085C1623.98 936.074 1623.74 934.898 1623.74 933.557C1623.74 932.216 1623.98 931.034 1624.47 930.011C1624.96 928.983 1625.65 928.182 1626.53 927.608C1627.42 927.028 1628.45 926.739 1629.63 926.739C1630.31 926.739 1630.99 926.852 1631.65 927.08C1632.32 927.307 1632.92 927.676 1633.47 928.188C1634.01 928.693 1634.45 929.364 1634.77 930.199C1635.1 931.034 1635.26 932.062 1635.26 933.284V934.136H1625.17V932.398H1633.21C1633.21 931.659 1633.06 931 1632.77 930.42C1632.48 929.841 1632.06 929.384 1631.52 929.048C1630.99 928.713 1630.36 928.545 1629.63 928.545C1628.83 928.545 1628.14 928.744 1627.55 929.142C1626.97 929.534 1626.53 930.045 1626.22 930.676C1625.9 931.307 1625.75 931.983 1625.75 932.705V933.864C1625.75 934.852 1625.92 935.69 1626.26 936.378C1626.6 937.06 1627.08 937.58 1627.7 937.938C1628.31 938.29 1629.02 938.466 1629.84 938.466C1630.37 938.466 1630.84 938.392 1631.27 938.244C1631.7 938.091 1632.07 937.864 1632.39 937.562C1632.7 937.256 1632.94 936.875 1633.11 936.42L1635.05 936.966C1634.85 937.625 1634.5 938.205 1634.02 938.705C1633.54 939.199 1632.94 939.585 1632.23 939.864C1631.52 940.136 1630.72 940.273 1629.84 940.273ZM1643.16 940.273C1641.97 940.273 1640.94 939.991 1640.04 939.429C1639.16 938.866 1638.47 938.08 1637.97 937.068C1637.47 936.057 1637.22 934.875 1637.22 933.523C1637.22 932.159 1637.47 930.969 1637.97 929.952C1638.47 928.935 1639.16 928.145 1640.04 927.582C1640.94 927.02 1641.97 926.739 1643.16 926.739C1644.34 926.739 1645.37 927.02 1646.26 927.582C1647.15 928.145 1647.84 928.935 1648.34 929.952C1648.84 930.969 1649.09 932.159 1649.09 933.523C1649.09 934.875 1648.84 936.057 1648.34 937.068C1647.84 938.08 1647.15 938.866 1646.26 939.429C1645.37 939.991 1644.34 940.273 1643.16 940.273ZM1643.16 938.466C1644.05 938.466 1644.79 938.236 1645.37 937.776C1645.95 937.315 1646.38 936.71 1646.66 935.96C1646.94 935.21 1647.08 934.398 1647.08 933.523C1647.08 932.648 1646.94 931.832 1646.66 931.077C1646.38 930.321 1645.95 929.71 1645.37 929.244C1644.79 928.778 1644.05 928.545 1643.16 928.545C1642.26 928.545 1641.52 928.778 1640.94 929.244C1640.36 929.71 1639.93 930.321 1639.65 931.077C1639.37 931.832 1639.24 932.648 1639.24 933.523C1639.24 934.398 1639.37 935.21 1639.65 935.96C1639.93 936.71 1640.36 937.315 1640.94 937.776C1641.52 938.236 1642.26 938.466 1643.16 938.466ZM1660.95 929.841L1659.14 930.352C1659.03 930.051 1658.86 929.759 1658.64 929.474C1658.42 929.185 1658.13 928.946 1657.75 928.759C1657.38 928.571 1656.9 928.477 1656.31 928.477C1655.51 928.477 1654.85 928.662 1654.31 929.031C1653.78 929.395 1653.52 929.858 1653.52 930.42C1653.52 930.92 1653.7 931.315 1654.06 931.605C1654.43 931.895 1655 932.136 1655.77 932.33L1657.71 932.807C1658.88 933.091 1659.75 933.526 1660.33 934.111C1660.9 934.69 1661.19 935.437 1661.19 936.352C1661.19 937.102 1660.97 937.773 1660.54 938.364C1660.12 938.955 1659.52 939.42 1658.75 939.761C1657.98 940.102 1657.09 940.273 1656.08 940.273C1654.74 940.273 1653.64 939.983 1652.76 939.403C1651.89 938.824 1651.33 937.977 1651.1 936.864L1653.01 936.386C1653.19 937.091 1653.53 937.619 1654.04 937.972C1654.55 938.324 1655.22 938.5 1656.04 938.5C1656.98 938.5 1657.72 938.301 1658.27 937.903C1658.83 937.5 1659.11 937.017 1659.11 936.455C1659.11 936 1658.95 935.619 1658.63 935.312C1658.31 935 1657.83 934.767 1657.17 934.614L1654.98 934.102C1653.79 933.818 1652.91 933.378 1652.34 932.781C1651.79 932.179 1651.51 931.426 1651.51 930.523C1651.51 929.784 1651.71 929.131 1652.13 928.562C1652.55 927.994 1653.12 927.548 1653.84 927.224C1654.57 926.901 1655.39 926.739 1656.31 926.739C1657.61 926.739 1658.63 927.023 1659.37 927.591C1660.11 928.159 1660.64 928.909 1660.95 929.841ZM1665.03 944.909C1664.69 944.909 1664.39 944.881 1664.12 944.824C1663.85 944.773 1663.67 944.722 1663.57 944.67L1664.08 942.898C1664.57 943.023 1665 943.068 1665.37 943.034C1665.75 943 1666.08 942.832 1666.37 942.531C1666.67 942.236 1666.94 941.756 1667.18 941.091L1667.56 940.068L1662.71 926.909H1664.9L1668.51 937.341H1668.65L1672.26 926.909H1674.44L1668.88 941.909C1668.63 942.585 1668.32 943.145 1667.96 943.588C1667.59 944.037 1667.16 944.369 1666.67 944.585C1666.19 944.801 1665.64 944.909 1665.03 944.909ZM1678.63 932.125V940H1676.62V926.909H1678.56V928.955H1678.73C1679.04 928.29 1679.5 927.756 1680.13 927.352C1680.75 926.943 1681.56 926.739 1682.55 926.739C1683.43 926.739 1684.21 926.92 1684.87 927.284C1685.54 927.642 1686.06 928.188 1686.43 928.92C1686.8 929.648 1686.98 930.568 1686.98 931.682V940H1684.97V931.818C1684.97 930.79 1684.7 929.989 1684.17 929.415C1683.63 928.835 1682.9 928.545 1681.97 928.545C1681.33 928.545 1680.75 928.685 1680.25 928.963C1679.75 929.241 1679.35 929.648 1679.06 930.182C1678.77 930.716 1678.63 931.364 1678.63 932.125ZM1695.49 940.273C1694.27 940.273 1693.21 939.983 1692.32 939.403C1691.44 938.824 1690.75 938.026 1690.28 937.009C1689.8 935.991 1689.56 934.83 1689.56 933.523C1689.56 932.193 1689.81 931.02 1690.29 930.003C1690.79 928.98 1691.48 928.182 1692.36 927.608C1693.24 927.028 1694.28 926.739 1695.46 926.739C1696.38 926.739 1697.21 926.909 1697.95 927.25C1698.69 927.591 1699.29 928.068 1699.76 928.682C1700.23 929.295 1700.53 930.011 1700.64 930.83H1698.63C1698.48 930.233 1698.14 929.705 1697.61 929.244C1697.08 928.778 1696.38 928.545 1695.49 928.545C1694.71 928.545 1694.02 928.75 1693.43 929.159C1692.85 929.562 1692.39 930.134 1692.06 930.872C1691.73 931.605 1691.57 932.466 1691.57 933.455C1691.57 934.466 1691.73 935.347 1692.05 936.097C1692.37 936.847 1692.83 937.429 1693.41 937.844C1694 938.259 1694.7 938.466 1695.49 938.466C1696.02 938.466 1696.49 938.375 1696.92 938.193C1697.34 938.011 1697.7 937.75 1698 937.409C1698.29 937.068 1698.5 936.659 1698.63 936.182H1700.64C1700.53 936.955 1700.25 937.651 1699.8 938.27C1699.35 938.884 1698.77 939.372 1698.03 939.736C1697.31 940.094 1696.46 940.273 1695.49 940.273Z" fill="#777777"/>
<path fill-rule="evenodd" clip-rule="evenodd" d="M1270.13 913C1255.69 913 1244 924.88 1244 939.548C1244 951.296 1251.48 961.218 1261.87 964.736C1263.18 964.968 1263.67 964.172 1263.67 963.475C1263.67 962.844 1263.63 960.753 1263.63 958.53C1257.07 959.758 1255.37 956.904 1254.85 955.411C1254.55 954.647 1253.28 952.291 1252.17 951.661C1251.25 951.163 1249.95 949.935 1252.13 949.902C1254.19 949.869 1255.66 951.827 1256.15 952.623C1258.5 956.639 1262.26 955.51 1263.76 954.813C1263.99 953.088 1264.68 951.926 1265.43 951.263C1259.61 950.599 1253.54 948.309 1253.54 938.154C1253.54 935.267 1254.55 932.878 1256.22 931.02C1255.96 930.356 1255.04 927.635 1256.48 923.984C1256.48 923.984 1258.67 923.287 1263.67 926.705C1265.76 926.108 1267.98 925.809 1270.2 925.809C1272.42 925.809 1274.64 926.108 1276.73 926.705C1281.73 923.254 1283.92 923.984 1283.92 923.984C1285.36 927.635 1284.44 930.356 1284.18 931.02C1285.85 932.878 1286.86 935.234 1286.86 938.154C1286.86 948.342 1280.75 950.599 1274.94 951.263C1275.88 952.092 1276.7 953.685 1276.7 956.174C1276.7 959.725 1276.67 962.579 1276.67 963.475C1276.67 964.172 1277.16 965.001 1278.46 964.736C1283.65 962.957 1288.16 959.569 1291.35 955.051C1294.55 950.533 1296.27 945.111 1296.27 939.548C1296.27 924.88 1284.57 913 1270.13 913Z" fill="#777777"/>
<path fill-rule="evenodd" clip-rule="evenodd" d="M815 631.449C815 619.926 819.578 608.874 827.726 600.726C835.874 592.578 846.926 588 858.449 588H1023.55C1035.07 588 1046.13 592.578 1054.27 600.726C1062.42 608.874 1067 619.926 1067 631.449V771.869C1067 796.691 1035.58 807.464 1020.35 787.871L972.717 726.593V800.898C972.717 811.268 968.597 821.214 961.264 828.547C953.931 835.88 943.985 840 933.615 840H858.449C846.926 840 835.874 835.422 827.726 827.274C819.578 819.126 815 808.074 815 796.551V631.449ZM858.449 622.762C853.647 622.762 849.762 626.647 849.762 631.442V796.551C849.762 801.353 853.647 805.245 858.442 805.245H934.917C937.318 805.245 937.955 803.299 937.955 800.898V701.26C937.955 676.431 969.371 665.658 984.61 685.258L1032.24 746.529V631.449C1032.24 626.647 1032.69 622.762 1027.9 622.762H858.449Z" fill="#12FFF7"/>
<path fill-rule="evenodd" clip-rule="evenodd" d="M815 631.449C815 619.926 819.578 608.874 827.726 600.726C835.874 592.578 846.926 588 858.449 588H1023.55C1035.07 588 1046.13 592.578 1054.27 600.726C1062.42 608.874 1067 619.926 1067 631.449V771.869C1067 796.691 1035.58 807.464 1020.35 787.871L972.717 726.593V800.898C972.717 811.268 968.597 821.214 961.264 828.547C953.931 835.88 943.985 840 933.615 840H858.449C846.926 840 835.874 835.422 827.726 827.274C819.578 819.126 815 808.074 815 796.551V631.449ZM858.449 622.762C853.647 622.762 849.762 626.647 849.762 631.442V796.551C849.762 801.353 853.647 805.245 858.442 805.245H934.917C937.318 805.245 937.955 803.299 937.955 800.898V701.26C937.955 676.431 969.371 665.658 984.61 685.258L1032.24 746.529V631.449C1032.24 626.647 1032.69 622.762 1027.9 622.762H858.449Z" fill="url(#paint0_linear_3092_4058)"/>
<path fill-rule="evenodd" clip-rule="evenodd" d="M815 631.449C815 619.926 819.578 608.874 827.726 600.726C835.874 592.578 846.926 588 858.449 588H1023.55C1035.07 588 1046.13 592.578 1054.27 600.726C1062.42 608.874 1067 619.926 1067 631.449V771.869C1067 796.691 1035.58 807.464 1020.35 787.871L972.717 726.593V800.898C972.717 811.268 968.597 821.214 961.264 828.547C953.931 835.88 943.985 840 933.615 840H858.449C846.926 840 835.874 835.422 827.726 827.274C819.578 819.126 815 808.074 815 796.551V631.449ZM858.449 622.762C853.647 622.762 849.762 626.647 849.762 631.442V796.551C849.762 801.353 853.647 805.245 858.442 805.245H934.917C937.318 805.245 937.955 803.299 937.955 800.898V701.26C937.955 676.431 969.371 665.658 984.61 685.258L1032.24 746.529V631.449C1032.24 626.647 1032.69 622.762 1027.9 622.762H858.449Z" fill="url(#paint1_linear_3092_4058)"/>
<path d="M1023.68 588C1035.17 588 1046.19 592.578 1054.31 600.726C1062.44 608.874 1067 619.926 1067 631.449V771.869C1067 796.691 1035.67 807.464 1020.49 787.871L972.989 726.593V800.898C972.989 811.268 968.881 821.214 961.569 828.547C954.258 835.88 944.341 840 934 840C934.568 840 935.131 839.888 935.656 839.67C936.181 839.452 936.658 839.132 937.06 838.729C937.462 838.326 937.781 837.847 937.998 837.321C938.216 836.794 938.327 836.23 938.327 835.66V701.26C938.327 676.431 969.653 665.658 984.848 685.258L1032.35 746.529V596.687C1032.35 591.892 1028.46 588 1023.68 588Z" fill="#B9FFB3"/>
<path d="M1240.1 662.546V728.524L1176.24 662.546H1143V770.454H1173.31V699.543L1242.87 770.454H1270.41V662.546H1240.1ZM1326.6 746.406V727.291H1394.46V704.322H1326.6V686.594H1408.93V662.546H1295.67V770.454H1410.62V746.406H1326.6ZM1491.17 774C1533.8 774 1561.5 753.035 1561.5 716.5C1561.5 679.965 1533.8 659 1491.17 659C1448.55 659 1421.01 679.965 1421.01 716.5C1421.01 753.035 1448.55 774 1491.17 774ZM1491.17 748.41C1467.48 748.41 1452.86 736.849 1452.86 716.5C1452.86 696.151 1467.63 684.59 1491.17 684.59C1514.87 684.59 1529.49 696.151 1529.49 716.5C1529.49 736.849 1514.87 748.41 1491.17 748.41ZM1677.69 662.546V728.524L1613.83 662.546H1580.59V770.454H1610.9V699.543L1680.46 770.454H1708V662.546H1677.69Z" fill="white"/>
<defs>
<linearGradient id="paint0_linear_3092_4058" x1="1067" y1="840" x2="845.415" y2="588" gradientUnits="userSpaceOnUse">
<stop stop-color="#B9FFB3"/>
<stop offset="1" stop-color="#B9FFB3" stop-opacity="0"/>
</linearGradient>
<linearGradient id="paint1_linear_3092_4058" x1="1067" y1="840" x2="917.319" y2="781.781" gradientUnits="userSpaceOnUse">
<stop stop-color="#1A1A1A" stop-opacity="0.9"/>
<stop offset="1" stop-color="#1A1A1A" stop-opacity="0"/>
</linearGradient>
</defs>
</svg>
