<svg width="1792" height="1024" viewBox="0 0 1792 1024" fill="none" xmlns="http://www.w3.org/2000/svg">
<rect width="1792" height="1024" fill="#080808"/>
<path d="M202.417 165.765C206.276 165.765 208.206 165.765 209.733 165.142C211.868 164.271 213.561 162.559 214.423 160.4C215.039 158.856 215.039 156.905 215.039 153.002V153.002V127.894C215.039 119.81 215.039 115.767 212.555 113.256C210.072 110.744 206.074 110.744 198.079 110.744H182.71C170.387 110.744 164.226 110.744 161.741 114.818C159.257 118.892 162.023 124.459 167.555 135.593L178.122 156.863C179.966 160.574 177.298 164.949 173.191 164.949C171.104 164.949 169.196 163.759 168.26 161.874L147.552 120.195C145.268 115.597 144.125 113.297 142.079 112.021C140.032 110.744 137.487 110.744 132.398 110.744L127.323 110.744C119.328 110.744 115.33 110.744 112.847 113.256C110.363 115.768 110.363 119.81 110.363 127.894L110.363 152.186C110.363 156.089 110.363 158.04 109.747 159.584C108.885 161.743 107.192 163.455 105.057 164.326C103.53 164.95 101.6 164.95 97.741 164.95H97.7409C93.8819 164.95 91.9523 164.95 90.4253 165.573C88.2902 166.444 86.5972 168.156 85.7355 170.315C85.1191 171.859 85.1191 173.81 85.1191 177.713V202.821C85.1191 210.905 85.1191 214.948 87.6029 217.459C90.0866 219.971 94.0841 219.971 102.079 219.971H102.079H117.449C129.771 219.971 135.932 219.971 138.417 215.897C140.901 211.823 138.135 206.256 132.604 195.122L122.036 173.852C120.192 170.14 122.86 165.766 126.967 165.766C129.054 165.766 130.962 166.956 131.899 168.841L152.606 210.52C154.891 215.118 156.033 217.418 158.08 218.694C160.126 219.97 162.671 219.97 167.761 219.97H167.761H172.835C180.83 219.97 184.828 219.97 187.312 217.459C189.795 214.947 189.795 210.905 189.795 202.82V178.529C189.795 174.626 189.795 172.675 190.412 171.131C191.274 168.972 192.966 167.26 195.102 166.389C196.629 165.765 198.558 165.765 202.417 165.765Z" fill="white"/>
<path d="M202.417 165.765C206.276 165.765 208.206 165.765 209.733 165.142C211.868 164.271 213.561 162.559 214.423 160.4C215.039 158.856 215.039 156.905 215.039 153.002V153.002V127.894C215.039 119.81 215.039 115.767 212.555 113.256C210.072 110.744 206.074 110.744 198.079 110.744H182.71C170.387 110.744 164.226 110.744 161.741 114.818C159.257 118.892 162.023 124.459 167.555 135.593L178.122 156.863C179.966 160.574 177.298 164.949 173.191 164.949C171.104 164.949 169.196 163.759 168.26 161.874L147.552 120.195C145.268 115.597 144.125 113.297 142.079 112.021C140.032 110.744 137.487 110.744 132.398 110.744L127.323 110.744C119.328 110.744 115.33 110.744 112.847 113.256C110.363 115.768 110.363 119.81 110.363 127.894L110.363 152.186C110.363 156.089 110.363 158.04 109.747 159.584C108.885 161.743 107.192 163.455 105.057 164.326C103.53 164.95 101.6 164.95 97.741 164.95H97.7409C93.8819 164.95 91.9523 164.95 90.4253 165.573C88.2902 166.444 86.5972 168.156 85.7355 170.315C85.1191 171.859 85.1191 173.81 85.1191 177.713V202.821C85.1191 210.905 85.1191 214.948 87.6029 217.459C90.0866 219.971 94.0841 219.971 102.079 219.971H102.079H117.449C129.771 219.971 135.932 219.971 138.417 215.897C140.901 211.823 138.135 206.256 132.604 195.122L122.036 173.852C120.192 170.14 122.86 165.766 126.967 165.766C129.054 165.766 130.962 166.956 131.899 168.841L152.606 210.52C154.891 215.118 156.033 217.418 158.08 218.694C160.126 219.97 162.671 219.97 167.761 219.97H167.761H172.835C180.83 219.97 184.828 219.97 187.312 217.459C189.795 214.947 189.795 210.905 189.795 202.82V178.529C189.795 174.626 189.795 172.675 190.412 171.131C191.274 168.972 192.966 167.26 195.102 166.389C196.629 165.765 198.558 165.765 202.417 165.765Z" stroke="white"/>
<path d="M129.415 399.441V329.623H137.87V360.714H175.097V329.623H183.552V399.441H175.097V368.214H137.87V399.441H129.415ZM218.74 400.532C214.013 400.532 209.865 399.407 206.297 397.157C202.751 394.907 199.978 391.76 197.978 387.714C196.001 383.669 195.013 378.941 195.013 373.532C195.013 368.078 196.001 363.316 197.978 359.248C199.978 355.18 202.751 352.021 206.297 349.771C209.865 347.521 214.013 346.396 218.74 346.396C223.467 346.396 227.603 347.521 231.149 349.771C234.717 352.021 237.49 355.18 239.467 359.248C241.467 363.316 242.467 368.078 242.467 373.532C242.467 378.941 241.467 383.669 239.467 387.714C237.49 391.76 234.717 394.907 231.149 397.157C227.603 399.407 223.467 400.532 218.74 400.532ZM218.74 393.305C222.331 393.305 225.285 392.385 227.603 390.544C229.922 388.703 231.638 386.282 232.751 383.282C233.865 380.282 234.422 377.032 234.422 373.532C234.422 370.032 233.865 366.771 232.751 363.748C231.638 360.725 229.922 358.282 227.603 356.419C225.285 354.555 222.331 353.623 218.74 353.623C215.149 353.623 212.194 354.555 209.876 356.419C207.558 358.282 205.842 360.725 204.728 363.748C203.615 366.771 203.058 370.032 203.058 373.532C203.058 377.032 203.615 380.282 204.728 383.282C205.842 386.282 207.558 388.703 209.876 390.544C212.194 392.385 215.149 393.305 218.74 393.305ZM262.911 399.441L246.956 347.078H255.411L266.729 387.169H267.274L278.456 347.078H287.047L298.093 387.032H298.638L309.956 347.078H318.411L302.456 399.441H294.547L283.093 359.214H282.274L270.82 399.441H262.911ZM374.98 347.078V353.896H347.843V347.078H374.98ZM355.753 334.532H363.798V384.441C363.798 386.714 364.128 388.419 364.787 389.555C365.468 390.669 366.332 391.419 367.378 391.805C368.446 392.169 369.571 392.35 370.753 392.35C371.639 392.35 372.366 392.305 372.934 392.214C373.503 392.1 373.957 392.01 374.298 391.941L375.934 399.169C375.389 399.373 374.628 399.578 373.65 399.782C372.673 400.01 371.434 400.123 369.934 400.123C367.662 400.123 365.434 399.635 363.253 398.657C361.093 397.68 359.298 396.191 357.866 394.191C356.457 392.191 355.753 389.669 355.753 386.623V334.532ZM405.872 400.532C401.145 400.532 396.997 399.407 393.429 397.157C389.884 394.907 387.111 391.76 385.111 387.714C383.134 383.669 382.145 378.941 382.145 373.532C382.145 368.078 383.134 363.316 385.111 359.248C387.111 355.18 389.884 352.021 393.429 349.771C396.997 347.521 401.145 346.396 405.872 346.396C410.6 346.396 414.736 347.521 418.281 349.771C421.85 352.021 424.622 355.18 426.6 359.248C428.6 363.316 429.6 368.078 429.6 373.532C429.6 378.941 428.6 383.669 426.6 387.714C424.622 391.76 421.85 394.907 418.281 397.157C414.736 399.407 410.6 400.532 405.872 400.532ZM405.872 393.305C409.463 393.305 412.418 392.385 414.736 390.544C417.054 388.703 418.77 386.282 419.884 383.282C420.997 380.282 421.554 377.032 421.554 373.532C421.554 370.032 420.997 366.771 419.884 363.748C418.77 360.725 417.054 358.282 414.736 356.419C412.418 354.555 409.463 353.623 405.872 353.623C402.281 353.623 399.327 354.555 397.009 356.419C394.69 358.282 392.975 360.725 391.861 363.748C390.747 366.771 390.19 370.032 390.19 373.532C390.19 377.032 390.747 380.282 391.861 383.282C392.975 386.282 394.69 388.703 397.009 390.544C399.327 392.385 402.281 393.305 405.872 393.305ZM502.132 358.805L494.904 360.85C494.45 359.646 493.779 358.475 492.893 357.339C492.029 356.18 490.848 355.225 489.348 354.475C487.848 353.725 485.927 353.35 483.586 353.35C480.382 353.35 477.711 354.089 475.575 355.566C473.461 357.021 472.404 358.873 472.404 361.123C472.404 363.123 473.132 364.703 474.586 365.862C476.041 367.021 478.314 367.987 481.404 368.76L489.177 370.669C493.859 371.805 497.348 373.544 499.643 375.885C501.939 378.203 503.086 381.191 503.086 384.85C503.086 387.85 502.223 390.532 500.495 392.896C498.791 395.26 496.404 397.123 493.336 398.487C490.268 399.85 486.7 400.532 482.632 400.532C477.291 400.532 472.87 399.373 469.37 397.055C465.87 394.737 463.654 391.35 462.723 386.896L470.359 384.987C471.086 387.805 472.461 389.919 474.484 391.328C476.529 392.737 479.2 393.441 482.495 393.441C486.245 393.441 489.223 392.646 491.427 391.055C493.654 389.441 494.768 387.51 494.768 385.26C494.768 383.441 494.132 381.919 492.859 380.691C491.586 379.441 489.632 378.51 486.995 377.896L478.268 375.85C473.473 374.714 469.95 372.953 467.7 370.566C465.473 368.157 464.359 365.146 464.359 361.532C464.359 358.578 465.189 355.964 466.848 353.691C468.529 351.419 470.814 349.635 473.7 348.339C476.609 347.044 479.904 346.396 483.586 346.396C488.768 346.396 492.836 347.532 495.791 349.805C498.768 352.078 500.882 355.078 502.132 358.805ZM535.232 400.532C530.186 400.532 525.834 399.419 522.175 397.191C518.538 394.941 515.732 391.805 513.754 387.782C511.8 383.737 510.823 379.032 510.823 373.669C510.823 368.305 511.8 363.578 513.754 359.487C515.732 355.373 518.482 352.169 522.004 349.873C525.55 347.555 529.686 346.396 534.413 346.396C537.141 346.396 539.834 346.85 542.493 347.76C545.152 348.669 547.573 350.146 549.754 352.191C551.936 354.214 553.675 356.896 554.97 360.237C556.266 363.578 556.913 367.691 556.913 372.578V375.987H516.55V369.032H548.732C548.732 366.078 548.141 363.441 546.959 361.123C545.8 358.805 544.141 356.975 541.982 355.635C539.845 354.294 537.323 353.623 534.413 353.623C531.209 353.623 528.436 354.419 526.095 356.01C523.777 357.578 521.993 359.623 520.743 362.146C519.493 364.669 518.868 367.373 518.868 370.26V374.896C518.868 378.85 519.55 382.203 520.913 384.953C522.3 387.68 524.22 389.76 526.675 391.191C529.129 392.6 531.982 393.305 535.232 393.305C537.345 393.305 539.254 393.01 540.959 392.419C542.686 391.805 544.175 390.896 545.425 389.691C546.675 388.464 547.641 386.941 548.323 385.123L556.095 387.305C555.277 389.941 553.902 392.26 551.97 394.26C550.038 396.237 547.652 397.782 544.811 398.896C541.97 399.987 538.777 400.532 535.232 400.532ZM589.187 400.532C584.141 400.532 579.789 399.419 576.13 397.191C572.493 394.941 569.687 391.805 567.709 387.782C565.755 383.737 564.778 379.032 564.778 373.669C564.778 368.305 565.755 363.578 567.709 359.487C569.687 355.373 572.437 352.169 575.959 349.873C579.505 347.555 583.641 346.396 588.368 346.396C591.096 346.396 593.789 346.85 596.448 347.76C599.107 348.669 601.528 350.146 603.709 352.191C605.891 354.214 607.63 356.896 608.925 360.237C610.221 363.578 610.868 367.691 610.868 372.578V375.987H570.505V369.032H602.687C602.687 366.078 602.096 363.441 600.914 361.123C599.755 358.805 598.096 356.975 595.937 355.635C593.8 354.294 591.278 353.623 588.368 353.623C585.164 353.623 582.391 354.419 580.05 356.01C577.732 357.578 575.948 359.623 574.698 362.146C573.448 364.669 572.823 367.373 572.823 370.26V374.896C572.823 378.85 573.505 382.203 574.868 384.953C576.255 387.68 578.175 389.76 580.63 391.191C583.084 392.6 585.937 393.305 589.187 393.305C591.3 393.305 593.209 393.01 594.914 392.419C596.641 391.805 598.13 390.896 599.38 389.691C600.63 388.464 601.596 386.941 602.278 385.123L610.05 387.305C609.232 389.941 607.857 392.26 605.925 394.26C603.993 396.237 601.607 397.782 598.766 398.896C595.925 399.987 592.732 400.532 589.187 400.532ZM640.96 400.532C636.596 400.532 632.744 399.43 629.403 397.225C626.062 394.998 623.448 391.862 621.562 387.816C619.676 383.748 618.733 378.941 618.733 373.396C618.733 367.896 619.676 363.123 621.562 359.078C623.448 355.032 626.073 351.907 629.437 349.703C632.801 347.498 636.687 346.396 641.096 346.396C644.505 346.396 647.198 346.964 649.176 348.1C651.176 349.214 652.698 350.487 653.744 351.919C654.812 353.328 655.642 354.487 656.233 355.396H656.914V329.623H664.96V399.441H657.187V391.396H656.233C655.642 392.35 654.801 393.555 653.71 395.01C652.619 396.441 651.062 397.725 649.039 398.862C647.017 399.975 644.323 400.532 640.96 400.532ZM642.051 393.305C645.278 393.305 648.005 392.464 650.233 390.782C652.46 389.078 654.153 386.725 655.312 383.725C656.471 380.703 657.051 377.214 657.051 373.26C657.051 369.35 656.483 365.93 655.346 362.998C654.21 360.044 652.528 357.748 650.301 356.112C648.073 354.453 645.323 353.623 642.051 353.623C638.642 353.623 635.801 354.498 633.528 356.248C631.278 357.975 629.585 360.328 628.448 363.305C627.335 366.26 626.778 369.578 626.778 373.26C626.778 376.987 627.346 380.373 628.483 383.419C629.642 386.441 631.346 388.85 633.596 390.646C635.869 392.419 638.687 393.305 642.051 393.305ZM709.154 419.078C707.79 419.078 706.574 418.964 705.506 418.737C704.438 418.532 703.699 418.328 703.29 418.123L705.336 411.032C707.29 411.532 709.018 411.714 710.518 411.578C712.018 411.441 713.347 410.771 714.506 409.566C715.688 408.385 716.768 406.464 717.745 403.805L719.245 399.714L699.881 347.078H708.608L723.063 388.805H723.608L738.063 347.078H746.79L724.563 407.078C723.563 409.782 722.324 412.021 720.847 413.794C719.37 415.589 717.654 416.919 715.699 417.782C713.768 418.646 711.586 419.078 709.154 419.078ZM774.887 400.532C770.16 400.532 766.012 399.407 762.444 397.157C758.899 394.907 756.126 391.76 754.126 387.714C752.149 383.669 751.16 378.941 751.16 373.532C751.16 368.078 752.149 363.316 754.126 359.248C756.126 355.18 758.899 352.021 762.444 349.771C766.012 347.521 770.16 346.396 774.887 346.396C779.615 346.396 783.751 347.521 787.296 349.771C790.865 352.021 793.637 355.18 795.615 359.248C797.615 363.316 798.615 368.078 798.615 373.532C798.615 378.941 797.615 383.669 795.615 387.714C793.637 391.76 790.865 394.907 787.296 397.157C783.751 399.407 779.615 400.532 774.887 400.532ZM774.887 393.305C778.478 393.305 781.433 392.385 783.751 390.544C786.069 388.703 787.785 386.282 788.899 383.282C790.012 380.282 790.569 377.032 790.569 373.532C790.569 370.032 790.012 366.771 788.899 363.748C787.785 360.725 786.069 358.282 783.751 356.419C781.433 354.555 778.478 353.623 774.887 353.623C771.296 353.623 768.342 354.555 766.024 356.419C763.705 358.282 761.99 360.725 760.876 363.748C759.762 366.771 759.205 370.032 759.205 373.532C759.205 377.032 759.762 380.282 760.876 383.282C761.99 386.282 763.705 388.703 766.024 390.544C768.342 392.385 771.296 393.305 774.887 393.305ZM841.976 378.032V347.078H850.021V399.441H841.976V390.578H841.43C840.203 393.237 838.294 395.498 835.703 397.362C833.112 399.203 829.839 400.123 825.885 400.123C822.612 400.123 819.703 399.407 817.158 397.975C814.612 396.521 812.612 394.339 811.158 391.43C809.703 388.498 808.976 384.805 808.976 380.35V347.078H817.021V379.805C817.021 383.623 818.089 386.669 820.226 388.941C822.385 391.214 825.135 392.35 828.476 392.35C830.476 392.35 832.51 391.839 834.578 390.816C836.669 389.794 838.419 388.225 839.828 386.112C841.26 383.998 841.976 381.305 841.976 378.032ZM862.837 399.441V347.078H870.61V354.987H871.155C872.11 352.396 873.837 350.294 876.337 348.68C878.837 347.066 881.655 346.26 884.792 346.26C885.383 346.26 886.121 346.271 887.008 346.294C887.894 346.316 888.564 346.35 889.019 346.396V354.578C888.746 354.51 888.121 354.407 887.144 354.271C886.189 354.112 885.178 354.032 884.11 354.032C881.564 354.032 879.292 354.566 877.292 355.635C875.314 356.68 873.746 358.135 872.587 359.998C871.451 361.839 870.883 363.941 870.883 366.305V399.441H862.837ZM978.17 329.623V399.441H969.989L931.943 344.623H931.261V399.441H922.807V329.623H930.989L969.17 384.578H969.852V329.623H978.17ZM1014.03 400.532C1008.99 400.532 1004.63 399.419 1000.97 397.191C997.338 394.941 994.532 391.805 992.554 387.782C990.6 383.737 989.623 379.032 989.623 373.669C989.623 368.305 990.6 363.578 992.554 359.487C994.532 355.373 997.282 352.169 1000.8 349.873C1004.35 347.555 1008.49 346.396 1013.21 346.396C1015.94 346.396 1018.63 346.85 1021.29 347.76C1023.95 348.669 1026.37 350.146 1028.55 352.191C1030.74 354.214 1032.47 356.896 1033.77 360.237C1035.07 363.578 1035.71 367.691 1035.71 372.578V375.987H995.35V369.032H1027.53C1027.53 366.078 1026.94 363.441 1025.76 361.123C1024.6 358.805 1022.94 356.975 1020.78 355.635C1018.65 354.294 1016.12 353.623 1013.21 353.623C1010.01 353.623 1007.24 354.419 1004.9 356.01C1002.58 357.578 1000.79 359.623 999.543 362.146C998.293 364.669 997.668 367.373 997.668 370.26V374.896C997.668 378.85 998.35 382.203 999.713 384.953C1001.1 387.68 1003.02 389.76 1005.47 391.191C1007.93 392.6 1010.78 393.305 1014.03 393.305C1016.15 393.305 1018.05 393.01 1019.76 392.419C1021.49 391.805 1022.97 390.896 1024.22 389.691C1025.47 388.464 1026.44 386.941 1027.12 385.123L1034.9 387.305C1034.08 389.941 1032.7 392.26 1030.77 394.26C1028.84 396.237 1026.45 397.782 1023.61 398.896C1020.77 399.987 1017.58 400.532 1014.03 400.532ZM1067.3 400.532C1062.58 400.532 1058.43 399.407 1054.86 397.157C1051.32 394.907 1048.54 391.76 1046.54 387.714C1044.57 383.669 1043.58 378.941 1043.58 373.532C1043.58 368.078 1044.57 363.316 1046.54 359.248C1048.54 355.18 1051.32 352.021 1054.86 349.771C1058.43 347.521 1062.58 346.396 1067.3 346.396C1072.03 346.396 1076.17 347.521 1079.71 349.771C1083.28 352.021 1086.05 355.18 1088.03 359.248C1090.03 363.316 1091.03 368.078 1091.03 373.532C1091.03 378.941 1090.03 383.669 1088.03 387.714C1086.05 391.76 1083.28 394.907 1079.71 397.157C1076.17 399.407 1072.03 400.532 1067.3 400.532ZM1067.3 393.305C1070.9 393.305 1073.85 392.385 1076.17 390.544C1078.49 388.703 1080.2 386.282 1081.32 383.282C1082.43 380.282 1082.99 377.032 1082.99 373.532C1082.99 370.032 1082.43 366.771 1081.32 363.748C1080.2 360.725 1078.49 358.282 1076.17 356.419C1073.85 354.555 1070.9 353.623 1067.3 353.623C1063.71 353.623 1060.76 354.555 1058.44 356.419C1056.12 358.282 1054.41 360.725 1053.29 363.748C1052.18 366.771 1051.62 370.032 1051.62 373.532C1051.62 377.032 1052.18 380.282 1053.29 383.282C1054.41 386.282 1056.12 388.703 1058.44 390.544C1060.76 392.385 1063.71 393.305 1067.3 393.305ZM1109.44 367.941V399.441H1101.39V347.078H1109.17V355.26H1109.85C1111.08 352.6 1112.94 350.464 1115.44 348.85C1117.94 347.214 1121.17 346.396 1125.12 346.396C1128.67 346.396 1131.77 347.123 1134.43 348.578C1137.09 350.01 1139.15 352.191 1140.63 355.123C1142.11 358.032 1142.85 361.714 1142.85 366.169V399.441H1134.8V366.714C1134.8 362.6 1133.73 359.396 1131.6 357.1C1129.46 354.782 1126.53 353.623 1122.8 353.623C1120.23 353.623 1117.94 354.18 1115.92 355.294C1113.92 356.407 1112.34 358.032 1111.18 360.169C1110.02 362.305 1109.44 364.896 1109.44 367.941ZM1203.35 399.441H1181.8V329.623H1204.3C1211.07 329.623 1216.87 331.021 1221.69 333.816C1226.51 336.589 1230.2 340.578 1232.77 345.782C1235.33 350.964 1236.62 357.169 1236.62 364.396C1236.62 371.669 1235.32 377.93 1232.73 383.18C1230.14 388.407 1226.37 392.43 1221.41 395.248C1216.46 398.044 1210.44 399.441 1203.35 399.441ZM1190.26 391.941H1202.8C1208.57 391.941 1213.36 390.828 1217.15 388.6C1220.95 386.373 1223.78 383.203 1225.64 379.089C1227.51 374.975 1228.44 370.078 1228.44 364.396C1228.44 358.76 1227.52 353.907 1225.68 349.839C1223.83 345.748 1221.08 342.612 1217.43 340.43C1213.77 338.225 1209.21 337.123 1203.76 337.123H1190.26V391.941ZM1248.88 399.441V329.623H1273.29C1278.15 329.623 1282.16 330.464 1285.32 332.146C1288.48 333.805 1290.83 336.044 1292.38 338.862C1293.93 341.657 1294.7 344.76 1294.7 348.169C1294.7 351.169 1294.16 353.646 1293.1 355.6C1292.05 357.555 1290.66 359.1 1288.94 360.237C1287.23 361.373 1285.38 362.214 1283.38 362.76V363.441C1285.52 363.578 1287.66 364.328 1289.82 365.691C1291.98 367.055 1293.79 369.01 1295.24 371.555C1296.7 374.1 1297.43 377.214 1297.43 380.896C1297.43 384.396 1296.63 387.544 1295.04 390.339C1293.45 393.135 1290.94 395.35 1287.51 396.987C1284.07 398.623 1279.61 399.441 1274.11 399.441H1248.88ZM1257.33 391.941H1274.11C1279.63 391.941 1283.55 390.873 1285.87 388.737C1288.21 386.578 1289.38 383.964 1289.38 380.896C1289.38 378.532 1288.78 376.35 1287.57 374.35C1286.37 372.328 1284.65 370.714 1282.43 369.51C1280.2 368.282 1277.56 367.669 1274.52 367.669H1257.33V391.941ZM1257.33 360.305H1273.02C1275.56 360.305 1277.86 359.805 1279.9 358.805C1281.97 357.805 1283.61 356.396 1284.81 354.578C1286.04 352.76 1286.65 350.623 1286.65 348.169C1286.65 345.1 1285.58 342.498 1283.45 340.362C1281.31 338.203 1277.93 337.123 1273.29 337.123H1257.33V360.305ZM140.188 515.441L124.234 463.078H132.688L144.006 503.169H144.552L155.734 463.078H164.325L175.37 503.032H175.915L187.234 463.078H195.688L179.734 515.441H171.825L160.37 475.214H159.552L148.097 515.441H140.188ZM204.405 515.441V463.078H212.45V515.441H204.405ZM208.495 454.35C206.927 454.35 205.575 453.816 204.439 452.748C203.325 451.68 202.768 450.396 202.768 448.896C202.768 447.396 203.325 446.112 204.439 445.044C205.575 443.975 206.927 443.441 208.495 443.441C210.064 443.441 211.405 443.975 212.518 445.044C213.655 446.112 214.223 447.396 214.223 448.896C214.223 450.396 213.655 451.68 212.518 452.748C211.405 453.816 210.064 454.35 208.495 454.35ZM248.039 463.078V469.896H220.902V463.078H248.039ZM228.811 450.532H236.857V500.441C236.857 502.714 237.186 504.419 237.845 505.555C238.527 506.669 239.391 507.419 240.436 507.805C241.504 508.169 242.629 508.35 243.811 508.35C244.698 508.35 245.425 508.305 245.993 508.214C246.561 508.1 247.016 508.01 247.357 507.941L248.993 515.169C248.448 515.373 247.686 515.578 246.709 515.782C245.732 516.01 244.493 516.123 242.993 516.123C240.72 516.123 238.493 515.635 236.311 514.657C234.152 513.68 232.357 512.191 230.925 510.191C229.516 508.191 228.811 505.669 228.811 502.623V450.532ZM267.391 483.941V515.441H259.346V445.623H267.391V471.26H268.073C269.3 468.555 271.141 466.407 273.596 464.816C276.073 463.203 279.369 462.396 283.482 462.396C287.05 462.396 290.175 463.112 292.857 464.544C295.539 465.953 297.619 468.123 299.096 471.055C300.596 473.964 301.346 477.669 301.346 482.169V515.441H293.3V482.714C293.3 478.555 292.221 475.339 290.062 473.066C287.925 470.771 284.959 469.623 281.164 469.623C278.528 469.623 276.164 470.18 274.073 471.294C272.005 472.407 270.369 474.032 269.164 476.169C267.982 478.305 267.391 480.896 267.391 483.941ZM378.497 463.078C378.088 459.623 376.429 456.941 373.52 455.032C370.611 453.123 367.043 452.169 362.815 452.169C359.725 452.169 357.02 452.669 354.702 453.669C352.406 454.669 350.611 456.044 349.315 457.794C348.043 459.544 347.406 461.532 347.406 463.76C347.406 465.623 347.85 467.225 348.736 468.566C349.645 469.885 350.804 470.987 352.213 471.873C353.622 472.737 355.1 473.453 356.645 474.021C358.19 474.566 359.611 475.01 360.906 475.35L367.997 477.26C369.815 477.737 371.838 478.396 374.065 479.237C376.315 480.078 378.463 481.225 380.509 482.68C382.577 484.112 384.281 485.953 385.622 488.203C386.963 490.453 387.634 493.214 387.634 496.487C387.634 500.26 386.645 503.669 384.668 506.714C382.713 509.76 379.85 512.18 376.077 513.975C372.327 515.771 367.77 516.669 362.406 516.669C357.406 516.669 353.077 515.862 349.418 514.248C345.781 512.635 342.918 510.385 340.827 507.498C338.759 504.612 337.588 501.26 337.315 497.441H346.043C346.27 500.078 347.156 502.26 348.702 503.987C350.27 505.691 352.247 506.964 354.634 507.805C357.043 508.623 359.634 509.032 362.406 509.032C365.634 509.032 368.531 508.51 371.1 507.464C373.668 506.396 375.702 504.919 377.202 503.032C378.702 501.123 379.452 498.896 379.452 496.35C379.452 494.032 378.804 492.146 377.509 490.691C376.213 489.237 374.509 488.055 372.395 487.146C370.281 486.237 367.997 485.441 365.543 484.76L356.952 482.305C351.497 480.737 347.179 478.498 343.997 475.589C340.815 472.68 339.225 468.873 339.225 464.169C339.225 460.26 340.281 456.85 342.395 453.941C344.531 451.01 347.395 448.737 350.986 447.123C354.6 445.487 358.634 444.669 363.088 444.669C367.588 444.669 371.588 445.475 375.088 447.089C378.588 448.68 381.361 450.862 383.406 453.635C385.475 456.407 386.565 459.555 386.679 463.078H378.497ZM403.705 535.078C402.342 535.078 401.126 534.964 400.057 534.737C398.989 534.532 398.251 534.328 397.842 534.123L399.887 527.032C401.842 527.532 403.569 527.714 405.069 527.578C406.569 527.441 407.898 526.771 409.057 525.566C410.239 524.385 411.319 522.464 412.296 519.805L413.796 515.714L394.432 463.078H403.16L417.614 504.805H418.16L432.614 463.078H441.342L419.114 523.078C418.114 525.782 416.876 528.021 415.398 529.794C413.921 531.589 412.205 532.919 410.251 533.782C408.319 534.646 406.137 535.078 403.705 535.078ZM458.086 483.941V515.441H450.041V463.078H457.814V471.26H458.495C459.723 468.6 461.586 466.464 464.086 464.85C466.586 463.214 469.814 462.396 473.768 462.396C477.314 462.396 480.416 463.123 483.075 464.578C485.734 466.01 487.802 468.191 489.279 471.123C490.757 474.032 491.495 477.714 491.495 482.169V515.441H483.45V482.714C483.45 478.6 482.382 475.396 480.245 473.1C478.109 470.782 475.177 469.623 471.45 469.623C468.882 469.623 466.586 470.18 464.564 471.294C462.564 472.407 460.984 474.032 459.825 476.169C458.666 478.305 458.086 480.896 458.086 483.941ZM527.05 463.078V469.896H499.913V463.078H527.05ZM507.823 450.532H515.868V500.441C515.868 502.714 516.198 504.419 516.857 505.555C517.538 506.669 518.402 507.419 519.448 507.805C520.516 508.169 521.641 508.35 522.823 508.35C523.709 508.35 524.436 508.305 525.004 508.214C525.573 508.1 526.027 508.01 526.368 507.941L528.004 515.169C527.459 515.373 526.698 515.578 525.72 515.782C524.743 516.01 523.504 516.123 522.004 516.123C519.732 516.123 517.504 515.635 515.323 514.657C513.163 513.68 511.368 512.191 509.936 510.191C508.527 508.191 507.823 505.669 507.823 502.623V450.532ZM546.403 483.941V515.441H538.357V445.623H546.403V471.26H547.084C548.312 468.555 550.153 466.407 552.607 464.816C555.084 463.203 558.38 462.396 562.493 462.396C566.062 462.396 569.187 463.112 571.868 464.544C574.55 465.953 576.63 468.123 578.107 471.055C579.607 473.964 580.357 477.669 580.357 482.169V515.441H572.312V482.714C572.312 478.555 571.232 475.339 569.073 473.066C566.937 470.771 563.971 469.623 560.175 469.623C557.539 469.623 555.175 470.18 553.084 471.294C551.016 472.407 549.38 474.032 548.175 476.169C546.993 478.305 546.403 480.896 546.403 483.941ZM615.11 516.532C610.065 516.532 605.713 515.419 602.054 513.191C598.417 510.941 595.61 507.805 593.633 503.782C591.679 499.737 590.701 495.032 590.701 489.669C590.701 484.305 591.679 479.578 593.633 475.487C595.61 471.373 598.36 468.169 601.883 465.873C605.429 463.555 609.565 462.396 614.292 462.396C617.019 462.396 619.713 462.85 622.372 463.76C625.031 464.669 627.451 466.146 629.633 468.191C631.815 470.214 633.554 472.896 634.849 476.237C636.144 479.578 636.792 483.691 636.792 488.578V491.987H596.429V485.032H628.61C628.61 482.078 628.019 479.441 626.838 477.123C625.679 474.805 624.019 472.975 621.86 471.635C619.724 470.294 617.201 469.623 614.292 469.623C611.088 469.623 608.315 470.419 605.974 472.01C603.656 473.578 601.872 475.623 600.622 478.146C599.372 480.669 598.747 483.373 598.747 486.26V490.896C598.747 494.85 599.429 498.203 600.792 500.953C602.179 503.68 604.099 505.76 606.554 507.191C609.008 508.6 611.86 509.305 615.11 509.305C617.224 509.305 619.133 509.01 620.838 508.419C622.565 507.805 624.054 506.896 625.304 505.691C626.554 504.464 627.519 502.941 628.201 501.123L635.974 503.305C635.156 505.941 633.781 508.26 631.849 510.26C629.917 512.237 627.531 513.782 624.69 514.896C621.849 515.987 618.656 516.532 615.11 516.532ZM669.884 463.078V469.896H642.747V463.078H669.884ZM650.656 450.532H658.702V500.441C658.702 502.714 659.031 504.419 659.69 505.555C660.372 506.669 661.236 507.419 662.281 507.805C663.349 508.169 664.474 508.35 665.656 508.35C666.543 508.35 667.27 508.305 667.838 508.214C668.406 508.1 668.861 508.01 669.202 507.941L670.838 515.169C670.293 515.373 669.531 515.578 668.554 515.782C667.577 516.01 666.338 516.123 664.838 516.123C662.565 516.123 660.338 515.635 658.156 514.657C655.997 513.68 654.202 512.191 652.77 510.191C651.361 508.191 650.656 505.669 650.656 502.623V450.532ZM680.066 515.441V463.078H688.111V515.441H680.066ZM684.157 454.35C682.589 454.35 681.236 453.816 680.1 452.748C678.986 451.68 678.429 450.396 678.429 448.896C678.429 447.396 678.986 446.112 680.1 445.044C681.236 443.975 682.589 443.441 684.157 443.441C685.725 443.441 687.066 443.975 688.179 445.044C689.316 446.112 689.884 447.396 689.884 448.896C689.884 450.396 689.316 451.68 688.179 452.748C687.066 453.816 685.725 454.35 684.157 454.35ZM722.2 516.532C717.291 516.532 713.063 515.373 709.518 513.055C705.973 510.737 703.245 507.544 701.336 503.475C699.427 499.407 698.473 494.76 698.473 489.532C698.473 484.214 699.45 479.521 701.404 475.453C703.382 471.362 706.132 468.169 709.654 465.873C713.2 463.555 717.336 462.396 722.063 462.396C725.745 462.396 729.063 463.078 732.018 464.441C734.973 465.805 737.393 467.714 739.279 470.169C741.166 472.623 742.336 475.487 742.791 478.76H734.745C734.132 476.373 732.768 474.26 730.654 472.419C728.563 470.555 725.745 469.623 722.2 469.623C719.063 469.623 716.313 470.441 713.95 472.078C711.609 473.691 709.779 475.975 708.461 478.93C707.166 481.862 706.518 485.305 706.518 489.26C706.518 493.305 707.154 496.828 708.427 499.828C709.723 502.828 711.541 505.157 713.882 506.816C716.245 508.475 719.018 509.305 722.2 509.305C724.291 509.305 726.188 508.941 727.893 508.214C729.598 507.487 731.041 506.441 732.223 505.078C733.404 503.714 734.245 502.078 734.745 500.169H742.791C742.336 503.26 741.211 506.044 739.416 508.521C737.643 510.975 735.291 512.93 732.359 514.385C729.45 515.816 726.063 516.532 722.2 516.532ZM797.485 516.532C793.121 516.532 789.269 515.43 785.928 513.225C782.587 510.998 779.973 507.862 778.087 503.816C776.201 499.748 775.258 494.941 775.258 489.396C775.258 483.896 776.201 479.123 778.087 475.078C779.973 471.032 782.598 467.907 785.962 465.703C789.326 463.498 793.212 462.396 797.621 462.396C801.03 462.396 803.723 462.964 805.701 464.1C807.701 465.214 809.223 466.487 810.269 467.919C811.337 469.328 812.167 470.487 812.758 471.396H813.439V445.623H821.485V515.441H813.712V507.396H812.758C812.167 508.35 811.326 509.555 810.235 511.01C809.144 512.441 807.587 513.725 805.564 514.862C803.542 515.975 800.848 516.532 797.485 516.532ZM798.576 509.305C801.803 509.305 804.53 508.464 806.758 506.782C808.985 505.078 810.678 502.725 811.837 499.725C812.996 496.703 813.576 493.214 813.576 489.26C813.576 485.35 813.008 481.93 811.871 478.998C810.735 476.044 809.053 473.748 806.826 472.112C804.598 470.453 801.848 469.623 798.576 469.623C795.167 469.623 792.326 470.498 790.053 472.248C787.803 473.975 786.11 476.328 784.973 479.305C783.86 482.26 783.303 485.578 783.303 489.26C783.303 492.987 783.871 496.373 785.008 499.419C786.167 502.441 787.871 504.85 790.121 506.646C792.394 508.419 795.212 509.305 798.576 509.305ZM850.826 516.669C847.508 516.669 844.497 516.044 841.792 514.794C839.088 513.521 836.94 511.691 835.349 509.305C833.758 506.896 832.963 503.987 832.963 500.578C832.963 497.578 833.553 495.146 834.735 493.282C835.917 491.396 837.497 489.919 839.474 488.85C841.451 487.782 843.633 486.987 846.019 486.464C848.428 485.919 850.849 485.487 853.281 485.169C856.463 484.76 859.042 484.453 861.019 484.248C863.019 484.021 864.474 483.646 865.383 483.123C866.315 482.6 866.781 481.691 866.781 480.396V480.123C866.781 476.76 865.86 474.146 864.019 472.282C862.201 470.419 859.44 469.487 855.735 469.487C851.894 469.487 848.883 470.328 846.701 472.01C844.519 473.691 842.985 475.487 842.099 477.396L834.463 474.669C835.826 471.487 837.644 469.01 839.917 467.237C842.213 465.441 844.713 464.191 847.417 463.487C850.144 462.76 852.826 462.396 855.463 462.396C857.144 462.396 859.076 462.6 861.258 463.01C863.463 463.396 865.588 464.203 867.633 465.43C869.701 466.657 871.417 468.51 872.781 470.987C874.144 473.464 874.826 476.782 874.826 480.941V515.441H866.781V508.35H866.372C865.826 509.487 864.917 510.703 863.644 511.998C862.372 513.294 860.678 514.396 858.565 515.305C856.451 516.214 853.872 516.669 850.826 516.669ZM852.053 509.441C855.235 509.441 857.917 508.816 860.099 507.566C862.303 506.316 863.963 504.703 865.076 502.725C866.213 500.748 866.781 498.669 866.781 496.487V489.123C866.44 489.532 865.69 489.907 864.531 490.248C863.394 490.566 862.076 490.85 860.576 491.1C859.099 491.328 857.656 491.532 856.247 491.714C854.86 491.873 853.735 492.01 852.872 492.123C850.781 492.396 848.826 492.839 847.008 493.453C845.213 494.044 843.758 494.941 842.644 496.146C841.553 497.328 841.008 498.941 841.008 500.987C841.008 503.782 842.042 505.896 844.11 507.328C846.201 508.737 848.849 509.441 852.053 509.441ZM910.364 463.078V469.896H883.227V463.078H910.364ZM891.136 450.532H899.182V500.441C899.182 502.714 899.511 504.419 900.17 505.555C900.852 506.669 901.716 507.419 902.761 507.805C903.829 508.169 904.954 508.35 906.136 508.35C907.023 508.35 907.75 508.305 908.318 508.214C908.886 508.1 909.341 508.01 909.682 507.941L911.318 515.169C910.773 515.373 910.011 515.578 909.034 515.782C908.057 516.01 906.818 516.123 905.318 516.123C903.045 516.123 900.818 515.635 898.636 514.657C896.477 513.68 894.682 512.191 893.25 510.191C891.841 508.191 891.136 505.669 891.136 502.623V450.532ZM935.955 516.669C932.637 516.669 929.625 516.044 926.921 514.794C924.216 513.521 922.069 511.691 920.478 509.305C918.887 506.896 918.091 503.987 918.091 500.578C918.091 497.578 918.682 495.146 919.864 493.282C921.046 491.396 922.625 489.919 924.603 488.85C926.58 487.782 928.762 486.987 931.148 486.464C933.557 485.919 935.978 485.487 938.409 485.169C941.591 484.76 944.171 484.453 946.148 484.248C948.148 484.021 949.603 483.646 950.512 483.123C951.444 482.6 951.909 481.691 951.909 480.396V480.123C951.909 476.76 950.989 474.146 949.148 472.282C947.33 470.419 944.569 469.487 940.864 469.487C937.023 469.487 934.012 470.328 931.83 472.01C929.648 473.691 928.114 475.487 927.228 477.396L919.591 474.669C920.955 471.487 922.773 469.01 925.046 467.237C927.341 465.441 929.841 464.191 932.546 463.487C935.273 462.76 937.955 462.396 940.591 462.396C942.273 462.396 944.205 462.6 946.387 463.01C948.591 463.396 950.716 464.203 952.762 465.43C954.83 466.657 956.546 468.51 957.909 470.987C959.273 473.464 959.955 476.782 959.955 480.941V515.441H951.909V508.35H951.5C950.955 509.487 950.046 510.703 948.773 511.998C947.5 513.294 945.807 514.396 943.694 515.305C941.58 516.214 939 516.669 935.955 516.669ZM937.182 509.441C940.364 509.441 943.046 508.816 945.228 507.566C947.432 506.316 949.091 504.703 950.205 502.725C951.341 500.748 951.909 498.669 951.909 496.487V489.123C951.569 489.532 950.819 489.907 949.659 490.248C948.523 490.566 947.205 490.85 945.705 491.1C944.228 491.328 942.784 491.532 941.375 491.714C939.989 491.873 938.864 492.01 938 492.123C935.909 492.396 933.955 492.839 932.137 493.453C930.341 494.044 928.887 494.941 927.773 496.146C926.682 497.328 926.137 498.941 926.137 500.987C926.137 503.782 927.171 505.896 929.239 507.328C931.33 508.737 933.978 509.441 937.182 509.441Z" fill="white"/>
<path d="M88.9714 928.381V936.256H86.96V923.165H88.9032V925.21H89.0737C89.3805 924.546 89.8464 924.012 90.4714 923.608C91.0964 923.199 91.9032 922.994 92.8919 922.994C93.7782 922.994 94.5538 923.176 95.2186 923.54C95.8833 923.898 96.4004 924.443 96.7697 925.176C97.139 925.904 97.3237 926.824 97.3237 927.938V936.256H95.3123V928.074C95.3123 927.046 95.0453 926.244 94.5112 925.671C93.9771 925.091 93.2441 924.801 92.3123 924.801C91.6703 924.801 91.0964 924.941 90.5907 925.219C90.0907 925.497 89.6958 925.904 89.4061 926.438C89.1163 926.972 88.9714 927.619 88.9714 928.381ZM106.008 936.529C104.746 936.529 103.658 936.25 102.744 935.693C101.834 935.131 101.133 934.347 100.638 933.341C100.15 932.33 99.9055 931.154 99.9055 929.813C99.9055 928.472 100.15 927.29 100.638 926.267C101.133 925.239 101.82 924.438 102.701 923.864C103.587 923.284 104.621 922.994 105.803 922.994C106.485 922.994 107.158 923.108 107.823 923.335C108.488 923.563 109.093 923.932 109.638 924.443C110.184 924.949 110.619 925.619 110.942 926.455C111.266 927.29 111.428 928.318 111.428 929.54V930.392H101.337V928.654H109.383C109.383 927.915 109.235 927.256 108.94 926.676C108.65 926.097 108.235 925.639 107.695 925.304C107.161 924.969 106.53 924.801 105.803 924.801C105.002 924.801 104.309 925 103.724 925.398C103.144 925.79 102.698 926.301 102.386 926.932C102.073 927.563 101.917 928.239 101.917 928.96V930.119C101.917 931.108 102.087 931.946 102.428 932.634C102.775 933.316 103.255 933.835 103.869 934.193C104.482 934.546 105.195 934.722 106.008 934.722C106.536 934.722 107.013 934.648 107.44 934.5C107.871 934.347 108.244 934.119 108.556 933.818C108.869 933.512 109.11 933.131 109.28 932.676L111.224 933.222C111.019 933.881 110.675 934.46 110.192 934.96C109.709 935.455 109.113 935.841 108.403 936.119C107.692 936.392 106.894 936.529 106.008 936.529ZM119.326 936.529C118.144 936.529 117.107 936.247 116.215 935.685C115.329 935.122 114.636 934.335 114.136 933.324C113.641 932.313 113.394 931.131 113.394 929.779C113.394 928.415 113.641 927.225 114.136 926.208C114.636 925.191 115.329 924.401 116.215 923.838C117.107 923.276 118.144 922.994 119.326 922.994C120.508 922.994 121.542 923.276 122.428 923.838C123.32 924.401 124.014 925.191 124.508 926.208C125.008 927.225 125.258 928.415 125.258 929.779C125.258 931.131 125.008 932.313 124.508 933.324C124.014 934.335 123.32 935.122 122.428 935.685C121.542 936.247 120.508 936.529 119.326 936.529ZM119.326 934.722C120.224 934.722 120.962 934.492 121.542 934.031C122.121 933.571 122.55 932.966 122.829 932.216C123.107 931.466 123.247 930.654 123.247 929.779C123.247 928.904 123.107 928.088 122.829 927.333C122.55 926.577 122.121 925.966 121.542 925.5C120.962 925.034 120.224 924.801 119.326 924.801C118.428 924.801 117.69 925.034 117.11 925.5C116.531 925.966 116.102 926.577 115.823 927.333C115.545 928.088 115.406 928.904 115.406 929.779C115.406 930.654 115.545 931.466 115.823 932.216C116.102 932.966 116.531 933.571 117.11 934.031C117.69 934.492 118.428 934.722 119.326 934.722ZM137.121 926.097L135.314 926.608C135.2 926.307 135.033 926.014 134.811 925.73C134.595 925.441 134.3 925.202 133.925 925.014C133.55 924.827 133.07 924.733 132.485 924.733C131.683 924.733 131.016 924.918 130.482 925.287C129.953 925.651 129.689 926.114 129.689 926.676C129.689 927.176 129.871 927.571 130.235 927.861C130.598 928.151 131.166 928.392 131.939 928.585L133.882 929.063C135.053 929.347 135.925 929.781 136.499 930.367C137.073 930.946 137.36 931.693 137.36 932.608C137.36 933.358 137.144 934.029 136.712 934.619C136.286 935.21 135.689 935.676 134.922 936.017C134.155 936.358 133.263 936.529 132.246 936.529C130.911 936.529 129.806 936.239 128.931 935.659C128.056 935.08 127.502 934.233 127.269 933.119L129.178 932.642C129.36 933.347 129.703 933.875 130.209 934.227C130.72 934.58 131.388 934.756 132.212 934.756C133.149 934.756 133.894 934.557 134.445 934.159C135.002 933.756 135.28 933.273 135.28 932.71C135.28 932.256 135.121 931.875 134.803 931.568C134.485 931.256 133.996 931.023 133.337 930.869L131.155 930.358C129.956 930.074 129.075 929.634 128.513 929.037C127.956 928.435 127.678 927.682 127.678 926.779C127.678 926.04 127.885 925.387 128.3 924.818C128.72 924.25 129.291 923.804 130.013 923.48C130.74 923.156 131.564 922.994 132.485 922.994C133.78 922.994 134.797 923.279 135.536 923.847C136.28 924.415 136.808 925.165 137.121 926.097ZM141.203 941.165C140.862 941.165 140.558 941.137 140.291 941.08C140.024 941.029 139.839 940.977 139.737 940.926L140.248 939.154C140.737 939.279 141.169 939.324 141.544 939.29C141.919 939.256 142.251 939.088 142.541 938.787C142.836 938.492 143.106 938.012 143.35 937.347L143.725 936.324L138.885 923.165H141.066L144.68 933.597H144.816L148.43 923.165H150.612L145.055 938.165C144.805 938.841 144.495 939.401 144.126 939.844C143.757 940.293 143.328 940.625 142.839 940.841C142.356 941.057 141.811 941.165 141.203 941.165ZM154.798 928.381V936.256H152.787V923.165H154.73V925.21H154.9C155.207 924.546 155.673 924.012 156.298 923.608C156.923 923.199 157.73 922.994 158.718 922.994C159.605 922.994 160.38 923.176 161.045 923.54C161.71 923.898 162.227 924.443 162.596 925.176C162.966 925.904 163.15 926.824 163.15 927.938V936.256H161.139V928.074C161.139 927.046 160.872 926.244 160.338 925.671C159.804 925.091 159.071 924.801 158.139 924.801C157.497 924.801 156.923 924.941 156.417 925.219C155.917 925.497 155.522 925.904 155.233 926.438C154.943 926.972 154.798 927.619 154.798 928.381ZM171.664 936.529C170.437 936.529 169.38 936.239 168.493 935.659C167.607 935.08 166.925 934.281 166.448 933.264C165.971 932.247 165.732 931.085 165.732 929.779C165.732 928.449 165.976 927.276 166.465 926.259C166.959 925.236 167.647 924.438 168.527 923.864C169.414 923.284 170.448 922.994 171.63 922.994C172.55 922.994 173.38 923.165 174.118 923.506C174.857 923.847 175.462 924.324 175.934 924.938C176.405 925.551 176.698 926.267 176.812 927.085H174.8C174.647 926.489 174.306 925.96 173.777 925.5C173.255 925.034 172.55 924.801 171.664 924.801C170.88 924.801 170.192 925.006 169.601 925.415C169.016 925.818 168.559 926.389 168.229 927.128C167.905 927.861 167.743 928.722 167.743 929.71C167.743 930.722 167.902 931.602 168.221 932.352C168.545 933.102 168.999 933.685 169.584 934.1C170.175 934.514 170.868 934.722 171.664 934.722C172.187 934.722 172.661 934.631 173.087 934.449C173.513 934.267 173.874 934.006 174.17 933.665C174.465 933.324 174.675 932.915 174.8 932.438H176.812C176.698 933.21 176.417 933.906 175.968 934.526C175.525 935.139 174.937 935.628 174.204 935.992C173.476 936.35 172.63 936.529 171.664 936.529ZM180.738 936.392C180.317 936.392 179.957 936.242 179.655 935.941C179.354 935.639 179.204 935.279 179.204 934.858C179.204 934.438 179.354 934.077 179.655 933.776C179.957 933.475 180.317 933.324 180.738 933.324C181.158 933.324 181.519 933.475 181.82 933.776C182.121 934.077 182.272 934.438 182.272 934.858C182.272 935.137 182.201 935.392 182.059 935.625C181.922 935.858 181.738 936.046 181.505 936.188C181.278 936.324 181.022 936.392 180.738 936.392ZM190.344 936.529C189.254 936.529 188.291 936.253 187.455 935.702C186.62 935.145 185.967 934.361 185.495 933.35C185.023 932.333 184.788 931.131 184.788 929.744C184.788 928.369 185.023 927.176 185.495 926.165C185.967 925.154 186.623 924.372 187.464 923.821C188.305 923.27 189.276 922.994 190.379 922.994C191.231 922.994 191.904 923.137 192.398 923.421C192.898 923.699 193.279 924.017 193.541 924.375C193.808 924.727 194.015 925.017 194.163 925.244H194.333V918.801H196.344V936.256H194.401V934.244H194.163C194.015 934.483 193.805 934.784 193.532 935.148C193.259 935.506 192.87 935.827 192.364 936.111C191.859 936.389 191.185 936.529 190.344 936.529ZM190.617 934.722C191.424 934.722 192.106 934.512 192.663 934.091C193.219 933.665 193.643 933.077 193.933 932.327C194.222 931.571 194.367 930.699 194.367 929.71C194.367 928.733 194.225 927.878 193.941 927.145C193.657 926.406 193.237 925.833 192.68 925.423C192.123 925.009 191.435 924.801 190.617 924.801C189.765 924.801 189.055 925.02 188.487 925.458C187.924 925.889 187.501 926.477 187.217 927.222C186.938 927.96 186.799 928.79 186.799 929.71C186.799 930.642 186.941 931.489 187.225 932.25C187.515 933.006 187.941 933.608 188.504 934.057C189.072 934.5 189.776 934.722 190.617 934.722ZM205.316 936.529C204.055 936.529 202.967 936.25 202.052 935.693C201.143 935.131 200.441 934.347 199.947 933.341C199.458 932.33 199.214 931.154 199.214 929.813C199.214 928.472 199.458 927.29 199.947 926.267C200.441 925.239 201.129 924.438 202.009 923.864C202.896 923.284 203.93 922.994 205.112 922.994C205.793 922.994 206.467 923.108 207.132 923.335C207.796 923.563 208.401 923.932 208.947 924.443C209.492 924.949 209.927 925.619 210.251 926.455C210.575 927.29 210.737 928.318 210.737 929.54V930.392H200.646V928.654H208.691C208.691 927.915 208.543 927.256 208.248 926.676C207.958 926.097 207.543 925.639 207.004 925.304C206.47 924.969 205.839 924.801 205.112 924.801C204.311 924.801 203.617 925 203.032 925.398C202.453 925.79 202.007 926.301 201.694 926.932C201.382 927.563 201.225 928.239 201.225 928.96V930.119C201.225 931.108 201.396 931.946 201.737 932.634C202.083 933.316 202.563 933.835 203.177 934.193C203.791 934.546 204.504 934.722 205.316 934.722C205.845 934.722 206.322 934.648 206.748 934.5C207.18 934.347 207.552 934.119 207.864 933.818C208.177 933.512 208.418 933.131 208.589 932.676L210.532 933.222C210.328 933.881 209.984 934.46 209.501 934.96C209.018 935.455 208.421 935.841 207.711 936.119C207.001 936.392 206.203 936.529 205.316 936.529ZM223.622 923.165L218.781 936.256H216.736L211.895 923.165H214.077L217.691 933.597H217.827L221.441 923.165H223.622Z" fill="#777777"/>
<path d="M1333.12 945.182C1332.15 945.182 1331.32 945.057 1330.62 944.807C1329.92 944.562 1329.34 944.239 1328.87 943.835C1328.41 943.438 1328.05 943.011 1327.77 942.557L1329.38 941.432C1329.56 941.67 1329.79 941.943 1330.07 942.25C1330.34 942.562 1330.72 942.832 1331.21 943.06C1331.7 943.293 1332.34 943.409 1333.12 943.409C1334.18 943.409 1335.05 943.153 1335.74 942.642C1336.43 942.131 1336.77 941.33 1336.77 940.239V937.58H1336.6C1336.45 937.818 1336.24 938.114 1335.97 938.466C1335.7 938.812 1335.32 939.122 1334.81 939.395C1334.31 939.662 1333.64 939.795 1332.78 939.795C1331.73 939.795 1330.78 939.545 1329.94 939.045C1329.1 938.545 1328.44 937.818 1327.95 936.864C1327.47 935.909 1327.23 934.75 1327.23 933.386C1327.23 932.045 1327.46 930.878 1327.93 929.884C1328.41 928.884 1329.06 928.111 1329.9 927.565C1330.74 927.014 1331.72 926.739 1332.82 926.739C1333.67 926.739 1334.35 926.881 1334.85 927.165C1335.35 927.443 1335.74 927.761 1336.01 928.119C1336.28 928.472 1336.49 928.761 1336.64 928.989H1336.84V926.909H1338.78V940.375C1338.78 941.5 1338.53 942.415 1338.02 943.119C1337.51 943.83 1336.83 944.349 1335.97 944.679C1335.12 945.014 1334.17 945.182 1333.12 945.182ZM1333.06 937.989C1333.86 937.989 1334.55 937.804 1335.1 937.435C1335.66 937.065 1336.08 936.534 1336.37 935.841C1336.66 935.148 1336.81 934.318 1336.81 933.352C1336.81 932.409 1336.66 931.577 1336.38 930.855C1336.1 930.134 1335.68 929.568 1335.12 929.159C1334.56 928.75 1333.88 928.545 1333.06 928.545C1332.2 928.545 1331.49 928.761 1330.93 929.193C1330.36 929.625 1329.94 930.205 1329.66 930.932C1329.38 931.659 1329.24 932.466 1329.24 933.352C1329.24 934.261 1329.38 935.065 1329.66 935.764C1329.95 936.457 1330.38 937.003 1330.94 937.401C1331.51 937.793 1332.22 937.989 1333.06 937.989ZM1341.99 940V926.909H1344V940H1341.99ZM1343.01 924.727C1342.62 924.727 1342.28 924.594 1341.99 924.327C1341.72 924.06 1341.58 923.739 1341.58 923.364C1341.58 922.989 1341.72 922.668 1341.99 922.401C1342.28 922.134 1342.62 922 1343.01 922C1343.4 922 1343.74 922.134 1344.01 922.401C1344.3 922.668 1344.44 922.989 1344.44 923.364C1344.44 923.739 1344.3 924.06 1344.01 924.327C1343.74 924.594 1343.4 924.727 1343.01 924.727ZM1352.89 926.909V928.614H1346.11V926.909H1352.89ZM1348.09 923.773H1350.1V936.25C1350.1 936.818 1350.18 937.244 1350.35 937.528C1350.52 937.807 1350.73 937.994 1350.99 938.091C1351.26 938.182 1351.54 938.227 1351.84 938.227C1352.06 938.227 1352.24 938.216 1352.38 938.193C1352.53 938.165 1352.64 938.142 1352.72 938.125L1353.13 939.932C1353 939.983 1352.81 940.034 1352.56 940.085C1352.32 940.142 1352.01 940.17 1351.63 940.17C1351.06 940.17 1350.51 940.048 1349.96 939.804C1349.42 939.56 1348.97 939.188 1348.62 938.688C1348.26 938.188 1348.09 937.557 1348.09 936.795V923.773ZM1357.73 932.125V940H1355.72V922.545H1357.73V928.955H1357.9C1358.21 928.278 1358.67 927.741 1359.28 927.344C1359.9 926.94 1360.73 926.739 1361.76 926.739C1362.65 926.739 1363.43 926.918 1364.1 927.276C1364.77 927.628 1365.29 928.17 1365.66 928.903C1366.03 929.631 1366.22 930.557 1366.22 931.682V940H1364.21V931.818C1364.21 930.778 1363.94 929.974 1363.4 929.406C1362.87 928.832 1362.12 928.545 1361.18 928.545C1360.52 928.545 1359.93 928.685 1359.4 928.963C1358.89 929.241 1358.48 929.648 1358.18 930.182C1357.88 930.716 1357.73 931.364 1357.73 932.125ZM1377.67 934.648V926.909H1379.68V940H1377.67V937.784H1377.53C1377.23 938.449 1376.75 939.014 1376.1 939.48C1375.46 939.94 1374.64 940.17 1373.65 940.17C1372.83 940.17 1372.1 939.991 1371.47 939.634C1370.83 939.27 1370.33 938.724 1369.97 937.997C1369.6 937.264 1369.42 936.341 1369.42 935.227V926.909H1371.43V935.091C1371.43 936.045 1371.7 936.807 1372.23 937.375C1372.77 937.943 1373.46 938.227 1374.3 938.227C1374.8 938.227 1375.3 938.099 1375.82 937.844C1376.34 937.588 1376.78 937.196 1377.13 936.668C1377.49 936.139 1377.67 935.466 1377.67 934.648ZM1383.16 940V922.545H1385.17V928.989H1385.34C1385.49 928.761 1385.69 928.472 1385.95 928.119C1386.22 927.761 1386.6 927.443 1387.1 927.165C1387.6 926.881 1388.27 926.739 1389.12 926.739C1390.23 926.739 1391.2 927.014 1392.04 927.565C1392.88 928.116 1393.54 928.898 1394.01 929.909C1394.48 930.92 1394.72 932.114 1394.72 933.489C1394.72 934.875 1394.48 936.077 1394.01 937.094C1393.54 938.105 1392.88 938.889 1392.05 939.446C1391.21 939.997 1390.25 940.273 1389.16 940.273C1388.32 940.273 1387.64 940.134 1387.14 939.855C1386.63 939.571 1386.24 939.25 1385.97 938.892C1385.7 938.528 1385.49 938.227 1385.34 937.989H1385.1V940H1383.16ZM1385.14 933.455C1385.14 934.443 1385.28 935.315 1385.57 936.071C1385.86 936.821 1386.28 937.409 1386.84 937.835C1387.4 938.256 1388.08 938.466 1388.89 938.466C1389.73 938.466 1390.43 938.244 1390.99 937.801C1391.56 937.352 1391.99 936.75 1392.27 935.994C1392.56 935.233 1392.7 934.386 1392.7 933.455C1392.7 932.534 1392.56 931.705 1392.28 930.966C1392 930.222 1391.58 929.634 1391.01 929.202C1390.45 928.764 1389.74 928.545 1388.89 928.545C1388.07 928.545 1387.38 928.753 1386.82 929.168C1386.27 929.577 1385.85 930.151 1385.56 930.889C1385.28 931.622 1385.14 932.477 1385.14 933.455ZM1398.78 940.136C1398.36 940.136 1398 939.986 1397.7 939.685C1397.39 939.384 1397.24 939.023 1397.24 938.602C1397.24 938.182 1397.39 937.821 1397.7 937.52C1398 937.219 1398.36 937.068 1398.78 937.068C1399.2 937.068 1399.56 937.219 1399.86 937.52C1400.16 937.821 1400.31 938.182 1400.31 938.602C1400.31 938.881 1400.24 939.136 1400.1 939.369C1399.96 939.602 1399.78 939.79 1399.55 939.932C1399.32 940.068 1399.06 940.136 1398.78 940.136ZM1408.76 940.273C1407.53 940.273 1406.48 939.983 1405.59 939.403C1404.7 938.824 1404.02 938.026 1403.54 937.009C1403.07 935.991 1402.83 934.83 1402.83 933.523C1402.83 932.193 1403.07 931.02 1403.56 930.003C1404.06 928.98 1404.74 928.182 1405.62 927.608C1406.51 927.028 1407.54 926.739 1408.73 926.739C1409.65 926.739 1410.48 926.909 1411.21 927.25C1411.95 927.591 1412.56 928.068 1413.03 928.682C1413.5 929.295 1413.79 930.011 1413.91 930.83H1411.9C1411.74 930.233 1411.4 929.705 1410.87 929.244C1410.35 928.778 1409.65 928.545 1408.76 928.545C1407.98 928.545 1407.29 928.75 1406.7 929.159C1406.11 929.562 1405.65 930.134 1405.33 930.872C1405 931.605 1404.84 932.466 1404.84 933.455C1404.84 934.466 1405 935.347 1405.32 936.097C1405.64 936.847 1406.1 937.429 1406.68 937.844C1407.27 938.259 1407.96 938.466 1408.76 938.466C1409.28 938.466 1409.76 938.375 1410.18 938.193C1410.61 938.011 1410.97 937.75 1411.27 937.409C1411.56 937.068 1411.77 936.659 1411.9 936.182H1413.91C1413.79 936.955 1413.51 937.651 1413.06 938.27C1412.62 938.884 1412.03 939.372 1411.3 939.736C1410.57 940.094 1409.73 940.273 1408.76 940.273ZM1421.69 940.273C1420.5 940.273 1419.47 939.991 1418.58 939.429C1417.69 938.866 1417 938.08 1416.5 937.068C1416 936.057 1415.75 934.875 1415.75 933.523C1415.75 932.159 1416 930.969 1416.5 929.952C1417 928.935 1417.69 928.145 1418.58 927.582C1419.47 927.02 1420.5 926.739 1421.69 926.739C1422.87 926.739 1423.9 927.02 1424.79 927.582C1425.68 928.145 1426.37 928.935 1426.87 929.952C1427.37 930.969 1427.62 932.159 1427.62 933.523C1427.62 934.875 1427.37 936.057 1426.87 937.068C1426.37 938.08 1425.68 938.866 1424.79 939.429C1423.9 939.991 1422.87 940.273 1421.69 940.273ZM1421.69 938.466C1422.58 938.466 1423.32 938.236 1423.9 937.776C1424.48 937.315 1424.91 936.71 1425.19 935.96C1425.47 935.21 1425.61 934.398 1425.61 933.523C1425.61 932.648 1425.47 931.832 1425.19 931.077C1424.91 930.321 1424.48 929.71 1423.9 929.244C1423.32 928.778 1422.58 928.545 1421.69 928.545C1420.79 928.545 1420.05 928.778 1419.47 929.244C1418.89 929.71 1418.46 930.321 1418.18 931.077C1417.91 931.832 1417.77 932.648 1417.77 933.523C1417.77 934.398 1417.91 935.21 1418.18 935.96C1418.46 936.71 1418.89 937.315 1419.47 937.776C1420.05 938.236 1420.79 938.466 1421.69 938.466ZM1430.21 940V926.909H1432.15V928.955H1432.32C1432.59 928.256 1433.04 927.713 1433.64 927.327C1434.25 926.935 1434.98 926.739 1435.83 926.739C1436.7 926.739 1437.42 926.935 1437.99 927.327C1438.57 927.713 1439.02 928.256 1439.34 928.955H1439.48C1439.82 928.278 1440.32 927.741 1440.99 927.344C1441.66 926.94 1442.46 926.739 1443.4 926.739C1444.57 926.739 1445.53 927.105 1446.27 927.838C1447.02 928.565 1447.39 929.699 1447.39 931.239V940H1445.38V931.239C1445.38 930.273 1445.11 929.582 1444.59 929.168C1444.06 928.753 1443.44 928.545 1442.72 928.545C1441.8 928.545 1441.09 928.824 1440.58 929.381C1440.07 929.932 1439.82 930.631 1439.82 931.477V940H1437.78V931.034C1437.78 930.29 1437.54 929.69 1437.05 929.236C1436.57 928.776 1435.95 928.545 1435.19 928.545C1434.66 928.545 1434.17 928.685 1433.72 928.963C1433.27 929.241 1432.91 929.628 1432.63 930.122C1432.36 930.611 1432.22 931.176 1432.22 931.818V940H1430.21ZM1456.76 921.727L1451.13 942.625H1449.29L1454.92 921.727H1456.76ZM1460.67 932.125V940H1458.66V926.909H1460.61V928.955H1460.78C1461.08 928.29 1461.55 927.756 1462.17 927.352C1462.8 926.943 1463.61 926.739 1464.59 926.739C1465.48 926.739 1466.26 926.92 1466.92 927.284C1467.59 927.642 1468.1 928.188 1468.47 928.92C1468.84 929.648 1469.03 930.568 1469.03 931.682V940H1467.01V931.818C1467.01 930.79 1466.75 929.989 1466.21 929.415C1465.68 928.835 1464.95 928.545 1464.01 928.545C1463.37 928.545 1462.8 928.685 1462.29 928.963C1461.79 929.241 1461.4 929.648 1461.11 930.182C1460.82 930.716 1460.67 931.364 1460.67 932.125ZM1480.47 934.648V926.909H1482.48V940H1480.47V937.784H1480.34C1480.03 938.449 1479.55 939.014 1478.9 939.48C1478.26 939.94 1477.44 940.17 1476.45 940.17C1475.63 940.17 1474.9 939.991 1474.27 939.634C1473.63 939.27 1473.13 938.724 1472.77 937.997C1472.4 937.264 1472.22 936.341 1472.22 935.227V926.909H1474.23V935.091C1474.23 936.045 1474.5 936.807 1475.03 937.375C1475.57 937.943 1476.26 938.227 1477.1 938.227C1477.6 938.227 1478.11 938.099 1478.62 937.844C1479.14 937.588 1479.58 937.196 1479.93 936.668C1480.29 936.139 1480.47 935.466 1480.47 934.648ZM1491.01 940.273C1489.78 940.273 1488.72 939.983 1487.83 939.403C1486.95 938.824 1486.27 938.026 1485.79 937.009C1485.31 935.991 1485.07 934.83 1485.07 933.523C1485.07 932.193 1485.32 931.02 1485.81 930.003C1486.3 928.98 1486.99 928.182 1487.87 927.608C1488.76 927.028 1489.79 926.739 1490.97 926.739C1491.89 926.739 1492.72 926.909 1493.46 927.25C1494.2 927.591 1494.8 928.068 1495.27 928.682C1495.75 929.295 1496.04 930.011 1496.15 930.83H1494.14C1493.99 930.233 1493.65 929.705 1493.12 929.244C1492.6 928.778 1491.89 928.545 1491.01 928.545C1490.22 928.545 1489.53 928.75 1488.94 929.159C1488.36 929.562 1487.9 930.134 1487.57 930.872C1487.25 931.605 1487.08 932.466 1487.08 933.455C1487.08 934.466 1487.24 935.347 1487.56 936.097C1487.89 936.847 1488.34 937.429 1488.93 937.844C1489.52 938.259 1490.21 938.466 1491.01 938.466C1491.53 938.466 1492 938.375 1492.43 938.193C1492.85 938.011 1493.22 937.75 1493.51 937.409C1493.81 937.068 1494.02 936.659 1494.14 936.182H1496.15C1496.04 936.955 1495.76 937.651 1495.31 938.27C1494.87 938.884 1494.28 939.372 1493.54 939.736C1492.82 940.094 1491.97 940.273 1491.01 940.273ZM1500.62 922.545V940H1498.61V922.545H1500.62ZM1509.32 940.273C1508.06 940.273 1506.97 939.994 1506.05 939.438C1505.14 938.875 1504.44 938.091 1503.95 937.085C1503.46 936.074 1503.21 934.898 1503.21 933.557C1503.21 932.216 1503.46 931.034 1503.95 930.011C1504.44 928.983 1505.13 928.182 1506.01 927.608C1506.9 927.028 1507.93 926.739 1509.11 926.739C1509.79 926.739 1510.47 926.852 1511.13 927.08C1511.8 927.307 1512.4 927.676 1512.95 928.188C1513.49 928.693 1513.93 929.364 1514.25 930.199C1514.58 931.034 1514.74 932.062 1514.74 933.284V934.136H1504.65V932.398H1512.69C1512.69 931.659 1512.54 931 1512.25 930.42C1511.96 929.841 1511.54 929.384 1511 929.048C1510.47 928.713 1509.84 928.545 1509.11 928.545C1508.31 928.545 1507.62 928.744 1507.03 929.142C1506.45 929.534 1506.01 930.045 1505.69 930.676C1505.38 931.307 1505.23 931.983 1505.23 932.705V933.864C1505.23 934.852 1505.4 935.69 1505.74 936.378C1506.08 937.06 1506.56 937.58 1507.18 937.938C1507.79 938.29 1508.5 938.466 1509.32 938.466C1509.85 938.466 1510.32 938.392 1510.75 938.244C1511.18 938.091 1511.55 937.864 1511.87 937.562C1512.18 937.256 1512.42 936.875 1512.59 936.42L1514.53 936.966C1514.33 937.625 1513.98 938.205 1513.5 938.705C1513.02 939.199 1512.42 939.585 1511.71 939.864C1511 940.136 1510.2 940.273 1509.32 940.273ZM1525.57 934.648V926.909H1527.58V940H1525.57V937.784H1525.43C1525.12 938.449 1524.65 939.014 1524 939.48C1523.35 939.94 1522.53 940.17 1521.54 940.17C1520.73 940.17 1520 939.991 1519.36 939.634C1518.73 939.27 1518.23 938.724 1517.86 937.997C1517.5 937.264 1517.32 936.341 1517.32 935.227V926.909H1519.33V935.091C1519.33 936.045 1519.6 936.807 1520.13 937.375C1520.67 937.943 1521.36 938.227 1522.19 938.227C1522.69 938.227 1523.2 938.099 1523.72 937.844C1524.24 937.588 1524.68 937.196 1525.03 936.668C1525.39 936.139 1525.57 935.466 1525.57 934.648ZM1540.06 929.841L1538.25 930.352C1538.13 930.051 1537.97 929.759 1537.75 929.474C1537.53 929.185 1537.23 928.946 1536.86 928.759C1536.48 928.571 1536 928.477 1535.42 928.477C1534.62 928.477 1533.95 928.662 1533.42 929.031C1532.89 929.395 1532.62 929.858 1532.62 930.42C1532.62 930.92 1532.81 931.315 1533.17 931.605C1533.53 931.895 1534.1 932.136 1534.87 932.33L1536.82 932.807C1537.99 933.091 1538.86 933.526 1539.43 934.111C1540.01 934.69 1540.29 935.437 1540.29 936.352C1540.29 937.102 1540.08 937.773 1539.65 938.364C1539.22 938.955 1538.62 939.42 1537.86 939.761C1537.09 940.102 1536.2 940.273 1535.18 940.273C1533.84 940.273 1532.74 939.983 1531.86 939.403C1530.99 938.824 1530.44 937.977 1530.2 936.864L1532.11 936.386C1532.29 937.091 1532.64 937.619 1533.14 937.972C1533.65 938.324 1534.32 938.5 1535.15 938.5C1536.08 938.5 1536.83 938.301 1537.38 937.903C1537.94 937.5 1538.21 937.017 1538.21 936.455C1538.21 936 1538.06 935.619 1537.74 935.312C1537.42 935 1536.93 934.767 1536.27 934.614L1534.09 934.102C1532.89 933.818 1532.01 933.378 1531.45 932.781C1530.89 932.179 1530.61 931.426 1530.61 930.523C1530.61 929.784 1530.82 929.131 1531.23 928.562C1531.65 927.994 1532.23 927.548 1532.95 927.224C1533.67 926.901 1534.5 926.739 1535.42 926.739C1536.71 926.739 1537.73 927.023 1538.47 927.591C1539.21 928.159 1539.74 928.909 1540.06 929.841ZM1548.16 940.273C1546.93 940.273 1545.88 939.983 1544.99 939.403C1544.1 938.824 1543.42 938.026 1542.94 937.009C1542.47 935.991 1542.23 934.83 1542.23 933.523C1542.23 932.193 1542.47 931.02 1542.96 930.003C1543.46 928.98 1544.14 928.182 1545.02 927.608C1545.91 927.028 1546.94 926.739 1548.13 926.739C1549.05 926.739 1549.88 926.909 1550.61 927.25C1551.35 927.591 1551.96 928.068 1552.43 928.682C1552.9 929.295 1553.19 930.011 1553.31 930.83H1551.3C1551.14 930.233 1550.8 929.705 1550.27 929.244C1549.75 928.778 1549.05 928.545 1548.16 928.545C1547.38 928.545 1546.69 928.75 1546.1 929.159C1545.51 929.562 1545.05 930.134 1544.73 930.872C1544.4 931.605 1544.24 932.466 1544.24 933.455C1544.24 934.466 1544.4 935.347 1544.72 936.097C1545.04 936.847 1545.49 937.429 1546.08 937.844C1546.67 938.259 1547.36 938.466 1548.16 938.466C1548.68 938.466 1549.16 938.375 1549.58 938.193C1550.01 938.011 1550.37 937.75 1550.67 937.409C1550.96 937.068 1551.17 936.659 1551.3 936.182H1553.31C1553.19 936.955 1552.91 937.651 1552.46 938.27C1552.02 938.884 1551.43 939.372 1550.7 939.736C1549.97 940.094 1549.13 940.273 1548.16 940.273ZM1557.78 922.545V940H1555.77V922.545H1557.78ZM1566.3 940.273C1565.12 940.273 1564.08 939.991 1563.19 939.429C1562.3 938.866 1561.61 938.08 1561.11 937.068C1560.62 936.057 1560.37 934.875 1560.37 933.523C1560.37 932.159 1560.62 930.969 1561.11 929.952C1561.61 928.935 1562.3 928.145 1563.19 927.582C1564.08 927.02 1565.12 926.739 1566.3 926.739C1567.48 926.739 1568.52 927.02 1569.4 927.582C1570.3 928.145 1570.99 928.935 1571.48 929.952C1571.98 930.969 1572.23 932.159 1572.23 933.523C1572.23 934.875 1571.98 936.057 1571.48 937.068C1570.99 938.08 1570.3 938.866 1569.4 939.429C1568.52 939.991 1567.48 940.273 1566.3 940.273ZM1566.3 938.466C1567.2 938.466 1567.94 938.236 1568.52 937.776C1569.1 937.315 1569.53 936.71 1569.8 935.96C1570.08 935.21 1570.22 934.398 1570.22 933.523C1570.22 932.648 1570.08 931.832 1569.8 931.077C1569.53 930.321 1569.1 929.71 1568.52 929.244C1567.94 928.778 1567.2 928.545 1566.3 928.545C1565.4 928.545 1564.66 928.778 1564.09 929.244C1563.51 929.71 1563.08 930.321 1562.8 931.077C1562.52 931.832 1562.38 932.648 1562.38 933.523C1562.38 934.398 1562.52 935.21 1562.8 935.96C1563.08 936.71 1563.51 937.315 1564.09 937.776C1564.66 938.236 1565.4 938.466 1566.3 938.466ZM1583.07 934.648V926.909H1585.08V940H1583.07V937.784H1582.94C1582.63 938.449 1582.15 939.014 1581.51 939.48C1580.86 939.94 1580.04 940.17 1579.05 940.17C1578.23 940.17 1577.51 939.991 1576.87 939.634C1576.23 939.27 1575.73 938.724 1575.37 937.997C1575.01 937.264 1574.82 936.341 1574.82 935.227V926.909H1576.83V935.091C1576.83 936.045 1577.1 936.807 1577.64 937.375C1578.18 937.943 1578.86 938.227 1579.7 938.227C1580.2 938.227 1580.71 938.099 1581.22 937.844C1581.75 937.588 1582.18 937.196 1582.54 936.668C1582.89 936.139 1583.07 935.466 1583.07 934.648ZM1593.23 940.273C1592.14 940.273 1591.18 939.997 1590.34 939.446C1589.51 938.889 1588.85 938.105 1588.38 937.094C1587.91 936.077 1587.68 934.875 1587.68 933.489C1587.68 932.114 1587.91 930.92 1588.38 929.909C1588.85 928.898 1589.51 928.116 1590.35 927.565C1591.19 927.014 1592.16 926.739 1593.27 926.739C1594.12 926.739 1594.79 926.881 1595.29 927.165C1595.79 927.443 1596.17 927.761 1596.43 928.119C1596.69 928.472 1596.9 928.761 1597.05 928.989H1597.22V922.545H1599.23V940H1597.29V937.989H1597.05C1596.9 938.227 1596.69 938.528 1596.42 938.892C1596.15 939.25 1595.76 939.571 1595.25 939.855C1594.75 940.134 1594.07 940.273 1593.23 940.273ZM1593.5 938.466C1594.31 938.466 1594.99 938.256 1595.55 937.835C1596.11 937.409 1596.53 936.821 1596.82 936.071C1597.11 935.315 1597.25 934.443 1597.25 933.455C1597.25 932.477 1597.11 931.622 1596.83 930.889C1596.54 930.151 1596.12 929.577 1595.57 929.168C1595.01 928.753 1594.32 928.545 1593.5 928.545C1592.65 928.545 1591.94 928.764 1591.37 929.202C1590.81 929.634 1590.39 930.222 1590.1 930.966C1589.83 931.705 1589.69 932.534 1589.69 933.455C1589.69 934.386 1589.83 935.233 1590.11 935.994C1590.4 936.75 1590.83 937.352 1591.39 937.801C1591.96 938.244 1592.66 938.466 1593.5 938.466ZM1608.89 921.727L1603.26 942.625H1601.42L1607.04 921.727H1608.89ZM1612.8 932.125V940H1610.79V926.909H1612.73V928.955H1612.9C1613.21 928.29 1613.68 927.756 1614.3 927.352C1614.93 926.943 1615.73 926.739 1616.72 926.739C1617.61 926.739 1618.38 926.92 1619.05 927.284C1619.71 927.642 1620.23 928.188 1620.6 928.92C1620.97 929.648 1621.15 930.568 1621.15 931.682V940H1619.14V931.818C1619.14 930.79 1618.87 929.989 1618.34 929.415C1617.81 928.835 1617.07 928.545 1616.14 928.545C1615.5 928.545 1614.93 928.685 1614.42 928.963C1613.92 929.241 1613.53 929.648 1613.24 930.182C1612.95 930.716 1612.8 931.364 1612.8 932.125ZM1629.84 940.273C1628.58 940.273 1627.49 939.994 1626.57 939.438C1625.66 938.875 1624.96 938.091 1624.47 937.085C1623.98 936.074 1623.74 934.898 1623.74 933.557C1623.74 932.216 1623.98 931.034 1624.47 930.011C1624.96 928.983 1625.65 928.182 1626.53 927.608C1627.42 927.028 1628.45 926.739 1629.63 926.739C1630.31 926.739 1630.99 926.852 1631.65 927.08C1632.32 927.307 1632.92 927.676 1633.47 928.188C1634.01 928.693 1634.45 929.364 1634.77 930.199C1635.1 931.034 1635.26 932.062 1635.26 933.284V934.136H1625.17V932.398H1633.21C1633.21 931.659 1633.06 931 1632.77 930.42C1632.48 929.841 1632.06 929.384 1631.52 929.048C1630.99 928.713 1630.36 928.545 1629.63 928.545C1628.83 928.545 1628.14 928.744 1627.55 929.142C1626.97 929.534 1626.53 930.045 1626.22 930.676C1625.9 931.307 1625.75 931.983 1625.75 932.705V933.864C1625.75 934.852 1625.92 935.69 1626.26 936.378C1626.6 937.06 1627.08 937.58 1627.7 937.938C1628.31 938.29 1629.02 938.466 1629.84 938.466C1630.37 938.466 1630.84 938.392 1631.27 938.244C1631.7 938.091 1632.07 937.864 1632.39 937.562C1632.7 937.256 1632.94 936.875 1633.11 936.42L1635.05 936.966C1634.85 937.625 1634.5 938.205 1634.02 938.705C1633.54 939.199 1632.94 939.585 1632.23 939.864C1631.52 940.136 1630.72 940.273 1629.84 940.273ZM1643.16 940.273C1641.97 940.273 1640.94 939.991 1640.04 939.429C1639.16 938.866 1638.47 938.08 1637.97 937.068C1637.47 936.057 1637.22 934.875 1637.22 933.523C1637.22 932.159 1637.47 930.969 1637.97 929.952C1638.47 928.935 1639.16 928.145 1640.04 927.582C1640.94 927.02 1641.97 926.739 1643.16 926.739C1644.34 926.739 1645.37 927.02 1646.26 927.582C1647.15 928.145 1647.84 928.935 1648.34 929.952C1648.84 930.969 1649.09 932.159 1649.09 933.523C1649.09 934.875 1648.84 936.057 1648.34 937.068C1647.84 938.08 1647.15 938.866 1646.26 939.429C1645.37 939.991 1644.34 940.273 1643.16 940.273ZM1643.16 938.466C1644.05 938.466 1644.79 938.236 1645.37 937.776C1645.95 937.315 1646.38 936.71 1646.66 935.96C1646.94 935.21 1647.08 934.398 1647.08 933.523C1647.08 932.648 1646.94 931.832 1646.66 931.077C1646.38 930.321 1645.95 929.71 1645.37 929.244C1644.79 928.778 1644.05 928.545 1643.16 928.545C1642.26 928.545 1641.52 928.778 1640.94 929.244C1640.36 929.71 1639.93 930.321 1639.65 931.077C1639.37 931.832 1639.24 932.648 1639.24 933.523C1639.24 934.398 1639.37 935.21 1639.65 935.96C1639.93 936.71 1640.36 937.315 1640.94 937.776C1641.52 938.236 1642.26 938.466 1643.16 938.466ZM1660.95 929.841L1659.14 930.352C1659.03 930.051 1658.86 929.759 1658.64 929.474C1658.42 929.185 1658.13 928.946 1657.75 928.759C1657.38 928.571 1656.9 928.477 1656.31 928.477C1655.51 928.477 1654.85 928.662 1654.31 929.031C1653.78 929.395 1653.52 929.858 1653.52 930.42C1653.52 930.92 1653.7 931.315 1654.06 931.605C1654.43 931.895 1655 932.136 1655.77 932.33L1657.71 932.807C1658.88 933.091 1659.75 933.526 1660.33 934.111C1660.9 934.69 1661.19 935.437 1661.19 936.352C1661.19 937.102 1660.97 937.773 1660.54 938.364C1660.12 938.955 1659.52 939.42 1658.75 939.761C1657.98 940.102 1657.09 940.273 1656.08 940.273C1654.74 940.273 1653.64 939.983 1652.76 939.403C1651.89 938.824 1651.33 937.977 1651.1 936.864L1653.01 936.386C1653.19 937.091 1653.53 937.619 1654.04 937.972C1654.55 938.324 1655.22 938.5 1656.04 938.5C1656.98 938.5 1657.72 938.301 1658.27 937.903C1658.83 937.5 1659.11 937.017 1659.11 936.455C1659.11 936 1658.95 935.619 1658.63 935.312C1658.31 935 1657.83 934.767 1657.17 934.614L1654.98 934.102C1653.79 933.818 1652.91 933.378 1652.34 932.781C1651.79 932.179 1651.51 931.426 1651.51 930.523C1651.51 929.784 1651.71 929.131 1652.13 928.562C1652.55 927.994 1653.12 927.548 1653.84 927.224C1654.57 926.901 1655.39 926.739 1656.31 926.739C1657.61 926.739 1658.63 927.023 1659.37 927.591C1660.11 928.159 1660.64 928.909 1660.95 929.841ZM1665.03 944.909C1664.69 944.909 1664.39 944.881 1664.12 944.824C1663.85 944.773 1663.67 944.722 1663.57 944.67L1664.08 942.898C1664.57 943.023 1665 943.068 1665.37 943.034C1665.75 943 1666.08 942.832 1666.37 942.531C1666.67 942.236 1666.94 941.756 1667.18 941.091L1667.56 940.068L1662.71 926.909H1664.9L1668.51 937.341H1668.65L1672.26 926.909H1674.44L1668.88 941.909C1668.63 942.585 1668.32 943.145 1667.96 943.588C1667.59 944.037 1667.16 944.369 1666.67 944.585C1666.19 944.801 1665.64 944.909 1665.03 944.909ZM1678.63 932.125V940H1676.62V926.909H1678.56V928.955H1678.73C1679.04 928.29 1679.5 927.756 1680.13 927.352C1680.75 926.943 1681.56 926.739 1682.55 926.739C1683.43 926.739 1684.21 926.92 1684.87 927.284C1685.54 927.642 1686.06 928.188 1686.43 928.92C1686.8 929.648 1686.98 930.568 1686.98 931.682V940H1684.97V931.818C1684.97 930.79 1684.7 929.989 1684.17 929.415C1683.63 928.835 1682.9 928.545 1681.97 928.545C1681.33 928.545 1680.75 928.685 1680.25 928.963C1679.75 929.241 1679.35 929.648 1679.06 930.182C1678.77 930.716 1678.63 931.364 1678.63 932.125ZM1695.49 940.273C1694.27 940.273 1693.21 939.983 1692.32 939.403C1691.44 938.824 1690.75 938.026 1690.28 937.009C1689.8 935.991 1689.56 934.83 1689.56 933.523C1689.56 932.193 1689.81 931.02 1690.29 930.003C1690.79 928.98 1691.48 928.182 1692.36 927.608C1693.24 927.028 1694.28 926.739 1695.46 926.739C1696.38 926.739 1697.21 926.909 1697.95 927.25C1698.69 927.591 1699.29 928.068 1699.76 928.682C1700.23 929.295 1700.53 930.011 1700.64 930.83H1698.63C1698.48 930.233 1698.14 929.705 1697.61 929.244C1697.08 928.778 1696.38 928.545 1695.49 928.545C1694.71 928.545 1694.02 928.75 1693.43 929.159C1692.85 929.562 1692.39 930.134 1692.06 930.872C1691.73 931.605 1691.57 932.466 1691.57 933.455C1691.57 934.466 1691.73 935.347 1692.05 936.097C1692.37 936.847 1692.83 937.429 1693.41 937.844C1694 938.259 1694.7 938.466 1695.49 938.466C1696.02 938.466 1696.49 938.375 1696.92 938.193C1697.34 938.011 1697.7 937.75 1698 937.409C1698.29 937.068 1698.5 936.659 1698.63 936.182H1700.64C1700.53 936.955 1700.25 937.651 1699.8 938.27C1699.35 938.884 1698.77 939.372 1698.03 939.736C1697.31 940.094 1696.46 940.273 1695.49 940.273Z" fill="#777777"/>
<path fill-rule="evenodd" clip-rule="evenodd" d="M1270.13 913C1255.69 913 1244 924.88 1244 939.548C1244 951.296 1251.48 961.218 1261.87 964.736C1263.18 964.968 1263.67 964.172 1263.67 963.475C1263.67 962.844 1263.63 960.753 1263.63 958.53C1257.07 959.758 1255.37 956.904 1254.85 955.411C1254.55 954.647 1253.28 952.291 1252.17 951.661C1251.25 951.163 1249.95 949.935 1252.13 949.902C1254.19 949.869 1255.66 951.827 1256.15 952.623C1258.5 956.639 1262.26 955.51 1263.76 954.813C1263.99 953.088 1264.68 951.926 1265.43 951.263C1259.61 950.599 1253.54 948.309 1253.54 938.154C1253.54 935.267 1254.55 932.878 1256.22 931.02C1255.96 930.356 1255.04 927.635 1256.48 923.984C1256.48 923.984 1258.67 923.287 1263.67 926.705C1265.76 926.108 1267.98 925.809 1270.2 925.809C1272.42 925.809 1274.64 926.108 1276.73 926.705C1281.73 923.254 1283.92 923.984 1283.92 923.984C1285.36 927.635 1284.44 930.356 1284.18 931.02C1285.85 932.878 1286.86 935.234 1286.86 938.154C1286.86 948.342 1280.75 950.599 1274.94 951.263C1275.88 952.092 1276.7 953.685 1276.7 956.174C1276.7 959.725 1276.67 962.579 1276.67 963.475C1276.67 964.172 1277.16 965.001 1278.46 964.736C1283.65 962.957 1288.16 959.569 1291.35 955.051C1294.55 950.533 1296.27 945.111 1296.27 939.548C1296.27 924.88 1284.57 913 1270.13 913Z" fill="#777777"/>
<path fill-rule="evenodd" clip-rule="evenodd" d="M815 631.449C815 619.926 819.578 608.874 827.726 600.726C835.874 592.578 846.926 588 858.449 588H1023.55C1035.07 588 1046.13 592.578 1054.27 600.726C1062.42 608.874 1067 619.926 1067 631.449V771.869C1067 796.691 1035.58 807.464 1020.35 787.871L972.717 726.593V800.898C972.717 811.268 968.597 821.214 961.264 828.547C953.931 835.88 943.985 840 933.615 840H858.449C846.926 840 835.874 835.422 827.726 827.274C819.578 819.126 815 808.074 815 796.551V631.449ZM858.449 622.762C853.647 622.762 849.762 626.647 849.762 631.442V796.551C849.762 801.353 853.647 805.245 858.442 805.245H934.917C937.318 805.245 937.955 803.299 937.955 800.898V701.26C937.955 676.431 969.371 665.658 984.61 685.258L1032.24 746.529V631.449C1032.24 626.647 1032.69 622.762 1027.9 622.762H858.449Z" fill="#12FFF7"/>
<path fill-rule="evenodd" clip-rule="evenodd" d="M815 631.449C815 619.926 819.578 608.874 827.726 600.726C835.874 592.578 846.926 588 858.449 588H1023.55C1035.07 588 1046.13 592.578 1054.27 600.726C1062.42 608.874 1067 619.926 1067 631.449V771.869C1067 796.691 1035.58 807.464 1020.35 787.871L972.717 726.593V800.898C972.717 811.268 968.597 821.214 961.264 828.547C953.931 835.88 943.985 840 933.615 840H858.449C846.926 840 835.874 835.422 827.726 827.274C819.578 819.126 815 808.074 815 796.551V631.449ZM858.449 622.762C853.647 622.762 849.762 626.647 849.762 631.442V796.551C849.762 801.353 853.647 805.245 858.442 805.245H934.917C937.318 805.245 937.955 803.299 937.955 800.898V701.26C937.955 676.431 969.371 665.658 984.61 685.258L1032.24 746.529V631.449C1032.24 626.647 1032.69 622.762 1027.9 622.762H858.449Z" fill="url(#paint0_linear_3092_4058)"/>
<path fill-rule="evenodd" clip-rule="evenodd" d="M815 631.449C815 619.926 819.578 608.874 827.726 600.726C835.874 592.578 846.926 588 858.449 588H1023.55C1035.07 588 1046.13 592.578 1054.27 600.726C1062.42 608.874 1067 619.926 1067 631.449V771.869C1067 796.691 1035.58 807.464 1020.35 787.871L972.717 726.593V800.898C972.717 811.268 968.597 821.214 961.264 828.547C953.931 835.88 943.985 840 933.615 840H858.449C846.926 840 835.874 835.422 827.726 827.274C819.578 819.126 815 808.074 815 796.551V631.449ZM858.449 622.762C853.647 622.762 849.762 626.647 849.762 631.442V796.551C849.762 801.353 853.647 805.245 858.442 805.245H934.917C937.318 805.245 937.955 803.299 937.955 800.898V701.26C937.955 676.431 969.371 665.658 984.61 685.258L1032.24 746.529V631.449C1032.24 626.647 1032.69 622.762 1027.9 622.762H858.449Z" fill="url(#paint1_linear_3092_4058)"/>
<path d="M1023.68 588C1035.17 588 1046.19 592.578 1054.31 600.726C1062.44 608.874 1067 619.926 1067 631.449V771.869C1067 796.691 1035.67 807.464 1020.49 787.871L972.989 726.593V800.898C972.989 811.268 968.881 821.214 961.569 828.547C954.258 835.88 944.341 840 934 840C934.568 840 935.131 839.888 935.656 839.67C936.181 839.452 936.658 839.132 937.06 838.729C937.462 838.326 937.781 837.847 937.998 837.321C938.216 836.794 938.327 836.23 938.327 835.66V701.26C938.327 676.431 969.653 665.658 984.848 685.258L1032.35 746.529V596.687C1032.35 591.892 1028.46 588 1023.68 588Z" fill="#B9FFB3"/>
<path d="M1240.1 662.546V728.524L1176.24 662.546H1143V770.454H1173.31V699.543L1242.87 770.454H1270.41V662.546H1240.1ZM1326.6 746.406V727.291H1394.46V704.322H1326.6V686.594H1408.93V662.546H1295.67V770.454H1410.62V746.406H1326.6ZM1491.17 774C1533.8 774 1561.5 753.035 1561.5 716.5C1561.5 679.965 1533.8 659 1491.17 659C1448.55 659 1421.01 679.965 1421.01 716.5C1421.01 753.035 1448.55 774 1491.17 774ZM1491.17 748.41C1467.48 748.41 1452.86 736.849 1452.86 716.5C1452.86 696.151 1467.63 684.59 1491.17 684.59C1514.87 684.59 1529.49 696.151 1529.49 716.5C1529.49 736.849 1514.87 748.41 1491.17 748.41ZM1677.69 662.546V728.524L1613.83 662.546H1580.59V770.454H1610.9V699.543L1680.46 770.454H1708V662.546H1677.69Z" fill="white"/>
<defs>
<linearGradient id="paint0_linear_3092_4058" x1="1067" y1="840" x2="845.415" y2="588" gradientUnits="userSpaceOnUse">
<stop stop-color="#B9FFB3"/>
<stop offset="1" stop-color="#B9FFB3" stop-opacity="0"/>
</linearGradient>
<linearGradient id="paint1_linear_3092_4058" x1="1067" y1="840" x2="917.319" y2="781.781" gradientUnits="userSpaceOnUse">
<stop stop-color="#1A1A1A" stop-opacity="0.9"/>
<stop offset="1" stop-color="#1A1A1A" stop-opacity="0"/>
</linearGradient>
</defs>
</svg>
