<svg width="142" height="91" viewBox="0 0 142 91" fill="none" xmlns="http://www.w3.org/2000/svg">
<path d="M117.352 0C122.93 0 128.238 2.25212 132.397 5.58134C138.244 10.2325 141.889 16.5482 141.938 24.3082C142.036 38.4574 142.011 52.5821 141.913 66.7313C141.864 76.2539 135.406 85.2379 126.672 88.714C122.367 90.4276 118.037 91.0885 113.438 90.9906C105.34 90.9906 97.1941 90.9661 89.1701 90.9906C85.5495 91.113 83.2499 89.5953 80.9259 87.0983C77.3298 83.2061 73.3912 79.6321 69.6238 75.8867C68.0826 74.3445 66.7127 72.6309 65.1959 71.0887C60.9638 66.7558 56.7316 62.3985 52.4016 58.139C50.7136 56.4989 48.8054 55.2259 47.4599 53.0962C45.5518 50.0852 44.6711 47.0008 45.1115 43.5492C45.5518 40.2199 45.875 38.8047 46.4377 35.5C46.4377 35.5 46.9377 36 47.4377 36.5C49.9819 39.0948 50.369 39.9052 52.9377 42.5C53.7939 43.3568 54.1059 43.6187 54.9377 44.5C56.4055 46.0177 57.4454 47.0312 58.9377 48.5C62.4359 51.9761 64.9394 54.6384 68.4377 58.139C72.9634 62.6677 82.9377 73 82.9377 73C82.9377 73 88.216 79.3655 89.2435 79.39C96.7782 79.4879 104.337 79.1942 111.872 79.39C118.697 79.5614 130.229 73.2184 130.4 66.7313C130.694 56.303 130.596 40.4283 130.4 30C130.278 23.5863 129.438 11.5 117.5 11C111.947 11.0245 102.053 11.0979 96.5 11C95.5 11 92.6079 11 91.5 11C86.5 11 85.0847 10.2814 81.9044 6.9522C80.0452 4.99383 78.0392 2.32556 76.1555 0" fill="white"/>
<path d="M24.6481 91C19.0704 91 13.7618 88.7479 9.60306 85.4187C3.75631 80.7675 0.111246 74.4518 0.062319 66.6918C-0.0355346 52.5426 -0.0110747 38.4179 0.0867788 24.2687C0.135706 14.7461 6.59408 5.7621 15.3275 2.286C19.6331 0.572433 23.9631 -0.0885189 28.5622 0.00939941C36.6596 0.00939941 44.8059 0.033879 52.8299 0.00939941C56.4505 -0.112998 58.7501 1.40474 61.0741 3.90166C64.6702 7.79391 68.6088 11.3679 72.3762 15.1133C73.9174 16.6555 75.2873 18.3691 76.8041 19.9113C81.0362 24.2442 85.2684 28.6015 89.5984 32.861C91.2864 34.5011 93.1946 35.7741 94.5401 37.9038C96.4482 40.9148 97.3289 43.9992 96.8885 47.4508C96.4482 50.7801 96.125 52.1953 95.5623 55.5C95.5623 55.5 95.0623 55 94.5623 54.5C92.0181 51.9052 91.631 51.0948 89.0623 48.5C88.2061 47.6432 87.8941 47.3813 87.0623 46.5C85.5945 44.9823 84.5546 43.9688 83.0623 42.5C79.5641 39.0239 77.0606 36.3616 73.5623 32.861C69.0366 28.3323 59.0623 18 59.0623 18C59.0623 18 53.784 11.6345 52.7565 11.61C45.2218 11.5121 37.6626 11.8058 30.1279 11.61C23.3026 11.4386 11.7713 17.7816 11.6 24.2687C11.3065 34.697 11.4043 50.5717 11.6 61C11.7224 67.4137 12.5623 79.5 24.5 80C30.0532 79.9755 39.9468 79.9021 45.5 80C46.5 80 49.3921 80 50.5 80C55.5 80 56.9153 80.7186 60.0956 84.0478C61.9548 86.0062 63.9608 88.6744 65.8445 91" fill="white"/>
</svg>
