<svg width="208" height="208" viewBox="0 0 208 208" fill="none" xmlns="http://www.w3.org/2000/svg">
<rect x="24.5" y="56.5" width="159" height="70" rx="9.5" fill="#1E1E24" stroke="#4D4D4D"/>
<path d="M35.324 77.12C34.732 77.12 34.216 76.964 33.776 76.652C33.344 76.34 33.012 75.9 32.78 75.332C32.548 74.764 32.432 74.104 32.432 73.352C32.424 72.704 32.48 72.156 32.6 71.708C32.728 71.252 32.896 70.876 33.104 70.58C33.312 70.284 33.544 70.052 33.8 69.884C34.056 69.716 34.312 69.6 34.568 69.536C34.832 69.472 35.072 69.44 35.288 69.44C35.584 69.44 35.872 69.496 36.152 69.608C36.44 69.712 36.7 69.856 36.932 70.04C37.172 70.224 37.36 70.444 37.496 70.7L36.908 71.168L36.812 71.252L36.764 71.18C36.772 71.116 36.76 71.06 36.728 71.012C36.704 70.956 36.648 70.876 36.56 70.772C36.44 70.636 36.316 70.524 36.188 70.436C36.06 70.348 35.92 70.284 35.768 70.244C35.624 70.204 35.46 70.184 35.276 70.184C35.06 70.184 34.852 70.216 34.652 70.28C34.452 70.336 34.268 70.436 34.1 70.58C33.932 70.716 33.784 70.9 33.656 71.132C33.528 71.364 33.428 71.648 33.356 71.984C33.292 72.32 33.26 72.716 33.26 73.172C33.26 73.692 33.308 74.152 33.404 74.552C33.5 74.944 33.636 75.276 33.812 75.548C33.996 75.82 34.212 76.028 34.46 76.172C34.716 76.308 35.004 76.376 35.324 76.376C35.436 76.376 35.552 76.368 35.672 76.352C35.8 76.336 35.924 76.312 36.044 76.28C36.172 76.24 36.296 76.192 36.416 76.136C36.536 76.072 36.644 76 36.74 75.92V74.144H35.384V73.412H37.52V76.34C37.168 76.596 36.808 76.792 36.44 76.928C36.072 77.056 35.7 77.12 35.324 77.12ZM41.024 77.12C40.624 77.12 40.26 77.06 39.932 76.94C39.604 76.812 39.32 76.628 39.08 76.388C38.848 76.148 38.668 75.852 38.54 75.5C38.412 75.14 38.348 74.732 38.348 74.276C38.348 73.812 38.412 73.4 38.54 73.04C38.676 72.68 38.856 72.38 39.08 72.14C39.312 71.892 39.58 71.704 39.884 71.576C40.196 71.448 40.524 71.384 40.868 71.384C41.18 71.384 41.472 71.436 41.744 71.54C42.016 71.644 42.252 71.804 42.452 72.02C42.652 72.228 42.808 72.496 42.92 72.824C43.04 73.152 43.1 73.54 43.1 73.988C43.1 74.052 43.096 74.12 43.088 74.192C43.088 74.256 43.084 74.32 43.076 74.384H39.176C39.192 74.736 39.252 75.044 39.356 75.308C39.46 75.564 39.596 75.776 39.764 75.944C39.932 76.104 40.124 76.224 40.34 76.304C40.564 76.384 40.8 76.424 41.048 76.424C41.24 76.424 41.42 76.404 41.588 76.364C41.756 76.316 41.912 76.248 42.056 76.16C42.208 76.064 42.344 75.948 42.464 75.812L42.944 76.28C42.792 76.464 42.616 76.62 42.416 76.748C42.224 76.876 42.012 76.968 41.78 77.024C41.548 77.088 41.296 77.12 41.024 77.12ZM39.212 73.712H42.224C42.224 73.456 42.188 73.228 42.116 73.028C42.052 72.82 41.956 72.644 41.828 72.5C41.708 72.348 41.56 72.236 41.384 72.164C41.216 72.084 41.024 72.044 40.808 72.044C40.616 72.044 40.432 72.076 40.256 72.14C40.088 72.204 39.932 72.308 39.788 72.452C39.644 72.588 39.52 72.76 39.416 72.968C39.32 73.176 39.252 73.424 39.212 73.712ZM44.384 77V71.516H45.224V72.488C45.368 72.264 45.536 72.072 45.728 71.912C45.92 71.744 46.132 71.616 46.364 71.528C46.596 71.432 46.836 71.384 47.084 71.384C47.388 71.384 47.66 71.46 47.9 71.612C48.14 71.764 48.332 72.008 48.476 72.344C48.62 72.68 48.692 73.124 48.692 73.676V77H47.852V73.7C47.852 73.316 47.808 73.012 47.72 72.788C47.632 72.556 47.512 72.392 47.36 72.296C47.208 72.192 47.036 72.14 46.844 72.14C46.66 72.14 46.472 72.18 46.28 72.26C46.096 72.34 45.924 72.456 45.764 72.608C45.604 72.752 45.472 72.928 45.368 73.136C45.272 73.344 45.224 73.58 45.224 73.844V77H44.384ZM52.544 77.12C52.144 77.12 51.78 77.06 51.452 76.94C51.124 76.812 50.84 76.628 50.6 76.388C50.368 76.148 50.188 75.852 50.06 75.5C49.932 75.14 49.868 74.732 49.868 74.276C49.868 73.812 49.932 73.4 50.06 73.04C50.196 72.68 50.376 72.38 50.6 72.14C50.832 71.892 51.1 71.704 51.404 71.576C51.716 71.448 52.044 71.384 52.388 71.384C52.7 71.384 52.992 71.436 53.264 71.54C53.536 71.644 53.772 71.804 53.972 72.02C54.172 72.228 54.328 72.496 54.44 72.824C54.56 73.152 54.62 73.54 54.62 73.988C54.62 74.052 54.616 74.12 54.608 74.192C54.608 74.256 54.604 74.32 54.596 74.384H50.696C50.712 74.736 50.772 75.044 50.876 75.308C50.98 75.564 51.116 75.776 51.284 75.944C51.452 76.104 51.644 76.224 51.86 76.304C52.084 76.384 52.32 76.424 52.568 76.424C52.76 76.424 52.94 76.404 53.108 76.364C53.276 76.316 53.432 76.248 53.576 76.16C53.728 76.064 53.864 75.948 53.984 75.812L54.464 76.28C54.312 76.464 54.136 76.62 53.936 76.748C53.744 76.876 53.532 76.968 53.3 77.024C53.068 77.088 52.816 77.12 52.544 77.12ZM50.732 73.712H53.744C53.744 73.456 53.708 73.228 53.636 73.028C53.572 72.82 53.476 72.644 53.348 72.5C53.228 72.348 53.08 72.236 52.904 72.164C52.736 72.084 52.544 72.044 52.328 72.044C52.136 72.044 51.952 72.076 51.776 72.14C51.608 72.204 51.452 72.308 51.308 72.452C51.164 72.588 51.04 72.76 50.936 72.968C50.84 73.176 50.772 73.424 50.732 73.712ZM56.468 71.516H57.368L57.332 73.112L57.224 72.932C57.272 72.684 57.356 72.464 57.476 72.272C57.596 72.08 57.74 71.92 57.908 71.792C58.076 71.656 58.26 71.556 58.46 71.492C58.66 71.42 58.868 71.384 59.084 71.384C59.372 71.384 59.636 71.436 59.876 71.54C60.124 71.636 60.344 71.784 60.536 71.984L60.152 72.656L60.104 72.764L60.02 72.716C60.004 72.652 59.98 72.592 59.948 72.536C59.916 72.48 59.848 72.412 59.744 72.332C59.616 72.252 59.496 72.2 59.384 72.176C59.28 72.144 59.16 72.128 59.024 72.128C58.824 72.128 58.624 72.168 58.424 72.248C58.224 72.32 58.04 72.436 57.872 72.596C57.712 72.756 57.584 72.96 57.488 73.208C57.392 73.456 57.344 73.752 57.344 74.096V77.012H56.468V71.516ZM63.332 77.132C62.708 77.132 62.228 76.992 61.892 76.712C61.556 76.424 61.388 76.06 61.388 75.62C61.388 75.324 61.46 75.06 61.604 74.828C61.748 74.588 61.944 74.388 62.192 74.228C62.448 74.06 62.744 73.932 63.08 73.844C63.416 73.756 63.772 73.712 64.148 73.712C64.284 73.712 64.42 73.716 64.556 73.724C64.7 73.724 64.848 73.732 65 73.748C65.16 73.756 65.324 73.772 65.492 73.796L65.516 74.456C65.372 74.432 65.224 74.416 65.072 74.408C64.928 74.392 64.784 74.38 64.64 74.372C64.496 74.364 64.356 74.36 64.22 74.36C63.932 74.36 63.668 74.384 63.428 74.432C63.188 74.48 62.98 74.552 62.804 74.648C62.628 74.744 62.492 74.868 62.396 75.02C62.3 75.172 62.252 75.356 62.252 75.572C62.252 75.74 62.28 75.884 62.336 76.004C62.4 76.116 62.484 76.208 62.588 76.28C62.692 76.344 62.812 76.392 62.948 76.424C63.092 76.456 63.248 76.472 63.416 76.472C63.728 76.472 64.004 76.424 64.244 76.328C64.492 76.224 64.7 76.076 64.868 75.884C65.044 75.692 65.176 75.456 65.264 75.176C65.352 74.896 65.396 74.576 65.396 74.216C65.396 73.672 65.332 73.248 65.204 72.944C65.076 72.64 64.884 72.424 64.628 72.296C64.38 72.168 64.06 72.104 63.668 72.104C63.404 72.104 63.144 72.156 62.888 72.26C62.632 72.356 62.4 72.508 62.192 72.716L61.772 72.164C62.028 71.908 62.324 71.716 62.66 71.588C62.996 71.46 63.352 71.396 63.728 71.396C64.088 71.396 64.416 71.44 64.712 71.528C65.008 71.616 65.26 71.764 65.468 71.972C65.684 72.172 65.848 72.444 65.96 72.788C66.08 73.132 66.14 73.564 66.14 74.084V77H65.204V76.16C65.1 76.36 64.972 76.524 64.82 76.652C64.676 76.78 64.52 76.88 64.352 76.952C64.184 77.016 64.012 77.06 63.836 77.084C63.66 77.116 63.492 77.132 63.332 77.132ZM70.148 77.084C69.796 77.084 69.508 77.024 69.284 76.904C69.06 76.784 68.888 76.6 68.768 76.352C68.648 76.096 68.568 75.776 68.528 75.392C68.496 75.008 68.488 74.552 68.504 74.024L68.648 70.112L69.548 70.004L69.668 69.992L69.68 70.076C69.64 70.132 69.604 70.188 69.572 70.244C69.548 70.3 69.528 70.396 69.512 70.532L69.404 71.888L69.44 72.104L69.356 74.084C69.332 74.692 69.348 75.164 69.404 75.5C69.46 75.828 69.56 76.056 69.704 76.184C69.848 76.304 70.04 76.364 70.28 76.364C70.544 76.364 70.776 76.312 70.976 76.208C71.184 76.104 71.4 75.972 71.624 75.812L71.888 76.496C71.616 76.696 71.336 76.844 71.048 76.94C70.76 77.036 70.46 77.084 70.148 77.084ZM67.4 71.516H71.348V72.224H67.4V71.516ZM75.584 77.12C75.184 77.12 74.82 77.06 74.492 76.94C74.164 76.812 73.88 76.628 73.64 76.388C73.408 76.148 73.228 75.852 73.1 75.5C72.972 75.14 72.908 74.732 72.908 74.276C72.908 73.812 72.972 73.4 73.1 73.04C73.236 72.68 73.416 72.38 73.64 72.14C73.872 71.892 74.14 71.704 74.444 71.576C74.756 71.448 75.084 71.384 75.428 71.384C75.74 71.384 76.032 71.436 76.304 71.54C76.576 71.644 76.812 71.804 77.012 72.02C77.212 72.228 77.368 72.496 77.48 72.824C77.6 73.152 77.66 73.54 77.66 73.988C77.66 74.052 77.656 74.12 77.648 74.192C77.648 74.256 77.644 74.32 77.636 74.384H73.736C73.752 74.736 73.812 75.044 73.916 75.308C74.02 75.564 74.156 75.776 74.324 75.944C74.492 76.104 74.684 76.224 74.9 76.304C75.124 76.384 75.36 76.424 75.608 76.424C75.8 76.424 75.98 76.404 76.148 76.364C76.316 76.316 76.472 76.248 76.616 76.16C76.768 76.064 76.904 75.948 77.024 75.812L77.504 76.28C77.352 76.464 77.176 76.62 76.976 76.748C76.784 76.876 76.572 76.968 76.34 77.024C76.108 77.088 75.856 77.12 75.584 77.12ZM73.772 73.712H76.784C76.784 73.456 76.748 73.228 76.676 73.028C76.612 72.82 76.516 72.644 76.388 72.5C76.268 72.348 76.12 72.236 75.944 72.164C75.776 72.084 75.584 72.044 75.368 72.044C75.176 72.044 74.992 72.076 74.816 72.14C74.648 72.204 74.492 72.308 74.348 72.452C74.204 72.588 74.08 72.76 73.976 72.968C73.88 73.176 73.812 73.424 73.772 73.712ZM86.372 77.132C85.748 77.132 85.268 76.992 84.932 76.712C84.596 76.424 84.428 76.06 84.428 75.62C84.428 75.324 84.5 75.06 84.644 74.828C84.788 74.588 84.984 74.388 85.232 74.228C85.488 74.06 85.784 73.932 86.12 73.844C86.456 73.756 86.812 73.712 87.188 73.712C87.324 73.712 87.46 73.716 87.596 73.724C87.74 73.724 87.888 73.732 88.04 73.748C88.2 73.756 88.364 73.772 88.532 73.796L88.556 74.456C88.412 74.432 88.264 74.416 88.112 74.408C87.968 74.392 87.824 74.38 87.68 74.372C87.536 74.364 87.396 74.36 87.26 74.36C86.972 74.36 86.708 74.384 86.468 74.432C86.228 74.48 86.02 74.552 85.844 74.648C85.668 74.744 85.532 74.868 85.436 75.02C85.34 75.172 85.292 75.356 85.292 75.572C85.292 75.74 85.32 75.884 85.376 76.004C85.44 76.116 85.524 76.208 85.628 76.28C85.732 76.344 85.852 76.392 85.988 76.424C86.132 76.456 86.288 76.472 86.456 76.472C86.768 76.472 87.044 76.424 87.284 76.328C87.532 76.224 87.74 76.076 87.908 75.884C88.084 75.692 88.216 75.456 88.304 75.176C88.392 74.896 88.436 74.576 88.436 74.216C88.436 73.672 88.372 73.248 88.244 72.944C88.116 72.64 87.924 72.424 87.668 72.296C87.42 72.168 87.1 72.104 86.708 72.104C86.444 72.104 86.184 72.156 85.928 72.26C85.672 72.356 85.44 72.508 85.232 72.716L84.812 72.164C85.068 71.908 85.364 71.716 85.7 71.588C86.036 71.46 86.392 71.396 86.768 71.396C87.128 71.396 87.456 71.44 87.752 71.528C88.048 71.616 88.3 71.764 88.508 71.972C88.724 72.172 88.888 72.444 89 72.788C89.12 73.132 89.18 73.564 89.18 74.084V77H88.244V76.16C88.14 76.36 88.012 76.524 87.86 76.652C87.716 76.78 87.56 76.88 87.392 76.952C87.224 77.016 87.052 77.06 86.876 77.084C86.7 77.116 86.532 77.132 86.372 77.132ZM98.012 77.132C97.796 77.132 97.592 77.1 97.4 77.036C97.208 76.972 97.032 76.876 96.872 76.748C96.72 76.612 96.588 76.444 96.476 76.244C96.364 76.044 96.276 75.804 96.212 75.524C96.156 75.244 96.128 74.928 96.128 74.576L96.14 71.516H96.98V74.576C96.98 74.92 97.012 75.212 97.076 75.452C97.14 75.692 97.228 75.884 97.34 76.028C97.46 76.172 97.596 76.276 97.748 76.34C97.9 76.404 98.06 76.436 98.228 76.436C98.42 76.436 98.604 76.4 98.78 76.328C98.956 76.248 99.112 76.132 99.248 75.98C99.392 75.828 99.504 75.632 99.584 75.392C99.664 75.152 99.704 74.868 99.704 74.54V71.516H100.544V76.148C100.544 76.292 100.548 76.436 100.556 76.58C100.572 76.716 100.608 76.856 100.664 77H99.836C99.796 76.904 99.768 76.812 99.752 76.724C99.736 76.628 99.724 76.532 99.716 76.436C99.716 76.34 99.716 76.248 99.716 76.16C99.628 76.312 99.524 76.448 99.404 76.568C99.284 76.688 99.148 76.792 98.996 76.88C98.852 76.96 98.696 77.02 98.528 77.06C98.368 77.108 98.196 77.132 98.012 77.132ZM104.132 77.12C103.828 77.12 103.536 77.088 103.256 77.024C102.984 76.96 102.724 76.864 102.476 76.736C102.236 76.608 102.012 76.448 101.804 76.256L102.284 75.44L102.356 75.332L102.428 75.38C102.444 75.444 102.46 75.512 102.476 75.584C102.5 75.648 102.556 75.728 102.644 75.824C102.812 75.992 103.012 76.132 103.244 76.244C103.484 76.348 103.788 76.4 104.156 76.4C104.452 76.4 104.7 76.364 104.9 76.292C105.108 76.22 105.268 76.12 105.38 75.992C105.492 75.856 105.548 75.7 105.548 75.524C105.548 75.404 105.524 75.3 105.476 75.212C105.428 75.116 105.348 75.028 105.236 74.948C105.132 74.868 104.992 74.788 104.816 74.708C104.64 74.628 104.424 74.548 104.168 74.468C103.752 74.348 103.388 74.208 103.076 74.048C102.764 73.888 102.524 73.704 102.356 73.496C102.188 73.28 102.104 73.036 102.104 72.764C102.104 72.484 102.18 72.244 102.332 72.044C102.484 71.836 102.708 71.676 103.004 71.564C103.308 71.444 103.68 71.384 104.12 71.384C104.376 71.384 104.608 71.404 104.816 71.444C105.024 71.476 105.216 71.528 105.392 71.6C105.568 71.672 105.728 71.764 105.872 71.876C106.024 71.98 106.168 72.104 106.304 72.248L105.812 72.848L105.728 72.944L105.668 72.884C105.66 72.82 105.64 72.76 105.608 72.704C105.584 72.64 105.528 72.564 105.44 72.476C105.256 72.332 105.048 72.224 104.816 72.152C104.584 72.072 104.36 72.032 104.144 72.032C103.824 72.032 103.548 72.088 103.316 72.2C103.084 72.312 102.968 72.484 102.968 72.716C102.968 72.836 103.008 72.956 103.088 73.076C103.176 73.188 103.332 73.304 103.556 73.424C103.78 73.536 104.1 73.652 104.516 73.772C104.972 73.916 105.336 74.064 105.608 74.216C105.888 74.36 106.088 74.528 106.208 74.72C106.336 74.912 106.4 75.14 106.4 75.404C106.4 75.708 106.316 75.992 106.148 76.256C105.988 76.52 105.74 76.732 105.404 76.892C105.068 77.044 104.644 77.12 104.132 77.12ZM110.144 77.12C109.744 77.12 109.38 77.06 109.052 76.94C108.724 76.812 108.44 76.628 108.2 76.388C107.968 76.148 107.788 75.852 107.66 75.5C107.532 75.14 107.468 74.732 107.468 74.276C107.468 73.812 107.532 73.4 107.66 73.04C107.796 72.68 107.976 72.38 108.2 72.14C108.432 71.892 108.7 71.704 109.004 71.576C109.316 71.448 109.644 71.384 109.988 71.384C110.3 71.384 110.592 71.436 110.864 71.54C111.136 71.644 111.372 71.804 111.572 72.02C111.772 72.228 111.928 72.496 112.04 72.824C112.16 73.152 112.22 73.54 112.22 73.988C112.22 74.052 112.216 74.12 112.208 74.192C112.208 74.256 112.204 74.32 112.196 74.384H108.296C108.312 74.736 108.372 75.044 108.476 75.308C108.58 75.564 108.716 75.776 108.884 75.944C109.052 76.104 109.244 76.224 109.46 76.304C109.684 76.384 109.92 76.424 110.168 76.424C110.36 76.424 110.54 76.404 110.708 76.364C110.876 76.316 111.032 76.248 111.176 76.16C111.328 76.064 111.464 75.948 111.584 75.812L112.064 76.28C111.912 76.464 111.736 76.62 111.536 76.748C111.344 76.876 111.132 76.968 110.9 77.024C110.668 77.088 110.416 77.12 110.144 77.12ZM108.332 73.712H111.344C111.344 73.456 111.308 73.228 111.236 73.028C111.172 72.82 111.076 72.644 110.948 72.5C110.828 72.348 110.68 72.236 110.504 72.164C110.336 72.084 110.144 72.044 109.928 72.044C109.736 72.044 109.552 72.076 109.376 72.14C109.208 72.204 109.052 72.308 108.908 72.452C108.764 72.588 108.64 72.76 108.536 72.968C108.44 73.176 108.372 73.424 108.332 73.712ZM114.068 71.516H114.968L114.932 73.112L114.824 72.932C114.872 72.684 114.956 72.464 115.076 72.272C115.196 72.08 115.34 71.92 115.508 71.792C115.676 71.656 115.86 71.556 116.06 71.492C116.26 71.42 116.468 71.384 116.684 71.384C116.972 71.384 117.236 71.436 117.476 71.54C117.724 71.636 117.944 71.784 118.136 71.984L117.752 72.656L117.704 72.764L117.62 72.716C117.604 72.652 117.58 72.592 117.548 72.536C117.516 72.48 117.448 72.412 117.344 72.332C117.216 72.252 117.096 72.2 116.984 72.176C116.88 72.144 116.76 72.128 116.624 72.128C116.424 72.128 116.224 72.168 116.024 72.248C115.824 72.32 115.64 72.436 115.472 72.596C115.312 72.756 115.184 72.96 115.088 73.208C114.992 73.456 114.944 73.752 114.944 74.096V77.012H114.068V71.516ZM120.788 72.596L120.38 72.236C120.532 72.092 120.664 71.944 120.776 71.792C120.896 71.632 120.988 71.48 121.052 71.336C121.124 71.192 121.16 71.072 121.16 70.976C121.16 70.888 121.128 70.812 121.064 70.748C121.008 70.676 120.936 70.608 120.848 70.544C120.768 70.48 120.696 70.408 120.632 70.328C120.576 70.248 120.548 70.156 120.548 70.052C120.548 69.852 120.612 69.684 120.74 69.548C120.876 69.412 121.048 69.344 121.256 69.344C121.464 69.344 121.652 69.436 121.82 69.62C121.988 69.804 122.072 70.044 122.072 70.34C122.072 70.548 122.024 70.772 121.928 71.012C121.832 71.252 121.688 71.504 121.496 71.768C121.312 72.024 121.076 72.3 120.788 72.596ZM127.172 77.12C126.868 77.12 126.576 77.088 126.296 77.024C126.024 76.96 125.764 76.864 125.516 76.736C125.276 76.608 125.052 76.448 124.844 76.256L125.324 75.44L125.396 75.332L125.468 75.38C125.484 75.444 125.5 75.512 125.516 75.584C125.54 75.648 125.596 75.728 125.684 75.824C125.852 75.992 126.052 76.132 126.284 76.244C126.524 76.348 126.828 76.4 127.196 76.4C127.492 76.4 127.74 76.364 127.94 76.292C128.148 76.22 128.308 76.12 128.42 75.992C128.532 75.856 128.588 75.7 128.588 75.524C128.588 75.404 128.564 75.3 128.516 75.212C128.468 75.116 128.388 75.028 128.276 74.948C128.172 74.868 128.032 74.788 127.856 74.708C127.68 74.628 127.464 74.548 127.208 74.468C126.792 74.348 126.428 74.208 126.116 74.048C125.804 73.888 125.564 73.704 125.396 73.496C125.228 73.28 125.144 73.036 125.144 72.764C125.144 72.484 125.22 72.244 125.372 72.044C125.524 71.836 125.748 71.676 126.044 71.564C126.348 71.444 126.72 71.384 127.16 71.384C127.416 71.384 127.648 71.404 127.856 71.444C128.064 71.476 128.256 71.528 128.432 71.6C128.608 71.672 128.768 71.764 128.912 71.876C129.064 71.98 129.208 72.104 129.344 72.248L128.852 72.848L128.768 72.944L128.708 72.884C128.7 72.82 128.68 72.76 128.648 72.704C128.624 72.64 128.568 72.564 128.48 72.476C128.296 72.332 128.088 72.224 127.856 72.152C127.624 72.072 127.4 72.032 127.184 72.032C126.864 72.032 126.588 72.088 126.356 72.2C126.124 72.312 126.008 72.484 126.008 72.716C126.008 72.836 126.048 72.956 126.128 73.076C126.216 73.188 126.372 73.304 126.596 73.424C126.82 73.536 127.14 73.652 127.556 73.772C128.012 73.916 128.376 74.064 128.648 74.216C128.928 74.36 129.128 74.528 129.248 74.72C129.376 74.912 129.44 75.14 129.44 75.404C129.44 75.708 129.356 75.992 129.188 76.256C129.028 76.52 128.78 76.732 128.444 76.892C128.108 77.044 127.684 77.12 127.172 77.12ZM139.268 77.084C138.916 77.084 138.628 77.024 138.404 76.904C138.18 76.784 138.008 76.6 137.888 76.352C137.768 76.096 137.688 75.776 137.648 75.392C137.616 75.008 137.608 74.552 137.624 74.024L137.768 70.112L138.668 70.004L138.788 69.992L138.8 70.076C138.76 70.132 138.724 70.188 138.692 70.244C138.668 70.3 138.648 70.396 138.632 70.532L138.524 71.888L138.56 72.104L138.476 74.084C138.452 74.692 138.468 75.164 138.524 75.5C138.58 75.828 138.68 76.056 138.824 76.184C138.968 76.304 139.16 76.364 139.4 76.364C139.664 76.364 139.896 76.312 140.096 76.208C140.304 76.104 140.52 75.972 140.744 75.812L141.008 76.496C140.736 76.696 140.456 76.844 140.168 76.94C139.88 77.036 139.58 77.084 139.268 77.084ZM136.52 71.516H140.468V72.224H136.52V71.516ZM143.972 77.132C143.348 77.132 142.868 76.992 142.532 76.712C142.196 76.424 142.028 76.06 142.028 75.62C142.028 75.324 142.1 75.06 142.244 74.828C142.388 74.588 142.584 74.388 142.832 74.228C143.088 74.06 143.384 73.932 143.72 73.844C144.056 73.756 144.412 73.712 144.788 73.712C144.924 73.712 145.06 73.716 145.196 73.724C145.34 73.724 145.488 73.732 145.64 73.748C145.8 73.756 145.964 73.772 146.132 73.796L146.156 74.456C146.012 74.432 145.864 74.416 145.712 74.408C145.568 74.392 145.424 74.38 145.28 74.372C145.136 74.364 144.996 74.36 144.86 74.36C144.572 74.36 144.308 74.384 144.068 74.432C143.828 74.48 143.62 74.552 143.444 74.648C143.268 74.744 143.132 74.868 143.036 75.02C142.94 75.172 142.892 75.356 142.892 75.572C142.892 75.74 142.92 75.884 142.976 76.004C143.04 76.116 143.124 76.208 143.228 76.28C143.332 76.344 143.452 76.392 143.588 76.424C143.732 76.456 143.888 76.472 144.056 76.472C144.368 76.472 144.644 76.424 144.884 76.328C145.132 76.224 145.34 76.076 145.508 75.884C145.684 75.692 145.816 75.456 145.904 75.176C145.992 74.896 146.036 74.576 146.036 74.216C146.036 73.672 145.972 73.248 145.844 72.944C145.716 72.64 145.524 72.424 145.268 72.296C145.02 72.168 144.7 72.104 144.308 72.104C144.044 72.104 143.784 72.156 143.528 72.26C143.272 72.356 143.04 72.508 142.832 72.716L142.412 72.164C142.668 71.908 142.964 71.716 143.3 71.588C143.636 71.46 143.992 71.396 144.368 71.396C144.728 71.396 145.056 71.44 145.352 71.528C145.648 71.616 145.9 71.764 146.108 71.972C146.324 72.172 146.488 72.444 146.6 72.788C146.72 73.132 146.78 73.564 146.78 74.084V77H145.844V76.16C145.74 76.36 145.612 76.524 145.46 76.652C145.316 76.78 145.16 76.88 144.992 76.952C144.824 77.016 144.652 77.06 144.476 77.084C144.3 77.116 144.132 77.132 143.972 77.132ZM150.392 77.132C150.168 77.132 149.956 77.096 149.756 77.024C149.556 76.96 149.372 76.864 149.204 76.736C149.044 76.608 148.9 76.456 148.772 76.28L148.472 77H147.92V69.02H148.784H148.904V69.104C148.856 69.152 148.824 69.204 148.808 69.26C148.8 69.316 148.796 69.412 148.796 69.548V72.356C148.884 72.212 148.988 72.08 149.108 71.96C149.228 71.84 149.36 71.736 149.504 71.648C149.648 71.56 149.8 71.496 149.96 71.456C150.12 71.408 150.276 71.384 150.428 71.384C150.764 71.384 151.068 71.444 151.34 71.564C151.62 71.676 151.86 71.852 152.06 72.092C152.26 72.324 152.412 72.616 152.516 72.968C152.628 73.32 152.684 73.732 152.684 74.204C152.684 74.692 152.62 75.12 152.492 75.488C152.364 75.856 152.188 76.164 151.964 76.412C151.748 76.652 151.504 76.832 151.232 76.952C150.96 77.072 150.68 77.132 150.392 77.132ZM150.284 76.364C150.476 76.364 150.66 76.328 150.836 76.256C151.02 76.184 151.184 76.068 151.328 75.908C151.472 75.74 151.584 75.52 151.664 75.248C151.752 74.976 151.796 74.644 151.796 74.252C151.796 73.892 151.76 73.58 151.688 73.316C151.616 73.044 151.512 72.82 151.376 72.644C151.248 72.468 151.092 72.34 150.908 72.26C150.724 72.172 150.524 72.128 150.308 72.128C150.012 72.128 149.748 72.22 149.516 72.404C149.292 72.58 149.116 72.832 148.988 73.16C148.86 73.48 148.796 73.852 148.796 74.276C148.796 74.588 148.824 74.872 148.88 75.128C148.936 75.384 149.02 75.604 149.132 75.788C149.252 75.972 149.404 76.116 149.588 76.22C149.78 76.316 150.012 76.364 150.284 76.364ZM153.908 77V76.304H155.528V69.716H153.98V69.02H156.404V76.304H158.012V77H153.908ZM161.984 77.12C161.584 77.12 161.22 77.06 160.892 76.94C160.564 76.812 160.28 76.628 160.04 76.388C159.808 76.148 159.628 75.852 159.5 75.5C159.372 75.14 159.308 74.732 159.308 74.276C159.308 73.812 159.372 73.4 159.5 73.04C159.636 72.68 159.816 72.38 160.04 72.14C160.272 71.892 160.54 71.704 160.844 71.576C161.156 71.448 161.484 71.384 161.828 71.384C162.14 71.384 162.432 71.436 162.704 71.54C162.976 71.644 163.212 71.804 163.412 72.02C163.612 72.228 163.768 72.496 163.88 72.824C164 73.152 164.06 73.54 164.06 73.988C164.06 74.052 164.056 74.12 164.048 74.192C164.048 74.256 164.044 74.32 164.036 74.384H160.136C160.152 74.736 160.212 75.044 160.316 75.308C160.42 75.564 160.556 75.776 160.724 75.944C160.892 76.104 161.084 76.224 161.3 76.304C161.524 76.384 161.76 76.424 162.008 76.424C162.2 76.424 162.38 76.404 162.548 76.364C162.716 76.316 162.872 76.248 163.016 76.16C163.168 76.064 163.304 75.948 163.424 75.812L163.904 76.28C163.752 76.464 163.576 76.62 163.376 76.748C163.184 76.876 162.972 76.968 162.74 77.024C162.508 77.088 162.256 77.12 161.984 77.12ZM160.172 73.712H163.184C163.184 73.456 163.148 73.228 163.076 73.028C163.012 72.82 162.916 72.644 162.788 72.5C162.668 72.348 162.52 72.236 162.344 72.164C162.176 72.084 161.984 72.044 161.768 72.044C161.576 72.044 161.392 72.076 161.216 72.14C161.048 72.204 160.892 72.308 160.748 72.452C160.604 72.588 160.48 72.76 160.376 72.968C160.28 73.176 160.212 73.424 160.172 73.712ZM35.588 90.084C35.236 90.084 34.948 90.024 34.724 89.904C34.5 89.784 34.328 89.6 34.208 89.352C34.088 89.096 34.008 88.776 33.968 88.392C33.936 88.008 33.928 87.552 33.944 87.024L34.088 83.112L34.988 83.004L35.108 82.992L35.12 83.076C35.08 83.132 35.044 83.188 35.012 83.244C34.988 83.3 34.968 83.396 34.952 83.532L34.844 84.888L34.88 85.104L34.796 87.084C34.772 87.692 34.788 88.164 34.844 88.5C34.9 88.828 35 89.056 35.144 89.184C35.288 89.304 35.48 89.364 35.72 89.364C35.984 89.364 36.216 89.312 36.416 89.208C36.624 89.104 36.84 88.972 37.064 88.812L37.328 89.496C37.056 89.696 36.776 89.844 36.488 89.94C36.2 90.036 35.9 90.084 35.588 90.084ZM32.84 84.516H36.788V85.224H32.84V84.516ZM38.636 82.02H39.464H39.584V82.104C39.536 82.152 39.504 82.204 39.488 82.26C39.48 82.316 39.476 82.412 39.476 82.548V85.488C39.62 85.264 39.788 85.072 39.98 84.912C40.18 84.744 40.388 84.616 40.604 84.528C40.828 84.432 41.052 84.384 41.276 84.384C41.604 84.384 41.892 84.46 42.14 84.612C42.396 84.764 42.592 85.008 42.728 85.344C42.872 85.68 42.944 86.124 42.944 86.676V90H42.104V86.7C42.104 86.316 42.06 86.012 41.972 85.788C41.884 85.556 41.764 85.392 41.612 85.296C41.46 85.192 41.288 85.14 41.096 85.14C40.952 85.14 40.804 85.164 40.652 85.212C40.5 85.26 40.352 85.332 40.208 85.428C40.072 85.524 39.948 85.644 39.836 85.788C39.724 85.924 39.636 86.08 39.572 86.256C39.508 86.432 39.476 86.628 39.476 86.844V90H38.636V82.02ZM46.052 90.132C45.428 90.132 44.948 89.992 44.612 89.712C44.276 89.424 44.108 89.06 44.108 88.62C44.108 88.324 44.18 88.06 44.324 87.828C44.468 87.588 44.664 87.388 44.912 87.228C45.168 87.06 45.464 86.932 45.8 86.844C46.136 86.756 46.492 86.712 46.868 86.712C47.004 86.712 47.14 86.716 47.276 86.724C47.42 86.724 47.568 86.732 47.72 86.748C47.88 86.756 48.044 86.772 48.212 86.796L48.236 87.456C48.092 87.432 47.944 87.416 47.792 87.408C47.648 87.392 47.504 87.38 47.36 87.372C47.216 87.364 47.076 87.36 46.94 87.36C46.652 87.36 46.388 87.384 46.148 87.432C45.908 87.48 45.7 87.552 45.524 87.648C45.348 87.744 45.212 87.868 45.116 88.02C45.02 88.172 44.972 88.356 44.972 88.572C44.972 88.74 45 88.884 45.056 89.004C45.12 89.116 45.204 89.208 45.308 89.28C45.412 89.344 45.532 89.392 45.668 89.424C45.812 89.456 45.968 89.472 46.136 89.472C46.448 89.472 46.724 89.424 46.964 89.328C47.212 89.224 47.42 89.076 47.588 88.884C47.764 88.692 47.896 88.456 47.984 88.176C48.072 87.896 48.116 87.576 48.116 87.216C48.116 86.672 48.052 86.248 47.924 85.944C47.796 85.64 47.604 85.424 47.348 85.296C47.1 85.168 46.78 85.104 46.388 85.104C46.124 85.104 45.864 85.156 45.608 85.26C45.352 85.356 45.12 85.508 44.912 85.716L44.492 85.164C44.748 84.908 45.044 84.716 45.38 84.588C45.716 84.46 46.072 84.396 46.448 84.396C46.808 84.396 47.136 84.44 47.432 84.528C47.728 84.616 47.98 84.764 48.188 84.972C48.404 85.172 48.568 85.444 48.68 85.788C48.8 86.132 48.86 86.564 48.86 87.084V90H47.924V89.16C47.82 89.36 47.692 89.524 47.54 89.652C47.396 89.78 47.24 89.88 47.072 89.952C46.904 90.016 46.732 90.06 46.556 90.084C46.38 90.116 46.212 90.132 46.052 90.132ZM52.868 90.084C52.516 90.084 52.228 90.024 52.004 89.904C51.78 89.784 51.608 89.6 51.488 89.352C51.368 89.096 51.288 88.776 51.248 88.392C51.216 88.008 51.208 87.552 51.224 87.024L51.368 83.112L52.268 83.004L52.388 82.992L52.4 83.076C52.36 83.132 52.324 83.188 52.292 83.244C52.268 83.3 52.248 83.396 52.232 83.532L52.124 84.888L52.16 85.104L52.076 87.084C52.052 87.692 52.068 88.164 52.124 88.5C52.18 88.828 52.28 89.056 52.424 89.184C52.568 89.304 52.76 89.364 53 89.364C53.264 89.364 53.496 89.312 53.696 89.208C53.904 89.104 54.12 88.972 54.344 88.812L54.608 89.496C54.336 89.696 54.056 89.844 53.768 89.94C53.48 90.036 53.18 90.084 52.868 90.084ZM50.12 84.516H54.068V85.224H50.12V84.516ZM62 90V89.304H63.404V85.212H62.072V84.516H64.268V89.304H65.552V90H62ZM63.788 83.364C63.62 83.364 63.476 83.304 63.356 83.184C63.236 83.064 63.176 82.92 63.176 82.752C63.176 82.576 63.232 82.428 63.344 82.308C63.464 82.188 63.612 82.128 63.788 82.128C63.956 82.128 64.1 82.192 64.22 82.32C64.348 82.44 64.412 82.584 64.412 82.752C64.412 82.92 64.348 83.064 64.22 83.184C64.1 83.304 63.956 83.364 63.788 83.364ZM69.572 90.12C69.268 90.12 68.976 90.088 68.696 90.024C68.424 89.96 68.164 89.864 67.916 89.736C67.676 89.608 67.452 89.448 67.244 89.256L67.724 88.44L67.796 88.332L67.868 88.38C67.884 88.444 67.9 88.512 67.916 88.584C67.94 88.648 67.996 88.728 68.084 88.824C68.252 88.992 68.452 89.132 68.684 89.244C68.924 89.348 69.228 89.4 69.596 89.4C69.892 89.4 70.14 89.364 70.34 89.292C70.548 89.22 70.708 89.12 70.82 88.992C70.932 88.856 70.988 88.7 70.988 88.524C70.988 88.404 70.964 88.3 70.916 88.212C70.868 88.116 70.788 88.028 70.676 87.948C70.572 87.868 70.432 87.788 70.256 87.708C70.08 87.628 69.864 87.548 69.608 87.468C69.192 87.348 68.828 87.208 68.516 87.048C68.204 86.888 67.964 86.704 67.796 86.496C67.628 86.28 67.544 86.036 67.544 85.764C67.544 85.484 67.62 85.244 67.772 85.044C67.924 84.836 68.148 84.676 68.444 84.564C68.748 84.444 69.12 84.384 69.56 84.384C69.816 84.384 70.048 84.404 70.256 84.444C70.464 84.476 70.656 84.528 70.832 84.6C71.008 84.672 71.168 84.764 71.312 84.876C71.464 84.98 71.608 85.104 71.744 85.248L71.252 85.848L71.168 85.944L71.108 85.884C71.1 85.82 71.08 85.76 71.048 85.704C71.024 85.64 70.968 85.564 70.88 85.476C70.696 85.332 70.488 85.224 70.256 85.152C70.024 85.072 69.8 85.032 69.584 85.032C69.264 85.032 68.988 85.088 68.756 85.2C68.524 85.312 68.408 85.484 68.408 85.716C68.408 85.836 68.448 85.956 68.528 86.076C68.616 86.188 68.772 86.304 68.996 86.424C69.22 86.536 69.54 86.652 69.956 86.772C70.412 86.916 70.776 87.064 71.048 87.216C71.328 87.36 71.528 87.528 71.648 87.72C71.776 87.912 71.84 88.14 71.84 88.404C71.84 88.708 71.756 88.992 71.588 89.256C71.428 89.52 71.18 89.732 70.844 89.892C70.508 90.044 70.084 90.12 69.572 90.12ZM78.536 90V84.516H79.328V85.056C79.416 84.92 79.516 84.804 79.628 84.708C79.748 84.604 79.876 84.524 80.012 84.468C80.156 84.412 80.3 84.384 80.444 84.384C80.604 84.384 80.752 84.42 80.888 84.492C81.024 84.556 81.136 84.648 81.224 84.768C81.32 84.888 81.384 85.028 81.416 85.188C81.488 85.028 81.584 84.888 81.704 84.768C81.832 84.648 81.976 84.556 82.136 84.492C82.304 84.42 82.476 84.384 82.652 84.384C82.836 84.384 82.996 84.42 83.132 84.492C83.268 84.564 83.38 84.664 83.468 84.792C83.556 84.912 83.62 85.06 83.66 85.236C83.7 85.404 83.716 85.588 83.708 85.788V90H82.916V86.112C82.916 85.776 82.892 85.532 82.844 85.38C82.804 85.228 82.744 85.132 82.664 85.092C82.584 85.044 82.496 85.02 82.4 85.02C82.248 85.02 82.104 85.092 81.968 85.236C81.84 85.372 81.732 85.544 81.644 85.752C81.564 85.96 81.524 86.168 81.524 86.376V90H80.72V86.184C80.72 85.728 80.676 85.424 80.588 85.272C80.508 85.12 80.352 85.044 80.12 85.044C80.032 85.044 79.94 85.076 79.844 85.14C79.756 85.196 79.672 85.28 79.592 85.392C79.512 85.496 79.448 85.628 79.4 85.788C79.352 85.948 79.328 86.132 79.328 86.34V90H78.536ZM86.84 90.096C86.344 90.096 85.904 89.976 85.52 89.736C85.144 89.488 84.848 89.152 84.632 88.728C84.416 88.296 84.308 87.804 84.308 87.252C84.308 86.692 84.416 86.2 84.632 85.776C84.848 85.344 85.144 85.008 85.52 84.768C85.904 84.52 86.344 84.396 86.84 84.396C87.336 84.396 87.772 84.52 88.148 84.768C88.532 85.008 88.832 85.344 89.048 85.776C89.264 86.2 89.372 86.692 89.372 87.252C89.372 87.804 89.264 88.296 89.048 88.728C88.832 89.152 88.532 89.488 88.148 89.736C87.772 89.976 87.336 90.096 86.84 90.096ZM86.84 89.376C87.16 89.376 87.44 89.284 87.68 89.1C87.92 88.916 88.108 88.664 88.244 88.344C88.388 88.024 88.46 87.656 88.46 87.24C88.46 86.824 88.388 86.456 88.244 86.136C88.108 85.816 87.92 85.568 87.68 85.392C87.44 85.208 87.16 85.116 86.84 85.116C86.528 85.116 86.248 85.208 86 85.392C85.76 85.568 85.568 85.816 85.424 86.136C85.288 86.456 85.22 86.824 85.22 87.24C85.22 87.656 85.288 88.024 85.424 88.344C85.568 88.664 85.76 88.916 86 89.1C86.248 89.284 86.528 89.376 86.84 89.376ZM92.612 90.12C92.308 90.12 92.016 90.088 91.736 90.024C91.464 89.96 91.204 89.864 90.956 89.736C90.716 89.608 90.492 89.448 90.284 89.256L90.764 88.44L90.836 88.332L90.908 88.38C90.924 88.444 90.94 88.512 90.956 88.584C90.98 88.648 91.036 88.728 91.124 88.824C91.292 88.992 91.492 89.132 91.724 89.244C91.964 89.348 92.268 89.4 92.636 89.4C92.932 89.4 93.18 89.364 93.38 89.292C93.588 89.22 93.748 89.12 93.86 88.992C93.972 88.856 94.028 88.7 94.028 88.524C94.028 88.404 94.004 88.3 93.956 88.212C93.908 88.116 93.828 88.028 93.716 87.948C93.612 87.868 93.472 87.788 93.296 87.708C93.12 87.628 92.904 87.548 92.648 87.468C92.232 87.348 91.868 87.208 91.556 87.048C91.244 86.888 91.004 86.704 90.836 86.496C90.668 86.28 90.584 86.036 90.584 85.764C90.584 85.484 90.66 85.244 90.812 85.044C90.964 84.836 91.188 84.676 91.484 84.564C91.788 84.444 92.16 84.384 92.6 84.384C92.856 84.384 93.088 84.404 93.296 84.444C93.504 84.476 93.696 84.528 93.872 84.6C94.048 84.672 94.208 84.764 94.352 84.876C94.504 84.98 94.648 85.104 94.784 85.248L94.292 85.848L94.208 85.944L94.148 85.884C94.14 85.82 94.12 85.76 94.088 85.704C94.064 85.64 94.008 85.564 93.92 85.476C93.736 85.332 93.528 85.224 93.296 85.152C93.064 85.072 92.84 85.032 92.624 85.032C92.304 85.032 92.028 85.088 91.796 85.2C91.564 85.312 91.448 85.484 91.448 85.716C91.448 85.836 91.488 85.956 91.568 86.076C91.656 86.188 91.812 86.304 92.036 86.424C92.26 86.536 92.58 86.652 92.996 86.772C93.452 86.916 93.816 87.064 94.088 87.216C94.368 87.36 94.568 87.528 94.688 87.72C94.816 87.912 94.88 88.14 94.88 88.404C94.88 88.708 94.796 88.992 94.628 89.256C94.468 89.52 94.22 89.732 93.884 89.892C93.548 90.044 93.124 90.12 92.612 90.12ZM98.948 90.084C98.596 90.084 98.308 90.024 98.084 89.904C97.86 89.784 97.688 89.6 97.568 89.352C97.448 89.096 97.368 88.776 97.328 88.392C97.296 88.008 97.288 87.552 97.304 87.024L97.448 83.112L98.348 83.004L98.468 82.992L98.48 83.076C98.44 83.132 98.404 83.188 98.372 83.244C98.348 83.3 98.328 83.396 98.312 83.532L98.204 84.888L98.24 85.104L98.156 87.084C98.132 87.692 98.148 88.164 98.204 88.5C98.26 88.828 98.36 89.056 98.504 89.184C98.648 89.304 98.84 89.364 99.08 89.364C99.344 89.364 99.576 89.312 99.776 89.208C99.984 89.104 100.2 88.972 100.424 88.812L100.688 89.496C100.416 89.696 100.136 89.844 99.848 89.94C99.56 90.036 99.26 90.084 98.948 90.084ZM96.2 84.516H100.148V85.224H96.2V84.516ZM102.068 90V89.304H103.688V82.716H102.14V82.02H104.564V89.304H106.172V90H102.068ZM108.404 92.088C108.148 92.088 107.912 92.048 107.696 91.968C107.488 91.888 107.304 91.772 107.144 91.62L107.516 91.032L107.588 90.924L107.66 90.972C107.676 91.036 107.704 91.088 107.744 91.128C107.784 91.176 107.86 91.236 107.972 91.308C108.044 91.332 108.12 91.348 108.2 91.356C108.28 91.372 108.364 91.38 108.452 91.38C108.668 91.38 108.848 91.328 108.992 91.224C109.144 91.12 109.276 90.96 109.388 90.744C109.5 90.528 109.608 90.256 109.712 89.928L110.756 86.7C110.876 86.332 110.992 85.968 111.104 85.608C111.216 85.248 111.292 84.884 111.332 84.516H112.196C112.14 84.884 112.052 85.256 111.932 85.632C111.812 86.008 111.684 86.384 111.548 86.76L110.18 90.624C109.988 91.16 109.74 91.536 109.436 91.752C109.14 91.976 108.796 92.088 108.404 92.088ZM107.432 84.516H108.332L110.108 89.088L109.724 90.156L107.432 84.516ZM121.4 90.096C120.904 90.096 120.464 89.976 120.08 89.736C119.704 89.488 119.408 89.152 119.192 88.728C118.976 88.296 118.868 87.804 118.868 87.252C118.868 86.692 118.976 86.2 119.192 85.776C119.408 85.344 119.704 85.008 120.08 84.768C120.464 84.52 120.904 84.396 121.4 84.396C121.896 84.396 122.332 84.52 122.708 84.768C123.092 85.008 123.392 85.344 123.608 85.776C123.824 86.2 123.932 86.692 123.932 87.252C123.932 87.804 123.824 88.296 123.608 88.728C123.392 89.152 123.092 89.488 122.708 89.736C122.332 89.976 121.896 90.096 121.4 90.096ZM121.4 89.376C121.72 89.376 122 89.284 122.24 89.1C122.48 88.916 122.668 88.664 122.804 88.344C122.948 88.024 123.02 87.656 123.02 87.24C123.02 86.824 122.948 86.456 122.804 86.136C122.668 85.816 122.48 85.568 122.24 85.392C122 85.208 121.72 85.116 121.4 85.116C121.088 85.116 120.808 85.208 120.56 85.392C120.32 85.568 120.128 85.816 119.984 86.136C119.848 86.456 119.78 86.824 119.78 87.24C119.78 87.656 119.848 88.024 119.984 88.344C120.128 88.664 120.32 88.916 120.56 89.1C120.808 89.284 121.088 89.376 121.4 89.376ZM125.108 90V89.304H126.728V82.716H125.18V82.02H127.604V89.304H129.212V90H125.108ZM132.728 90.12C132.448 90.12 132.172 90.06 131.9 89.94C131.636 89.82 131.392 89.64 131.168 89.4C130.952 89.16 130.78 88.856 130.652 88.488C130.524 88.12 130.46 87.692 130.46 87.204C130.46 86.7 130.528 86.272 130.664 85.92C130.8 85.56 130.98 85.268 131.204 85.044C131.428 84.812 131.676 84.644 131.948 84.54C132.22 84.428 132.496 84.372 132.776 84.372C133.032 84.372 133.26 84.412 133.46 84.492C133.668 84.572 133.848 84.684 134 84.828C134.16 84.964 134.284 85.128 134.372 85.32V82.02H135.164H135.284V82.104C135.236 82.152 135.204 82.204 135.188 82.26C135.18 82.316 135.176 82.412 135.176 82.548L135.188 89.148C135.188 89.292 135.192 89.436 135.2 89.58C135.216 89.716 135.252 89.856 135.308 90H134.456C134.416 89.904 134.388 89.808 134.372 89.712C134.356 89.616 134.344 89.524 134.336 89.436C134.336 89.34 134.336 89.244 134.336 89.148C134.224 89.34 134.088 89.512 133.928 89.664C133.768 89.808 133.588 89.92 133.388 90C133.188 90.08 132.968 90.12 132.728 90.12ZM132.86 89.364C133.124 89.364 133.348 89.312 133.532 89.208C133.716 89.096 133.864 88.944 133.976 88.752C134.088 88.552 134.168 88.324 134.216 88.068C134.272 87.804 134.3 87.524 134.3 87.228C134.3 86.82 134.248 86.456 134.144 86.136C134.04 85.808 133.876 85.552 133.652 85.368C133.428 85.176 133.14 85.08 132.788 85.08C132.548 85.08 132.332 85.128 132.14 85.224C131.956 85.312 131.8 85.444 131.672 85.62C131.552 85.796 131.46 86.008 131.396 86.256C131.332 86.496 131.3 86.768 131.3 87.072C131.3 87.528 131.36 87.928 131.48 88.272C131.6 88.616 131.776 88.884 132.008 89.076C132.24 89.268 132.524 89.364 132.86 89.364ZM138.944 90.12C138.544 90.12 138.18 90.06 137.852 89.94C137.524 89.812 137.24 89.628 137 89.388C136.768 89.148 136.588 88.852 136.46 88.5C136.332 88.14 136.268 87.732 136.268 87.276C136.268 86.812 136.332 86.4 136.46 86.04C136.596 85.68 136.776 85.38 137 85.14C137.232 84.892 137.5 84.704 137.804 84.576C138.116 84.448 138.444 84.384 138.788 84.384C139.1 84.384 139.392 84.436 139.664 84.54C139.936 84.644 140.172 84.804 140.372 85.02C140.572 85.228 140.728 85.496 140.84 85.824C140.96 86.152 141.02 86.54 141.02 86.988C141.02 87.052 141.016 87.12 141.008 87.192C141.008 87.256 141.004 87.32 140.996 87.384H137.096C137.112 87.736 137.172 88.044 137.276 88.308C137.38 88.564 137.516 88.776 137.684 88.944C137.852 89.104 138.044 89.224 138.26 89.304C138.484 89.384 138.72 89.424 138.968 89.424C139.16 89.424 139.34 89.404 139.508 89.364C139.676 89.316 139.832 89.248 139.976 89.16C140.128 89.064 140.264 88.948 140.384 88.812L140.864 89.28C140.712 89.464 140.536 89.62 140.336 89.748C140.144 89.876 139.932 89.968 139.7 90.024C139.468 90.088 139.216 90.12 138.944 90.12ZM137.132 86.712H140.144C140.144 86.456 140.108 86.228 140.036 86.028C139.972 85.82 139.876 85.644 139.748 85.5C139.628 85.348 139.48 85.236 139.304 85.164C139.136 85.084 138.944 85.044 138.728 85.044C138.536 85.044 138.352 85.076 138.176 85.14C138.008 85.204 137.852 85.308 137.708 85.452C137.564 85.588 137.44 85.76 137.336 85.968C137.24 86.176 137.172 86.424 137.132 86.712ZM142.868 84.516H143.768L143.732 86.112L143.624 85.932C143.672 85.684 143.756 85.464 143.876 85.272C143.996 85.08 144.14 84.92 144.308 84.792C144.476 84.656 144.66 84.556 144.86 84.492C145.06 84.42 145.268 84.384 145.484 84.384C145.772 84.384 146.036 84.436 146.276 84.54C146.524 84.636 146.744 84.784 146.936 84.984L146.552 85.656L146.504 85.764L146.42 85.716C146.404 85.652 146.38 85.592 146.348 85.536C146.316 85.48 146.248 85.412 146.144 85.332C146.016 85.252 145.896 85.2 145.784 85.176C145.68 85.144 145.56 85.128 145.424 85.128C145.224 85.128 145.024 85.168 144.824 85.248C144.624 85.32 144.44 85.436 144.272 85.596C144.112 85.756 143.984 85.96 143.888 86.208C143.792 86.456 143.744 86.752 143.744 87.096V90.012H142.868V84.516ZM149.588 92.016L149.18 91.656C149.404 91.448 149.588 91.224 149.732 90.984C149.884 90.744 149.96 90.548 149.96 90.396C149.96 90.316 149.928 90.24 149.864 90.168C149.808 90.104 149.736 90.04 149.648 89.976C149.568 89.912 149.496 89.84 149.432 89.76C149.376 89.672 149.348 89.576 149.348 89.472C149.348 89.272 149.412 89.104 149.54 88.968C149.676 88.832 149.848 88.764 150.056 88.764C150.264 88.764 150.452 88.856 150.62 89.04C150.788 89.224 150.872 89.464 150.872 89.76C150.872 89.92 150.844 90.084 150.788 90.252C150.74 90.428 150.66 90.608 150.548 90.792C150.444 90.984 150.312 91.18 150.152 91.38C149.992 91.588 149.804 91.8 149.588 92.016ZM33.944 98.2H32.756V97.516H33.944V97.06C33.944 96.572 34.028 96.172 34.196 95.86C34.372 95.548 34.612 95.32 34.916 95.176C35.22 95.024 35.568 94.948 35.96 94.948C36.304 94.948 36.624 95.012 36.92 95.14C37.224 95.26 37.476 95.448 37.676 95.704L37.22 96.34L37.148 96.436L37.076 96.388C37.068 96.324 37.052 96.26 37.028 96.196C37.004 96.132 36.948 96.052 36.86 95.956C36.732 95.844 36.604 95.764 36.476 95.716C36.348 95.668 36.184 95.644 35.984 95.644C35.752 95.644 35.544 95.692 35.36 95.788C35.176 95.876 35.032 96.024 34.928 96.232C34.824 96.432 34.772 96.708 34.772 97.06V97.516H36.572V98.2H34.772V103H33.944V98.2ZM41.024 103.12C40.624 103.12 40.26 103.06 39.932 102.94C39.604 102.812 39.32 102.628 39.08 102.388C38.848 102.148 38.668 101.852 38.54 101.5C38.412 101.14 38.348 100.732 38.348 100.276C38.348 99.812 38.412 99.4 38.54 99.04C38.676 98.68 38.856 98.38 39.08 98.14C39.312 97.892 39.58 97.704 39.884 97.576C40.196 97.448 40.524 97.384 40.868 97.384C41.18 97.384 41.472 97.436 41.744 97.54C42.016 97.644 42.252 97.804 42.452 98.02C42.652 98.228 42.808 98.496 42.92 98.824C43.04 99.152 43.1 99.54 43.1 99.988C43.1 100.052 43.096 100.12 43.088 100.192C43.088 100.256 43.084 100.32 43.076 100.384H39.176C39.192 100.736 39.252 101.044 39.356 101.308C39.46 101.564 39.596 101.776 39.764 101.944C39.932 102.104 40.124 102.224 40.34 102.304C40.564 102.384 40.8 102.424 41.048 102.424C41.24 102.424 41.42 102.404 41.588 102.364C41.756 102.316 41.912 102.248 42.056 102.16C42.208 102.064 42.344 101.948 42.464 101.812L42.944 102.28C42.792 102.464 42.616 102.62 42.416 102.748C42.224 102.876 42.012 102.968 41.78 103.024C41.548 103.088 41.296 103.12 41.024 103.12ZM39.212 99.712H42.224C42.224 99.456 42.188 99.228 42.116 99.028C42.052 98.82 41.956 98.644 41.828 98.5C41.708 98.348 41.56 98.236 41.384 98.164C41.216 98.084 41.024 98.044 40.808 98.044C40.616 98.044 40.432 98.076 40.256 98.14C40.088 98.204 39.932 98.308 39.788 98.452C39.644 98.588 39.52 98.76 39.416 98.968C39.32 99.176 39.252 99.424 39.212 99.712ZM43.976 103V97.516H44.768V98.056C44.856 97.92 44.956 97.804 45.068 97.708C45.188 97.604 45.316 97.524 45.452 97.468C45.596 97.412 45.74 97.384 45.884 97.384C46.044 97.384 46.192 97.42 46.328 97.492C46.464 97.556 46.576 97.648 46.664 97.768C46.76 97.888 46.824 98.028 46.856 98.188C46.928 98.028 47.024 97.888 47.144 97.768C47.272 97.648 47.416 97.556 47.576 97.492C47.744 97.42 47.916 97.384 48.092 97.384C48.276 97.384 48.436 97.42 48.572 97.492C48.708 97.564 48.82 97.664 48.908 97.792C48.996 97.912 49.06 98.06 49.1 98.236C49.14 98.404 49.156 98.588 49.148 98.788V103H48.356V99.112C48.356 98.776 48.332 98.532 48.284 98.38C48.244 98.228 48.184 98.132 48.104 98.092C48.024 98.044 47.936 98.02 47.84 98.02C47.688 98.02 47.544 98.092 47.408 98.236C47.28 98.372 47.172 98.544 47.084 98.752C47.004 98.96 46.964 99.168 46.964 99.376V103H46.16V99.184C46.16 98.728 46.116 98.424 46.028 98.272C45.948 98.12 45.792 98.044 45.56 98.044C45.472 98.044 45.38 98.076 45.284 98.14C45.196 98.196 45.112 98.28 45.032 98.392C44.952 98.496 44.888 98.628 44.84 98.788C44.792 98.948 44.768 99.132 44.768 99.34V103H43.976ZM51.812 103.132C51.188 103.132 50.708 102.992 50.372 102.712C50.036 102.424 49.868 102.06 49.868 101.62C49.868 101.324 49.94 101.06 50.084 100.828C50.228 100.588 50.424 100.388 50.672 100.228C50.928 100.06 51.224 99.932 51.56 99.844C51.896 99.756 52.252 99.712 52.628 99.712C52.764 99.712 52.9 99.716 53.036 99.724C53.18 99.724 53.328 99.732 53.48 99.748C53.64 99.756 53.804 99.772 53.972 99.796L53.996 100.456C53.852 100.432 53.704 100.416 53.552 100.408C53.408 100.392 53.264 100.38 53.12 100.372C52.976 100.364 52.836 100.36 52.7 100.36C52.412 100.36 52.148 100.384 51.908 100.432C51.668 100.48 51.46 100.552 51.284 100.648C51.108 100.744 50.972 100.868 50.876 101.02C50.78 101.172 50.732 101.356 50.732 101.572C50.732 101.74 50.76 101.884 50.816 102.004C50.88 102.116 50.964 102.208 51.068 102.28C51.172 102.344 51.292 102.392 51.428 102.424C51.572 102.456 51.728 102.472 51.896 102.472C52.208 102.472 52.484 102.424 52.724 102.328C52.972 102.224 53.18 102.076 53.348 101.884C53.524 101.692 53.656 101.456 53.744 101.176C53.832 100.896 53.876 100.576 53.876 100.216C53.876 99.672 53.812 99.248 53.684 98.944C53.556 98.64 53.364 98.424 53.108 98.296C52.86 98.168 52.54 98.104 52.148 98.104C51.884 98.104 51.624 98.156 51.368 98.26C51.112 98.356 50.88 98.508 50.672 98.716L50.252 98.164C50.508 97.908 50.804 97.716 51.14 97.588C51.476 97.46 51.832 97.396 52.208 97.396C52.568 97.396 52.896 97.44 53.192 97.528C53.488 97.616 53.74 97.764 53.948 97.972C54.164 98.172 54.328 98.444 54.44 98.788C54.56 99.132 54.62 99.564 54.62 100.084V103H53.684V102.16C53.58 102.36 53.452 102.524 53.3 102.652C53.156 102.78 53 102.88 52.832 102.952C52.664 103.016 52.492 103.06 52.316 103.084C52.14 103.116 51.972 103.132 51.812 103.132ZM55.988 103V102.304H57.608V95.716H56.06V95.02H58.484V102.304H60.092V103H55.988ZM64.064 103.12C63.664 103.12 63.3 103.06 62.972 102.94C62.644 102.812 62.36 102.628 62.12 102.388C61.888 102.148 61.708 101.852 61.58 101.5C61.452 101.14 61.388 100.732 61.388 100.276C61.388 99.812 61.452 99.4 61.58 99.04C61.716 98.68 61.896 98.38 62.12 98.14C62.352 97.892 62.62 97.704 62.924 97.576C63.236 97.448 63.564 97.384 63.908 97.384C64.22 97.384 64.512 97.436 64.784 97.54C65.056 97.644 65.292 97.804 65.492 98.02C65.692 98.228 65.848 98.496 65.96 98.824C66.08 99.152 66.14 99.54 66.14 99.988C66.14 100.052 66.136 100.12 66.128 100.192C66.128 100.256 66.124 100.32 66.116 100.384H62.216C62.232 100.736 62.292 101.044 62.396 101.308C62.5 101.564 62.636 101.776 62.804 101.944C62.972 102.104 63.164 102.224 63.38 102.304C63.604 102.384 63.84 102.424 64.088 102.424C64.28 102.424 64.46 102.404 64.628 102.364C64.796 102.316 64.952 102.248 65.096 102.16C65.248 102.064 65.384 101.948 65.504 101.812L65.984 102.28C65.832 102.464 65.656 102.62 65.456 102.748C65.264 102.876 65.052 102.968 64.82 103.024C64.588 103.088 64.336 103.12 64.064 103.12ZM62.252 99.712H65.264C65.264 99.456 65.228 99.228 65.156 99.028C65.092 98.82 64.996 98.644 64.868 98.5C64.748 98.348 64.6 98.236 64.424 98.164C64.256 98.084 64.064 98.044 63.848 98.044C63.656 98.044 63.472 98.076 63.296 98.14C63.128 98.204 62.972 98.308 62.828 98.452C62.684 98.588 62.56 98.76 62.456 98.968C62.36 99.176 62.292 99.424 62.252 99.712ZM74.972 103.132C74.756 103.132 74.552 103.1 74.36 103.036C74.168 102.972 73.992 102.876 73.832 102.748C73.68 102.612 73.548 102.444 73.436 102.244C73.324 102.044 73.236 101.804 73.172 101.524C73.116 101.244 73.088 100.928 73.088 100.576L73.1 97.516H73.94V100.576C73.94 100.92 73.972 101.212 74.036 101.452C74.1 101.692 74.188 101.884 74.3 102.028C74.42 102.172 74.556 102.276 74.708 102.34C74.86 102.404 75.02 102.436 75.188 102.436C75.38 102.436 75.564 102.4 75.74 102.328C75.916 102.248 76.072 102.132 76.208 101.98C76.352 101.828 76.464 101.632 76.544 101.392C76.624 101.152 76.664 100.868 76.664 100.54V97.516H77.504V102.148C77.504 102.292 77.508 102.436 77.516 102.58C77.532 102.716 77.568 102.856 77.624 103H76.796C76.756 102.904 76.728 102.812 76.712 102.724C76.696 102.628 76.684 102.532 76.676 102.436C76.676 102.34 76.676 102.248 76.676 102.16C76.588 102.312 76.484 102.448 76.364 102.568C76.244 102.688 76.108 102.792 75.956 102.88C75.812 102.96 75.656 103.02 75.488 103.06C75.328 103.108 75.156 103.132 74.972 103.132ZM81.092 103.12C80.788 103.12 80.496 103.088 80.216 103.024C79.944 102.96 79.684 102.864 79.436 102.736C79.196 102.608 78.972 102.448 78.764 102.256L79.244 101.44L79.316 101.332L79.388 101.38C79.404 101.444 79.42 101.512 79.436 101.584C79.46 101.648 79.516 101.728 79.604 101.824C79.772 101.992 79.972 102.132 80.204 102.244C80.444 102.348 80.748 102.4 81.116 102.4C81.412 102.4 81.66 102.364 81.86 102.292C82.068 102.22 82.228 102.12 82.34 101.992C82.452 101.856 82.508 101.7 82.508 101.524C82.508 101.404 82.484 101.3 82.436 101.212C82.388 101.116 82.308 101.028 82.196 100.948C82.092 100.868 81.952 100.788 81.776 100.708C81.6 100.628 81.384 100.548 81.128 100.468C80.712 100.348 80.348 100.208 80.036 100.048C79.724 99.888 79.484 99.704 79.316 99.496C79.148 99.28 79.064 99.036 79.064 98.764C79.064 98.484 79.14 98.244 79.292 98.044C79.444 97.836 79.668 97.676 79.964 97.564C80.268 97.444 80.64 97.384 81.08 97.384C81.336 97.384 81.568 97.404 81.776 97.444C81.984 97.476 82.176 97.528 82.352 97.6C82.528 97.672 82.688 97.764 82.832 97.876C82.984 97.98 83.128 98.104 83.264 98.248L82.772 98.848L82.688 98.944L82.628 98.884C82.62 98.82 82.6 98.76 82.568 98.704C82.544 98.64 82.488 98.564 82.4 98.476C82.216 98.332 82.008 98.224 81.776 98.152C81.544 98.072 81.32 98.032 81.104 98.032C80.784 98.032 80.508 98.088 80.276 98.2C80.044 98.312 79.928 98.484 79.928 98.716C79.928 98.836 79.968 98.956 80.048 99.076C80.136 99.188 80.292 99.304 80.516 99.424C80.74 99.536 81.06 99.652 81.476 99.772C81.932 99.916 82.296 100.064 82.568 100.216C82.848 100.36 83.048 100.528 83.168 100.72C83.296 100.912 83.36 101.14 83.36 101.404C83.36 101.708 83.276 101.992 83.108 102.256C82.948 102.52 82.7 102.732 82.364 102.892C82.028 103.044 81.604 103.12 81.092 103.12ZM87.104 103.12C86.704 103.12 86.34 103.06 86.012 102.94C85.684 102.812 85.4 102.628 85.16 102.388C84.928 102.148 84.748 101.852 84.62 101.5C84.492 101.14 84.428 100.732 84.428 100.276C84.428 99.812 84.492 99.4 84.62 99.04C84.756 98.68 84.936 98.38 85.16 98.14C85.392 97.892 85.66 97.704 85.964 97.576C86.276 97.448 86.604 97.384 86.948 97.384C87.26 97.384 87.552 97.436 87.824 97.54C88.096 97.644 88.332 97.804 88.532 98.02C88.732 98.228 88.888 98.496 89 98.824C89.12 99.152 89.18 99.54 89.18 99.988C89.18 100.052 89.176 100.12 89.168 100.192C89.168 100.256 89.164 100.32 89.156 100.384H85.256C85.272 100.736 85.332 101.044 85.436 101.308C85.54 101.564 85.676 101.776 85.844 101.944C86.012 102.104 86.204 102.224 86.42 102.304C86.644 102.384 86.88 102.424 87.128 102.424C87.32 102.424 87.5 102.404 87.668 102.364C87.836 102.316 87.992 102.248 88.136 102.16C88.288 102.064 88.424 101.948 88.544 101.812L89.024 102.28C88.872 102.464 88.696 102.62 88.496 102.748C88.304 102.876 88.092 102.968 87.86 103.024C87.628 103.088 87.376 103.12 87.104 103.12ZM85.292 99.712H88.304C88.304 99.456 88.268 99.228 88.196 99.028C88.132 98.82 88.036 98.644 87.908 98.5C87.788 98.348 87.64 98.236 87.464 98.164C87.296 98.084 87.104 98.044 86.888 98.044C86.696 98.044 86.512 98.076 86.336 98.14C86.168 98.204 86.012 98.308 85.868 98.452C85.724 98.588 85.6 98.76 85.496 98.968C85.4 99.176 85.332 99.424 85.292 99.712ZM91.028 97.516H91.928L91.892 99.112L91.784 98.932C91.832 98.684 91.916 98.464 92.036 98.272C92.156 98.08 92.3 97.92 92.468 97.792C92.636 97.656 92.82 97.556 93.02 97.492C93.22 97.42 93.428 97.384 93.644 97.384C93.932 97.384 94.196 97.436 94.436 97.54C94.684 97.636 94.904 97.784 95.096 97.984L94.712 98.656L94.664 98.764L94.58 98.716C94.564 98.652 94.54 98.592 94.508 98.536C94.476 98.48 94.408 98.412 94.304 98.332C94.176 98.252 94.056 98.2 93.944 98.176C93.84 98.144 93.72 98.128 93.584 98.128C93.384 98.128 93.184 98.168 92.984 98.248C92.784 98.32 92.6 98.436 92.432 98.596C92.272 98.756 92.144 98.96 92.048 99.208C91.952 99.456 91.904 99.752 91.904 100.096V103.012H91.028V97.516ZM98.372 103.12C98.068 103.12 97.776 103.088 97.496 103.024C97.224 102.96 96.964 102.864 96.716 102.736C96.476 102.608 96.252 102.448 96.044 102.256L96.524 101.44L96.596 101.332L96.668 101.38C96.684 101.444 96.7 101.512 96.716 101.584C96.74 101.648 96.796 101.728 96.884 101.824C97.052 101.992 97.252 102.132 97.484 102.244C97.724 102.348 98.028 102.4 98.396 102.4C98.692 102.4 98.94 102.364 99.14 102.292C99.348 102.22 99.508 102.12 99.62 101.992C99.732 101.856 99.788 101.7 99.788 101.524C99.788 101.404 99.764 101.3 99.716 101.212C99.668 101.116 99.588 101.028 99.476 100.948C99.372 100.868 99.232 100.788 99.056 100.708C98.88 100.628 98.664 100.548 98.408 100.468C97.992 100.348 97.628 100.208 97.316 100.048C97.004 99.888 96.764 99.704 96.596 99.496C96.428 99.28 96.344 99.036 96.344 98.764C96.344 98.484 96.42 98.244 96.572 98.044C96.724 97.836 96.948 97.676 97.244 97.564C97.548 97.444 97.92 97.384 98.36 97.384C98.616 97.384 98.848 97.404 99.056 97.444C99.264 97.476 99.456 97.528 99.632 97.6C99.808 97.672 99.968 97.764 100.112 97.876C100.264 97.98 100.408 98.104 100.544 98.248L100.052 98.848L99.968 98.944L99.908 98.884C99.9 98.82 99.88 98.76 99.848 98.704C99.824 98.64 99.768 98.564 99.68 98.476C99.496 98.332 99.288 98.224 99.056 98.152C98.824 98.072 98.6 98.032 98.384 98.032C98.064 98.032 97.788 98.088 97.556 98.2C97.324 98.312 97.208 98.484 97.208 98.716C97.208 98.836 97.248 98.956 97.328 99.076C97.416 99.188 97.572 99.304 97.796 99.424C98.02 99.536 98.34 99.652 98.756 99.772C99.212 99.916 99.576 100.064 99.848 100.216C100.128 100.36 100.328 100.528 100.448 100.72C100.576 100.912 100.64 101.14 100.64 101.404C100.64 101.708 100.556 101.992 100.388 102.256C100.228 102.52 99.98 102.732 99.644 102.892C99.308 103.044 98.884 103.12 98.372 103.12ZM110.468 103.084C110.116 103.084 109.828 103.024 109.604 102.904C109.38 102.784 109.208 102.6 109.088 102.352C108.968 102.096 108.888 101.776 108.848 101.392C108.816 101.008 108.808 100.552 108.824 100.024L108.968 96.112L109.868 96.004L109.988 95.992L110 96.076C109.96 96.132 109.924 96.188 109.892 96.244C109.868 96.3 109.848 96.396 109.832 96.532L109.724 97.888L109.76 98.104L109.676 100.084C109.652 100.692 109.668 101.164 109.724 101.5C109.78 101.828 109.88 102.056 110.024 102.184C110.168 102.304 110.36 102.364 110.6 102.364C110.864 102.364 111.096 102.312 111.296 102.208C111.504 102.104 111.72 101.972 111.944 101.812L112.208 102.496C111.936 102.696 111.656 102.844 111.368 102.94C111.08 103.036 110.78 103.084 110.468 103.084ZM107.72 97.516H111.668V98.224H107.72V97.516ZM113.516 95.02H114.344H114.464V95.104C114.416 95.152 114.384 95.204 114.368 95.26C114.36 95.316 114.356 95.412 114.356 95.548V98.488C114.5 98.264 114.668 98.072 114.86 97.912C115.06 97.744 115.268 97.616 115.484 97.528C115.708 97.432 115.932 97.384 116.156 97.384C116.484 97.384 116.772 97.46 117.02 97.612C117.276 97.764 117.472 98.008 117.608 98.344C117.752 98.68 117.824 99.124 117.824 99.676V103H116.984V99.7C116.984 99.316 116.94 99.012 116.852 98.788C116.764 98.556 116.644 98.392 116.492 98.296C116.34 98.192 116.168 98.14 115.976 98.14C115.832 98.14 115.684 98.164 115.532 98.212C115.38 98.26 115.232 98.332 115.088 98.428C114.952 98.524 114.828 98.644 114.716 98.788C114.604 98.924 114.516 99.08 114.452 99.256C114.388 99.432 114.356 99.628 114.356 99.844V103H113.516V95.02ZM120.932 103.132C120.308 103.132 119.828 102.992 119.492 102.712C119.156 102.424 118.988 102.06 118.988 101.62C118.988 101.324 119.06 101.06 119.204 100.828C119.348 100.588 119.544 100.388 119.792 100.228C120.048 100.06 120.344 99.932 120.68 99.844C121.016 99.756 121.372 99.712 121.748 99.712C121.884 99.712 122.02 99.716 122.156 99.724C122.3 99.724 122.448 99.732 122.6 99.748C122.76 99.756 122.924 99.772 123.092 99.796L123.116 100.456C122.972 100.432 122.824 100.416 122.672 100.408C122.528 100.392 122.384 100.38 122.24 100.372C122.096 100.364 121.956 100.36 121.82 100.36C121.532 100.36 121.268 100.384 121.028 100.432C120.788 100.48 120.58 100.552 120.404 100.648C120.228 100.744 120.092 100.868 119.996 101.02C119.9 101.172 119.852 101.356 119.852 101.572C119.852 101.74 119.88 101.884 119.936 102.004C120 102.116 120.084 102.208 120.188 102.28C120.292 102.344 120.412 102.392 120.548 102.424C120.692 102.456 120.848 102.472 121.016 102.472C121.328 102.472 121.604 102.424 121.844 102.328C122.092 102.224 122.3 102.076 122.468 101.884C122.644 101.692 122.776 101.456 122.864 101.176C122.952 100.896 122.996 100.576 122.996 100.216C122.996 99.672 122.932 99.248 122.804 98.944C122.676 98.64 122.484 98.424 122.228 98.296C121.98 98.168 121.66 98.104 121.268 98.104C121.004 98.104 120.744 98.156 120.488 98.26C120.232 98.356 120 98.508 119.792 98.716L119.372 98.164C119.628 97.908 119.924 97.716 120.26 97.588C120.596 97.46 120.952 97.396 121.328 97.396C121.688 97.396 122.016 97.44 122.312 97.528C122.608 97.616 122.86 97.764 123.068 97.972C123.284 98.172 123.448 98.444 123.56 98.788C123.68 99.132 123.74 99.564 123.74 100.084V103H122.804V102.16C122.7 102.36 122.572 102.524 122.42 102.652C122.276 102.78 122.12 102.88 121.952 102.952C121.784 103.016 121.612 103.06 121.436 103.084C121.26 103.116 121.092 103.132 120.932 103.132ZM127.748 103.084C127.396 103.084 127.108 103.024 126.884 102.904C126.66 102.784 126.488 102.6 126.368 102.352C126.248 102.096 126.168 101.776 126.128 101.392C126.096 101.008 126.088 100.552 126.104 100.024L126.248 96.112L127.148 96.004L127.268 95.992L127.28 96.076C127.24 96.132 127.204 96.188 127.172 96.244C127.148 96.3 127.128 96.396 127.112 96.532L127.004 97.888L127.04 98.104L126.956 100.084C126.932 100.692 126.948 101.164 127.004 101.5C127.06 101.828 127.16 102.056 127.304 102.184C127.448 102.304 127.64 102.364 127.88 102.364C128.144 102.364 128.376 102.312 128.576 102.208C128.784 102.104 129 101.972 129.224 101.812L129.488 102.496C129.216 102.696 128.936 102.844 128.648 102.94C128.36 103.036 128.06 103.084 127.748 103.084ZM125 97.516H128.948V98.224H125V97.516ZM136.628 103V102.304H138.248V95.716H136.7V95.02H139.124V102.304H140.732V103H136.628ZM142.64 103V102.304H144.044V98.212H142.712V97.516H144.908V102.304H146.192V103H142.64ZM144.428 96.364C144.26 96.364 144.116 96.304 143.996 96.184C143.876 96.064 143.816 95.92 143.816 95.752C143.816 95.576 143.872 95.428 143.984 95.308C144.104 95.188 144.252 95.128 144.428 95.128C144.596 95.128 144.74 95.192 144.86 95.32C144.988 95.44 145.052 95.584 145.052 95.752C145.052 95.92 144.988 96.064 144.86 96.184C144.74 96.304 144.596 96.364 144.428 96.364ZM149.852 103L147.68 97.516H148.544L150.32 102.016H150.152L151.124 99.784C151.316 99.344 151.468 98.936 151.58 98.56C151.7 98.184 151.788 97.836 151.844 97.516H152.66C152.596 97.852 152.496 98.22 152.36 98.62C152.224 99.02 152.056 99.452 151.856 99.916L150.524 103H149.852ZM156.224 103.12C155.824 103.12 155.46 103.06 155.132 102.94C154.804 102.812 154.52 102.628 154.28 102.388C154.048 102.148 153.868 101.852 153.74 101.5C153.612 101.14 153.548 100.732 153.548 100.276C153.548 99.812 153.612 99.4 153.74 99.04C153.876 98.68 154.056 98.38 154.28 98.14C154.512 97.892 154.78 97.704 155.084 97.576C155.396 97.448 155.724 97.384 156.068 97.384C156.38 97.384 156.672 97.436 156.944 97.54C157.216 97.644 157.452 97.804 157.652 98.02C157.852 98.228 158.008 98.496 158.12 98.824C158.24 99.152 158.3 99.54 158.3 99.988C158.3 100.052 158.296 100.12 158.288 100.192C158.288 100.256 158.284 100.32 158.276 100.384H154.376C154.392 100.736 154.452 101.044 154.556 101.308C154.66 101.564 154.796 101.776 154.964 101.944C155.132 102.104 155.324 102.224 155.54 102.304C155.764 102.384 156 102.424 156.248 102.424C156.44 102.424 156.62 102.404 156.788 102.364C156.956 102.316 157.112 102.248 157.256 102.16C157.408 102.064 157.544 101.948 157.664 101.812L158.144 102.28C157.992 102.464 157.816 102.62 157.616 102.748C157.424 102.876 157.212 102.968 156.98 103.024C156.748 103.088 156.496 103.12 156.224 103.12ZM154.412 99.712H157.424C157.424 99.456 157.388 99.228 157.316 99.028C157.252 98.82 157.156 98.644 157.028 98.5C156.908 98.348 156.76 98.236 156.584 98.164C156.416 98.084 156.224 98.044 156.008 98.044C155.816 98.044 155.632 98.076 155.456 98.14C155.288 98.204 155.132 98.308 154.988 98.452C154.844 98.588 154.72 98.76 154.616 98.968C154.52 99.176 154.452 99.424 154.412 99.712ZM33.2 116V115.304H34.604V111.212H33.272V110.516H35.468V115.304H36.752V116H33.2ZM34.988 109.364C34.82 109.364 34.676 109.304 34.556 109.184C34.436 109.064 34.376 108.92 34.376 108.752C34.376 108.576 34.432 108.428 34.544 108.308C34.664 108.188 34.812 108.128 34.988 108.128C35.156 108.128 35.3 108.192 35.42 108.32C35.548 108.44 35.612 108.584 35.612 108.752C35.612 108.92 35.548 109.064 35.42 109.184C35.3 109.304 35.156 109.364 34.988 109.364ZM38.624 116V110.516H39.464V111.488C39.608 111.264 39.776 111.072 39.968 110.912C40.16 110.744 40.372 110.616 40.604 110.528C40.836 110.432 41.076 110.384 41.324 110.384C41.628 110.384 41.9 110.46 42.14 110.612C42.38 110.764 42.572 111.008 42.716 111.344C42.86 111.68 42.932 112.124 42.932 112.676V116H42.092V112.7C42.092 112.316 42.048 112.012 41.96 111.788C41.872 111.556 41.752 111.392 41.6 111.296C41.448 111.192 41.276 111.14 41.084 111.14C40.9 111.14 40.712 111.18 40.52 111.26C40.336 111.34 40.164 111.456 40.004 111.608C39.844 111.752 39.712 111.928 39.608 112.136C39.512 112.344 39.464 112.58 39.464 112.844V116H38.624ZM52.7 116.12C52.292 116.12 51.912 116.048 51.56 115.904C51.208 115.752 50.896 115.52 50.624 115.208C50.36 114.896 50.152 114.5 50 114.02C49.848 113.54 49.772 112.968 49.772 112.304C49.772 111.72 49.828 111.212 49.94 110.78C50.052 110.34 50.204 109.972 50.396 109.676C50.588 109.38 50.808 109.144 51.056 108.968C51.304 108.792 51.564 108.664 51.836 108.584C52.108 108.504 52.38 108.464 52.652 108.464C53.196 108.464 53.66 108.6 54.044 108.872C54.428 109.136 54.716 109.492 54.908 109.94L54.188 110.276L54.08 110.324L54.044 110.24C54.068 110.176 54.068 110.12 54.044 110.072C54.02 110.016 53.976 109.932 53.912 109.82C53.712 109.548 53.504 109.368 53.288 109.28C53.08 109.184 52.86 109.136 52.628 109.136C52.316 109.136 52.032 109.208 51.776 109.352C51.528 109.488 51.312 109.692 51.128 109.964C50.952 110.228 50.816 110.552 50.72 110.936C50.632 111.32 50.588 111.756 50.588 112.244C50.588 112.716 50.64 113.144 50.744 113.528C50.856 113.912 51.004 114.244 51.188 114.524C51.38 114.804 51.6 115.02 51.848 115.172C52.104 115.324 52.376 115.4 52.664 115.4C52.864 115.4 53.056 115.364 53.24 115.292C53.432 115.22 53.608 115.116 53.768 114.98C53.928 114.836 54.064 114.672 54.176 114.488L54.8 114.896C54.56 115.296 54.272 115.6 53.936 115.808C53.6 116.016 53.188 116.12 52.7 116.12ZM57.572 116.132C56.948 116.132 56.468 115.992 56.132 115.712C55.796 115.424 55.628 115.06 55.628 114.62C55.628 114.324 55.7 114.06 55.844 113.828C55.988 113.588 56.184 113.388 56.432 113.228C56.688 113.06 56.984 112.932 57.32 112.844C57.656 112.756 58.012 112.712 58.388 112.712C58.524 112.712 58.66 112.716 58.796 112.724C58.94 112.724 59.088 112.732 59.24 112.748C59.4 112.756 59.564 112.772 59.732 112.796L59.756 113.456C59.612 113.432 59.464 113.416 59.312 113.408C59.168 113.392 59.024 113.38 58.88 113.372C58.736 113.364 58.596 113.36 58.46 113.36C58.172 113.36 57.908 113.384 57.668 113.432C57.428 113.48 57.22 113.552 57.044 113.648C56.868 113.744 56.732 113.868 56.636 114.02C56.54 114.172 56.492 114.356 56.492 114.572C56.492 114.74 56.52 114.884 56.576 115.004C56.64 115.116 56.724 115.208 56.828 115.28C56.932 115.344 57.052 115.392 57.188 115.424C57.332 115.456 57.488 115.472 57.656 115.472C57.968 115.472 58.244 115.424 58.484 115.328C58.732 115.224 58.94 115.076 59.108 114.884C59.284 114.692 59.416 114.456 59.504 114.176C59.592 113.896 59.636 113.576 59.636 113.216C59.636 112.672 59.572 112.248 59.444 111.944C59.316 111.64 59.124 111.424 58.868 111.296C58.62 111.168 58.3 111.104 57.908 111.104C57.644 111.104 57.384 111.156 57.128 111.26C56.872 111.356 56.64 111.508 56.432 111.716L56.012 111.164C56.268 110.908 56.564 110.716 56.9 110.588C57.236 110.46 57.592 110.396 57.968 110.396C58.328 110.396 58.656 110.44 58.952 110.528C59.248 110.616 59.5 110.764 59.708 110.972C59.924 111.172 60.088 111.444 60.2 111.788C60.32 112.132 60.38 112.564 60.38 113.084V116H59.444V115.16C59.34 115.36 59.212 115.524 59.06 115.652C58.916 115.78 58.76 115.88 58.592 115.952C58.424 116.016 58.252 116.06 58.076 116.084C57.9 116.116 57.732 116.132 57.572 116.132ZM61.748 116V115.304H63.368V108.716H61.82V108.02H64.244V115.304H65.852V116H61.748ZM67.76 116V115.304H69.164V111.212H67.832V110.516H70.028V115.304H71.312V116H67.76ZM69.548 109.364C69.38 109.364 69.236 109.304 69.116 109.184C68.996 109.064 68.936 108.92 68.936 108.752C68.936 108.576 68.992 108.428 69.104 108.308C69.224 108.188 69.372 108.128 69.548 108.128C69.716 108.128 69.86 108.192 69.98 108.32C70.108 108.44 70.172 108.584 70.172 108.752C70.172 108.92 70.108 109.064 69.98 109.184C69.86 109.304 69.716 109.364 69.548 109.364ZM74.264 111.2H73.076V110.516H74.264V110.06C74.264 109.572 74.348 109.172 74.516 108.86C74.692 108.548 74.932 108.32 75.236 108.176C75.54 108.024 75.888 107.948 76.28 107.948C76.624 107.948 76.944 108.012 77.24 108.14C77.544 108.26 77.796 108.448 77.996 108.704L77.54 109.34L77.468 109.436L77.396 109.388C77.388 109.324 77.372 109.26 77.348 109.196C77.324 109.132 77.268 109.052 77.18 108.956C77.052 108.844 76.924 108.764 76.796 108.716C76.668 108.668 76.504 108.644 76.304 108.644C76.072 108.644 75.864 108.692 75.68 108.788C75.496 108.876 75.352 109.024 75.248 109.232C75.144 109.432 75.092 109.708 75.092 110.06V110.516H76.892V111.2H75.092V116H74.264V111.2ZM81.08 116.096C80.584 116.096 80.144 115.976 79.76 115.736C79.384 115.488 79.088 115.152 78.872 114.728C78.656 114.296 78.548 113.804 78.548 113.252C78.548 112.692 78.656 112.2 78.872 111.776C79.088 111.344 79.384 111.008 79.76 110.768C80.144 110.52 80.584 110.396 81.08 110.396C81.576 110.396 82.012 110.52 82.388 110.768C82.772 111.008 83.072 111.344 83.288 111.776C83.504 112.2 83.612 112.692 83.612 113.252C83.612 113.804 83.504 114.296 83.288 114.728C83.072 115.152 82.772 115.488 82.388 115.736C82.012 115.976 81.576 116.096 81.08 116.096ZM81.08 115.376C81.4 115.376 81.68 115.284 81.92 115.1C82.16 114.916 82.348 114.664 82.484 114.344C82.628 114.024 82.7 113.656 82.7 113.24C82.7 112.824 82.628 112.456 82.484 112.136C82.348 111.816 82.16 111.568 81.92 111.392C81.68 111.208 81.4 111.116 81.08 111.116C80.768 111.116 80.488 111.208 80.24 111.392C80 111.568 79.808 111.816 79.664 112.136C79.528 112.456 79.46 112.824 79.46 113.24C79.46 113.656 79.528 114.024 79.664 114.344C79.808 114.664 80 114.916 80.24 115.1C80.488 115.284 80.768 115.376 81.08 115.376ZM85.268 110.516H86.168L86.132 112.112L86.024 111.932C86.072 111.684 86.156 111.464 86.276 111.272C86.396 111.08 86.54 110.92 86.708 110.792C86.876 110.656 87.06 110.556 87.26 110.492C87.46 110.42 87.668 110.384 87.884 110.384C88.172 110.384 88.436 110.436 88.676 110.54C88.924 110.636 89.144 110.784 89.336 110.984L88.952 111.656L88.904 111.764L88.82 111.716C88.804 111.652 88.78 111.592 88.748 111.536C88.716 111.48 88.648 111.412 88.544 111.332C88.416 111.252 88.296 111.2 88.184 111.176C88.08 111.144 87.96 111.128 87.824 111.128C87.624 111.128 87.424 111.168 87.224 111.248C87.024 111.32 86.84 111.436 86.672 111.596C86.512 111.756 86.384 111.96 86.288 112.208C86.192 112.456 86.144 112.752 86.144 113.096V116.012H85.268V110.516ZM90.464 116V110.516H91.304V111.488C91.448 111.264 91.616 111.072 91.808 110.912C92 110.744 92.212 110.616 92.444 110.528C92.676 110.432 92.916 110.384 93.164 110.384C93.468 110.384 93.74 110.46 93.98 110.612C94.22 110.764 94.412 111.008 94.556 111.344C94.7 111.68 94.772 112.124 94.772 112.676V116H93.932V112.7C93.932 112.316 93.888 112.012 93.8 111.788C93.712 111.556 93.592 111.392 93.44 111.296C93.288 111.192 93.116 111.14 92.924 111.14C92.74 111.14 92.552 111.18 92.36 111.26C92.176 111.34 92.004 111.456 91.844 111.608C91.684 111.752 91.552 111.928 91.448 112.136C91.352 112.344 91.304 112.58 91.304 112.844V116H90.464ZM96.56 116V115.304H97.964V111.212H96.632V110.516H98.828V115.304H100.112V116H96.56ZM98.348 109.364C98.18 109.364 98.036 109.304 97.916 109.184C97.796 109.064 97.736 108.92 97.736 108.752C97.736 108.576 97.792 108.428 97.904 108.308C98.024 108.188 98.172 108.128 98.348 108.128C98.516 108.128 98.66 108.192 98.78 108.32C98.908 108.44 98.972 108.584 98.972 108.752C98.972 108.92 98.908 109.064 98.78 109.184C98.66 109.304 98.516 109.364 98.348 109.364ZM103.652 116.132C103.028 116.132 102.548 115.992 102.212 115.712C101.876 115.424 101.708 115.06 101.708 114.62C101.708 114.324 101.78 114.06 101.924 113.828C102.068 113.588 102.264 113.388 102.512 113.228C102.768 113.06 103.064 112.932 103.4 112.844C103.736 112.756 104.092 112.712 104.468 112.712C104.604 112.712 104.74 112.716 104.876 112.724C105.02 112.724 105.168 112.732 105.32 112.748C105.48 112.756 105.644 112.772 105.812 112.796L105.836 113.456C105.692 113.432 105.544 113.416 105.392 113.408C105.248 113.392 105.104 113.38 104.96 113.372C104.816 113.364 104.676 113.36 104.54 113.36C104.252 113.36 103.988 113.384 103.748 113.432C103.508 113.48 103.3 113.552 103.124 113.648C102.948 113.744 102.812 113.868 102.716 114.02C102.62 114.172 102.572 114.356 102.572 114.572C102.572 114.74 102.6 114.884 102.656 115.004C102.72 115.116 102.804 115.208 102.908 115.28C103.012 115.344 103.132 115.392 103.268 115.424C103.412 115.456 103.568 115.472 103.736 115.472C104.048 115.472 104.324 115.424 104.564 115.328C104.812 115.224 105.02 115.076 105.188 114.884C105.364 114.692 105.496 114.456 105.584 114.176C105.672 113.896 105.716 113.576 105.716 113.216C105.716 112.672 105.652 112.248 105.524 111.944C105.396 111.64 105.204 111.424 104.948 111.296C104.7 111.168 104.38 111.104 103.988 111.104C103.724 111.104 103.464 111.156 103.208 111.26C102.952 111.356 102.72 111.508 102.512 111.716L102.092 111.164C102.348 110.908 102.644 110.716 102.98 110.588C103.316 110.46 103.672 110.396 104.048 110.396C104.408 110.396 104.736 110.44 105.032 110.528C105.328 110.616 105.58 110.764 105.788 110.972C106.004 111.172 106.168 111.444 106.28 111.788C106.4 112.132 106.46 112.564 106.46 113.084V116H105.524V115.16C105.42 115.36 105.292 115.524 105.14 115.652C104.996 115.78 104.84 115.88 104.672 115.952C104.504 116.016 104.332 116.06 104.156 116.084C103.98 116.116 103.812 116.132 103.652 116.132ZM109.736 116.132C109.544 116.132 109.38 116.064 109.244 115.928C109.108 115.792 109.04 115.632 109.04 115.448C109.04 115.264 109.108 115.104 109.244 114.968C109.38 114.832 109.544 114.764 109.736 114.764C109.92 114.764 110.08 114.832 110.216 114.968C110.352 115.104 110.42 115.264 110.42 115.448C110.42 115.632 110.352 115.792 110.216 115.928C110.08 116.064 109.92 116.132 109.736 116.132Z" fill="white"/>
<g filter="url(#filter0_d_4657_1373)">
<rect x="4" width="200" height="33" rx="6" fill="#323235"/>
<rect x="4.5" y="0.5" width="199" height="32" rx="5.5" stroke="#4D4D4D"/>
</g>
<path d="M59.68 21V12.408L57.664 13L57.408 12.376L60.016 11.016H60.8V21H59.68ZM65.392 18.536L69.664 13.048L70.032 13.8L65.76 19.224L65.392 18.536ZM67.68 21.176C67.0187 21.176 66.4587 20.9787 66 20.584C65.5413 20.1893 65.1893 19.6133 64.944 18.856C64.7093 18.088 64.592 17.16 64.592 16.072C64.592 15.016 64.7093 14.1093 64.944 13.352C65.1893 12.584 65.5413 11.9973 66 11.592C66.4587 11.176 67.0187 10.968 67.68 10.968C68.3413 10.968 68.9013 11.176 69.36 11.592C69.8187 11.9973 70.1653 12.584 70.4 13.352C70.6453 14.1093 70.768 15.016 70.768 16.072C70.768 17.16 70.6453 18.088 70.4 18.856C70.1653 19.6133 69.8187 20.1893 69.36 20.584C68.9013 20.9787 68.3413 21.176 67.68 21.176ZM67.68 20.2C68.0853 20.2 68.432 20.04 68.72 19.72C69.008 19.4 69.2267 18.936 69.376 18.328C69.536 17.7093 69.616 16.9573 69.616 16.072C69.616 15.2293 69.536 14.504 69.376 13.896C69.2267 13.2773 69.008 12.7973 68.72 12.456C68.432 12.1147 68.0853 11.944 67.68 11.944C67.2747 11.944 66.928 12.1147 66.64 12.456C66.352 12.7973 66.128 13.2773 65.968 13.896C65.8187 14.504 65.744 15.2293 65.744 16.072C65.744 16.9573 65.8187 17.7093 65.968 18.328C66.128 18.936 66.352 19.4 66.64 19.72C66.928 20.04 67.2747 20.2 67.68 20.2ZM73.072 18.536L77.344 13.048L77.712 13.8L73.44 19.224L73.072 18.536ZM75.36 21.176C74.6987 21.176 74.1387 20.9787 73.68 20.584C73.2213 20.1893 72.8693 19.6133 72.624 18.856C72.3893 18.088 72.272 17.16 72.272 16.072C72.272 15.016 72.3893 14.1093 72.624 13.352C72.8693 12.584 73.2213 11.9973 73.68 11.592C74.1387 11.176 74.6987 10.968 75.36 10.968C76.0213 10.968 76.5813 11.176 77.04 11.592C77.4987 11.9973 77.8453 12.584 78.08 13.352C78.3253 14.1093 78.448 15.016 78.448 16.072C78.448 17.16 78.3253 18.088 78.08 18.856C77.8453 19.6133 77.4987 20.1893 77.04 20.584C76.5813 20.9787 76.0213 21.176 75.36 21.176ZM75.36 20.2C75.7653 20.2 76.112 20.04 76.4 19.72C76.688 19.4 76.9067 18.936 77.056 18.328C77.216 17.7093 77.296 16.9573 77.296 16.072C77.296 15.2293 77.216 14.504 77.056 13.896C76.9067 13.2773 76.688 12.7973 76.4 12.456C76.112 12.1147 75.7653 11.944 75.36 11.944C74.9547 11.944 74.608 12.1147 74.32 12.456C74.032 12.7973 73.808 13.2773 73.648 13.896C73.4987 14.504 73.424 15.2293 73.424 16.072C73.424 16.9573 73.4987 17.7093 73.648 18.328C73.808 18.936 74.032 19.4 74.32 19.72C74.608 20.04 74.9547 20.2 75.36 20.2ZM80.752 18.536L85.024 13.048L85.392 13.8L81.12 19.224L80.752 18.536ZM83.04 21.176C82.3787 21.176 81.8187 20.9787 81.36 20.584C80.9013 20.1893 80.5493 19.6133 80.304 18.856C80.0693 18.088 79.952 17.16 79.952 16.072C79.952 15.016 80.0693 14.1093 80.304 13.352C80.5493 12.584 80.9013 11.9973 81.36 11.592C81.8187 11.176 82.3787 10.968 83.04 10.968C83.7013 10.968 84.2613 11.176 84.72 11.592C85.1787 11.9973 85.5253 12.584 85.76 13.352C86.0053 14.1093 86.128 15.016 86.128 16.072C86.128 17.16 86.0053 18.088 85.76 18.856C85.5253 19.6133 85.1787 20.1893 84.72 20.584C84.2613 20.9787 83.7013 21.176 83.04 21.176ZM83.04 20.2C83.4453 20.2 83.792 20.04 84.08 19.72C84.368 19.4 84.5867 18.936 84.736 18.328C84.896 17.7093 84.976 16.9573 84.976 16.072C84.976 15.2293 84.896 14.504 84.736 13.896C84.5867 13.2773 84.368 12.7973 84.08 12.456C83.792 12.1147 83.4453 11.944 83.04 11.944C82.6347 11.944 82.288 12.1147 82 12.456C81.712 12.7973 81.488 13.2773 81.328 13.896C81.1787 14.504 81.104 15.2293 81.104 16.072C81.104 16.9573 81.1787 17.7093 81.328 18.328C81.488 18.936 81.712 19.4 82 19.72C82.288 20.04 82.6347 20.2 83.04 20.2ZM95.296 21V11.032H98.24C99.0293 11.032 99.664 11.1493 100.144 11.384C100.635 11.6187 100.992 11.9493 101.216 12.376C101.44 12.8027 101.552 13.304 101.552 13.88C101.552 14.2533 101.467 14.6267 101.296 15C101.136 15.3733 100.901 15.6987 100.592 15.976C100.293 16.2533 99.936 16.4453 99.52 16.552L101.824 21H100.576L98.368 16.6H96.432V21H95.296ZM96.432 15.608H98.368C99.0827 15.608 99.6 15.4533 99.92 15.144C100.24 14.824 100.4 14.4027 100.4 13.88C100.4 13.5493 100.331 13.2507 100.192 12.984C100.053 12.7067 99.8347 12.488 99.536 12.328C99.2373 12.168 98.848 12.088 98.368 12.088H96.432V15.608ZM106.432 21.16C105.899 21.16 105.413 21.08 104.976 20.92C104.539 20.7493 104.16 20.504 103.84 20.184C103.531 19.864 103.291 19.4693 103.12 19C102.949 18.52 102.864 17.976 102.864 17.368C102.864 16.7493 102.949 16.2 103.12 15.72C103.301 15.24 103.541 14.84 103.84 14.52C104.149 14.1893 104.507 13.9387 104.912 13.768C105.328 13.5973 105.765 13.512 106.224 13.512C106.64 13.512 107.029 13.5813 107.392 13.72C107.755 13.8587 108.069 14.072 108.336 14.36C108.603 14.6373 108.811 14.9947 108.96 15.432C109.12 15.8693 109.2 16.3867 109.2 16.984C109.2 17.0693 109.195 17.16 109.184 17.256C109.184 17.3413 109.179 17.4267 109.168 17.512H103.968C103.989 17.9813 104.069 18.392 104.208 18.744C104.347 19.0853 104.528 19.368 104.752 19.592C104.976 19.8053 105.232 19.9653 105.52 20.072C105.819 20.1787 106.133 20.232 106.464 20.232C106.72 20.232 106.96 20.2053 107.184 20.152C107.408 20.088 107.616 19.9973 107.808 19.88C108.011 19.752 108.192 19.5973 108.352 19.416L108.992 20.04C108.789 20.2853 108.555 20.4933 108.288 20.664C108.032 20.8347 107.749 20.9573 107.44 21.032C107.131 21.1173 106.795 21.16 106.432 21.16ZM104.016 16.616H108.032C108.032 16.2747 107.984 15.9707 107.888 15.704C107.803 15.4267 107.675 15.192 107.504 15C107.344 14.7973 107.147 14.648 106.912 14.552C106.688 14.4453 106.432 14.392 106.144 14.392C105.888 14.392 105.643 14.4347 105.408 14.52C105.184 14.6053 104.976 14.744 104.784 14.936C104.592 15.1173 104.427 15.3467 104.288 15.624C104.16 15.9013 104.069 16.232 104.016 16.616ZM114.32 21.176C113.787 21.176 113.296 21.08 112.848 20.888C112.4 20.696 112.011 20.4293 111.68 20.088C111.36 19.7467 111.109 19.3467 110.928 18.888C110.747 18.4187 110.656 17.9067 110.656 17.352C110.656 16.808 110.747 16.3067 110.928 15.848C111.109 15.3787 111.36 14.9733 111.68 14.632C112.011 14.2907 112.4 14.024 112.848 13.832C113.296 13.64 113.781 13.544 114.304 13.544C114.901 13.544 115.435 13.6667 115.904 13.912C116.384 14.1467 116.773 14.4773 117.072 14.904L116.352 15.608L116.24 15.72L116.16 15.64C116.16 15.5547 116.139 15.4747 116.096 15.4C116.064 15.3253 115.984 15.224 115.856 15.096C115.621 14.8827 115.371 14.7333 115.104 14.648C114.837 14.5627 114.528 14.52 114.176 14.52C113.867 14.52 113.573 14.584 113.296 14.712C113.019 14.84 112.768 15.0267 112.544 15.272C112.331 15.5067 112.16 15.7947 112.032 16.136C111.904 16.4773 111.84 16.856 111.84 17.272C111.84 17.688 111.904 18.072 112.032 18.424C112.16 18.7653 112.336 19.064 112.56 19.32C112.784 19.576 113.051 19.7787 113.36 19.928C113.68 20.0667 114.021 20.136 114.384 20.136C114.629 20.136 114.864 20.104 115.088 20.04C115.312 19.9653 115.525 19.864 115.728 19.736C115.931 19.5973 116.117 19.432 116.288 19.24L116.96 20.024C116.597 20.408 116.192 20.696 115.744 20.888C115.307 21.08 114.832 21.176 114.32 21.176ZM121.44 21.128C120.779 21.128 120.192 20.968 119.68 20.648C119.179 20.3173 118.784 19.8693 118.496 19.304C118.208 18.728 118.064 18.072 118.064 17.336C118.064 16.5893 118.208 15.9333 118.496 15.368C118.784 14.792 119.179 14.344 119.68 14.024C120.192 13.6933 120.779 13.528 121.44 13.528C122.101 13.528 122.683 13.6933 123.184 14.024C123.696 14.344 124.096 14.792 124.384 15.368C124.672 15.9333 124.816 16.5893 124.816 17.336C124.816 18.072 124.672 18.728 124.384 19.304C124.096 19.8693 123.696 20.3173 123.184 20.648C122.683 20.968 122.101 21.128 121.44 21.128ZM121.44 20.168C121.867 20.168 122.24 20.0453 122.56 19.8C122.88 19.5547 123.131 19.2187 123.312 18.792C123.504 18.3653 123.6 17.8747 123.6 17.32C123.6 16.7653 123.504 16.2747 123.312 15.848C123.131 15.4213 122.88 15.0907 122.56 14.856C122.24 14.6107 121.867 14.488 121.44 14.488C121.024 14.488 120.651 14.6107 120.32 14.856C120 15.0907 119.744 15.4213 119.552 15.848C119.371 16.2747 119.28 16.7653 119.28 17.32C119.28 17.8747 119.371 18.3653 119.552 18.792C119.744 19.2187 120 19.5547 120.32 19.8C120.651 20.0453 121.024 20.168 121.44 20.168ZM127.024 13.688H128.224L128.176 15.816L128.032 15.576C128.096 15.2453 128.208 14.952 128.368 14.696C128.528 14.44 128.72 14.2267 128.944 14.056C129.168 13.8747 129.413 13.7413 129.68 13.656C129.947 13.56 130.224 13.512 130.512 13.512C130.896 13.512 131.248 13.5813 131.568 13.72C131.899 13.848 132.192 14.0453 132.448 14.312L131.936 15.208L131.872 15.352L131.76 15.288C131.739 15.2027 131.707 15.1227 131.664 15.048C131.621 14.9733 131.531 14.8827 131.392 14.776C131.221 14.6693 131.061 14.6 130.912 14.568C130.773 14.5253 130.613 14.504 130.432 14.504C130.165 14.504 129.899 14.5573 129.632 14.664C129.365 14.76 129.12 14.9147 128.896 15.128C128.683 15.3413 128.512 15.6133 128.384 15.944C128.256 16.2747 128.192 16.6693 128.192 17.128V21.016H127.024V13.688ZM136.544 21.16C136.171 21.16 135.803 21.08 135.44 20.92C135.088 20.76 134.763 20.52 134.464 20.2C134.176 19.88 133.947 19.4747 133.776 18.984C133.605 18.4933 133.52 17.9227 133.52 17.272C133.52 16.6 133.611 16.0293 133.792 15.56C133.973 15.08 134.213 14.6907 134.512 14.392C134.811 14.0827 135.141 13.8587 135.504 13.72C135.867 13.5707 136.235 13.496 136.608 13.496C136.949 13.496 137.253 13.5493 137.52 13.656C137.797 13.7627 138.037 13.912 138.24 14.104C138.453 14.2853 138.619 14.504 138.736 14.76V10.36H139.792H139.952V10.472C139.888 10.536 139.845 10.6053 139.824 10.68C139.813 10.7547 139.808 10.8827 139.808 11.064L139.824 19.864C139.824 20.056 139.829 20.248 139.84 20.44C139.861 20.6213 139.909 20.808 139.984 21H138.848C138.795 20.872 138.757 20.744 138.736 20.616C138.715 20.488 138.699 20.3653 138.688 20.248C138.688 20.12 138.688 19.992 138.688 19.864C138.539 20.12 138.357 20.3493 138.144 20.552C137.931 20.744 137.691 20.8933 137.424 21C137.157 21.1067 136.864 21.16 136.544 21.16ZM136.72 20.152C137.072 20.152 137.371 20.0827 137.616 19.944C137.861 19.7947 138.059 19.592 138.208 19.336C138.357 19.0693 138.464 18.7653 138.528 18.424C138.603 18.072 138.64 17.6987 138.64 17.304C138.64 16.76 138.571 16.2747 138.432 15.848C138.293 15.4107 138.075 15.0693 137.776 14.824C137.477 14.568 137.093 14.44 136.624 14.44C136.304 14.44 136.016 14.504 135.76 14.632C135.515 14.7493 135.307 14.9253 135.136 15.16C134.976 15.3947 134.853 15.6773 134.768 16.008C134.683 16.328 134.64 16.6907 134.64 17.096C134.64 17.704 134.72 18.2373 134.88 18.696C135.04 19.1547 135.275 19.512 135.584 19.768C135.893 20.024 136.272 20.152 136.72 20.152ZM144.496 21.16C144.091 21.16 143.701 21.1173 143.328 21.032C142.965 20.9467 142.619 20.8187 142.288 20.648C141.968 20.4773 141.669 20.264 141.392 20.008L142.032 18.92L142.128 18.776L142.224 18.84C142.245 18.9253 142.267 19.016 142.288 19.112C142.32 19.1973 142.395 19.304 142.512 19.432C142.736 19.656 143.003 19.8427 143.312 19.992C143.632 20.1307 144.037 20.2 144.528 20.2C144.923 20.2 145.253 20.152 145.52 20.056C145.797 19.96 146.011 19.8267 146.16 19.656C146.309 19.4747 146.384 19.2667 146.384 19.032C146.384 18.872 146.352 18.7333 146.288 18.616C146.224 18.488 146.117 18.3707 145.968 18.264C145.829 18.1573 145.643 18.0507 145.408 17.944C145.173 17.8373 144.885 17.7307 144.544 17.624C143.989 17.464 143.504 17.2773 143.088 17.064C142.672 16.8507 142.352 16.6053 142.128 16.328C141.904 16.04 141.792 15.7147 141.792 15.352C141.792 14.9787 141.893 14.6587 142.096 14.392C142.299 14.1147 142.597 13.9013 142.992 13.752C143.397 13.592 143.893 13.512 144.48 13.512C144.821 13.512 145.131 13.5387 145.408 13.592C145.685 13.6347 145.941 13.704 146.176 13.8C146.411 13.896 146.624 14.0187 146.816 14.168C147.019 14.3067 147.211 14.472 147.392 14.664L146.736 15.464L146.624 15.592L146.544 15.512C146.533 15.4267 146.507 15.3467 146.464 15.272C146.432 15.1867 146.357 15.0853 146.24 14.968C145.995 14.776 145.717 14.632 145.408 14.536C145.099 14.4293 144.8 14.376 144.512 14.376C144.085 14.376 143.717 14.4507 143.408 14.6C143.099 14.7493 142.944 14.9787 142.944 15.288C142.944 15.448 142.997 15.608 143.104 15.768C143.221 15.9173 143.429 16.072 143.728 16.232C144.027 16.3813 144.453 16.536 145.008 16.696C145.616 16.888 146.101 17.0853 146.464 17.288C146.837 17.48 147.104 17.704 147.264 17.96C147.435 18.216 147.52 18.52 147.52 18.872C147.52 19.2773 147.408 19.656 147.184 20.008C146.971 20.36 146.64 20.6427 146.192 20.856C145.744 21.0587 145.179 21.16 144.496 21.16Z" fill="white"/>
<path d="M102.293 56.7071C102.683 57.0976 103.317 57.0976 103.707 56.7071L110.071 50.3431C110.462 49.9526 110.462 49.3195 110.071 48.9289C109.681 48.5384 109.047 48.5384 108.657 48.9289L103 54.5858L97.3431 48.9289C96.9526 48.5384 96.3195 48.5384 95.9289 48.9289C95.5384 49.3195 95.5384 49.9526 95.9289 50.3431L102.293 56.7071ZM102 33L102 56L104 56L104 33L102 33Z" fill="#576FDA"/>
<path d="M102.293 149.707C102.683 150.098 103.317 150.098 103.707 149.707L110.071 143.343C110.462 142.953 110.462 142.319 110.071 141.929C109.681 141.538 109.047 141.538 108.657 141.929L103 147.586L97.3431 141.929C96.9526 141.538 96.3195 141.538 95.9289 141.929C95.5384 142.319 95.5384 142.953 95.9289 143.343L102.293 149.707ZM102 127L102 149L104 149L104 127L102 127Z" fill="#576FDA"/>
<g filter="url(#filter1_d_4657_1373)">
<path d="M6 150.5H202C202.828 150.5 203.5 151.172 203.5 152V199.5H4.5V152C4.5 151.172 5.17157 150.5 6 150.5Z" stroke="#4D4D4D" shape-rendering="crispEdges"/>
</g>
<line x1="5.29883" y1="173.106" x2="202.701" y2="173.106" stroke="#C6C6C6"/>
<line x1="5.29883" y1="196.385" x2="202.701" y2="196.385" stroke="#434343"/>
<line x1="152.5" y1="150" x2="152.5" y2="199" stroke="#434343"/>
<line x1="92.5" y1="150" x2="92.5" y2="199" stroke="#434343"/>
<path d="M36 150L36 199" stroke="#434343"/>
<path d="M6 150.827H202C202.828 150.827 203.5 151.499 203.5 152.327V173.106H4.5V152.327C4.5 151.499 5.17157 150.827 6 150.827Z" fill="#323235" stroke="#4D4D4D"/>
<rect x="11.791" y="179.148" width="15.5844" height="13.3022" rx="4" fill="#4B4B4D"/>
<rect x="40.3633" y="179.148" width="46.7532" height="13.3022" rx="4" fill="#4B4B4D"/>
<rect x="100.102" y="179.148" width="46.7532" height="13.3022" rx="4" fill="#4B4B4D"/>
<rect x="157.248" y="179.148" width="40.2597" height="13.3022" rx="4" fill="#4B4B4D"/>
<defs>
<filter id="filter0_d_4657_1373" x="0" y="0" width="208" height="41" filterUnits="userSpaceOnUse" color-interpolation-filters="sRGB">
<feFlood flood-opacity="0" result="BackgroundImageFix"/>
<feColorMatrix in="SourceAlpha" type="matrix" values="0 0 0 0 0 0 0 0 0 0 0 0 0 0 0 0 0 0 127 0" result="hardAlpha"/>
<feOffset dy="4"/>
<feGaussianBlur stdDeviation="2"/>
<feComposite in2="hardAlpha" operator="out"/>
<feColorMatrix type="matrix" values="0 0 0 0 0 0 0 0 0 0 0 0 0 0 0 0 0 0 0.25 0"/>
<feBlend mode="normal" in2="BackgroundImageFix" result="effect1_dropShadow_4657_1373"/>
<feBlend mode="normal" in="SourceGraphic" in2="effect1_dropShadow_4657_1373" result="shape"/>
</filter>
<filter id="filter1_d_4657_1373" x="0" y="150" width="208" height="58" filterUnits="userSpaceOnUse" color-interpolation-filters="sRGB">
<feFlood flood-opacity="0" result="BackgroundImageFix"/>
<feColorMatrix in="SourceAlpha" type="matrix" values="0 0 0 0 0 0 0 0 0 0 0 0 0 0 0 0 0 0 127 0" result="hardAlpha"/>
<feOffset dy="4"/>
<feGaussianBlur stdDeviation="2"/>
<feComposite in2="hardAlpha" operator="out"/>
<feColorMatrix type="matrix" values="0 0 0 0 0 0 0 0 0 0 0 0 0 0 0 0 0 0 0.25 0"/>
<feBlend mode="normal" in2="BackgroundImageFix" result="effect1_dropShadow_4657_1373"/>
<feBlend mode="normal" in="SourceGraphic" in2="effect1_dropShadow_4657_1373" result="shape"/>
</filter>
</defs>
</svg>
