<svg width="209" height="210" viewBox="0 0 209 210" fill="none" xmlns="http://www.w3.org/2000/svg">
<path d="M196.403 0.967773H11C7.96243 0.967773 5.5 3.43021 5.5 6.46777V26.6147C5.5 29.6522 7.96243 32.1147 11 32.1147H196.403C199.441 32.1147 201.903 29.6522 201.903 26.6147V6.46777C201.903 3.43021 199.441 0.967773 196.403 0.967773Z" fill="white" stroke="black"/>
<path d="M39.8501 21.1185V12.5265L37.8341 13.1185L37.5781 12.4945L40.1861 11.1345H40.9701V21.1185H39.8501ZM45.5621 18.6545L49.8341 13.1665L50.2021 13.9185L45.9301 19.3425L45.5621 18.6545ZM47.8501 21.2945C47.1888 21.2945 46.6288 21.0971 46.1701 20.7025C45.7115 20.3078 45.3595 19.7318 45.1141 18.9745C44.8795 18.2065 44.7621 17.2785 44.7621 16.1905C44.7621 15.1345 44.8795 14.2278 45.1141 13.4705C45.3595 12.7025 45.7115 12.1158 46.1701 11.7105C46.6288 11.2945 47.1888 11.0865 47.8501 11.0865C48.5115 11.0865 49.0715 11.2945 49.5301 11.7105C49.9888 12.1158 50.3355 12.7025 50.5701 13.4705C50.8155 14.2278 50.9381 15.1345 50.9381 16.1905C50.9381 17.2785 50.8155 18.2065 50.5701 18.9745C50.3355 19.7318 49.9888 20.3078 49.5301 20.7025C49.0715 21.0971 48.5115 21.2945 47.8501 21.2945ZM47.8501 20.3185C48.2555 20.3185 48.6021 20.1585 48.8901 19.8385C49.1781 19.5185 49.3968 19.0545 49.5461 18.4465C49.7061 17.8278 49.7861 17.0758 49.7861 16.1905C49.7861 15.3478 49.7061 14.6225 49.5461 14.0145C49.3968 13.3958 49.1781 12.9158 48.8901 12.5745C48.6021 12.2331 48.2555 12.0625 47.8501 12.0625C47.4448 12.0625 47.0981 12.2331 46.8101 12.5745C46.5221 12.9158 46.2981 13.3958 46.1381 14.0145C45.9888 14.6225 45.9141 15.3478 45.9141 16.1905C45.9141 17.0758 45.9888 17.8278 46.1381 18.4465C46.2981 19.0545 46.5221 19.5185 46.8101 19.8385C47.0981 20.1585 47.4448 20.3185 47.8501 20.3185ZM53.2421 18.6545L57.5141 13.1665L57.8821 13.9185L53.6101 19.3425L53.2421 18.6545ZM55.5301 21.2945C54.8688 21.2945 54.3088 21.0971 53.8501 20.7025C53.3915 20.3078 53.0395 19.7318 52.7941 18.9745C52.5595 18.2065 52.4421 17.2785 52.4421 16.1905C52.4421 15.1345 52.5595 14.2278 52.7941 13.4705C53.0395 12.7025 53.3915 12.1158 53.8501 11.7105C54.3088 11.2945 54.8688 11.0865 55.5301 11.0865C56.1915 11.0865 56.7515 11.2945 57.2101 11.7105C57.6688 12.1158 58.0155 12.7025 58.2501 13.4705C58.4955 14.2278 58.6181 15.1345 58.6181 16.1905C58.6181 17.2785 58.4955 18.2065 58.2501 18.9745C58.0155 19.7318 57.6688 20.3078 57.2101 20.7025C56.7515 21.0971 56.1915 21.2945 55.5301 21.2945ZM55.5301 20.3185C55.9355 20.3185 56.2821 20.1585 56.5701 19.8385C56.8581 19.5185 57.0768 19.0545 57.2261 18.4465C57.3861 17.8278 57.4661 17.0758 57.4661 16.1905C57.4661 15.3478 57.3861 14.6225 57.2261 14.0145C57.0768 13.3958 56.8581 12.9158 56.5701 12.5745C56.2821 12.2331 55.9355 12.0625 55.5301 12.0625C55.1248 12.0625 54.7781 12.2331 54.4901 12.5745C54.2021 12.9158 53.9781 13.3958 53.8181 14.0145C53.6688 14.6225 53.5941 15.3478 53.5941 16.1905C53.5941 17.0758 53.6688 17.8278 53.8181 18.4465C53.9781 19.0545 54.2021 19.5185 54.4901 19.8385C54.7781 20.1585 55.1248 20.3185 55.5301 20.3185ZM60.9221 18.6545L65.1941 13.1665L65.5621 13.9185L61.2901 19.3425L60.9221 18.6545ZM63.2101 21.2945C62.5488 21.2945 61.9888 21.0971 61.5301 20.7025C61.0715 20.3078 60.7195 19.7318 60.4741 18.9745C60.2395 18.2065 60.1221 17.2785 60.1221 16.1905C60.1221 15.1345 60.2395 14.2278 60.4741 13.4705C60.7195 12.7025 61.0715 12.1158 61.5301 11.7105C61.9888 11.2945 62.5488 11.0865 63.2101 11.0865C63.8715 11.0865 64.4315 11.2945 64.8901 11.7105C65.3488 12.1158 65.6955 12.7025 65.9301 13.4705C66.1755 14.2278 66.2981 15.1345 66.2981 16.1905C66.2981 17.2785 66.1755 18.2065 65.9301 18.9745C65.6955 19.7318 65.3488 20.3078 64.8901 20.7025C64.4315 21.0971 63.8715 21.2945 63.2101 21.2945ZM63.2101 20.3185C63.6155 20.3185 63.9621 20.1585 64.2501 19.8385C64.5381 19.5185 64.7568 19.0545 64.9061 18.4465C65.0661 17.8278 65.1461 17.0758 65.1461 16.1905C65.1461 15.3478 65.0661 14.6225 64.9061 14.0145C64.7568 13.3958 64.5381 12.9158 64.2501 12.5745C63.9621 12.2331 63.6155 12.0625 63.2101 12.0625C62.8048 12.0625 62.4581 12.2331 62.1701 12.5745C61.8821 12.9158 61.6581 13.3958 61.4981 14.0145C61.3488 14.6225 61.2741 15.3478 61.2741 16.1905C61.2741 17.0758 61.3488 17.8278 61.4981 18.4465C61.6581 19.0545 61.8821 19.5185 62.1701 19.8385C62.4581 20.1585 62.8048 20.3185 63.2101 20.3185ZM68.6021 18.6545L72.8741 13.1665L73.2421 13.9185L68.9701 19.3425L68.6021 18.6545ZM70.8901 21.2945C70.2288 21.2945 69.6688 21.0971 69.2101 20.7025C68.7515 20.3078 68.3995 19.7318 68.1541 18.9745C67.9195 18.2065 67.8021 17.2785 67.8021 16.1905C67.8021 15.1345 67.9195 14.2278 68.1541 13.4705C68.3995 12.7025 68.7515 12.1158 69.2101 11.7105C69.6688 11.2945 70.2288 11.0865 70.8901 11.0865C71.5515 11.0865 72.1115 11.2945 72.5701 11.7105C73.0288 12.1158 73.3755 12.7025 73.6101 13.4705C73.8555 14.2278 73.9781 15.1345 73.9781 16.1905C73.9781 17.2785 73.8555 18.2065 73.6101 18.9745C73.3755 19.7318 73.0288 20.3078 72.5701 20.7025C72.1115 21.0971 71.5515 21.2945 70.8901 21.2945ZM70.8901 20.3185C71.2955 20.3185 71.6421 20.1585 71.9301 19.8385C72.2181 19.5185 72.4368 19.0545 72.5861 18.4465C72.7461 17.8278 72.8261 17.0758 72.8261 16.1905C72.8261 15.3478 72.7461 14.6225 72.5861 14.0145C72.4368 13.3958 72.2181 12.9158 71.9301 12.5745C71.6421 12.2331 71.2955 12.0625 70.8901 12.0625C70.4848 12.0625 70.1381 12.2331 69.8501 12.5745C69.5621 12.9158 69.3381 13.3958 69.1781 14.0145C69.0288 14.6225 68.9541 15.3478 68.9541 16.1905C68.9541 17.0758 69.0288 17.8278 69.1781 18.4465C69.3381 19.0545 69.5621 19.5185 69.8501 19.8385C70.1381 20.1585 70.4848 20.3185 70.8901 20.3185ZM83.1461 21.1185V11.1505H86.0901C86.8795 11.1505 87.5141 11.2678 87.9941 11.5025C88.4848 11.7371 88.8421 12.0678 89.0661 12.4945C89.2901 12.9211 89.4021 13.4225 89.4021 13.9985C89.4021 14.3718 89.3168 14.7451 89.1461 15.1185C88.9861 15.4918 88.7515 15.8171 88.4421 16.0945C88.1435 16.3718 87.7861 16.5638 87.3701 16.6705L89.6741 21.1185H88.4261L86.2181 16.7185H84.2821V21.1185H83.1461ZM84.2821 15.7265H86.2181C86.9328 15.7265 87.4501 15.5718 87.7701 15.2625C88.0901 14.9425 88.2501 14.5211 88.2501 13.9985C88.2501 13.6678 88.1808 13.3691 88.0421 13.1025C87.9035 12.8251 87.6848 12.6065 87.3861 12.4465C87.0875 12.2865 86.6981 12.2065 86.2181 12.2065H84.2821V15.7265ZM94.2821 21.2785C93.7488 21.2785 93.2635 21.1985 92.8261 21.0385C92.3888 20.8678 92.0101 20.6225 91.6901 20.3025C91.3808 19.9825 91.1408 19.5878 90.9701 19.1185C90.7995 18.6385 90.7141 18.0945 90.7141 17.4865C90.7141 16.8678 90.7995 16.3185 90.9701 15.8385C91.1515 15.3585 91.3915 14.9585 91.6901 14.6385C91.9995 14.3078 92.3568 14.0571 92.7621 13.8865C93.1781 13.7158 93.6155 13.6305 94.0741 13.6305C94.4901 13.6305 94.8795 13.6998 95.2421 13.8385C95.6048 13.9771 95.9195 14.1905 96.1861 14.4785C96.4528 14.7558 96.6608 15.1131 96.8101 15.5505C96.9701 15.9878 97.0501 16.5051 97.0501 17.1025C97.0501 17.1878 97.0448 17.2785 97.0341 17.3745C97.0341 17.4598 97.0288 17.5451 97.0181 17.6305H91.8181C91.8395 18.0998 91.9195 18.5105 92.0581 18.8625C92.1968 19.2038 92.3781 19.4865 92.6021 19.7105C92.8261 19.9238 93.0821 20.0838 93.3701 20.1905C93.6688 20.2971 93.9835 20.3505 94.3141 20.3505C94.5701 20.3505 94.8101 20.3238 95.0341 20.2705C95.2581 20.2065 95.4661 20.1158 95.6581 19.9985C95.8608 19.8705 96.0421 19.7158 96.2021 19.5345L96.8421 20.1585C96.6395 20.4038 96.4048 20.6118 96.1381 20.7825C95.8821 20.9531 95.5995 21.0758 95.2901 21.1505C94.9808 21.2358 94.6448 21.2785 94.2821 21.2785ZM91.8661 16.7345H95.8821C95.8821 16.3931 95.8341 16.0891 95.7381 15.8225C95.6528 15.5451 95.5248 15.3105 95.3541 15.1185C95.1941 14.9158 94.9968 14.7665 94.7621 14.6705C94.5381 14.5638 94.2821 14.5105 93.9941 14.5105C93.7381 14.5105 93.4928 14.5531 93.2581 14.6385C93.0341 14.7238 92.8261 14.8625 92.6341 15.0545C92.4421 15.2358 92.2768 15.4651 92.1381 15.7425C92.0101 16.0198 91.9195 16.3505 91.8661 16.7345ZM102.17 21.2945C101.637 21.2945 101.146 21.1985 100.698 21.0065C100.25 20.8145 99.8608 20.5478 99.5301 20.2065C99.2101 19.8651 98.9595 19.4651 98.7781 19.0065C98.5968 18.5371 98.5061 18.0251 98.5061 17.4705C98.5061 16.9265 98.5968 16.4251 98.7781 15.9665C98.9595 15.4971 99.2101 15.0918 99.5301 14.7505C99.8608 14.4091 100.25 14.1425 100.698 13.9505C101.146 13.7585 101.631 13.6625 102.154 13.6625C102.751 13.6625 103.285 13.7851 103.754 14.0305C104.234 14.2651 104.623 14.5958 104.922 15.0225L104.202 15.7265L104.09 15.8385L104.01 15.7585C104.01 15.6731 103.989 15.5931 103.946 15.5185C103.914 15.4438 103.834 15.3425 103.706 15.2145C103.471 15.0011 103.221 14.8518 102.954 14.7665C102.687 14.6811 102.378 14.6385 102.026 14.6385C101.717 14.6385 101.423 14.7025 101.146 14.8305C100.869 14.9585 100.618 15.1451 100.394 15.3905C100.181 15.6251 100.01 15.9131 99.8821 16.2545C99.7541 16.5958 99.6901 16.9745 99.6901 17.3905C99.6901 17.8065 99.7541 18.1905 99.8821 18.5425C100.01 18.8838 100.186 19.1825 100.41 19.4385C100.634 19.6945 100.901 19.8971 101.21 20.0465C101.53 20.1851 101.871 20.2545 102.234 20.2545C102.479 20.2545 102.714 20.2225 102.938 20.1585C103.162 20.0838 103.375 19.9825 103.578 19.8545C103.781 19.7158 103.967 19.5505 104.138 19.3585L104.81 20.1425C104.447 20.5265 104.042 20.8145 103.594 21.0065C103.157 21.1985 102.682 21.2945 102.17 21.2945ZM109.29 21.2465C108.629 21.2465 108.042 21.0865 107.53 20.7665C107.029 20.4358 106.634 19.9878 106.346 19.4225C106.058 18.8465 105.914 18.1905 105.914 17.4545C105.914 16.7078 106.058 16.0518 106.346 15.4865C106.634 14.9105 107.029 14.4625 107.53 14.1425C108.042 13.8118 108.629 13.6465 109.29 13.6465C109.951 13.6465 110.533 13.8118 111.034 14.1425C111.546 14.4625 111.946 14.9105 112.234 15.4865C112.522 16.0518 112.666 16.7078 112.666 17.4545C112.666 18.1905 112.522 18.8465 112.234 19.4225C111.946 19.9878 111.546 20.4358 111.034 20.7665C110.533 21.0865 109.951 21.2465 109.29 21.2465ZM109.29 20.2865C109.717 20.2865 110.09 20.1638 110.41 19.9185C110.73 19.6731 110.981 19.3371 111.162 18.9105C111.354 18.4838 111.45 17.9931 111.45 17.4385C111.45 16.8838 111.354 16.3931 111.162 15.9665C110.981 15.5398 110.73 15.2091 110.41 14.9745C110.09 14.7291 109.717 14.6065 109.29 14.6065C108.874 14.6065 108.501 14.7291 108.17 14.9745C107.85 15.2091 107.594 15.5398 107.402 15.9665C107.221 16.3931 107.13 16.8838 107.13 17.4385C107.13 17.9931 107.221 18.4838 107.402 18.9105C107.594 19.3371 107.85 19.6731 108.17 19.9185C108.501 20.1638 108.874 20.2865 109.29 20.2865ZM114.874 13.8065H116.074L116.026 15.9345L115.882 15.6945C115.946 15.3638 116.058 15.0705 116.218 14.8145C116.378 14.5585 116.57 14.3451 116.794 14.1745C117.018 13.9931 117.263 13.8598 117.53 13.7745C117.797 13.6785 118.074 13.6305 118.362 13.6305C118.746 13.6305 119.098 13.6998 119.418 13.8385C119.749 13.9665 120.042 14.1638 120.298 14.4305L119.786 15.3265L119.722 15.4705L119.61 15.4065C119.589 15.3211 119.557 15.2411 119.514 15.1665C119.471 15.0918 119.381 15.0011 119.242 14.8945C119.071 14.7878 118.911 14.7185 118.762 14.6865C118.623 14.6438 118.463 14.6225 118.282 14.6225C118.015 14.6225 117.749 14.6758 117.482 14.7825C117.215 14.8785 116.97 15.0331 116.746 15.2465C116.533 15.4598 116.362 15.7318 116.234 16.0625C116.106 16.3931 116.042 16.7878 116.042 17.2465V21.1345H114.874V13.8065ZM124.394 21.2785C124.021 21.2785 123.653 21.1985 123.29 21.0385C122.938 20.8785 122.613 20.6385 122.314 20.3185C122.026 19.9985 121.797 19.5931 121.626 19.1025C121.455 18.6118 121.37 18.0411 121.37 17.3905C121.37 16.7185 121.461 16.1478 121.642 15.6785C121.823 15.1985 122.063 14.8091 122.362 14.5105C122.661 14.2011 122.991 13.9771 123.354 13.8385C123.717 13.6891 124.085 13.6145 124.458 13.6145C124.799 13.6145 125.103 13.6678 125.37 13.7745C125.647 13.8811 125.887 14.0305 126.09 14.2225C126.303 14.4038 126.469 14.6225 126.586 14.8785V10.4785H127.642H127.802V10.5905C127.738 10.6545 127.695 10.7238 127.674 10.7985C127.663 10.8731 127.658 11.0011 127.658 11.1825L127.674 19.9825C127.674 20.1745 127.679 20.3665 127.69 20.5585C127.711 20.7398 127.759 20.9265 127.834 21.1185H126.698C126.645 20.9905 126.607 20.8625 126.586 20.7345C126.565 20.6065 126.549 20.4838 126.538 20.3665C126.538 20.2385 126.538 20.1105 126.538 19.9825C126.389 20.2385 126.207 20.4678 125.994 20.6705C125.781 20.8625 125.541 21.0118 125.274 21.1185C125.007 21.2251 124.714 21.2785 124.394 21.2785ZM124.57 20.2705C124.922 20.2705 125.221 20.2011 125.466 20.0625C125.711 19.9131 125.909 19.7105 126.058 19.4545C126.207 19.1878 126.314 18.8838 126.378 18.5425C126.453 18.1905 126.49 17.8171 126.49 17.4225C126.49 16.8785 126.421 16.3931 126.282 15.9665C126.143 15.5291 125.925 15.1878 125.626 14.9425C125.327 14.6865 124.943 14.5585 124.474 14.5585C124.154 14.5585 123.866 14.6225 123.61 14.7505C123.365 14.8678 123.157 15.0438 122.986 15.2785C122.826 15.5131 122.703 15.7958 122.618 16.1265C122.533 16.4465 122.49 16.8091 122.49 17.2145C122.49 17.8225 122.57 18.3558 122.73 18.8145C122.89 19.2731 123.125 19.6305 123.434 19.8865C123.743 20.1425 124.122 20.2705 124.57 20.2705ZM132.346 21.2785C131.941 21.2785 131.551 21.2358 131.178 21.1505C130.815 21.0651 130.469 20.9371 130.138 20.7665C129.818 20.5958 129.519 20.3825 129.242 20.1265L129.882 19.0385L129.978 18.8945L130.074 18.9585C130.095 19.0438 130.117 19.1345 130.138 19.2305C130.17 19.3158 130.245 19.4225 130.362 19.5505C130.586 19.7745 130.853 19.9611 131.162 20.1105C131.482 20.2491 131.887 20.3185 132.378 20.3185C132.773 20.3185 133.103 20.2705 133.37 20.1745C133.647 20.0785 133.861 19.9451 134.01 19.7745C134.159 19.5931 134.234 19.3851 134.234 19.1505C134.234 18.9905 134.202 18.8518 134.138 18.7345C134.074 18.6065 133.967 18.4891 133.818 18.3825C133.679 18.2758 133.493 18.1691 133.258 18.0625C133.023 17.9558 132.735 17.8491 132.394 17.7425C131.839 17.5825 131.354 17.3958 130.938 17.1825C130.522 16.9691 130.202 16.7238 129.978 16.4465C129.754 16.1585 129.642 15.8331 129.642 15.4705C129.642 15.0971 129.743 14.7771 129.946 14.5105C130.149 14.2331 130.447 14.0198 130.842 13.8705C131.247 13.7105 131.743 13.6305 132.33 13.6305C132.671 13.6305 132.981 13.6571 133.258 13.7105C133.535 13.7531 133.791 13.8225 134.026 13.9185C134.261 14.0145 134.474 14.1371 134.666 14.2865C134.869 14.4251 135.061 14.5905 135.242 14.7825L134.586 15.5825L134.474 15.7105L134.394 15.6305C134.383 15.5451 134.357 15.4651 134.314 15.3905C134.282 15.3051 134.207 15.2038 134.09 15.0865C133.845 14.8945 133.567 14.7505 133.258 14.6545C132.949 14.5478 132.65 14.4945 132.362 14.4945C131.935 14.4945 131.567 14.5691 131.258 14.7185C130.949 14.8678 130.794 15.0971 130.794 15.4065C130.794 15.5665 130.847 15.7265 130.954 15.8865C131.071 16.0358 131.279 16.1905 131.578 16.3505C131.877 16.4998 132.303 16.6545 132.858 16.8145C133.466 17.0065 133.951 17.2038 134.314 17.4065C134.687 17.5985 134.954 17.8225 135.114 18.0785C135.285 18.3345 135.37 18.6385 135.37 18.9905C135.37 19.3958 135.258 19.7745 135.034 20.1265C134.821 20.4785 134.49 20.7611 134.042 20.9745C133.594 21.1771 133.029 21.2785 132.346 21.2785Z" fill="black"/>
<g filter="url(#filter0_d_4657_1413)">
<path d="M199 0H11C7.68629 0 5 2.68629 5 6V27C5 30.3137 7.68629 33 11 33H199C202.314 33 205 30.3137 205 27V6C205 2.68629 202.314 0 199 0Z" fill="#323235"/>
<path d="M199 0.5H11C7.96243 0.5 5.5 2.96243 5.5 6V27C5.5 30.0376 7.96243 32.5 11 32.5H199C202.038 32.5 204.5 30.0376 204.5 27V6C204.5 2.96243 202.038 0.5 199 0.5Z" stroke="#4D4D4D"/>
</g>
<path d="M47.6802 20.9999V12.4079L45.6642 12.9999L45.4082 12.3759L48.0162 11.0159H48.8002V20.9999H47.6802ZM53.3922 18.5359L57.6642 13.0479L58.0322 13.7999L53.7602 19.2239L53.3922 18.5359ZM55.6802 21.1759C55.0189 21.1759 54.4589 20.9786 54.0002 20.5839C53.5415 20.1892 53.1895 19.6132 52.9442 18.8559C52.7095 18.0879 52.5922 17.1599 52.5922 16.0719C52.5922 15.0159 52.7095 14.1092 52.9442 13.3519C53.1895 12.5839 53.5415 11.9972 54.0002 11.5919C54.4589 11.1759 55.0189 10.9679 55.6802 10.9679C56.3415 10.9679 56.9015 11.1759 57.3602 11.5919C57.8189 11.9972 58.1655 12.5839 58.4002 13.3519C58.6455 14.1092 58.7682 15.0159 58.7682 16.0719C58.7682 17.1599 58.6455 18.0879 58.4002 18.8559C58.1655 19.6132 57.8189 20.1892 57.3602 20.5839C56.9015 20.9786 56.3415 21.1759 55.6802 21.1759ZM55.6802 20.1999C56.0855 20.1999 56.4322 20.0399 56.7202 19.7199C57.0082 19.3999 57.2269 18.9359 57.3762 18.3279C57.5362 17.7092 57.6162 16.9572 57.6162 16.0719C57.6162 15.2292 57.5362 14.5039 57.3762 13.8959C57.2269 13.2772 57.0082 12.7972 56.7202 12.4559C56.4322 12.1146 56.0855 11.9439 55.6802 11.9439C55.2749 11.9439 54.9282 12.1146 54.6402 12.4559C54.3522 12.7972 54.1282 13.2772 53.9682 13.8959C53.8189 14.5039 53.7442 15.2292 53.7442 16.0719C53.7442 16.9572 53.8189 17.7092 53.9682 18.3279C54.1282 18.9359 54.3522 19.3999 54.6402 19.7199C54.9282 20.0399 55.2749 20.1999 55.6802 20.1999ZM61.0722 18.5359L65.3442 13.0479L65.7122 13.7999L61.4402 19.2239L61.0722 18.5359ZM63.3602 21.1759C62.6989 21.1759 62.1389 20.9786 61.6802 20.5839C61.2215 20.1892 60.8695 19.6132 60.6242 18.8559C60.3895 18.0879 60.2722 17.1599 60.2722 16.0719C60.2722 15.0159 60.3895 14.1092 60.6242 13.3519C60.8695 12.5839 61.2215 11.9972 61.6802 11.5919C62.1389 11.1759 62.6989 10.9679 63.3602 10.9679C64.0215 10.9679 64.5815 11.1759 65.0402 11.5919C65.4989 11.9972 65.8455 12.5839 66.0802 13.3519C66.3255 14.1092 66.4482 15.0159 66.4482 16.0719C66.4482 17.1599 66.3255 18.0879 66.0802 18.8559C65.8455 19.6132 65.4989 20.1892 65.0402 20.5839C64.5815 20.9786 64.0215 21.1759 63.3602 21.1759ZM63.3602 20.1999C63.7655 20.1999 64.1122 20.0399 64.4002 19.7199C64.6882 19.3999 64.9069 18.9359 65.0562 18.3279C65.2162 17.7092 65.2962 16.9572 65.2962 16.0719C65.2962 15.2292 65.2162 14.5039 65.0562 13.8959C64.9069 13.2772 64.6882 12.7972 64.4002 12.4559C64.1122 12.1146 63.7655 11.9439 63.3602 11.9439C62.9549 11.9439 62.6082 12.1146 62.3202 12.4559C62.0322 12.7972 61.8082 13.2772 61.6482 13.8959C61.4989 14.5039 61.4242 15.2292 61.4242 16.0719C61.4242 16.9572 61.4989 17.7092 61.6482 18.3279C61.8082 18.9359 62.0322 19.3999 62.3202 19.7199C62.6082 20.0399 62.9549 20.1999 63.3602 20.1999ZM70.2242 23.6879L69.6802 23.2079C69.9789 22.9306 70.2242 22.6319 70.4162 22.3119C70.6189 21.9919 70.7202 21.7306 70.7202 21.5279C70.7202 21.4212 70.6775 21.3199 70.5922 21.2239C70.5175 21.1386 70.4215 21.0532 70.3042 20.9679C70.1975 20.8826 70.1015 20.7866 70.0162 20.6799C69.9415 20.5626 69.9042 20.4346 69.9042 20.2959C69.9042 20.0292 69.9895 19.8052 70.1602 19.6239C70.3415 19.4426 70.5709 19.3519 70.8482 19.3519C71.1255 19.3519 71.3762 19.4746 71.6002 19.7199C71.8242 19.9652 71.9362 20.2852 71.9362 20.6799C71.9362 20.8932 71.8989 21.1119 71.8242 21.3359C71.7602 21.5706 71.6535 21.8106 71.5042 22.0559C71.3655 22.3119 71.1895 22.5732 70.9762 22.8399C70.7629 23.1172 70.5122 23.3999 70.2242 23.6879ZM76.4322 18.5359L80.7042 13.0479L81.0722 13.7999L76.8002 19.2239L76.4322 18.5359ZM78.7202 21.1759C78.0589 21.1759 77.4989 20.9786 77.0402 20.5839C76.5815 20.1892 76.2295 19.6132 75.9842 18.8559C75.7495 18.0879 75.6322 17.1599 75.6322 16.0719C75.6322 15.0159 75.7495 14.1092 75.9842 13.3519C76.2295 12.5839 76.5815 11.9972 77.0402 11.5919C77.4989 11.1759 78.0589 10.9679 78.7202 10.9679C79.3815 10.9679 79.9415 11.1759 80.4002 11.5919C80.8589 11.9972 81.2055 12.5839 81.4402 13.3519C81.6855 14.1092 81.8082 15.0159 81.8082 16.0719C81.8082 17.1599 81.6855 18.0879 81.4402 18.8559C81.2055 19.6132 80.8589 20.1892 80.4002 20.5839C79.9415 20.9786 79.3815 21.1759 78.7202 21.1759ZM78.7202 20.1999C79.1255 20.1999 79.4722 20.0399 79.7602 19.7199C80.0482 19.3999 80.2669 18.9359 80.4162 18.3279C80.5762 17.7092 80.6562 16.9572 80.6562 16.0719C80.6562 15.2292 80.5762 14.5039 80.4162 13.8959C80.2669 13.2772 80.0482 12.7972 79.7602 12.4559C79.4722 12.1146 79.1255 11.9439 78.7202 11.9439C78.3149 11.9439 77.9682 12.1146 77.6802 12.4559C77.3922 12.7972 77.1682 13.2772 77.0082 13.8959C76.8589 14.5039 76.7842 15.2292 76.7842 16.0719C76.7842 16.9572 76.8589 17.7092 77.0082 18.3279C77.1682 18.9359 77.3922 19.3999 77.6802 19.7199C77.9682 20.0399 78.3149 20.1999 78.7202 20.1999ZM84.1122 18.5359L88.3842 13.0479L88.7522 13.7999L84.4802 19.2239L84.1122 18.5359ZM86.4002 21.1759C85.7389 21.1759 85.1789 20.9786 84.7202 20.5839C84.2615 20.1892 83.9095 19.6132 83.6642 18.8559C83.4295 18.0879 83.3122 17.1599 83.3122 16.0719C83.3122 15.0159 83.4295 14.1092 83.6642 13.3519C83.9095 12.5839 84.2615 11.9972 84.7202 11.5919C85.1789 11.1759 85.7389 10.9679 86.4002 10.9679C87.0615 10.9679 87.6215 11.1759 88.0802 11.5919C88.5389 11.9972 88.8855 12.5839 89.1202 13.3519C89.3655 14.1092 89.4882 15.0159 89.4882 16.0719C89.4882 17.1599 89.3655 18.0879 89.1202 18.8559C88.8855 19.6132 88.5389 20.1892 88.0802 20.5839C87.6215 20.9786 87.0615 21.1759 86.4002 21.1759ZM86.4002 20.1999C86.8055 20.1999 87.1522 20.0399 87.4402 19.7199C87.7282 19.3999 87.9469 18.9359 88.0962 18.3279C88.2562 17.7092 88.3362 16.9572 88.3362 16.0719C88.3362 15.2292 88.2562 14.5039 88.0962 13.8959C87.9469 13.2772 87.7282 12.7972 87.4402 12.4559C87.1522 12.1146 86.8055 11.9439 86.4002 11.9439C85.9949 11.9439 85.6482 12.1146 85.3602 12.4559C85.0722 12.7972 84.8482 13.2772 84.6882 13.8959C84.5389 14.5039 84.4642 15.2292 84.4642 16.0719C84.4642 16.9572 84.5389 17.7092 84.6882 18.3279C84.8482 18.9359 85.0722 19.3999 85.3602 19.7199C85.6482 20.0399 85.9949 20.1999 86.4002 20.1999ZM91.7922 18.5359L96.0642 13.0479L96.4322 13.7999L92.1602 19.2239L91.7922 18.5359ZM94.0802 21.1759C93.4189 21.1759 92.8589 20.9786 92.4002 20.5839C91.9415 20.1892 91.5895 19.6132 91.3442 18.8559C91.1095 18.0879 90.9922 17.1599 90.9922 16.0719C90.9922 15.0159 91.1095 14.1092 91.3442 13.3519C91.5895 12.5839 91.9415 11.9972 92.4002 11.5919C92.8589 11.1759 93.4189 10.9679 94.0802 10.9679C94.7415 10.9679 95.3015 11.1759 95.7602 11.5919C96.2189 11.9972 96.5655 12.5839 96.8002 13.3519C97.0455 14.1092 97.1682 15.0159 97.1682 16.0719C97.1682 17.1599 97.0455 18.0879 96.8002 18.8559C96.5655 19.6132 96.2189 20.1892 95.7602 20.5839C95.3015 20.9786 94.7415 21.1759 94.0802 21.1759ZM94.0802 20.1999C94.4855 20.1999 94.8322 20.0399 95.1202 19.7199C95.4082 19.3999 95.6269 18.9359 95.7762 18.3279C95.9362 17.7092 96.0162 16.9572 96.0162 16.0719C96.0162 15.2292 95.9362 14.5039 95.7762 13.8959C95.6269 13.2772 95.4082 12.7972 95.1202 12.4559C94.8322 12.1146 94.4855 11.9439 94.0802 11.9439C93.6749 11.9439 93.3282 12.1146 93.0402 12.4559C92.7522 12.7972 92.5282 13.2772 92.3682 13.8959C92.2189 14.5039 92.1442 15.2292 92.1442 16.0719C92.1442 16.9572 92.2189 17.7092 92.3682 18.3279C92.5282 18.9359 92.7522 19.3999 93.0402 19.7199C93.3282 20.0399 93.6749 20.1999 94.0802 20.1999ZM106.336 20.9999V11.0319H109.28C110.069 11.0319 110.704 11.1492 111.184 11.3839C111.675 11.6186 112.032 11.9492 112.256 12.3759C112.48 12.8026 112.592 13.3039 112.592 13.8799C112.592 14.2532 112.507 14.6266 112.336 14.9999C112.176 15.3732 111.941 15.6986 111.632 15.9759C111.333 16.2532 110.976 16.4452 110.56 16.5519L112.864 20.9999H111.616L109.408 16.5999H107.472V20.9999H106.336ZM107.472 15.6079H109.408C110.123 15.6079 110.64 15.4532 110.96 15.1439C111.28 14.8239 111.44 14.4026 111.44 13.8799C111.44 13.5492 111.371 13.2506 111.232 12.9839C111.093 12.7066 110.875 12.4879 110.576 12.3279C110.277 12.1679 109.888 12.0879 109.408 12.0879H107.472V15.6079ZM117.472 21.1599C116.939 21.1599 116.453 21.0799 116.016 20.9199C115.579 20.7492 115.2 20.5039 114.88 20.1839C114.571 19.8639 114.331 19.4692 114.16 18.9999C113.989 18.5199 113.904 17.9759 113.904 17.3679C113.904 16.7492 113.989 16.1999 114.16 15.7199C114.341 15.2399 114.581 14.8399 114.88 14.5199C115.189 14.1892 115.547 13.9386 115.952 13.7679C116.368 13.5972 116.805 13.5119 117.264 13.5119C117.68 13.5119 118.069 13.5812 118.432 13.7199C118.795 13.8586 119.109 14.0719 119.376 14.3599C119.643 14.6372 119.851 14.9946 120 15.4319C120.16 15.8692 120.24 16.3866 120.24 16.9839C120.24 17.0692 120.235 17.1599 120.224 17.2559C120.224 17.3412 120.219 17.4266 120.208 17.5119H115.008C115.029 17.9812 115.109 18.3919 115.248 18.7439C115.387 19.0852 115.568 19.3679 115.792 19.5919C116.016 19.8052 116.272 19.9652 116.56 20.0719C116.859 20.1786 117.173 20.2319 117.504 20.2319C117.76 20.2319 118 20.2052 118.224 20.1519C118.448 20.0879 118.656 19.9972 118.848 19.8799C119.051 19.7519 119.232 19.5972 119.392 19.4159L120.032 20.0399C119.829 20.2852 119.595 20.4932 119.328 20.6639C119.072 20.8346 118.789 20.9572 118.48 21.0319C118.171 21.1172 117.835 21.1599 117.472 21.1599ZM115.056 16.6159H119.072C119.072 16.2746 119.024 15.9706 118.928 15.7039C118.843 15.4266 118.715 15.1919 118.544 14.9999C118.384 14.7972 118.187 14.6479 117.952 14.5519C117.728 14.4452 117.472 14.3919 117.184 14.3919C116.928 14.3919 116.683 14.4346 116.448 14.5199C116.224 14.6052 116.016 14.7439 115.824 14.9359C115.632 15.1172 115.467 15.3466 115.328 15.6239C115.2 15.9012 115.109 16.2319 115.056 16.6159ZM125.36 21.1759C124.827 21.1759 124.336 21.0799 123.888 20.8879C123.44 20.6959 123.051 20.4292 122.72 20.0879C122.4 19.7466 122.149 19.3466 121.968 18.8879C121.787 18.4186 121.696 17.9066 121.696 17.3519C121.696 16.8079 121.787 16.3066 121.968 15.8479C122.149 15.3786 122.4 14.9732 122.72 14.6319C123.051 14.2906 123.44 14.0239 123.888 13.8319C124.336 13.6399 124.821 13.5439 125.344 13.5439C125.941 13.5439 126.475 13.6666 126.944 13.9119C127.424 14.1466 127.813 14.4772 128.112 14.9039L127.392 15.6079L127.28 15.7199L127.2 15.6399C127.2 15.5546 127.179 15.4746 127.136 15.3999C127.104 15.3252 127.024 15.2239 126.896 15.0959C126.661 14.8826 126.411 14.7332 126.144 14.6479C125.877 14.5626 125.568 14.5199 125.216 14.5199C124.907 14.5199 124.613 14.5839 124.336 14.7119C124.059 14.8399 123.808 15.0266 123.584 15.2719C123.371 15.5066 123.2 15.7946 123.072 16.1359C122.944 16.4772 122.88 16.8559 122.88 17.2719C122.88 17.6879 122.944 18.0719 123.072 18.4239C123.2 18.7652 123.376 19.0639 123.6 19.3199C123.824 19.5759 124.091 19.7786 124.4 19.9279C124.72 20.0666 125.061 20.1359 125.424 20.1359C125.669 20.1359 125.904 20.1039 126.128 20.0399C126.352 19.9652 126.565 19.8639 126.768 19.7359C126.971 19.5972 127.157 19.4319 127.328 19.2399L128 20.0239C127.637 20.4079 127.232 20.6959 126.784 20.8879C126.347 21.0799 125.872 21.1759 125.36 21.1759ZM132.48 21.1279C131.819 21.1279 131.232 20.9679 130.72 20.6479C130.219 20.3172 129.824 19.8692 129.536 19.3039C129.248 18.7279 129.104 18.0719 129.104 17.3359C129.104 16.5892 129.248 15.9332 129.536 15.3679C129.824 14.7919 130.219 14.3439 130.72 14.0239C131.232 13.6932 131.819 13.5279 132.48 13.5279C133.141 13.5279 133.723 13.6932 134.224 14.0239C134.736 14.3439 135.136 14.7919 135.424 15.3679C135.712 15.9332 135.856 16.5892 135.856 17.3359C135.856 18.0719 135.712 18.7279 135.424 19.3039C135.136 19.8692 134.736 20.3172 134.224 20.6479C133.723 20.9679 133.141 21.1279 132.48 21.1279ZM132.48 20.1679C132.907 20.1679 133.28 20.0452 133.6 19.7999C133.92 19.5546 134.171 19.2186 134.352 18.7919C134.544 18.3652 134.64 17.8746 134.64 17.3199C134.64 16.7652 134.544 16.2746 134.352 15.8479C134.171 15.4212 133.92 15.0906 133.6 14.8559C133.28 14.6106 132.907 14.4879 132.48 14.4879C132.064 14.4879 131.691 14.6106 131.36 14.8559C131.04 15.0906 130.784 15.4212 130.592 15.8479C130.411 16.2746 130.32 16.7652 130.32 17.3199C130.32 17.8746 130.411 18.3652 130.592 18.7919C130.784 19.2186 131.04 19.5546 131.36 19.7999C131.691 20.0452 132.064 20.1679 132.48 20.1679ZM138.064 13.6879H139.264L139.216 15.8159L139.072 15.5759C139.136 15.2452 139.248 14.9519 139.408 14.6959C139.568 14.4399 139.76 14.2266 139.984 14.0559C140.208 13.8746 140.453 13.7412 140.72 13.6559C140.987 13.5599 141.264 13.5119 141.552 13.5119C141.936 13.5119 142.288 13.5812 142.608 13.7199C142.939 13.8479 143.232 14.0452 143.488 14.3119L142.976 15.2079L142.912 15.3519L142.8 15.2879C142.779 15.2026 142.747 15.1226 142.704 15.0479C142.661 14.9732 142.571 14.8826 142.432 14.7759C142.261 14.6692 142.101 14.5999 141.952 14.5679C141.813 14.5252 141.653 14.5039 141.472 14.5039C141.205 14.5039 140.939 14.5572 140.672 14.6639C140.405 14.7599 140.16 14.9146 139.936 15.1279C139.723 15.3412 139.552 15.6132 139.424 15.9439C139.296 16.2746 139.232 16.6692 139.232 17.1279V21.0159H138.064V13.6879ZM147.584 21.1599C147.211 21.1599 146.843 21.0799 146.48 20.9199C146.128 20.7599 145.803 20.5199 145.504 20.1999C145.216 19.8799 144.987 19.4746 144.816 18.9839C144.645 18.4932 144.56 17.9226 144.56 17.2719C144.56 16.5999 144.651 16.0292 144.832 15.5599C145.013 15.0799 145.253 14.6906 145.552 14.3919C145.851 14.0826 146.181 13.8586 146.544 13.7199C146.907 13.5706 147.275 13.4959 147.648 13.4959C147.989 13.4959 148.293 13.5492 148.56 13.6559C148.837 13.7626 149.077 13.9119 149.28 14.1039C149.493 14.2852 149.659 14.5039 149.776 14.7599V10.3599H150.832H150.992V10.4719C150.928 10.5359 150.885 10.6052 150.864 10.6799C150.853 10.7546 150.848 10.8826 150.848 11.0639L150.864 19.8639C150.864 20.0559 150.869 20.2479 150.88 20.4399C150.901 20.6212 150.949 20.8079 151.024 20.9999H149.888C149.835 20.8719 149.797 20.7439 149.776 20.6159C149.755 20.4879 149.739 20.3652 149.728 20.2479C149.728 20.1199 149.728 19.9919 149.728 19.8639C149.579 20.1199 149.397 20.3492 149.184 20.5519C148.971 20.7439 148.731 20.8932 148.464 20.9999C148.197 21.1066 147.904 21.1599 147.584 21.1599ZM147.76 20.1519C148.112 20.1519 148.411 20.0826 148.656 19.9439C148.901 19.7946 149.099 19.5919 149.248 19.3359C149.397 19.0692 149.504 18.7652 149.568 18.4239C149.643 18.0719 149.68 17.6986 149.68 17.3039C149.68 16.7599 149.611 16.2746 149.472 15.8479C149.333 15.4106 149.115 15.0692 148.816 14.8239C148.517 14.5679 148.133 14.4399 147.664 14.4399C147.344 14.4399 147.056 14.5039 146.8 14.6319C146.555 14.7492 146.347 14.9252 146.176 15.1599C146.016 15.3946 145.893 15.6772 145.808 16.0079C145.723 16.3279 145.68 16.6906 145.68 17.0959C145.68 17.7039 145.76 18.2372 145.92 18.6959C146.08 19.1546 146.315 19.5119 146.624 19.7679C146.933 20.0239 147.312 20.1519 147.76 20.1519ZM155.536 21.1599C155.131 21.1599 154.741 21.1172 154.368 21.0319C154.005 20.9466 153.659 20.8186 153.328 20.6479C153.008 20.4772 152.709 20.2639 152.432 20.0079L153.072 18.9199L153.168 18.7759L153.264 18.8399C153.285 18.9252 153.307 19.0159 153.328 19.1119C153.36 19.1972 153.435 19.3039 153.552 19.4319C153.776 19.6559 154.043 19.8426 154.352 19.9919C154.672 20.1306 155.077 20.1999 155.568 20.1999C155.963 20.1999 156.293 20.1519 156.56 20.0559C156.837 19.9599 157.051 19.8266 157.2 19.6559C157.349 19.4746 157.424 19.2666 157.424 19.0319C157.424 18.8719 157.392 18.7332 157.328 18.6159C157.264 18.4879 157.157 18.3706 157.008 18.2639C156.869 18.1572 156.683 18.0506 156.448 17.9439C156.213 17.8372 155.925 17.7306 155.584 17.6239C155.029 17.4639 154.544 17.2772 154.128 17.0639C153.712 16.8506 153.392 16.6052 153.168 16.3279C152.944 16.0399 152.832 15.7146 152.832 15.3519C152.832 14.9786 152.933 14.6586 153.136 14.3919C153.339 14.1146 153.637 13.9012 154.032 13.7519C154.437 13.5919 154.933 13.5119 155.52 13.5119C155.861 13.5119 156.171 13.5386 156.448 13.5919C156.725 13.6346 156.981 13.7039 157.216 13.7999C157.451 13.8959 157.664 14.0186 157.856 14.1679C158.059 14.3066 158.251 14.4719 158.432 14.6639L157.776 15.4639L157.664 15.5919L157.584 15.5119C157.573 15.4266 157.547 15.3466 157.504 15.2719C157.472 15.1866 157.397 15.0852 157.28 14.9679C157.035 14.7759 156.757 14.6319 156.448 14.5359C156.139 14.4292 155.84 14.3759 155.552 14.3759C155.125 14.3759 154.757 14.4506 154.448 14.5999C154.139 14.7492 153.984 14.9786 153.984 15.2879C153.984 15.4479 154.037 15.6079 154.144 15.7679C154.261 15.9172 154.469 16.0719 154.768 16.2319C155.067 16.3812 155.493 16.5359 156.048 16.6959C156.656 16.8879 157.141 17.0852 157.504 17.2879C157.877 17.4799 158.144 17.7039 158.304 17.9599C158.475 18.2159 158.56 18.5199 158.56 18.8719C158.56 19.2772 158.448 19.6559 158.224 20.0079C158.011 20.3599 157.68 20.6426 157.232 20.8559C156.784 21.0586 156.219 21.1599 155.536 21.1599Z" fill="white"/>
<g filter="url(#filter1_d_4657_1413)">
<path d="M6.5 62H202.5C203.328 62 204 62.6716 204 63.5V200.673H5V63.5C5 62.6716 5.67157 62 6.5 62Z" stroke="black"/>
</g>
<path d="M6.29883 83.1064H203.701" stroke="#C6C6C6"/>
<path d="M6.29883 106.385H203.701" stroke="#434343"/>
<path d="M6.29883 130.772H203.701" stroke="#434343"/>
<path d="M6.29883 155.16H203.701" stroke="#434343"/>
<path d="M6.29883 179.546H203.701" stroke="#434343"/>
<path d="M153.551 60.3271V198.891" stroke="#434343"/>
<path d="M93.8105 60.3271V198.891" stroke="#434343"/>
<path d="M36.8184 61.436V198.892" stroke="#434343"/>
<path d="M102.995 59.9257C103.386 60.3162 104.019 60.3162 104.409 59.9257L110.773 53.5617C111.164 53.1712 111.164 52.538 110.773 52.1475C110.383 51.757 109.75 51.757 109.359 52.1475L103.702 57.8044L98.045 52.1475C97.6545 51.757 97.0213 51.757 96.6308 52.1475C96.2403 52.538 96.2403 53.1712 96.6308 53.5617L102.995 59.9257ZM102.702 32.6143V59.2186H104.702V32.6143H102.702Z" fill="#576FDA"/>
<path d="M7 60.8271H203C203.828 60.8271 204.5 61.4987 204.5 62.3271V83.106H5.5V62.3271C5.5 61.4987 6.17157 60.8271 7 60.8271Z" fill="#323235" stroke="#4D4D4D"/>
<path d="M24.3754 89.1484H16.791C14.5819 89.1484 12.791 90.9393 12.791 93.1484V98.4506C12.791 100.66 14.5819 102.451 16.791 102.451H24.3754C26.5846 102.451 28.3754 100.66 28.3754 98.4506V93.1484C28.3754 90.9393 26.5846 89.1484 24.3754 89.1484Z" fill="#4B4B4D"/>
<path d="M84.1165 89.1484H45.3633C43.1541 89.1484 41.3633 90.9393 41.3633 93.1484V98.4506C41.3633 100.66 43.1541 102.451 45.3633 102.451H84.1165C86.3256 102.451 88.1165 100.66 88.1165 98.4506V93.1484C88.1165 90.9393 86.3256 89.1484 84.1165 89.1484Z" fill="#4B4B4D"/>
<path d="M143.855 89.1484H105.102C102.892 89.1484 101.102 90.9393 101.102 93.1484V98.4506C101.102 100.66 102.892 102.451 105.102 102.451H143.855C146.064 102.451 147.855 100.66 147.855 98.4506V93.1484C147.855 90.9393 146.064 89.1484 143.855 89.1484Z" fill="#4B4B4D"/>
<path d="M194.508 89.1484H162.248C160.039 89.1484 158.248 90.9393 158.248 93.1484V98.4506C158.248 100.66 160.039 102.451 162.248 102.451H194.508C196.717 102.451 198.508 100.66 198.508 98.4506V93.1484C198.508 90.9393 196.717 89.1484 194.508 89.1484Z" fill="#4B4B4D"/>
<path d="M84.1165 111.319H45.3633C43.1541 111.319 41.3633 113.11 41.3633 115.319V120.621C41.3633 122.83 43.1541 124.621 45.3633 124.621H84.1165C86.3256 124.621 88.1165 122.83 88.1165 120.621V115.319C88.1165 113.11 86.3256 111.319 84.1165 111.319Z" fill="#4B4B4D"/>
<path d="M143.855 111.319H105.102C102.892 111.319 101.102 113.11 101.102 115.319V120.621C101.102 122.83 102.892 124.621 105.102 124.621H143.855C146.064 124.621 147.855 122.83 147.855 120.621V115.319C147.855 113.11 146.064 111.319 143.855 111.319Z" fill="#4B4B4D"/>
<path d="M194.508 111.319H162.248C160.039 111.319 158.248 113.11 158.248 115.319V120.621C158.248 122.83 160.039 124.621 162.248 124.621H194.508C196.717 124.621 198.508 122.83 198.508 120.621V115.319C198.508 113.11 196.717 111.319 194.508 111.319Z" fill="#4B4B4D"/>
<path d="M84.1165 136.815H45.3633C43.1541 136.815 41.3633 138.606 41.3633 140.815V146.117C41.3633 148.326 43.1541 150.117 45.3633 150.117H84.1165C86.3256 150.117 88.1165 148.326 88.1165 146.117V140.815C88.1165 138.606 86.3256 136.815 84.1165 136.815Z" fill="#4B4B4D"/>
<path d="M143.855 136.815H105.102C102.892 136.815 101.102 138.606 101.102 140.815V146.117C101.102 148.326 102.892 150.117 105.102 150.117H143.855C146.064 150.117 147.855 148.326 147.855 146.117V140.815C147.855 138.606 146.064 136.815 143.855 136.815Z" fill="#4B4B4D"/>
<path d="M194.508 136.815H162.248C160.039 136.815 158.248 138.606 158.248 140.815V146.117C158.248 148.326 160.039 150.117 162.248 150.117H194.508C196.717 150.117 198.508 148.326 198.508 146.117V140.815C198.508 138.606 196.717 136.815 194.508 136.815Z" fill="#4B4B4D"/>
<path d="M84.1165 160.094H45.3633C43.1541 160.094 41.3633 161.885 41.3633 164.094V169.396C41.3633 171.605 43.1541 173.396 45.3633 173.396H84.1165C86.3256 173.396 88.1165 171.605 88.1165 169.396V164.094C88.1165 161.885 86.3256 160.094 84.1165 160.094Z" fill="#4B4B4D"/>
<path d="M143.855 160.094H105.102C102.892 160.094 101.102 161.885 101.102 164.094V169.396C101.102 171.605 102.892 173.396 105.102 173.396H143.855C146.064 173.396 147.855 171.605 147.855 169.396V164.094C147.855 161.885 146.064 160.094 143.855 160.094Z" fill="#4B4B4D"/>
<path d="M194.508 160.094H162.248C160.039 160.094 158.248 161.885 158.248 164.094V169.396C158.248 171.605 160.039 173.396 162.248 173.396H194.508C196.717 173.396 198.508 171.605 198.508 169.396V164.094C198.508 161.885 196.717 160.094 194.508 160.094Z" fill="#4B4B4D"/>
<path d="M84.1165 183.373H45.3633C43.1541 183.373 41.3633 185.164 41.3633 187.373V192.675C41.3633 194.884 43.1541 196.675 45.3633 196.675H84.1165C86.3256 196.675 88.1165 194.884 88.1165 192.675V187.373C88.1165 185.164 86.3256 183.373 84.1165 183.373Z" fill="#4B4B4D"/>
<path d="M143.855 183.373H105.102C102.892 183.373 101.102 185.164 101.102 187.373V192.675C101.102 194.884 102.892 196.675 105.102 196.675H143.855C146.064 196.675 147.855 194.884 147.855 192.675V187.373C147.855 185.164 146.064 183.373 143.855 183.373Z" fill="#4B4B4D"/>
<path d="M194.508 183.373H162.248C160.039 183.373 158.248 185.164 158.248 187.373V192.675C158.248 194.884 160.039 196.675 162.248 196.675H194.508C196.717 196.675 198.508 194.884 198.508 192.675V187.373C198.508 185.164 196.717 183.373 194.508 183.373Z" fill="#4B4B4D"/>
<path d="M24.3754 111.319H16.791C14.5819 111.319 12.791 113.11 12.791 115.319V120.621C12.791 122.83 14.5819 124.621 16.791 124.621H24.3754C26.5846 124.621 28.3754 122.83 28.3754 120.621V115.319C28.3754 113.11 26.5846 111.319 24.3754 111.319Z" fill="#4B4B4D"/>
<path d="M24.3754 136.815H16.791C14.5819 136.815 12.791 138.606 12.791 140.815V146.117C12.791 148.326 14.5819 150.117 16.791 150.117H24.3754C26.5846 150.117 28.3754 148.326 28.3754 146.117V140.815C28.3754 138.606 26.5846 136.815 24.3754 136.815Z" fill="#4B4B4D"/>
<path d="M24.3754 160.094H16.791C14.5819 160.094 12.791 161.885 12.791 164.094V169.396C12.791 171.605 14.5819 173.396 16.791 173.396H24.3754C26.5846 173.396 28.3754 171.605 28.3754 169.396V164.094C28.3754 161.885 26.5846 160.094 24.3754 160.094Z" fill="#4B4B4D"/>
<path d="M24.3754 183.373H16.791C14.5819 183.373 12.791 185.164 12.791 187.373V192.675C12.791 194.884 14.5819 196.675 16.791 196.675H24.3754C26.5846 196.675 28.3754 194.884 28.3754 192.675V187.373C28.3754 185.164 26.5846 183.373 24.3754 183.373Z" fill="#4B4B4D"/>
<defs>
<filter id="filter0_d_4657_1413" x="1" y="0" width="208" height="41" filterUnits="userSpaceOnUse" color-interpolation-filters="sRGB">
<feFlood flood-opacity="0" result="BackgroundImageFix"/>
<feColorMatrix in="SourceAlpha" type="matrix" values="0 0 0 0 0 0 0 0 0 0 0 0 0 0 0 0 0 0 127 0" result="hardAlpha"/>
<feOffset dy="4"/>
<feGaussianBlur stdDeviation="2"/>
<feComposite in2="hardAlpha" operator="out"/>
<feColorMatrix type="matrix" values="0 0 0 0 0 0 0 0 0 0 0 0 0 0 0 0 0 0 0.25 0"/>
<feBlend mode="normal" in2="BackgroundImageFix" result="effect1_dropShadow_4657_1413"/>
<feBlend mode="normal" in="SourceGraphic" in2="effect1_dropShadow_4657_1413" result="shape"/>
</filter>
<filter id="filter1_d_4657_1413" x="0.5" y="61.5" width="208" height="147.673" filterUnits="userSpaceOnUse" color-interpolation-filters="sRGB">
<feFlood flood-opacity="0" result="BackgroundImageFix"/>
<feColorMatrix in="SourceAlpha" type="matrix" values="0 0 0 0 0 0 0 0 0 0 0 0 0 0 0 0 0 0 127 0" result="hardAlpha"/>
<feOffset dy="4"/>
<feGaussianBlur stdDeviation="2"/>
<feComposite in2="hardAlpha" operator="out"/>
<feColorMatrix type="matrix" values="0 0 0 0 0 0 0 0 0 0 0 0 0 0 0 0 0 0 0.25 0"/>
<feBlend mode="normal" in2="BackgroundImageFix" result="effect1_dropShadow_4657_1413"/>
<feBlend mode="normal" in="SourceGraphic" in2="effect1_dropShadow_4657_1413" result="shape"/>
</filter>
</defs>
</svg>
