<svg width="208" height="208" viewBox="0 0 208 208" fill="none" xmlns="http://www.w3.org/2000/svg">
<rect x="4.5" y="0.967773" width="196.403" height="31.1469" rx="5.5" fill="white" stroke="black"/>
<path d="M38.8499 21.1187V12.5267L36.8339 13.1187L36.5779 12.4947L39.1859 11.1347H39.9699V21.1187H38.8499ZM44.5619 18.6547L48.8339 13.1667L49.2019 13.9187L44.9299 19.3427L44.5619 18.6547ZM46.8499 21.2947C46.1886 21.2947 45.6286 21.0973 45.1699 20.7027C44.7113 20.308 44.3593 19.732 44.1139 18.9747C43.8793 18.2067 43.7619 17.2787 43.7619 16.1907C43.7619 15.1347 43.8793 14.228 44.1139 13.4707C44.3593 12.7027 44.7113 12.116 45.1699 11.7107C45.6286 11.2947 46.1886 11.0867 46.8499 11.0867C47.5113 11.0867 48.0713 11.2947 48.5299 11.7107C48.9886 12.116 49.3353 12.7027 49.5699 13.4707C49.8153 14.228 49.9379 15.1347 49.9379 16.1907C49.9379 17.2787 49.8153 18.2067 49.5699 18.9747C49.3353 19.732 48.9886 20.308 48.5299 20.7027C48.0713 21.0973 47.5113 21.2947 46.8499 21.2947ZM46.8499 20.3187C47.2553 20.3187 47.6019 20.1587 47.8899 19.8387C48.1779 19.5187 48.3966 19.0547 48.5459 18.4467C48.7059 17.828 48.7859 17.076 48.7859 16.1907C48.7859 15.348 48.7059 14.6227 48.5459 14.0147C48.3966 13.396 48.1779 12.916 47.8899 12.5747C47.6019 12.2333 47.2553 12.0627 46.8499 12.0627C46.4446 12.0627 46.0979 12.2333 45.8099 12.5747C45.5219 12.916 45.2979 13.396 45.1379 14.0147C44.9886 14.6227 44.9139 15.348 44.9139 16.1907C44.9139 17.076 44.9886 17.828 45.1379 18.4467C45.2979 19.0547 45.5219 19.5187 45.8099 19.8387C46.0979 20.1587 46.4446 20.3187 46.8499 20.3187ZM52.2419 18.6547L56.5139 13.1667L56.8819 13.9187L52.6099 19.3427L52.2419 18.6547ZM54.5299 21.2947C53.8686 21.2947 53.3086 21.0973 52.8499 20.7027C52.3913 20.308 52.0393 19.732 51.7939 18.9747C51.5593 18.2067 51.4419 17.2787 51.4419 16.1907C51.4419 15.1347 51.5593 14.228 51.7939 13.4707C52.0393 12.7027 52.3913 12.116 52.8499 11.7107C53.3086 11.2947 53.8686 11.0867 54.5299 11.0867C55.1913 11.0867 55.7513 11.2947 56.2099 11.7107C56.6686 12.116 57.0153 12.7027 57.2499 13.4707C57.4953 14.228 57.6179 15.1347 57.6179 16.1907C57.6179 17.2787 57.4953 18.2067 57.2499 18.9747C57.0153 19.732 56.6686 20.308 56.2099 20.7027C55.7513 21.0973 55.1913 21.2947 54.5299 21.2947ZM54.5299 20.3187C54.9353 20.3187 55.2819 20.1587 55.5699 19.8387C55.8579 19.5187 56.0766 19.0547 56.2259 18.4467C56.3859 17.828 56.4659 17.076 56.4659 16.1907C56.4659 15.348 56.3859 14.6227 56.2259 14.0147C56.0766 13.396 55.8579 12.916 55.5699 12.5747C55.2819 12.2333 54.9353 12.0627 54.5299 12.0627C54.1246 12.0627 53.7779 12.2333 53.4899 12.5747C53.2019 12.916 52.9779 13.396 52.8179 14.0147C52.6686 14.6227 52.5939 15.348 52.5939 16.1907C52.5939 17.076 52.6686 17.828 52.8179 18.4467C52.9779 19.0547 53.2019 19.5187 53.4899 19.8387C53.7779 20.1587 54.1246 20.3187 54.5299 20.3187ZM59.9219 18.6547L64.1939 13.1667L64.5619 13.9187L60.2899 19.3427L59.9219 18.6547ZM62.2099 21.2947C61.5486 21.2947 60.9886 21.0973 60.5299 20.7027C60.0713 20.308 59.7193 19.732 59.4739 18.9747C59.2393 18.2067 59.1219 17.2787 59.1219 16.1907C59.1219 15.1347 59.2393 14.228 59.4739 13.4707C59.7193 12.7027 60.0713 12.116 60.5299 11.7107C60.9886 11.2947 61.5486 11.0867 62.2099 11.0867C62.8713 11.0867 63.4313 11.2947 63.8899 11.7107C64.3486 12.116 64.6953 12.7027 64.9299 13.4707C65.1753 14.228 65.2979 15.1347 65.2979 16.1907C65.2979 17.2787 65.1753 18.2067 64.9299 18.9747C64.6953 19.732 64.3486 20.308 63.8899 20.7027C63.4313 21.0973 62.8713 21.2947 62.2099 21.2947ZM62.2099 20.3187C62.6153 20.3187 62.9619 20.1587 63.2499 19.8387C63.5379 19.5187 63.7566 19.0547 63.9059 18.4467C64.0659 17.828 64.1459 17.076 64.1459 16.1907C64.1459 15.348 64.0659 14.6227 63.9059 14.0147C63.7566 13.396 63.5379 12.916 63.2499 12.5747C62.9619 12.2333 62.6153 12.0627 62.2099 12.0627C61.8046 12.0627 61.4579 12.2333 61.1699 12.5747C60.8819 12.916 60.6579 13.396 60.4979 14.0147C60.3486 14.6227 60.2739 15.348 60.2739 16.1907C60.2739 17.076 60.3486 17.828 60.4979 18.4467C60.6579 19.0547 60.8819 19.5187 61.1699 19.8387C61.4579 20.1587 61.8046 20.3187 62.2099 20.3187ZM67.6019 18.6547L71.8739 13.1667L72.2419 13.9187L67.9699 19.3427L67.6019 18.6547ZM69.8899 21.2947C69.2286 21.2947 68.6686 21.0973 68.2099 20.7027C67.7513 20.308 67.3993 19.732 67.1539 18.9747C66.9193 18.2067 66.8019 17.2787 66.8019 16.1907C66.8019 15.1347 66.9193 14.228 67.1539 13.4707C67.3993 12.7027 67.7513 12.116 68.2099 11.7107C68.6686 11.2947 69.2286 11.0867 69.8899 11.0867C70.5513 11.0867 71.1113 11.2947 71.5699 11.7107C72.0286 12.116 72.3753 12.7027 72.6099 13.4707C72.8553 14.228 72.9779 15.1347 72.9779 16.1907C72.9779 17.2787 72.8553 18.2067 72.6099 18.9747C72.3753 19.732 72.0286 20.308 71.5699 20.7027C71.1113 21.0973 70.5513 21.2947 69.8899 21.2947ZM69.8899 20.3187C70.2953 20.3187 70.6419 20.1587 70.9299 19.8387C71.2179 19.5187 71.4366 19.0547 71.5859 18.4467C71.7459 17.828 71.8259 17.076 71.8259 16.1907C71.8259 15.348 71.7459 14.6227 71.5859 14.0147C71.4366 13.396 71.2179 12.916 70.9299 12.5747C70.6419 12.2333 70.2953 12.0627 69.8899 12.0627C69.4846 12.0627 69.1379 12.2333 68.8499 12.5747C68.5619 12.916 68.3379 13.396 68.1779 14.0147C68.0286 14.6227 67.9539 15.348 67.9539 16.1907C67.9539 17.076 68.0286 17.828 68.1779 18.4467C68.3379 19.0547 68.5619 19.5187 68.8499 19.8387C69.1379 20.1587 69.4846 20.3187 69.8899 20.3187ZM82.1459 21.1187V11.1507H85.0899C85.8793 11.1507 86.5139 11.268 86.9939 11.5027C87.4846 11.7373 87.8419 12.068 88.0659 12.4947C88.2899 12.9213 88.4019 13.4227 88.4019 13.9987C88.4019 14.372 88.3166 14.7453 88.1459 15.1187C87.9859 15.492 87.7513 15.8173 87.4419 16.0947C87.1433 16.372 86.7859 16.564 86.3699 16.6707L88.6739 21.1187H87.4259L85.2179 16.7187H83.2819V21.1187H82.1459ZM83.2819 15.7267H85.2179C85.9326 15.7267 86.4499 15.572 86.7699 15.2627C87.0899 14.9427 87.2499 14.5213 87.2499 13.9987C87.2499 13.668 87.1806 13.3693 87.0419 13.1027C86.9033 12.8253 86.6846 12.6067 86.3859 12.4467C86.0873 12.2867 85.6979 12.2067 85.2179 12.2067H83.2819V15.7267ZM93.2819 21.2787C92.7486 21.2787 92.2633 21.1987 91.8259 21.0387C91.3886 20.868 91.0099 20.6227 90.6899 20.3027C90.3806 19.9827 90.1406 19.588 89.9699 19.1187C89.7993 18.6387 89.7139 18.0947 89.7139 17.4867C89.7139 16.868 89.7993 16.3187 89.9699 15.8387C90.1513 15.3587 90.3913 14.9587 90.6899 14.6387C90.9993 14.308 91.3566 14.0573 91.7619 13.8867C92.1779 13.716 92.6153 13.6307 93.0739 13.6307C93.4899 13.6307 93.8793 13.7 94.2419 13.8387C94.6046 13.9773 94.9193 14.1907 95.1859 14.4787C95.4526 14.756 95.6606 15.1133 95.8099 15.5507C95.9699 15.988 96.0499 16.5053 96.0499 17.1027C96.0499 17.188 96.0446 17.2787 96.0339 17.3747C96.0339 17.46 96.0286 17.5453 96.0179 17.6307H90.8179C90.8393 18.1 90.9193 18.5107 91.0579 18.8627C91.1966 19.204 91.3779 19.4867 91.6019 19.7107C91.8259 19.924 92.0819 20.084 92.3699 20.1907C92.6686 20.2973 92.9833 20.3507 93.3139 20.3507C93.5699 20.3507 93.8099 20.324 94.0339 20.2707C94.2579 20.2067 94.4659 20.116 94.6579 19.9987C94.8606 19.8707 95.0419 19.716 95.2019 19.5347L95.8419 20.1587C95.6393 20.404 95.4046 20.612 95.1379 20.7827C94.8819 20.9533 94.5993 21.076 94.2899 21.1507C93.9806 21.236 93.6446 21.2787 93.2819 21.2787ZM90.8659 16.7347H94.8819C94.8819 16.3933 94.8339 16.0893 94.7379 15.8227C94.6526 15.5453 94.5246 15.3107 94.3539 15.1187C94.1939 14.916 93.9966 14.7667 93.7619 14.6707C93.5379 14.564 93.2819 14.5107 92.9939 14.5107C92.7379 14.5107 92.4926 14.5533 92.2579 14.6387C92.0339 14.724 91.8259 14.8627 91.6339 15.0547C91.4419 15.236 91.2766 15.4653 91.1379 15.7427C91.0099 16.02 90.9193 16.3507 90.8659 16.7347ZM101.17 21.2947C100.637 21.2947 100.146 21.1987 99.6979 21.0067C99.2499 20.8147 98.8606 20.548 98.5299 20.2067C98.2099 19.8653 97.9593 19.4653 97.7779 19.0067C97.5966 18.5373 97.5059 18.0253 97.5059 17.4707C97.5059 16.9267 97.5966 16.4253 97.7779 15.9667C97.9593 15.4973 98.2099 15.092 98.5299 14.7507C98.8606 14.4093 99.2499 14.1427 99.6979 13.9507C100.146 13.7587 100.631 13.6627 101.154 13.6627C101.751 13.6627 102.285 13.7853 102.754 14.0307C103.234 14.2653 103.623 14.596 103.922 15.0227L103.202 15.7267L103.09 15.8387L103.01 15.7587C103.01 15.6733 102.989 15.5933 102.946 15.5187C102.914 15.444 102.834 15.3427 102.706 15.2147C102.471 15.0013 102.221 14.852 101.954 14.7667C101.687 14.6813 101.378 14.6387 101.026 14.6387C100.717 14.6387 100.423 14.7027 100.146 14.8307C99.8686 14.9587 99.6179 15.1453 99.3939 15.3907C99.1806 15.6253 99.0099 15.9133 98.8819 16.2547C98.7539 16.596 98.6899 16.9747 98.6899 17.3907C98.6899 17.8067 98.7539 18.1907 98.8819 18.5427C99.0099 18.884 99.1859 19.1827 99.4099 19.4387C99.6339 19.6947 99.9006 19.8973 100.21 20.0467C100.53 20.1853 100.871 20.2547 101.234 20.2547C101.479 20.2547 101.714 20.2227 101.938 20.1587C102.162 20.084 102.375 19.9827 102.578 19.8547C102.781 19.716 102.967 19.5507 103.138 19.3587L103.81 20.1427C103.447 20.5267 103.042 20.8147 102.594 21.0067C102.157 21.1987 101.682 21.2947 101.17 21.2947ZM108.29 21.2467C107.629 21.2467 107.042 21.0867 106.53 20.7667C106.029 20.436 105.634 19.988 105.346 19.4227C105.058 18.8467 104.914 18.1907 104.914 17.4547C104.914 16.708 105.058 16.052 105.346 15.4867C105.634 14.9107 106.029 14.4627 106.53 14.1427C107.042 13.812 107.629 13.6467 108.29 13.6467C108.951 13.6467 109.533 13.812 110.034 14.1427C110.546 14.4627 110.946 14.9107 111.234 15.4867C111.522 16.052 111.666 16.708 111.666 17.4547C111.666 18.1907 111.522 18.8467 111.234 19.4227C110.946 19.988 110.546 20.436 110.034 20.7667C109.533 21.0867 108.951 21.2467 108.29 21.2467ZM108.29 20.2867C108.717 20.2867 109.09 20.164 109.41 19.9187C109.73 19.6733 109.981 19.3373 110.162 18.9107C110.354 18.484 110.45 17.9933 110.45 17.4387C110.45 16.884 110.354 16.3933 110.162 15.9667C109.981 15.54 109.73 15.2093 109.41 14.9747C109.09 14.7293 108.717 14.6067 108.29 14.6067C107.874 14.6067 107.501 14.7293 107.17 14.9747C106.85 15.2093 106.594 15.54 106.402 15.9667C106.221 16.3933 106.13 16.884 106.13 17.4387C106.13 17.9933 106.221 18.484 106.402 18.9107C106.594 19.3373 106.85 19.6733 107.17 19.9187C107.501 20.164 107.874 20.2867 108.29 20.2867ZM113.874 13.8067H115.074L115.026 15.9347L114.882 15.6947C114.946 15.364 115.058 15.0707 115.218 14.8147C115.378 14.5587 115.57 14.3453 115.794 14.1747C116.018 13.9933 116.263 13.86 116.53 13.7747C116.797 13.6787 117.074 13.6307 117.362 13.6307C117.746 13.6307 118.098 13.7 118.418 13.8387C118.749 13.9667 119.042 14.164 119.298 14.4307L118.786 15.3267L118.722 15.4707L118.61 15.4067C118.589 15.3213 118.557 15.2413 118.514 15.1667C118.471 15.092 118.381 15.0013 118.242 14.8947C118.071 14.788 117.911 14.7187 117.762 14.6867C117.623 14.644 117.463 14.6227 117.282 14.6227C117.015 14.6227 116.749 14.676 116.482 14.7827C116.215 14.8787 115.97 15.0333 115.746 15.2467C115.533 15.46 115.362 15.732 115.234 16.0627C115.106 16.3933 115.042 16.788 115.042 17.2467V21.1347H113.874V13.8067ZM123.394 21.2787C123.021 21.2787 122.653 21.1987 122.29 21.0387C121.938 20.8787 121.613 20.6387 121.314 20.3187C121.026 19.9987 120.797 19.5933 120.626 19.1027C120.455 18.612 120.37 18.0413 120.37 17.3907C120.37 16.7187 120.461 16.148 120.642 15.6787C120.823 15.1987 121.063 14.8093 121.362 14.5107C121.661 14.2013 121.991 13.9773 122.354 13.8387C122.717 13.6893 123.085 13.6147 123.458 13.6147C123.799 13.6147 124.103 13.668 124.37 13.7747C124.647 13.8813 124.887 14.0307 125.09 14.2227C125.303 14.404 125.469 14.6227 125.586 14.8787V10.4787H126.642H126.802V10.5907C126.738 10.6547 126.695 10.724 126.674 10.7987C126.663 10.8733 126.658 11.0013 126.658 11.1827L126.674 19.9827C126.674 20.1747 126.679 20.3667 126.69 20.5587C126.711 20.74 126.759 20.9267 126.834 21.1187H125.698C125.645 20.9907 125.607 20.8627 125.586 20.7347C125.565 20.6067 125.549 20.484 125.538 20.3667C125.538 20.2387 125.538 20.1107 125.538 19.9827C125.389 20.2387 125.207 20.468 124.994 20.6707C124.781 20.8627 124.541 21.012 124.274 21.1187C124.007 21.2253 123.714 21.2787 123.394 21.2787ZM123.57 20.2707C123.922 20.2707 124.221 20.2013 124.466 20.0627C124.711 19.9133 124.909 19.7107 125.058 19.4547C125.207 19.188 125.314 18.884 125.378 18.5427C125.453 18.1907 125.49 17.8173 125.49 17.4227C125.49 16.8787 125.421 16.3933 125.282 15.9667C125.143 15.5293 124.925 15.188 124.626 14.9427C124.327 14.6867 123.943 14.5587 123.474 14.5587C123.154 14.5587 122.866 14.6227 122.61 14.7507C122.365 14.868 122.157 15.044 121.986 15.2787C121.826 15.5133 121.703 15.796 121.618 16.1267C121.533 16.4467 121.49 16.8093 121.49 17.2147C121.49 17.8227 121.57 18.356 121.73 18.8147C121.89 19.2733 122.125 19.6307 122.434 19.8867C122.743 20.1427 123.122 20.2707 123.57 20.2707ZM131.346 21.2787C130.941 21.2787 130.551 21.236 130.178 21.1507C129.815 21.0653 129.469 20.9373 129.138 20.7667C128.818 20.596 128.519 20.3827 128.242 20.1267L128.882 19.0387L128.978 18.8947L129.074 18.9587C129.095 19.044 129.117 19.1347 129.138 19.2307C129.17 19.316 129.245 19.4227 129.362 19.5507C129.586 19.7747 129.853 19.9613 130.162 20.1107C130.482 20.2493 130.887 20.3187 131.378 20.3187C131.773 20.3187 132.103 20.2707 132.37 20.1747C132.647 20.0787 132.861 19.9453 133.01 19.7747C133.159 19.5933 133.234 19.3853 133.234 19.1507C133.234 18.9907 133.202 18.852 133.138 18.7347C133.074 18.6067 132.967 18.4893 132.818 18.3827C132.679 18.276 132.493 18.1693 132.258 18.0627C132.023 17.956 131.735 17.8493 131.394 17.7427C130.839 17.5827 130.354 17.396 129.938 17.1827C129.522 16.9693 129.202 16.724 128.978 16.4467C128.754 16.1587 128.642 15.8333 128.642 15.4707C128.642 15.0973 128.743 14.7773 128.946 14.5107C129.149 14.2333 129.447 14.02 129.842 13.8707C130.247 13.7107 130.743 13.6307 131.33 13.6307C131.671 13.6307 131.981 13.6573 132.258 13.7107C132.535 13.7533 132.791 13.8227 133.026 13.9187C133.261 14.0147 133.474 14.1373 133.666 14.2867C133.869 14.4253 134.061 14.5907 134.242 14.7827L133.586 15.5827L133.474 15.7107L133.394 15.6307C133.383 15.5453 133.357 15.4653 133.314 15.3907C133.282 15.3053 133.207 15.204 133.09 15.0867C132.845 14.8947 132.567 14.7507 132.258 14.6547C131.949 14.548 131.65 14.4947 131.362 14.4947C130.935 14.4947 130.567 14.5693 130.258 14.7187C129.949 14.868 129.794 15.0973 129.794 15.4067C129.794 15.5667 129.847 15.7267 129.954 15.8867C130.071 16.036 130.279 16.1907 130.578 16.3507C130.877 16.5 131.303 16.6547 131.858 16.8147C132.466 17.0067 132.951 17.204 133.314 17.4067C133.687 17.5987 133.954 17.8227 134.114 18.0787C134.285 18.3347 134.37 18.6387 134.37 18.9907C134.37 19.396 134.258 19.7747 134.034 20.1267C133.821 20.4787 133.49 20.7613 133.042 20.9747C132.594 21.1773 132.029 21.2787 131.346 21.2787Z" fill="black"/>
<g filter="url(#filter0_d_4657_1227)">
<rect x="4" width="200" height="33" rx="6" fill="white"/>
<rect x="4.5" y="0.5" width="199" height="32" rx="5.5" stroke="black"/>
</g>
<path d="M46.68 21V12.408L44.664 13L44.408 12.376L47.016 11.016H47.8V21H46.68ZM52.392 18.536L56.664 13.048L57.032 13.8L52.76 19.224L52.392 18.536ZM54.68 21.176C54.0187 21.176 53.4587 20.9787 53 20.584C52.5413 20.1893 52.1893 19.6133 51.944 18.856C51.7093 18.088 51.592 17.16 51.592 16.072C51.592 15.016 51.7093 14.1093 51.944 13.352C52.1893 12.584 52.5413 11.9973 53 11.592C53.4587 11.176 54.0187 10.968 54.68 10.968C55.3413 10.968 55.9013 11.176 56.36 11.592C56.8187 11.9973 57.1653 12.584 57.4 13.352C57.6453 14.1093 57.768 15.016 57.768 16.072C57.768 17.16 57.6453 18.088 57.4 18.856C57.1653 19.6133 56.8187 20.1893 56.36 20.584C55.9013 20.9787 55.3413 21.176 54.68 21.176ZM54.68 20.2C55.0853 20.2 55.432 20.04 55.72 19.72C56.008 19.4 56.2267 18.936 56.376 18.328C56.536 17.7093 56.616 16.9573 56.616 16.072C56.616 15.2293 56.536 14.504 56.376 13.896C56.2267 13.2773 56.008 12.7973 55.72 12.456C55.432 12.1147 55.0853 11.944 54.68 11.944C54.2747 11.944 53.928 12.1147 53.64 12.456C53.352 12.7973 53.128 13.2773 52.968 13.896C52.8187 14.504 52.744 15.2293 52.744 16.072C52.744 16.9573 52.8187 17.7093 52.968 18.328C53.128 18.936 53.352 19.4 53.64 19.72C53.928 20.04 54.2747 20.2 54.68 20.2ZM60.072 18.536L64.344 13.048L64.712 13.8L60.44 19.224L60.072 18.536ZM62.36 21.176C61.6987 21.176 61.1387 20.9787 60.68 20.584C60.2213 20.1893 59.8693 19.6133 59.624 18.856C59.3893 18.088 59.272 17.16 59.272 16.072C59.272 15.016 59.3893 14.1093 59.624 13.352C59.8693 12.584 60.2213 11.9973 60.68 11.592C61.1387 11.176 61.6987 10.968 62.36 10.968C63.0213 10.968 63.5813 11.176 64.04 11.592C64.4987 11.9973 64.8453 12.584 65.08 13.352C65.3253 14.1093 65.448 15.016 65.448 16.072C65.448 17.16 65.3253 18.088 65.08 18.856C64.8453 19.6133 64.4987 20.1893 64.04 20.584C63.5813 20.9787 63.0213 21.176 62.36 21.176ZM62.36 20.2C62.7653 20.2 63.112 20.04 63.4 19.72C63.688 19.4 63.9067 18.936 64.056 18.328C64.216 17.7093 64.296 16.9573 64.296 16.072C64.296 15.2293 64.216 14.504 64.056 13.896C63.9067 13.2773 63.688 12.7973 63.4 12.456C63.112 12.1147 62.7653 11.944 62.36 11.944C61.9547 11.944 61.608 12.1147 61.32 12.456C61.032 12.7973 60.808 13.2773 60.648 13.896C60.4987 14.504 60.424 15.2293 60.424 16.072C60.424 16.9573 60.4987 17.7093 60.648 18.328C60.808 18.936 61.032 19.4 61.32 19.72C61.608 20.04 61.9547 20.2 62.36 20.2ZM69.224 23.688L68.68 23.208C68.9787 22.9307 69.224 22.632 69.416 22.312C69.6187 21.992 69.72 21.7307 69.72 21.528C69.72 21.4213 69.6773 21.32 69.592 21.224C69.5173 21.1387 69.4213 21.0533 69.304 20.968C69.1973 20.8827 69.1013 20.7867 69.016 20.68C68.9413 20.5627 68.904 20.4347 68.904 20.296C68.904 20.0293 68.9893 19.8053 69.16 19.624C69.3413 19.4427 69.5707 19.352 69.848 19.352C70.1253 19.352 70.376 19.4747 70.6 19.72C70.824 19.9653 70.936 20.2853 70.936 20.68C70.936 20.8933 70.8987 21.112 70.824 21.336C70.76 21.5707 70.6533 21.8107 70.504 22.056C70.3653 22.312 70.1893 22.5733 69.976 22.84C69.7627 23.1173 69.512 23.4 69.224 23.688ZM75.432 18.536L79.704 13.048L80.072 13.8L75.8 19.224L75.432 18.536ZM77.72 21.176C77.0587 21.176 76.4987 20.9787 76.04 20.584C75.5813 20.1893 75.2293 19.6133 74.984 18.856C74.7493 18.088 74.632 17.16 74.632 16.072C74.632 15.016 74.7493 14.1093 74.984 13.352C75.2293 12.584 75.5813 11.9973 76.04 11.592C76.4987 11.176 77.0587 10.968 77.72 10.968C78.3813 10.968 78.9413 11.176 79.4 11.592C79.8587 11.9973 80.2053 12.584 80.44 13.352C80.6853 14.1093 80.808 15.016 80.808 16.072C80.808 17.16 80.6853 18.088 80.44 18.856C80.2053 19.6133 79.8587 20.1893 79.4 20.584C78.9413 20.9787 78.3813 21.176 77.72 21.176ZM77.72 20.2C78.1253 20.2 78.472 20.04 78.76 19.72C79.048 19.4 79.2667 18.936 79.416 18.328C79.576 17.7093 79.656 16.9573 79.656 16.072C79.656 15.2293 79.576 14.504 79.416 13.896C79.2667 13.2773 79.048 12.7973 78.76 12.456C78.472 12.1147 78.1253 11.944 77.72 11.944C77.3147 11.944 76.968 12.1147 76.68 12.456C76.392 12.7973 76.168 13.2773 76.008 13.896C75.8587 14.504 75.784 15.2293 75.784 16.072C75.784 16.9573 75.8587 17.7093 76.008 18.328C76.168 18.936 76.392 19.4 76.68 19.72C76.968 20.04 77.3147 20.2 77.72 20.2ZM83.112 18.536L87.384 13.048L87.752 13.8L83.48 19.224L83.112 18.536ZM85.4 21.176C84.7387 21.176 84.1787 20.9787 83.72 20.584C83.2613 20.1893 82.9093 19.6133 82.664 18.856C82.4293 18.088 82.312 17.16 82.312 16.072C82.312 15.016 82.4293 14.1093 82.664 13.352C82.9093 12.584 83.2613 11.9973 83.72 11.592C84.1787 11.176 84.7387 10.968 85.4 10.968C86.0613 10.968 86.6213 11.176 87.08 11.592C87.5387 11.9973 87.8853 12.584 88.12 13.352C88.3653 14.1093 88.488 15.016 88.488 16.072C88.488 17.16 88.3653 18.088 88.12 18.856C87.8853 19.6133 87.5387 20.1893 87.08 20.584C86.6213 20.9787 86.0613 21.176 85.4 21.176ZM85.4 20.2C85.8053 20.2 86.152 20.04 86.44 19.72C86.728 19.4 86.9467 18.936 87.096 18.328C87.256 17.7093 87.336 16.9573 87.336 16.072C87.336 15.2293 87.256 14.504 87.096 13.896C86.9467 13.2773 86.728 12.7973 86.44 12.456C86.152 12.1147 85.8053 11.944 85.4 11.944C84.9947 11.944 84.648 12.1147 84.36 12.456C84.072 12.7973 83.848 13.2773 83.688 13.896C83.5387 14.504 83.464 15.2293 83.464 16.072C83.464 16.9573 83.5387 17.7093 83.688 18.328C83.848 18.936 84.072 19.4 84.36 19.72C84.648 20.04 84.9947 20.2 85.4 20.2ZM90.792 18.536L95.064 13.048L95.432 13.8L91.16 19.224L90.792 18.536ZM93.08 21.176C92.4187 21.176 91.8587 20.9787 91.4 20.584C90.9413 20.1893 90.5893 19.6133 90.344 18.856C90.1093 18.088 89.992 17.16 89.992 16.072C89.992 15.016 90.1093 14.1093 90.344 13.352C90.5893 12.584 90.9413 11.9973 91.4 11.592C91.8587 11.176 92.4187 10.968 93.08 10.968C93.7413 10.968 94.3013 11.176 94.76 11.592C95.2187 11.9973 95.5653 12.584 95.8 13.352C96.0453 14.1093 96.168 15.016 96.168 16.072C96.168 17.16 96.0453 18.088 95.8 18.856C95.5653 19.6133 95.2187 20.1893 94.76 20.584C94.3013 20.9787 93.7413 21.176 93.08 21.176ZM93.08 20.2C93.4853 20.2 93.832 20.04 94.12 19.72C94.408 19.4 94.6267 18.936 94.776 18.328C94.936 17.7093 95.016 16.9573 95.016 16.072C95.016 15.2293 94.936 14.504 94.776 13.896C94.6267 13.2773 94.408 12.7973 94.12 12.456C93.832 12.1147 93.4853 11.944 93.08 11.944C92.6747 11.944 92.328 12.1147 92.04 12.456C91.752 12.7973 91.528 13.2773 91.368 13.896C91.2187 14.504 91.144 15.2293 91.144 16.072C91.144 16.9573 91.2187 17.7093 91.368 18.328C91.528 18.936 91.752 19.4 92.04 19.72C92.328 20.04 92.6747 20.2 93.08 20.2ZM105.336 21V11.032H108.28C109.069 11.032 109.704 11.1493 110.184 11.384C110.675 11.6187 111.032 11.9493 111.256 12.376C111.48 12.8027 111.592 13.304 111.592 13.88C111.592 14.2533 111.507 14.6267 111.336 15C111.176 15.3733 110.941 15.6987 110.632 15.976C110.333 16.2533 109.976 16.4453 109.56 16.552L111.864 21H110.616L108.408 16.6H106.472V21H105.336ZM106.472 15.608H108.408C109.123 15.608 109.64 15.4533 109.96 15.144C110.28 14.824 110.44 14.4027 110.44 13.88C110.44 13.5493 110.371 13.2507 110.232 12.984C110.093 12.7067 109.875 12.488 109.576 12.328C109.277 12.168 108.888 12.088 108.408 12.088H106.472V15.608ZM116.472 21.16C115.939 21.16 115.453 21.08 115.016 20.92C114.579 20.7493 114.2 20.504 113.88 20.184C113.571 19.864 113.331 19.4693 113.16 19C112.989 18.52 112.904 17.976 112.904 17.368C112.904 16.7493 112.989 16.2 113.16 15.72C113.341 15.24 113.581 14.84 113.88 14.52C114.189 14.1893 114.547 13.9387 114.952 13.768C115.368 13.5973 115.805 13.512 116.264 13.512C116.68 13.512 117.069 13.5813 117.432 13.72C117.795 13.8587 118.109 14.072 118.376 14.36C118.643 14.6373 118.851 14.9947 119 15.432C119.16 15.8693 119.24 16.3867 119.24 16.984C119.24 17.0693 119.235 17.16 119.224 17.256C119.224 17.3413 119.219 17.4267 119.208 17.512H114.008C114.029 17.9813 114.109 18.392 114.248 18.744C114.387 19.0853 114.568 19.368 114.792 19.592C115.016 19.8053 115.272 19.9653 115.56 20.072C115.859 20.1787 116.173 20.232 116.504 20.232C116.76 20.232 117 20.2053 117.224 20.152C117.448 20.088 117.656 19.9973 117.848 19.88C118.051 19.752 118.232 19.5973 118.392 19.416L119.032 20.04C118.829 20.2853 118.595 20.4933 118.328 20.664C118.072 20.8347 117.789 20.9573 117.48 21.032C117.171 21.1173 116.835 21.16 116.472 21.16ZM114.056 16.616H118.072C118.072 16.2747 118.024 15.9707 117.928 15.704C117.843 15.4267 117.715 15.192 117.544 15C117.384 14.7973 117.187 14.648 116.952 14.552C116.728 14.4453 116.472 14.392 116.184 14.392C115.928 14.392 115.683 14.4347 115.448 14.52C115.224 14.6053 115.016 14.744 114.824 14.936C114.632 15.1173 114.467 15.3467 114.328 15.624C114.2 15.9013 114.109 16.232 114.056 16.616ZM124.36 21.176C123.827 21.176 123.336 21.08 122.888 20.888C122.44 20.696 122.051 20.4293 121.72 20.088C121.4 19.7467 121.149 19.3467 120.968 18.888C120.787 18.4187 120.696 17.9067 120.696 17.352C120.696 16.808 120.787 16.3067 120.968 15.848C121.149 15.3787 121.4 14.9733 121.72 14.632C122.051 14.2907 122.44 14.024 122.888 13.832C123.336 13.64 123.821 13.544 124.344 13.544C124.941 13.544 125.475 13.6667 125.944 13.912C126.424 14.1467 126.813 14.4773 127.112 14.904L126.392 15.608L126.28 15.72L126.2 15.64C126.2 15.5547 126.179 15.4747 126.136 15.4C126.104 15.3253 126.024 15.224 125.896 15.096C125.661 14.8827 125.411 14.7333 125.144 14.648C124.877 14.5627 124.568 14.52 124.216 14.52C123.907 14.52 123.613 14.584 123.336 14.712C123.059 14.84 122.808 15.0267 122.584 15.272C122.371 15.5067 122.2 15.7947 122.072 16.136C121.944 16.4773 121.88 16.856 121.88 17.272C121.88 17.688 121.944 18.072 122.072 18.424C122.2 18.7653 122.376 19.064 122.6 19.32C122.824 19.576 123.091 19.7787 123.4 19.928C123.72 20.0667 124.061 20.136 124.424 20.136C124.669 20.136 124.904 20.104 125.128 20.04C125.352 19.9653 125.565 19.864 125.768 19.736C125.971 19.5973 126.157 19.432 126.328 19.24L127 20.024C126.637 20.408 126.232 20.696 125.784 20.888C125.347 21.08 124.872 21.176 124.36 21.176ZM131.48 21.128C130.819 21.128 130.232 20.968 129.72 20.648C129.219 20.3173 128.824 19.8693 128.536 19.304C128.248 18.728 128.104 18.072 128.104 17.336C128.104 16.5893 128.248 15.9333 128.536 15.368C128.824 14.792 129.219 14.344 129.72 14.024C130.232 13.6933 130.819 13.528 131.48 13.528C132.141 13.528 132.723 13.6933 133.224 14.024C133.736 14.344 134.136 14.792 134.424 15.368C134.712 15.9333 134.856 16.5893 134.856 17.336C134.856 18.072 134.712 18.728 134.424 19.304C134.136 19.8693 133.736 20.3173 133.224 20.648C132.723 20.968 132.141 21.128 131.48 21.128ZM131.48 20.168C131.907 20.168 132.28 20.0453 132.6 19.8C132.92 19.5547 133.171 19.2187 133.352 18.792C133.544 18.3653 133.64 17.8747 133.64 17.32C133.64 16.7653 133.544 16.2747 133.352 15.848C133.171 15.4213 132.92 15.0907 132.6 14.856C132.28 14.6107 131.907 14.488 131.48 14.488C131.064 14.488 130.691 14.6107 130.36 14.856C130.04 15.0907 129.784 15.4213 129.592 15.848C129.411 16.2747 129.32 16.7653 129.32 17.32C129.32 17.8747 129.411 18.3653 129.592 18.792C129.784 19.2187 130.04 19.5547 130.36 19.8C130.691 20.0453 131.064 20.168 131.48 20.168ZM137.064 13.688H138.264L138.216 15.816L138.072 15.576C138.136 15.2453 138.248 14.952 138.408 14.696C138.568 14.44 138.76 14.2267 138.984 14.056C139.208 13.8747 139.453 13.7413 139.72 13.656C139.987 13.56 140.264 13.512 140.552 13.512C140.936 13.512 141.288 13.5813 141.608 13.72C141.939 13.848 142.232 14.0453 142.488 14.312L141.976 15.208L141.912 15.352L141.8 15.288C141.779 15.2027 141.747 15.1227 141.704 15.048C141.661 14.9733 141.571 14.8827 141.432 14.776C141.261 14.6693 141.101 14.6 140.952 14.568C140.813 14.5253 140.653 14.504 140.472 14.504C140.205 14.504 139.939 14.5573 139.672 14.664C139.405 14.76 139.16 14.9147 138.936 15.128C138.723 15.3413 138.552 15.6133 138.424 15.944C138.296 16.2747 138.232 16.6693 138.232 17.128V21.016H137.064V13.688ZM146.584 21.16C146.211 21.16 145.843 21.08 145.48 20.92C145.128 20.76 144.803 20.52 144.504 20.2C144.216 19.88 143.987 19.4747 143.816 18.984C143.645 18.4933 143.56 17.9227 143.56 17.272C143.56 16.6 143.651 16.0293 143.832 15.56C144.013 15.08 144.253 14.6907 144.552 14.392C144.851 14.0827 145.181 13.8587 145.544 13.72C145.907 13.5707 146.275 13.496 146.648 13.496C146.989 13.496 147.293 13.5493 147.56 13.656C147.837 13.7627 148.077 13.912 148.28 14.104C148.493 14.2853 148.659 14.504 148.776 14.76V10.36H149.832H149.992V10.472C149.928 10.536 149.885 10.6053 149.864 10.68C149.853 10.7547 149.848 10.8827 149.848 11.064L149.864 19.864C149.864 20.056 149.869 20.248 149.88 20.44C149.901 20.6213 149.949 20.808 150.024 21H148.888C148.835 20.872 148.797 20.744 148.776 20.616C148.755 20.488 148.739 20.3653 148.728 20.248C148.728 20.12 148.728 19.992 148.728 19.864C148.579 20.12 148.397 20.3493 148.184 20.552C147.971 20.744 147.731 20.8933 147.464 21C147.197 21.1067 146.904 21.16 146.584 21.16ZM146.76 20.152C147.112 20.152 147.411 20.0827 147.656 19.944C147.901 19.7947 148.099 19.592 148.248 19.336C148.397 19.0693 148.504 18.7653 148.568 18.424C148.643 18.072 148.68 17.6987 148.68 17.304C148.68 16.76 148.611 16.2747 148.472 15.848C148.333 15.4107 148.115 15.0693 147.816 14.824C147.517 14.568 147.133 14.44 146.664 14.44C146.344 14.44 146.056 14.504 145.8 14.632C145.555 14.7493 145.347 14.9253 145.176 15.16C145.016 15.3947 144.893 15.6773 144.808 16.008C144.723 16.328 144.68 16.6907 144.68 17.096C144.68 17.704 144.76 18.2373 144.92 18.696C145.08 19.1547 145.315 19.512 145.624 19.768C145.933 20.024 146.312 20.152 146.76 20.152ZM154.536 21.16C154.131 21.16 153.741 21.1173 153.368 21.032C153.005 20.9467 152.659 20.8187 152.328 20.648C152.008 20.4773 151.709 20.264 151.432 20.008L152.072 18.92L152.168 18.776L152.264 18.84C152.285 18.9253 152.307 19.016 152.328 19.112C152.36 19.1973 152.435 19.304 152.552 19.432C152.776 19.656 153.043 19.8427 153.352 19.992C153.672 20.1307 154.077 20.2 154.568 20.2C154.963 20.2 155.293 20.152 155.56 20.056C155.837 19.96 156.051 19.8267 156.2 19.656C156.349 19.4747 156.424 19.2667 156.424 19.032C156.424 18.872 156.392 18.7333 156.328 18.616C156.264 18.488 156.157 18.3707 156.008 18.264C155.869 18.1573 155.683 18.0507 155.448 17.944C155.213 17.8373 154.925 17.7307 154.584 17.624C154.029 17.464 153.544 17.2773 153.128 17.064C152.712 16.8507 152.392 16.6053 152.168 16.328C151.944 16.04 151.832 15.7147 151.832 15.352C151.832 14.9787 151.933 14.6587 152.136 14.392C152.339 14.1147 152.637 13.9013 153.032 13.752C153.437 13.592 153.933 13.512 154.52 13.512C154.861 13.512 155.171 13.5387 155.448 13.592C155.725 13.6347 155.981 13.704 156.216 13.8C156.451 13.896 156.664 14.0187 156.856 14.168C157.059 14.3067 157.251 14.472 157.432 14.664L156.776 15.464L156.664 15.592L156.584 15.512C156.573 15.4267 156.547 15.3467 156.504 15.272C156.472 15.1867 156.397 15.0853 156.28 14.968C156.035 14.776 155.757 14.632 155.448 14.536C155.139 14.4293 154.84 14.376 154.552 14.376C154.125 14.376 153.757 14.4507 153.448 14.6C153.139 14.7493 152.984 14.9787 152.984 15.288C152.984 15.448 153.037 15.608 153.144 15.768C153.261 15.9173 153.469 16.072 153.768 16.232C154.067 16.3813 154.493 16.536 155.048 16.696C155.656 16.888 156.141 17.0853 156.504 17.288C156.877 17.48 157.144 17.704 157.304 17.96C157.475 18.216 157.56 18.52 157.56 18.872C157.56 19.2773 157.448 19.656 157.224 20.008C157.011 20.36 156.68 20.6427 156.232 20.856C155.784 21.0587 155.219 21.16 154.536 21.16Z" fill="black"/>
<g filter="url(#filter1_d_4657_1227)">
<path d="M6 60.8271H202C202.828 60.8271 203.5 61.4987 203.5 62.3271V199.5H4.5V62.3271C4.5 61.4987 5.17157 60.8271 6 60.8271Z" stroke="black" shape-rendering="crispEdges"/>
</g>
<line x1="5.29883" y1="83.1064" x2="202.701" y2="83.1064" stroke="#C6C6C6"/>
<line x1="5.29883" y1="106.385" x2="202.701" y2="106.385" stroke="#C6C6C6"/>
<line x1="5.29883" y1="130.772" x2="202.701" y2="130.772" stroke="#C6C6C6"/>
<line x1="5.29883" y1="155.16" x2="202.701" y2="155.16" stroke="#C6C6C6"/>
<line x1="5.29883" y1="179.546" x2="202.701" y2="179.546" stroke="#C6C6C6"/>
<line x1="152.551" y1="60.3271" x2="152.551" y2="198.891" stroke="#C6C6C6"/>
<line x1="92.8105" y1="60.3271" x2="92.8105" y2="198.891" stroke="#C6C6C6"/>
<path d="M35.8184 61.436L35.8184 198.892" stroke="#C6C6C6"/>
<path d="M101.994 59.9257C102.385 60.3162 103.018 60.3162 103.408 59.9257L109.772 53.5617C110.163 53.1712 110.163 52.538 109.772 52.1475C109.382 51.757 108.749 51.757 108.358 52.1475L102.701 57.8044L97.0443 52.1475C96.6538 51.757 96.0206 51.757 95.6301 52.1475C95.2396 52.538 95.2396 53.1712 95.6301 53.5617L101.994 59.9257ZM101.701 32.6143L101.701 59.2186L103.701 59.2186L103.701 32.6143L101.701 32.6143Z" fill="black"/>
<path d="M6 60.8271H202C202.828 60.8271 203.5 61.4987 203.5 62.3271V83.1059H4.5V62.3271C4.5 61.4987 5.17157 60.8271 6 60.8271Z" fill="#D9D9D9" stroke="black"/>
<rect x="11.791" y="89.1484" width="15.5844" height="13.3022" rx="4" fill="#D9D9D9"/>
<rect x="40.3633" y="89.1484" width="46.7532" height="13.3022" rx="4" fill="#D9D9D9"/>
<rect x="100.102" y="89.1484" width="46.7532" height="13.3022" rx="4" fill="#D9D9D9"/>
<rect x="157.248" y="89.1484" width="40.2597" height="13.3022" rx="4" fill="#D9D9D9"/>
<rect x="40.3633" y="111.319" width="46.7532" height="13.3022" rx="4" fill="#D9D9D9"/>
<rect x="100.102" y="111.319" width="46.7532" height="13.3022" rx="4" fill="#D9D9D9"/>
<rect x="157.248" y="111.319" width="40.2597" height="13.3022" rx="4" fill="#D9D9D9"/>
<rect x="40.3633" y="136.815" width="46.7532" height="13.3022" rx="4" fill="#D9D9D9"/>
<rect x="100.102" y="136.815" width="46.7532" height="13.3022" rx="4" fill="#D9D9D9"/>
<rect x="157.248" y="136.815" width="40.2597" height="13.3022" rx="4" fill="#D9D9D9"/>
<rect x="40.3633" y="160.094" width="46.7532" height="13.3022" rx="4" fill="#D9D9D9"/>
<rect x="100.102" y="160.094" width="46.7532" height="13.3022" rx="4" fill="#D9D9D9"/>
<rect x="157.248" y="160.094" width="40.2597" height="13.3022" rx="4" fill="#D9D9D9"/>
<rect x="40.3633" y="183.373" width="46.7532" height="13.3022" rx="4" fill="#D9D9D9"/>
<rect x="100.102" y="183.373" width="46.7532" height="13.3022" rx="4" fill="#D9D9D9"/>
<rect x="157.248" y="183.373" width="40.2597" height="13.3022" rx="4" fill="#D9D9D9"/>
<rect x="11.791" y="111.319" width="15.5844" height="13.3022" rx="4" fill="#D9D9D9"/>
<rect x="11.791" y="136.815" width="15.5844" height="13.3022" rx="4" fill="#D9D9D9"/>
<rect x="11.791" y="160.094" width="15.5844" height="13.3022" rx="4" fill="#D9D9D9"/>
<rect x="11.791" y="183.373" width="15.5844" height="13.3022" rx="4" fill="#D9D9D9"/>
<defs>
<filter id="filter0_d_4657_1227" x="0" y="0" width="208" height="41" filterUnits="userSpaceOnUse" color-interpolation-filters="sRGB">
<feFlood flood-opacity="0" result="BackgroundImageFix"/>
<feColorMatrix in="SourceAlpha" type="matrix" values="0 0 0 0 0 0 0 0 0 0 0 0 0 0 0 0 0 0 127 0" result="hardAlpha"/>
<feOffset dy="4"/>
<feGaussianBlur stdDeviation="2"/>
<feComposite in2="hardAlpha" operator="out"/>
<feColorMatrix type="matrix" values="0 0 0 0 0 0 0 0 0 0 0 0 0 0 0 0 0 0 0.25 0"/>
<feBlend mode="normal" in2="BackgroundImageFix" result="effect1_dropShadow_4657_1227"/>
<feBlend mode="normal" in="SourceGraphic" in2="effect1_dropShadow_4657_1227" result="shape"/>
</filter>
<filter id="filter1_d_4657_1227" x="0" y="60.3271" width="208" height="147.673" filterUnits="userSpaceOnUse" color-interpolation-filters="sRGB">
<feFlood flood-opacity="0" result="BackgroundImageFix"/>
<feColorMatrix in="SourceAlpha" type="matrix" values="0 0 0 0 0 0 0 0 0 0 0 0 0 0 0 0 0 0 127 0" result="hardAlpha"/>
<feOffset dy="4"/>
<feGaussianBlur stdDeviation="2"/>
<feComposite in2="hardAlpha" operator="out"/>
<feColorMatrix type="matrix" values="0 0 0 0 0 0 0 0 0 0 0 0 0 0 0 0 0 0 0.25 0"/>
<feBlend mode="normal" in2="BackgroundImageFix" result="effect1_dropShadow_4657_1227"/>
<feBlend mode="normal" in="SourceGraphic" in2="effect1_dropShadow_4657_1227" result="shape"/>
</filter>
</defs>
</svg>
