<svg width="208" height="205" viewBox="0 0 208 205" fill="none" xmlns="http://www.w3.org/2000/svg">
<g filter="url(#filter0_d_4657_1248)">
<rect x="4" y="137" width="99" height="60" rx="10" fill="#ECECEC"/>
<rect x="4.5" y="137.5" width="98" height="59" rx="9.5" stroke="black"/>
</g>
<g filter="url(#filter1_d_4657_1248)">
<rect x="105" y="137" width="99" height="60" rx="10" fill="#ECECEC"/>
<rect x="105.5" y="137.5" width="98" height="59" rx="9.5" stroke="black"/>
</g>
<g filter="url(#filter2_d_4657_1248)">
<rect x="4" width="200" height="45" rx="10" fill="#ECECEC"/>
<rect x="4.5" y="0.5" width="199" height="44" rx="9.5" stroke="black"/>
</g>
<path d="M64.944 26V16.032H68.144C68.8907 16.032 69.4933 16.16 69.952 16.416C70.4107 16.672 70.7467 17.0133 70.96 17.44C71.184 17.856 71.296 18.3253 71.296 18.848C71.296 19.232 71.2373 19.5893 71.12 19.92C71.0027 20.2507 70.816 20.544 70.56 20.8C70.3147 21.056 70 21.2533 69.616 21.392C69.232 21.5307 68.768 21.6 68.224 21.6H66.096V26H64.944ZM66.096 20.608H68.096C68.5867 20.608 68.9813 20.5387 69.28 20.4C69.5787 20.2507 69.7973 20.048 69.936 19.792C70.0747 19.5253 70.144 19.2213 70.144 18.88C70.144 18.5493 70.0747 18.2507 69.936 17.984C69.7973 17.7173 69.5787 17.504 69.28 17.344C68.9813 17.1733 68.592 17.088 68.112 17.088H66.096V20.608ZM73.584 18.688H74.784L74.736 20.816L74.592 20.576C74.656 20.2453 74.768 19.952 74.928 19.696C75.088 19.44 75.28 19.2267 75.504 19.056C75.728 18.8747 75.9733 18.7413 76.24 18.656C76.5067 18.56 76.784 18.512 77.072 18.512C77.456 18.512 77.808 18.5813 78.128 18.72C78.4587 18.848 78.752 19.0453 79.008 19.312L78.496 20.208L78.432 20.352L78.32 20.288C78.2987 20.2027 78.2667 20.1227 78.224 20.048C78.1813 19.9733 78.0907 19.8827 77.952 19.776C77.7813 19.6693 77.6213 19.6 77.472 19.568C77.3333 19.5253 77.1733 19.504 76.992 19.504C76.7253 19.504 76.4587 19.5573 76.192 19.664C75.9253 19.76 75.68 19.9147 75.456 20.128C75.2427 20.3413 75.072 20.6133 74.944 20.944C74.816 21.2747 74.752 21.6693 74.752 22.128V26.016H73.584V18.688ZM83.36 26.128C82.6987 26.128 82.112 25.968 81.6 25.648C81.0987 25.3173 80.704 24.8693 80.416 24.304C80.128 23.728 79.984 23.072 79.984 22.336C79.984 21.5893 80.128 20.9333 80.416 20.368C80.704 19.792 81.0987 19.344 81.6 19.024C82.112 18.6933 82.6987 18.528 83.36 18.528C84.0213 18.528 84.6027 18.6933 85.104 19.024C85.616 19.344 86.016 19.792 86.304 20.368C86.592 20.9333 86.736 21.5893 86.736 22.336C86.736 23.072 86.592 23.728 86.304 24.304C86.016 24.8693 85.616 25.3173 85.104 25.648C84.6027 25.968 84.0213 26.128 83.36 26.128ZM83.36 25.168C83.7867 25.168 84.16 25.0453 84.48 24.8C84.8 24.5547 85.0507 24.2187 85.232 23.792C85.424 23.3653 85.52 22.8747 85.52 22.32C85.52 21.7653 85.424 21.2747 85.232 20.848C85.0507 20.4213 84.8 20.0907 84.48 19.856C84.16 19.6107 83.7867 19.488 83.36 19.488C82.944 19.488 82.5707 19.6107 82.24 19.856C81.92 20.0907 81.664 20.4213 81.472 20.848C81.2907 21.2747 81.2 21.7653 81.2 22.32C81.2 22.8747 81.2907 23.3653 81.472 23.792C81.664 24.2187 81.92 24.5547 82.24 24.8C82.5707 25.0453 82.944 25.168 83.36 25.168ZM90.784 26.16C90.4107 26.16 90.0427 26.08 89.68 25.92C89.328 25.76 89.0027 25.52 88.704 25.2C88.416 24.88 88.1867 24.4747 88.016 23.984C87.8453 23.4933 87.76 22.9227 87.76 22.272C87.76 21.6 87.8507 21.0293 88.032 20.56C88.2133 20.08 88.4533 19.6907 88.752 19.392C89.0507 19.0827 89.3813 18.8587 89.744 18.72C90.1067 18.5707 90.4747 18.496 90.848 18.496C91.1893 18.496 91.4933 18.5493 91.76 18.656C92.0373 18.7627 92.2773 18.912 92.48 19.104C92.6933 19.2853 92.8587 19.504 92.976 19.76V15.36H94.032H94.192V15.472C94.128 15.536 94.0853 15.6053 94.064 15.68C94.0533 15.7547 94.048 15.8827 94.048 16.064L94.064 24.864C94.064 25.056 94.0693 25.248 94.08 25.44C94.1013 25.6213 94.1493 25.808 94.224 26H93.088C93.0347 25.872 92.9973 25.744 92.976 25.616C92.9547 25.488 92.9387 25.3653 92.928 25.248C92.928 25.12 92.928 24.992 92.928 24.864C92.7787 25.12 92.5973 25.3493 92.384 25.552C92.1707 25.744 91.9307 25.8933 91.664 26C91.3973 26.1067 91.104 26.16 90.784 26.16ZM90.96 25.152C91.312 25.152 91.6107 25.0827 91.856 24.944C92.1013 24.7947 92.2987 24.592 92.448 24.336C92.5973 24.0693 92.704 23.7653 92.768 23.424C92.8427 23.072 92.88 22.6987 92.88 22.304C92.88 21.76 92.8107 21.2747 92.672 20.848C92.5333 20.4107 92.3147 20.0693 92.016 19.824C91.7173 19.568 91.3333 19.44 90.864 19.44C90.544 19.44 90.256 19.504 90 19.632C89.7547 19.7493 89.5467 19.9253 89.376 20.16C89.216 20.3947 89.0933 20.6773 89.008 21.008C88.9227 21.328 88.88 21.6907 88.88 22.096C88.88 22.704 88.96 23.2373 89.12 23.696C89.28 24.1547 89.5147 24.512 89.824 24.768C90.1333 25.024 90.512 25.152 90.96 25.152ZM98.256 26.176C97.968 26.176 97.696 26.1333 97.44 26.048C97.184 25.9627 96.9493 25.8347 96.736 25.664C96.5333 25.4827 96.3573 25.2587 96.208 24.992C96.0587 24.7253 95.9413 24.4053 95.856 24.032C95.7813 23.6587 95.744 23.2373 95.744 22.768L95.76 18.688H96.88V22.768C96.88 23.2267 96.9227 23.616 97.008 23.936C97.0933 24.256 97.2107 24.512 97.36 24.704C97.52 24.896 97.7013 25.0347 97.904 25.12C98.1067 25.2053 98.32 25.248 98.544 25.248C98.8 25.248 99.0453 25.2 99.28 25.104C99.5147 24.9973 99.7227 24.8427 99.904 24.64C100.096 24.4373 100.245 24.176 100.352 23.856C100.459 23.536 100.512 23.1573 100.512 22.72V18.688H101.632V24.864C101.632 25.056 101.637 25.248 101.648 25.44C101.669 25.6213 101.717 25.808 101.792 26H100.688C100.635 25.872 100.597 25.7493 100.576 25.632C100.555 25.504 100.539 25.376 100.528 25.248C100.528 25.12 100.528 24.9973 100.528 24.88C100.411 25.0827 100.272 25.264 100.112 25.424C99.952 25.584 99.7707 25.7227 99.568 25.84C99.376 25.9467 99.168 26.0267 98.944 26.08C98.7307 26.144 98.5013 26.176 98.256 26.176ZM106.96 26.176C106.427 26.176 105.936 26.08 105.488 25.888C105.04 25.696 104.651 25.4293 104.32 25.088C104 24.7467 103.749 24.3467 103.568 23.888C103.387 23.4187 103.296 22.9067 103.296 22.352C103.296 21.808 103.387 21.3067 103.568 20.848C103.749 20.3787 104 19.9733 104.32 19.632C104.651 19.2907 105.04 19.024 105.488 18.832C105.936 18.64 106.421 18.544 106.944 18.544C107.541 18.544 108.075 18.6667 108.544 18.912C109.024 19.1467 109.413 19.4773 109.712 19.904L108.992 20.608L108.88 20.72L108.8 20.64C108.8 20.5547 108.779 20.4747 108.736 20.4C108.704 20.3253 108.624 20.224 108.496 20.096C108.261 19.8827 108.011 19.7333 107.744 19.648C107.477 19.5627 107.168 19.52 106.816 19.52C106.507 19.52 106.213 19.584 105.936 19.712C105.659 19.84 105.408 20.0267 105.184 20.272C104.971 20.5067 104.8 20.7947 104.672 21.136C104.544 21.4773 104.48 21.856 104.48 22.272C104.48 22.688 104.544 23.072 104.672 23.424C104.8 23.7653 104.976 24.064 105.2 24.32C105.424 24.576 105.691 24.7787 106 24.928C106.32 25.0667 106.661 25.136 107.024 25.136C107.269 25.136 107.504 25.104 107.728 25.04C107.952 24.9653 108.165 24.864 108.368 24.736C108.571 24.5973 108.757 24.432 108.928 24.24L109.6 25.024C109.237 25.408 108.832 25.696 108.384 25.888C107.947 26.08 107.472 26.176 106.96 26.176ZM114.864 26.112C114.395 26.112 114.011 26.032 113.712 25.872C113.413 25.712 113.184 25.4667 113.024 25.136C112.864 24.7947 112.757 24.368 112.704 23.856C112.661 23.344 112.651 22.736 112.672 22.032L112.864 16.816L114.064 16.672L114.224 16.656L114.24 16.768C114.187 16.8427 114.139 16.9173 114.096 16.992C114.064 17.0667 114.037 17.1947 114.016 17.376L113.872 19.184L113.92 19.472L113.808 22.112C113.776 22.9227 113.797 23.552 113.872 24C113.947 24.4373 114.08 24.7413 114.272 24.912C114.464 25.072 114.72 25.152 115.04 25.152C115.392 25.152 115.701 25.0827 115.968 24.944C116.245 24.8053 116.533 24.6293 116.832 24.416L117.184 25.328C116.821 25.5947 116.448 25.792 116.064 25.92C115.68 26.048 115.28 26.112 114.864 26.112ZM111.2 18.688H116.464V19.632H111.2V18.688ZM119.36 26V25.072H121.232V19.616H119.456V18.688H122.384V25.072H124.096V26H119.36ZM121.744 17.152C121.52 17.152 121.328 17.072 121.168 16.912C121.008 16.752 120.928 16.56 120.928 16.336C120.928 16.1013 121.003 15.904 121.152 15.744C121.312 15.584 121.509 15.504 121.744 15.504C121.968 15.504 122.16 15.5893 122.32 15.76C122.491 15.92 122.576 16.112 122.576 16.336C122.576 16.56 122.491 16.752 122.32 16.912C122.16 17.072 121.968 17.152 121.744 17.152ZM129.44 26.128C128.779 26.128 128.192 25.968 127.68 25.648C127.179 25.3173 126.784 24.8693 126.496 24.304C126.208 23.728 126.064 23.072 126.064 22.336C126.064 21.5893 126.208 20.9333 126.496 20.368C126.784 19.792 127.179 19.344 127.68 19.024C128.192 18.6933 128.779 18.528 129.44 18.528C130.101 18.528 130.683 18.6933 131.184 19.024C131.696 19.344 132.096 19.792 132.384 20.368C132.672 20.9333 132.816 21.5893 132.816 22.336C132.816 23.072 132.672 23.728 132.384 24.304C132.096 24.8693 131.696 25.3173 131.184 25.648C130.683 25.968 130.101 26.128 129.44 26.128ZM129.44 25.168C129.867 25.168 130.24 25.0453 130.56 24.8C130.88 24.5547 131.131 24.2187 131.312 23.792C131.504 23.3653 131.6 22.8747 131.6 22.32C131.6 21.7653 131.504 21.2747 131.312 20.848C131.131 20.4213 130.88 20.0907 130.56 19.856C130.24 19.6107 129.867 19.488 129.44 19.488C129.024 19.488 128.651 19.6107 128.32 19.856C128 20.0907 127.744 20.4213 127.552 20.848C127.371 21.2747 127.28 21.7653 127.28 22.32C127.28 22.8747 127.371 23.3653 127.552 23.792C127.744 24.2187 128 24.5547 128.32 24.8C128.651 25.0453 129.024 25.168 129.44 25.168ZM134.272 26V18.688H135.392V19.984C135.584 19.6853 135.808 19.4293 136.064 19.216C136.32 18.992 136.603 18.8213 136.912 18.704C137.221 18.576 137.541 18.512 137.872 18.512C138.277 18.512 138.64 18.6133 138.96 18.816C139.28 19.0187 139.536 19.344 139.728 19.792C139.92 20.24 140.016 20.832 140.016 21.568V26H138.896V21.6C138.896 21.088 138.837 20.6827 138.72 20.384C138.603 20.0747 138.443 19.856 138.24 19.728C138.037 19.5893 137.808 19.52 137.552 19.52C137.307 19.52 137.056 19.5733 136.8 19.68C136.555 19.7867 136.325 19.9413 136.112 20.144C135.899 20.336 135.723 20.5707 135.584 20.848C135.456 21.1253 135.392 21.44 135.392 21.792V26H134.272Z" fill="black"/>
<path d="M35.952 171.16C35.3013 171.16 34.7147 171.053 34.192 170.84C33.68 170.627 33.2267 170.312 32.832 169.896L33.408 168.888L33.472 168.744L33.584 168.808C33.6053 168.883 33.632 168.968 33.664 169.064C33.696 169.149 33.7707 169.256 33.888 169.384C34.1653 169.619 34.4853 169.805 34.848 169.944C35.2213 170.083 35.6427 170.152 36.112 170.152C36.4107 170.152 36.6827 170.109 36.928 170.024C37.184 169.928 37.4027 169.805 37.584 169.656C37.776 169.496 37.92 169.315 38.016 169.112C38.1227 168.899 38.176 168.675 38.176 168.44C38.176 168.259 38.1547 168.093 38.112 167.944C38.08 167.795 38.0107 167.661 37.904 167.544C37.808 167.416 37.6747 167.293 37.504 167.176C37.3333 167.048 37.1147 166.915 36.848 166.776C36.5813 166.637 36.2613 166.488 35.888 166.328C35.1947 166.061 34.6453 165.773 34.24 165.464C33.8453 165.144 33.5627 164.808 33.392 164.456C33.232 164.104 33.152 163.741 33.152 163.368C33.152 162.877 33.2747 162.451 33.52 162.088C33.7653 161.715 34.112 161.427 34.56 161.224C35.0187 161.011 35.5627 160.904 36.192 160.904C36.5547 160.904 36.9013 160.957 37.232 161.064C37.5733 161.16 37.888 161.299 38.176 161.48C38.4747 161.661 38.736 161.885 38.96 162.152L38.336 162.984L38.24 163.112L38.144 163.048C38.1333 162.963 38.112 162.877 38.08 162.792C38.048 162.707 37.9733 162.6 37.856 162.472C37.6 162.227 37.328 162.061 37.04 161.976C36.752 161.88 36.4107 161.832 36.016 161.832C35.7493 161.832 35.5093 161.869 35.296 161.944C35.0933 162.019 34.9173 162.125 34.768 162.264C34.6187 162.403 34.5013 162.563 34.416 162.744C34.3413 162.915 34.304 163.096 34.304 163.288C34.304 163.469 34.3253 163.635 34.368 163.784C34.4107 163.933 34.4853 164.077 34.592 164.216C34.6987 164.355 34.8427 164.493 35.024 164.632C35.216 164.771 35.4507 164.909 35.728 165.048C36.016 165.187 36.3627 165.336 36.768 165.496C37.2587 165.699 37.664 165.901 37.984 166.104C38.3147 166.296 38.5707 166.504 38.752 166.728C38.944 166.941 39.0773 167.176 39.152 167.432C39.2373 167.688 39.28 167.971 39.28 168.28C39.28 168.739 39.1627 169.192 38.928 169.64C38.704 170.077 38.3467 170.44 37.856 170.728C37.3653 171.016 36.7307 171.16 35.952 171.16ZM44.464 171.112C43.9947 171.112 43.6107 171.032 43.312 170.872C43.0133 170.712 42.784 170.467 42.624 170.136C42.464 169.795 42.3573 169.368 42.304 168.856C42.2613 168.344 42.2507 167.736 42.272 167.032L42.464 161.816L43.664 161.672L43.824 161.656L43.84 161.768C43.7867 161.843 43.7387 161.917 43.696 161.992C43.664 162.067 43.6373 162.195 43.616 162.376L43.472 164.184L43.52 164.472L43.408 167.112C43.376 167.923 43.3973 168.552 43.472 169C43.5467 169.437 43.68 169.741 43.872 169.912C44.064 170.072 44.32 170.152 44.64 170.152C44.992 170.152 45.3013 170.083 45.568 169.944C45.8453 169.805 46.1333 169.629 46.432 169.416L46.784 170.328C46.4213 170.595 46.048 170.792 45.664 170.92C45.28 171.048 44.88 171.112 44.464 171.112ZM40.8 163.688H46.064V164.632H40.8V163.688ZM50.736 171.176C49.904 171.176 49.264 170.989 48.816 170.616C48.368 170.232 48.144 169.747 48.144 169.16C48.144 168.765 48.24 168.413 48.432 168.104C48.624 167.784 48.8853 167.517 49.216 167.304C49.5573 167.08 49.952 166.909 50.4 166.792C50.848 166.675 51.3227 166.616 51.824 166.616C52.0053 166.616 52.1867 166.621 52.368 166.632C52.56 166.632 52.7573 166.643 52.96 166.664C53.1733 166.675 53.392 166.696 53.616 166.728L53.648 167.608C53.456 167.576 53.2587 167.555 53.056 167.544C52.864 167.523 52.672 167.507 52.48 167.496C52.288 167.485 52.1013 167.48 51.92 167.48C51.536 167.48 51.184 167.512 50.864 167.576C50.544 167.64 50.2667 167.736 50.032 167.864C49.7973 167.992 49.616 168.157 49.488 168.36C49.36 168.563 49.296 168.808 49.296 169.096C49.296 169.32 49.3333 169.512 49.408 169.672C49.4933 169.821 49.6053 169.944 49.744 170.04C49.8827 170.125 50.0427 170.189 50.224 170.232C50.416 170.275 50.624 170.296 50.848 170.296C51.264 170.296 51.632 170.232 51.952 170.104C52.2827 169.965 52.56 169.768 52.784 169.512C53.0187 169.256 53.1947 168.941 53.312 168.568C53.4293 168.195 53.488 167.768 53.488 167.288C53.488 166.563 53.4027 165.997 53.232 165.592C53.0613 165.187 52.8053 164.899 52.464 164.728C52.1333 164.557 51.7067 164.472 51.184 164.472C50.832 164.472 50.4853 164.541 50.144 164.68C49.8027 164.808 49.4933 165.011 49.216 165.288L48.656 164.552C48.9973 164.211 49.392 163.955 49.84 163.784C50.288 163.613 50.7627 163.528 51.264 163.528C51.744 163.528 52.1813 163.587 52.576 163.704C52.9707 163.821 53.3067 164.019 53.584 164.296C53.872 164.563 54.0907 164.925 54.24 165.384C54.4 165.843 54.48 166.419 54.48 167.112V171H53.232V169.88C53.0933 170.147 52.9227 170.365 52.72 170.536C52.528 170.707 52.32 170.84 52.096 170.936C51.872 171.021 51.6427 171.08 51.408 171.112C51.1733 171.155 50.9493 171.176 50.736 171.176ZM58.992 173.752C58.48 173.752 58.016 173.709 57.6 173.624C57.1947 173.549 56.8427 173.432 56.544 173.272C56.256 173.123 56.032 172.931 55.872 172.696C55.7227 172.461 55.648 172.184 55.648 171.864C55.648 171.565 55.712 171.299 55.84 171.064C55.968 170.829 56.1333 170.637 56.336 170.488C56.5493 170.328 56.7787 170.211 57.024 170.136L57.504 170.424C57.312 170.541 57.1573 170.659 57.04 170.776C56.9227 170.893 56.8373 171.027 56.784 171.176C56.7307 171.336 56.704 171.523 56.704 171.736C56.704 171.917 56.7573 172.077 56.864 172.216C56.9707 172.365 57.12 172.488 57.312 172.584C57.5147 172.68 57.7547 172.755 58.032 172.808C58.32 172.861 58.6453 172.888 59.008 172.888C59.4987 172.888 59.8933 172.835 60.192 172.728C60.5013 172.632 60.7307 172.493 60.88 172.312C61.0293 172.141 61.104 171.944 61.104 171.72C61.104 171.485 61.0613 171.293 60.976 171.144C60.8907 170.995 60.7147 170.883 60.448 170.808C60.1813 170.733 59.776 170.696 59.232 170.696C58.8587 170.696 58.5173 170.68 58.208 170.648C57.8987 170.616 57.6213 170.563 57.376 170.488C57.1307 170.413 56.9227 170.323 56.752 170.216C56.592 170.099 56.4693 169.96 56.384 169.8C56.2987 169.64 56.256 169.453 56.256 169.24C56.256 168.963 56.3307 168.696 56.48 168.44C56.64 168.184 56.8533 167.939 57.12 167.704L57.664 168.136C57.5573 168.253 57.472 168.36 57.408 168.456C57.344 168.541 57.296 168.627 57.264 168.712C57.2427 168.787 57.232 168.872 57.232 168.968C57.232 169.139 57.296 169.277 57.424 169.384C57.5627 169.491 57.7973 169.571 58.128 169.624C58.4587 169.667 58.9067 169.688 59.472 169.688C60.0373 169.688 60.496 169.736 60.848 169.832C61.2 169.917 61.4667 170.045 61.648 170.216C61.84 170.387 61.9733 170.584 62.048 170.808C62.1227 171.032 62.16 171.277 62.16 171.544C62.16 171.832 62.1013 172.104 61.984 172.36C61.8773 172.627 61.7013 172.861 61.456 173.064C61.2107 173.277 60.8853 173.443 60.48 173.56C60.0747 173.688 59.5787 173.752 58.992 173.752ZM58.656 168.52C58.1333 168.52 57.68 168.408 57.296 168.184C56.912 167.949 56.6133 167.64 56.4 167.256C56.1973 166.861 56.096 166.429 56.096 165.96C56.096 165.491 56.1973 165.064 56.4 164.68C56.6133 164.296 56.912 163.992 57.296 163.768C57.68 163.533 58.1333 163.416 58.656 163.416C59.1893 163.416 59.6427 163.533 60.016 163.768C60.4 163.992 60.6933 164.296 60.896 164.68C61.1093 165.064 61.216 165.491 61.216 165.96C61.216 166.429 61.1093 166.861 60.896 167.256C60.6933 167.64 60.4 167.949 60.016 168.184C59.6427 168.408 59.1893 168.52 58.656 168.52ZM58.656 167.56C58.9653 167.56 59.2373 167.491 59.472 167.352C59.7173 167.203 59.9093 167.005 60.048 166.76C60.1867 166.515 60.256 166.248 60.256 165.96C60.256 165.661 60.1867 165.395 60.048 165.16C59.9093 164.915 59.7173 164.723 59.472 164.584C59.2373 164.435 58.9653 164.36 58.656 164.36C58.3467 164.36 58.0693 164.435 57.824 164.584C57.5893 164.723 57.4027 164.915 57.264 165.16C57.1253 165.395 57.056 165.661 57.056 165.96C57.056 166.248 57.1253 166.515 57.264 166.76C57.4027 167.005 57.5893 167.203 57.824 167.352C58.0693 167.491 58.3467 167.56 58.656 167.56ZM60.784 164.872L60.336 164.344C60.6453 164.035 60.9653 163.811 61.296 163.672C61.6373 163.523 62.0373 163.464 62.496 163.496L62.64 164.44C62.288 164.408 61.9573 164.419 61.648 164.472C61.3387 164.525 61.0507 164.659 60.784 164.872ZM67.072 171.16C66.5387 171.16 66.0533 171.08 65.616 170.92C65.1787 170.749 64.8 170.504 64.48 170.184C64.1707 169.864 63.9307 169.469 63.76 169C63.5893 168.52 63.504 167.976 63.504 167.368C63.504 166.749 63.5893 166.2 63.76 165.72C63.9413 165.24 64.1813 164.84 64.48 164.52C64.7893 164.189 65.1467 163.939 65.552 163.768C65.968 163.597 66.4053 163.512 66.864 163.512C67.28 163.512 67.6693 163.581 68.032 163.72C68.3947 163.859 68.7093 164.072 68.976 164.36C69.2427 164.637 69.4507 164.995 69.6 165.432C69.76 165.869 69.84 166.387 69.84 166.984C69.84 167.069 69.8347 167.16 69.824 167.256C69.824 167.341 69.8187 167.427 69.808 167.512H64.608C64.6293 167.981 64.7093 168.392 64.848 168.744C64.9867 169.085 65.168 169.368 65.392 169.592C65.616 169.805 65.872 169.965 66.16 170.072C66.4587 170.179 66.7733 170.232 67.104 170.232C67.36 170.232 67.6 170.205 67.824 170.152C68.048 170.088 68.256 169.997 68.448 169.88C68.6507 169.752 68.832 169.597 68.992 169.416L69.632 170.04C69.4293 170.285 69.1947 170.493 68.928 170.664C68.672 170.835 68.3893 170.957 68.08 171.032C67.7707 171.117 67.4347 171.16 67.072 171.16ZM64.656 166.616H68.672C68.672 166.275 68.624 165.971 68.528 165.704C68.4427 165.427 68.3147 165.192 68.144 165C67.984 164.797 67.7867 164.648 67.552 164.552C67.328 164.445 67.072 164.392 66.784 164.392C66.528 164.392 66.2827 164.435 66.048 164.52C65.824 164.605 65.616 164.744 65.424 164.936C65.232 165.117 65.0667 165.347 64.928 165.624C64.8 165.901 64.7093 166.232 64.656 166.616Z" fill="black"/>
<path d="M140.864 171.016V161.032H143.184C143.76 161.032 144.245 161.085 144.64 161.192C145.035 161.299 145.371 161.453 145.648 161.656C145.925 161.848 146.171 162.093 146.384 162.392C146.608 162.691 146.789 163.027 146.928 163.4C147.077 163.773 147.184 164.184 147.248 164.632C147.323 165.069 147.36 165.549 147.36 166.072C147.328 166.84 147.227 167.528 147.056 168.136C146.885 168.744 146.629 169.261 146.288 169.688C145.947 170.115 145.504 170.445 144.96 170.68C144.427 170.904 143.771 171.016 142.992 171.016H140.864ZM141.92 170.136H142.944C143.712 170.136 144.336 169.981 144.816 169.672C145.307 169.363 145.669 168.909 145.904 168.312C146.139 167.715 146.251 166.989 146.24 166.136C146.24 165.261 146.133 164.515 145.92 163.896C145.707 163.277 145.371 162.803 144.912 162.472C144.464 162.141 143.867 161.976 143.12 161.976H141.92V170.136ZM152.032 171.16C151.499 171.16 151.013 171.08 150.576 170.92C150.139 170.749 149.76 170.504 149.44 170.184C149.131 169.864 148.891 169.469 148.72 169C148.549 168.52 148.464 167.976 148.464 167.368C148.464 166.749 148.549 166.2 148.72 165.72C148.901 165.24 149.141 164.84 149.44 164.52C149.749 164.189 150.107 163.939 150.512 163.768C150.928 163.597 151.365 163.512 151.824 163.512C152.24 163.512 152.629 163.581 152.992 163.72C153.355 163.859 153.669 164.072 153.936 164.36C154.203 164.637 154.411 164.995 154.56 165.432C154.72 165.869 154.8 166.387 154.8 166.984C154.8 167.069 154.795 167.16 154.784 167.256C154.784 167.341 154.779 167.427 154.768 167.512H149.568C149.589 167.981 149.669 168.392 149.808 168.744C149.947 169.085 150.128 169.368 150.352 169.592C150.576 169.805 150.832 169.965 151.12 170.072C151.419 170.179 151.733 170.232 152.064 170.232C152.32 170.232 152.56 170.205 152.784 170.152C153.008 170.088 153.216 169.997 153.408 169.88C153.611 169.752 153.792 169.597 153.952 169.416L154.592 170.04C154.389 170.285 154.155 170.493 153.888 170.664C153.632 170.835 153.349 170.957 153.04 171.032C152.731 171.117 152.395 171.16 152.032 171.16ZM149.616 166.616H153.632C153.632 166.275 153.584 165.971 153.488 165.704C153.403 165.427 153.275 165.192 153.104 165C152.944 164.797 152.747 164.648 152.512 164.552C152.288 164.445 152.032 164.392 151.744 164.392C151.488 164.392 151.243 164.435 151.008 164.52C150.784 164.605 150.576 164.744 150.384 164.936C150.192 165.117 150.027 165.347 149.888 165.624C149.76 165.901 149.669 166.232 149.616 166.616ZM158.896 171L156 163.688H157.152L159.52 169.688H159.296L160.592 166.712C160.848 166.125 161.051 165.581 161.2 165.08C161.36 164.579 161.477 164.115 161.552 163.688H162.64C162.555 164.136 162.421 164.627 162.24 165.16C162.059 165.693 161.835 166.269 161.568 166.888L159.792 171H158.896Z" fill="black"/>
<path d="M105.293 72.7071C105.683 73.0976 106.317 73.0976 106.707 72.7071L113.071 66.3431C113.462 65.9526 113.462 65.3195 113.071 64.9289C112.681 64.5384 112.047 64.5384 111.657 64.9289L106 70.5858L100.343 64.9289C99.9526 64.5384 99.3195 64.5384 98.9289 64.9289C98.5384 65.3195 98.5384 65.9526 98.9289 66.3431L105.293 72.7071ZM105 45L105 72L107 72L107 45L105 45Z" fill="black"/>
<path d="M151.318 137.731C151.722 138.108 152.354 138.086 152.731 137.682L158.871 131.102C159.248 130.698 159.226 130.065 158.822 129.689C158.419 129.312 157.786 129.334 157.409 129.738L151.951 135.587L146.102 130.129C145.698 129.752 145.065 129.774 144.689 130.178C144.312 130.581 144.334 131.214 144.738 131.591L151.318 137.731ZM104.026 107.226C105.682 114.377 109.568 118.391 114.472 120.704C119.293 122.978 125.067 123.59 130.465 124.101C135.963 124.621 141.013 125.036 144.773 126.767C146.618 127.616 148.105 128.766 149.163 130.372C150.222 131.98 150.9 134.122 151.001 137.035L152.999 136.965C152.889 133.773 152.138 131.253 150.833 129.272C149.527 127.288 147.715 125.92 145.609 124.95C141.467 123.043 136.008 122.616 130.654 122.11C125.199 121.594 119.779 120.996 115.325 118.895C110.954 116.833 107.487 113.307 105.974 106.774L104.026 107.226Z" fill="black"/>
<path d="M53.6809 137.732C53.2764 138.108 52.6436 138.085 52.2676 137.681L46.1397 131.089C45.7636 130.685 45.7867 130.052 46.1912 129.676C46.5957 129.3 47.2284 129.323 47.6045 129.728L53.0515 135.587L58.9107 130.14C59.3151 129.764 59.9479 129.787 60.3239 130.191C60.7 130.596 60.6769 131.228 60.2724 131.604L53.6809 137.732ZM105.972 108.237C104.243 115.322 99.9744 119.23 94.6075 121.438C89.3203 123.612 82.9445 124.147 76.938 124.585C70.8364 125.03 65.1649 125.377 60.9386 127.048C58.8555 127.872 57.1904 128.996 56.0162 130.56C54.8462 132.119 54.1029 134.196 53.9993 137.036L52.0007 136.964C52.1161 133.797 52.9567 131.304 54.4167 129.359C55.8724 127.42 57.8832 126.106 60.203 125.189C64.7825 123.377 70.8247 123.025 76.7925 122.59C82.8556 122.148 88.905 121.621 93.8467 119.588C98.7087 117.588 102.473 114.142 104.028 107.763L105.972 108.237Z" fill="black"/>
<g filter="url(#filter3_d_4657_1248)">
<rect x="50" y="74" width="108" height="35" rx="6" fill="white"/>
<rect x="50.5" y="74.5" width="107" height="34" rx="5.5" stroke="black"/>
</g>
<path d="M79.872 98L78.272 88.032H79.312L80.384 94.768L81.984 88.768H82.336L83.952 94.8L84.864 88.032H85.808L84.224 98H83.792L82.08 91.488L80.336 98H79.872ZM90.032 98.16C89.4987 98.16 89.0133 98.08 88.576 97.92C88.1387 97.7493 87.76 97.504 87.44 97.184C87.1307 96.864 86.8907 96.4693 86.72 96C86.5493 95.52 86.464 94.976 86.464 94.368C86.464 93.7493 86.5493 93.2 86.72 92.72C86.9013 92.24 87.1413 91.84 87.44 91.52C87.7493 91.1893 88.1067 90.9387 88.512 90.768C88.928 90.5973 89.3653 90.512 89.824 90.512C90.24 90.512 90.6293 90.5813 90.992 90.72C91.3547 90.8587 91.6693 91.072 91.936 91.36C92.2027 91.6373 92.4107 91.9947 92.56 92.432C92.72 92.8693 92.8 93.3867 92.8 93.984C92.8 94.0693 92.7947 94.16 92.784 94.256C92.784 94.3413 92.7787 94.4267 92.768 94.512H87.568C87.5893 94.9813 87.6693 95.392 87.808 95.744C87.9467 96.0853 88.128 96.368 88.352 96.592C88.576 96.8053 88.832 96.9653 89.12 97.072C89.4187 97.1787 89.7333 97.232 90.064 97.232C90.32 97.232 90.56 97.2053 90.784 97.152C91.008 97.088 91.216 96.9973 91.408 96.88C91.6107 96.752 91.792 96.5973 91.952 96.416L92.592 97.04C92.3893 97.2853 92.1547 97.4933 91.888 97.664C91.632 97.8347 91.3493 97.9573 91.04 98.032C90.7307 98.1173 90.3947 98.16 90.032 98.16ZM87.616 93.616H91.632C91.632 93.2747 91.584 92.9707 91.488 92.704C91.4027 92.4267 91.2747 92.192 91.104 92C90.944 91.7973 90.7467 91.648 90.512 91.552C90.288 91.4453 90.032 91.392 89.744 91.392C89.488 91.392 89.2427 91.4347 89.008 91.52C88.784 91.6053 88.576 91.744 88.384 91.936C88.192 92.1173 88.0267 92.3467 87.888 92.624C87.76 92.9013 87.6693 93.232 87.616 93.616ZM97.712 98.16C97.1787 98.16 96.6933 98.08 96.256 97.92C95.8187 97.7493 95.44 97.504 95.12 97.184C94.8107 96.864 94.5707 96.4693 94.4 96C94.2293 95.52 94.144 94.976 94.144 94.368C94.144 93.7493 94.2293 93.2 94.4 92.72C94.5813 92.24 94.8213 91.84 95.12 91.52C95.4293 91.1893 95.7867 90.9387 96.192 90.768C96.608 90.5973 97.0453 90.512 97.504 90.512C97.92 90.512 98.3093 90.5813 98.672 90.72C99.0347 90.8587 99.3493 91.072 99.616 91.36C99.8827 91.6373 100.091 91.9947 100.24 92.432C100.4 92.8693 100.48 93.3867 100.48 93.984C100.48 94.0693 100.475 94.16 100.464 94.256C100.464 94.3413 100.459 94.4267 100.448 94.512H95.248C95.2693 94.9813 95.3493 95.392 95.488 95.744C95.6267 96.0853 95.808 96.368 96.032 96.592C96.256 96.8053 96.512 96.9653 96.8 97.072C97.0987 97.1787 97.4133 97.232 97.744 97.232C98 97.232 98.24 97.2053 98.464 97.152C98.688 97.088 98.896 96.9973 99.088 96.88C99.2907 96.752 99.472 96.5973 99.632 96.416L100.272 97.04C100.069 97.2853 99.8347 97.4933 99.568 97.664C99.312 97.8347 99.0293 97.9573 98.72 98.032C98.4107 98.1173 98.0747 98.16 97.712 98.16ZM95.296 93.616H99.312C99.312 93.2747 99.264 92.9707 99.168 92.704C99.0827 92.4267 98.9547 92.192 98.784 92C98.624 91.7973 98.4267 91.648 98.192 91.552C97.968 91.4453 97.712 91.392 97.424 91.392C97.168 91.392 96.9227 91.4347 96.688 91.52C96.464 91.6053 96.256 91.744 96.064 91.936C95.872 92.1173 95.7067 92.3467 95.568 92.624C95.44 92.9013 95.3493 93.232 95.296 93.616ZM104.224 94.336L103.264 95.232V98H102.096V87.36H103.248H103.408V87.472C103.344 87.536 103.301 87.6053 103.28 87.68C103.269 87.7547 103.264 87.8827 103.264 88.064V94.048L106.928 90.656C106.992 90.6667 107.056 90.6773 107.12 90.688C107.184 90.6987 107.248 90.7093 107.312 90.72C107.387 90.72 107.461 90.7253 107.536 90.736C107.621 90.736 107.701 90.736 107.776 90.736H108.192L105.12 93.632L108.704 98L107.216 98.064L104.224 94.336ZM109.984 98V97.072H112.144V88.288H110.08V87.36H113.312V97.072H115.456V98H109.984ZM118.432 100.784C118.091 100.784 117.776 100.731 117.488 100.624C117.211 100.517 116.965 100.363 116.752 100.16L117.248 99.376L117.344 99.232L117.44 99.296C117.461 99.3813 117.499 99.4507 117.552 99.504C117.605 99.568 117.707 99.648 117.856 99.744C117.952 99.776 118.053 99.7973 118.16 99.808C118.267 99.8293 118.379 99.84 118.496 99.84C118.784 99.84 119.024 99.7707 119.216 99.632C119.419 99.4933 119.595 99.28 119.744 98.992C119.893 98.704 120.037 98.3413 120.176 97.904L121.568 93.6C121.728 93.1093 121.883 92.624 122.032 92.144C122.181 91.664 122.283 91.1787 122.336 90.688H123.488C123.413 91.1787 123.296 91.6747 123.136 92.176C122.976 92.6773 122.805 93.1787 122.624 93.68L120.8 98.832C120.544 99.5467 120.213 100.048 119.808 100.336C119.413 100.635 118.955 100.784 118.432 100.784ZM117.136 90.688H118.336L120.704 96.784L120.192 98.208L117.136 90.688Z" fill="black"/>
<defs>
<filter id="filter0_d_4657_1248" x="0" y="137" width="107" height="68" filterUnits="userSpaceOnUse" color-interpolation-filters="sRGB">
<feFlood flood-opacity="0" result="BackgroundImageFix"/>
<feColorMatrix in="SourceAlpha" type="matrix" values="0 0 0 0 0 0 0 0 0 0 0 0 0 0 0 0 0 0 127 0" result="hardAlpha"/>
<feOffset dy="4"/>
<feGaussianBlur stdDeviation="2"/>
<feComposite in2="hardAlpha" operator="out"/>
<feColorMatrix type="matrix" values="0 0 0 0 0 0 0 0 0 0 0 0 0 0 0 0 0 0 0.25 0"/>
<feBlend mode="normal" in2="BackgroundImageFix" result="effect1_dropShadow_4657_1248"/>
<feBlend mode="normal" in="SourceGraphic" in2="effect1_dropShadow_4657_1248" result="shape"/>
</filter>
<filter id="filter1_d_4657_1248" x="101" y="137" width="107" height="68" filterUnits="userSpaceOnUse" color-interpolation-filters="sRGB">
<feFlood flood-opacity="0" result="BackgroundImageFix"/>
<feColorMatrix in="SourceAlpha" type="matrix" values="0 0 0 0 0 0 0 0 0 0 0 0 0 0 0 0 0 0 127 0" result="hardAlpha"/>
<feOffset dy="4"/>
<feGaussianBlur stdDeviation="2"/>
<feComposite in2="hardAlpha" operator="out"/>
<feColorMatrix type="matrix" values="0 0 0 0 0 0 0 0 0 0 0 0 0 0 0 0 0 0 0.25 0"/>
<feBlend mode="normal" in2="BackgroundImageFix" result="effect1_dropShadow_4657_1248"/>
<feBlend mode="normal" in="SourceGraphic" in2="effect1_dropShadow_4657_1248" result="shape"/>
</filter>
<filter id="filter2_d_4657_1248" x="0" y="0" width="208" height="53" filterUnits="userSpaceOnUse" color-interpolation-filters="sRGB">
<feFlood flood-opacity="0" result="BackgroundImageFix"/>
<feColorMatrix in="SourceAlpha" type="matrix" values="0 0 0 0 0 0 0 0 0 0 0 0 0 0 0 0 0 0 127 0" result="hardAlpha"/>
<feOffset dy="4"/>
<feGaussianBlur stdDeviation="2"/>
<feComposite in2="hardAlpha" operator="out"/>
<feColorMatrix type="matrix" values="0 0 0 0 0 0 0 0 0 0 0 0 0 0 0 0 0 0 0.25 0"/>
<feBlend mode="normal" in2="BackgroundImageFix" result="effect1_dropShadow_4657_1248"/>
<feBlend mode="normal" in="SourceGraphic" in2="effect1_dropShadow_4657_1248" result="shape"/>
</filter>
<filter id="filter3_d_4657_1248" x="46" y="74" width="116" height="43" filterUnits="userSpaceOnUse" color-interpolation-filters="sRGB">
<feFlood flood-opacity="0" result="BackgroundImageFix"/>
<feColorMatrix in="SourceAlpha" type="matrix" values="0 0 0 0 0 0 0 0 0 0 0 0 0 0 0 0 0 0 127 0" result="hardAlpha"/>
<feOffset dy="4"/>
<feGaussianBlur stdDeviation="2"/>
<feComposite in2="hardAlpha" operator="out"/>
<feColorMatrix type="matrix" values="0 0 0 0 0 0 0 0 0 0 0 0 0 0 0 0 0 0 0.25 0"/>
<feBlend mode="normal" in2="BackgroundImageFix" result="effect1_dropShadow_4657_1248"/>
<feBlend mode="normal" in="SourceGraphic" in2="effect1_dropShadow_4657_1248" result="shape"/>
</filter>
</defs>
</svg>
