<svg width="1792" height="1024" viewBox="0 0 1792 1024" fill="none" xmlns="http://www.w3.org/2000/svg">
<rect width="1792" height="1024" fill="#080808"/>
<path d="M202.417 165.765C206.276 165.765 208.206 165.765 209.733 165.142C211.868 164.271 213.561 162.559 214.423 160.4C215.039 158.856 215.039 156.905 215.039 153.002V153.002V127.894C215.039 119.81 215.039 115.767 212.555 113.256C210.072 110.744 206.074 110.744 198.079 110.744H182.71C170.387 110.744 164.226 110.744 161.741 114.818C159.257 118.892 162.023 124.459 167.555 135.593L178.122 156.863C179.966 160.574 177.298 164.949 173.191 164.949C171.104 164.949 169.196 163.759 168.26 161.874L147.552 120.195C145.268 115.597 144.125 113.297 142.079 112.021C140.032 110.744 137.487 110.744 132.398 110.744L127.323 110.744C119.328 110.744 115.33 110.744 112.847 113.256C110.363 115.768 110.363 119.81 110.363 127.894L110.363 152.186C110.363 156.089 110.363 158.04 109.747 159.584C108.885 161.743 107.192 163.455 105.057 164.326C103.53 164.95 101.6 164.95 97.741 164.95H97.7409C93.8819 164.95 91.9523 164.95 90.4253 165.573C88.2902 166.444 86.5972 168.156 85.7355 170.315C85.1191 171.859 85.1191 173.81 85.1191 177.713V202.821C85.1191 210.905 85.1191 214.948 87.6029 217.459C90.0866 219.971 94.0841 219.971 102.079 219.971H102.079H117.449C129.771 219.971 135.932 219.971 138.417 215.897C140.901 211.823 138.135 206.256 132.604 195.122L122.036 173.852C120.192 170.14 122.86 165.766 126.967 165.766C129.054 165.766 130.962 166.956 131.899 168.841L152.606 210.52C154.891 215.118 156.033 217.418 158.08 218.694C160.126 219.97 162.671 219.97 167.761 219.97H167.761H172.835C180.83 219.97 184.828 219.97 187.312 217.459C189.795 214.947 189.795 210.905 189.795 202.82V178.529C189.795 174.626 189.795 172.675 190.412 171.131C191.274 168.972 192.966 167.26 195.102 166.389C196.629 165.765 198.558 165.765 202.417 165.765Z" fill="white"/>
<path d="M202.417 165.765C206.276 165.765 208.206 165.765 209.733 165.142C211.868 164.271 213.561 162.559 214.423 160.4C215.039 158.856 215.039 156.905 215.039 153.002V153.002V127.894C215.039 119.81 215.039 115.767 212.555 113.256C210.072 110.744 206.074 110.744 198.079 110.744H182.71C170.387 110.744 164.226 110.744 161.741 114.818C159.257 118.892 162.023 124.459 167.555 135.593L178.122 156.863C179.966 160.574 177.298 164.949 173.191 164.949C171.104 164.949 169.196 163.759 168.26 161.874L147.552 120.195C145.268 115.597 144.125 113.297 142.079 112.021C140.032 110.744 137.487 110.744 132.398 110.744L127.323 110.744C119.328 110.744 115.33 110.744 112.847 113.256C110.363 115.768 110.363 119.81 110.363 127.894L110.363 152.186C110.363 156.089 110.363 158.04 109.747 159.584C108.885 161.743 107.192 163.455 105.057 164.326C103.53 164.95 101.6 164.95 97.741 164.95H97.7409C93.8819 164.95 91.9523 164.95 90.4253 165.573C88.2902 166.444 86.5972 168.156 85.7355 170.315C85.1191 171.859 85.1191 173.81 85.1191 177.713V202.821C85.1191 210.905 85.1191 214.948 87.6029 217.459C90.0866 219.971 94.0841 219.971 102.079 219.971H102.079H117.449C129.771 219.971 135.932 219.971 138.417 215.897C140.901 211.823 138.135 206.256 132.604 195.122L122.036 173.852C120.192 170.14 122.86 165.766 126.967 165.766C129.054 165.766 130.962 166.956 131.899 168.841L152.606 210.52C154.891 215.118 156.033 217.418 158.08 218.694C160.126 219.97 162.671 219.97 167.761 219.97H167.761H172.835C180.83 219.97 184.828 219.97 187.312 217.459C189.795 214.947 189.795 210.905 189.795 202.82V178.529C189.795 174.626 189.795 172.675 190.412 171.131C191.274 168.972 192.966 167.26 195.102 166.389C196.629 165.765 198.558 165.765 202.417 165.765Z" stroke="white"/>
<path d="M129.415 399.441V329.623H137.87V360.714H175.097V329.623H183.552V399.441H175.097V368.214H137.87V399.441H129.415ZM218.74 400.532C214.013 400.532 209.865 399.407 206.297 397.157C202.751 394.907 199.978 391.76 197.978 387.714C196.001 383.669 195.013 378.941 195.013 373.532C195.013 368.078 196.001 363.316 197.978 359.248C199.978 355.18 202.751 352.021 206.297 349.771C209.865 347.521 214.013 346.396 218.74 346.396C223.467 346.396 227.603 347.521 231.149 349.771C234.717 352.021 237.49 355.18 239.467 359.248C241.467 363.316 242.467 368.078 242.467 373.532C242.467 378.941 241.467 383.669 239.467 387.714C237.49 391.76 234.717 394.907 231.149 397.157C227.603 399.407 223.467 400.532 218.74 400.532ZM218.74 393.305C222.331 393.305 225.285 392.385 227.603 390.544C229.922 388.703 231.638 386.282 232.751 383.282C233.865 380.282 234.422 377.032 234.422 373.532C234.422 370.032 233.865 366.771 232.751 363.748C231.638 360.725 229.922 358.282 227.603 356.419C225.285 354.555 222.331 353.623 218.74 353.623C215.149 353.623 212.194 354.555 209.876 356.419C207.558 358.282 205.842 360.725 204.728 363.748C203.615 366.771 203.058 370.032 203.058 373.532C203.058 377.032 203.615 380.282 204.728 383.282C205.842 386.282 207.558 388.703 209.876 390.544C212.194 392.385 215.149 393.305 218.74 393.305ZM262.911 399.441L246.956 347.078H255.411L266.729 387.169H267.274L278.456 347.078H287.047L298.093 387.032H298.638L309.956 347.078H318.411L302.456 399.441H294.547L283.093 359.214H282.274L270.82 399.441H262.911ZM364.071 399.441L348.116 347.078H356.571L367.889 387.169H368.434L379.616 347.078H388.207L399.253 387.032H399.798L411.116 347.078H419.571L403.616 399.441H395.707L384.253 359.214H383.434L371.98 399.441H364.071ZM448.46 400.532C443.415 400.532 439.063 399.419 435.404 397.191C431.767 394.941 428.96 391.805 426.983 387.782C425.029 383.737 424.051 379.032 424.051 373.669C424.051 368.305 425.029 363.578 426.983 359.487C428.96 355.373 431.71 352.169 435.233 349.873C438.779 347.555 442.915 346.396 447.642 346.396C450.369 346.396 453.063 346.85 455.722 347.76C458.381 348.669 460.801 350.146 462.983 352.191C465.165 354.214 466.904 356.896 468.199 360.237C469.494 363.578 470.142 367.691 470.142 372.578V375.987H429.779V369.032H461.96C461.96 366.078 461.369 363.441 460.188 361.123C459.029 358.805 457.369 356.975 455.21 355.635C453.074 354.294 450.551 353.623 447.642 353.623C444.438 353.623 441.665 354.419 439.324 356.01C437.006 357.578 435.222 359.623 433.972 362.146C432.722 364.669 432.097 367.373 432.097 370.26V374.896C432.097 378.85 432.779 382.203 434.142 384.953C435.529 387.68 437.449 389.76 439.904 391.191C442.358 392.6 445.21 393.305 448.46 393.305C450.574 393.305 452.483 393.01 454.188 392.419C455.915 391.805 457.404 390.896 458.654 389.691C459.904 388.464 460.869 386.941 461.551 385.123L469.324 387.305C468.506 389.941 467.131 392.26 465.199 394.26C463.267 396.237 460.881 397.782 458.04 398.896C455.199 399.987 452.006 400.532 448.46 400.532ZM505.541 399.441V347.078H513.314V354.987H513.859C514.814 352.396 516.541 350.294 519.041 348.68C521.541 347.066 524.359 346.26 527.495 346.26C528.086 346.26 528.825 346.271 529.711 346.294C530.598 346.316 531.268 346.35 531.723 346.396V354.578C531.45 354.51 530.825 354.407 529.848 354.271C528.893 354.112 527.882 354.032 526.814 354.032C524.268 354.032 521.995 354.566 519.995 355.635C518.018 356.68 516.45 358.135 515.291 359.998C514.154 361.839 513.586 363.941 513.586 366.305V399.441H505.541ZM559.7 400.532C554.655 400.532 550.303 399.419 546.644 397.191C543.007 394.941 540.2 391.805 538.223 387.782C536.269 383.737 535.291 379.032 535.291 373.669C535.291 368.305 536.269 363.578 538.223 359.487C540.2 355.373 542.95 352.169 546.473 349.873C550.019 347.555 554.155 346.396 558.882 346.396C561.609 346.396 564.303 346.85 566.962 347.76C569.621 348.669 572.041 350.146 574.223 352.191C576.405 354.214 578.144 356.896 579.439 360.237C580.734 363.578 581.382 367.691 581.382 372.578V375.987H541.019V369.032H573.2C573.2 366.078 572.609 363.441 571.428 361.123C570.269 358.805 568.609 356.975 566.45 355.635C564.314 354.294 561.791 353.623 558.882 353.623C555.678 353.623 552.905 354.419 550.564 356.01C548.246 357.578 546.462 359.623 545.212 362.146C543.962 364.669 543.337 367.373 543.337 370.26V374.896C543.337 378.85 544.019 382.203 545.382 384.953C546.769 387.68 548.689 389.76 551.144 391.191C553.598 392.6 556.45 393.305 559.7 393.305C561.814 393.305 563.723 393.01 565.428 392.419C567.155 391.805 568.644 390.896 569.894 389.691C571.144 388.464 572.109 386.941 572.791 385.123L580.564 387.305C579.746 389.941 578.371 392.26 576.439 394.26C574.507 396.237 572.121 397.782 569.28 398.896C566.439 399.987 563.246 400.532 559.7 400.532ZM611.474 400.532C607.11 400.532 603.258 399.43 599.917 397.225C596.576 394.998 593.962 391.862 592.076 387.816C590.189 383.748 589.246 378.941 589.246 373.396C589.246 367.896 590.189 363.123 592.076 359.078C593.962 355.032 596.587 351.907 599.951 349.703C603.314 347.498 607.201 346.396 611.61 346.396C615.019 346.396 617.712 346.964 619.689 348.1C621.689 349.214 623.212 350.487 624.258 351.919C625.326 353.328 626.155 354.487 626.746 355.396H627.428V329.623H635.474V399.441H627.701V391.396H626.746C626.155 392.35 625.314 393.555 624.224 395.01C623.133 396.441 621.576 397.725 619.553 398.862C617.53 399.975 614.837 400.532 611.474 400.532ZM612.564 393.305C615.792 393.305 618.519 392.464 620.746 390.782C622.974 389.078 624.667 386.725 625.826 383.725C626.985 380.703 627.564 377.214 627.564 373.26C627.564 369.35 626.996 365.93 625.86 362.998C624.724 360.044 623.042 357.748 620.814 356.112C618.587 354.453 615.837 353.623 612.564 353.623C609.155 353.623 606.314 354.498 604.042 356.248C601.792 357.975 600.099 360.328 598.962 363.305C597.849 366.26 597.292 369.578 597.292 373.26C597.292 376.987 597.86 380.373 598.996 383.419C600.155 386.441 601.86 388.85 604.11 390.646C606.383 392.419 609.201 393.305 612.564 393.305ZM682.406 378.032V347.078H690.451V399.441H682.406V390.578H681.86C680.633 393.237 678.724 395.498 676.133 397.362C673.542 399.203 670.269 400.123 666.315 400.123C663.042 400.123 660.133 399.407 657.588 397.975C655.042 396.521 653.042 394.339 651.588 391.43C650.133 388.498 649.406 384.805 649.406 380.35V347.078H657.451V379.805C657.451 383.623 658.519 386.669 660.656 388.941C662.815 391.214 665.565 392.35 668.906 392.35C670.906 392.35 672.94 391.839 675.008 390.816C677.099 389.794 678.849 388.225 680.258 386.112C681.69 383.998 682.406 381.305 682.406 378.032ZM724.54 400.532C719.631 400.532 715.403 399.373 711.858 397.055C708.313 394.737 705.585 391.544 703.676 387.475C701.767 383.407 700.813 378.76 700.813 373.532C700.813 368.214 701.79 363.521 703.744 359.453C705.722 355.362 708.472 352.169 711.994 349.873C715.54 347.555 719.676 346.396 724.403 346.396C728.085 346.396 731.403 347.078 734.358 348.441C737.313 349.805 739.733 351.714 741.619 354.169C743.506 356.623 744.676 359.487 745.131 362.76H737.085C736.472 360.373 735.108 358.26 732.994 356.419C730.903 354.555 728.085 353.623 724.54 353.623C721.403 353.623 718.653 354.441 716.29 356.078C713.949 357.691 712.119 359.975 710.801 362.93C709.506 365.862 708.858 369.305 708.858 373.26C708.858 377.305 709.494 380.828 710.767 383.828C712.063 386.828 713.881 389.157 716.222 390.816C718.585 392.475 721.358 393.305 724.54 393.305C726.631 393.305 728.528 392.941 730.233 392.214C731.938 391.487 733.381 390.441 734.563 389.078C735.744 387.714 736.585 386.078 737.085 384.169H745.131C744.676 387.26 743.551 390.044 741.756 392.521C739.983 394.975 737.631 396.93 734.699 398.385C731.79 399.816 728.403 400.532 724.54 400.532ZM776.927 400.532C771.881 400.532 767.529 399.419 763.87 397.191C760.233 394.941 757.427 391.805 755.449 387.782C753.495 383.737 752.518 379.032 752.518 373.669C752.518 368.305 753.495 363.578 755.449 359.487C757.427 355.373 760.177 352.169 763.699 349.873C767.245 347.555 771.381 346.396 776.108 346.396C778.836 346.396 781.529 346.85 784.188 347.76C786.847 348.669 789.268 350.146 791.449 352.191C793.631 354.214 795.37 356.896 796.665 360.237C797.961 363.578 798.608 367.691 798.608 372.578V375.987H758.245V369.032H790.427C790.427 366.078 789.836 363.441 788.654 361.123C787.495 358.805 785.836 356.975 783.677 355.635C781.54 354.294 779.018 353.623 776.108 353.623C772.904 353.623 770.131 354.419 767.79 356.01C765.472 357.578 763.688 359.623 762.438 362.146C761.188 364.669 760.563 367.373 760.563 370.26V374.896C760.563 378.85 761.245 382.203 762.608 384.953C763.995 387.68 765.915 389.76 768.37 391.191C770.824 392.6 773.677 393.305 776.927 393.305C779.04 393.305 780.949 393.01 782.654 392.419C784.381 391.805 785.87 390.896 787.12 389.691C788.37 388.464 789.336 386.941 790.018 385.123L797.79 387.305C796.972 389.941 795.597 392.26 793.665 394.26C791.733 396.237 789.347 397.782 786.506 398.896C783.665 399.987 780.472 400.532 776.927 400.532ZM828.7 400.532C824.336 400.532 820.484 399.43 817.143 397.225C813.802 394.998 811.188 391.862 809.302 387.816C807.416 383.748 806.473 378.941 806.473 373.396C806.473 367.896 807.416 363.123 809.302 359.078C811.188 355.032 813.813 351.907 817.177 349.703C820.541 347.498 824.427 346.396 828.836 346.396C832.245 346.396 834.938 346.964 836.916 348.1C838.916 349.214 840.438 350.487 841.484 351.919C842.552 353.328 843.382 354.487 843.973 355.396H844.654V329.623H852.7V399.441H844.927V391.396H843.973C843.382 392.35 842.541 393.555 841.45 395.01C840.359 396.441 838.802 397.725 836.779 398.862C834.757 399.975 832.063 400.532 828.7 400.532ZM829.791 393.305C833.018 393.305 835.745 392.464 837.973 390.782C840.2 389.078 841.893 386.725 843.052 383.725C844.211 380.703 844.791 377.214 844.791 373.26C844.791 369.35 844.223 365.93 843.086 362.998C841.95 360.044 840.268 357.748 838.041 356.112C835.813 354.453 833.063 353.623 829.791 353.623C826.382 353.623 823.541 354.498 821.268 356.248C819.018 357.975 817.325 360.328 816.188 363.305C815.075 366.26 814.518 369.578 814.518 373.26C814.518 376.987 815.086 380.373 816.223 383.419C817.382 386.441 819.086 388.85 821.336 390.646C823.609 392.419 826.427 393.305 829.791 393.305ZM912.985 400.532C908.258 400.532 904.11 399.407 900.542 397.157C896.996 394.907 894.223 391.76 892.223 387.714C890.246 383.669 889.258 378.941 889.258 373.532C889.258 368.078 890.246 363.316 892.223 359.248C894.223 355.18 896.996 352.021 900.542 349.771C904.11 347.521 908.258 346.396 912.985 346.396C917.712 346.396 921.848 347.521 925.394 349.771C928.962 352.021 931.735 355.18 933.712 359.248C935.712 363.316 936.712 368.078 936.712 373.532C936.712 378.941 935.712 383.669 933.712 387.714C931.735 391.76 928.962 394.907 925.394 397.157C921.848 399.407 917.712 400.532 912.985 400.532ZM912.985 393.305C916.576 393.305 919.53 392.385 921.848 390.544C924.167 388.703 925.883 386.282 926.996 383.282C928.11 380.282 928.667 377.032 928.667 373.532C928.667 370.032 928.11 366.771 926.996 363.748C925.883 360.725 924.167 358.282 921.848 356.419C919.53 354.555 916.576 353.623 912.985 353.623C909.394 353.623 906.439 354.555 904.121 356.419C901.803 358.282 900.087 360.725 898.973 363.748C897.86 366.771 897.303 370.032 897.303 373.532C897.303 377.032 897.86 380.282 898.973 383.282C900.087 386.282 901.803 388.703 904.121 390.544C906.439 392.385 909.394 393.305 912.985 393.305ZM980.073 378.032V347.078H988.119V399.441H980.073V390.578H979.528C978.301 393.237 976.392 395.498 973.801 397.362C971.21 399.203 967.937 400.123 963.982 400.123C960.71 400.123 957.801 399.407 955.255 397.975C952.71 396.521 950.71 394.339 949.255 391.43C947.801 388.498 947.073 384.805 947.073 380.35V347.078H955.119V379.805C955.119 383.623 956.187 386.669 958.323 388.941C960.482 391.214 963.232 392.35 966.573 392.35C968.573 392.35 970.607 391.839 972.676 390.816C974.767 389.794 976.517 388.225 977.926 386.112C979.357 383.998 980.073 381.305 980.073 378.032ZM1000.93 399.441V347.078H1008.71V354.987H1009.25C1010.21 352.396 1011.93 350.294 1014.43 348.68C1016.93 347.066 1019.75 346.26 1022.89 346.26C1023.48 346.26 1024.22 346.271 1025.11 346.294C1025.99 346.316 1026.66 346.35 1027.12 346.396V354.578C1026.84 354.51 1026.22 354.407 1025.24 354.271C1024.29 354.112 1023.28 354.032 1022.21 354.032C1019.66 354.032 1017.39 354.566 1015.39 355.635C1013.41 356.68 1011.84 358.135 1010.68 359.998C1009.55 361.839 1008.98 363.941 1008.98 366.305V399.441H1000.93ZM1079.59 400.532C1075.22 400.532 1071.37 399.43 1068.03 397.225C1064.69 394.998 1062.07 391.862 1060.19 387.816C1058.3 383.748 1057.36 378.941 1057.36 373.396C1057.36 367.896 1058.3 363.123 1060.19 359.078C1062.07 355.032 1064.7 351.907 1068.06 349.703C1071.43 347.498 1075.31 346.396 1079.72 346.396C1083.13 346.396 1085.82 346.964 1087.8 348.1C1089.8 349.214 1091.32 350.487 1092.37 351.919C1093.44 353.328 1094.27 354.487 1094.86 355.396H1095.54V329.623H1103.59V399.441H1095.81V391.396H1094.86C1094.27 392.35 1093.43 393.555 1092.34 395.01C1091.25 396.441 1089.69 397.725 1087.67 398.862C1085.64 399.975 1082.95 400.532 1079.59 400.532ZM1080.68 393.305C1083.9 393.305 1086.63 392.464 1088.86 390.782C1091.09 389.078 1092.78 386.725 1093.94 383.725C1095.1 380.703 1095.68 377.214 1095.68 373.26C1095.68 369.35 1095.11 365.93 1093.97 362.998C1092.84 360.044 1091.15 357.748 1088.93 356.112C1086.7 354.453 1083.95 353.623 1080.68 353.623C1077.27 353.623 1074.43 354.498 1072.15 356.248C1069.9 357.975 1068.21 360.328 1067.07 363.305C1065.96 366.26 1065.4 369.578 1065.4 373.26C1065.4 376.987 1065.97 380.373 1067.11 383.419C1068.27 386.441 1069.97 388.85 1072.22 390.646C1074.5 392.419 1077.31 393.305 1080.68 393.305ZM1132.93 400.669C1129.61 400.669 1126.6 400.044 1123.89 398.794C1121.19 397.521 1119.04 395.691 1117.45 393.305C1115.86 390.896 1115.06 387.987 1115.06 384.578C1115.06 381.578 1115.65 379.146 1116.84 377.282C1118.02 375.396 1119.6 373.919 1121.58 372.85C1123.55 371.782 1125.73 370.987 1128.12 370.464C1130.53 369.919 1132.95 369.487 1135.38 369.169C1138.56 368.76 1141.14 368.453 1143.12 368.248C1145.12 368.021 1146.58 367.646 1147.48 367.123C1148.42 366.6 1148.88 365.691 1148.88 364.396V364.123C1148.88 360.76 1147.96 358.146 1146.12 356.282C1144.3 354.419 1141.54 353.487 1137.84 353.487C1134 353.487 1130.98 354.328 1128.8 356.01C1126.62 357.691 1125.09 359.487 1124.2 361.396L1116.56 358.669C1117.93 355.487 1119.75 353.01 1122.02 351.237C1124.31 349.441 1126.81 348.191 1129.52 347.487C1132.25 346.76 1134.93 346.396 1137.56 346.396C1139.25 346.396 1141.18 346.6 1143.36 347.01C1145.56 347.396 1147.69 348.203 1149.73 349.43C1151.8 350.657 1153.52 352.51 1154.88 354.987C1156.25 357.464 1156.93 360.782 1156.93 364.941V399.441H1148.88V392.35H1148.47C1147.93 393.487 1147.02 394.703 1145.75 395.998C1144.47 397.294 1142.78 398.396 1140.67 399.305C1138.55 400.214 1135.97 400.669 1132.93 400.669ZM1134.15 393.441C1137.34 393.441 1140.02 392.816 1142.2 391.566C1144.4 390.316 1146.06 388.703 1147.18 386.725C1148.31 384.748 1148.88 382.669 1148.88 380.487V373.123C1148.54 373.532 1147.79 373.907 1146.63 374.248C1145.5 374.566 1144.18 374.85 1142.68 375.1C1141.2 375.328 1139.76 375.532 1138.35 375.714C1136.96 375.873 1135.84 376.01 1134.97 376.123C1132.88 376.396 1130.93 376.839 1129.11 377.453C1127.31 378.044 1125.86 378.941 1124.75 380.146C1123.65 381.328 1123.11 382.941 1123.11 384.987C1123.11 387.782 1124.14 389.896 1126.21 391.328C1128.3 392.737 1130.95 393.441 1134.15 393.441ZM1192.46 347.078V353.896H1165.33V347.078H1192.46ZM1173.24 334.532H1181.28V384.441C1181.28 386.714 1181.61 388.419 1182.27 389.555C1182.95 390.669 1183.82 391.419 1184.86 391.805C1185.93 392.169 1187.06 392.35 1188.24 392.35C1189.12 392.35 1189.85 392.305 1190.42 392.214C1190.99 392.1 1191.44 392.01 1191.78 391.941L1193.42 399.169C1192.87 399.373 1192.11 399.578 1191.14 399.782C1190.16 400.01 1188.92 400.123 1187.42 400.123C1185.15 400.123 1182.92 399.635 1180.74 398.657C1178.58 397.68 1176.78 396.191 1175.35 394.191C1173.94 392.191 1173.24 389.669 1173.24 386.623V334.532ZM1218.06 400.669C1214.74 400.669 1211.73 400.044 1209.02 398.794C1206.32 397.521 1204.17 395.691 1202.58 393.305C1200.99 390.896 1200.19 387.987 1200.19 384.578C1200.19 381.578 1200.78 379.146 1201.97 377.282C1203.15 375.396 1204.73 373.919 1206.7 372.85C1208.68 371.782 1210.86 370.987 1213.25 370.464C1215.66 369.919 1218.08 369.487 1220.51 369.169C1223.69 368.76 1226.27 368.453 1228.25 368.248C1230.25 368.021 1231.7 367.646 1232.61 367.123C1233.54 366.6 1234.01 365.691 1234.01 364.396V364.123C1234.01 360.76 1233.09 358.146 1231.25 356.282C1229.43 354.419 1226.67 353.487 1222.97 353.487C1219.12 353.487 1216.11 354.328 1213.93 356.01C1211.75 357.691 1210.22 359.487 1209.33 361.396L1201.69 358.669C1203.06 355.487 1204.87 353.01 1207.15 351.237C1209.44 349.441 1211.94 348.191 1214.65 347.487C1217.37 346.76 1220.06 346.396 1222.69 346.396C1224.37 346.396 1226.31 346.6 1228.49 347.01C1230.69 347.396 1232.82 348.203 1234.86 349.43C1236.93 350.657 1238.65 352.51 1240.01 354.987C1241.37 357.464 1242.06 360.782 1242.06 364.941V399.441H1234.01V392.35H1233.6C1233.06 393.487 1232.15 394.703 1230.87 395.998C1229.6 397.294 1227.91 398.396 1225.79 399.305C1223.68 400.214 1221.1 400.669 1218.06 400.669ZM1219.28 393.441C1222.47 393.441 1225.15 392.816 1227.33 391.566C1229.53 390.316 1231.19 388.703 1232.31 386.725C1233.44 384.748 1234.01 382.669 1234.01 380.487V373.123C1233.67 373.532 1232.92 373.907 1231.76 374.248C1230.62 374.566 1229.31 374.85 1227.81 375.1C1226.33 375.328 1224.89 375.532 1223.48 375.714C1222.09 375.873 1220.97 376.01 1220.1 376.123C1218.01 376.396 1216.06 376.839 1214.24 377.453C1212.44 378.044 1210.99 378.941 1209.87 380.146C1208.78 381.328 1208.24 382.941 1208.24 384.987C1208.24 387.782 1209.27 389.896 1211.34 391.328C1213.43 392.737 1216.08 393.441 1219.28 393.441ZM149.461 536.169C145.575 536.169 142.234 535.669 139.438 534.669C136.643 533.691 134.313 532.396 132.45 530.782C130.609 529.191 129.143 527.487 128.052 525.669L134.461 521.169C135.188 522.123 136.109 523.214 137.222 524.441C138.336 525.691 139.859 526.771 141.79 527.68C143.745 528.612 146.302 529.078 149.461 529.078C153.688 529.078 157.177 528.055 159.927 526.01C162.677 523.964 164.052 520.76 164.052 516.396V505.76H163.37C162.779 506.714 161.938 507.896 160.847 509.305C159.779 510.691 158.234 511.93 156.211 513.021C154.211 514.089 151.506 514.623 148.097 514.623C143.87 514.623 140.075 513.623 136.711 511.623C133.37 509.623 130.722 506.714 128.768 502.896C126.836 499.078 125.87 494.441 125.87 488.987C125.87 483.623 126.813 478.953 128.7 474.975C130.586 470.975 133.211 467.885 136.575 465.703C139.938 463.498 143.825 462.396 148.234 462.396C151.643 462.396 154.347 462.964 156.347 464.1C158.37 465.214 159.915 466.487 160.984 467.919C162.075 469.328 162.915 470.487 163.506 471.396H164.325V463.078H172.097V516.941C172.097 521.441 171.075 525.1 169.029 527.919C167.006 530.76 164.279 532.839 160.847 534.157C157.438 535.498 153.643 536.169 149.461 536.169ZM149.188 507.396C152.415 507.396 155.143 506.657 157.37 505.18C159.597 503.703 161.29 501.578 162.45 498.805C163.609 496.032 164.188 492.714 164.188 488.85C164.188 485.078 163.62 481.748 162.484 478.862C161.347 475.975 159.665 473.714 157.438 472.078C155.211 470.441 152.461 469.623 149.188 469.623C145.779 469.623 142.938 470.487 140.665 472.214C138.415 473.941 136.722 476.26 135.586 479.169C134.472 482.078 133.915 485.305 133.915 488.85C133.915 492.487 134.484 495.703 135.62 498.498C136.779 501.271 138.484 503.453 140.734 505.044C143.006 506.612 145.825 507.396 149.188 507.396ZM206.859 516.532C201.814 516.532 197.461 515.419 193.802 513.191C190.166 510.941 187.359 507.805 185.382 503.782C183.427 499.737 182.45 495.032 182.45 489.669C182.45 484.305 183.427 479.578 185.382 475.487C187.359 471.373 190.109 468.169 193.632 465.873C197.177 463.555 201.314 462.396 206.041 462.396C208.768 462.396 211.461 462.85 214.12 463.76C216.78 464.669 219.2 466.146 221.382 468.191C223.564 470.214 225.302 472.896 226.598 476.237C227.893 479.578 228.541 483.691 228.541 488.578V491.987H188.177V485.032H220.359C220.359 482.078 219.768 479.441 218.586 477.123C217.427 474.805 215.768 472.975 213.609 471.635C211.473 470.294 208.95 469.623 206.041 469.623C202.836 469.623 200.064 470.419 197.723 472.01C195.405 473.578 193.62 475.623 192.37 478.146C191.12 480.669 190.495 483.373 190.495 486.26V490.896C190.495 494.85 191.177 498.203 192.541 500.953C193.927 503.68 195.848 505.76 198.302 507.191C200.757 508.6 203.609 509.305 206.859 509.305C208.973 509.305 210.882 509.01 212.586 508.419C214.314 507.805 215.802 506.896 217.052 505.691C218.302 504.464 219.268 502.941 219.95 501.123L227.723 503.305C226.905 505.941 225.53 508.26 223.598 510.26C221.666 512.237 219.28 513.782 216.439 514.896C213.598 515.987 210.405 516.532 206.859 516.532ZM246.905 483.941V515.441H238.86V463.078H246.632V471.26H247.314C248.541 468.6 250.405 466.464 252.905 464.85C255.405 463.214 258.632 462.396 262.587 462.396C266.132 462.396 269.235 463.123 271.894 464.578C274.553 466.01 276.621 468.191 278.098 471.123C279.575 474.032 280.314 477.714 280.314 482.169V515.441H272.269V482.714C272.269 478.6 271.2 475.396 269.064 473.1C266.928 470.782 263.996 469.623 260.269 469.623C257.7 469.623 255.405 470.18 253.382 471.294C251.382 472.407 249.803 474.032 248.644 476.169C247.485 478.305 246.905 480.896 246.905 483.941ZM315.05 516.532C310.005 516.532 305.653 515.419 301.994 513.191C298.357 510.941 295.55 507.805 293.573 503.782C291.619 499.737 290.641 495.032 290.641 489.669C290.641 484.305 291.619 479.578 293.573 475.487C295.55 471.373 298.3 468.169 301.823 465.873C305.369 463.555 309.505 462.396 314.232 462.396C316.959 462.396 319.653 462.85 322.312 463.76C324.971 464.669 327.391 466.146 329.573 468.191C331.755 470.214 333.494 472.896 334.789 476.237C336.084 479.578 336.732 483.691 336.732 488.578V491.987H296.369V485.032H328.55C328.55 482.078 327.959 479.441 326.778 477.123C325.619 474.805 323.959 472.975 321.8 471.635C319.664 470.294 317.141 469.623 314.232 469.623C311.028 469.623 308.255 470.419 305.914 472.01C303.596 473.578 301.812 475.623 300.562 478.146C299.312 480.669 298.687 483.373 298.687 486.26V490.896C298.687 494.85 299.369 498.203 300.732 500.953C302.119 503.68 304.039 505.76 306.494 507.191C308.948 508.6 311.8 509.305 315.05 509.305C317.164 509.305 319.073 509.01 320.778 508.419C322.505 507.805 323.994 506.896 325.244 505.691C326.494 504.464 327.459 502.941 328.141 501.123L335.914 503.305C335.096 505.941 333.721 508.26 331.789 510.26C329.857 512.237 327.471 513.782 324.63 514.896C321.789 515.987 318.596 516.532 315.05 516.532ZM347.051 515.441V463.078H354.824V470.987H355.369C356.324 468.396 358.051 466.294 360.551 464.68C363.051 463.066 365.869 462.26 369.005 462.26C369.596 462.26 370.335 462.271 371.221 462.294C372.108 462.316 372.778 462.35 373.233 462.396V470.578C372.96 470.51 372.335 470.407 371.358 470.271C370.403 470.112 369.392 470.032 368.324 470.032C365.778 470.032 363.505 470.566 361.505 471.635C359.528 472.68 357.96 474.135 356.801 475.998C355.664 477.839 355.096 479.941 355.096 482.305V515.441H347.051ZM396.259 516.669C392.94 516.669 389.929 516.044 387.225 514.794C384.52 513.521 382.372 511.691 380.781 509.305C379.19 506.896 378.395 503.987 378.395 500.578C378.395 497.578 378.986 495.146 380.168 493.282C381.35 491.396 382.929 489.919 384.906 488.85C386.884 487.782 389.065 486.987 391.452 486.464C393.861 485.919 396.281 485.487 398.713 485.169C401.895 484.76 404.475 484.453 406.452 484.248C408.452 484.021 409.906 483.646 410.815 483.123C411.747 482.6 412.213 481.691 412.213 480.396V480.123C412.213 476.76 411.293 474.146 409.452 472.282C407.634 470.419 404.872 469.487 401.168 469.487C397.327 469.487 394.315 470.328 392.134 472.01C389.952 473.691 388.418 475.487 387.531 477.396L379.895 474.669C381.259 471.487 383.077 469.01 385.35 467.237C387.645 465.441 390.145 464.191 392.85 463.487C395.577 462.76 398.259 462.396 400.895 462.396C402.577 462.396 404.509 462.6 406.69 463.01C408.895 463.396 411.02 464.203 413.065 465.43C415.134 466.657 416.85 468.51 418.213 470.987C419.577 473.464 420.259 476.782 420.259 480.941V515.441H412.213V508.35H411.804C411.259 509.487 410.35 510.703 409.077 511.998C407.804 513.294 406.111 514.396 403.997 515.305C401.884 516.214 399.304 516.669 396.259 516.669ZM397.486 509.441C400.668 509.441 403.35 508.816 405.531 507.566C407.736 506.316 409.395 504.703 410.509 502.725C411.645 500.748 412.213 498.669 412.213 496.487V489.123C411.872 489.532 411.122 489.907 409.963 490.248C408.827 490.566 407.509 490.85 406.009 491.1C404.531 491.328 403.088 491.532 401.679 491.714C400.293 491.873 399.168 492.01 398.304 492.123C396.213 492.396 394.259 492.839 392.44 493.453C390.645 494.044 389.19 494.941 388.077 496.146C386.986 497.328 386.44 498.941 386.44 500.987C386.44 503.782 387.475 505.896 389.543 507.328C391.634 508.737 394.281 509.441 397.486 509.441ZM455.796 463.078V469.896H428.66V463.078H455.796ZM436.569 450.532H444.614V500.441C444.614 502.714 444.944 504.419 445.603 505.555C446.285 506.669 447.148 507.419 448.194 507.805C449.262 508.169 450.387 508.35 451.569 508.35C452.455 508.35 453.182 508.305 453.751 508.214C454.319 508.1 454.773 508.01 455.114 507.941L456.751 515.169C456.205 515.373 455.444 515.578 454.467 515.782C453.489 516.01 452.251 516.123 450.751 516.123C448.478 516.123 446.251 515.635 444.069 514.657C441.91 513.68 440.114 512.191 438.682 510.191C437.273 508.191 436.569 505.669 436.569 502.623V450.532ZM465.978 515.441V463.078H474.024V515.441H465.978ZM470.069 454.35C468.501 454.35 467.149 453.816 466.012 452.748C464.899 451.68 464.342 450.396 464.342 448.896C464.342 447.396 464.899 446.112 466.012 445.044C467.149 443.975 468.501 443.441 470.069 443.441C471.637 443.441 472.978 443.975 474.092 445.044C475.228 446.112 475.797 447.396 475.797 448.896C475.797 450.396 475.228 451.68 474.092 452.748C472.978 453.816 471.637 454.35 470.069 454.35ZM508.112 516.532C503.385 516.532 499.237 515.407 495.669 513.157C492.124 510.907 489.351 507.76 487.351 503.714C485.374 499.669 484.385 494.941 484.385 489.532C484.385 484.078 485.374 479.316 487.351 475.248C489.351 471.18 492.124 468.021 495.669 465.771C499.237 463.521 503.385 462.396 508.112 462.396C512.84 462.396 516.976 463.521 520.521 465.771C524.09 468.021 526.862 471.18 528.84 475.248C530.84 479.316 531.84 484.078 531.84 489.532C531.84 494.941 530.84 499.669 528.84 503.714C526.862 507.76 524.09 510.907 520.521 513.157C516.976 515.407 512.84 516.532 508.112 516.532ZM508.112 509.305C511.703 509.305 514.658 508.385 516.976 506.544C519.294 504.703 521.01 502.282 522.124 499.282C523.237 496.282 523.794 493.032 523.794 489.532C523.794 486.032 523.237 482.771 522.124 479.748C521.01 476.725 519.294 474.282 516.976 472.419C514.658 470.555 511.703 469.623 508.112 469.623C504.521 469.623 501.567 470.555 499.249 472.419C496.93 474.282 495.215 476.725 494.101 479.748C492.987 482.771 492.43 486.032 492.43 489.532C492.43 493.032 492.987 496.282 494.101 499.282C495.215 502.282 496.93 504.703 499.249 506.544C501.567 508.385 504.521 509.305 508.112 509.305ZM550.246 483.941V515.441H542.201V463.078H549.974V471.26H550.655C551.883 468.6 553.746 466.464 556.246 464.85C558.746 463.214 561.974 462.396 565.928 462.396C569.474 462.396 572.576 463.123 575.235 464.578C577.894 466.01 579.962 468.191 581.439 471.123C582.917 474.032 583.655 477.714 583.655 482.169V515.441H575.61V482.714C575.61 478.6 574.542 475.396 572.405 473.1C570.269 470.782 567.337 469.623 563.61 469.623C561.042 469.623 558.746 470.18 556.724 471.294C554.724 472.407 553.144 474.032 551.985 476.169C550.826 478.305 550.246 480.896 550.246 483.941ZM636.926 516.669C633.608 516.669 630.597 516.044 627.892 514.794C625.188 513.521 623.04 511.691 621.449 509.305C619.858 506.896 619.063 503.987 619.063 500.578C619.063 497.578 619.653 495.146 620.835 493.282C622.017 491.396 623.597 489.919 625.574 488.85C627.551 487.782 629.733 486.987 632.119 486.464C634.528 485.919 636.949 485.487 639.381 485.169C642.563 484.76 645.142 484.453 647.119 484.248C649.119 484.021 650.574 483.646 651.483 483.123C652.415 482.6 652.881 481.691 652.881 480.396V480.123C652.881 476.76 651.96 474.146 650.119 472.282C648.301 470.419 645.54 469.487 641.835 469.487C637.994 469.487 634.983 470.328 632.801 472.01C630.619 473.691 629.085 475.487 628.199 477.396L620.563 474.669C621.926 471.487 623.744 469.01 626.017 467.237C628.313 465.441 630.813 464.191 633.517 463.487C636.244 462.76 638.926 462.396 641.563 462.396C643.244 462.396 645.176 462.6 647.358 463.01C649.563 463.396 651.688 464.203 653.733 465.43C655.801 466.657 657.517 468.51 658.881 470.987C660.244 473.464 660.926 476.782 660.926 480.941V515.441H652.881V508.35H652.472C651.926 509.487 651.017 510.703 649.744 511.998C648.472 513.294 646.778 514.396 644.665 515.305C642.551 516.214 639.972 516.669 636.926 516.669ZM638.153 509.441C641.335 509.441 644.017 508.816 646.199 507.566C648.403 506.316 650.063 504.703 651.176 502.725C652.313 500.748 652.881 498.669 652.881 496.487V489.123C652.54 489.532 651.79 489.907 650.631 490.248C649.494 490.566 648.176 490.85 646.676 491.1C645.199 491.328 643.756 491.532 642.347 491.714C640.96 491.873 639.835 492.01 638.972 492.123C636.881 492.396 634.926 492.839 633.108 493.453C631.313 494.044 629.858 494.941 628.744 496.146C627.653 497.328 627.108 498.941 627.108 500.987C627.108 503.782 628.142 505.896 630.21 507.328C632.301 508.737 634.949 509.441 638.153 509.441ZM681.736 483.941V515.441H673.691V463.078H681.464V471.26H682.145C683.373 468.6 685.236 466.464 687.736 464.85C690.236 463.214 693.464 462.396 697.418 462.396C700.964 462.396 704.066 463.123 706.725 464.578C709.384 466.01 711.452 468.191 712.929 471.123C714.407 474.032 715.145 477.714 715.145 482.169V515.441H707.1V482.714C707.1 478.6 706.032 475.396 703.895 473.1C701.759 470.782 698.827 469.623 695.1 469.623C692.532 469.623 690.236 470.18 688.214 471.294C686.214 472.407 684.634 474.032 683.475 476.169C682.316 478.305 681.736 480.896 681.736 483.941ZM747.7 516.532C743.336 516.532 739.484 515.43 736.143 513.225C732.802 510.998 730.188 507.862 728.302 503.816C726.416 499.748 725.473 494.941 725.473 489.396C725.473 483.896 726.416 479.123 728.302 475.078C730.188 471.032 732.813 467.907 736.177 465.703C739.541 463.498 743.427 462.396 747.836 462.396C751.245 462.396 753.938 462.964 755.916 464.1C757.916 465.214 759.438 466.487 760.484 467.919C761.552 469.328 762.382 470.487 762.973 471.396H763.654V445.623H771.7V515.441H763.927V507.396H762.973C762.382 508.35 761.541 509.555 760.45 511.01C759.359 512.441 757.802 513.725 755.779 514.862C753.757 515.975 751.063 516.532 747.7 516.532ZM748.791 509.305C752.018 509.305 754.745 508.464 756.973 506.782C759.2 505.078 760.893 502.725 762.052 499.725C763.211 496.703 763.791 493.214 763.791 489.26C763.791 485.35 763.223 481.93 762.086 478.998C760.95 476.044 759.268 473.748 757.041 472.112C754.813 470.453 752.063 469.623 748.791 469.623C745.382 469.623 742.541 470.498 740.268 472.248C738.018 473.975 736.325 476.328 735.188 479.305C734.075 482.26 733.518 485.578 733.518 489.26C733.518 492.987 734.086 496.373 735.223 499.419C736.382 502.441 738.086 504.85 740.336 506.646C742.609 508.419 745.427 509.305 748.791 509.305ZM847.803 474.805L840.576 476.85C840.121 475.646 839.451 474.475 838.564 473.339C837.701 472.18 836.519 471.225 835.019 470.475C833.519 469.725 831.598 469.35 829.258 469.35C826.053 469.35 823.383 470.089 821.246 471.566C819.133 473.021 818.076 474.873 818.076 477.123C818.076 479.123 818.803 480.703 820.258 481.862C821.712 483.021 823.985 483.987 827.076 484.76L834.848 486.669C839.53 487.805 843.019 489.544 845.314 491.885C847.61 494.203 848.758 497.191 848.758 500.85C848.758 503.85 847.894 506.532 846.167 508.896C844.462 511.26 842.076 513.123 839.008 514.487C835.939 515.85 832.371 516.532 828.303 516.532C822.962 516.532 818.542 515.373 815.042 513.055C811.542 510.737 809.326 507.35 808.394 502.896L816.03 500.987C816.758 503.805 818.133 505.919 820.155 507.328C822.201 508.737 824.871 509.441 828.167 509.441C831.917 509.441 834.894 508.646 837.098 507.055C839.326 505.441 840.439 503.51 840.439 501.26C840.439 499.441 839.803 497.919 838.53 496.691C837.258 495.441 835.303 494.51 832.667 493.896L823.939 491.85C819.144 490.714 815.621 488.953 813.371 486.566C811.144 484.157 810.03 481.146 810.03 477.532C810.03 474.578 810.86 471.964 812.519 469.691C814.201 467.419 816.485 465.635 819.371 464.339C822.28 463.044 825.576 462.396 829.258 462.396C834.439 462.396 838.508 463.532 841.462 465.805C844.439 468.078 846.553 471.078 847.803 474.805ZM864.13 535.078C862.767 535.078 861.551 534.964 860.482 534.737C859.414 534.532 858.676 534.328 858.267 534.123L860.312 527.032C862.267 527.532 863.994 527.714 865.494 527.578C866.994 527.441 868.323 526.771 869.482 525.566C870.664 524.385 871.744 522.464 872.721 519.805L874.221 515.714L854.857 463.078H863.585L878.039 504.805H878.585L893.039 463.078H901.767L879.539 523.078C878.539 525.782 877.301 528.021 875.823 529.794C874.346 531.589 872.63 532.919 870.676 533.782C868.744 534.646 866.562 535.078 864.13 535.078ZM918.511 483.941V515.441H910.466V463.078H918.239V471.26H918.92C920.148 468.6 922.011 466.464 924.511 464.85C927.011 463.214 930.239 462.396 934.193 462.396C937.739 462.396 940.841 463.123 943.5 464.578C946.159 466.01 948.227 468.191 949.704 471.123C951.182 474.032 951.92 477.714 951.92 482.169V515.441H943.875V482.714C943.875 478.6 942.807 475.396 940.67 473.1C938.534 470.782 935.602 469.623 931.875 469.623C929.307 469.623 927.011 470.18 924.989 471.294C922.989 472.407 921.409 474.032 920.25 476.169C919.091 478.305 918.511 480.896 918.511 483.941ZM985.975 516.532C981.066 516.532 976.838 515.373 973.293 513.055C969.748 510.737 967.02 507.544 965.111 503.475C963.202 499.407 962.248 494.76 962.248 489.532C962.248 484.214 963.225 479.521 965.179 475.453C967.157 471.362 969.907 468.169 973.429 465.873C976.975 463.555 981.111 462.396 985.838 462.396C989.52 462.396 992.838 463.078 995.793 464.441C998.748 465.805 1001.17 467.714 1003.05 470.169C1004.94 472.623 1006.11 475.487 1006.57 478.76H998.52C997.907 476.373 996.543 474.26 994.429 472.419C992.338 470.555 989.52 469.623 985.975 469.623C982.838 469.623 980.088 470.441 977.725 472.078C975.384 473.691 973.554 475.975 972.236 478.93C970.941 481.862 970.293 485.305 970.293 489.26C970.293 493.305 970.929 496.828 972.202 499.828C973.498 502.828 975.316 505.157 977.657 506.816C980.02 508.475 982.793 509.305 985.975 509.305C988.066 509.305 989.963 508.941 991.668 508.214C993.373 507.487 994.816 506.441 995.998 505.078C997.179 503.714 998.02 502.078 998.52 500.169H1006.57C1006.11 503.26 1004.99 506.044 1003.19 508.521C1001.42 510.975 999.066 512.93 996.134 514.385C993.225 515.816 989.838 516.532 985.975 516.532ZM1064.26 463.078V469.896H1037.12V463.078H1064.26ZM1045.03 450.532H1053.08V500.441C1053.08 502.714 1053.41 504.419 1054.07 505.555C1054.75 506.669 1055.61 507.419 1056.66 507.805C1057.73 508.169 1058.85 508.35 1060.03 508.35C1060.92 508.35 1061.65 508.305 1062.21 508.214C1062.78 508.1 1063.24 508.01 1063.58 507.941L1065.21 515.169C1064.67 515.373 1063.91 515.578 1062.93 515.782C1061.95 516.01 1060.71 516.123 1059.21 516.123C1056.94 516.123 1054.71 515.635 1052.53 514.657C1050.37 513.68 1048.58 512.191 1047.15 510.191C1045.74 508.191 1045.03 505.669 1045.03 502.623V450.532ZM1074.44 515.441V463.078H1082.49V515.441H1074.44ZM1078.53 454.35C1076.96 454.35 1075.61 453.816 1074.48 452.748C1073.36 451.68 1072.81 450.396 1072.81 448.896C1072.81 447.396 1073.36 446.112 1074.48 445.044C1075.61 443.975 1076.96 443.441 1078.53 443.441C1080.1 443.441 1081.44 443.975 1082.56 445.044C1083.69 446.112 1084.26 447.396 1084.26 448.896C1084.26 450.396 1083.69 451.68 1082.56 452.748C1081.44 453.816 1080.1 454.35 1078.53 454.35ZM1095.3 515.441V463.078H1103.08V471.26H1103.76C1104.85 468.464 1106.61 466.294 1109.04 464.748C1111.47 463.18 1114.39 462.396 1117.8 462.396C1121.26 462.396 1124.13 463.18 1126.43 464.748C1128.75 466.294 1130.55 468.464 1131.85 471.26H1132.39C1133.74 468.555 1135.75 466.407 1138.43 464.816C1141.11 463.203 1144.33 462.396 1148.08 462.396C1152.76 462.396 1156.59 463.862 1159.56 466.794C1162.54 469.703 1164.03 474.237 1164.03 480.396V515.441H1155.99V480.396C1155.99 476.532 1154.93 473.771 1152.81 472.112C1150.7 470.453 1148.21 469.623 1145.35 469.623C1141.67 469.623 1138.81 470.737 1136.79 472.964C1134.77 475.169 1133.76 477.964 1133.76 481.35V515.441H1125.58V479.578C1125.58 476.6 1124.61 474.203 1122.68 472.385C1120.75 470.544 1118.26 469.623 1115.21 469.623C1113.12 469.623 1111.17 470.18 1109.35 471.294C1107.55 472.407 1106.1 473.953 1104.99 475.93C1103.89 477.885 1103.35 480.146 1103.35 482.714V515.441H1095.3ZM1198.78 516.532C1193.73 516.532 1189.38 515.419 1185.72 513.191C1182.08 510.941 1179.28 507.805 1177.3 503.782C1175.34 499.737 1174.37 495.032 1174.37 489.669C1174.37 484.305 1175.34 479.578 1177.3 475.487C1179.28 471.373 1182.03 468.169 1185.55 465.873C1189.09 463.555 1193.23 462.396 1197.96 462.396C1200.68 462.396 1203.38 462.85 1206.04 463.76C1208.7 464.669 1211.12 466.146 1213.3 468.191C1215.48 470.214 1217.22 472.896 1218.51 476.237C1219.81 479.578 1220.46 483.691 1220.46 488.578V491.987H1180.09V485.032H1212.28C1212.28 482.078 1211.68 479.441 1210.5 477.123C1209.34 474.805 1207.68 472.975 1205.53 471.635C1203.39 470.294 1200.87 469.623 1197.96 469.623C1194.75 469.623 1191.98 470.419 1189.64 472.01C1187.32 473.578 1185.54 475.623 1184.29 478.146C1183.04 480.669 1182.41 483.373 1182.41 486.26V490.896C1182.41 494.85 1183.09 498.203 1184.46 500.953C1185.84 503.68 1187.76 505.76 1190.22 507.191C1192.67 508.6 1195.53 509.305 1198.78 509.305C1200.89 509.305 1202.8 509.01 1204.5 508.419C1206.23 507.805 1207.72 506.896 1208.97 505.691C1210.22 504.464 1211.18 502.941 1211.87 501.123L1219.64 503.305C1218.82 505.941 1217.45 508.26 1215.51 510.26C1213.58 512.237 1211.2 513.782 1208.35 514.896C1205.51 515.987 1202.32 516.532 1198.78 516.532ZM1256.95 515.441V445.623H1264.99V471.396H1265.67C1266.26 470.487 1267.08 469.328 1268.13 467.919C1269.2 466.487 1270.72 465.214 1272.7 464.1C1274.7 462.964 1277.4 462.396 1280.81 462.396C1285.22 462.396 1289.11 463.498 1292.47 465.703C1295.83 467.907 1298.46 471.032 1300.34 475.078C1302.23 479.123 1303.17 483.896 1303.17 489.396C1303.17 494.941 1302.23 499.748 1300.34 503.816C1298.46 507.862 1295.84 510.998 1292.5 513.225C1289.16 515.43 1285.31 516.532 1280.95 516.532C1277.58 516.532 1274.89 515.975 1272.87 514.862C1270.84 513.725 1269.29 512.441 1268.2 511.01C1267.11 509.555 1266.26 508.35 1265.67 507.396H1264.72V515.441H1256.95ZM1264.86 489.26C1264.86 493.214 1265.44 496.703 1266.59 499.725C1267.75 502.725 1269.45 505.078 1271.67 506.782C1273.9 508.464 1276.63 509.305 1279.86 509.305C1283.22 509.305 1286.03 508.419 1288.28 506.646C1290.55 504.85 1292.25 502.441 1293.39 499.419C1294.55 496.373 1295.13 492.987 1295.13 489.26C1295.13 485.578 1294.56 482.26 1293.42 479.305C1292.31 476.328 1290.62 473.975 1288.34 472.248C1286.09 470.498 1283.26 469.623 1279.86 469.623C1276.58 469.623 1273.83 470.453 1271.61 472.112C1269.38 473.748 1267.7 476.044 1266.56 478.998C1265.42 481.93 1264.86 485.35 1264.86 489.26ZM1316.87 535.078C1315.5 535.078 1314.29 534.964 1313.22 534.737C1312.15 534.532 1311.41 534.328 1311 534.123L1313.05 527.032C1315 527.532 1316.73 527.714 1318.23 527.578C1319.73 527.441 1321.06 526.771 1322.22 525.566C1323.4 524.385 1324.48 522.464 1325.46 519.805L1326.96 515.714L1307.59 463.078H1316.32L1330.78 504.805H1331.32L1345.78 463.078H1354.5L1332.28 523.078C1331.28 525.782 1330.04 528.021 1328.56 529.794C1327.08 531.589 1325.37 532.919 1323.41 533.782C1321.48 534.646 1319.3 535.078 1316.87 535.078ZM1409.97 516.396C1405.97 516.396 1402.36 515.6 1399.16 514.01C1395.95 512.419 1393.39 510.237 1391.45 507.464C1389.52 504.691 1388.47 501.532 1388.28 497.987H1396.47C1396.78 501.146 1398.22 503.76 1400.76 505.828C1403.33 507.873 1406.4 508.896 1409.97 508.896C1412.83 508.896 1415.37 508.225 1417.6 506.885C1419.85 505.544 1421.61 503.703 1422.89 501.362C1424.18 498.998 1424.83 496.328 1424.83 493.35C1424.83 490.305 1424.16 487.589 1422.82 485.203C1421.5 482.794 1419.68 480.896 1417.36 479.51C1415.04 478.123 1412.4 477.419 1409.42 477.396C1407.28 477.373 1405.09 477.703 1402.84 478.385C1400.59 479.044 1398.74 479.896 1397.28 480.941L1389.37 479.987L1393.6 445.623H1429.87V453.123H1400.69L1398.24 473.714H1398.65C1400.08 472.578 1401.87 471.635 1404.03 470.885C1406.19 470.135 1408.44 469.76 1410.78 469.76C1415.06 469.76 1418.86 470.782 1422.2 472.828C1425.57 474.85 1428.2 477.623 1430.11 481.146C1432.04 484.669 1433.01 488.691 1433.01 493.214C1433.01 497.669 1432.01 501.646 1430.01 505.146C1428.03 508.623 1425.31 511.373 1421.83 513.396C1418.35 515.396 1414.4 516.396 1409.97 516.396ZM1467.41 516.396C1462.27 516.396 1457.89 514.998 1454.28 512.203C1450.67 509.385 1447.91 505.305 1446 499.964C1444.09 494.6 1443.13 488.123 1443.13 480.532C1443.13 472.987 1444.09 466.544 1446 461.203C1447.93 455.839 1450.7 451.748 1454.31 448.93C1457.95 446.089 1462.31 444.669 1467.41 444.669C1472.5 444.669 1476.85 446.089 1480.46 448.93C1484.1 451.748 1486.87 455.839 1488.78 461.203C1490.71 466.544 1491.68 472.987 1491.68 480.532C1491.68 488.123 1490.72 494.6 1488.81 499.964C1486.91 505.305 1484.14 509.385 1480.53 512.203C1476.92 514.998 1472.54 516.396 1467.41 516.396ZM1467.41 508.896C1472.5 508.896 1476.45 506.441 1479.27 501.532C1482.09 496.623 1483.5 489.623 1483.5 480.532C1483.5 474.487 1482.85 469.339 1481.55 465.089C1480.28 460.839 1478.44 457.6 1476.03 455.373C1473.64 453.146 1470.77 452.032 1467.41 452.032C1462.36 452.032 1458.42 454.521 1455.58 459.498C1452.74 464.453 1451.31 471.464 1451.31 480.532C1451.31 486.578 1451.95 491.714 1453.22 495.941C1454.5 500.169 1456.33 503.385 1458.71 505.589C1461.12 507.794 1464.02 508.896 1467.41 508.896ZM1538.3 502.35V498.669C1538.3 496.123 1538.83 493.794 1539.87 491.68C1540.94 489.544 1542.49 487.839 1544.51 486.566C1546.55 485.271 1549.03 484.623 1551.94 484.623C1554.9 484.623 1557.37 485.271 1559.37 486.566C1561.37 487.839 1562.88 489.544 1563.91 491.68C1564.93 493.794 1565.44 496.123 1565.44 498.669V502.35C1565.44 504.896 1564.92 507.237 1563.87 509.373C1562.85 511.487 1561.33 513.191 1559.3 514.487C1557.3 515.76 1554.85 516.396 1551.94 516.396C1548.99 516.396 1546.5 515.76 1544.47 514.487C1542.45 513.191 1540.92 511.487 1539.87 509.373C1538.83 507.237 1538.3 504.896 1538.3 502.35ZM1545.26 498.669V502.35C1545.26 504.464 1545.76 506.362 1546.76 508.044C1547.76 509.703 1549.49 510.532 1551.94 510.532C1554.33 510.532 1556.01 509.703 1556.99 508.044C1557.99 506.362 1558.49 504.464 1558.49 502.35V498.669C1558.49 496.555 1558.01 494.669 1557.05 493.01C1556.1 491.328 1554.4 490.487 1551.94 490.487C1549.55 490.487 1547.84 491.328 1546.79 493.01C1545.77 494.669 1545.26 496.555 1545.26 498.669ZM1503.53 462.396V458.714C1503.53 456.169 1504.05 453.839 1505.1 451.725C1506.17 449.589 1507.71 447.885 1509.74 446.612C1511.78 445.316 1514.26 444.669 1517.17 444.669C1520.12 444.669 1522.6 445.316 1524.6 446.612C1526.6 447.885 1528.11 449.589 1529.13 451.725C1530.16 453.839 1530.67 456.169 1530.67 458.714V462.396C1530.67 464.941 1530.15 467.282 1529.1 469.419C1528.08 471.532 1526.55 473.237 1524.53 474.532C1522.53 475.805 1520.08 476.441 1517.17 476.441C1514.21 476.441 1511.72 475.805 1509.7 474.532C1507.68 473.237 1506.15 471.532 1505.1 469.419C1504.05 467.282 1503.53 464.941 1503.53 462.396ZM1510.49 458.714V462.396C1510.49 464.51 1510.99 466.407 1511.99 468.089C1512.99 469.748 1514.71 470.578 1517.17 470.578C1519.55 470.578 1521.24 469.748 1522.21 468.089C1523.21 466.407 1523.71 464.51 1523.71 462.396V458.714C1523.71 456.6 1523.24 454.714 1522.28 453.055C1521.33 451.373 1519.62 450.532 1517.17 450.532C1514.78 450.532 1513.07 451.373 1512.02 453.055C1511 454.714 1510.49 456.6 1510.49 458.714ZM1506.12 515.441L1554.12 445.623H1561.9L1513.9 515.441H1506.12Z" fill="white"/>
<path d="M88.9714 928.381V936.256H86.96V923.165H88.9032V925.21H89.0737C89.3805 924.546 89.8464 924.012 90.4714 923.608C91.0964 923.199 91.9032 922.994 92.8919 922.994C93.7782 922.994 94.5538 923.176 95.2186 923.54C95.8833 923.898 96.4004 924.443 96.7697 925.176C97.139 925.904 97.3237 926.824 97.3237 927.938V936.256H95.3123V928.074C95.3123 927.046 95.0453 926.244 94.5112 925.671C93.9771 925.091 93.2441 924.801 92.3123 924.801C91.6703 924.801 91.0964 924.941 90.5907 925.219C90.0907 925.497 89.6958 925.904 89.4061 926.438C89.1163 926.972 88.9714 927.619 88.9714 928.381ZM106.008 936.529C104.746 936.529 103.658 936.25 102.744 935.693C101.834 935.131 101.133 934.347 100.638 933.341C100.15 932.33 99.9055 931.154 99.9055 929.813C99.9055 928.472 100.15 927.29 100.638 926.267C101.133 925.239 101.82 924.438 102.701 923.864C103.587 923.284 104.621 922.994 105.803 922.994C106.485 922.994 107.158 923.108 107.823 923.335C108.488 923.563 109.093 923.932 109.638 924.443C110.184 924.949 110.619 925.619 110.942 926.455C111.266 927.29 111.428 928.318 111.428 929.54V930.392H101.337V928.654H109.383C109.383 927.915 109.235 927.256 108.94 926.676C108.65 926.097 108.235 925.639 107.695 925.304C107.161 924.969 106.53 924.801 105.803 924.801C105.002 924.801 104.309 925 103.724 925.398C103.144 925.79 102.698 926.301 102.386 926.932C102.073 927.563 101.917 928.239 101.917 928.96V930.119C101.917 931.108 102.087 931.946 102.428 932.634C102.775 933.316 103.255 933.835 103.869 934.193C104.482 934.546 105.195 934.722 106.008 934.722C106.536 934.722 107.013 934.648 107.44 934.5C107.871 934.347 108.244 934.119 108.556 933.818C108.869 933.512 109.11 933.131 109.28 932.676L111.224 933.222C111.019 933.881 110.675 934.46 110.192 934.96C109.709 935.455 109.113 935.841 108.403 936.119C107.692 936.392 106.894 936.529 106.008 936.529ZM119.326 936.529C118.144 936.529 117.107 936.247 116.215 935.685C115.329 935.122 114.636 934.335 114.136 933.324C113.641 932.313 113.394 931.131 113.394 929.779C113.394 928.415 113.641 927.225 114.136 926.208C114.636 925.191 115.329 924.401 116.215 923.838C117.107 923.276 118.144 922.994 119.326 922.994C120.508 922.994 121.542 923.276 122.428 923.838C123.32 924.401 124.014 925.191 124.508 926.208C125.008 927.225 125.258 928.415 125.258 929.779C125.258 931.131 125.008 932.313 124.508 933.324C124.014 934.335 123.32 935.122 122.428 935.685C121.542 936.247 120.508 936.529 119.326 936.529ZM119.326 934.722C120.224 934.722 120.962 934.492 121.542 934.031C122.121 933.571 122.55 932.966 122.829 932.216C123.107 931.466 123.247 930.654 123.247 929.779C123.247 928.904 123.107 928.088 122.829 927.333C122.55 926.577 122.121 925.966 121.542 925.5C120.962 925.034 120.224 924.801 119.326 924.801C118.428 924.801 117.69 925.034 117.11 925.5C116.531 925.966 116.102 926.577 115.823 927.333C115.545 928.088 115.406 928.904 115.406 929.779C115.406 930.654 115.545 931.466 115.823 932.216C116.102 932.966 116.531 933.571 117.11 934.031C117.69 934.492 118.428 934.722 119.326 934.722ZM137.121 926.097L135.314 926.608C135.2 926.307 135.033 926.014 134.811 925.73C134.595 925.441 134.3 925.202 133.925 925.014C133.55 924.827 133.07 924.733 132.485 924.733C131.683 924.733 131.016 924.918 130.482 925.287C129.953 925.651 129.689 926.114 129.689 926.676C129.689 927.176 129.871 927.571 130.235 927.861C130.598 928.151 131.166 928.392 131.939 928.585L133.882 929.063C135.053 929.347 135.925 929.781 136.499 930.367C137.073 930.946 137.36 931.693 137.36 932.608C137.36 933.358 137.144 934.029 136.712 934.619C136.286 935.21 135.689 935.676 134.922 936.017C134.155 936.358 133.263 936.529 132.246 936.529C130.911 936.529 129.806 936.239 128.931 935.659C128.056 935.08 127.502 934.233 127.269 933.119L129.178 932.642C129.36 933.347 129.703 933.875 130.209 934.227C130.72 934.58 131.388 934.756 132.212 934.756C133.149 934.756 133.894 934.557 134.445 934.159C135.002 933.756 135.28 933.273 135.28 932.71C135.28 932.256 135.121 931.875 134.803 931.568C134.485 931.256 133.996 931.023 133.337 930.869L131.155 930.358C129.956 930.074 129.075 929.634 128.513 929.037C127.956 928.435 127.678 927.682 127.678 926.779C127.678 926.04 127.885 925.387 128.3 924.818C128.72 924.25 129.291 923.804 130.013 923.48C130.74 923.156 131.564 922.994 132.485 922.994C133.78 922.994 134.797 923.279 135.536 923.847C136.28 924.415 136.808 925.165 137.121 926.097ZM141.203 941.165C140.862 941.165 140.558 941.137 140.291 941.08C140.024 941.029 139.839 940.977 139.737 940.926L140.248 939.154C140.737 939.279 141.169 939.324 141.544 939.29C141.919 939.256 142.251 939.088 142.541 938.787C142.836 938.492 143.106 938.012 143.35 937.347L143.725 936.324L138.885 923.165H141.066L144.68 933.597H144.816L148.43 923.165H150.612L145.055 938.165C144.805 938.841 144.495 939.401 144.126 939.844C143.757 940.293 143.328 940.625 142.839 940.841C142.356 941.057 141.811 941.165 141.203 941.165ZM154.798 928.381V936.256H152.787V923.165H154.73V925.21H154.9C155.207 924.546 155.673 924.012 156.298 923.608C156.923 923.199 157.73 922.994 158.718 922.994C159.605 922.994 160.38 923.176 161.045 923.54C161.71 923.898 162.227 924.443 162.596 925.176C162.966 925.904 163.15 926.824 163.15 927.938V936.256H161.139V928.074C161.139 927.046 160.872 926.244 160.338 925.671C159.804 925.091 159.071 924.801 158.139 924.801C157.497 924.801 156.923 924.941 156.417 925.219C155.917 925.497 155.522 925.904 155.233 926.438C154.943 926.972 154.798 927.619 154.798 928.381ZM171.664 936.529C170.437 936.529 169.38 936.239 168.493 935.659C167.607 935.08 166.925 934.281 166.448 933.264C165.971 932.247 165.732 931.085 165.732 929.779C165.732 928.449 165.976 927.276 166.465 926.259C166.959 925.236 167.647 924.438 168.527 923.864C169.414 923.284 170.448 922.994 171.63 922.994C172.55 922.994 173.38 923.165 174.118 923.506C174.857 923.847 175.462 924.324 175.934 924.938C176.405 925.551 176.698 926.267 176.812 927.085H174.8C174.647 926.489 174.306 925.96 173.777 925.5C173.255 925.034 172.55 924.801 171.664 924.801C170.88 924.801 170.192 925.006 169.601 925.415C169.016 925.818 168.559 926.389 168.229 927.128C167.905 927.861 167.743 928.722 167.743 929.71C167.743 930.722 167.902 931.602 168.221 932.352C168.545 933.102 168.999 933.685 169.584 934.1C170.175 934.514 170.868 934.722 171.664 934.722C172.187 934.722 172.661 934.631 173.087 934.449C173.513 934.267 173.874 934.006 174.17 933.665C174.465 933.324 174.675 932.915 174.8 932.438H176.812C176.698 933.21 176.417 933.906 175.968 934.526C175.525 935.139 174.937 935.628 174.204 935.992C173.476 936.35 172.63 936.529 171.664 936.529ZM180.738 936.392C180.317 936.392 179.957 936.242 179.655 935.941C179.354 935.639 179.204 935.279 179.204 934.858C179.204 934.438 179.354 934.077 179.655 933.776C179.957 933.475 180.317 933.324 180.738 933.324C181.158 933.324 181.519 933.475 181.82 933.776C182.121 934.077 182.272 934.438 182.272 934.858C182.272 935.137 182.201 935.392 182.059 935.625C181.922 935.858 181.738 936.046 181.505 936.188C181.278 936.324 181.022 936.392 180.738 936.392ZM190.344 936.529C189.254 936.529 188.291 936.253 187.455 935.702C186.62 935.145 185.967 934.361 185.495 933.35C185.023 932.333 184.788 931.131 184.788 929.744C184.788 928.369 185.023 927.176 185.495 926.165C185.967 925.154 186.623 924.372 187.464 923.821C188.305 923.27 189.276 922.994 190.379 922.994C191.231 922.994 191.904 923.137 192.398 923.421C192.898 923.699 193.279 924.017 193.541 924.375C193.808 924.727 194.015 925.017 194.163 925.244H194.333V918.801H196.344V936.256H194.401V934.244H194.163C194.015 934.483 193.805 934.784 193.532 935.148C193.259 935.506 192.87 935.827 192.364 936.111C191.859 936.389 191.185 936.529 190.344 936.529ZM190.617 934.722C191.424 934.722 192.106 934.512 192.663 934.091C193.219 933.665 193.643 933.077 193.933 932.327C194.222 931.571 194.367 930.699 194.367 929.71C194.367 928.733 194.225 927.878 193.941 927.145C193.657 926.406 193.237 925.833 192.68 925.423C192.123 925.009 191.435 924.801 190.617 924.801C189.765 924.801 189.055 925.02 188.487 925.458C187.924 925.889 187.501 926.477 187.217 927.222C186.938 927.96 186.799 928.79 186.799 929.71C186.799 930.642 186.941 931.489 187.225 932.25C187.515 933.006 187.941 933.608 188.504 934.057C189.072 934.5 189.776 934.722 190.617 934.722ZM205.316 936.529C204.055 936.529 202.967 936.25 202.052 935.693C201.143 935.131 200.441 934.347 199.947 933.341C199.458 932.33 199.214 931.154 199.214 929.813C199.214 928.472 199.458 927.29 199.947 926.267C200.441 925.239 201.129 924.438 202.009 923.864C202.896 923.284 203.93 922.994 205.112 922.994C205.793 922.994 206.467 923.108 207.132 923.335C207.796 923.563 208.401 923.932 208.947 924.443C209.492 924.949 209.927 925.619 210.251 926.455C210.575 927.29 210.737 928.318 210.737 929.54V930.392H200.646V928.654H208.691C208.691 927.915 208.543 927.256 208.248 926.676C207.958 926.097 207.543 925.639 207.004 925.304C206.47 924.969 205.839 924.801 205.112 924.801C204.311 924.801 203.617 925 203.032 925.398C202.453 925.79 202.007 926.301 201.694 926.932C201.382 927.563 201.225 928.239 201.225 928.96V930.119C201.225 931.108 201.396 931.946 201.737 932.634C202.083 933.316 202.563 933.835 203.177 934.193C203.791 934.546 204.504 934.722 205.316 934.722C205.845 934.722 206.322 934.648 206.748 934.5C207.18 934.347 207.552 934.119 207.864 933.818C208.177 933.512 208.418 933.131 208.589 932.676L210.532 933.222C210.328 933.881 209.984 934.46 209.501 934.96C209.018 935.455 208.421 935.841 207.711 936.119C207.001 936.392 206.203 936.529 205.316 936.529ZM223.622 923.165L218.781 936.256H216.736L211.895 923.165H214.077L217.691 933.597H217.827L221.441 923.165H223.622Z" fill="#777777"/>
<path d="M1333.12 945.182C1332.15 945.182 1331.32 945.057 1330.62 944.807C1329.92 944.562 1329.34 944.239 1328.87 943.835C1328.41 943.438 1328.05 943.011 1327.77 942.557L1329.38 941.432C1329.56 941.67 1329.79 941.943 1330.07 942.25C1330.34 942.562 1330.72 942.832 1331.21 943.06C1331.7 943.293 1332.34 943.409 1333.12 943.409C1334.18 943.409 1335.05 943.153 1335.74 942.642C1336.43 942.131 1336.77 941.33 1336.77 940.239V937.58H1336.6C1336.45 937.818 1336.24 938.114 1335.97 938.466C1335.7 938.812 1335.32 939.122 1334.81 939.395C1334.31 939.662 1333.64 939.795 1332.78 939.795C1331.73 939.795 1330.78 939.545 1329.94 939.045C1329.1 938.545 1328.44 937.818 1327.95 936.864C1327.47 935.909 1327.23 934.75 1327.23 933.386C1327.23 932.045 1327.46 930.878 1327.93 929.884C1328.41 928.884 1329.06 928.111 1329.9 927.565C1330.74 927.014 1331.72 926.739 1332.82 926.739C1333.67 926.739 1334.35 926.881 1334.85 927.165C1335.35 927.443 1335.74 927.761 1336.01 928.119C1336.28 928.472 1336.49 928.761 1336.64 928.989H1336.84V926.909H1338.78V940.375C1338.78 941.5 1338.53 942.415 1338.02 943.119C1337.51 943.83 1336.83 944.349 1335.97 944.679C1335.12 945.014 1334.17 945.182 1333.12 945.182ZM1333.06 937.989C1333.86 937.989 1334.55 937.804 1335.1 937.435C1335.66 937.065 1336.08 936.534 1336.37 935.841C1336.66 935.148 1336.81 934.318 1336.81 933.352C1336.81 932.409 1336.66 931.577 1336.38 930.855C1336.1 930.134 1335.68 929.568 1335.12 929.159C1334.56 928.75 1333.88 928.545 1333.06 928.545C1332.2 928.545 1331.49 928.761 1330.93 929.193C1330.36 929.625 1329.94 930.205 1329.66 930.932C1329.38 931.659 1329.24 932.466 1329.24 933.352C1329.24 934.261 1329.38 935.065 1329.66 935.764C1329.95 936.457 1330.38 937.003 1330.94 937.401C1331.51 937.793 1332.22 937.989 1333.06 937.989ZM1341.99 940V926.909H1344V940H1341.99ZM1343.01 924.727C1342.62 924.727 1342.28 924.594 1341.99 924.327C1341.72 924.06 1341.58 923.739 1341.58 923.364C1341.58 922.989 1341.72 922.668 1341.99 922.401C1342.28 922.134 1342.62 922 1343.01 922C1343.4 922 1343.74 922.134 1344.01 922.401C1344.3 922.668 1344.44 922.989 1344.44 923.364C1344.44 923.739 1344.3 924.06 1344.01 924.327C1343.74 924.594 1343.4 924.727 1343.01 924.727ZM1352.89 926.909V928.614H1346.11V926.909H1352.89ZM1348.09 923.773H1350.1V936.25C1350.1 936.818 1350.18 937.244 1350.35 937.528C1350.52 937.807 1350.73 937.994 1350.99 938.091C1351.26 938.182 1351.54 938.227 1351.84 938.227C1352.06 938.227 1352.24 938.216 1352.38 938.193C1352.53 938.165 1352.64 938.142 1352.72 938.125L1353.13 939.932C1353 939.983 1352.81 940.034 1352.56 940.085C1352.32 940.142 1352.01 940.17 1351.63 940.17C1351.06 940.17 1350.51 940.048 1349.96 939.804C1349.42 939.56 1348.97 939.188 1348.62 938.688C1348.26 938.188 1348.09 937.557 1348.09 936.795V923.773ZM1357.73 932.125V940H1355.72V922.545H1357.73V928.955H1357.9C1358.21 928.278 1358.67 927.741 1359.28 927.344C1359.9 926.94 1360.73 926.739 1361.76 926.739C1362.65 926.739 1363.43 926.918 1364.1 927.276C1364.77 927.628 1365.29 928.17 1365.66 928.903C1366.03 929.631 1366.22 930.557 1366.22 931.682V940H1364.21V931.818C1364.21 930.778 1363.94 929.974 1363.4 929.406C1362.87 928.832 1362.12 928.545 1361.18 928.545C1360.52 928.545 1359.93 928.685 1359.4 928.963C1358.89 929.241 1358.48 929.648 1358.18 930.182C1357.88 930.716 1357.73 931.364 1357.73 932.125ZM1377.67 934.648V926.909H1379.68V940H1377.67V937.784H1377.53C1377.23 938.449 1376.75 939.014 1376.1 939.48C1375.46 939.94 1374.64 940.17 1373.65 940.17C1372.83 940.17 1372.1 939.991 1371.47 939.634C1370.83 939.27 1370.33 938.724 1369.97 937.997C1369.6 937.264 1369.42 936.341 1369.42 935.227V926.909H1371.43V935.091C1371.43 936.045 1371.7 936.807 1372.23 937.375C1372.77 937.943 1373.46 938.227 1374.3 938.227C1374.8 938.227 1375.3 938.099 1375.82 937.844C1376.34 937.588 1376.78 937.196 1377.13 936.668C1377.49 936.139 1377.67 935.466 1377.67 934.648ZM1383.16 940V922.545H1385.17V928.989H1385.34C1385.49 928.761 1385.69 928.472 1385.95 928.119C1386.22 927.761 1386.6 927.443 1387.1 927.165C1387.6 926.881 1388.27 926.739 1389.12 926.739C1390.23 926.739 1391.2 927.014 1392.04 927.565C1392.88 928.116 1393.54 928.898 1394.01 929.909C1394.48 930.92 1394.72 932.114 1394.72 933.489C1394.72 934.875 1394.48 936.077 1394.01 937.094C1393.54 938.105 1392.88 938.889 1392.05 939.446C1391.21 939.997 1390.25 940.273 1389.16 940.273C1388.32 940.273 1387.64 940.134 1387.14 939.855C1386.63 939.571 1386.24 939.25 1385.97 938.892C1385.7 938.528 1385.49 938.227 1385.34 937.989H1385.1V940H1383.16ZM1385.14 933.455C1385.14 934.443 1385.28 935.315 1385.57 936.071C1385.86 936.821 1386.28 937.409 1386.84 937.835C1387.4 938.256 1388.08 938.466 1388.89 938.466C1389.73 938.466 1390.43 938.244 1390.99 937.801C1391.56 937.352 1391.99 936.75 1392.27 935.994C1392.56 935.233 1392.7 934.386 1392.7 933.455C1392.7 932.534 1392.56 931.705 1392.28 930.966C1392 930.222 1391.58 929.634 1391.01 929.202C1390.45 928.764 1389.74 928.545 1388.89 928.545C1388.07 928.545 1387.38 928.753 1386.82 929.168C1386.27 929.577 1385.85 930.151 1385.56 930.889C1385.28 931.622 1385.14 932.477 1385.14 933.455ZM1398.78 940.136C1398.36 940.136 1398 939.986 1397.7 939.685C1397.39 939.384 1397.24 939.023 1397.24 938.602C1397.24 938.182 1397.39 937.821 1397.7 937.52C1398 937.219 1398.36 937.068 1398.78 937.068C1399.2 937.068 1399.56 937.219 1399.86 937.52C1400.16 937.821 1400.31 938.182 1400.31 938.602C1400.31 938.881 1400.24 939.136 1400.1 939.369C1399.96 939.602 1399.78 939.79 1399.55 939.932C1399.32 940.068 1399.06 940.136 1398.78 940.136ZM1408.76 940.273C1407.53 940.273 1406.48 939.983 1405.59 939.403C1404.7 938.824 1404.02 938.026 1403.54 937.009C1403.07 935.991 1402.83 934.83 1402.83 933.523C1402.83 932.193 1403.07 931.02 1403.56 930.003C1404.06 928.98 1404.74 928.182 1405.62 927.608C1406.51 927.028 1407.54 926.739 1408.73 926.739C1409.65 926.739 1410.48 926.909 1411.21 927.25C1411.95 927.591 1412.56 928.068 1413.03 928.682C1413.5 929.295 1413.79 930.011 1413.91 930.83H1411.9C1411.74 930.233 1411.4 929.705 1410.87 929.244C1410.35 928.778 1409.65 928.545 1408.76 928.545C1407.98 928.545 1407.29 928.75 1406.7 929.159C1406.11 929.562 1405.65 930.134 1405.33 930.872C1405 931.605 1404.84 932.466 1404.84 933.455C1404.84 934.466 1405 935.347 1405.32 936.097C1405.64 936.847 1406.1 937.429 1406.68 937.844C1407.27 938.259 1407.96 938.466 1408.76 938.466C1409.28 938.466 1409.76 938.375 1410.18 938.193C1410.61 938.011 1410.97 937.75 1411.27 937.409C1411.56 937.068 1411.77 936.659 1411.9 936.182H1413.91C1413.79 936.955 1413.51 937.651 1413.06 938.27C1412.62 938.884 1412.03 939.372 1411.3 939.736C1410.57 940.094 1409.73 940.273 1408.76 940.273ZM1421.69 940.273C1420.5 940.273 1419.47 939.991 1418.58 939.429C1417.69 938.866 1417 938.08 1416.5 937.068C1416 936.057 1415.75 934.875 1415.75 933.523C1415.75 932.159 1416 930.969 1416.5 929.952C1417 928.935 1417.69 928.145 1418.58 927.582C1419.47 927.02 1420.5 926.739 1421.69 926.739C1422.87 926.739 1423.9 927.02 1424.79 927.582C1425.68 928.145 1426.37 928.935 1426.87 929.952C1427.37 930.969 1427.62 932.159 1427.62 933.523C1427.62 934.875 1427.37 936.057 1426.87 937.068C1426.37 938.08 1425.68 938.866 1424.79 939.429C1423.9 939.991 1422.87 940.273 1421.69 940.273ZM1421.69 938.466C1422.58 938.466 1423.32 938.236 1423.9 937.776C1424.48 937.315 1424.91 936.71 1425.19 935.96C1425.47 935.21 1425.61 934.398 1425.61 933.523C1425.61 932.648 1425.47 931.832 1425.19 931.077C1424.91 930.321 1424.48 929.71 1423.9 929.244C1423.32 928.778 1422.58 928.545 1421.69 928.545C1420.79 928.545 1420.05 928.778 1419.47 929.244C1418.89 929.71 1418.46 930.321 1418.18 931.077C1417.91 931.832 1417.77 932.648 1417.77 933.523C1417.77 934.398 1417.91 935.21 1418.18 935.96C1418.46 936.71 1418.89 937.315 1419.47 937.776C1420.05 938.236 1420.79 938.466 1421.69 938.466ZM1430.21 940V926.909H1432.15V928.955H1432.32C1432.59 928.256 1433.04 927.713 1433.64 927.327C1434.25 926.935 1434.98 926.739 1435.83 926.739C1436.7 926.739 1437.42 926.935 1437.99 927.327C1438.57 927.713 1439.02 928.256 1439.34 928.955H1439.48C1439.82 928.278 1440.32 927.741 1440.99 927.344C1441.66 926.94 1442.46 926.739 1443.4 926.739C1444.57 926.739 1445.53 927.105 1446.27 927.838C1447.02 928.565 1447.39 929.699 1447.39 931.239V940H1445.38V931.239C1445.38 930.273 1445.11 929.582 1444.59 929.168C1444.06 928.753 1443.44 928.545 1442.72 928.545C1441.8 928.545 1441.09 928.824 1440.58 929.381C1440.07 929.932 1439.82 930.631 1439.82 931.477V940H1437.78V931.034C1437.78 930.29 1437.54 929.69 1437.05 929.236C1436.57 928.776 1435.95 928.545 1435.19 928.545C1434.66 928.545 1434.17 928.685 1433.72 928.963C1433.27 929.241 1432.91 929.628 1432.63 930.122C1432.36 930.611 1432.22 931.176 1432.22 931.818V940H1430.21ZM1456.76 921.727L1451.13 942.625H1449.29L1454.92 921.727H1456.76ZM1460.67 932.125V940H1458.66V926.909H1460.61V928.955H1460.78C1461.08 928.29 1461.55 927.756 1462.17 927.352C1462.8 926.943 1463.61 926.739 1464.59 926.739C1465.48 926.739 1466.26 926.92 1466.92 927.284C1467.59 927.642 1468.1 928.188 1468.47 928.92C1468.84 929.648 1469.03 930.568 1469.03 931.682V940H1467.01V931.818C1467.01 930.79 1466.75 929.989 1466.21 929.415C1465.68 928.835 1464.95 928.545 1464.01 928.545C1463.37 928.545 1462.8 928.685 1462.29 928.963C1461.79 929.241 1461.4 929.648 1461.11 930.182C1460.82 930.716 1460.67 931.364 1460.67 932.125ZM1480.47 934.648V926.909H1482.48V940H1480.47V937.784H1480.34C1480.03 938.449 1479.55 939.014 1478.9 939.48C1478.26 939.94 1477.44 940.17 1476.45 940.17C1475.63 940.17 1474.9 939.991 1474.27 939.634C1473.63 939.27 1473.13 938.724 1472.77 937.997C1472.4 937.264 1472.22 936.341 1472.22 935.227V926.909H1474.23V935.091C1474.23 936.045 1474.5 936.807 1475.03 937.375C1475.57 937.943 1476.26 938.227 1477.1 938.227C1477.6 938.227 1478.11 938.099 1478.62 937.844C1479.14 937.588 1479.58 937.196 1479.93 936.668C1480.29 936.139 1480.47 935.466 1480.47 934.648ZM1491.01 940.273C1489.78 940.273 1488.72 939.983 1487.83 939.403C1486.95 938.824 1486.27 938.026 1485.79 937.009C1485.31 935.991 1485.07 934.83 1485.07 933.523C1485.07 932.193 1485.32 931.02 1485.81 930.003C1486.3 928.98 1486.99 928.182 1487.87 927.608C1488.76 927.028 1489.79 926.739 1490.97 926.739C1491.89 926.739 1492.72 926.909 1493.46 927.25C1494.2 927.591 1494.8 928.068 1495.27 928.682C1495.75 929.295 1496.04 930.011 1496.15 930.83H1494.14C1493.99 930.233 1493.65 929.705 1493.12 929.244C1492.6 928.778 1491.89 928.545 1491.01 928.545C1490.22 928.545 1489.53 928.75 1488.94 929.159C1488.36 929.562 1487.9 930.134 1487.57 930.872C1487.25 931.605 1487.08 932.466 1487.08 933.455C1487.08 934.466 1487.24 935.347 1487.56 936.097C1487.89 936.847 1488.34 937.429 1488.93 937.844C1489.52 938.259 1490.21 938.466 1491.01 938.466C1491.53 938.466 1492 938.375 1492.43 938.193C1492.85 938.011 1493.22 937.75 1493.51 937.409C1493.81 937.068 1494.02 936.659 1494.14 936.182H1496.15C1496.04 936.955 1495.76 937.651 1495.31 938.27C1494.87 938.884 1494.28 939.372 1493.54 939.736C1492.82 940.094 1491.97 940.273 1491.01 940.273ZM1500.62 922.545V940H1498.61V922.545H1500.62ZM1509.32 940.273C1508.06 940.273 1506.97 939.994 1506.05 939.438C1505.14 938.875 1504.44 938.091 1503.95 937.085C1503.46 936.074 1503.21 934.898 1503.21 933.557C1503.21 932.216 1503.46 931.034 1503.95 930.011C1504.44 928.983 1505.13 928.182 1506.01 927.608C1506.9 927.028 1507.93 926.739 1509.11 926.739C1509.79 926.739 1510.47 926.852 1511.13 927.08C1511.8 927.307 1512.4 927.676 1512.95 928.188C1513.49 928.693 1513.93 929.364 1514.25 930.199C1514.58 931.034 1514.74 932.062 1514.74 933.284V934.136H1504.65V932.398H1512.69C1512.69 931.659 1512.54 931 1512.25 930.42C1511.96 929.841 1511.54 929.384 1511 929.048C1510.47 928.713 1509.84 928.545 1509.11 928.545C1508.31 928.545 1507.62 928.744 1507.03 929.142C1506.45 929.534 1506.01 930.045 1505.69 930.676C1505.38 931.307 1505.23 931.983 1505.23 932.705V933.864C1505.23 934.852 1505.4 935.69 1505.74 936.378C1506.08 937.06 1506.56 937.58 1507.18 937.938C1507.79 938.29 1508.5 938.466 1509.32 938.466C1509.85 938.466 1510.32 938.392 1510.75 938.244C1511.18 938.091 1511.55 937.864 1511.87 937.562C1512.18 937.256 1512.42 936.875 1512.59 936.42L1514.53 936.966C1514.33 937.625 1513.98 938.205 1513.5 938.705C1513.02 939.199 1512.42 939.585 1511.71 939.864C1511 940.136 1510.2 940.273 1509.32 940.273ZM1525.57 934.648V926.909H1527.58V940H1525.57V937.784H1525.43C1525.12 938.449 1524.65 939.014 1524 939.48C1523.35 939.94 1522.53 940.17 1521.54 940.17C1520.73 940.17 1520 939.991 1519.36 939.634C1518.73 939.27 1518.23 938.724 1517.86 937.997C1517.5 937.264 1517.32 936.341 1517.32 935.227V926.909H1519.33V935.091C1519.33 936.045 1519.6 936.807 1520.13 937.375C1520.67 937.943 1521.36 938.227 1522.19 938.227C1522.69 938.227 1523.2 938.099 1523.72 937.844C1524.24 937.588 1524.68 937.196 1525.03 936.668C1525.39 936.139 1525.57 935.466 1525.57 934.648ZM1540.06 929.841L1538.25 930.352C1538.13 930.051 1537.97 929.759 1537.75 929.474C1537.53 929.185 1537.23 928.946 1536.86 928.759C1536.48 928.571 1536 928.477 1535.42 928.477C1534.62 928.477 1533.95 928.662 1533.42 929.031C1532.89 929.395 1532.62 929.858 1532.62 930.42C1532.62 930.92 1532.81 931.315 1533.17 931.605C1533.53 931.895 1534.1 932.136 1534.87 932.33L1536.82 932.807C1537.99 933.091 1538.86 933.526 1539.43 934.111C1540.01 934.69 1540.29 935.437 1540.29 936.352C1540.29 937.102 1540.08 937.773 1539.65 938.364C1539.22 938.955 1538.62 939.42 1537.86 939.761C1537.09 940.102 1536.2 940.273 1535.18 940.273C1533.84 940.273 1532.74 939.983 1531.86 939.403C1530.99 938.824 1530.44 937.977 1530.2 936.864L1532.11 936.386C1532.29 937.091 1532.64 937.619 1533.14 937.972C1533.65 938.324 1534.32 938.5 1535.15 938.5C1536.08 938.5 1536.83 938.301 1537.38 937.903C1537.94 937.5 1538.21 937.017 1538.21 936.455C1538.21 936 1538.06 935.619 1537.74 935.312C1537.42 935 1536.93 934.767 1536.27 934.614L1534.09 934.102C1532.89 933.818 1532.01 933.378 1531.45 932.781C1530.89 932.179 1530.61 931.426 1530.61 930.523C1530.61 929.784 1530.82 929.131 1531.23 928.562C1531.65 927.994 1532.23 927.548 1532.95 927.224C1533.67 926.901 1534.5 926.739 1535.42 926.739C1536.71 926.739 1537.73 927.023 1538.47 927.591C1539.21 928.159 1539.74 928.909 1540.06 929.841ZM1548.16 940.273C1546.93 940.273 1545.88 939.983 1544.99 939.403C1544.1 938.824 1543.42 938.026 1542.94 937.009C1542.47 935.991 1542.23 934.83 1542.23 933.523C1542.23 932.193 1542.47 931.02 1542.96 930.003C1543.46 928.98 1544.14 928.182 1545.02 927.608C1545.91 927.028 1546.94 926.739 1548.13 926.739C1549.05 926.739 1549.88 926.909 1550.61 927.25C1551.35 927.591 1551.96 928.068 1552.43 928.682C1552.9 929.295 1553.19 930.011 1553.31 930.83H1551.3C1551.14 930.233 1550.8 929.705 1550.27 929.244C1549.75 928.778 1549.05 928.545 1548.16 928.545C1547.38 928.545 1546.69 928.75 1546.1 929.159C1545.51 929.562 1545.05 930.134 1544.73 930.872C1544.4 931.605 1544.24 932.466 1544.24 933.455C1544.24 934.466 1544.4 935.347 1544.72 936.097C1545.04 936.847 1545.49 937.429 1546.08 937.844C1546.67 938.259 1547.36 938.466 1548.16 938.466C1548.68 938.466 1549.16 938.375 1549.58 938.193C1550.01 938.011 1550.37 937.75 1550.67 937.409C1550.96 937.068 1551.17 936.659 1551.3 936.182H1553.31C1553.19 936.955 1552.91 937.651 1552.46 938.27C1552.02 938.884 1551.43 939.372 1550.7 939.736C1549.97 940.094 1549.13 940.273 1548.16 940.273ZM1557.78 922.545V940H1555.77V922.545H1557.78ZM1566.3 940.273C1565.12 940.273 1564.08 939.991 1563.19 939.429C1562.3 938.866 1561.61 938.08 1561.11 937.068C1560.62 936.057 1560.37 934.875 1560.37 933.523C1560.37 932.159 1560.62 930.969 1561.11 929.952C1561.61 928.935 1562.3 928.145 1563.19 927.582C1564.08 927.02 1565.12 926.739 1566.3 926.739C1567.48 926.739 1568.52 927.02 1569.4 927.582C1570.3 928.145 1570.99 928.935 1571.48 929.952C1571.98 930.969 1572.23 932.159 1572.23 933.523C1572.23 934.875 1571.98 936.057 1571.48 937.068C1570.99 938.08 1570.3 938.866 1569.4 939.429C1568.52 939.991 1567.48 940.273 1566.3 940.273ZM1566.3 938.466C1567.2 938.466 1567.94 938.236 1568.52 937.776C1569.1 937.315 1569.53 936.71 1569.8 935.96C1570.08 935.21 1570.22 934.398 1570.22 933.523C1570.22 932.648 1570.08 931.832 1569.8 931.077C1569.53 930.321 1569.1 929.71 1568.52 929.244C1567.94 928.778 1567.2 928.545 1566.3 928.545C1565.4 928.545 1564.66 928.778 1564.09 929.244C1563.51 929.71 1563.08 930.321 1562.8 931.077C1562.52 931.832 1562.38 932.648 1562.38 933.523C1562.38 934.398 1562.52 935.21 1562.8 935.96C1563.08 936.71 1563.51 937.315 1564.09 937.776C1564.66 938.236 1565.4 938.466 1566.3 938.466ZM1583.07 934.648V926.909H1585.08V940H1583.07V937.784H1582.94C1582.63 938.449 1582.15 939.014 1581.51 939.48C1580.86 939.94 1580.04 940.17 1579.05 940.17C1578.23 940.17 1577.51 939.991 1576.87 939.634C1576.23 939.27 1575.73 938.724 1575.37 937.997C1575.01 937.264 1574.82 936.341 1574.82 935.227V926.909H1576.83V935.091C1576.83 936.045 1577.1 936.807 1577.64 937.375C1578.18 937.943 1578.86 938.227 1579.7 938.227C1580.2 938.227 1580.71 938.099 1581.22 937.844C1581.75 937.588 1582.18 937.196 1582.54 936.668C1582.89 936.139 1583.07 935.466 1583.07 934.648ZM1593.23 940.273C1592.14 940.273 1591.18 939.997 1590.34 939.446C1589.51 938.889 1588.85 938.105 1588.38 937.094C1587.91 936.077 1587.68 934.875 1587.68 933.489C1587.68 932.114 1587.91 930.92 1588.38 929.909C1588.85 928.898 1589.51 928.116 1590.35 927.565C1591.19 927.014 1592.16 926.739 1593.27 926.739C1594.12 926.739 1594.79 926.881 1595.29 927.165C1595.79 927.443 1596.17 927.761 1596.43 928.119C1596.69 928.472 1596.9 928.761 1597.05 928.989H1597.22V922.545H1599.23V940H1597.29V937.989H1597.05C1596.9 938.227 1596.69 938.528 1596.42 938.892C1596.15 939.25 1595.76 939.571 1595.25 939.855C1594.75 940.134 1594.07 940.273 1593.23 940.273ZM1593.5 938.466C1594.31 938.466 1594.99 938.256 1595.55 937.835C1596.11 937.409 1596.53 936.821 1596.82 936.071C1597.11 935.315 1597.25 934.443 1597.25 933.455C1597.25 932.477 1597.11 931.622 1596.83 930.889C1596.54 930.151 1596.12 929.577 1595.57 929.168C1595.01 928.753 1594.32 928.545 1593.5 928.545C1592.65 928.545 1591.94 928.764 1591.37 929.202C1590.81 929.634 1590.39 930.222 1590.1 930.966C1589.83 931.705 1589.69 932.534 1589.69 933.455C1589.69 934.386 1589.83 935.233 1590.11 935.994C1590.4 936.75 1590.83 937.352 1591.39 937.801C1591.96 938.244 1592.66 938.466 1593.5 938.466ZM1608.89 921.727L1603.26 942.625H1601.42L1607.04 921.727H1608.89ZM1612.8 932.125V940H1610.79V926.909H1612.73V928.955H1612.9C1613.21 928.29 1613.68 927.756 1614.3 927.352C1614.93 926.943 1615.73 926.739 1616.72 926.739C1617.61 926.739 1618.38 926.92 1619.05 927.284C1619.71 927.642 1620.23 928.188 1620.6 928.92C1620.97 929.648 1621.15 930.568 1621.15 931.682V940H1619.14V931.818C1619.14 930.79 1618.87 929.989 1618.34 929.415C1617.81 928.835 1617.07 928.545 1616.14 928.545C1615.5 928.545 1614.93 928.685 1614.42 928.963C1613.92 929.241 1613.53 929.648 1613.24 930.182C1612.95 930.716 1612.8 931.364 1612.8 932.125ZM1629.84 940.273C1628.58 940.273 1627.49 939.994 1626.57 939.438C1625.66 938.875 1624.96 938.091 1624.47 937.085C1623.98 936.074 1623.74 934.898 1623.74 933.557C1623.74 932.216 1623.98 931.034 1624.47 930.011C1624.96 928.983 1625.65 928.182 1626.53 927.608C1627.42 927.028 1628.45 926.739 1629.63 926.739C1630.31 926.739 1630.99 926.852 1631.65 927.08C1632.32 927.307 1632.92 927.676 1633.47 928.188C1634.01 928.693 1634.45 929.364 1634.77 930.199C1635.1 931.034 1635.26 932.062 1635.26 933.284V934.136H1625.17V932.398H1633.21C1633.21 931.659 1633.06 931 1632.77 930.42C1632.48 929.841 1632.06 929.384 1631.52 929.048C1630.99 928.713 1630.36 928.545 1629.63 928.545C1628.83 928.545 1628.14 928.744 1627.55 929.142C1626.97 929.534 1626.53 930.045 1626.22 930.676C1625.9 931.307 1625.75 931.983 1625.75 932.705V933.864C1625.75 934.852 1625.92 935.69 1626.26 936.378C1626.6 937.06 1627.08 937.58 1627.7 937.938C1628.31 938.29 1629.02 938.466 1629.84 938.466C1630.37 938.466 1630.84 938.392 1631.27 938.244C1631.7 938.091 1632.07 937.864 1632.39 937.562C1632.7 937.256 1632.94 936.875 1633.11 936.42L1635.05 936.966C1634.85 937.625 1634.5 938.205 1634.02 938.705C1633.54 939.199 1632.94 939.585 1632.23 939.864C1631.52 940.136 1630.72 940.273 1629.84 940.273ZM1643.16 940.273C1641.97 940.273 1640.94 939.991 1640.04 939.429C1639.16 938.866 1638.47 938.08 1637.97 937.068C1637.47 936.057 1637.22 934.875 1637.22 933.523C1637.22 932.159 1637.47 930.969 1637.97 929.952C1638.47 928.935 1639.16 928.145 1640.04 927.582C1640.94 927.02 1641.97 926.739 1643.16 926.739C1644.34 926.739 1645.37 927.02 1646.26 927.582C1647.15 928.145 1647.84 928.935 1648.34 929.952C1648.84 930.969 1649.09 932.159 1649.09 933.523C1649.09 934.875 1648.84 936.057 1648.34 937.068C1647.84 938.08 1647.15 938.866 1646.26 939.429C1645.37 939.991 1644.34 940.273 1643.16 940.273ZM1643.16 938.466C1644.05 938.466 1644.79 938.236 1645.37 937.776C1645.95 937.315 1646.38 936.71 1646.66 935.96C1646.94 935.21 1647.08 934.398 1647.08 933.523C1647.08 932.648 1646.94 931.832 1646.66 931.077C1646.38 930.321 1645.95 929.71 1645.37 929.244C1644.79 928.778 1644.05 928.545 1643.16 928.545C1642.26 928.545 1641.52 928.778 1640.94 929.244C1640.36 929.71 1639.93 930.321 1639.65 931.077C1639.37 931.832 1639.24 932.648 1639.24 933.523C1639.24 934.398 1639.37 935.21 1639.65 935.96C1639.93 936.71 1640.36 937.315 1640.94 937.776C1641.52 938.236 1642.26 938.466 1643.16 938.466ZM1660.95 929.841L1659.14 930.352C1659.03 930.051 1658.86 929.759 1658.64 929.474C1658.42 929.185 1658.13 928.946 1657.75 928.759C1657.38 928.571 1656.9 928.477 1656.31 928.477C1655.51 928.477 1654.85 928.662 1654.31 929.031C1653.78 929.395 1653.52 929.858 1653.52 930.42C1653.52 930.92 1653.7 931.315 1654.06 931.605C1654.43 931.895 1655 932.136 1655.77 932.33L1657.71 932.807C1658.88 933.091 1659.75 933.526 1660.33 934.111C1660.9 934.69 1661.19 935.437 1661.19 936.352C1661.19 937.102 1660.97 937.773 1660.54 938.364C1660.12 938.955 1659.52 939.42 1658.75 939.761C1657.98 940.102 1657.09 940.273 1656.08 940.273C1654.74 940.273 1653.64 939.983 1652.76 939.403C1651.89 938.824 1651.33 937.977 1651.1 936.864L1653.01 936.386C1653.19 937.091 1653.53 937.619 1654.04 937.972C1654.55 938.324 1655.22 938.5 1656.04 938.5C1656.98 938.5 1657.72 938.301 1658.27 937.903C1658.83 937.5 1659.11 937.017 1659.11 936.455C1659.11 936 1658.95 935.619 1658.63 935.312C1658.31 935 1657.83 934.767 1657.17 934.614L1654.98 934.102C1653.79 933.818 1652.91 933.378 1652.34 932.781C1651.79 932.179 1651.51 931.426 1651.51 930.523C1651.51 929.784 1651.71 929.131 1652.13 928.562C1652.55 927.994 1653.12 927.548 1653.84 927.224C1654.57 926.901 1655.39 926.739 1656.31 926.739C1657.61 926.739 1658.63 927.023 1659.37 927.591C1660.11 928.159 1660.64 928.909 1660.95 929.841ZM1665.03 944.909C1664.69 944.909 1664.39 944.881 1664.12 944.824C1663.85 944.773 1663.67 944.722 1663.57 944.67L1664.08 942.898C1664.57 943.023 1665 943.068 1665.37 943.034C1665.75 943 1666.08 942.832 1666.37 942.531C1666.67 942.236 1666.94 941.756 1667.18 941.091L1667.56 940.068L1662.71 926.909H1664.9L1668.51 937.341H1668.65L1672.26 926.909H1674.44L1668.88 941.909C1668.63 942.585 1668.32 943.145 1667.96 943.588C1667.59 944.037 1667.16 944.369 1666.67 944.585C1666.19 944.801 1665.64 944.909 1665.03 944.909ZM1678.63 932.125V940H1676.62V926.909H1678.56V928.955H1678.73C1679.04 928.29 1679.5 927.756 1680.13 927.352C1680.75 926.943 1681.56 926.739 1682.55 926.739C1683.43 926.739 1684.21 926.92 1684.87 927.284C1685.54 927.642 1686.06 928.188 1686.43 928.92C1686.8 929.648 1686.98 930.568 1686.98 931.682V940H1684.97V931.818C1684.97 930.79 1684.7 929.989 1684.17 929.415C1683.63 928.835 1682.9 928.545 1681.97 928.545C1681.33 928.545 1680.75 928.685 1680.25 928.963C1679.75 929.241 1679.35 929.648 1679.06 930.182C1678.77 930.716 1678.63 931.364 1678.63 932.125ZM1695.49 940.273C1694.27 940.273 1693.21 939.983 1692.32 939.403C1691.44 938.824 1690.75 938.026 1690.28 937.009C1689.8 935.991 1689.56 934.83 1689.56 933.523C1689.56 932.193 1689.81 931.02 1690.29 930.003C1690.79 928.98 1691.48 928.182 1692.36 927.608C1693.24 927.028 1694.28 926.739 1695.46 926.739C1696.38 926.739 1697.21 926.909 1697.95 927.25C1698.69 927.591 1699.29 928.068 1699.76 928.682C1700.23 929.295 1700.53 930.011 1700.64 930.83H1698.63C1698.48 930.233 1698.14 929.705 1697.61 929.244C1697.08 928.778 1696.38 928.545 1695.49 928.545C1694.71 928.545 1694.02 928.75 1693.43 929.159C1692.85 929.562 1692.39 930.134 1692.06 930.872C1691.73 931.605 1691.57 932.466 1691.57 933.455C1691.57 934.466 1691.73 935.347 1692.05 936.097C1692.37 936.847 1692.83 937.429 1693.41 937.844C1694 938.259 1694.7 938.466 1695.49 938.466C1696.02 938.466 1696.49 938.375 1696.92 938.193C1697.34 938.011 1697.7 937.75 1698 937.409C1698.29 937.068 1698.5 936.659 1698.63 936.182H1700.64C1700.53 936.955 1700.25 937.651 1699.8 938.27C1699.35 938.884 1698.77 939.372 1698.03 939.736C1697.31 940.094 1696.46 940.273 1695.49 940.273Z" fill="#777777"/>
<path fill-rule="evenodd" clip-rule="evenodd" d="M1270.13 913C1255.69 913 1244 924.88 1244 939.548C1244 951.296 1251.48 961.218 1261.87 964.736C1263.18 964.968 1263.67 964.172 1263.67 963.475C1263.67 962.844 1263.63 960.753 1263.63 958.53C1257.07 959.758 1255.37 956.904 1254.85 955.411C1254.55 954.647 1253.28 952.291 1252.17 951.661C1251.25 951.163 1249.95 949.935 1252.13 949.902C1254.19 949.869 1255.66 951.827 1256.15 952.623C1258.5 956.639 1262.26 955.51 1263.76 954.813C1263.99 953.088 1264.68 951.926 1265.43 951.263C1259.61 950.599 1253.54 948.309 1253.54 938.154C1253.54 935.267 1254.55 932.878 1256.22 931.02C1255.96 930.356 1255.04 927.635 1256.48 923.984C1256.48 923.984 1258.67 923.287 1263.67 926.705C1265.76 926.108 1267.98 925.809 1270.2 925.809C1272.42 925.809 1274.64 926.108 1276.73 926.705C1281.73 923.254 1283.92 923.984 1283.92 923.984C1285.36 927.635 1284.44 930.356 1284.18 931.02C1285.85 932.878 1286.86 935.234 1286.86 938.154C1286.86 948.342 1280.75 950.599 1274.94 951.263C1275.88 952.092 1276.7 953.685 1276.7 956.174C1276.7 959.725 1276.67 962.579 1276.67 963.475C1276.67 964.172 1277.16 965.001 1278.46 964.736C1283.65 962.957 1288.16 959.569 1291.35 955.051C1294.55 950.533 1296.27 945.111 1296.27 939.548C1296.27 924.88 1284.57 913 1270.13 913Z" fill="#777777"/>
</svg>
