<svg width="1792" height="1024" viewBox="0 0 1792 1024" fill="none" xmlns="http://www.w3.org/2000/svg">
<rect width="1792" height="1024" fill="#080808"/>
<path d="M202.417 165.765C206.276 165.765 208.206 165.765 209.733 165.142C211.868 164.271 213.561 162.559 214.423 160.4C215.039 158.856 215.039 156.905 215.039 153.002V153.002V127.894C215.039 119.81 215.039 115.767 212.555 113.256C210.072 110.744 206.074 110.744 198.079 110.744H182.71C170.387 110.744 164.226 110.744 161.741 114.818C159.257 118.892 162.023 124.459 167.555 135.593L178.122 156.863C179.966 160.574 177.298 164.949 173.191 164.949C171.104 164.949 169.196 163.759 168.26 161.874L147.552 120.195C145.268 115.597 144.125 113.297 142.079 112.021C140.032 110.744 137.487 110.744 132.398 110.744L127.323 110.744C119.328 110.744 115.33 110.744 112.847 113.256C110.363 115.768 110.363 119.81 110.363 127.894L110.363 152.186C110.363 156.089 110.363 158.04 109.747 159.584C108.885 161.743 107.192 163.455 105.057 164.326C103.53 164.95 101.6 164.95 97.741 164.95H97.7409C93.8819 164.95 91.9523 164.95 90.4253 165.573C88.2902 166.444 86.5972 168.156 85.7355 170.315C85.1191 171.859 85.1191 173.81 85.1191 177.713V202.821C85.1191 210.905 85.1191 214.948 87.6029 217.459C90.0866 219.971 94.0841 219.971 102.079 219.971H102.079H117.449C129.771 219.971 135.932 219.971 138.417 215.897C140.901 211.823 138.135 206.256 132.604 195.122L122.036 173.852C120.192 170.14 122.86 165.766 126.967 165.766C129.054 165.766 130.962 166.956 131.899 168.841L152.606 210.52C154.891 215.118 156.033 217.418 158.08 218.694C160.126 219.97 162.671 219.97 167.761 219.97H167.761H172.835C180.83 219.97 184.828 219.97 187.312 217.459C189.795 214.947 189.795 210.905 189.795 202.82V178.529C189.795 174.626 189.795 172.675 190.412 171.131C191.274 168.972 192.966 167.26 195.102 166.389C196.629 165.765 198.558 165.765 202.417 165.765Z" fill="white"/>
<path d="M202.417 165.765C206.276 165.765 208.206 165.765 209.733 165.142C211.868 164.271 213.561 162.559 214.423 160.4C215.039 158.856 215.039 156.905 215.039 153.002V153.002V127.894C215.039 119.81 215.039 115.767 212.555 113.256C210.072 110.744 206.074 110.744 198.079 110.744H182.71C170.387 110.744 164.226 110.744 161.741 114.818C159.257 118.892 162.023 124.459 167.555 135.593L178.122 156.863C179.966 160.574 177.298 164.949 173.191 164.949C171.104 164.949 169.196 163.759 168.26 161.874L147.552 120.195C145.268 115.597 144.125 113.297 142.079 112.021C140.032 110.744 137.487 110.744 132.398 110.744L127.323 110.744C119.328 110.744 115.33 110.744 112.847 113.256C110.363 115.768 110.363 119.81 110.363 127.894L110.363 152.186C110.363 156.089 110.363 158.04 109.747 159.584C108.885 161.743 107.192 163.455 105.057 164.326C103.53 164.95 101.6 164.95 97.741 164.95H97.7409C93.8819 164.95 91.9523 164.95 90.4253 165.573C88.2902 166.444 86.5972 168.156 85.7355 170.315C85.1191 171.859 85.1191 173.81 85.1191 177.713V202.821C85.1191 210.905 85.1191 214.948 87.6029 217.459C90.0866 219.971 94.0841 219.971 102.079 219.971H102.079H117.449C129.771 219.971 135.932 219.971 138.417 215.897C140.901 211.823 138.135 206.256 132.604 195.122L122.036 173.852C120.192 170.14 122.86 165.766 126.967 165.766C129.054 165.766 130.962 166.956 131.899 168.841L152.606 210.52C154.891 215.118 156.033 217.418 158.08 218.694C160.126 219.97 162.671 219.97 167.761 219.97H167.761H172.835C180.83 219.97 184.828 219.97 187.312 217.459C189.795 214.947 189.795 210.905 189.795 202.82V178.529C189.795 174.626 189.795 172.675 190.412 171.131C191.274 168.972 192.966 167.26 195.102 166.389C196.629 165.765 198.558 165.765 202.417 165.765Z" stroke="white"/>
<path d="M129.415 399.441V329.623H171.552V337.123H137.87V360.714H169.37V368.214H137.87V391.941H172.097V399.441H129.415ZM191.825 367.941V399.441H183.78V347.078H191.552V355.26H192.234C193.461 352.6 195.325 350.464 197.825 348.85C200.325 347.214 203.552 346.396 207.507 346.396C211.052 346.396 214.155 347.123 216.814 348.578C219.473 350.01 221.541 352.191 223.018 355.123C224.495 358.032 225.234 361.714 225.234 366.169V399.441H217.189V366.714C217.189 362.6 216.12 359.396 213.984 357.1C211.848 354.782 208.916 353.623 205.189 353.623C202.62 353.623 200.325 354.18 198.302 355.294C196.302 356.407 194.723 358.032 193.564 360.169C192.405 362.305 191.825 364.896 191.825 367.941ZM259.289 400.532C254.379 400.532 250.152 399.373 246.607 397.055C243.061 394.737 240.334 391.544 238.425 387.475C236.516 383.407 235.561 378.76 235.561 373.532C235.561 368.214 236.539 363.521 238.493 359.453C240.47 355.362 243.22 352.169 246.743 349.873C250.289 347.555 254.425 346.396 259.152 346.396C262.834 346.396 266.152 347.078 269.107 348.441C272.061 349.805 274.482 351.714 276.368 354.169C278.254 356.623 279.425 359.487 279.879 362.76H271.834C271.22 360.373 269.857 358.26 267.743 356.419C265.652 354.555 262.834 353.623 259.289 353.623C256.152 353.623 253.402 354.441 251.039 356.078C248.698 357.691 246.868 359.975 245.55 362.93C244.254 365.862 243.607 369.305 243.607 373.26C243.607 377.305 244.243 380.828 245.516 383.828C246.811 386.828 248.629 389.157 250.97 390.816C253.334 392.475 256.107 393.305 259.289 393.305C261.379 393.305 263.277 392.941 264.982 392.214C266.686 391.487 268.129 390.441 269.311 389.078C270.493 387.714 271.334 386.078 271.834 384.169H279.879C279.425 387.26 278.3 390.044 276.504 392.521C274.732 394.975 272.379 396.93 269.448 398.385C266.539 399.816 263.152 400.532 259.289 400.532ZM289.721 399.441V347.078H297.494V354.987H298.039C298.994 352.396 300.721 350.294 303.221 348.68C305.721 347.066 308.539 346.26 311.675 346.26C312.266 346.26 313.005 346.271 313.891 346.294C314.778 346.316 315.448 346.35 315.903 346.396V354.578C315.63 354.51 315.005 354.407 314.028 354.271C313.073 354.112 312.062 354.032 310.994 354.032C308.448 354.032 306.175 354.566 304.175 355.635C302.198 356.68 300.63 358.135 299.471 359.998C298.334 361.839 297.766 363.941 297.766 366.305V399.441H289.721ZM330.295 419.078C328.932 419.078 327.716 418.964 326.647 418.737C325.579 418.532 324.841 418.328 324.432 418.123L326.477 411.032C328.432 411.532 330.159 411.714 331.659 411.578C333.159 411.441 334.488 410.771 335.647 409.566C336.829 408.385 337.909 406.464 338.886 403.805L340.386 399.714L321.022 347.078H329.75L344.204 388.805H344.75L359.204 347.078H367.932L345.704 407.078C344.704 409.782 343.466 412.021 341.988 413.794C340.511 415.589 338.795 416.919 336.841 417.782C334.909 418.646 332.727 419.078 330.295 419.078ZM376.631 419.078V347.078H384.404V355.396H385.358C385.949 354.487 386.767 353.328 387.813 351.919C388.881 350.487 390.404 349.214 392.381 348.1C394.381 346.964 397.085 346.396 400.494 346.396C404.904 346.396 408.79 347.498 412.154 349.703C415.517 351.907 418.142 355.032 420.029 359.078C421.915 363.123 422.858 367.896 422.858 373.396C422.858 378.941 421.915 383.748 420.029 387.816C418.142 391.862 415.529 394.998 412.188 397.225C408.847 399.43 404.994 400.532 400.631 400.532C397.267 400.532 394.574 399.975 392.551 398.862C390.529 397.725 388.972 396.441 387.881 395.01C386.79 393.555 385.949 392.35 385.358 391.396H384.676V419.078H376.631ZM384.54 373.26C384.54 377.214 385.119 380.703 386.279 383.725C387.438 386.725 389.131 389.078 391.358 390.782C393.585 392.464 396.313 393.305 399.54 393.305C402.904 393.305 405.71 392.419 407.96 390.646C410.233 388.85 411.938 386.441 413.074 383.419C414.233 380.373 414.813 376.987 414.813 373.26C414.813 369.578 414.244 366.26 413.108 363.305C411.994 360.328 410.301 357.975 408.029 356.248C405.779 354.498 402.949 353.623 399.54 353.623C396.267 353.623 393.517 354.453 391.29 356.112C389.063 357.748 387.381 360.044 386.244 362.998C385.108 365.93 384.54 369.35 384.54 373.26ZM455.984 347.078V353.896H428.847V347.078H455.984ZM436.756 334.532H444.802V384.441C444.802 386.714 445.131 388.419 445.79 389.555C446.472 390.669 447.336 391.419 448.381 391.805C449.449 392.169 450.574 392.35 451.756 392.35C452.643 392.35 453.37 392.305 453.938 392.214C454.506 392.1 454.961 392.01 455.302 391.941L456.938 399.169C456.393 399.373 455.631 399.578 454.654 399.782C453.677 400.01 452.438 400.123 450.938 400.123C448.665 400.123 446.438 399.635 444.256 398.657C442.097 397.68 440.302 396.191 438.87 394.191C437.461 392.191 436.756 389.669 436.756 386.623V334.532ZM466.166 399.441V347.078H474.211V399.441H466.166ZM470.257 338.35C468.689 338.35 467.336 337.816 466.2 336.748C465.086 335.68 464.529 334.396 464.529 332.896C464.529 331.396 465.086 330.112 466.2 329.044C467.336 327.975 468.689 327.441 470.257 327.441C471.825 327.441 473.166 327.975 474.279 329.044C475.416 330.112 475.984 331.396 475.984 332.896C475.984 334.396 475.416 335.68 474.279 336.748C473.166 337.816 471.825 338.35 470.257 338.35ZM508.3 400.532C503.573 400.532 499.425 399.407 495.857 397.157C492.311 394.907 489.538 391.76 487.538 387.714C485.561 383.669 484.573 378.941 484.573 373.532C484.573 368.078 485.561 363.316 487.538 359.248C489.538 355.18 492.311 352.021 495.857 349.771C499.425 347.521 503.573 346.396 508.3 346.396C513.027 346.396 517.163 347.521 520.709 349.771C524.277 352.021 527.05 355.18 529.027 359.248C531.027 363.316 532.027 368.078 532.027 373.532C532.027 378.941 531.027 383.669 529.027 387.714C527.05 391.76 524.277 394.907 520.709 397.157C517.163 399.407 513.027 400.532 508.3 400.532ZM508.3 393.305C511.891 393.305 514.845 392.385 517.163 390.544C519.482 388.703 521.198 386.282 522.311 383.282C523.425 380.282 523.982 377.032 523.982 373.532C523.982 370.032 523.425 366.771 522.311 363.748C521.198 360.725 519.482 358.282 517.163 356.419C514.845 354.555 511.891 353.623 508.3 353.623C504.709 353.623 501.754 354.555 499.436 356.419C497.118 358.282 495.402 360.725 494.288 363.748C493.175 366.771 492.618 370.032 492.618 373.532C492.618 377.032 493.175 380.282 494.288 383.282C495.402 386.282 497.118 388.703 499.436 390.544C501.754 392.385 504.709 393.305 508.3 393.305ZM550.434 367.941V399.441H542.388V347.078H550.161V355.26H550.843C552.07 352.6 553.934 350.464 556.434 348.85C558.934 347.214 562.161 346.396 566.116 346.396C569.661 346.396 572.763 347.123 575.422 348.578C578.082 350.01 580.15 352.191 581.627 355.123C583.104 358.032 583.843 361.714 583.843 366.169V399.441H575.797V366.714C575.797 362.6 574.729 359.396 572.593 357.1C570.457 354.782 567.525 353.623 563.797 353.623C561.229 353.623 558.934 354.18 556.911 355.294C554.911 356.407 553.332 358.032 552.172 360.169C551.013 362.305 550.434 364.896 550.434 367.941ZM664.523 347.078L645.159 399.441H636.977L617.614 347.078H626.341L640.795 388.805H641.341L655.795 347.078H664.523ZM710.313 358.805L703.086 360.85C702.631 359.646 701.961 358.475 701.074 357.339C700.211 356.18 699.029 355.225 697.529 354.475C696.029 353.725 694.108 353.35 691.768 353.35C688.563 353.35 685.893 354.089 683.756 355.566C681.643 357.021 680.586 358.873 680.586 361.123C680.586 363.123 681.313 364.703 682.768 365.862C684.222 367.021 686.495 367.987 689.586 368.76L697.358 370.669C702.04 371.805 705.529 373.544 707.824 375.885C710.12 378.203 711.268 381.191 711.268 384.85C711.268 387.85 710.404 390.532 708.677 392.896C706.972 395.26 704.586 397.123 701.518 398.487C698.449 399.85 694.881 400.532 690.813 400.532C685.472 400.532 681.052 399.373 677.552 397.055C674.052 394.737 671.836 391.35 670.904 386.896L678.54 384.987C679.268 387.805 680.643 389.919 682.665 391.328C684.711 392.737 687.381 393.441 690.677 393.441C694.427 393.441 697.404 392.646 699.608 391.055C701.836 389.441 702.949 387.51 702.949 385.26C702.949 383.441 702.313 381.919 701.04 380.691C699.768 379.441 697.813 378.51 695.177 377.896L686.449 375.85C681.654 374.714 678.131 372.953 675.881 370.566C673.654 368.157 672.54 365.146 672.54 361.532C672.54 358.578 673.37 355.964 675.029 353.691C676.711 351.419 678.995 349.635 681.881 348.339C684.79 347.044 688.086 346.396 691.768 346.396C696.949 346.396 701.018 347.532 703.972 349.805C706.949 352.078 709.063 355.078 710.313 358.805ZM727.322 399.987C725.64 399.987 724.197 399.385 722.992 398.18C721.788 396.975 721.186 395.532 721.186 393.85C721.186 392.169 721.788 390.725 722.992 389.521C724.197 388.316 725.64 387.714 727.322 387.714C729.004 387.714 730.447 388.316 731.651 389.521C732.856 390.725 733.458 392.169 733.458 393.85C733.458 394.964 733.174 395.987 732.606 396.919C732.061 397.85 731.322 398.6 730.39 399.169C729.481 399.714 728.458 399.987 727.322 399.987ZM810.329 347.078C809.919 343.623 808.26 340.941 805.351 339.032C802.442 337.123 798.874 336.169 794.647 336.169C791.556 336.169 788.851 336.669 786.533 337.669C784.238 338.669 782.442 340.044 781.147 341.794C779.874 343.544 779.238 345.532 779.238 347.76C779.238 349.623 779.681 351.225 780.567 352.566C781.476 353.885 782.635 354.987 784.044 355.873C785.454 356.737 786.931 357.453 788.476 358.021C790.022 358.566 791.442 359.01 792.738 359.35L799.829 361.26C801.647 361.737 803.669 362.396 805.897 363.237C808.147 364.078 810.294 365.225 812.34 366.68C814.408 368.112 816.113 369.953 817.454 372.203C818.794 374.453 819.465 377.214 819.465 380.487C819.465 384.26 818.476 387.669 816.499 390.714C814.544 393.76 811.681 396.18 807.908 397.975C804.158 399.771 799.601 400.669 794.238 400.669C789.238 400.669 784.908 399.862 781.249 398.248C777.613 396.635 774.749 394.385 772.658 391.498C770.59 388.612 769.419 385.26 769.147 381.441H777.874C778.101 384.078 778.988 386.26 780.533 387.987C782.101 389.691 784.079 390.964 786.465 391.805C788.874 392.623 791.465 393.032 794.238 393.032C797.465 393.032 800.363 392.51 802.931 391.464C805.499 390.396 807.533 388.919 809.033 387.032C810.533 385.123 811.283 382.896 811.283 380.35C811.283 378.032 810.635 376.146 809.34 374.691C808.044 373.237 806.34 372.055 804.226 371.146C802.113 370.237 799.829 369.441 797.374 368.76L788.783 366.305C783.329 364.737 779.01 362.498 775.829 359.589C772.647 356.68 771.056 352.873 771.056 348.169C771.056 344.26 772.113 340.85 774.226 337.941C776.363 335.01 779.226 332.737 782.817 331.123C786.431 329.487 790.465 328.669 794.919 328.669C799.419 328.669 803.419 329.475 806.919 331.089C810.419 332.68 813.192 334.862 815.238 337.635C817.306 340.407 818.397 343.555 818.51 347.078H810.329ZM835.536 419.078C834.173 419.078 832.957 418.964 831.889 418.737C830.821 418.532 830.082 418.328 829.673 418.123L831.718 411.032C833.673 411.532 835.4 411.714 836.9 411.578C838.4 411.441 839.73 410.771 840.889 409.566C842.071 408.385 843.15 406.464 844.127 403.805L845.627 399.714L826.264 347.078H834.991L849.446 388.805H849.991L864.446 347.078H873.173L850.946 407.078C849.946 409.782 848.707 412.021 847.23 413.794C845.752 415.589 844.036 416.919 842.082 417.782C840.15 418.646 837.968 419.078 835.536 419.078ZM889.918 367.941V399.441H881.872V347.078H889.645V355.26H890.327C891.554 352.6 893.418 350.464 895.918 348.85C898.418 347.214 901.645 346.396 905.599 346.396C909.145 346.396 912.247 347.123 914.906 348.578C917.565 350.01 919.633 352.191 921.111 355.123C922.588 358.032 923.327 361.714 923.327 366.169V399.441H915.281V366.714C915.281 362.6 914.213 359.396 912.077 357.1C909.94 354.782 907.008 353.623 903.281 353.623C900.713 353.623 898.418 354.18 896.395 355.294C894.395 356.407 892.815 358.032 891.656 360.169C890.497 362.305 889.918 364.896 889.918 367.941ZM958.881 347.078V353.896H931.745V347.078H958.881ZM939.654 334.532H947.699V384.441C947.699 386.714 948.029 388.419 948.688 389.555C949.37 390.669 950.233 391.419 951.279 391.805C952.347 392.169 953.472 392.35 954.654 392.35C955.54 392.35 956.267 392.305 956.836 392.214C957.404 392.1 957.858 392.01 958.199 391.941L959.836 399.169C959.29 399.373 958.529 399.578 957.552 399.782C956.574 400.01 955.336 400.123 953.836 400.123C951.563 400.123 949.336 399.635 947.154 398.657C944.995 397.68 943.199 396.191 941.767 394.191C940.358 392.191 939.654 389.669 939.654 386.623V334.532ZM978.234 367.941V399.441H970.188V329.623H978.234V355.26H978.916C980.143 352.555 981.984 350.407 984.438 348.816C986.916 347.203 990.211 346.396 994.325 346.396C997.893 346.396 1001.02 347.112 1003.7 348.544C1006.38 349.953 1008.46 352.123 1009.94 355.055C1011.44 357.964 1012.19 361.669 1012.19 366.169V399.441H1004.14V366.714C1004.14 362.555 1003.06 359.339 1000.9 357.066C998.768 354.771 995.802 353.623 992.007 353.623C989.37 353.623 987.007 354.18 984.916 355.294C982.847 356.407 981.211 358.032 980.007 360.169C978.825 362.305 978.234 364.896 978.234 367.941ZM1046.94 400.532C1041.9 400.532 1037.54 399.419 1033.88 397.191C1030.25 394.941 1027.44 391.805 1025.46 387.782C1023.51 383.737 1022.53 379.032 1022.53 373.669C1022.53 368.305 1023.51 363.578 1025.46 359.487C1027.44 355.373 1030.19 352.169 1033.71 349.873C1037.26 347.555 1041.4 346.396 1046.12 346.396C1048.85 346.396 1051.54 346.85 1054.2 347.76C1056.86 348.669 1059.28 350.146 1061.46 352.191C1063.65 354.214 1065.38 356.896 1066.68 360.237C1067.98 363.578 1068.62 367.691 1068.62 372.578V375.987H1028.26V369.032H1060.44C1060.44 366.078 1059.85 363.441 1058.67 361.123C1057.51 358.805 1055.85 356.975 1053.69 355.635C1051.56 354.294 1049.03 353.623 1046.12 353.623C1042.92 353.623 1040.15 354.419 1037.81 356.01C1035.49 357.578 1033.7 359.623 1032.45 362.146C1031.2 364.669 1030.58 367.373 1030.58 370.26V374.896C1030.58 378.85 1031.26 382.203 1032.62 384.953C1034.01 387.68 1035.93 389.76 1038.38 391.191C1040.84 392.6 1043.69 393.305 1046.94 393.305C1049.06 393.305 1050.96 393.01 1052.67 392.419C1054.4 391.805 1055.88 390.896 1057.13 389.691C1058.38 388.464 1059.35 386.941 1060.03 385.123L1067.81 387.305C1066.99 389.941 1065.61 392.26 1063.68 394.26C1061.75 396.237 1059.36 397.782 1056.52 398.896C1053.68 399.987 1050.49 400.532 1046.94 400.532ZM1101.71 347.078V353.896H1074.58V347.078H1101.71ZM1082.49 334.532H1090.53V384.441C1090.53 386.714 1090.86 388.419 1091.52 389.555C1092.2 390.669 1093.07 391.419 1094.11 391.805C1095.18 392.169 1096.31 392.35 1097.49 392.35C1098.37 392.35 1099.1 392.305 1099.67 392.214C1100.24 392.1 1100.69 392.01 1101.03 391.941L1102.67 399.169C1102.12 399.373 1101.36 399.578 1100.39 399.782C1099.41 400.01 1098.17 400.123 1096.67 400.123C1094.4 400.123 1092.17 399.635 1089.99 398.657C1087.83 397.68 1086.03 396.191 1084.6 394.191C1083.19 392.191 1082.49 389.669 1082.49 386.623V334.532ZM1111.9 399.441V347.078H1119.94V399.441H1111.9ZM1115.99 338.35C1114.42 338.35 1113.07 337.816 1111.93 336.748C1110.82 335.68 1110.26 334.396 1110.26 332.896C1110.26 331.396 1110.82 330.112 1111.93 329.044C1113.07 327.975 1114.42 327.441 1115.99 327.441C1117.56 327.441 1118.9 327.975 1120.01 329.044C1121.15 330.112 1121.72 331.396 1121.72 332.896C1121.72 334.396 1121.15 335.68 1120.01 336.748C1118.9 337.816 1117.56 338.35 1115.99 338.35ZM1154.03 400.532C1149.12 400.532 1144.89 399.373 1141.35 397.055C1137.8 394.737 1135.08 391.544 1133.17 387.475C1131.26 383.407 1130.3 378.76 1130.3 373.532C1130.3 368.214 1131.28 363.521 1133.24 359.453C1135.21 355.362 1137.96 352.169 1141.49 349.873C1145.03 347.555 1149.17 346.396 1153.89 346.396C1157.58 346.396 1160.89 347.078 1163.85 348.441C1166.8 349.805 1169.22 351.714 1171.11 354.169C1173 356.623 1174.17 359.487 1174.62 362.76H1166.58C1165.96 360.373 1164.6 358.26 1162.49 356.419C1160.39 354.555 1157.58 353.623 1154.03 353.623C1150.89 353.623 1148.14 354.441 1145.78 356.078C1143.44 357.691 1141.61 359.975 1140.29 362.93C1139 365.862 1138.35 369.305 1138.35 373.26C1138.35 377.305 1138.99 380.828 1140.26 383.828C1141.55 386.828 1143.37 389.157 1145.71 390.816C1148.08 392.475 1150.85 393.305 1154.03 393.305C1156.12 393.305 1158.02 392.941 1159.72 392.214C1161.43 391.487 1162.87 390.441 1164.05 389.078C1165.24 387.714 1166.08 386.078 1166.58 384.169H1174.62C1174.17 387.26 1173.04 390.044 1171.25 392.521C1169.47 394.975 1167.12 396.93 1164.19 398.385C1161.28 399.816 1157.89 400.532 1154.03 400.532ZM1232.18 399.441H1210.63V329.623H1233.13C1239.91 329.623 1245.7 331.021 1250.52 333.816C1255.34 336.589 1259.03 340.578 1261.6 345.782C1264.17 350.964 1265.45 357.169 1265.45 364.396C1265.45 371.669 1264.16 377.93 1261.57 383.18C1258.98 388.407 1255.2 392.43 1250.25 395.248C1245.29 398.044 1239.27 399.441 1232.18 399.441ZM1219.09 391.941H1231.63C1237.41 391.941 1242.19 390.828 1245.99 388.6C1249.78 386.373 1252.61 383.203 1254.48 379.089C1256.34 374.975 1257.27 370.078 1257.27 364.396C1257.27 358.76 1256.35 353.907 1254.51 349.839C1252.67 345.748 1249.92 342.612 1246.26 340.43C1242.6 338.225 1238.04 337.123 1232.59 337.123H1219.09V391.941ZM1292.03 400.669C1288.71 400.669 1285.7 400.044 1283 398.794C1280.29 397.521 1278.15 395.691 1276.56 393.305C1274.96 390.896 1274.17 387.987 1274.17 384.578C1274.17 381.578 1274.76 379.146 1275.94 377.282C1277.12 375.396 1278.7 373.919 1280.68 372.85C1282.66 371.782 1284.84 370.987 1287.23 370.464C1289.63 369.919 1292.06 369.487 1294.49 369.169C1297.67 368.76 1300.25 368.453 1302.23 368.248C1304.23 368.021 1305.68 367.646 1306.59 367.123C1307.52 366.6 1307.99 365.691 1307.99 364.396V364.123C1307.99 360.76 1307.07 358.146 1305.23 356.282C1303.41 354.419 1300.65 353.487 1296.94 353.487C1293.1 353.487 1290.09 354.328 1287.91 356.01C1285.73 357.691 1284.19 359.487 1283.31 361.396L1275.67 358.669C1277.03 355.487 1278.85 353.01 1281.12 351.237C1283.42 349.441 1285.92 348.191 1288.62 347.487C1291.35 346.76 1294.03 346.396 1296.67 346.396C1298.35 346.396 1300.28 346.6 1302.46 347.01C1304.67 347.396 1306.79 348.203 1308.84 349.43C1310.91 350.657 1312.62 352.51 1313.99 354.987C1315.35 357.464 1316.03 360.782 1316.03 364.941V399.441H1307.99V392.35H1307.58C1307.03 393.487 1306.12 394.703 1304.85 395.998C1303.58 397.294 1301.88 398.396 1299.77 399.305C1297.66 400.214 1295.08 400.669 1292.03 400.669ZM1293.26 393.441C1296.44 393.441 1299.12 392.816 1301.31 391.566C1303.51 390.316 1305.17 388.703 1306.28 386.725C1307.42 384.748 1307.99 382.669 1307.99 380.487V373.123C1307.65 373.532 1306.9 373.907 1305.74 374.248C1304.6 374.566 1303.28 374.85 1301.78 375.1C1300.31 375.328 1298.86 375.532 1297.45 375.714C1296.07 375.873 1294.94 376.01 1294.08 376.123C1291.99 376.396 1290.03 376.839 1288.21 377.453C1286.42 378.044 1284.96 378.941 1283.85 380.146C1282.76 381.328 1282.21 382.941 1282.21 384.987C1282.21 387.782 1283.25 389.896 1285.32 391.328C1287.41 392.737 1290.06 393.441 1293.26 393.441ZM1351.57 347.078V353.896H1324.43V347.078H1351.57ZM1332.34 334.532H1340.39V384.441C1340.39 386.714 1340.72 388.419 1341.38 389.555C1342.06 390.669 1342.92 391.419 1343.97 391.805C1345.04 392.169 1346.16 392.35 1347.34 392.35C1348.23 392.35 1348.96 392.305 1349.52 392.214C1350.09 392.1 1350.55 392.01 1350.89 391.941L1352.52 399.169C1351.98 399.373 1351.22 399.578 1350.24 399.782C1349.26 400.01 1348.02 400.123 1346.52 400.123C1344.25 400.123 1342.02 399.635 1339.84 398.657C1337.68 397.68 1335.89 396.191 1334.46 394.191C1333.05 392.191 1332.34 389.669 1332.34 386.623V334.532ZM1377.16 400.669C1373.84 400.669 1370.83 400.044 1368.13 398.794C1365.42 397.521 1363.27 395.691 1361.68 393.305C1360.09 390.896 1359.3 387.987 1359.3 384.578C1359.3 381.578 1359.89 379.146 1361.07 377.282C1362.25 375.396 1363.83 373.919 1365.81 372.85C1367.79 371.782 1369.97 370.987 1372.35 370.464C1374.76 369.919 1377.18 369.487 1379.62 369.169C1382.8 368.76 1385.38 368.453 1387.35 368.248C1389.35 368.021 1390.81 367.646 1391.72 367.123C1392.65 366.6 1393.12 365.691 1393.12 364.396V364.123C1393.12 360.76 1392.2 358.146 1390.35 356.282C1388.54 354.419 1385.77 353.487 1382.07 353.487C1378.23 353.487 1375.22 354.328 1373.04 356.01C1370.85 357.691 1369.32 359.487 1368.43 361.396L1360.8 358.669C1362.16 355.487 1363.98 353.01 1366.25 351.237C1368.55 349.441 1371.05 348.191 1373.75 347.487C1376.48 346.76 1379.16 346.396 1381.8 346.396C1383.48 346.396 1385.41 346.6 1387.59 347.01C1389.8 347.396 1391.92 348.203 1393.97 349.43C1396.04 350.657 1397.75 352.51 1399.12 354.987C1400.48 357.464 1401.16 360.782 1401.16 364.941V399.441H1393.12V392.35H1392.71C1392.16 393.487 1391.25 394.703 1389.98 395.998C1388.71 397.294 1387.01 398.396 1384.9 399.305C1382.79 400.214 1380.21 400.669 1377.16 400.669ZM1378.39 393.441C1381.57 393.441 1384.25 392.816 1386.43 391.566C1388.64 390.316 1390.3 388.703 1391.41 386.725C1392.55 384.748 1393.12 382.669 1393.12 380.487V373.123C1392.77 373.532 1392.02 373.907 1390.87 374.248C1389.73 374.566 1388.41 374.85 1386.91 375.1C1385.43 375.328 1383.99 375.532 1382.58 375.714C1381.2 375.873 1380.07 376.01 1379.21 376.123C1377.12 376.396 1375.16 376.839 1373.34 377.453C1371.55 378.044 1370.09 378.941 1368.98 380.146C1367.89 381.328 1367.34 382.941 1367.34 384.987C1367.34 387.782 1368.38 389.896 1370.45 391.328C1372.54 392.737 1375.18 393.441 1378.39 393.441ZM1481.82 347.078L1462.46 399.441H1454.28L1434.91 347.078H1443.64L1458.1 388.805H1458.64L1473.1 347.078H1481.82ZM1527.61 358.805L1520.39 360.85C1519.93 359.646 1519.26 358.475 1518.38 357.339C1517.51 356.18 1516.33 355.225 1514.83 354.475C1513.33 353.725 1511.41 353.35 1509.07 353.35C1505.86 353.35 1503.19 354.089 1501.06 355.566C1498.94 357.021 1497.89 358.873 1497.89 361.123C1497.89 363.123 1498.61 364.703 1500.07 365.862C1501.52 367.021 1503.8 367.987 1506.89 368.76L1514.66 370.669C1519.34 371.805 1522.83 373.544 1525.13 375.885C1527.42 378.203 1528.57 381.191 1528.57 384.85C1528.57 387.85 1527.71 390.532 1525.98 392.896C1524.27 395.26 1521.89 397.123 1518.82 398.487C1515.75 399.85 1512.18 400.532 1508.11 400.532C1502.77 400.532 1498.35 399.373 1494.85 397.055C1491.35 394.737 1489.14 391.35 1488.21 386.896L1495.84 384.987C1496.57 387.805 1497.94 389.919 1499.97 391.328C1502.01 392.737 1504.68 393.441 1507.98 393.441C1511.73 393.441 1514.71 392.646 1516.91 391.055C1519.14 389.441 1520.25 387.51 1520.25 385.26C1520.25 383.441 1519.61 381.919 1518.34 380.691C1517.07 379.441 1515.11 378.51 1512.48 377.896L1503.75 375.85C1498.96 374.714 1495.43 372.953 1493.18 370.566C1490.96 368.157 1489.84 365.146 1489.84 361.532C1489.84 358.578 1490.67 355.964 1492.33 353.691C1494.01 351.419 1496.3 349.635 1499.18 348.339C1502.09 347.044 1505.39 346.396 1509.07 346.396C1514.25 346.396 1518.32 347.532 1521.27 349.805C1524.25 352.078 1526.36 355.078 1527.61 358.805ZM1544.62 399.987C1542.94 399.987 1541.5 399.385 1540.29 398.18C1539.09 396.975 1538.49 395.532 1538.49 393.85C1538.49 392.169 1539.09 390.725 1540.29 389.521C1541.5 388.316 1542.94 387.714 1544.62 387.714C1546.31 387.714 1547.75 388.316 1548.95 389.521C1550.16 390.725 1550.76 392.169 1550.76 393.85C1550.76 394.964 1550.48 395.987 1549.91 396.919C1549.36 397.85 1548.62 398.6 1547.69 399.169C1546.78 399.714 1545.76 399.987 1544.62 399.987ZM125.597 453.123V445.623H177.961V453.123H156.006V515.441H147.552V453.123H125.597ZM201.677 516.532C196.95 516.532 192.802 515.407 189.234 513.157C185.689 510.907 182.916 507.76 180.916 503.714C178.939 499.669 177.95 494.941 177.95 489.532C177.95 484.078 178.939 479.316 180.916 475.248C182.916 471.18 185.689 468.021 189.234 465.771C192.802 463.521 196.95 462.396 201.677 462.396C206.405 462.396 210.541 463.521 214.086 465.771C217.655 468.021 220.427 471.18 222.405 475.248C224.405 479.316 225.405 484.078 225.405 489.532C225.405 494.941 224.405 499.669 222.405 503.714C220.427 507.76 217.655 510.907 214.086 513.157C210.541 515.407 206.405 516.532 201.677 516.532ZM201.677 509.305C205.268 509.305 208.223 508.385 210.541 506.544C212.859 504.703 214.575 502.282 215.689 499.282C216.802 496.282 217.359 493.032 217.359 489.532C217.359 486.032 216.802 482.771 215.689 479.748C214.575 476.725 212.859 474.282 210.541 472.419C208.223 470.555 205.268 469.623 201.677 469.623C198.086 469.623 195.132 470.555 192.814 472.419C190.495 474.282 188.78 476.725 187.666 479.748C186.552 482.771 185.995 486.032 185.995 489.532C185.995 493.032 186.552 496.282 187.666 499.282C188.78 502.282 190.495 504.703 192.814 506.544C195.132 508.385 198.086 509.305 201.677 509.305ZM243.266 496.35L243.129 486.396H244.766L267.675 463.078H277.629L253.22 487.76H252.539L243.266 496.35ZM235.766 515.441V445.623H243.811V515.441H235.766ZM269.039 515.441L248.584 489.532L254.311 483.941L279.266 515.441H269.039ZM305.863 516.532C300.817 516.532 296.465 515.419 292.806 513.191C289.17 510.941 286.363 507.805 284.386 503.782C282.431 499.737 281.454 495.032 281.454 489.669C281.454 484.305 282.431 479.578 284.386 475.487C286.363 471.373 289.113 468.169 292.636 465.873C296.181 463.555 300.317 462.396 305.045 462.396C307.772 462.396 310.465 462.85 313.124 463.76C315.783 464.669 318.204 466.146 320.386 468.191C322.567 470.214 324.306 472.896 325.602 476.237C326.897 479.578 327.545 483.691 327.545 488.578V491.987H287.181V485.032H319.363C319.363 482.078 318.772 479.441 317.59 477.123C316.431 474.805 314.772 472.975 312.613 471.635C310.477 470.294 307.954 469.623 305.045 469.623C301.84 469.623 299.067 470.419 296.727 472.01C294.408 473.578 292.624 475.623 291.374 478.146C290.124 480.669 289.499 483.373 289.499 486.26V490.896C289.499 494.85 290.181 498.203 291.545 500.953C292.931 503.68 294.852 505.76 297.306 507.191C299.761 508.6 302.613 509.305 305.863 509.305C307.977 509.305 309.886 509.01 311.59 508.419C313.317 507.805 314.806 506.896 316.056 505.691C317.306 504.464 318.272 502.941 318.954 501.123L326.727 503.305C325.908 505.941 324.533 508.26 322.602 510.26C320.67 512.237 318.283 513.782 315.442 514.896C312.602 515.987 309.408 516.532 305.863 516.532ZM345.909 483.941V515.441H337.863V463.078H345.636V471.26H346.318C347.545 468.6 349.409 466.464 351.909 464.85C354.409 463.214 357.636 462.396 361.591 462.396C365.136 462.396 368.238 463.123 370.897 464.578C373.557 466.01 375.625 468.191 377.102 471.123C378.579 474.032 379.318 477.714 379.318 482.169V515.441H371.272V482.714C371.272 478.6 370.204 475.396 368.068 473.1C365.932 470.782 363 469.623 359.272 469.623C356.704 469.623 354.409 470.18 352.386 471.294C350.386 472.407 348.807 474.032 347.647 476.169C346.488 478.305 345.909 480.896 345.909 483.941ZM392.1 515.441V463.078H400.145V515.441H392.1ZM396.19 454.35C394.622 454.35 393.27 453.816 392.134 452.748C391.02 451.68 390.463 450.396 390.463 448.896C390.463 447.396 391.02 446.112 392.134 445.044C393.27 443.975 394.622 443.441 396.19 443.441C397.759 443.441 399.1 443.975 400.213 445.044C401.35 446.112 401.918 447.396 401.918 448.896C401.918 450.396 401.35 451.68 400.213 452.748C399.1 453.816 397.759 454.35 396.19 454.35ZM411.461 515.441V509.305L441.188 471.123V470.578H412.415V463.078H451.552V469.487L422.643 507.396V507.941H452.506V515.441H411.461ZM478.387 516.669C475.069 516.669 472.058 516.044 469.353 514.794C466.649 513.521 464.501 511.691 462.91 509.305C461.319 506.896 460.524 503.987 460.524 500.578C460.524 497.578 461.115 495.146 462.297 493.282C463.478 491.396 465.058 489.919 467.035 488.85C469.012 487.782 471.194 486.987 473.581 486.464C475.99 485.919 478.41 485.487 480.842 485.169C484.024 484.76 486.603 484.453 488.581 484.248C490.581 484.021 492.035 483.646 492.944 483.123C493.876 482.6 494.342 481.691 494.342 480.396V480.123C494.342 476.76 493.422 474.146 491.581 472.282C489.762 470.419 487.001 469.487 483.297 469.487C479.456 469.487 476.444 470.328 474.262 472.01C472.081 473.691 470.547 475.487 469.66 477.396L462.024 474.669C463.387 471.487 465.206 469.01 467.478 467.237C469.774 465.441 472.274 464.191 474.978 463.487C477.706 462.76 480.387 462.396 483.024 462.396C484.706 462.396 486.637 462.6 488.819 463.01C491.024 463.396 493.149 464.203 495.194 465.43C497.262 466.657 498.978 468.51 500.342 470.987C501.706 473.464 502.387 476.782 502.387 480.941V515.441H494.342V508.35H493.933C493.387 509.487 492.478 510.703 491.206 511.998C489.933 513.294 488.24 514.396 486.126 515.305C484.012 516.214 481.433 516.669 478.387 516.669ZM479.615 509.441C482.797 509.441 485.478 508.816 487.66 507.566C489.865 506.316 491.524 504.703 492.637 502.725C493.774 500.748 494.342 498.669 494.342 496.487V489.123C494.001 489.532 493.251 489.907 492.092 490.248C490.956 490.566 489.637 490.85 488.137 491.1C486.66 491.328 485.217 491.532 483.808 491.714C482.422 491.873 481.297 492.01 480.433 492.123C478.342 492.396 476.387 492.839 474.569 493.453C472.774 494.044 471.319 494.941 470.206 496.146C469.115 497.328 468.569 498.941 468.569 500.987C468.569 503.782 469.603 505.896 471.672 507.328C473.762 508.737 476.41 509.441 479.615 509.441ZM537.925 463.078V469.896H510.788V463.078H537.925ZM518.698 450.532H526.743V500.441C526.743 502.714 527.073 504.419 527.732 505.555C528.413 506.669 529.277 507.419 530.323 507.805C531.391 508.169 532.516 508.35 533.698 508.35C534.584 508.35 535.311 508.305 535.879 508.214C536.448 508.1 536.902 508.01 537.243 507.941L538.879 515.169C538.334 515.373 537.573 515.578 536.595 515.782C535.618 516.01 534.379 516.123 532.879 516.123C530.607 516.123 528.379 515.635 526.198 514.657C524.038 513.68 522.243 512.191 520.811 510.191C519.402 508.191 518.698 505.669 518.698 502.623V450.532ZM548.107 515.441V463.078H556.153V515.441H548.107ZM552.198 454.35C550.63 454.35 549.278 453.816 548.141 452.748C547.028 451.68 546.471 450.396 546.471 448.896C546.471 447.396 547.028 446.112 548.141 445.044C549.278 443.975 550.63 443.441 552.198 443.441C553.766 443.441 555.107 443.975 556.221 445.044C557.357 446.112 557.925 447.396 557.925 448.896C557.925 450.396 557.357 451.68 556.221 452.748C555.107 453.816 553.766 454.35 552.198 454.35ZM590.241 516.532C585.514 516.532 581.366 515.407 577.798 513.157C574.252 510.907 571.48 507.76 569.48 503.714C567.502 499.669 566.514 494.941 566.514 489.532C566.514 484.078 567.502 479.316 569.48 475.248C571.48 471.18 574.252 468.021 577.798 465.771C581.366 463.521 585.514 462.396 590.241 462.396C594.968 462.396 599.105 463.521 602.65 465.771C606.218 468.021 608.991 471.18 610.968 475.248C612.968 479.316 613.968 484.078 613.968 489.532C613.968 494.941 612.968 499.669 610.968 503.714C608.991 507.76 606.218 510.907 602.65 513.157C599.105 515.407 594.968 516.532 590.241 516.532ZM590.241 509.305C593.832 509.305 596.786 508.385 599.105 506.544C601.423 504.703 603.139 502.282 604.252 499.282C605.366 496.282 605.923 493.032 605.923 489.532C605.923 486.032 605.366 482.771 604.252 479.748C603.139 476.725 601.423 474.282 599.105 472.419C596.786 470.555 593.832 469.623 590.241 469.623C586.65 469.623 583.696 470.555 581.377 472.419C579.059 474.282 577.343 476.725 576.23 479.748C575.116 482.771 574.559 486.032 574.559 489.532C574.559 493.032 575.116 496.282 576.23 499.282C577.343 502.282 579.059 504.703 581.377 506.544C583.696 508.385 586.65 509.305 590.241 509.305ZM632.375 483.941V515.441H624.33V463.078H632.102V471.26H632.784C634.011 468.6 635.875 466.464 638.375 464.85C640.875 463.214 644.102 462.396 648.057 462.396C651.602 462.396 654.705 463.123 657.364 464.578C660.023 466.01 662.091 468.191 663.568 471.123C665.045 474.032 665.784 477.714 665.784 482.169V515.441H657.739V482.714C657.739 478.6 656.67 475.396 654.534 473.1C652.398 470.782 649.466 469.623 645.739 469.623C643.17 469.623 640.875 470.18 638.852 471.294C636.852 472.407 635.273 474.032 634.114 476.169C632.955 478.305 632.375 480.896 632.375 483.941ZM142.097 747.441L123.006 677.623H131.597L146.188 734.487H146.87L161.734 677.623H171.279L186.143 734.487H186.825L201.415 677.623H210.006L190.915 747.441H182.188L166.779 691.805H166.234L150.825 747.441H142.097ZM225.575 715.941V747.441H217.53V677.623H225.575V703.26H226.257C227.484 700.555 229.325 698.407 231.78 696.816C234.257 695.203 237.552 694.396 241.666 694.396C245.234 694.396 248.359 695.112 251.041 696.544C253.723 697.953 255.802 700.123 257.28 703.055C258.78 705.964 259.53 709.669 259.53 714.169V747.441H251.484V714.714C251.484 710.555 250.405 707.339 248.245 705.066C246.109 702.771 243.143 701.623 239.348 701.623C236.711 701.623 234.348 702.18 232.257 703.294C230.189 704.407 228.552 706.032 227.348 708.169C226.166 710.305 225.575 712.896 225.575 715.941ZM287.737 748.669C284.419 748.669 281.408 748.044 278.703 746.794C275.999 745.521 273.851 743.691 272.26 741.305C270.669 738.896 269.874 735.987 269.874 732.578C269.874 729.578 270.465 727.146 271.647 725.282C272.828 723.396 274.408 721.919 276.385 720.85C278.362 719.782 280.544 718.987 282.931 718.464C285.34 717.919 287.76 717.487 290.192 717.169C293.374 716.76 295.953 716.453 297.931 716.248C299.931 716.021 301.385 715.646 302.294 715.123C303.226 714.6 303.692 713.691 303.692 712.396V712.123C303.692 708.76 302.772 706.146 300.931 704.282C299.112 702.419 296.351 701.487 292.647 701.487C288.806 701.487 285.794 702.328 283.612 704.01C281.431 705.691 279.897 707.487 279.01 709.396L271.374 706.669C272.737 703.487 274.556 701.01 276.828 699.237C279.124 697.441 281.624 696.191 284.328 695.487C287.056 694.76 289.737 694.396 292.374 694.396C294.056 694.396 295.987 694.6 298.169 695.01C300.374 695.396 302.499 696.203 304.544 697.43C306.612 698.657 308.328 700.51 309.692 702.987C311.056 705.464 311.737 708.782 311.737 712.941V747.441H303.692V740.35H303.283C302.737 741.487 301.828 742.703 300.556 743.998C299.283 745.294 297.59 746.396 295.476 747.305C293.362 748.214 290.783 748.669 287.737 748.669ZM288.965 741.441C292.147 741.441 294.828 740.816 297.01 739.566C299.215 738.316 300.874 736.703 301.987 734.725C303.124 732.748 303.692 730.669 303.692 728.487V721.123C303.351 721.532 302.601 721.907 301.442 722.248C300.306 722.566 298.987 722.85 297.487 723.1C296.01 723.328 294.567 723.532 293.158 723.714C291.772 723.873 290.647 724.01 289.783 724.123C287.692 724.396 285.737 724.839 283.919 725.453C282.124 726.044 280.669 726.941 279.556 728.146C278.465 729.328 277.919 730.941 277.919 732.987C277.919 735.782 278.953 737.896 281.022 739.328C283.112 740.737 285.76 741.441 288.965 741.441ZM347.275 695.078V701.896H320.138V695.078H347.275ZM328.048 682.532H336.093V732.441C336.093 734.714 336.423 736.419 337.082 737.555C337.763 738.669 338.627 739.419 339.673 739.805C340.741 740.169 341.866 740.35 343.048 740.35C343.934 740.35 344.661 740.305 345.229 740.214C345.798 740.1 346.252 740.01 346.593 739.941L348.229 747.169C347.684 747.373 346.923 747.578 345.945 747.782C344.968 748.01 343.729 748.123 342.229 748.123C339.957 748.123 337.729 747.635 335.548 746.657C333.388 745.68 331.593 744.191 330.161 742.191C328.752 740.191 328.048 737.669 328.048 734.623V682.532ZM367.267 677.623V683.76C367.267 685.623 366.926 687.612 366.244 689.725C365.585 691.816 364.608 693.85 363.312 695.828C362.039 697.782 360.494 699.487 358.676 700.941L354.312 697.396C355.744 695.35 356.983 693.225 358.028 691.021C359.096 688.794 359.63 686.419 359.63 683.896V677.623H367.267ZM405.659 706.805L398.432 708.85C397.977 707.646 397.307 706.475 396.421 705.339C395.557 704.18 394.375 703.225 392.875 702.475C391.375 701.725 389.455 701.35 387.114 701.35C383.909 701.35 381.239 702.089 379.102 703.566C376.989 705.021 375.932 706.873 375.932 709.123C375.932 711.123 376.659 712.703 378.114 713.862C379.568 715.021 381.841 715.987 384.932 716.76L392.705 718.669C397.386 719.805 400.875 721.544 403.171 723.885C405.466 726.203 406.614 729.191 406.614 732.85C406.614 735.85 405.75 738.532 404.023 740.896C402.318 743.26 399.932 745.123 396.864 746.487C393.796 747.85 390.227 748.532 386.159 748.532C380.818 748.532 376.398 747.373 372.898 745.055C369.398 742.737 367.182 739.35 366.25 734.896L373.887 732.987C374.614 735.805 375.989 737.919 378.012 739.328C380.057 740.737 382.727 741.441 386.023 741.441C389.773 741.441 392.75 740.646 394.955 739.055C397.182 737.441 398.296 735.51 398.296 733.26C398.296 731.441 397.659 729.919 396.387 728.691C395.114 727.441 393.159 726.51 390.523 725.896L381.796 723.85C377 722.714 373.477 720.953 371.227 718.566C369 716.157 367.886 713.146 367.886 709.532C367.886 706.578 368.716 703.964 370.375 701.691C372.057 699.419 374.341 697.635 377.227 696.339C380.137 695.044 383.432 694.396 387.114 694.396C392.296 694.396 396.364 695.532 399.318 697.805C402.296 700.078 404.409 703.078 405.659 706.805ZM464.657 695.078V701.896H437.521V695.078H464.657ZM445.43 682.532H453.475V732.441C453.475 734.714 453.805 736.419 454.464 737.555C455.146 738.669 456.01 739.419 457.055 739.805C458.123 740.169 459.248 740.35 460.43 740.35C461.316 740.35 462.044 740.305 462.612 740.214C463.18 740.1 463.635 740.01 463.975 739.941L465.612 747.169C465.066 747.373 464.305 747.578 463.328 747.782C462.35 748.01 461.112 748.123 459.612 748.123C457.339 748.123 455.112 747.635 452.93 746.657C450.771 745.68 448.975 744.191 447.544 742.191C446.135 740.191 445.43 737.669 445.43 734.623V682.532ZM484.01 715.941V747.441H475.965V677.623H484.01V703.26H484.692C485.919 700.555 487.76 698.407 490.215 696.816C492.692 695.203 495.987 694.396 500.101 694.396C503.669 694.396 506.794 695.112 509.476 696.544C512.158 697.953 514.237 700.123 515.715 703.055C517.215 705.964 517.965 709.669 517.965 714.169V747.441H509.919V714.714C509.919 710.555 508.84 707.339 506.68 705.066C504.544 702.771 501.578 701.623 497.783 701.623C495.146 701.623 492.783 702.18 490.692 703.294C488.624 704.407 486.987 706.032 485.783 708.169C484.601 710.305 484.01 712.896 484.01 715.941ZM552.718 748.532C547.672 748.532 543.32 747.419 539.661 745.191C536.025 742.941 533.218 739.805 531.241 735.782C529.286 731.737 528.309 727.032 528.309 721.669C528.309 716.305 529.286 711.578 531.241 707.487C533.218 703.373 535.968 700.169 539.491 697.873C543.036 695.555 547.172 694.396 551.9 694.396C554.627 694.396 557.32 694.85 559.979 695.76C562.638 696.669 565.059 698.146 567.241 700.191C569.422 702.214 571.161 704.896 572.457 708.237C573.752 711.578 574.4 715.691 574.4 720.578V723.987H534.036V717.032H566.218C566.218 714.078 565.627 711.441 564.445 709.123C563.286 706.805 561.627 704.975 559.468 703.635C557.332 702.294 554.809 701.623 551.9 701.623C548.695 701.623 545.922 702.419 543.582 704.01C541.263 705.578 539.479 707.623 538.229 710.146C536.979 712.669 536.354 715.373 536.354 718.26V722.896C536.354 726.85 537.036 730.203 538.4 732.953C539.786 735.68 541.707 737.76 544.161 739.191C546.616 740.6 549.468 741.305 552.718 741.305C554.832 741.305 556.741 741.01 558.445 740.419C560.172 739.805 561.661 738.896 562.911 737.691C564.161 736.464 565.127 734.941 565.809 733.123L573.582 735.305C572.763 737.941 571.388 740.26 569.457 742.26C567.525 744.237 565.138 745.782 562.297 746.896C559.457 747.987 556.263 748.532 552.718 748.532ZM629.571 748.532C625.207 748.532 621.355 747.43 618.014 745.225C614.673 742.998 612.06 739.862 610.173 735.816C608.287 731.748 607.344 726.941 607.344 721.396C607.344 715.896 608.287 711.123 610.173 707.078C612.06 703.032 614.685 699.907 618.048 697.703C621.412 695.498 625.298 694.396 629.707 694.396C633.117 694.396 635.81 694.964 637.787 696.1C639.787 697.214 641.31 698.487 642.355 699.919C643.423 701.328 644.253 702.487 644.844 703.396H645.526V677.623H653.571V747.441H645.798V739.396H644.844C644.253 740.35 643.412 741.555 642.321 743.01C641.23 744.441 639.673 745.725 637.651 746.862C635.628 747.975 632.935 748.532 629.571 748.532ZM630.662 741.305C633.889 741.305 636.617 740.464 638.844 738.782C641.071 737.078 642.764 734.725 643.923 731.725C645.082 728.703 645.662 725.214 645.662 721.26C645.662 717.35 645.094 713.93 643.957 710.998C642.821 708.044 641.139 705.748 638.912 704.112C636.685 702.453 633.935 701.623 630.662 701.623C627.253 701.623 624.412 702.498 622.139 704.248C619.889 705.975 618.196 708.328 617.06 711.305C615.946 714.26 615.389 717.578 615.389 721.26C615.389 724.987 615.957 728.373 617.094 731.419C618.253 734.441 619.957 736.85 622.207 738.646C624.48 740.419 627.298 741.305 630.662 741.305ZM667.503 747.441V695.078H675.549V747.441H667.503ZM671.594 686.35C670.026 686.35 668.674 685.816 667.537 684.748C666.424 683.68 665.867 682.396 665.867 680.896C665.867 679.396 666.424 678.112 667.537 677.044C668.674 675.975 670.026 675.441 671.594 675.441C673.162 675.441 674.503 675.975 675.617 677.044C676.753 678.112 677.322 679.396 677.322 680.896C677.322 682.396 676.753 683.68 675.617 684.748C674.503 685.816 673.162 686.35 671.594 686.35ZM711.683 695.078V701.896H683.455V695.078H711.683ZM691.91 747.441V687.85C691.91 684.85 692.615 682.35 694.024 680.35C695.433 678.35 697.262 676.85 699.512 675.85C701.762 674.85 704.137 674.35 706.637 674.35C708.615 674.35 710.228 674.51 711.478 674.828C712.728 675.146 713.66 675.441 714.274 675.714L711.955 682.669C711.546 682.532 710.978 682.362 710.251 682.157C709.546 681.953 708.615 681.85 707.455 681.85C704.796 681.85 702.876 682.521 701.694 683.862C700.535 685.203 699.955 687.169 699.955 689.76V747.441H691.91ZM744.357 695.078V701.896H716.129V695.078H744.357ZM724.584 747.441V687.85C724.584 684.85 725.288 682.35 726.697 680.35C728.107 678.35 729.936 676.85 732.186 675.85C734.436 674.85 736.811 674.35 739.311 674.35C741.288 674.35 742.902 674.51 744.152 674.828C745.402 675.146 746.334 675.441 746.947 675.714L744.629 682.669C744.22 682.532 743.652 682.362 742.925 682.157C742.22 681.953 741.288 681.85 740.129 681.85C737.47 681.85 735.55 682.521 734.368 683.862C733.209 685.203 732.629 687.169 732.629 689.76V747.441H724.584ZM773.51 748.532C768.465 748.532 764.113 747.419 760.454 745.191C756.817 742.941 754.01 739.805 752.033 735.782C750.079 731.737 749.101 727.032 749.101 721.669C749.101 716.305 750.079 711.578 752.033 707.487C754.01 703.373 756.76 700.169 760.283 697.873C763.829 695.555 767.965 694.396 772.692 694.396C775.419 694.396 778.113 694.85 780.772 695.76C783.431 696.669 785.851 698.146 788.033 700.191C790.215 702.214 791.954 704.896 793.249 708.237C794.544 711.578 795.192 715.691 795.192 720.578V723.987H754.829V717.032H787.01C787.01 714.078 786.419 711.441 785.238 709.123C784.079 706.805 782.419 704.975 780.26 703.635C778.124 702.294 775.601 701.623 772.692 701.623C769.488 701.623 766.715 702.419 764.374 704.01C762.056 705.578 760.272 707.623 759.022 710.146C757.772 712.669 757.147 715.373 757.147 718.26V722.896C757.147 726.85 757.829 730.203 759.192 732.953C760.579 735.68 762.499 737.76 764.954 739.191C767.408 740.6 770.26 741.305 773.51 741.305C775.624 741.305 777.533 741.01 779.238 740.419C780.965 739.805 782.454 738.896 783.704 737.691C784.954 736.464 785.919 734.941 786.601 733.123L794.374 735.305C793.556 737.941 792.181 740.26 790.249 742.26C788.317 744.237 785.931 745.782 783.09 746.896C780.249 747.987 777.056 748.532 773.51 748.532ZM805.511 747.441V695.078H813.284V702.987H813.829C814.784 700.396 816.511 698.294 819.011 696.68C821.511 695.066 824.329 694.26 827.465 694.26C828.056 694.26 828.795 694.271 829.681 694.294C830.568 694.316 831.238 694.35 831.693 694.396V702.578C831.42 702.51 830.795 702.407 829.818 702.271C828.863 702.112 827.852 702.032 826.784 702.032C824.238 702.032 821.965 702.566 819.965 703.635C817.988 704.68 816.42 706.135 815.261 707.998C814.124 709.839 813.556 711.941 813.556 714.305V747.441H805.511ZM859.67 748.532C854.625 748.532 850.273 747.419 846.614 745.191C842.977 742.941 840.17 739.805 838.193 735.782C836.239 731.737 835.261 727.032 835.261 721.669C835.261 716.305 836.239 711.578 838.193 707.487C840.17 703.373 842.92 700.169 846.443 697.873C849.989 695.555 854.125 694.396 858.852 694.396C861.579 694.396 864.273 694.85 866.932 695.76C869.591 696.669 872.011 698.146 874.193 700.191C876.375 702.214 878.114 704.896 879.409 708.237C880.704 711.578 881.352 715.691 881.352 720.578V723.987H840.989V717.032H873.17C873.17 714.078 872.579 711.441 871.398 709.123C870.239 706.805 868.579 704.975 866.42 703.635C864.284 702.294 861.761 701.623 858.852 701.623C855.648 701.623 852.875 702.419 850.534 704.01C848.216 705.578 846.432 707.623 845.182 710.146C843.932 712.669 843.307 715.373 843.307 718.26V722.896C843.307 726.85 843.989 730.203 845.352 732.953C846.739 735.68 848.659 737.76 851.114 739.191C853.568 740.6 856.42 741.305 859.67 741.305C861.784 741.305 863.693 741.01 865.398 740.419C867.125 739.805 868.614 738.896 869.864 737.691C871.114 736.464 872.079 734.941 872.761 733.123L880.534 735.305C879.716 737.941 878.341 740.26 876.409 742.26C874.477 744.237 872.091 745.782 869.25 746.896C866.409 747.987 863.216 748.532 859.67 748.532ZM899.716 715.941V747.441H891.671V695.078H899.444V703.26H900.125C901.353 700.6 903.216 698.464 905.716 696.85C908.216 695.214 911.444 694.396 915.398 694.396C918.944 694.396 922.046 695.123 924.705 696.578C927.364 698.01 929.432 700.191 930.909 703.123C932.387 706.032 933.125 709.714 933.125 714.169V747.441H925.08V714.714C925.08 710.6 924.012 707.396 921.875 705.1C919.739 702.782 916.807 701.623 913.08 701.623C910.512 701.623 908.216 702.18 906.194 703.294C904.194 704.407 902.614 706.032 901.455 708.169C900.296 710.305 899.716 712.896 899.716 715.941ZM967.18 748.532C962.271 748.532 958.043 747.373 954.498 745.055C950.953 742.737 948.225 739.544 946.316 735.475C944.407 731.407 943.453 726.76 943.453 721.532C943.453 716.214 944.43 711.521 946.384 707.453C948.362 703.362 951.112 700.169 954.634 697.873C958.18 695.555 962.316 694.396 967.043 694.396C970.725 694.396 974.043 695.078 976.998 696.441C979.953 697.805 982.373 699.714 984.259 702.169C986.146 704.623 987.316 707.487 987.771 710.76H979.725C979.112 708.373 977.748 706.26 975.634 704.419C973.543 702.555 970.725 701.623 967.18 701.623C964.043 701.623 961.293 702.441 958.93 704.078C956.589 705.691 954.759 707.975 953.441 710.93C952.146 713.862 951.498 717.305 951.498 721.26C951.498 725.305 952.134 728.828 953.407 731.828C954.703 734.828 956.521 737.157 958.862 738.816C961.225 740.475 963.998 741.305 967.18 741.305C969.271 741.305 971.168 740.941 972.873 740.214C974.578 739.487 976.021 738.441 977.203 737.078C978.384 735.714 979.225 734.078 979.725 732.169H987.771C987.316 735.26 986.191 738.044 984.396 740.521C982.623 742.975 980.271 744.93 977.339 746.385C974.43 747.816 971.043 748.532 967.18 748.532ZM1019.57 748.532C1014.52 748.532 1010.17 747.419 1006.51 745.191C1002.87 742.941 1000.07 739.805 998.089 735.782C996.135 731.737 995.158 727.032 995.158 721.669C995.158 716.305 996.135 711.578 998.089 707.487C1000.07 703.373 1002.82 700.169 1006.34 697.873C1009.88 695.555 1014.02 694.396 1018.75 694.396C1021.48 694.396 1024.17 694.85 1026.83 695.76C1029.49 696.669 1031.91 698.146 1034.09 700.191C1036.27 702.214 1038.01 704.896 1039.31 708.237C1040.6 711.578 1041.25 715.691 1041.25 720.578V723.987H1000.88V717.032H1033.07C1033.07 714.078 1032.48 711.441 1031.29 709.123C1030.13 706.805 1028.48 704.975 1026.32 703.635C1024.18 702.294 1021.66 701.623 1018.75 701.623C1015.54 701.623 1012.77 702.419 1010.43 704.01C1008.11 705.578 1006.33 707.623 1005.08 710.146C1003.83 712.669 1003.2 715.373 1003.2 718.26V722.896C1003.2 726.85 1003.88 730.203 1005.25 732.953C1006.63 735.68 1008.56 737.76 1011.01 739.191C1013.46 740.6 1016.32 741.305 1019.57 741.305C1021.68 741.305 1023.59 741.01 1025.29 740.419C1027.02 739.805 1028.51 738.896 1029.76 737.691C1031.01 736.464 1031.98 734.941 1032.66 733.123L1040.43 735.305C1039.61 737.941 1038.24 740.26 1036.31 742.26C1034.37 744.237 1031.99 745.782 1029.15 746.896C1026.31 747.987 1023.11 748.532 1019.57 748.532ZM1062.07 727.805V727.396C1062.11 723.055 1062.57 719.6 1063.43 717.032C1064.29 714.464 1065.52 712.385 1067.11 710.794C1068.7 709.203 1070.61 707.737 1072.84 706.396C1074.18 705.578 1075.39 704.612 1076.45 703.498C1077.52 702.362 1078.36 701.055 1078.98 699.578C1079.61 698.1 1079.93 696.464 1079.93 694.669C1079.93 692.441 1079.41 690.51 1078.36 688.873C1077.32 687.237 1075.92 685.975 1074.17 685.089C1072.42 684.203 1070.48 683.76 1068.34 683.76C1066.48 683.76 1064.68 684.146 1062.95 684.919C1061.23 685.691 1059.78 686.907 1058.62 688.566C1057.46 690.225 1056.79 692.396 1056.61 695.078H1048.02C1048.2 691.214 1049.2 687.907 1051.02 685.157C1052.86 682.407 1055.28 680.305 1058.28 678.85C1061.31 677.396 1064.66 676.669 1068.34 676.669C1072.34 676.669 1075.82 677.464 1078.77 679.055C1081.75 680.646 1084.04 682.828 1085.66 685.6C1087.29 688.373 1088.11 691.532 1088.11 695.078C1088.11 697.578 1087.73 699.839 1086.95 701.862C1086.2 703.885 1085.11 705.691 1083.68 707.282C1082.27 708.873 1080.57 710.282 1078.57 711.51C1076.57 712.76 1074.96 714.078 1073.76 715.464C1072.56 716.828 1071.68 718.453 1071.14 720.339C1070.59 722.225 1070.29 724.578 1070.25 727.396V727.805H1062.07ZM1066.43 747.987C1064.75 747.987 1063.31 747.385 1062.1 746.18C1060.9 744.975 1060.29 743.532 1060.29 741.85C1060.29 740.169 1060.9 738.725 1062.1 737.521C1063.31 736.316 1064.75 735.714 1066.43 735.714C1068.11 735.714 1069.56 736.316 1070.76 737.521C1071.96 738.725 1072.57 740.169 1072.57 741.85C1072.57 742.964 1072.28 743.987 1071.71 744.919C1071.17 745.85 1070.43 746.6 1069.5 747.169C1068.59 747.714 1067.57 747.987 1066.43 747.987Z" fill="white"/>
<path d="M88.9714 928.381V936.256H86.96V923.165H88.9032V925.21H89.0737C89.3805 924.546 89.8464 924.012 90.4714 923.608C91.0964 923.199 91.9032 922.994 92.8919 922.994C93.7782 922.994 94.5538 923.176 95.2186 923.54C95.8833 923.898 96.4004 924.443 96.7697 925.176C97.139 925.904 97.3237 926.824 97.3237 927.938V936.256H95.3123V928.074C95.3123 927.046 95.0453 926.244 94.5112 925.671C93.9771 925.091 93.2441 924.801 92.3123 924.801C91.6703 924.801 91.0964 924.941 90.5907 925.219C90.0907 925.497 89.6958 925.904 89.4061 926.438C89.1163 926.972 88.9714 927.619 88.9714 928.381ZM106.008 936.529C104.746 936.529 103.658 936.25 102.744 935.693C101.834 935.131 101.133 934.347 100.638 933.341C100.15 932.33 99.9055 931.154 99.9055 929.813C99.9055 928.472 100.15 927.29 100.638 926.267C101.133 925.239 101.82 924.438 102.701 923.864C103.587 923.284 104.621 922.994 105.803 922.994C106.485 922.994 107.158 923.108 107.823 923.335C108.488 923.563 109.093 923.932 109.638 924.443C110.184 924.949 110.619 925.619 110.942 926.455C111.266 927.29 111.428 928.318 111.428 929.54V930.392H101.337V928.654H109.383C109.383 927.915 109.235 927.256 108.94 926.676C108.65 926.097 108.235 925.639 107.695 925.304C107.161 924.969 106.53 924.801 105.803 924.801C105.002 924.801 104.309 925 103.724 925.398C103.144 925.79 102.698 926.301 102.386 926.932C102.073 927.563 101.917 928.239 101.917 928.96V930.119C101.917 931.108 102.087 931.946 102.428 932.634C102.775 933.316 103.255 933.835 103.869 934.193C104.482 934.546 105.195 934.722 106.008 934.722C106.536 934.722 107.013 934.648 107.44 934.5C107.871 934.347 108.244 934.119 108.556 933.818C108.869 933.512 109.11 933.131 109.28 932.676L111.224 933.222C111.019 933.881 110.675 934.46 110.192 934.96C109.709 935.455 109.113 935.841 108.403 936.119C107.692 936.392 106.894 936.529 106.008 936.529ZM119.326 936.529C118.144 936.529 117.107 936.247 116.215 935.685C115.329 935.122 114.636 934.335 114.136 933.324C113.641 932.313 113.394 931.131 113.394 929.779C113.394 928.415 113.641 927.225 114.136 926.208C114.636 925.191 115.329 924.401 116.215 923.838C117.107 923.276 118.144 922.994 119.326 922.994C120.508 922.994 121.542 923.276 122.428 923.838C123.32 924.401 124.014 925.191 124.508 926.208C125.008 927.225 125.258 928.415 125.258 929.779C125.258 931.131 125.008 932.313 124.508 933.324C124.014 934.335 123.32 935.122 122.428 935.685C121.542 936.247 120.508 936.529 119.326 936.529ZM119.326 934.722C120.224 934.722 120.962 934.492 121.542 934.031C122.121 933.571 122.55 932.966 122.829 932.216C123.107 931.466 123.247 930.654 123.247 929.779C123.247 928.904 123.107 928.088 122.829 927.333C122.55 926.577 122.121 925.966 121.542 925.5C120.962 925.034 120.224 924.801 119.326 924.801C118.428 924.801 117.69 925.034 117.11 925.5C116.531 925.966 116.102 926.577 115.823 927.333C115.545 928.088 115.406 928.904 115.406 929.779C115.406 930.654 115.545 931.466 115.823 932.216C116.102 932.966 116.531 933.571 117.11 934.031C117.69 934.492 118.428 934.722 119.326 934.722ZM137.121 926.097L135.314 926.608C135.2 926.307 135.033 926.014 134.811 925.73C134.595 925.441 134.3 925.202 133.925 925.014C133.55 924.827 133.07 924.733 132.485 924.733C131.683 924.733 131.016 924.918 130.482 925.287C129.953 925.651 129.689 926.114 129.689 926.676C129.689 927.176 129.871 927.571 130.235 927.861C130.598 928.151 131.166 928.392 131.939 928.585L133.882 929.063C135.053 929.347 135.925 929.781 136.499 930.367C137.073 930.946 137.36 931.693 137.36 932.608C137.36 933.358 137.144 934.029 136.712 934.619C136.286 935.21 135.689 935.676 134.922 936.017C134.155 936.358 133.263 936.529 132.246 936.529C130.911 936.529 129.806 936.239 128.931 935.659C128.056 935.08 127.502 934.233 127.269 933.119L129.178 932.642C129.36 933.347 129.703 933.875 130.209 934.227C130.72 934.58 131.388 934.756 132.212 934.756C133.149 934.756 133.894 934.557 134.445 934.159C135.002 933.756 135.28 933.273 135.28 932.71C135.28 932.256 135.121 931.875 134.803 931.568C134.485 931.256 133.996 931.023 133.337 930.869L131.155 930.358C129.956 930.074 129.075 929.634 128.513 929.037C127.956 928.435 127.678 927.682 127.678 926.779C127.678 926.04 127.885 925.387 128.3 924.818C128.72 924.25 129.291 923.804 130.013 923.48C130.74 923.156 131.564 922.994 132.485 922.994C133.78 922.994 134.797 923.279 135.536 923.847C136.28 924.415 136.808 925.165 137.121 926.097ZM141.203 941.165C140.862 941.165 140.558 941.137 140.291 941.08C140.024 941.029 139.839 940.977 139.737 940.926L140.248 939.154C140.737 939.279 141.169 939.324 141.544 939.29C141.919 939.256 142.251 939.088 142.541 938.787C142.836 938.492 143.106 938.012 143.35 937.347L143.725 936.324L138.885 923.165H141.066L144.68 933.597H144.816L148.43 923.165H150.612L145.055 938.165C144.805 938.841 144.495 939.401 144.126 939.844C143.757 940.293 143.328 940.625 142.839 940.841C142.356 941.057 141.811 941.165 141.203 941.165ZM154.798 928.381V936.256H152.787V923.165H154.73V925.21H154.9C155.207 924.546 155.673 924.012 156.298 923.608C156.923 923.199 157.73 922.994 158.718 922.994C159.605 922.994 160.38 923.176 161.045 923.54C161.71 923.898 162.227 924.443 162.596 925.176C162.966 925.904 163.15 926.824 163.15 927.938V936.256H161.139V928.074C161.139 927.046 160.872 926.244 160.338 925.671C159.804 925.091 159.071 924.801 158.139 924.801C157.497 924.801 156.923 924.941 156.417 925.219C155.917 925.497 155.522 925.904 155.233 926.438C154.943 926.972 154.798 927.619 154.798 928.381ZM171.664 936.529C170.437 936.529 169.38 936.239 168.493 935.659C167.607 935.08 166.925 934.281 166.448 933.264C165.971 932.247 165.732 931.085 165.732 929.779C165.732 928.449 165.976 927.276 166.465 926.259C166.959 925.236 167.647 924.438 168.527 923.864C169.414 923.284 170.448 922.994 171.63 922.994C172.55 922.994 173.38 923.165 174.118 923.506C174.857 923.847 175.462 924.324 175.934 924.938C176.405 925.551 176.698 926.267 176.812 927.085H174.8C174.647 926.489 174.306 925.96 173.777 925.5C173.255 925.034 172.55 924.801 171.664 924.801C170.88 924.801 170.192 925.006 169.601 925.415C169.016 925.818 168.559 926.389 168.229 927.128C167.905 927.861 167.743 928.722 167.743 929.71C167.743 930.722 167.902 931.602 168.221 932.352C168.545 933.102 168.999 933.685 169.584 934.1C170.175 934.514 170.868 934.722 171.664 934.722C172.187 934.722 172.661 934.631 173.087 934.449C173.513 934.267 173.874 934.006 174.17 933.665C174.465 933.324 174.675 932.915 174.8 932.438H176.812C176.698 933.21 176.417 933.906 175.968 934.526C175.525 935.139 174.937 935.628 174.204 935.992C173.476 936.35 172.63 936.529 171.664 936.529ZM180.738 936.392C180.317 936.392 179.957 936.242 179.655 935.941C179.354 935.639 179.204 935.279 179.204 934.858C179.204 934.438 179.354 934.077 179.655 933.776C179.957 933.475 180.317 933.324 180.738 933.324C181.158 933.324 181.519 933.475 181.82 933.776C182.121 934.077 182.272 934.438 182.272 934.858C182.272 935.137 182.201 935.392 182.059 935.625C181.922 935.858 181.738 936.046 181.505 936.188C181.278 936.324 181.022 936.392 180.738 936.392ZM190.344 936.529C189.254 936.529 188.291 936.253 187.455 935.702C186.62 935.145 185.967 934.361 185.495 933.35C185.023 932.333 184.788 931.131 184.788 929.744C184.788 928.369 185.023 927.176 185.495 926.165C185.967 925.154 186.623 924.372 187.464 923.821C188.305 923.27 189.276 922.994 190.379 922.994C191.231 922.994 191.904 923.137 192.398 923.421C192.898 923.699 193.279 924.017 193.541 924.375C193.808 924.727 194.015 925.017 194.163 925.244H194.333V918.801H196.344V936.256H194.401V934.244H194.163C194.015 934.483 193.805 934.784 193.532 935.148C193.259 935.506 192.87 935.827 192.364 936.111C191.859 936.389 191.185 936.529 190.344 936.529ZM190.617 934.722C191.424 934.722 192.106 934.512 192.663 934.091C193.219 933.665 193.643 933.077 193.933 932.327C194.222 931.571 194.367 930.699 194.367 929.71C194.367 928.733 194.225 927.878 193.941 927.145C193.657 926.406 193.237 925.833 192.68 925.423C192.123 925.009 191.435 924.801 190.617 924.801C189.765 924.801 189.055 925.02 188.487 925.458C187.924 925.889 187.501 926.477 187.217 927.222C186.938 927.96 186.799 928.79 186.799 929.71C186.799 930.642 186.941 931.489 187.225 932.25C187.515 933.006 187.941 933.608 188.504 934.057C189.072 934.5 189.776 934.722 190.617 934.722ZM205.316 936.529C204.055 936.529 202.967 936.25 202.052 935.693C201.143 935.131 200.441 934.347 199.947 933.341C199.458 932.33 199.214 931.154 199.214 929.813C199.214 928.472 199.458 927.29 199.947 926.267C200.441 925.239 201.129 924.438 202.009 923.864C202.896 923.284 203.93 922.994 205.112 922.994C205.793 922.994 206.467 923.108 207.132 923.335C207.796 923.563 208.401 923.932 208.947 924.443C209.492 924.949 209.927 925.619 210.251 926.455C210.575 927.29 210.737 928.318 210.737 929.54V930.392H200.646V928.654H208.691C208.691 927.915 208.543 927.256 208.248 926.676C207.958 926.097 207.543 925.639 207.004 925.304C206.47 924.969 205.839 924.801 205.112 924.801C204.311 924.801 203.617 925 203.032 925.398C202.453 925.79 202.007 926.301 201.694 926.932C201.382 927.563 201.225 928.239 201.225 928.96V930.119C201.225 931.108 201.396 931.946 201.737 932.634C202.083 933.316 202.563 933.835 203.177 934.193C203.791 934.546 204.504 934.722 205.316 934.722C205.845 934.722 206.322 934.648 206.748 934.5C207.18 934.347 207.552 934.119 207.864 933.818C208.177 933.512 208.418 933.131 208.589 932.676L210.532 933.222C210.328 933.881 209.984 934.46 209.501 934.96C209.018 935.455 208.421 935.841 207.711 936.119C207.001 936.392 206.203 936.529 205.316 936.529ZM223.622 923.165L218.781 936.256H216.736L211.895 923.165H214.077L217.691 933.597H217.827L221.441 923.165H223.622Z" fill="#777777"/>
<path d="M1333.12 945.182C1332.15 945.182 1331.32 945.057 1330.62 944.807C1329.92 944.562 1329.34 944.239 1328.87 943.835C1328.41 943.438 1328.05 943.011 1327.77 942.557L1329.38 941.432C1329.56 941.67 1329.79 941.943 1330.07 942.25C1330.34 942.562 1330.72 942.832 1331.21 943.06C1331.7 943.293 1332.34 943.409 1333.12 943.409C1334.18 943.409 1335.05 943.153 1335.74 942.642C1336.43 942.131 1336.77 941.33 1336.77 940.239V937.58H1336.6C1336.45 937.818 1336.24 938.114 1335.97 938.466C1335.7 938.812 1335.32 939.122 1334.81 939.395C1334.31 939.662 1333.64 939.795 1332.78 939.795C1331.73 939.795 1330.78 939.545 1329.94 939.045C1329.1 938.545 1328.44 937.818 1327.95 936.864C1327.47 935.909 1327.23 934.75 1327.23 933.386C1327.23 932.045 1327.46 930.878 1327.93 929.884C1328.41 928.884 1329.06 928.111 1329.9 927.565C1330.74 927.014 1331.72 926.739 1332.82 926.739C1333.67 926.739 1334.35 926.881 1334.85 927.165C1335.35 927.443 1335.74 927.761 1336.01 928.119C1336.28 928.472 1336.49 928.761 1336.64 928.989H1336.84V926.909H1338.78V940.375C1338.78 941.5 1338.53 942.415 1338.02 943.119C1337.51 943.83 1336.83 944.349 1335.97 944.679C1335.12 945.014 1334.17 945.182 1333.12 945.182ZM1333.06 937.989C1333.86 937.989 1334.55 937.804 1335.1 937.435C1335.66 937.065 1336.08 936.534 1336.37 935.841C1336.66 935.148 1336.81 934.318 1336.81 933.352C1336.81 932.409 1336.66 931.577 1336.38 930.855C1336.1 930.134 1335.68 929.568 1335.12 929.159C1334.56 928.75 1333.88 928.545 1333.06 928.545C1332.2 928.545 1331.49 928.761 1330.93 929.193C1330.36 929.625 1329.94 930.205 1329.66 930.932C1329.38 931.659 1329.24 932.466 1329.24 933.352C1329.24 934.261 1329.38 935.065 1329.66 935.764C1329.95 936.457 1330.38 937.003 1330.94 937.401C1331.51 937.793 1332.22 937.989 1333.06 937.989ZM1341.99 940V926.909H1344V940H1341.99ZM1343.01 924.727C1342.62 924.727 1342.28 924.594 1341.99 924.327C1341.72 924.06 1341.58 923.739 1341.58 923.364C1341.58 922.989 1341.72 922.668 1341.99 922.401C1342.28 922.134 1342.62 922 1343.01 922C1343.4 922 1343.74 922.134 1344.01 922.401C1344.3 922.668 1344.44 922.989 1344.44 923.364C1344.44 923.739 1344.3 924.06 1344.01 924.327C1343.74 924.594 1343.4 924.727 1343.01 924.727ZM1352.89 926.909V928.614H1346.11V926.909H1352.89ZM1348.09 923.773H1350.1V936.25C1350.1 936.818 1350.18 937.244 1350.35 937.528C1350.52 937.807 1350.73 937.994 1350.99 938.091C1351.26 938.182 1351.54 938.227 1351.84 938.227C1352.06 938.227 1352.24 938.216 1352.38 938.193C1352.53 938.165 1352.64 938.142 1352.72 938.125L1353.13 939.932C1353 939.983 1352.81 940.034 1352.56 940.085C1352.32 940.142 1352.01 940.17 1351.63 940.17C1351.06 940.17 1350.51 940.048 1349.96 939.804C1349.42 939.56 1348.97 939.188 1348.62 938.688C1348.26 938.188 1348.09 937.557 1348.09 936.795V923.773ZM1357.73 932.125V940H1355.72V922.545H1357.73V928.955H1357.9C1358.21 928.278 1358.67 927.741 1359.28 927.344C1359.9 926.94 1360.73 926.739 1361.76 926.739C1362.65 926.739 1363.43 926.918 1364.1 927.276C1364.77 927.628 1365.29 928.17 1365.66 928.903C1366.03 929.631 1366.22 930.557 1366.22 931.682V940H1364.21V931.818C1364.21 930.778 1363.94 929.974 1363.4 929.406C1362.87 928.832 1362.12 928.545 1361.18 928.545C1360.52 928.545 1359.93 928.685 1359.4 928.963C1358.89 929.241 1358.48 929.648 1358.18 930.182C1357.88 930.716 1357.73 931.364 1357.73 932.125ZM1377.67 934.648V926.909H1379.68V940H1377.67V937.784H1377.53C1377.23 938.449 1376.75 939.014 1376.1 939.48C1375.46 939.94 1374.64 940.17 1373.65 940.17C1372.83 940.17 1372.1 939.991 1371.47 939.634C1370.83 939.27 1370.33 938.724 1369.97 937.997C1369.6 937.264 1369.42 936.341 1369.42 935.227V926.909H1371.43V935.091C1371.43 936.045 1371.7 936.807 1372.23 937.375C1372.77 937.943 1373.46 938.227 1374.3 938.227C1374.8 938.227 1375.3 938.099 1375.82 937.844C1376.34 937.588 1376.78 937.196 1377.13 936.668C1377.49 936.139 1377.67 935.466 1377.67 934.648ZM1383.16 940V922.545H1385.17V928.989H1385.34C1385.49 928.761 1385.69 928.472 1385.95 928.119C1386.22 927.761 1386.6 927.443 1387.1 927.165C1387.6 926.881 1388.27 926.739 1389.12 926.739C1390.23 926.739 1391.2 927.014 1392.04 927.565C1392.88 928.116 1393.54 928.898 1394.01 929.909C1394.48 930.92 1394.72 932.114 1394.72 933.489C1394.72 934.875 1394.48 936.077 1394.01 937.094C1393.54 938.105 1392.88 938.889 1392.05 939.446C1391.21 939.997 1390.25 940.273 1389.16 940.273C1388.32 940.273 1387.64 940.134 1387.14 939.855C1386.63 939.571 1386.24 939.25 1385.97 938.892C1385.7 938.528 1385.49 938.227 1385.34 937.989H1385.1V940H1383.16ZM1385.14 933.455C1385.14 934.443 1385.28 935.315 1385.57 936.071C1385.86 936.821 1386.28 937.409 1386.84 937.835C1387.4 938.256 1388.08 938.466 1388.89 938.466C1389.73 938.466 1390.43 938.244 1390.99 937.801C1391.56 937.352 1391.99 936.75 1392.27 935.994C1392.56 935.233 1392.7 934.386 1392.7 933.455C1392.7 932.534 1392.56 931.705 1392.28 930.966C1392 930.222 1391.58 929.634 1391.01 929.202C1390.45 928.764 1389.74 928.545 1388.89 928.545C1388.07 928.545 1387.38 928.753 1386.82 929.168C1386.27 929.577 1385.85 930.151 1385.56 930.889C1385.28 931.622 1385.14 932.477 1385.14 933.455ZM1398.78 940.136C1398.36 940.136 1398 939.986 1397.7 939.685C1397.39 939.384 1397.24 939.023 1397.24 938.602C1397.24 938.182 1397.39 937.821 1397.7 937.52C1398 937.219 1398.36 937.068 1398.78 937.068C1399.2 937.068 1399.56 937.219 1399.86 937.52C1400.16 937.821 1400.31 938.182 1400.31 938.602C1400.31 938.881 1400.24 939.136 1400.1 939.369C1399.96 939.602 1399.78 939.79 1399.55 939.932C1399.32 940.068 1399.06 940.136 1398.78 940.136ZM1408.76 940.273C1407.53 940.273 1406.48 939.983 1405.59 939.403C1404.7 938.824 1404.02 938.026 1403.54 937.009C1403.07 935.991 1402.83 934.83 1402.83 933.523C1402.83 932.193 1403.07 931.02 1403.56 930.003C1404.06 928.98 1404.74 928.182 1405.62 927.608C1406.51 927.028 1407.54 926.739 1408.73 926.739C1409.65 926.739 1410.48 926.909 1411.21 927.25C1411.95 927.591 1412.56 928.068 1413.03 928.682C1413.5 929.295 1413.79 930.011 1413.91 930.83H1411.9C1411.74 930.233 1411.4 929.705 1410.87 929.244C1410.35 928.778 1409.65 928.545 1408.76 928.545C1407.98 928.545 1407.29 928.75 1406.7 929.159C1406.11 929.562 1405.65 930.134 1405.33 930.872C1405 931.605 1404.84 932.466 1404.84 933.455C1404.84 934.466 1405 935.347 1405.32 936.097C1405.64 936.847 1406.1 937.429 1406.68 937.844C1407.27 938.259 1407.96 938.466 1408.76 938.466C1409.28 938.466 1409.76 938.375 1410.18 938.193C1410.61 938.011 1410.97 937.75 1411.27 937.409C1411.56 937.068 1411.77 936.659 1411.9 936.182H1413.91C1413.79 936.955 1413.51 937.651 1413.06 938.27C1412.62 938.884 1412.03 939.372 1411.3 939.736C1410.57 940.094 1409.73 940.273 1408.76 940.273ZM1421.69 940.273C1420.5 940.273 1419.47 939.991 1418.58 939.429C1417.69 938.866 1417 938.08 1416.5 937.068C1416 936.057 1415.75 934.875 1415.75 933.523C1415.75 932.159 1416 930.969 1416.5 929.952C1417 928.935 1417.69 928.145 1418.58 927.582C1419.47 927.02 1420.5 926.739 1421.69 926.739C1422.87 926.739 1423.9 927.02 1424.79 927.582C1425.68 928.145 1426.37 928.935 1426.87 929.952C1427.37 930.969 1427.62 932.159 1427.62 933.523C1427.62 934.875 1427.37 936.057 1426.87 937.068C1426.37 938.08 1425.68 938.866 1424.79 939.429C1423.9 939.991 1422.87 940.273 1421.69 940.273ZM1421.69 938.466C1422.58 938.466 1423.32 938.236 1423.9 937.776C1424.48 937.315 1424.91 936.71 1425.19 935.96C1425.47 935.21 1425.61 934.398 1425.61 933.523C1425.61 932.648 1425.47 931.832 1425.19 931.077C1424.91 930.321 1424.48 929.71 1423.9 929.244C1423.32 928.778 1422.58 928.545 1421.69 928.545C1420.79 928.545 1420.05 928.778 1419.47 929.244C1418.89 929.71 1418.46 930.321 1418.18 931.077C1417.91 931.832 1417.77 932.648 1417.77 933.523C1417.77 934.398 1417.91 935.21 1418.18 935.96C1418.46 936.71 1418.89 937.315 1419.47 937.776C1420.05 938.236 1420.79 938.466 1421.69 938.466ZM1430.21 940V926.909H1432.15V928.955H1432.32C1432.59 928.256 1433.04 927.713 1433.64 927.327C1434.25 926.935 1434.98 926.739 1435.83 926.739C1436.7 926.739 1437.42 926.935 1437.99 927.327C1438.57 927.713 1439.02 928.256 1439.34 928.955H1439.48C1439.82 928.278 1440.32 927.741 1440.99 927.344C1441.66 926.94 1442.46 926.739 1443.4 926.739C1444.57 926.739 1445.53 927.105 1446.27 927.838C1447.02 928.565 1447.39 929.699 1447.39 931.239V940H1445.38V931.239C1445.38 930.273 1445.11 929.582 1444.59 929.168C1444.06 928.753 1443.44 928.545 1442.72 928.545C1441.8 928.545 1441.09 928.824 1440.58 929.381C1440.07 929.932 1439.82 930.631 1439.82 931.477V940H1437.78V931.034C1437.78 930.29 1437.54 929.69 1437.05 929.236C1436.57 928.776 1435.95 928.545 1435.19 928.545C1434.66 928.545 1434.17 928.685 1433.72 928.963C1433.27 929.241 1432.91 929.628 1432.63 930.122C1432.36 930.611 1432.22 931.176 1432.22 931.818V940H1430.21ZM1456.76 921.727L1451.13 942.625H1449.29L1454.92 921.727H1456.76ZM1460.67 932.125V940H1458.66V926.909H1460.61V928.955H1460.78C1461.08 928.29 1461.55 927.756 1462.17 927.352C1462.8 926.943 1463.61 926.739 1464.59 926.739C1465.48 926.739 1466.26 926.92 1466.92 927.284C1467.59 927.642 1468.1 928.188 1468.47 928.92C1468.84 929.648 1469.03 930.568 1469.03 931.682V940H1467.01V931.818C1467.01 930.79 1466.75 929.989 1466.21 929.415C1465.68 928.835 1464.95 928.545 1464.01 928.545C1463.37 928.545 1462.8 928.685 1462.29 928.963C1461.79 929.241 1461.4 929.648 1461.11 930.182C1460.82 930.716 1460.67 931.364 1460.67 932.125ZM1480.47 934.648V926.909H1482.48V940H1480.47V937.784H1480.34C1480.03 938.449 1479.55 939.014 1478.9 939.48C1478.26 939.94 1477.44 940.17 1476.45 940.17C1475.63 940.17 1474.9 939.991 1474.27 939.634C1473.63 939.27 1473.13 938.724 1472.77 937.997C1472.4 937.264 1472.22 936.341 1472.22 935.227V926.909H1474.23V935.091C1474.23 936.045 1474.5 936.807 1475.03 937.375C1475.57 937.943 1476.26 938.227 1477.1 938.227C1477.6 938.227 1478.11 938.099 1478.62 937.844C1479.14 937.588 1479.58 937.196 1479.93 936.668C1480.29 936.139 1480.47 935.466 1480.47 934.648ZM1491.01 940.273C1489.78 940.273 1488.72 939.983 1487.83 939.403C1486.95 938.824 1486.27 938.026 1485.79 937.009C1485.31 935.991 1485.07 934.83 1485.07 933.523C1485.07 932.193 1485.32 931.02 1485.81 930.003C1486.3 928.98 1486.99 928.182 1487.87 927.608C1488.76 927.028 1489.79 926.739 1490.97 926.739C1491.89 926.739 1492.72 926.909 1493.46 927.25C1494.2 927.591 1494.8 928.068 1495.27 928.682C1495.75 929.295 1496.04 930.011 1496.15 930.83H1494.14C1493.99 930.233 1493.65 929.705 1493.12 929.244C1492.6 928.778 1491.89 928.545 1491.01 928.545C1490.22 928.545 1489.53 928.75 1488.94 929.159C1488.36 929.562 1487.9 930.134 1487.57 930.872C1487.25 931.605 1487.08 932.466 1487.08 933.455C1487.08 934.466 1487.24 935.347 1487.56 936.097C1487.89 936.847 1488.34 937.429 1488.93 937.844C1489.52 938.259 1490.21 938.466 1491.01 938.466C1491.53 938.466 1492 938.375 1492.43 938.193C1492.85 938.011 1493.22 937.75 1493.51 937.409C1493.81 937.068 1494.02 936.659 1494.14 936.182H1496.15C1496.04 936.955 1495.76 937.651 1495.31 938.27C1494.87 938.884 1494.28 939.372 1493.54 939.736C1492.82 940.094 1491.97 940.273 1491.01 940.273ZM1500.62 922.545V940H1498.61V922.545H1500.62ZM1509.32 940.273C1508.06 940.273 1506.97 939.994 1506.05 939.438C1505.14 938.875 1504.44 938.091 1503.95 937.085C1503.46 936.074 1503.21 934.898 1503.21 933.557C1503.21 932.216 1503.46 931.034 1503.95 930.011C1504.44 928.983 1505.13 928.182 1506.01 927.608C1506.9 927.028 1507.93 926.739 1509.11 926.739C1509.79 926.739 1510.47 926.852 1511.13 927.08C1511.8 927.307 1512.4 927.676 1512.95 928.188C1513.49 928.693 1513.93 929.364 1514.25 930.199C1514.58 931.034 1514.74 932.062 1514.74 933.284V934.136H1504.65V932.398H1512.69C1512.69 931.659 1512.54 931 1512.25 930.42C1511.96 929.841 1511.54 929.384 1511 929.048C1510.47 928.713 1509.84 928.545 1509.11 928.545C1508.31 928.545 1507.62 928.744 1507.03 929.142C1506.45 929.534 1506.01 930.045 1505.69 930.676C1505.38 931.307 1505.23 931.983 1505.23 932.705V933.864C1505.23 934.852 1505.4 935.69 1505.74 936.378C1506.08 937.06 1506.56 937.58 1507.18 937.938C1507.79 938.29 1508.5 938.466 1509.32 938.466C1509.85 938.466 1510.32 938.392 1510.75 938.244C1511.18 938.091 1511.55 937.864 1511.87 937.562C1512.18 937.256 1512.42 936.875 1512.59 936.42L1514.53 936.966C1514.33 937.625 1513.98 938.205 1513.5 938.705C1513.02 939.199 1512.42 939.585 1511.71 939.864C1511 940.136 1510.2 940.273 1509.32 940.273ZM1525.57 934.648V926.909H1527.58V940H1525.57V937.784H1525.43C1525.12 938.449 1524.65 939.014 1524 939.48C1523.35 939.94 1522.53 940.17 1521.54 940.17C1520.73 940.17 1520 939.991 1519.36 939.634C1518.73 939.27 1518.23 938.724 1517.86 937.997C1517.5 937.264 1517.32 936.341 1517.32 935.227V926.909H1519.33V935.091C1519.33 936.045 1519.6 936.807 1520.13 937.375C1520.67 937.943 1521.36 938.227 1522.19 938.227C1522.69 938.227 1523.2 938.099 1523.72 937.844C1524.24 937.588 1524.68 937.196 1525.03 936.668C1525.39 936.139 1525.57 935.466 1525.57 934.648ZM1540.06 929.841L1538.25 930.352C1538.13 930.051 1537.97 929.759 1537.75 929.474C1537.53 929.185 1537.23 928.946 1536.86 928.759C1536.48 928.571 1536 928.477 1535.42 928.477C1534.62 928.477 1533.95 928.662 1533.42 929.031C1532.89 929.395 1532.62 929.858 1532.62 930.42C1532.62 930.92 1532.81 931.315 1533.17 931.605C1533.53 931.895 1534.1 932.136 1534.87 932.33L1536.82 932.807C1537.99 933.091 1538.86 933.526 1539.43 934.111C1540.01 934.69 1540.29 935.437 1540.29 936.352C1540.29 937.102 1540.08 937.773 1539.65 938.364C1539.22 938.955 1538.62 939.42 1537.86 939.761C1537.09 940.102 1536.2 940.273 1535.18 940.273C1533.84 940.273 1532.74 939.983 1531.86 939.403C1530.99 938.824 1530.44 937.977 1530.2 936.864L1532.11 936.386C1532.29 937.091 1532.64 937.619 1533.14 937.972C1533.65 938.324 1534.32 938.5 1535.15 938.5C1536.08 938.5 1536.83 938.301 1537.38 937.903C1537.94 937.5 1538.21 937.017 1538.21 936.455C1538.21 936 1538.06 935.619 1537.74 935.312C1537.42 935 1536.93 934.767 1536.27 934.614L1534.09 934.102C1532.89 933.818 1532.01 933.378 1531.45 932.781C1530.89 932.179 1530.61 931.426 1530.61 930.523C1530.61 929.784 1530.82 929.131 1531.23 928.562C1531.65 927.994 1532.23 927.548 1532.95 927.224C1533.67 926.901 1534.5 926.739 1535.42 926.739C1536.71 926.739 1537.73 927.023 1538.47 927.591C1539.21 928.159 1539.74 928.909 1540.06 929.841ZM1548.16 940.273C1546.93 940.273 1545.88 939.983 1544.99 939.403C1544.1 938.824 1543.42 938.026 1542.94 937.009C1542.47 935.991 1542.23 934.83 1542.23 933.523C1542.23 932.193 1542.47 931.02 1542.96 930.003C1543.46 928.98 1544.14 928.182 1545.02 927.608C1545.91 927.028 1546.94 926.739 1548.13 926.739C1549.05 926.739 1549.88 926.909 1550.61 927.25C1551.35 927.591 1551.96 928.068 1552.43 928.682C1552.9 929.295 1553.19 930.011 1553.31 930.83H1551.3C1551.14 930.233 1550.8 929.705 1550.27 929.244C1549.75 928.778 1549.05 928.545 1548.16 928.545C1547.38 928.545 1546.69 928.75 1546.1 929.159C1545.51 929.562 1545.05 930.134 1544.73 930.872C1544.4 931.605 1544.24 932.466 1544.24 933.455C1544.24 934.466 1544.4 935.347 1544.72 936.097C1545.04 936.847 1545.49 937.429 1546.08 937.844C1546.67 938.259 1547.36 938.466 1548.16 938.466C1548.68 938.466 1549.16 938.375 1549.58 938.193C1550.01 938.011 1550.37 937.75 1550.67 937.409C1550.96 937.068 1551.17 936.659 1551.3 936.182H1553.31C1553.19 936.955 1552.91 937.651 1552.46 938.27C1552.02 938.884 1551.43 939.372 1550.7 939.736C1549.97 940.094 1549.13 940.273 1548.16 940.273ZM1557.78 922.545V940H1555.77V922.545H1557.78ZM1566.3 940.273C1565.12 940.273 1564.08 939.991 1563.19 939.429C1562.3 938.866 1561.61 938.08 1561.11 937.068C1560.62 936.057 1560.37 934.875 1560.37 933.523C1560.37 932.159 1560.62 930.969 1561.11 929.952C1561.61 928.935 1562.3 928.145 1563.19 927.582C1564.08 927.02 1565.12 926.739 1566.3 926.739C1567.48 926.739 1568.52 927.02 1569.4 927.582C1570.3 928.145 1570.99 928.935 1571.48 929.952C1571.98 930.969 1572.23 932.159 1572.23 933.523C1572.23 934.875 1571.98 936.057 1571.48 937.068C1570.99 938.08 1570.3 938.866 1569.4 939.429C1568.52 939.991 1567.48 940.273 1566.3 940.273ZM1566.3 938.466C1567.2 938.466 1567.94 938.236 1568.52 937.776C1569.1 937.315 1569.53 936.71 1569.8 935.96C1570.08 935.21 1570.22 934.398 1570.22 933.523C1570.22 932.648 1570.08 931.832 1569.8 931.077C1569.53 930.321 1569.1 929.71 1568.52 929.244C1567.94 928.778 1567.2 928.545 1566.3 928.545C1565.4 928.545 1564.66 928.778 1564.09 929.244C1563.51 929.71 1563.08 930.321 1562.8 931.077C1562.52 931.832 1562.38 932.648 1562.38 933.523C1562.38 934.398 1562.52 935.21 1562.8 935.96C1563.08 936.71 1563.51 937.315 1564.09 937.776C1564.66 938.236 1565.4 938.466 1566.3 938.466ZM1583.07 934.648V926.909H1585.08V940H1583.07V937.784H1582.94C1582.63 938.449 1582.15 939.014 1581.51 939.48C1580.86 939.94 1580.04 940.17 1579.05 940.17C1578.23 940.17 1577.51 939.991 1576.87 939.634C1576.23 939.27 1575.73 938.724 1575.37 937.997C1575.01 937.264 1574.82 936.341 1574.82 935.227V926.909H1576.83V935.091C1576.83 936.045 1577.1 936.807 1577.64 937.375C1578.18 937.943 1578.86 938.227 1579.7 938.227C1580.2 938.227 1580.71 938.099 1581.22 937.844C1581.75 937.588 1582.18 937.196 1582.54 936.668C1582.89 936.139 1583.07 935.466 1583.07 934.648ZM1593.23 940.273C1592.14 940.273 1591.18 939.997 1590.34 939.446C1589.51 938.889 1588.85 938.105 1588.38 937.094C1587.91 936.077 1587.68 934.875 1587.68 933.489C1587.68 932.114 1587.91 930.92 1588.38 929.909C1588.85 928.898 1589.51 928.116 1590.35 927.565C1591.19 927.014 1592.16 926.739 1593.27 926.739C1594.12 926.739 1594.79 926.881 1595.29 927.165C1595.79 927.443 1596.17 927.761 1596.43 928.119C1596.69 928.472 1596.9 928.761 1597.05 928.989H1597.22V922.545H1599.23V940H1597.29V937.989H1597.05C1596.9 938.227 1596.69 938.528 1596.42 938.892C1596.15 939.25 1595.76 939.571 1595.25 939.855C1594.75 940.134 1594.07 940.273 1593.23 940.273ZM1593.5 938.466C1594.31 938.466 1594.99 938.256 1595.55 937.835C1596.11 937.409 1596.53 936.821 1596.82 936.071C1597.11 935.315 1597.25 934.443 1597.25 933.455C1597.25 932.477 1597.11 931.622 1596.83 930.889C1596.54 930.151 1596.12 929.577 1595.57 929.168C1595.01 928.753 1594.32 928.545 1593.5 928.545C1592.65 928.545 1591.94 928.764 1591.37 929.202C1590.81 929.634 1590.39 930.222 1590.1 930.966C1589.83 931.705 1589.69 932.534 1589.69 933.455C1589.69 934.386 1589.83 935.233 1590.11 935.994C1590.4 936.75 1590.83 937.352 1591.39 937.801C1591.96 938.244 1592.66 938.466 1593.5 938.466ZM1608.89 921.727L1603.26 942.625H1601.42L1607.04 921.727H1608.89ZM1612.8 932.125V940H1610.79V926.909H1612.73V928.955H1612.9C1613.21 928.29 1613.68 927.756 1614.3 927.352C1614.93 926.943 1615.73 926.739 1616.72 926.739C1617.61 926.739 1618.38 926.92 1619.05 927.284C1619.71 927.642 1620.23 928.188 1620.6 928.92C1620.97 929.648 1621.15 930.568 1621.15 931.682V940H1619.14V931.818C1619.14 930.79 1618.87 929.989 1618.34 929.415C1617.81 928.835 1617.07 928.545 1616.14 928.545C1615.5 928.545 1614.93 928.685 1614.42 928.963C1613.92 929.241 1613.53 929.648 1613.24 930.182C1612.95 930.716 1612.8 931.364 1612.8 932.125ZM1629.84 940.273C1628.58 940.273 1627.49 939.994 1626.57 939.438C1625.66 938.875 1624.96 938.091 1624.47 937.085C1623.98 936.074 1623.74 934.898 1623.74 933.557C1623.74 932.216 1623.98 931.034 1624.47 930.011C1624.96 928.983 1625.65 928.182 1626.53 927.608C1627.42 927.028 1628.45 926.739 1629.63 926.739C1630.31 926.739 1630.99 926.852 1631.65 927.08C1632.32 927.307 1632.92 927.676 1633.47 928.188C1634.01 928.693 1634.45 929.364 1634.77 930.199C1635.1 931.034 1635.26 932.062 1635.26 933.284V934.136H1625.17V932.398H1633.21C1633.21 931.659 1633.06 931 1632.77 930.42C1632.48 929.841 1632.06 929.384 1631.52 929.048C1630.99 928.713 1630.36 928.545 1629.63 928.545C1628.83 928.545 1628.14 928.744 1627.55 929.142C1626.97 929.534 1626.53 930.045 1626.22 930.676C1625.9 931.307 1625.75 931.983 1625.75 932.705V933.864C1625.75 934.852 1625.92 935.69 1626.26 936.378C1626.6 937.06 1627.08 937.58 1627.7 937.938C1628.31 938.29 1629.02 938.466 1629.84 938.466C1630.37 938.466 1630.84 938.392 1631.27 938.244C1631.7 938.091 1632.07 937.864 1632.39 937.562C1632.7 937.256 1632.94 936.875 1633.11 936.42L1635.05 936.966C1634.85 937.625 1634.5 938.205 1634.02 938.705C1633.54 939.199 1632.94 939.585 1632.23 939.864C1631.52 940.136 1630.72 940.273 1629.84 940.273ZM1643.16 940.273C1641.97 940.273 1640.94 939.991 1640.04 939.429C1639.16 938.866 1638.47 938.08 1637.97 937.068C1637.47 936.057 1637.22 934.875 1637.22 933.523C1637.22 932.159 1637.47 930.969 1637.97 929.952C1638.47 928.935 1639.16 928.145 1640.04 927.582C1640.94 927.02 1641.97 926.739 1643.16 926.739C1644.34 926.739 1645.37 927.02 1646.26 927.582C1647.15 928.145 1647.84 928.935 1648.34 929.952C1648.84 930.969 1649.09 932.159 1649.09 933.523C1649.09 934.875 1648.84 936.057 1648.34 937.068C1647.84 938.08 1647.15 938.866 1646.26 939.429C1645.37 939.991 1644.34 940.273 1643.16 940.273ZM1643.16 938.466C1644.05 938.466 1644.79 938.236 1645.37 937.776C1645.95 937.315 1646.38 936.71 1646.66 935.96C1646.94 935.21 1647.08 934.398 1647.08 933.523C1647.08 932.648 1646.94 931.832 1646.66 931.077C1646.38 930.321 1645.95 929.71 1645.37 929.244C1644.79 928.778 1644.05 928.545 1643.16 928.545C1642.26 928.545 1641.52 928.778 1640.94 929.244C1640.36 929.71 1639.93 930.321 1639.65 931.077C1639.37 931.832 1639.24 932.648 1639.24 933.523C1639.24 934.398 1639.37 935.21 1639.65 935.96C1639.93 936.71 1640.36 937.315 1640.94 937.776C1641.52 938.236 1642.26 938.466 1643.16 938.466ZM1660.95 929.841L1659.14 930.352C1659.03 930.051 1658.86 929.759 1658.64 929.474C1658.42 929.185 1658.13 928.946 1657.75 928.759C1657.38 928.571 1656.9 928.477 1656.31 928.477C1655.51 928.477 1654.85 928.662 1654.31 929.031C1653.78 929.395 1653.52 929.858 1653.52 930.42C1653.52 930.92 1653.7 931.315 1654.06 931.605C1654.43 931.895 1655 932.136 1655.77 932.33L1657.71 932.807C1658.88 933.091 1659.75 933.526 1660.33 934.111C1660.9 934.69 1661.19 935.437 1661.19 936.352C1661.19 937.102 1660.97 937.773 1660.54 938.364C1660.12 938.955 1659.52 939.42 1658.75 939.761C1657.98 940.102 1657.09 940.273 1656.08 940.273C1654.74 940.273 1653.64 939.983 1652.76 939.403C1651.89 938.824 1651.33 937.977 1651.1 936.864L1653.01 936.386C1653.19 937.091 1653.53 937.619 1654.04 937.972C1654.55 938.324 1655.22 938.5 1656.04 938.5C1656.98 938.5 1657.72 938.301 1658.27 937.903C1658.83 937.5 1659.11 937.017 1659.11 936.455C1659.11 936 1658.95 935.619 1658.63 935.312C1658.31 935 1657.83 934.767 1657.17 934.614L1654.98 934.102C1653.79 933.818 1652.91 933.378 1652.34 932.781C1651.79 932.179 1651.51 931.426 1651.51 930.523C1651.51 929.784 1651.71 929.131 1652.13 928.562C1652.55 927.994 1653.12 927.548 1653.84 927.224C1654.57 926.901 1655.39 926.739 1656.31 926.739C1657.61 926.739 1658.63 927.023 1659.37 927.591C1660.11 928.159 1660.64 928.909 1660.95 929.841ZM1665.03 944.909C1664.69 944.909 1664.39 944.881 1664.12 944.824C1663.85 944.773 1663.67 944.722 1663.57 944.67L1664.08 942.898C1664.57 943.023 1665 943.068 1665.37 943.034C1665.75 943 1666.08 942.832 1666.37 942.531C1666.67 942.236 1666.94 941.756 1667.18 941.091L1667.56 940.068L1662.71 926.909H1664.9L1668.51 937.341H1668.65L1672.26 926.909H1674.44L1668.88 941.909C1668.63 942.585 1668.32 943.145 1667.96 943.588C1667.59 944.037 1667.16 944.369 1666.67 944.585C1666.19 944.801 1665.64 944.909 1665.03 944.909ZM1678.63 932.125V940H1676.62V926.909H1678.56V928.955H1678.73C1679.04 928.29 1679.5 927.756 1680.13 927.352C1680.75 926.943 1681.56 926.739 1682.55 926.739C1683.43 926.739 1684.21 926.92 1684.87 927.284C1685.54 927.642 1686.06 928.188 1686.43 928.92C1686.8 929.648 1686.98 930.568 1686.98 931.682V940H1684.97V931.818C1684.97 930.79 1684.7 929.989 1684.17 929.415C1683.63 928.835 1682.9 928.545 1681.97 928.545C1681.33 928.545 1680.75 928.685 1680.25 928.963C1679.75 929.241 1679.35 929.648 1679.06 930.182C1678.77 930.716 1678.63 931.364 1678.63 932.125ZM1695.49 940.273C1694.27 940.273 1693.21 939.983 1692.32 939.403C1691.44 938.824 1690.75 938.026 1690.28 937.009C1689.8 935.991 1689.56 934.83 1689.56 933.523C1689.56 932.193 1689.81 931.02 1690.29 930.003C1690.79 928.98 1691.48 928.182 1692.36 927.608C1693.24 927.028 1694.28 926.739 1695.46 926.739C1696.38 926.739 1697.21 926.909 1697.95 927.25C1698.69 927.591 1699.29 928.068 1699.76 928.682C1700.23 929.295 1700.53 930.011 1700.64 930.83H1698.63C1698.48 930.233 1698.14 929.705 1697.61 929.244C1697.08 928.778 1696.38 928.545 1695.49 928.545C1694.71 928.545 1694.02 928.75 1693.43 929.159C1692.85 929.562 1692.39 930.134 1692.06 930.872C1691.73 931.605 1691.57 932.466 1691.57 933.455C1691.57 934.466 1691.73 935.347 1692.05 936.097C1692.37 936.847 1692.83 937.429 1693.41 937.844C1694 938.259 1694.7 938.466 1695.49 938.466C1696.02 938.466 1696.49 938.375 1696.92 938.193C1697.34 938.011 1697.7 937.75 1698 937.409C1698.29 937.068 1698.5 936.659 1698.63 936.182H1700.64C1700.53 936.955 1700.25 937.651 1699.8 938.27C1699.35 938.884 1698.77 939.372 1698.03 939.736C1697.31 940.094 1696.46 940.273 1695.49 940.273Z" fill="#777777"/>
<path fill-rule="evenodd" clip-rule="evenodd" d="M1270.13 913C1255.69 913 1244 924.88 1244 939.548C1244 951.296 1251.48 961.218 1261.87 964.736C1263.18 964.968 1263.67 964.172 1263.67 963.475C1263.67 962.844 1263.63 960.753 1263.63 958.53C1257.07 959.758 1255.37 956.904 1254.85 955.411C1254.55 954.647 1253.28 952.291 1252.17 951.661C1251.25 951.163 1249.95 949.935 1252.13 949.902C1254.19 949.869 1255.66 951.827 1256.15 952.623C1258.5 956.639 1262.26 955.51 1263.76 954.813C1263.99 953.088 1264.68 951.926 1265.43 951.263C1259.61 950.599 1253.54 948.309 1253.54 938.154C1253.54 935.267 1254.55 932.878 1256.22 931.02C1255.96 930.356 1255.04 927.635 1256.48 923.984C1256.48 923.984 1258.67 923.287 1263.67 926.705C1265.76 926.108 1267.98 925.809 1270.2 925.809C1272.42 925.809 1274.64 926.108 1276.73 926.705C1281.73 923.254 1283.92 923.984 1283.92 923.984C1285.36 927.635 1284.44 930.356 1284.18 931.02C1285.85 932.878 1286.86 935.234 1286.86 938.154C1286.86 948.342 1280.75 950.599 1274.94 951.263C1275.88 952.092 1276.7 953.685 1276.7 956.174C1276.7 959.725 1276.67 962.579 1276.67 963.475C1276.67 964.172 1277.16 965.001 1278.46 964.736C1283.65 962.957 1288.16 959.569 1291.35 955.051C1294.55 950.533 1296.27 945.111 1296.27 939.548C1296.27 924.88 1284.57 913 1270.13 913Z" fill="#777777"/>
</svg>
