<svg width="1200" height="675" viewBox="0 0 1200 675" fill="none" xmlns="http://www.w3.org/2000/svg">
<rect width="1200" height="675" fill="#080808"/>
<path d="M135.548 109.269C138.132 109.269 139.424 109.269 140.447 108.858C141.877 108.284 143.01 107.155 143.587 105.732C144 104.714 144 103.428 144 100.856V100.856V84.3049C144 78.9757 144 76.3111 142.337 74.6556C140.674 73 137.997 73 132.643 73H122.351C114.099 73 109.973 73 108.31 75.6854C106.646 78.3708 108.498 82.0405 112.202 89.38L119.279 103.401C120.514 105.847 118.727 108.731 115.977 108.731C114.579 108.731 113.302 107.946 112.674 106.704L98.808 79.2301C97.278 76.1986 96.513 74.6829 95.1424 73.8416C93.7719 73.0002 92.0678 73.0002 88.6597 73.0002L85.2614 73.0002C79.9076 73.0002 77.2307 73.0002 75.5675 74.6558C73.9043 76.3114 73.9043 78.976 73.9043 84.3052V100.318C73.9043 102.89 73.9043 104.176 73.4916 105.194C72.9145 106.617 71.7808 107.746 70.3511 108.32C69.3285 108.731 68.0364 108.731 65.4521 108.731H65.4521C62.8679 108.731 61.5758 108.731 60.5532 109.142C59.1234 109.716 57.9898 110.845 57.4127 112.268C57 113.286 57 114.572 57 117.144V133.695C57 139.024 57 141.689 58.6632 143.344C60.3264 145 63.0033 145 68.3571 145H78.6493C86.9009 145 91.0267 145 92.6904 142.315C94.3542 139.629 92.502 135.959 88.7977 128.62L88.7976 128.62L81.7211 114.599C80.4864 112.153 82.2731 109.269 85.0234 109.269C86.4206 109.269 87.6984 110.054 88.3256 111.296L102.192 138.77C103.722 141.801 104.487 143.317 105.858 144.158C107.228 145 108.932 145 112.34 145H112.34H115.739C121.092 145 123.769 145 125.433 143.344C127.096 141.689 127.096 139.024 127.096 133.695V117.682C127.096 115.11 127.096 113.824 127.508 112.806C128.086 111.383 129.219 110.254 130.649 109.68C131.672 109.269 132.964 109.269 135.548 109.269Z" fill="white"/>
<path d="M135.548 109.269C138.132 109.269 139.424 109.269 140.447 108.858C141.877 108.284 143.01 107.155 143.587 105.732C144 104.714 144 103.428 144 100.856V100.856V84.3049C144 78.9757 144 76.3111 142.337 74.6556C140.674 73 137.997 73 132.643 73H122.351C114.099 73 109.973 73 108.31 75.6854C106.646 78.3708 108.498 82.0405 112.202 89.38L119.279 103.401C120.514 105.847 118.727 108.731 115.977 108.731C114.579 108.731 113.302 107.946 112.674 106.704L98.808 79.2301C97.278 76.1986 96.513 74.6829 95.1424 73.8416C93.7719 73.0002 92.0678 73.0002 88.6597 73.0002L85.2614 73.0002C79.9076 73.0002 77.2307 73.0002 75.5675 74.6558C73.9043 76.3114 73.9043 78.976 73.9043 84.3052V100.318C73.9043 102.89 73.9043 104.176 73.4916 105.194C72.9145 106.617 71.7808 107.746 70.3511 108.32C69.3285 108.731 68.0364 108.731 65.4521 108.731H65.4521C62.8679 108.731 61.5758 108.731 60.5532 109.142C59.1234 109.716 57.9898 110.845 57.4127 112.268C57 113.286 57 114.572 57 117.144V133.695C57 139.024 57 141.689 58.6632 143.344C60.3264 145 63.0033 145 68.3571 145H78.6493C86.9009 145 91.0267 145 92.6904 142.315C94.3542 139.629 92.502 135.959 88.7977 128.62L88.7976 128.62L81.7211 114.599C80.4864 112.153 82.2731 109.269 85.0234 109.269C86.4206 109.269 87.6984 110.054 88.3256 111.296L102.192 138.77C103.722 141.801 104.487 143.317 105.858 144.158C107.228 145 108.932 145 112.34 145H112.34H115.739C121.092 145 123.769 145 125.433 143.344C127.096 141.689 127.096 139.024 127.096 133.695V117.682C127.096 115.11 127.096 113.824 127.508 112.806C128.086 111.383 129.219 110.254 130.649 109.68C131.672 109.269 132.964 109.269 135.548 109.269Z" stroke="white"/>
<path d="M86.6364 264V217.455H114.727V222.455H92.2727V238.182H113.273V243.182H92.2727V259H115.091V264H86.6364ZM128.243 243V264H122.879V229.091H128.061V234.545H128.515C129.334 232.773 130.576 231.348 132.243 230.273C133.909 229.182 136.061 228.636 138.697 228.636C141.061 228.636 143.129 229.121 144.902 230.091C146.675 231.045 148.053 232.5 149.038 234.455C150.023 236.394 150.515 238.848 150.515 241.818V264H145.152V242.182C145.152 239.439 144.44 237.303 143.015 235.773C141.591 234.227 139.637 233.455 137.152 233.455C135.44 233.455 133.909 233.826 132.561 234.568C131.228 235.311 130.175 236.394 129.402 237.818C128.629 239.242 128.243 240.97 128.243 243ZM173.218 264.727C169.946 264.727 167.128 263.955 164.764 262.409C162.4 260.864 160.582 258.735 159.309 256.023C158.037 253.311 157.4 250.212 157.4 246.727C157.4 243.182 158.052 240.053 159.355 237.341C160.673 234.614 162.506 232.485 164.855 230.955C167.218 229.409 169.976 228.636 173.128 228.636C175.582 228.636 177.794 229.091 179.764 230C181.734 230.909 183.347 232.182 184.605 233.818C185.862 235.455 186.643 237.364 186.946 239.545H181.582C181.173 237.955 180.264 236.545 178.855 235.318C177.461 234.076 175.582 233.455 173.218 233.455C171.128 233.455 169.294 234 167.718 235.091C166.158 236.167 164.938 237.689 164.059 239.659C163.196 241.614 162.764 243.909 162.764 246.545C162.764 249.242 163.188 251.591 164.037 253.591C164.9 255.591 166.112 257.144 167.673 258.25C169.249 259.356 171.097 259.909 173.218 259.909C174.612 259.909 175.878 259.667 177.014 259.182C178.15 258.697 179.112 258 179.9 257.091C180.688 256.182 181.249 255.091 181.582 253.818H186.946C186.643 255.879 185.893 257.735 184.696 259.386C183.514 261.023 181.946 262.326 179.991 263.295C178.052 264.25 175.794 264.727 173.218 264.727ZM193.507 264V229.091H198.688V234.364H199.052C199.688 232.636 200.84 231.235 202.507 230.159C204.173 229.083 206.052 228.545 208.143 228.545C208.537 228.545 209.029 228.553 209.62 228.568C210.211 228.583 210.658 228.606 210.961 228.636V234.091C210.779 234.045 210.363 233.977 209.711 233.886C209.075 233.78 208.401 233.727 207.688 233.727C205.991 233.727 204.476 234.083 203.143 234.795C201.825 235.492 200.779 236.462 200.007 237.705C199.249 238.932 198.87 240.333 198.87 241.909V264H193.507ZM220.556 277.091C219.647 277.091 218.836 277.015 218.124 276.864C217.412 276.727 216.92 276.591 216.647 276.455L218.011 271.727C219.314 272.061 220.465 272.182 221.465 272.091C222.465 272 223.352 271.553 224.124 270.75C224.912 269.962 225.632 268.682 226.283 266.909L227.283 264.182L214.374 229.091H220.193L229.829 256.909H230.193L239.829 229.091H245.647L230.829 269.091C230.162 270.894 229.336 272.386 228.352 273.568C227.367 274.765 226.223 275.652 224.92 276.227C223.632 276.803 222.177 277.091 220.556 277.091ZM251.447 277.091V229.091H256.628V234.636H257.265C257.659 234.03 258.204 233.258 258.901 232.318C259.613 231.364 260.628 230.515 261.947 229.773C263.28 229.015 265.083 228.636 267.356 228.636C270.295 228.636 272.886 229.371 275.128 230.841C277.371 232.311 279.121 234.394 280.378 237.091C281.636 239.788 282.265 242.97 282.265 246.636C282.265 250.333 281.636 253.538 280.378 256.25C279.121 258.947 277.378 261.038 275.151 262.523C272.924 263.992 270.356 264.727 267.447 264.727C265.204 264.727 263.409 264.356 262.06 263.614C260.712 262.856 259.674 262 258.947 261.045C258.219 260.076 257.659 259.273 257.265 258.636H256.81V277.091H251.447ZM256.719 246.545C256.719 249.182 257.106 251.508 257.878 253.523C258.651 255.523 259.78 257.091 261.265 258.227C262.75 259.348 264.568 259.909 266.719 259.909C268.962 259.909 270.833 259.318 272.333 258.136C273.848 256.939 274.984 255.333 275.742 253.318C276.515 251.288 276.901 249.03 276.901 246.545C276.901 244.091 276.522 241.879 275.765 239.909C275.022 237.924 273.894 236.356 272.378 235.205C270.878 234.038 268.992 233.455 266.719 233.455C264.538 233.455 262.704 234.008 261.219 235.114C259.734 236.205 258.613 237.735 257.856 239.705C257.098 241.659 256.719 243.939 256.719 246.545ZM304.348 229.091V233.636H286.258V229.091H304.348ZM291.53 220.727H296.894V254C296.894 255.515 297.114 256.652 297.553 257.409C298.008 258.152 298.583 258.652 299.28 258.909C299.992 259.152 300.742 259.273 301.53 259.273C302.121 259.273 302.606 259.242 302.985 259.182C303.364 259.106 303.667 259.045 303.894 259L304.985 263.818C304.621 263.955 304.114 264.091 303.462 264.227C302.811 264.379 301.985 264.455 300.985 264.455C299.47 264.455 297.985 264.129 296.53 263.477C295.091 262.826 293.894 261.833 292.939 260.5C292 259.167 291.53 257.485 291.53 255.455V220.727ZM311.137 264V229.091H316.5V264H311.137ZM313.864 223.273C312.818 223.273 311.917 222.917 311.159 222.205C310.417 221.492 310.046 220.636 310.046 219.636C310.046 218.636 310.417 217.78 311.159 217.068C311.917 216.356 312.818 216 313.864 216C314.909 216 315.803 216.356 316.546 217.068C317.303 217.78 317.682 218.636 317.682 219.636C317.682 220.636 317.303 221.492 316.546 222.205C315.803 222.917 314.909 223.273 313.864 223.273ZM339.226 264.727C336.074 264.727 333.309 263.977 330.93 262.477C328.567 260.977 326.718 258.879 325.385 256.182C324.067 253.485 323.408 250.333 323.408 246.727C323.408 243.091 324.067 239.917 325.385 237.205C326.718 234.492 328.567 232.386 330.93 230.886C333.309 229.386 336.074 228.636 339.226 228.636C342.377 228.636 345.135 229.386 347.499 230.886C349.877 232.386 351.726 234.492 353.044 237.205C354.377 239.917 355.044 243.091 355.044 246.727C355.044 250.333 354.377 253.485 353.044 256.182C351.726 258.879 349.877 260.977 347.499 262.477C345.135 263.977 342.377 264.727 339.226 264.727ZM339.226 259.909C341.62 259.909 343.59 259.295 345.135 258.068C346.68 256.841 347.824 255.227 348.567 253.227C349.309 251.227 349.68 249.061 349.68 246.727C349.68 244.394 349.309 242.22 348.567 240.205C347.824 238.189 346.68 236.561 345.135 235.318C343.59 234.076 341.62 233.455 339.226 233.455C336.832 233.455 334.862 234.076 333.317 235.318C331.771 236.561 330.627 238.189 329.885 240.205C329.143 242.22 328.771 244.394 328.771 246.727C328.771 249.061 329.143 251.227 329.885 253.227C330.627 255.227 331.771 256.841 333.317 258.068C334.862 259.295 336.832 259.909 339.226 259.909ZM367.315 243V264H361.952V229.091H367.133V234.545H367.588C368.406 232.773 369.649 231.348 371.315 230.273C372.982 229.182 375.133 228.636 377.77 228.636C380.133 228.636 382.202 229.121 383.974 230.091C385.747 231.045 387.126 232.5 388.111 234.455C389.096 236.394 389.588 238.848 389.588 241.818V264H384.224V242.182C384.224 239.439 383.512 237.303 382.088 235.773C380.664 234.227 378.709 233.455 376.224 233.455C374.512 233.455 372.982 233.826 371.633 234.568C370.3 235.311 369.247 236.394 368.474 237.818C367.702 239.242 367.315 240.97 367.315 243ZM443.375 229.091L430.465 264H425.011L412.102 229.091H417.92L427.556 256.909H427.92L437.556 229.091H443.375ZM473.901 236.909L469.083 238.273C468.78 237.47 468.333 236.689 467.742 235.932C467.167 235.159 466.379 234.523 465.379 234.023C464.379 233.523 463.098 233.273 461.538 233.273C459.401 233.273 457.621 233.765 456.197 234.75C454.788 235.72 454.083 236.955 454.083 238.455C454.083 239.788 454.568 240.841 455.538 241.614C456.507 242.386 458.023 243.03 460.083 243.545L465.265 244.818C468.386 245.576 470.712 246.735 472.242 248.295C473.773 249.841 474.538 251.833 474.538 254.273C474.538 256.273 473.962 258.061 472.81 259.636C471.674 261.212 470.083 262.455 468.038 263.364C465.992 264.273 463.613 264.727 460.901 264.727C457.341 264.727 454.394 263.955 452.06 262.409C449.727 260.864 448.25 258.606 447.629 255.636L452.72 254.364C453.204 256.242 454.121 257.652 455.47 258.591C456.833 259.53 458.613 260 460.81 260C463.31 260 465.295 259.47 466.765 258.409C468.25 257.333 468.992 256.045 468.992 254.545C468.992 253.333 468.568 252.318 467.72 251.5C466.871 250.667 465.568 250.045 463.81 249.636L457.992 248.273C454.795 247.515 452.447 246.341 450.947 244.75C449.462 243.144 448.72 241.136 448.72 238.727C448.72 236.758 449.273 235.015 450.379 233.5C451.5 231.985 453.023 230.795 454.947 229.932C456.886 229.068 459.083 228.636 461.538 228.636C464.992 228.636 467.704 229.394 469.674 230.909C471.659 232.424 473.068 234.424 473.901 236.909ZM485.241 264.364C484.119 264.364 483.157 263.962 482.354 263.159C481.551 262.356 481.15 261.394 481.15 260.273C481.15 259.152 481.551 258.189 482.354 257.386C483.157 256.583 484.119 256.182 485.241 256.182C486.362 256.182 487.324 256.583 488.127 257.386C488.93 258.189 489.332 259.152 489.332 260.273C489.332 261.015 489.142 261.697 488.763 262.318C488.4 262.939 487.907 263.439 487.286 263.818C486.68 264.182 485.998 264.364 485.241 264.364ZM540.578 229.091C540.306 226.788 539.2 225 537.26 223.727C535.321 222.455 532.942 221.818 530.124 221.818C528.063 221.818 526.26 222.152 524.715 222.818C523.184 223.485 521.987 224.402 521.124 225.568C520.275 226.735 519.851 228.061 519.851 229.545C519.851 230.788 520.147 231.856 520.737 232.75C521.344 233.629 522.116 234.364 523.056 234.955C523.995 235.53 524.98 236.008 526.01 236.386C527.041 236.75 527.987 237.045 528.851 237.273L533.578 238.545C534.791 238.864 536.139 239.303 537.624 239.864C539.124 240.424 540.556 241.189 541.919 242.159C543.298 243.114 544.434 244.341 545.328 245.841C546.222 247.341 546.669 249.182 546.669 251.364C546.669 253.879 546.01 256.152 544.692 258.182C543.389 260.212 541.48 261.826 538.965 263.023C536.465 264.22 533.427 264.818 529.851 264.818C526.518 264.818 523.631 264.28 521.192 263.205C518.768 262.129 516.859 260.629 515.465 258.705C514.086 256.78 513.306 254.545 513.124 252H518.942C519.094 253.758 519.684 255.212 520.715 256.364C521.76 257.5 523.078 258.348 524.669 258.909C526.275 259.455 528.003 259.727 529.851 259.727C532.003 259.727 533.934 259.379 535.647 258.682C537.359 257.97 538.715 256.985 539.715 255.727C540.715 254.455 541.215 252.97 541.215 251.273C541.215 249.727 540.783 248.47 539.919 247.5C539.056 246.53 537.919 245.742 536.51 245.136C535.101 244.53 533.578 244 531.942 243.545L526.215 241.909C522.578 240.864 519.7 239.371 517.578 237.432C515.457 235.492 514.397 232.955 514.397 229.818C514.397 227.212 515.101 224.939 516.51 223C517.934 221.045 519.844 219.53 522.237 218.455C524.647 217.364 527.336 216.818 530.306 216.818C533.306 216.818 535.972 217.356 538.306 218.432C540.639 219.492 542.487 220.947 543.851 222.795C545.23 224.644 545.957 226.742 546.033 229.091H540.578ZM557.384 277.091C556.475 277.091 555.664 277.015 554.952 276.864C554.24 276.727 553.747 276.591 553.475 276.455L554.838 271.727C556.141 272.061 557.293 272.182 558.293 272.091C559.293 272 560.179 271.553 560.952 270.75C561.74 269.962 562.459 268.682 563.111 266.909L564.111 264.182L551.202 229.091H557.02L566.656 256.909H567.02L576.656 229.091H582.475L567.656 269.091C566.99 270.894 566.164 272.386 565.179 273.568C564.194 274.765 563.05 275.652 561.747 276.227C560.459 276.803 559.005 277.091 557.384 277.091ZM593.638 243V264H588.274V229.091H593.456V234.545H593.91C594.729 232.773 595.971 231.348 597.638 230.273C599.304 229.182 601.456 228.636 604.092 228.636C606.456 228.636 608.524 229.121 610.297 230.091C612.07 231.045 613.448 232.5 614.433 234.455C615.418 236.394 615.91 238.848 615.91 241.818V264H610.547V242.182C610.547 239.439 609.835 237.303 608.41 235.773C606.986 234.227 605.032 233.455 602.547 233.455C600.835 233.455 599.304 233.826 597.956 234.568C596.623 235.311 595.57 236.394 594.797 237.818C594.024 239.242 593.638 240.97 593.638 243ZM639.613 229.091V233.636H621.523V229.091H639.613ZM626.795 220.727H632.159V254C632.159 255.515 632.379 256.652 632.818 257.409C633.273 258.152 633.848 258.652 634.545 258.909C635.257 259.152 636.007 259.273 636.795 259.273C637.386 259.273 637.871 259.242 638.25 259.182C638.629 259.106 638.932 259.045 639.159 259L640.25 263.818C639.886 263.955 639.379 264.091 638.727 264.227C638.076 264.379 637.25 264.455 636.25 264.455C634.735 264.455 633.25 264.129 631.795 263.477C630.356 262.826 629.159 261.833 628.204 260.5C627.265 259.167 626.795 257.485 626.795 255.455V220.727ZM652.515 243V264H647.152V217.455H652.515V234.545H652.97C653.788 232.742 655.015 231.311 656.652 230.25C658.303 229.174 660.5 228.636 663.242 228.636C665.621 228.636 667.705 229.114 669.492 230.068C671.28 231.008 672.667 232.455 673.652 234.409C674.652 236.348 675.152 238.818 675.152 241.818V264H669.788V242.182C669.788 239.409 669.068 237.265 667.629 235.75C666.205 234.22 664.227 233.455 661.697 233.455C659.939 233.455 658.364 233.826 656.97 234.568C655.591 235.311 654.5 236.394 653.697 237.818C652.909 239.242 652.515 240.97 652.515 243ZM698.32 264.727C694.957 264.727 692.055 263.985 689.616 262.5C687.192 261 685.32 258.909 684.002 256.227C682.699 253.53 682.048 250.394 682.048 246.818C682.048 243.242 682.699 240.091 684.002 237.364C685.32 234.621 687.154 232.485 689.502 230.955C691.866 229.409 694.624 228.636 697.775 228.636C699.593 228.636 701.389 228.939 703.161 229.545C704.934 230.152 706.548 231.136 708.002 232.5C709.457 233.848 710.616 235.636 711.48 237.864C712.343 240.091 712.775 242.833 712.775 246.091V248.364H685.866V243.727H707.32C707.32 241.758 706.927 240 706.139 238.455C705.366 236.909 704.26 235.689 702.82 234.795C701.396 233.902 699.714 233.455 697.775 233.455C695.639 233.455 693.79 233.985 692.23 235.045C690.684 236.091 689.495 237.455 688.661 239.136C687.828 240.818 687.411 242.621 687.411 244.545V247.636C687.411 250.273 687.866 252.508 688.775 254.341C689.699 256.159 690.98 257.545 692.616 258.5C694.252 259.439 696.154 259.909 698.32 259.909C699.73 259.909 701.002 259.712 702.139 259.318C703.29 258.909 704.283 258.303 705.116 257.5C705.949 256.682 706.593 255.667 707.048 254.455L712.23 255.909C711.684 257.667 710.767 259.212 709.48 260.545C708.192 261.864 706.601 262.894 704.707 263.636C702.813 264.364 700.684 264.727 698.32 264.727ZM734.836 229.091V233.636H716.745V229.091H734.836ZM722.018 220.727H727.381V254C727.381 255.515 727.601 256.652 728.04 257.409C728.495 258.152 729.071 258.652 729.768 258.909C730.48 259.152 731.23 259.273 732.018 259.273C732.609 259.273 733.093 259.242 733.472 259.182C733.851 259.106 734.154 259.045 734.381 259L735.472 263.818C735.109 263.955 734.601 264.091 733.95 264.227C733.298 264.379 732.472 264.455 731.472 264.455C729.957 264.455 728.472 264.129 727.018 263.477C725.578 262.826 724.381 261.833 723.427 260.5C722.487 259.167 722.018 257.485 722.018 255.455V220.727ZM741.624 264V229.091H746.988V264H741.624ZM744.351 223.273C743.306 223.273 742.404 222.917 741.647 222.205C740.904 221.492 740.533 220.636 740.533 219.636C740.533 218.636 740.904 217.78 741.647 217.068C742.404 216.356 743.306 216 744.351 216C745.397 216 746.291 216.356 747.033 217.068C747.791 217.78 748.17 218.636 748.17 219.636C748.17 220.636 747.791 221.492 747.033 222.205C746.291 222.917 745.397 223.273 744.351 223.273ZM769.713 264.727C766.441 264.727 763.622 263.955 761.259 262.409C758.895 260.864 757.077 258.735 755.804 256.023C754.532 253.311 753.895 250.212 753.895 246.727C753.895 243.182 754.547 240.053 755.85 237.341C757.168 234.614 759.001 232.485 761.35 230.955C763.713 229.409 766.471 228.636 769.622 228.636C772.077 228.636 774.289 229.091 776.259 230C778.229 230.909 779.842 232.182 781.1 233.818C782.357 235.455 783.138 237.364 783.441 239.545H778.077C777.668 237.955 776.759 236.545 775.35 235.318C773.956 234.076 772.077 233.455 769.713 233.455C767.622 233.455 765.789 234 764.213 235.091C762.653 236.167 761.433 237.689 760.554 239.659C759.691 241.614 759.259 243.909 759.259 246.545C759.259 249.242 759.683 251.591 760.532 253.591C761.395 255.591 762.607 257.144 764.168 258.25C765.744 259.356 767.592 259.909 769.713 259.909C771.107 259.909 772.372 259.667 773.509 259.182C774.645 258.697 775.607 258 776.395 257.091C777.183 256.182 777.744 255.091 778.077 253.818H783.441C783.138 255.879 782.388 257.735 781.191 259.386C780.009 261.023 778.441 262.326 776.486 263.295C774.547 264.25 772.289 264.727 769.713 264.727ZM821.812 264H807.449V217.455H822.449C826.964 217.455 830.828 218.386 834.04 220.25C837.252 222.098 839.714 224.758 841.426 228.227C843.138 231.682 843.994 235.818 843.994 240.636C843.994 245.485 843.131 249.659 841.403 253.159C839.676 256.644 837.161 259.326 833.858 261.205C830.555 263.068 826.54 264 821.812 264ZM813.085 259H821.449C825.297 259 828.487 258.258 831.017 256.773C833.547 255.288 835.434 253.174 836.676 250.432C837.919 247.689 838.54 244.424 838.54 240.636C838.54 236.879 837.926 233.644 836.699 230.932C835.472 228.205 833.638 226.114 831.199 224.659C828.759 223.189 825.722 222.455 822.085 222.455H813.085V259ZM861.714 264.818C859.502 264.818 857.495 264.402 855.692 263.568C853.889 262.72 852.457 261.5 851.396 259.909C850.336 258.303 849.805 256.364 849.805 254.091C849.805 252.091 850.199 250.47 850.987 249.227C851.775 247.97 852.828 246.985 854.146 246.273C855.464 245.561 856.919 245.03 858.51 244.682C860.116 244.318 861.729 244.03 863.351 243.818C865.472 243.545 867.192 243.341 868.51 243.205C869.843 243.053 870.813 242.803 871.419 242.455C872.04 242.106 872.351 241.5 872.351 240.636V240.455C872.351 238.212 871.737 236.47 870.51 235.227C869.298 233.985 867.457 233.364 864.987 233.364C862.426 233.364 860.419 233.924 858.964 235.045C857.51 236.167 856.487 237.364 855.896 238.636L850.805 236.818C851.714 234.697 852.926 233.045 854.442 231.864C855.972 230.667 857.639 229.833 859.442 229.364C861.26 228.879 863.048 228.636 864.805 228.636C865.926 228.636 867.214 228.773 868.669 229.045C870.139 229.303 871.555 229.841 872.919 230.659C874.298 231.477 875.442 232.712 876.351 234.364C877.26 236.015 877.714 238.227 877.714 241V264H872.351V259.273H872.078C871.714 260.03 871.108 260.841 870.26 261.705C869.411 262.568 868.282 263.303 866.873 263.909C865.464 264.515 863.745 264.818 861.714 264.818ZM862.532 260C864.654 260 866.442 259.583 867.896 258.75C869.366 257.917 870.472 256.841 871.214 255.523C871.972 254.205 872.351 252.818 872.351 251.364V246.455C872.123 246.727 871.623 246.977 870.851 247.205C870.093 247.417 869.214 247.606 868.214 247.773C867.229 247.924 866.267 248.061 865.328 248.182C864.404 248.288 863.654 248.379 863.078 248.455C861.684 248.636 860.381 248.932 859.169 249.341C857.972 249.735 857.002 250.333 856.26 251.136C855.532 251.924 855.169 253 855.169 254.364C855.169 256.227 855.858 257.636 857.237 258.591C858.631 259.53 860.396 260 862.532 260ZM901.406 229.091V233.636H883.315V229.091H901.406ZM888.588 220.727H893.951V254C893.951 255.515 894.171 256.652 894.61 257.409C895.065 258.152 895.641 258.652 896.338 258.909C897.05 259.152 897.8 259.273 898.588 259.273C899.179 259.273 899.663 259.242 900.042 259.182C900.421 259.106 900.724 259.045 900.951 259L902.042 263.818C901.679 263.955 901.171 264.091 900.52 264.227C899.868 264.379 899.042 264.455 898.042 264.455C896.527 264.455 895.042 264.129 893.588 263.477C892.148 262.826 890.951 261.833 889.997 260.5C889.057 259.167 888.588 257.485 888.588 255.455V220.727ZM918.467 264.818C916.255 264.818 914.247 264.402 912.444 263.568C910.641 262.72 909.209 261.5 908.149 259.909C907.088 258.303 906.558 256.364 906.558 254.091C906.558 252.091 906.952 250.47 907.74 249.227C908.527 247.97 909.58 246.985 910.899 246.273C912.217 245.561 913.671 245.03 915.262 244.682C916.868 244.318 918.482 244.03 920.103 243.818C922.224 243.545 923.944 243.341 925.262 243.205C926.596 243.053 927.565 242.803 928.171 242.455C928.793 242.106 929.103 241.5 929.103 240.636V240.455C929.103 238.212 928.49 236.47 927.262 235.227C926.05 233.985 924.209 233.364 921.74 233.364C919.179 233.364 917.171 233.924 915.717 235.045C914.262 236.167 913.24 237.364 912.649 238.636L907.558 236.818C908.467 234.697 909.679 233.045 911.194 231.864C912.724 230.667 914.391 229.833 916.194 229.364C918.012 228.879 919.8 228.636 921.558 228.636C922.679 228.636 923.967 228.773 925.421 229.045C926.891 229.303 928.308 229.841 929.671 230.659C931.05 231.477 932.194 232.712 933.103 234.364C934.012 236.015 934.467 238.227 934.467 241V264H929.103V259.273H928.83C928.467 260.03 927.861 260.841 927.012 261.705C926.164 262.568 925.035 263.303 923.626 263.909C922.217 264.515 920.497 264.818 918.467 264.818ZM919.285 260C921.406 260 923.194 259.583 924.649 258.75C926.118 257.917 927.224 256.841 927.967 255.523C928.724 254.205 929.103 252.818 929.103 251.364V246.455C928.876 246.727 928.376 246.977 927.603 247.205C926.846 247.417 925.967 247.606 924.967 247.773C923.982 247.924 923.02 248.061 922.08 248.182C921.156 248.288 920.406 248.379 919.83 248.455C918.436 248.636 917.133 248.932 915.921 249.341C914.724 249.735 913.755 250.333 913.012 251.136C912.285 251.924 911.921 253 911.921 254.364C911.921 256.227 912.611 257.636 913.99 258.591C915.383 259.53 917.149 260 919.285 260ZM988.242 229.091L975.333 264H969.878L956.969 229.091H962.787L972.424 256.909H972.787L982.424 229.091H988.242ZM1018.77 236.909L1013.95 238.273C1013.65 237.47 1013.2 236.689 1012.61 235.932C1012.03 235.159 1011.25 234.523 1010.25 234.023C1009.25 233.523 1007.97 233.273 1006.41 233.273C1004.27 233.273 1002.49 233.765 1001.06 234.75C999.655 235.72 998.951 236.955 998.951 238.455C998.951 239.788 999.436 240.841 1000.41 241.614C1001.37 242.386 1002.89 243.03 1004.95 243.545L1010.13 244.818C1013.25 245.576 1015.58 246.735 1017.11 248.295C1018.64 249.841 1019.41 251.833 1019.41 254.273C1019.41 256.273 1018.83 258.061 1017.68 259.636C1016.54 261.212 1014.95 262.455 1012.91 263.364C1010.86 264.273 1008.48 264.727 1005.77 264.727C1002.21 264.727 999.261 263.955 996.928 262.409C994.595 260.864 993.117 258.606 992.496 255.636L997.587 254.364C998.072 256.242 998.989 257.652 1000.34 258.591C1001.7 259.53 1003.48 260 1005.68 260C1008.18 260 1010.16 259.47 1011.63 258.409C1013.12 257.333 1013.86 256.045 1013.86 254.545C1013.86 253.333 1013.44 252.318 1012.59 251.5C1011.74 250.667 1010.44 250.045 1008.68 249.636L1002.86 248.273C999.663 247.515 997.314 246.341 995.814 244.75C994.329 243.144 993.587 241.136 993.587 238.727C993.587 236.758 994.14 235.015 995.246 233.5C996.367 231.985 997.89 230.795 999.814 229.932C1001.75 229.068 1003.95 228.636 1006.41 228.636C1009.86 228.636 1012.57 229.394 1014.54 230.909C1016.53 232.424 1017.94 234.424 1018.77 236.909ZM1030.11 264.364C1028.99 264.364 1028.02 263.962 1027.22 263.159C1026.42 262.356 1026.02 261.394 1026.02 260.273C1026.02 259.152 1026.42 258.189 1027.22 257.386C1028.02 256.583 1028.99 256.182 1030.11 256.182C1031.23 256.182 1032.19 256.583 1032.99 257.386C1033.8 258.189 1034.2 259.152 1034.2 260.273C1034.2 261.015 1034.01 261.697 1033.63 262.318C1033.27 262.939 1032.77 263.439 1032.15 263.818C1031.55 264.182 1030.87 264.364 1030.11 264.364ZM84.0909 299.455V294.455H119V299.455H104.364V341H98.7273V299.455H84.0909ZM134.811 341.727C131.659 341.727 128.894 340.977 126.515 339.477C124.152 337.977 122.303 335.879 120.97 333.182C119.652 330.485 118.993 327.333 118.993 323.727C118.993 320.091 119.652 316.917 120.97 314.205C122.303 311.492 124.152 309.386 126.515 307.886C128.894 306.386 131.659 305.636 134.811 305.636C137.962 305.636 140.72 306.386 143.084 307.886C145.462 309.386 147.311 311.492 148.629 314.205C149.962 316.917 150.629 320.091 150.629 323.727C150.629 327.333 149.962 330.485 148.629 333.182C147.311 335.879 145.462 337.977 143.084 339.477C140.72 340.977 137.962 341.727 134.811 341.727ZM134.811 336.909C137.205 336.909 139.175 336.295 140.72 335.068C142.265 333.841 143.409 332.227 144.152 330.227C144.894 328.227 145.265 326.061 145.265 323.727C145.265 321.394 144.894 319.22 144.152 317.205C143.409 315.189 142.265 313.561 140.72 312.318C139.175 311.076 137.205 310.455 134.811 310.455C132.417 310.455 130.447 311.076 128.902 312.318C127.356 313.561 126.212 315.189 125.47 317.205C124.728 319.22 124.356 321.394 124.356 323.727C124.356 326.061 124.728 328.227 125.47 330.227C126.212 332.227 127.356 333.841 128.902 335.068C130.447 336.295 132.417 336.909 134.811 336.909ZM162.537 328.273L162.446 321.636H163.537L178.809 306.091H185.446L169.173 322.545H168.718L162.537 328.273ZM157.537 341V294.455H162.9V341H157.537ZM179.718 341L166.082 323.727L169.9 320L186.537 341H179.718ZM204.268 341.727C200.904 341.727 198.003 340.985 195.563 339.5C193.139 338 191.268 335.909 189.95 333.227C188.647 330.53 187.995 327.394 187.995 323.818C187.995 320.242 188.647 317.091 189.95 314.364C191.268 311.621 193.101 309.485 195.45 307.955C197.813 306.409 200.571 305.636 203.723 305.636C205.541 305.636 207.336 305.939 209.109 306.545C210.882 307.152 212.495 308.136 213.95 309.5C215.404 310.848 216.563 312.636 217.427 314.864C218.291 317.091 218.723 319.833 218.723 323.091V325.364H191.813V320.727H213.268C213.268 318.758 212.874 317 212.086 315.455C211.313 313.909 210.207 312.689 208.768 311.795C207.344 310.902 205.662 310.455 203.723 310.455C201.586 310.455 199.738 310.985 198.177 312.045C196.632 313.091 195.442 314.455 194.609 316.136C193.776 317.818 193.359 319.621 193.359 321.545V324.636C193.359 327.273 193.813 329.508 194.723 331.341C195.647 333.159 196.927 334.545 198.563 335.5C200.2 336.439 202.101 336.909 204.268 336.909C205.677 336.909 206.95 336.712 208.086 336.318C209.238 335.909 210.23 335.303 211.063 334.5C211.897 333.682 212.541 332.667 212.995 331.455L218.177 332.909C217.632 334.667 216.715 336.212 215.427 337.545C214.139 338.864 212.548 339.894 210.654 340.636C208.76 341.364 206.632 341.727 204.268 341.727ZM230.965 320V341H225.602V306.091H230.783V311.545H231.238C232.056 309.773 233.299 308.348 234.965 307.273C236.632 306.182 238.783 305.636 241.42 305.636C243.783 305.636 245.852 306.121 247.624 307.091C249.397 308.045 250.776 309.5 251.761 311.455C252.746 313.394 253.238 315.848 253.238 318.818V341H247.874V319.182C247.874 316.439 247.162 314.303 245.738 312.773C244.314 311.227 242.359 310.455 239.874 310.455C238.162 310.455 236.632 310.826 235.283 311.568C233.95 312.311 232.897 313.394 232.124 314.818C231.352 316.242 230.965 317.97 230.965 320ZM261.759 341V306.091H267.123V341H261.759ZM264.486 300.273C263.441 300.273 262.539 299.917 261.782 299.205C261.039 298.492 260.668 297.636 260.668 296.636C260.668 295.636 261.039 294.78 261.782 294.068C262.539 293.356 263.441 293 264.486 293C265.532 293 266.426 293.356 267.168 294.068C267.926 294.78 268.305 295.636 268.305 296.636C268.305 297.636 267.926 298.492 267.168 299.205C266.426 299.917 265.532 300.273 264.486 300.273ZM274.667 341V336.909L294.485 311.455V311.091H275.303V306.091H301.394V310.364L282.121 335.636V336H302.03V341H274.667ZM319.284 341.818C317.072 341.818 315.065 341.402 313.262 340.568C311.459 339.72 310.027 338.5 308.966 336.909C307.906 335.303 307.375 333.364 307.375 331.091C307.375 329.091 307.769 327.47 308.557 326.227C309.345 324.97 310.398 323.985 311.716 323.273C313.034 322.561 314.489 322.03 316.08 321.682C317.686 321.318 319.299 321.03 320.921 320.818C323.042 320.545 324.762 320.341 326.08 320.205C327.413 320.053 328.383 319.803 328.989 319.455C329.61 319.106 329.921 318.5 329.921 317.636V317.455C329.921 315.212 329.307 313.47 328.08 312.227C326.868 310.985 325.027 310.364 322.557 310.364C319.996 310.364 317.989 310.924 316.534 312.045C315.08 313.167 314.057 314.364 313.466 315.636L308.375 313.818C309.284 311.697 310.496 310.045 312.012 308.864C313.542 307.667 315.209 306.833 317.012 306.364C318.83 305.879 320.618 305.636 322.375 305.636C323.496 305.636 324.784 305.773 326.239 306.045C327.709 306.303 329.125 306.841 330.489 307.659C331.868 308.477 333.012 309.712 333.921 311.364C334.83 313.015 335.284 315.227 335.284 318V341H329.921V336.273H329.648C329.284 337.03 328.678 337.841 327.83 338.705C326.981 339.568 325.852 340.303 324.443 340.909C323.034 341.515 321.315 341.818 319.284 341.818ZM320.102 337C322.224 337 324.012 336.583 325.466 335.75C326.936 334.917 328.042 333.841 328.784 332.523C329.542 331.205 329.921 329.818 329.921 328.364V323.455C329.693 323.727 329.193 323.977 328.421 324.205C327.663 324.417 326.784 324.606 325.784 324.773C324.799 324.924 323.837 325.061 322.898 325.182C321.974 325.288 321.224 325.379 320.648 325.455C319.254 325.636 317.951 325.932 316.739 326.341C315.542 326.735 314.572 327.333 313.83 328.136C313.102 328.924 312.739 330 312.739 331.364C312.739 333.227 313.428 334.636 314.807 335.591C316.201 336.53 317.966 337 320.102 337ZM358.976 306.091V310.636H340.885V306.091H358.976ZM346.158 297.727H351.521V331C351.521 332.515 351.741 333.652 352.18 334.409C352.635 335.152 353.211 335.652 353.908 335.909C354.62 336.152 355.37 336.273 356.158 336.273C356.749 336.273 357.233 336.242 357.612 336.182C357.991 336.106 358.294 336.045 358.521 336L359.612 340.818C359.249 340.955 358.741 341.091 358.09 341.227C357.438 341.379 356.612 341.455 355.612 341.455C354.097 341.455 352.612 341.129 351.158 340.477C349.718 339.826 348.521 338.833 347.567 337.5C346.627 336.167 346.158 334.485 346.158 332.455V297.727ZM365.764 341V306.091H371.128V341H365.764ZM368.491 300.273C367.446 300.273 366.544 299.917 365.787 299.205C365.044 298.492 364.673 297.636 364.673 296.636C364.673 295.636 365.044 294.78 365.787 294.068C366.544 293.356 367.446 293 368.491 293C369.537 293 370.431 293.356 371.173 294.068C371.931 294.78 372.31 295.636 372.31 296.636C372.31 297.636 371.931 298.492 371.173 299.205C370.431 299.917 369.537 300.273 368.491 300.273ZM393.853 341.727C390.702 341.727 387.937 340.977 385.558 339.477C383.194 337.977 381.346 335.879 380.013 333.182C378.694 330.485 378.035 327.333 378.035 323.727C378.035 320.091 378.694 316.917 380.013 314.205C381.346 311.492 383.194 309.386 385.558 307.886C387.937 306.386 390.702 305.636 393.853 305.636C397.005 305.636 399.763 306.386 402.126 307.886C404.505 309.386 406.353 311.492 407.672 314.205C409.005 316.917 409.672 320.091 409.672 323.727C409.672 327.333 409.005 330.485 407.672 333.182C406.353 335.879 404.505 337.977 402.126 339.477C399.763 340.977 397.005 341.727 393.853 341.727ZM393.853 336.909C396.247 336.909 398.217 336.295 399.763 335.068C401.308 333.841 402.452 332.227 403.194 330.227C403.937 328.227 404.308 326.061 404.308 323.727C404.308 321.394 403.937 319.22 403.194 317.205C402.452 315.189 401.308 313.561 399.763 312.318C398.217 311.076 396.247 310.455 393.853 310.455C391.459 310.455 389.49 311.076 387.944 312.318C386.399 313.561 385.255 315.189 384.513 317.205C383.77 319.22 383.399 321.394 383.399 323.727C383.399 326.061 383.77 328.227 384.513 330.227C385.255 332.227 386.399 333.841 387.944 335.068C389.49 336.295 391.459 336.909 393.853 336.909ZM421.943 320V341H416.579V306.091H421.761V311.545H422.215C423.034 309.773 424.276 308.348 425.943 307.273C427.609 306.182 429.761 305.636 432.397 305.636C434.761 305.636 436.829 306.121 438.602 307.091C440.375 308.045 441.753 309.5 442.738 311.455C443.723 313.394 444.215 315.848 444.215 318.818V341H438.852V319.182C438.852 316.439 438.14 314.303 436.715 312.773C435.291 311.227 433.337 310.455 430.852 310.455C429.14 310.455 427.609 310.826 426.261 311.568C424.928 312.311 423.875 313.394 423.102 314.818C422.329 316.242 421.943 317.97 421.943 320ZM95.0909 495L82.3636 448.455H88.0909L97.8182 486.364H98.2727L108.182 448.455H114.545L124.455 486.364H124.909L134.636 448.455H140.364L127.636 495H121.818L111.545 457.909H111.182L100.909 495H95.0909ZM150.743 474V495H145.379V448.455H150.743V465.545H151.197C152.015 463.742 153.243 462.311 154.879 461.25C156.531 460.174 158.728 459.636 161.47 459.636C163.849 459.636 165.932 460.114 167.72 461.068C169.508 462.008 170.894 463.455 171.879 465.409C172.879 467.348 173.379 469.818 173.379 472.818V495H168.015V473.182C168.015 470.409 167.296 468.265 165.856 466.75C164.432 465.22 162.455 464.455 159.925 464.455C158.167 464.455 156.591 464.826 155.197 465.568C153.818 466.311 152.728 467.394 151.925 468.818C151.137 470.242 150.743 471.97 150.743 474ZM192.184 495.818C189.972 495.818 187.965 495.402 186.162 494.568C184.359 493.72 182.927 492.5 181.866 490.909C180.806 489.303 180.275 487.364 180.275 485.091C180.275 483.091 180.669 481.47 181.457 480.227C182.245 478.97 183.298 477.985 184.616 477.273C185.934 476.561 187.389 476.03 188.98 475.682C190.586 475.318 192.199 475.03 193.821 474.818C195.942 474.545 197.662 474.341 198.98 474.205C200.313 474.053 201.283 473.803 201.889 473.455C202.51 473.106 202.821 472.5 202.821 471.636V471.455C202.821 469.212 202.207 467.47 200.98 466.227C199.768 464.985 197.927 464.364 195.457 464.364C192.896 464.364 190.889 464.924 189.434 466.045C187.98 467.167 186.957 468.364 186.366 469.636L181.275 467.818C182.184 465.697 183.396 464.045 184.912 462.864C186.442 461.667 188.109 460.833 189.912 460.364C191.73 459.879 193.518 459.636 195.275 459.636C196.396 459.636 197.684 459.773 199.139 460.045C200.609 460.303 202.025 460.841 203.389 461.659C204.768 462.477 205.912 463.712 206.821 465.364C207.73 467.015 208.184 469.227 208.184 472V495H202.821V490.273H202.548C202.184 491.03 201.578 491.841 200.73 492.705C199.881 493.568 198.753 494.303 197.343 494.909C195.934 495.515 194.215 495.818 192.184 495.818ZM193.003 491C195.124 491 196.912 490.583 198.366 489.75C199.836 488.917 200.942 487.841 201.684 486.523C202.442 485.205 202.821 483.818 202.821 482.364V477.455C202.593 477.727 202.093 477.977 201.321 478.205C200.563 478.417 199.684 478.606 198.684 478.773C197.699 478.924 196.737 479.061 195.798 479.182C194.874 479.288 194.124 479.379 193.548 479.455C192.154 479.636 190.851 479.932 189.639 480.341C188.442 480.735 187.472 481.333 186.73 482.136C186.003 482.924 185.639 484 185.639 485.364C185.639 487.227 186.328 488.636 187.707 489.591C189.101 490.53 190.866 491 193.003 491ZM231.876 460.091V464.636H213.785V460.091H231.876ZM219.058 451.727H224.421V485C224.421 486.515 224.641 487.652 225.08 488.409C225.535 489.152 226.111 489.652 226.808 489.909C227.52 490.152 228.27 490.273 229.058 490.273C229.649 490.273 230.133 490.242 230.512 490.182C230.891 490.106 231.194 490.045 231.421 490L232.512 494.818C232.149 494.955 231.641 495.091 230.99 495.227C230.338 495.379 229.512 495.455 228.512 495.455C226.997 495.455 225.512 495.129 224.058 494.477C222.618 493.826 221.421 492.833 220.467 491.5C219.527 490.167 219.058 488.485 219.058 486.455V451.727ZM245.204 448.455V452.545C245.204 453.788 244.977 455.114 244.522 456.523C244.083 457.917 243.431 459.273 242.568 460.591C241.719 461.894 240.689 463.03 239.477 464L236.568 461.636C237.522 460.273 238.348 458.856 239.045 457.386C239.757 455.902 240.113 454.318 240.113 452.636V448.455H245.204ZM270.799 467.909L265.981 469.273C265.678 468.47 265.231 467.689 264.64 466.932C264.064 466.159 263.276 465.523 262.276 465.023C261.276 464.523 259.996 464.273 258.435 464.273C256.299 464.273 254.519 464.765 253.094 465.75C251.685 466.72 250.981 467.955 250.981 469.455C250.981 470.788 251.466 471.841 252.435 472.614C253.405 473.386 254.92 474.03 256.981 474.545L262.163 475.818C265.284 476.576 267.609 477.735 269.14 479.295C270.67 480.841 271.435 482.833 271.435 485.273C271.435 487.273 270.859 489.061 269.708 490.636C268.572 492.212 266.981 493.455 264.935 494.364C262.89 495.273 260.511 495.727 257.799 495.727C254.238 495.727 251.291 494.955 248.958 493.409C246.625 491.864 245.147 489.606 244.526 486.636L249.617 485.364C250.102 487.242 251.019 488.652 252.367 489.591C253.731 490.53 255.511 491 257.708 491C260.208 491 262.193 490.47 263.663 489.409C265.147 488.333 265.89 487.045 265.89 485.545C265.89 484.333 265.466 483.318 264.617 482.5C263.769 481.667 262.466 481.045 260.708 480.636L254.89 479.273C251.693 478.515 249.344 477.341 247.844 475.75C246.359 474.144 245.617 472.136 245.617 469.727C245.617 467.758 246.17 466.015 247.276 464.5C248.397 462.985 249.92 461.795 251.844 460.932C253.784 460.068 255.981 459.636 258.435 459.636C261.89 459.636 264.602 460.394 266.572 461.909C268.556 463.424 269.966 465.424 270.799 467.909ZM310.131 460.091V464.636H292.04V460.091H310.131ZM297.313 451.727H302.676V485C302.676 486.515 302.896 487.652 303.335 488.409C303.79 489.152 304.366 489.652 305.063 489.909C305.775 490.152 306.525 490.273 307.313 490.273C307.904 490.273 308.388 490.242 308.767 490.182C309.146 490.106 309.449 490.045 309.676 490L310.767 494.818C310.404 494.955 309.896 495.091 309.245 495.227C308.593 495.379 307.767 495.455 306.767 495.455C305.252 495.455 303.767 495.129 302.313 494.477C300.873 493.826 299.676 492.833 298.722 491.5C297.782 490.167 297.313 488.485 297.313 486.455V451.727ZM323.033 474V495H317.669V448.455H323.033V465.545H323.487C324.305 463.742 325.533 462.311 327.169 461.25C328.821 460.174 331.018 459.636 333.76 459.636C336.139 459.636 338.222 460.114 340.01 461.068C341.798 462.008 343.184 463.455 344.169 465.409C345.169 467.348 345.669 469.818 345.669 472.818V495H340.305V473.182C340.305 470.409 339.586 468.265 338.146 466.75C336.722 465.22 334.745 464.455 332.215 464.455C330.457 464.455 328.881 464.826 327.487 465.568C326.108 466.311 325.018 467.394 324.215 468.818C323.427 470.242 323.033 471.97 323.033 474ZM368.838 495.727C365.474 495.727 362.573 494.985 360.133 493.5C357.709 492 355.838 489.909 354.52 487.227C353.217 484.53 352.565 481.394 352.565 477.818C352.565 474.242 353.217 471.091 354.52 468.364C355.838 465.621 357.671 463.485 360.02 461.955C362.383 460.409 365.141 459.636 368.293 459.636C370.111 459.636 371.906 459.939 373.679 460.545C375.452 461.152 377.065 462.136 378.52 463.5C379.974 464.848 381.133 466.636 381.997 468.864C382.861 471.091 383.293 473.833 383.293 477.091V479.364H356.383V474.727H377.838C377.838 472.758 377.444 471 376.656 469.455C375.883 467.909 374.777 466.689 373.338 465.795C371.914 464.902 370.232 464.455 368.293 464.455C366.156 464.455 364.308 464.985 362.747 466.045C361.202 467.091 360.012 468.455 359.179 470.136C358.346 471.818 357.929 473.621 357.929 475.545V478.636C357.929 481.273 358.383 483.508 359.293 485.341C360.217 487.159 361.497 488.545 363.133 489.5C364.77 490.439 366.671 490.909 368.838 490.909C370.247 490.909 371.52 490.712 372.656 490.318C373.808 489.909 374.8 489.303 375.633 488.5C376.467 487.682 377.111 486.667 377.565 485.455L382.747 486.909C382.202 488.667 381.285 490.212 379.997 491.545C378.709 492.864 377.118 493.894 375.224 494.636C373.33 495.364 371.202 495.727 368.838 495.727ZM420.073 495.727C417.164 495.727 414.596 494.992 412.369 493.523C410.142 492.038 408.399 489.947 407.142 487.25C405.884 484.538 405.255 481.333 405.255 477.636C405.255 473.97 405.884 470.788 407.142 468.091C408.399 465.394 410.149 463.311 412.392 461.841C414.634 460.371 417.225 459.636 420.164 459.636C422.437 459.636 424.233 460.015 425.551 460.773C426.884 461.515 427.899 462.364 428.596 463.318C429.308 464.258 429.861 465.03 430.255 465.636H430.71V448.455H436.073V495H430.892V489.636H430.255C429.861 490.273 429.301 491.076 428.573 492.045C427.846 493 426.808 493.856 425.46 494.614C424.111 495.356 422.316 495.727 420.073 495.727ZM420.801 490.909C422.952 490.909 424.77 490.348 426.255 489.227C427.74 488.091 428.869 486.523 429.642 484.523C430.414 482.508 430.801 480.182 430.801 477.545C430.801 474.939 430.422 472.659 429.664 470.705C428.907 468.735 427.786 467.205 426.301 466.114C424.816 465.008 422.983 464.455 420.801 464.455C418.528 464.455 416.634 465.038 415.119 466.205C413.619 467.356 412.49 468.924 411.733 470.909C410.99 472.879 410.619 475.091 410.619 477.545C410.619 480.03 410.998 482.288 411.755 484.318C412.528 486.333 413.664 487.939 415.164 489.136C416.679 490.318 418.558 490.909 420.801 490.909ZM445.362 495V460.091H450.725V495H445.362ZM448.089 454.273C447.043 454.273 446.142 453.917 445.384 453.205C444.642 452.492 444.271 451.636 444.271 450.636C444.271 449.636 444.642 448.78 445.384 448.068C446.142 447.356 447.043 447 448.089 447C449.134 447 450.028 447.356 450.771 448.068C451.528 448.78 451.907 449.636 451.907 450.636C451.907 451.636 451.528 452.492 450.771 453.205C450.028 453.917 449.134 454.273 448.089 454.273ZM474.815 460.091V464.636H455.996V460.091H474.815ZM461.633 495V455.273C461.633 453.273 462.102 451.606 463.042 450.273C463.981 448.939 465.201 447.939 466.701 447.273C468.201 446.606 469.784 446.273 471.451 446.273C472.769 446.273 473.845 446.379 474.678 446.591C475.512 446.803 476.133 447 476.542 447.182L474.996 451.818C474.724 451.727 474.345 451.614 473.86 451.477C473.39 451.341 472.769 451.273 471.996 451.273C470.224 451.273 468.943 451.72 468.155 452.614C467.383 453.508 466.996 454.818 466.996 456.545V495H461.633ZM496.597 460.091V464.636H477.779V460.091H496.597ZM483.415 495V455.273C483.415 453.273 483.885 451.606 484.824 450.273C485.764 448.939 486.983 447.939 488.483 447.273C489.983 446.606 491.567 446.273 493.233 446.273C494.552 446.273 495.627 446.379 496.461 446.591C497.294 446.803 497.915 447 498.324 447.182L496.779 451.818C496.506 451.727 496.127 451.614 495.642 451.477C495.173 451.341 494.552 451.273 493.779 451.273C492.006 451.273 490.726 451.72 489.938 452.614C489.165 453.508 488.779 454.818 488.779 456.545V495H483.415ZM516.033 495.727C512.669 495.727 509.768 494.985 507.328 493.5C504.904 492 503.033 489.909 501.715 487.227C500.412 484.53 499.76 481.394 499.76 477.818C499.76 474.242 500.412 471.091 501.715 468.364C503.033 465.621 504.866 463.485 507.215 461.955C509.578 460.409 512.336 459.636 515.487 459.636C517.306 459.636 519.101 459.939 520.874 460.545C522.647 461.152 524.26 462.136 525.715 463.5C527.169 464.848 528.328 466.636 529.192 468.864C530.056 471.091 530.487 473.833 530.487 477.091V479.364H503.578V474.727H525.033C525.033 472.758 524.639 471 523.851 469.455C523.078 467.909 521.972 466.689 520.533 465.795C519.109 464.902 517.427 464.455 515.487 464.455C513.351 464.455 511.503 464.985 509.942 466.045C508.397 467.091 507.207 468.455 506.374 470.136C505.541 471.818 505.124 473.621 505.124 475.545V478.636C505.124 481.273 505.578 483.508 506.487 485.341C507.412 487.159 508.692 488.545 510.328 489.5C511.965 490.439 513.866 490.909 516.033 490.909C517.442 490.909 518.715 490.712 519.851 490.318C521.003 489.909 521.995 489.303 522.828 488.5C523.662 487.682 524.306 486.667 524.76 485.455L529.942 486.909C529.397 488.667 528.48 490.212 527.192 491.545C525.904 492.864 524.313 493.894 522.419 494.636C520.525 495.364 518.397 495.727 516.033 495.727ZM537.367 495V460.091H542.548V465.364H542.912C543.548 463.636 544.7 462.235 546.367 461.159C548.033 460.083 549.912 459.545 552.003 459.545C552.397 459.545 552.889 459.553 553.48 459.568C554.071 459.583 554.518 459.606 554.821 459.636V465.091C554.639 465.045 554.223 464.977 553.571 464.886C552.935 464.78 552.261 464.727 551.548 464.727C549.851 464.727 548.336 465.083 547.003 465.795C545.685 466.492 544.639 467.462 543.867 468.705C543.109 469.932 542.73 471.333 542.73 472.909V495H537.367ZM573.473 495.727C570.109 495.727 567.208 494.985 564.768 493.5C562.344 492 560.473 489.909 559.155 487.227C557.852 484.53 557.2 481.394 557.2 477.818C557.2 474.242 557.852 471.091 559.155 468.364C560.473 465.621 562.306 463.485 564.655 461.955C567.018 460.409 569.776 459.636 572.927 459.636C574.746 459.636 576.541 459.939 578.314 460.545C580.087 461.152 581.7 462.136 583.155 463.5C584.609 464.848 585.768 466.636 586.632 468.864C587.496 471.091 587.927 473.833 587.927 477.091V479.364H561.018V474.727H582.473C582.473 472.758 582.079 471 581.291 469.455C580.518 467.909 579.412 466.689 577.973 465.795C576.549 464.902 574.867 464.455 572.927 464.455C570.791 464.455 568.943 464.985 567.382 466.045C565.837 467.091 564.647 468.455 563.814 470.136C562.981 471.818 562.564 473.621 562.564 475.545V478.636C562.564 481.273 563.018 483.508 563.927 485.341C564.852 487.159 566.132 488.545 567.768 489.5C569.405 490.439 571.306 490.909 573.473 490.909C574.882 490.909 576.155 490.712 577.291 490.318C578.443 489.909 579.435 489.303 580.268 488.5C581.102 487.682 581.746 486.667 582.2 485.455L587.382 486.909C586.837 488.667 585.92 490.212 584.632 491.545C583.344 492.864 581.753 493.894 579.859 494.636C577.965 495.364 575.837 495.727 573.473 495.727ZM600.17 474V495H594.807V460.091H599.988V465.545H600.443C601.261 463.773 602.504 462.348 604.17 461.273C605.837 460.182 607.988 459.636 610.625 459.636C612.988 459.636 615.057 460.121 616.829 461.091C618.602 462.045 619.981 463.5 620.966 465.455C621.951 467.394 622.443 469.848 622.443 472.818V495H617.079V473.182C617.079 470.439 616.367 468.303 614.943 466.773C613.519 465.227 611.564 464.455 609.079 464.455C607.367 464.455 605.837 464.826 604.488 465.568C603.155 466.311 602.102 467.394 601.329 468.818C600.557 470.242 600.17 471.97 600.17 474ZM645.146 495.727C641.873 495.727 639.055 494.955 636.691 493.409C634.328 491.864 632.51 489.735 631.237 487.023C629.964 484.311 629.328 481.212 629.328 477.727C629.328 474.182 629.979 471.053 631.282 468.341C632.6 465.614 634.434 463.485 636.782 461.955C639.146 460.409 641.903 459.636 645.055 459.636C647.51 459.636 649.722 460.091 651.691 461C653.661 461.909 655.275 463.182 656.532 464.818C657.79 466.455 658.57 468.364 658.873 470.545H653.51C653.1 468.955 652.191 467.545 650.782 466.318C649.388 465.076 647.51 464.455 645.146 464.455C643.055 464.455 641.222 465 639.646 466.091C638.085 467.167 636.866 468.689 635.987 470.659C635.123 472.614 634.691 474.909 634.691 477.545C634.691 480.242 635.116 482.591 635.964 484.591C636.828 486.591 638.04 488.144 639.6 489.25C641.176 490.356 643.025 490.909 645.146 490.909C646.54 490.909 647.805 490.667 648.941 490.182C650.078 489.697 651.04 489 651.828 488.091C652.616 487.182 653.176 486.091 653.51 484.818H658.873C658.57 486.879 657.82 488.735 656.623 490.386C655.441 492.023 653.873 493.326 651.919 494.295C649.979 495.25 647.722 495.727 645.146 495.727ZM680.07 495.727C676.707 495.727 673.805 494.985 671.366 493.5C668.942 492 667.07 489.909 665.752 487.227C664.449 484.53 663.798 481.394 663.798 477.818C663.798 474.242 664.449 471.091 665.752 468.364C667.07 465.621 668.904 463.485 671.252 461.955C673.616 460.409 676.374 459.636 679.525 459.636C681.343 459.636 683.139 459.939 684.911 460.545C686.684 461.152 688.298 462.136 689.752 463.5C691.207 464.848 692.366 466.636 693.23 468.864C694.093 471.091 694.525 473.833 694.525 477.091V479.364H667.616V474.727H689.07C689.07 472.758 688.677 471 687.889 469.455C687.116 467.909 686.01 466.689 684.57 465.795C683.146 464.902 681.464 464.455 679.525 464.455C677.389 464.455 675.54 464.985 673.98 466.045C672.434 467.091 671.245 468.455 670.411 470.136C669.578 471.818 669.161 473.621 669.161 475.545V478.636C669.161 481.273 669.616 483.508 670.525 485.341C671.449 487.159 672.73 488.545 674.366 489.5C676.002 490.439 677.904 490.909 680.07 490.909C681.48 490.909 682.752 490.712 683.889 490.318C685.04 489.909 686.033 489.303 686.866 488.5C687.699 487.682 688.343 486.667 688.798 485.455L693.98 486.909C693.434 488.667 692.517 490.212 691.23 491.545C689.942 492.864 688.351 493.894 686.457 494.636C684.563 495.364 682.434 495.727 680.07 495.727ZM708.404 481.909V481.636C708.434 478.742 708.737 476.439 709.313 474.727C709.889 473.015 710.707 471.629 711.768 470.568C712.828 469.508 714.101 468.53 715.586 467.636C716.48 467.091 717.283 466.447 717.995 465.705C718.707 464.947 719.268 464.076 719.677 463.091C720.101 462.106 720.313 461.015 720.313 459.818C720.313 458.333 719.965 457.045 719.268 455.955C718.571 454.864 717.639 454.023 716.472 453.432C715.306 452.841 714.01 452.545 712.586 452.545C711.343 452.545 710.147 452.803 708.995 453.318C707.843 453.833 706.881 454.644 706.109 455.75C705.336 456.856 704.889 458.303 704.768 460.091H699.04C699.162 457.515 699.828 455.311 701.04 453.477C702.268 451.644 703.881 450.242 705.881 449.273C707.897 448.303 710.131 447.818 712.586 447.818C715.253 447.818 717.571 448.348 719.54 449.409C721.525 450.47 723.056 451.924 724.131 453.773C725.222 455.621 725.768 457.727 725.768 460.091C725.768 461.758 725.51 463.265 724.995 464.614C724.495 465.962 723.768 467.167 722.813 468.227C721.874 469.288 720.737 470.227 719.404 471.045C718.071 471.879 717.003 472.758 716.2 473.682C715.397 474.591 714.813 475.674 714.45 476.932C714.086 478.189 713.889 479.758 713.859 481.636V481.909H708.404ZM711.313 495.364C710.192 495.364 709.23 494.962 708.427 494.159C707.624 493.356 707.222 492.394 707.222 491.273C707.222 490.152 707.624 489.189 708.427 488.386C709.23 487.583 710.192 487.182 711.313 487.182C712.434 487.182 713.397 487.583 714.2 488.386C715.003 489.189 715.404 490.152 715.404 491.273C715.404 492.015 715.215 492.697 714.836 493.318C714.472 493.939 713.98 494.439 713.359 494.818C712.753 495.182 712.071 495.364 711.313 495.364Z" fill="white"/>
<path d="M60.8523 617.125V625H58.8409V611.909H60.7841V613.955H60.9545C61.2614 613.29 61.7273 612.756 62.3523 612.352C62.9773 611.943 63.7841 611.739 64.7727 611.739C65.6591 611.739 66.4347 611.92 67.0994 612.284C67.7642 612.642 68.2813 613.188 68.6506 613.92C69.0199 614.648 69.2045 615.568 69.2045 616.682V625H67.1932V616.818C67.1932 615.79 66.9261 614.989 66.392 614.415C65.858 613.835 65.125 613.545 64.1932 613.545C63.5511 613.545 62.9773 613.685 62.4716 613.963C61.9716 614.241 61.5767 614.648 61.2869 615.182C60.9972 615.716 60.8523 616.364 60.8523 617.125ZM77.8886 625.273C76.6272 625.273 75.5392 624.994 74.6244 624.438C73.7153 623.875 73.0136 623.091 72.5193 622.085C72.0307 621.074 71.7863 619.898 71.7863 618.557C71.7863 617.216 72.0307 616.034 72.5193 615.011C73.0136 613.983 73.7011 613.182 74.5818 612.608C75.4682 612.028 76.5022 611.739 77.6841 611.739C78.3659 611.739 79.0392 611.852 79.7039 612.08C80.3687 612.307 80.9738 612.676 81.5193 613.188C82.0647 613.693 82.4994 614.364 82.8233 615.199C83.1471 616.034 83.3091 617.062 83.3091 618.284V619.136H73.2182V617.398H81.2636C81.2636 616.659 81.1159 616 80.8204 615.42C80.5307 614.841 80.1159 614.384 79.5761 614.048C79.042 613.713 78.4113 613.545 77.6841 613.545C76.8829 613.545 76.1897 613.744 75.6045 614.142C75.025 614.534 74.5789 615.045 74.2664 615.676C73.9539 616.307 73.7977 616.983 73.7977 617.705V618.864C73.7977 619.852 73.9682 620.69 74.3091 621.378C74.6557 622.06 75.1358 622.58 75.7494 622.938C76.363 623.29 77.0761 623.466 77.8886 623.466C78.417 623.466 78.8943 623.392 79.3204 623.244C79.7522 623.091 80.1244 622.864 80.4369 622.562C80.7494 622.256 80.9909 621.875 81.1613 621.42L83.1045 621.966C82.9 622.625 82.5562 623.205 82.0733 623.705C81.5903 624.199 80.9937 624.585 80.2835 624.864C79.5733 625.136 78.775 625.273 77.8886 625.273ZM91.2069 625.273C90.0251 625.273 88.9882 624.991 88.0961 624.429C87.2097 623.866 86.5166 623.08 86.0166 622.068C85.5222 621.057 85.2751 619.875 85.2751 618.523C85.2751 617.159 85.5222 615.969 86.0166 614.952C86.5166 613.935 87.2097 613.145 88.0961 612.582C88.9882 612.02 90.0251 611.739 91.2069 611.739C92.3887 611.739 93.4228 612.02 94.3092 612.582C95.2012 613.145 95.8944 613.935 96.3887 614.952C96.8887 615.969 97.1387 617.159 97.1387 618.523C97.1387 619.875 96.8887 621.057 96.3887 622.068C95.8944 623.08 95.2012 623.866 94.3092 624.429C93.4228 624.991 92.3887 625.273 91.2069 625.273ZM91.2069 623.466C92.1046 623.466 92.8433 623.236 93.4228 622.776C94.0024 622.315 94.4313 621.71 94.7097 620.96C94.9882 620.21 95.1274 619.398 95.1274 618.523C95.1274 617.648 94.9882 616.832 94.7097 616.077C94.4313 615.321 94.0024 614.71 93.4228 614.244C92.8433 613.778 92.1046 613.545 91.2069 613.545C90.3092 613.545 89.5705 613.778 88.991 614.244C88.4115 614.71 87.9825 615.321 87.7041 616.077C87.4257 616.832 87.2864 617.648 87.2864 618.523C87.2864 619.398 87.4257 620.21 87.7041 620.96C87.9825 621.71 88.4115 622.315 88.991 622.776C89.5705 623.236 90.3092 623.466 91.2069 623.466ZM109.002 614.841L107.195 615.352C107.081 615.051 106.914 614.759 106.692 614.474C106.476 614.185 106.181 613.946 105.806 613.759C105.431 613.571 104.951 613.477 104.365 613.477C103.564 613.477 102.897 613.662 102.363 614.031C101.834 614.395 101.57 614.858 101.57 615.42C101.57 615.92 101.752 616.315 102.115 616.605C102.479 616.895 103.047 617.136 103.82 617.33L105.763 617.807C106.934 618.091 107.806 618.526 108.38 619.111C108.953 619.69 109.24 620.437 109.24 621.352C109.24 622.102 109.024 622.773 108.593 623.364C108.167 623.955 107.57 624.42 106.803 624.761C106.036 625.102 105.144 625.273 104.127 625.273C102.792 625.273 101.686 624.983 100.811 624.403C99.9364 623.824 99.3824 622.977 99.1495 621.864L101.059 621.386C101.24 622.091 101.584 622.619 102.09 622.972C102.601 623.324 103.269 623.5 104.093 623.5C105.03 623.5 105.774 623.301 106.326 622.903C106.882 622.5 107.161 622.017 107.161 621.455C107.161 621 107.002 620.619 106.684 620.312C106.365 620 105.877 619.767 105.218 619.614L103.036 619.102C101.837 618.818 100.956 618.378 100.394 617.781C99.837 617.179 99.5586 616.426 99.5586 615.523C99.5586 614.784 99.766 614.131 100.181 613.562C100.601 612.994 101.172 612.548 101.894 612.224C102.621 611.901 103.445 611.739 104.365 611.739C105.661 611.739 106.678 612.023 107.417 612.591C108.161 613.159 108.689 613.909 109.002 614.841ZM113.084 629.909C112.743 629.909 112.439 629.881 112.172 629.824C111.905 629.773 111.72 629.722 111.618 629.67L112.129 627.898C112.618 628.023 113.049 628.068 113.424 628.034C113.799 628 114.132 627.832 114.422 627.531C114.717 627.236 114.987 626.756 115.231 626.091L115.606 625.068L110.765 611.909H112.947L116.561 622.341H116.697L120.311 611.909H122.493L116.936 626.909C116.686 627.585 116.376 628.145 116.007 628.588C115.638 629.037 115.209 629.369 114.72 629.585C114.237 629.801 113.692 629.909 113.084 629.909ZM126.679 617.125V625H124.667V611.909H126.611V613.955H126.781C127.088 613.29 127.554 612.756 128.179 612.352C128.804 611.943 129.611 611.739 130.599 611.739C131.486 611.739 132.261 611.92 132.926 612.284C133.591 612.642 134.108 613.188 134.477 613.92C134.846 614.648 135.031 615.568 135.031 616.682V625H133.02V616.818C133.02 615.79 132.753 614.989 132.219 614.415C131.685 613.835 130.952 613.545 130.02 613.545C129.378 613.545 128.804 613.685 128.298 613.963C127.798 614.241 127.403 614.648 127.113 615.182C126.824 615.716 126.679 616.364 126.679 617.125ZM143.545 625.273C142.317 625.273 141.261 624.983 140.374 624.403C139.488 623.824 138.806 623.026 138.329 622.009C137.852 620.991 137.613 619.83 137.613 618.523C137.613 617.193 137.857 616.02 138.346 615.003C138.84 613.98 139.528 613.182 140.408 612.608C141.295 612.028 142.329 611.739 143.511 611.739C144.431 611.739 145.261 611.909 145.999 612.25C146.738 612.591 147.343 613.068 147.815 613.682C148.286 614.295 148.579 615.011 148.692 615.83H146.681C146.528 615.233 146.187 614.705 145.658 614.244C145.136 613.778 144.431 613.545 143.545 613.545C142.761 613.545 142.073 613.75 141.482 614.159C140.897 614.562 140.44 615.134 140.11 615.872C139.786 616.605 139.624 617.466 139.624 618.455C139.624 619.466 139.783 620.347 140.102 621.097C140.425 621.847 140.88 622.429 141.465 622.844C142.056 623.259 142.749 623.466 143.545 623.466C144.067 623.466 144.542 623.375 144.968 623.193C145.394 623.011 145.755 622.75 146.05 622.409C146.346 622.068 146.556 621.659 146.681 621.182H148.692C148.579 621.955 148.298 622.651 147.849 623.27C147.406 623.884 146.817 624.372 146.084 624.736C145.357 625.094 144.511 625.273 143.545 625.273ZM152.619 625.136C152.198 625.136 151.837 624.986 151.536 624.685C151.235 624.384 151.085 624.023 151.085 623.602C151.085 623.182 151.235 622.821 151.536 622.52C151.837 622.219 152.198 622.068 152.619 622.068C153.039 622.068 153.4 622.219 153.701 622.52C154.002 622.821 154.153 623.182 154.153 623.602C154.153 623.881 154.082 624.136 153.94 624.369C153.803 624.602 153.619 624.79 153.386 624.932C153.158 625.068 152.903 625.136 152.619 625.136ZM162.225 625.273C161.134 625.273 160.171 624.997 159.336 624.446C158.501 623.889 157.848 623.105 157.376 622.094C156.904 621.077 156.669 619.875 156.669 618.489C156.669 617.114 156.904 615.92 157.376 614.909C157.848 613.898 158.504 613.116 159.345 612.565C160.186 612.014 161.157 611.739 162.259 611.739C163.112 611.739 163.785 611.881 164.279 612.165C164.779 612.443 165.16 612.761 165.421 613.119C165.688 613.472 165.896 613.761 166.044 613.989H166.214V607.545H168.225V625H166.282V622.989H166.044C165.896 623.227 165.686 623.528 165.413 623.892C165.14 624.25 164.751 624.571 164.245 624.855C163.74 625.134 163.066 625.273 162.225 625.273ZM162.498 623.466C163.305 623.466 163.987 623.256 164.544 622.835C165.1 622.409 165.524 621.821 165.813 621.071C166.103 620.315 166.248 619.443 166.248 618.455C166.248 617.477 166.106 616.622 165.822 615.889C165.538 615.151 165.117 614.577 164.561 614.168C164.004 613.753 163.316 613.545 162.498 613.545C161.646 613.545 160.936 613.764 160.367 614.202C159.805 614.634 159.382 615.222 159.098 615.966C158.819 616.705 158.68 617.534 158.68 618.455C158.68 619.386 158.822 620.233 159.106 620.994C159.396 621.75 159.822 622.352 160.384 622.801C160.953 623.244 161.657 623.466 162.498 623.466ZM177.197 625.273C175.936 625.273 174.848 624.994 173.933 624.438C173.024 623.875 172.322 623.091 171.828 622.085C171.339 621.074 171.095 619.898 171.095 618.557C171.095 617.216 171.339 616.034 171.828 615.011C172.322 613.983 173.01 613.182 173.89 612.608C174.777 612.028 175.811 611.739 176.993 611.739C177.674 611.739 178.348 611.852 179.012 612.08C179.677 612.307 180.282 612.676 180.828 613.188C181.373 613.693 181.808 614.364 182.132 615.199C182.456 616.034 182.618 617.062 182.618 618.284V619.136H172.527V617.398H180.572C180.572 616.659 180.424 616 180.129 615.42C179.839 614.841 179.424 614.384 178.885 614.048C178.35 613.713 177.72 613.545 176.993 613.545C176.191 613.545 175.498 613.744 174.913 614.142C174.333 614.534 173.887 615.045 173.575 615.676C173.262 616.307 173.106 616.983 173.106 617.705V618.864C173.106 619.852 173.277 620.69 173.618 621.378C173.964 622.06 174.444 622.58 175.058 622.938C175.671 623.29 176.385 623.466 177.197 623.466C177.725 623.466 178.203 623.392 178.629 623.244C179.061 623.091 179.433 622.864 179.745 622.562C180.058 622.256 180.299 621.875 180.47 621.42L182.413 621.966C182.208 622.625 181.865 623.205 181.382 623.705C180.899 624.199 180.302 624.585 179.592 624.864C178.882 625.136 178.083 625.273 177.197 625.273ZM195.503 611.909L190.662 625H188.617L183.776 611.909H185.958L189.571 622.341H189.708L193.321 611.909H195.503Z" fill="#777777"/>
<path d="M758.125 630.182C757.153 630.182 756.318 630.057 755.619 629.807C754.92 629.562 754.338 629.239 753.872 628.835C753.412 628.438 753.045 628.011 752.773 627.557L754.375 626.432C754.557 626.67 754.787 626.943 755.065 627.25C755.344 627.562 755.724 627.832 756.207 628.06C756.696 628.293 757.335 628.409 758.125 628.409C759.182 628.409 760.054 628.153 760.741 627.642C761.429 627.131 761.773 626.33 761.773 625.239V622.58H761.602C761.455 622.818 761.244 623.114 760.972 623.466C760.705 623.812 760.318 624.122 759.812 624.395C759.312 624.662 758.636 624.795 757.784 624.795C756.727 624.795 755.778 624.545 754.938 624.045C754.102 623.545 753.44 622.818 752.952 621.864C752.469 620.909 752.227 619.75 752.227 618.386C752.227 617.045 752.463 615.878 752.935 614.884C753.406 613.884 754.063 613.111 754.903 612.565C755.744 612.014 756.716 611.739 757.818 611.739C758.67 611.739 759.347 611.881 759.847 612.165C760.352 612.443 760.739 612.761 761.006 613.119C761.278 613.472 761.489 613.761 761.636 613.989H761.841V611.909H763.784V625.375C763.784 626.5 763.528 627.415 763.017 628.119C762.511 628.83 761.83 629.349 760.972 629.679C760.119 630.014 759.17 630.182 758.125 630.182ZM758.057 622.989C758.864 622.989 759.545 622.804 760.102 622.435C760.659 622.065 761.082 621.534 761.372 620.841C761.662 620.148 761.807 619.318 761.807 618.352C761.807 617.409 761.665 616.577 761.381 615.855C761.097 615.134 760.676 614.568 760.119 614.159C759.563 613.75 758.875 613.545 758.057 613.545C757.205 613.545 756.494 613.761 755.926 614.193C755.364 614.625 754.94 615.205 754.656 615.932C754.378 616.659 754.239 617.466 754.239 618.352C754.239 619.261 754.381 620.065 754.665 620.764C754.955 621.457 755.381 622.003 755.943 622.401C756.511 622.793 757.216 622.989 758.057 622.989ZM766.986 625V611.909H768.997V625H766.986ZM768.009 609.727C767.617 609.727 767.279 609.594 766.994 609.327C766.716 609.06 766.577 608.739 766.577 608.364C766.577 607.989 766.716 607.668 766.994 607.401C767.279 607.134 767.617 607 768.009 607C768.401 607 768.736 607.134 769.014 607.401C769.298 607.668 769.44 607.989 769.44 608.364C769.44 608.739 769.298 609.06 769.014 609.327C768.736 609.594 768.401 609.727 768.009 609.727ZM777.894 611.909V613.614H771.11V611.909H777.894ZM773.088 608.773H775.099V621.25C775.099 621.818 775.181 622.244 775.346 622.528C775.517 622.807 775.732 622.994 775.994 623.091C776.261 623.182 776.542 623.227 776.838 623.227C777.059 623.227 777.241 623.216 777.383 623.193C777.525 623.165 777.639 623.142 777.724 623.125L778.133 624.932C777.997 624.983 777.806 625.034 777.562 625.085C777.318 625.142 777.008 625.17 776.633 625.17C776.065 625.17 775.508 625.048 774.963 624.804C774.423 624.56 773.974 624.188 773.616 623.688C773.264 623.188 773.088 622.557 773.088 621.795V608.773ZM782.733 617.125V625H780.721V607.545H782.733V613.955H782.903C783.21 613.278 783.67 612.741 784.284 612.344C784.903 611.94 785.727 611.739 786.755 611.739C787.647 611.739 788.429 611.918 789.099 612.276C789.77 612.628 790.289 613.17 790.659 613.903C791.034 614.631 791.221 615.557 791.221 616.682V625H789.21V616.818C789.21 615.778 788.94 614.974 788.4 614.406C787.866 613.832 787.125 613.545 786.176 613.545C785.517 613.545 784.926 613.685 784.403 613.963C783.886 614.241 783.477 614.648 783.176 615.182C782.88 615.716 782.733 616.364 782.733 617.125ZM802.671 619.648V611.909H804.682V625H802.671V622.784H802.535C802.228 623.449 801.75 624.014 801.103 624.48C800.455 624.94 799.637 625.17 798.648 625.17C797.83 625.17 797.103 624.991 796.466 624.634C795.83 624.27 795.33 623.724 794.966 622.997C794.603 622.264 794.421 621.341 794.421 620.227V611.909H796.432V620.091C796.432 621.045 796.699 621.807 797.233 622.375C797.773 622.943 798.461 623.227 799.296 623.227C799.796 623.227 800.304 623.099 800.821 622.844C801.344 622.588 801.782 622.196 802.134 621.668C802.492 621.139 802.671 620.466 802.671 619.648ZM808.159 625V607.545H810.17V613.989H810.341C810.488 613.761 810.693 613.472 810.954 613.119C811.221 612.761 811.602 612.443 812.096 612.165C812.596 611.881 813.273 611.739 814.125 611.739C815.227 611.739 816.199 612.014 817.04 612.565C817.881 613.116 818.537 613.898 819.008 614.909C819.48 615.92 819.716 617.114 819.716 618.489C819.716 619.875 819.48 621.077 819.008 622.094C818.537 623.105 817.883 623.889 817.048 624.446C816.213 624.997 815.25 625.273 814.159 625.273C813.318 625.273 812.645 625.134 812.139 624.855C811.633 624.571 811.244 624.25 810.971 623.892C810.699 623.528 810.488 623.227 810.341 622.989H810.102V625H808.159ZM810.136 618.455C810.136 619.443 810.281 620.315 810.571 621.071C810.861 621.821 811.284 622.409 811.841 622.835C812.398 623.256 813.079 623.466 813.886 623.466C814.727 623.466 815.429 623.244 815.991 622.801C816.56 622.352 816.986 621.75 817.27 620.994C817.56 620.233 817.704 619.386 817.704 618.455C817.704 617.534 817.562 616.705 817.278 615.966C817 615.222 816.577 614.634 816.008 614.202C815.446 613.764 814.738 613.545 813.886 613.545C813.068 613.545 812.381 613.753 811.824 614.168C811.267 614.577 810.846 615.151 810.562 615.889C810.278 616.622 810.136 617.477 810.136 618.455ZM823.778 625.136C823.358 625.136 822.997 624.986 822.696 624.685C822.395 624.384 822.244 624.023 822.244 623.602C822.244 623.182 822.395 622.821 822.696 622.52C822.997 622.219 823.358 622.068 823.778 622.068C824.199 622.068 824.56 622.219 824.861 622.52C825.162 622.821 825.312 623.182 825.312 623.602C825.312 623.881 825.241 624.136 825.099 624.369C824.963 624.602 824.778 624.79 824.545 624.932C824.318 625.068 824.062 625.136 823.778 625.136ZM833.76 625.273C832.533 625.273 831.476 624.983 830.59 624.403C829.703 623.824 829.021 623.026 828.544 622.009C828.067 620.991 827.828 619.83 827.828 618.523C827.828 617.193 828.073 616.02 828.561 615.003C829.055 613.98 829.743 613.182 830.624 612.608C831.51 612.028 832.544 611.739 833.726 611.739C834.646 611.739 835.476 611.909 836.215 612.25C836.953 612.591 837.558 613.068 838.03 613.682C838.502 614.295 838.794 615.011 838.908 615.83H836.896C836.743 615.233 836.402 614.705 835.874 614.244C835.351 613.778 834.646 613.545 833.76 613.545C832.976 613.545 832.288 613.75 831.698 614.159C831.112 614.562 830.655 615.134 830.325 615.872C830.002 616.605 829.84 617.466 829.84 618.455C829.84 619.466 829.999 620.347 830.317 621.097C830.641 621.847 831.095 622.429 831.68 622.844C832.271 623.259 832.965 623.466 833.76 623.466C834.283 623.466 834.757 623.375 835.183 623.193C835.609 623.011 835.97 622.75 836.266 622.409C836.561 622.068 836.771 621.659 836.896 621.182H838.908C838.794 621.955 838.513 622.651 838.064 623.27C837.621 623.884 837.033 624.372 836.3 624.736C835.573 625.094 834.726 625.273 833.76 625.273ZM846.686 625.273C845.504 625.273 844.468 624.991 843.575 624.429C842.689 623.866 841.996 623.08 841.496 622.068C841.002 621.057 840.754 619.875 840.754 618.523C840.754 617.159 841.002 615.969 841.496 614.952C841.996 613.935 842.689 613.145 843.575 612.582C844.468 612.02 845.504 611.739 846.686 611.739C847.868 611.739 848.902 612.02 849.789 612.582C850.681 613.145 851.374 613.935 851.868 614.952C852.368 615.969 852.618 617.159 852.618 618.523C852.618 619.875 852.368 621.057 851.868 622.068C851.374 623.08 850.681 623.866 849.789 624.429C848.902 624.991 847.868 625.273 846.686 625.273ZM846.686 623.466C847.584 623.466 848.323 623.236 848.902 622.776C849.482 622.315 849.911 621.71 850.189 620.96C850.468 620.21 850.607 619.398 850.607 618.523C850.607 617.648 850.468 616.832 850.189 616.077C849.911 615.321 849.482 614.71 848.902 614.244C848.323 613.778 847.584 613.545 846.686 613.545C845.789 613.545 845.05 613.778 844.47 614.244C843.891 614.71 843.462 615.321 843.183 616.077C842.905 616.832 842.766 617.648 842.766 618.523C842.766 619.398 842.905 620.21 843.183 620.96C843.462 621.71 843.891 622.315 844.47 622.776C845.05 623.236 845.789 623.466 846.686 623.466ZM855.208 625V611.909H857.152V613.955H857.322C857.595 613.256 858.035 612.713 858.643 612.327C859.251 611.935 859.981 611.739 860.833 611.739C861.697 611.739 862.416 611.935 862.99 612.327C863.569 612.713 864.021 613.256 864.345 613.955H864.481C864.816 613.278 865.319 612.741 865.99 612.344C866.66 611.94 867.464 611.739 868.402 611.739C869.572 611.739 870.529 612.105 871.274 612.838C872.018 613.565 872.39 614.699 872.39 616.239V625H870.379V616.239C870.379 615.273 870.115 614.582 869.586 614.168C869.058 613.753 868.436 613.545 867.72 613.545C866.799 613.545 866.086 613.824 865.581 614.381C865.075 614.932 864.822 615.631 864.822 616.477V625H862.777V616.034C862.777 615.29 862.535 614.69 862.052 614.236C861.569 613.776 860.947 613.545 860.186 613.545C859.663 613.545 859.174 613.685 858.72 613.963C858.271 614.241 857.907 614.628 857.629 615.122C857.356 615.611 857.22 616.176 857.22 616.818V625H855.208ZM881.758 606.727L876.133 627.625H874.292L879.917 606.727H881.758ZM885.674 617.125V625H883.662V611.909H885.606V613.955H885.776C886.083 613.29 886.549 612.756 887.174 612.352C887.799 611.943 888.606 611.739 889.594 611.739C890.481 611.739 891.256 611.92 891.921 612.284C892.586 612.642 893.103 613.188 893.472 613.92C893.841 614.648 894.026 615.568 894.026 616.682V625H892.015V616.818C892.015 615.79 891.748 614.989 891.214 614.415C890.68 613.835 889.947 613.545 889.015 613.545C888.373 613.545 887.799 613.685 887.293 613.963C886.793 614.241 886.398 614.648 886.108 615.182C885.819 615.716 885.674 616.364 885.674 617.125ZM905.472 619.648V611.909H907.483V625H905.472V622.784H905.335C905.028 623.449 904.551 624.014 903.903 624.48C903.256 624.94 902.437 625.17 901.449 625.17C900.631 625.17 899.903 624.991 899.267 624.634C898.631 624.27 898.131 623.724 897.767 622.997C897.403 622.264 897.222 621.341 897.222 620.227V611.909H899.233V620.091C899.233 621.045 899.5 621.807 900.034 622.375C900.574 622.943 901.261 623.227 902.097 623.227C902.597 623.227 903.105 623.099 903.622 622.844C904.145 622.588 904.582 622.196 904.935 621.668C905.293 621.139 905.472 620.466 905.472 619.648ZM916.005 625.273C914.778 625.273 913.721 624.983 912.835 624.403C911.948 623.824 911.266 623.026 910.789 622.009C910.312 620.991 910.073 619.83 910.073 618.523C910.073 617.193 910.318 616.02 910.806 615.003C911.3 613.98 911.988 613.182 912.869 612.608C913.755 612.028 914.789 611.739 915.971 611.739C916.891 611.739 917.721 611.909 918.46 612.25C919.198 612.591 919.803 613.068 920.275 613.682C920.747 614.295 921.039 615.011 921.153 615.83H919.141C918.988 615.233 918.647 614.705 918.119 614.244C917.596 613.778 916.891 613.545 916.005 613.545C915.221 613.545 914.533 613.75 913.943 614.159C913.357 614.562 912.9 615.134 912.57 615.872C912.247 616.605 912.085 617.466 912.085 618.455C912.085 619.466 912.244 620.347 912.562 621.097C912.886 621.847 913.34 622.429 913.925 622.844C914.516 623.259 915.21 623.466 916.005 623.466C916.528 623.466 917.002 623.375 917.428 623.193C917.854 623.011 918.215 622.75 918.511 622.409C918.806 622.068 919.016 621.659 919.141 621.182H921.153C921.039 621.955 920.758 622.651 920.309 623.27C919.866 623.884 919.278 624.372 918.545 624.736C917.818 625.094 916.971 625.273 916.005 625.273ZM925.624 607.545V625H923.613V607.545H925.624ZM934.317 625.273C933.056 625.273 931.968 624.994 931.053 624.438C930.144 623.875 929.442 623.091 928.948 622.085C928.459 621.074 928.215 619.898 928.215 618.557C928.215 617.216 928.459 616.034 928.948 615.011C929.442 613.983 930.13 613.182 931.01 612.608C931.897 612.028 932.931 611.739 934.113 611.739C934.794 611.739 935.468 611.852 936.132 612.08C936.797 612.307 937.402 612.676 937.948 613.188C938.493 613.693 938.928 614.364 939.252 615.199C939.576 616.034 939.738 617.062 939.738 618.284V619.136H929.647V617.398H937.692C937.692 616.659 937.544 616 937.249 615.42C936.959 614.841 936.544 614.384 936.005 614.048C935.47 613.713 934.84 613.545 934.113 613.545C933.311 613.545 932.618 613.744 932.033 614.142C931.453 614.534 931.007 615.045 930.695 615.676C930.382 616.307 930.226 616.983 930.226 617.705V618.864C930.226 619.852 930.397 620.69 930.738 621.378C931.084 622.06 931.564 622.58 932.178 622.938C932.791 623.29 933.505 623.466 934.317 623.466C934.845 623.466 935.323 623.392 935.749 623.244C936.181 623.091 936.553 622.864 936.865 622.562C937.178 622.256 937.419 621.875 937.59 621.42L939.533 621.966C939.328 622.625 938.985 623.205 938.502 623.705C938.019 624.199 937.422 624.585 936.712 624.864C936.002 625.136 935.203 625.273 934.317 625.273ZM950.567 619.648V611.909H952.579V625H950.567V622.784H950.431C950.124 623.449 949.647 624.014 948.999 624.48C948.351 624.94 947.533 625.17 946.544 625.17C945.726 625.17 944.999 624.991 944.363 624.634C943.726 624.27 943.226 623.724 942.863 622.997C942.499 622.264 942.317 621.341 942.317 620.227V611.909H944.329V620.091C944.329 621.045 944.596 621.807 945.13 622.375C945.669 622.943 946.357 623.227 947.192 623.227C947.692 623.227 948.201 623.099 948.718 622.844C949.24 622.588 949.678 622.196 950.03 621.668C950.388 621.139 950.567 620.466 950.567 619.648ZM965.055 614.841L963.248 615.352C963.135 615.051 962.967 614.759 962.746 614.474C962.53 614.185 962.234 613.946 961.859 613.759C961.484 613.571 961.004 613.477 960.419 613.477C959.618 613.477 958.95 613.662 958.416 614.031C957.888 614.395 957.623 614.858 957.623 615.42C957.623 615.92 957.805 616.315 958.169 616.605C958.532 616.895 959.101 617.136 959.873 617.33L961.817 617.807C962.987 618.091 963.859 618.526 964.433 619.111C965.007 619.69 965.294 620.437 965.294 621.352C965.294 622.102 965.078 622.773 964.646 623.364C964.22 623.955 963.623 624.42 962.856 624.761C962.089 625.102 961.197 625.273 960.18 625.273C958.845 625.273 957.74 624.983 956.865 624.403C955.99 623.824 955.436 622.977 955.203 621.864L957.112 621.386C957.294 622.091 957.638 622.619 958.143 622.972C958.655 623.324 959.322 623.5 960.146 623.5C961.084 623.5 961.828 623.301 962.379 622.903C962.936 622.5 963.214 622.017 963.214 621.455C963.214 621 963.055 620.619 962.737 620.312C962.419 620 961.93 619.767 961.271 619.614L959.089 619.102C957.89 618.818 957.01 618.378 956.447 617.781C955.89 617.179 955.612 616.426 955.612 615.523C955.612 614.784 955.819 614.131 956.234 613.562C956.655 612.994 957.226 612.548 957.947 612.224C958.675 611.901 959.498 611.739 960.419 611.739C961.714 611.739 962.731 612.023 963.47 612.591C964.214 613.159 964.743 613.909 965.055 614.841ZM973.16 625.273C971.932 625.273 970.876 624.983 969.989 624.403C969.103 623.824 968.421 623.026 967.944 622.009C967.467 620.991 967.228 619.83 967.228 618.523C967.228 617.193 967.472 616.02 967.961 615.003C968.455 613.98 969.143 613.182 970.023 612.608C970.91 612.028 971.944 611.739 973.126 611.739C974.046 611.739 974.876 611.909 975.614 612.25C976.353 612.591 976.958 613.068 977.43 613.682C977.901 614.295 978.194 615.011 978.307 615.83H976.296C976.143 615.233 975.802 614.705 975.273 614.244C974.751 613.778 974.046 613.545 973.16 613.545C972.376 613.545 971.688 613.75 971.097 614.159C970.512 614.562 970.055 615.134 969.725 615.872C969.401 616.605 969.239 617.466 969.239 618.455C969.239 619.466 969.398 620.347 969.717 621.097C970.04 621.847 970.495 622.429 971.08 622.844C971.671 623.259 972.364 623.466 973.16 623.466C973.682 623.466 974.157 623.375 974.583 623.193C975.009 623.011 975.37 622.75 975.665 622.409C975.961 622.068 976.171 621.659 976.296 621.182H978.307C978.194 621.955 977.913 622.651 977.464 623.27C977.021 623.884 976.432 624.372 975.699 624.736C974.972 625.094 974.126 625.273 973.16 625.273ZM982.779 607.545V625H980.768V607.545H982.779ZM991.301 625.273C990.119 625.273 989.083 624.991 988.19 624.429C987.304 623.866 986.611 623.08 986.111 622.068C985.617 621.057 985.369 619.875 985.369 618.523C985.369 617.159 985.617 615.969 986.111 614.952C986.611 613.935 987.304 613.145 988.19 612.582C989.083 612.02 990.119 611.739 991.301 611.739C992.483 611.739 993.517 612.02 994.404 612.582C995.296 613.145 995.989 613.935 996.483 614.952C996.983 615.969 997.233 617.159 997.233 618.523C997.233 619.875 996.983 621.057 996.483 622.068C995.989 623.08 995.296 623.866 994.404 624.429C993.517 624.991 992.483 625.273 991.301 625.273ZM991.301 623.466C992.199 623.466 992.938 623.236 993.517 622.776C994.097 622.315 994.526 621.71 994.804 620.96C995.083 620.21 995.222 619.398 995.222 618.523C995.222 617.648 995.083 616.832 994.804 616.077C994.526 615.321 994.097 614.71 993.517 614.244C992.938 613.778 992.199 613.545 991.301 613.545C990.404 613.545 989.665 613.778 989.085 614.244C988.506 614.71 988.077 615.321 987.798 616.077C987.52 616.832 987.381 617.648 987.381 618.523C987.381 619.398 987.52 620.21 987.798 620.96C988.077 621.71 988.506 622.315 989.085 622.776C989.665 623.236 990.404 623.466 991.301 623.466ZM1008.07 619.648V611.909H1010.08V625H1008.07V622.784H1007.94C1007.63 623.449 1007.15 624.014 1006.51 624.48C1005.86 624.94 1005.04 625.17 1004.05 625.17C1003.23 625.17 1002.51 624.991 1001.87 624.634C1001.23 624.27 1000.73 623.724 1000.37 622.997C1000.01 622.264 999.823 621.341 999.823 620.227V611.909H1001.83V620.091C1001.83 621.045 1002.1 621.807 1002.64 622.375C1003.18 622.943 1003.86 623.227 1004.7 623.227C1005.2 623.227 1005.71 623.099 1006.22 622.844C1006.75 622.588 1007.18 622.196 1007.54 621.668C1007.89 621.139 1008.07 620.466 1008.07 619.648ZM1018.23 625.273C1017.14 625.273 1016.18 624.997 1015.34 624.446C1014.51 623.889 1013.85 623.105 1013.38 622.094C1012.91 621.077 1012.68 619.875 1012.68 618.489C1012.68 617.114 1012.91 615.92 1013.38 614.909C1013.85 613.898 1014.51 613.116 1015.35 612.565C1016.19 612.014 1017.16 611.739 1018.27 611.739C1019.12 611.739 1019.79 611.881 1020.29 612.165C1020.79 612.443 1021.17 612.761 1021.43 613.119C1021.69 613.472 1021.9 613.761 1022.05 613.989H1022.22V607.545H1024.23V625H1022.29V622.989H1022.05C1021.9 623.227 1021.69 623.528 1021.42 623.892C1021.15 624.25 1020.76 624.571 1020.25 624.855C1019.75 625.134 1019.07 625.273 1018.23 625.273ZM1018.5 623.466C1019.31 623.466 1019.99 623.256 1020.55 622.835C1021.11 622.409 1021.53 621.821 1021.82 621.071C1022.11 620.315 1022.25 619.443 1022.25 618.455C1022.25 617.477 1022.11 616.622 1021.83 615.889C1021.54 615.151 1021.12 614.577 1020.57 614.168C1020.01 613.753 1019.32 613.545 1018.5 613.545C1017.65 613.545 1016.94 613.764 1016.37 614.202C1015.81 614.634 1015.39 615.222 1015.1 615.966C1014.83 616.705 1014.69 617.534 1014.69 618.455C1014.69 619.386 1014.83 620.233 1015.11 620.994C1015.4 621.75 1015.83 622.352 1016.39 622.801C1016.96 623.244 1017.66 623.466 1018.5 623.466ZM1033.89 606.727L1028.26 627.625H1026.42L1032.04 606.727H1033.89ZM1037.8 617.125V625H1035.79V611.909H1037.73V613.955H1037.9C1038.21 613.29 1038.68 612.756 1039.3 612.352C1039.93 611.943 1040.73 611.739 1041.72 611.739C1042.61 611.739 1043.38 611.92 1044.05 612.284C1044.71 612.642 1045.23 613.188 1045.6 613.92C1045.97 614.648 1046.15 615.568 1046.15 616.682V625H1044.14V616.818C1044.14 615.79 1043.87 614.989 1043.34 614.415C1042.81 613.835 1042.07 613.545 1041.14 613.545C1040.5 613.545 1039.93 613.685 1039.42 613.963C1038.92 614.241 1038.53 614.648 1038.24 615.182C1037.95 615.716 1037.8 616.364 1037.8 617.125ZM1054.84 625.273C1053.58 625.273 1052.49 624.994 1051.57 624.438C1050.66 623.875 1049.96 623.091 1049.47 622.085C1048.98 621.074 1048.74 619.898 1048.74 618.557C1048.74 617.216 1048.98 616.034 1049.47 615.011C1049.96 613.983 1050.65 613.182 1051.53 612.608C1052.42 612.028 1053.45 611.739 1054.63 611.739C1055.31 611.739 1055.99 611.852 1056.65 612.08C1057.32 612.307 1057.92 612.676 1058.47 613.188C1059.01 613.693 1059.45 614.364 1059.77 615.199C1060.1 616.034 1060.26 617.062 1060.26 618.284V619.136H1050.17V617.398H1058.21C1058.21 616.659 1058.06 616 1057.77 615.42C1057.48 614.841 1057.06 614.384 1056.52 614.048C1055.99 613.713 1055.36 613.545 1054.63 613.545C1053.83 613.545 1053.14 613.744 1052.55 614.142C1051.97 614.534 1051.53 615.045 1051.22 615.676C1050.9 616.307 1050.75 616.983 1050.75 617.705V618.864C1050.75 619.852 1050.92 620.69 1051.26 621.378C1051.6 622.06 1052.08 622.58 1052.7 622.938C1053.31 623.29 1054.02 623.466 1054.84 623.466C1055.37 623.466 1055.84 623.392 1056.27 623.244C1056.7 623.091 1057.07 622.864 1057.39 622.562C1057.7 622.256 1057.94 621.875 1058.11 621.42L1060.05 621.966C1059.85 622.625 1059.5 623.205 1059.02 623.705C1058.54 624.199 1057.94 624.585 1057.23 624.864C1056.52 625.136 1055.72 625.273 1054.84 625.273ZM1068.16 625.273C1066.97 625.273 1065.94 624.991 1065.04 624.429C1064.16 623.866 1063.47 623.08 1062.97 622.068C1062.47 621.057 1062.22 619.875 1062.22 618.523C1062.22 617.159 1062.47 615.969 1062.97 614.952C1063.47 613.935 1064.16 613.145 1065.04 612.582C1065.94 612.02 1066.97 611.739 1068.16 611.739C1069.34 611.739 1070.37 612.02 1071.26 612.582C1072.15 613.145 1072.84 613.935 1073.34 614.952C1073.84 615.969 1074.09 617.159 1074.09 618.523C1074.09 619.875 1073.84 621.057 1073.34 622.068C1072.84 623.08 1072.15 623.866 1071.26 624.429C1070.37 624.991 1069.34 625.273 1068.16 625.273ZM1068.16 623.466C1069.05 623.466 1069.79 623.236 1070.37 622.776C1070.95 622.315 1071.38 621.71 1071.66 620.96C1071.94 620.21 1072.08 619.398 1072.08 618.523C1072.08 617.648 1071.94 616.832 1071.66 616.077C1071.38 615.321 1070.95 614.71 1070.37 614.244C1069.79 613.778 1069.05 613.545 1068.16 613.545C1067.26 613.545 1066.52 613.778 1065.94 614.244C1065.36 614.71 1064.93 615.321 1064.65 616.077C1064.37 616.832 1064.24 617.648 1064.24 618.523C1064.24 619.398 1064.37 620.21 1064.65 620.96C1064.93 621.71 1065.36 622.315 1065.94 622.776C1066.52 623.236 1067.26 623.466 1068.16 623.466ZM1085.95 614.841L1084.14 615.352C1084.03 615.051 1083.86 614.759 1083.64 614.474C1083.42 614.185 1083.13 613.946 1082.75 613.759C1082.38 613.571 1081.9 613.477 1081.31 613.477C1080.51 613.477 1079.85 613.662 1079.31 614.031C1078.78 614.395 1078.52 614.858 1078.52 615.42C1078.52 615.92 1078.7 616.315 1079.06 616.605C1079.43 616.895 1080 617.136 1080.77 617.33L1082.71 617.807C1083.88 618.091 1084.75 618.526 1085.33 619.111C1085.9 619.69 1086.19 620.437 1086.19 621.352C1086.19 622.102 1085.97 622.773 1085.54 623.364C1085.12 623.955 1084.52 624.42 1083.75 624.761C1082.98 625.102 1082.09 625.273 1081.08 625.273C1079.74 625.273 1078.64 624.983 1077.76 624.403C1076.89 623.824 1076.33 622.977 1076.1 621.864L1078.01 621.386C1078.19 622.091 1078.53 622.619 1079.04 622.972C1079.55 623.324 1080.22 623.5 1081.04 623.5C1081.98 623.5 1082.72 623.301 1083.27 622.903C1083.83 622.5 1084.11 622.017 1084.11 621.455C1084.11 621 1083.95 620.619 1083.63 620.312C1083.31 620 1082.83 619.767 1082.17 619.614L1079.98 619.102C1078.79 618.818 1077.91 618.378 1077.34 617.781C1076.79 617.179 1076.51 616.426 1076.51 615.523C1076.51 614.784 1076.71 614.131 1077.13 613.562C1077.55 612.994 1078.12 612.548 1078.84 612.224C1079.57 611.901 1080.39 611.739 1081.31 611.739C1082.61 611.739 1083.63 612.023 1084.37 612.591C1085.11 613.159 1085.64 613.909 1085.95 614.841ZM1090.03 629.909C1089.69 629.909 1089.39 629.881 1089.12 629.824C1088.85 629.773 1088.67 629.722 1088.57 629.67L1089.08 627.898C1089.57 628.023 1090 628.068 1090.37 628.034C1090.75 628 1091.08 627.832 1091.37 627.531C1091.67 627.236 1091.94 626.756 1092.18 626.091L1092.56 625.068L1087.71 611.909H1089.9L1093.51 622.341H1093.65L1097.26 611.909H1099.44L1093.88 626.909C1093.63 627.585 1093.32 628.145 1092.96 628.588C1092.59 629.037 1092.16 629.369 1091.67 629.585C1091.19 629.801 1090.64 629.909 1090.03 629.909ZM1103.63 617.125V625H1101.62V611.909H1103.56V613.955H1103.73C1104.04 613.29 1104.5 612.756 1105.13 612.352C1105.75 611.943 1106.56 611.739 1107.55 611.739C1108.43 611.739 1109.21 611.92 1109.87 612.284C1110.54 612.642 1111.06 613.188 1111.43 613.92C1111.8 614.648 1111.98 615.568 1111.98 616.682V625H1109.97V616.818C1109.97 615.79 1109.7 614.989 1109.17 614.415C1108.63 613.835 1107.9 613.545 1106.97 613.545C1106.33 613.545 1105.75 613.685 1105.25 613.963C1104.75 614.241 1104.35 614.648 1104.06 615.182C1103.77 615.716 1103.63 616.364 1103.63 617.125ZM1120.49 625.273C1119.27 625.273 1118.21 624.983 1117.32 624.403C1116.44 623.824 1115.75 623.026 1115.28 622.009C1114.8 620.991 1114.56 619.83 1114.56 618.523C1114.56 617.193 1114.81 616.02 1115.29 615.003C1115.79 613.98 1116.48 613.182 1117.36 612.608C1118.24 612.028 1119.28 611.739 1120.46 611.739C1121.38 611.739 1122.21 611.909 1122.95 612.25C1123.69 612.591 1124.29 613.068 1124.76 613.682C1125.23 614.295 1125.53 615.011 1125.64 615.83H1123.63C1123.48 615.233 1123.14 614.705 1122.61 614.244C1122.08 613.778 1121.38 613.545 1120.49 613.545C1119.71 613.545 1119.02 613.75 1118.43 614.159C1117.85 614.562 1117.39 615.134 1117.06 615.872C1116.73 616.605 1116.57 617.466 1116.57 618.455C1116.57 619.466 1116.73 620.347 1117.05 621.097C1117.37 621.847 1117.83 622.429 1118.41 622.844C1119 623.259 1119.7 623.466 1120.49 623.466C1121.02 623.466 1121.49 623.375 1121.92 623.193C1122.34 623.011 1122.7 622.75 1123 622.409C1123.29 622.068 1123.5 621.659 1123.63 621.182H1125.64C1125.53 621.955 1125.25 622.651 1124.8 623.27C1124.35 623.884 1123.77 624.372 1123.03 624.736C1122.31 625.094 1121.46 625.273 1120.49 625.273Z" fill="#777777"/>
<path fill-rule="evenodd" clip-rule="evenodd" d="M713.5 599C703.831 599 696 606.831 696 616.5C696 624.244 701.009 630.784 707.966 633.103C708.841 633.256 709.169 632.731 709.169 632.272C709.169 631.856 709.147 630.478 709.147 629.013C704.75 629.822 703.612 627.941 703.262 626.956C703.066 626.453 702.213 624.9 701.469 624.484C700.856 624.156 699.981 623.347 701.447 623.325C702.825 623.303 703.809 624.594 704.138 625.119C705.713 627.766 708.228 627.022 709.234 626.563C709.388 625.425 709.847 624.659 710.35 624.222C706.456 623.784 702.388 622.275 702.388 615.581C702.388 613.678 703.066 612.103 704.181 610.878C704.006 610.441 703.394 608.647 704.356 606.241C704.356 606.241 705.822 605.781 709.169 608.034C710.569 607.641 712.056 607.444 713.544 607.444C715.031 607.444 716.519 607.641 717.919 608.034C721.266 605.759 722.731 606.241 722.731 606.241C723.694 608.647 723.081 610.441 722.906 610.878C724.022 612.103 724.7 613.656 724.7 615.581C724.7 622.297 720.609 623.784 716.716 624.222C717.35 624.769 717.897 625.819 717.897 627.459C717.897 629.8 717.875 631.681 717.875 632.272C717.875 632.731 718.203 633.278 719.078 633.103C722.552 631.93 725.571 629.698 727.71 626.719C729.848 623.741 730.999 620.167 731 616.5C731 606.831 723.169 599 713.5 599Z" fill="#777777"/>
</svg>
