<svg width="1792" height="1024" viewBox="0 0 1792 1024" fill="none" xmlns="http://www.w3.org/2000/svg">
<rect width="1792" height="1024" fill="#080808"/>
<path d="M202.417 165.765C206.276 165.765 208.206 165.765 209.733 165.142C211.868 164.271 213.561 162.559 214.423 160.4C215.039 158.856 215.039 156.905 215.039 153.002V153.002V127.894C215.039 119.81 215.039 115.767 212.555 113.256C210.072 110.744 206.074 110.744 198.079 110.744H182.71C170.387 110.744 164.226 110.744 161.741 114.818C159.257 118.892 162.023 124.459 167.555 135.593L167.555 135.593L178.122 156.863C179.966 160.574 177.298 164.949 173.191 164.949C171.104 164.949 169.196 163.759 168.26 161.874L147.552 120.195C145.268 115.597 144.125 113.297 142.079 112.021C140.032 110.744 137.487 110.744 132.398 110.744L127.323 110.744C119.328 110.744 115.33 110.744 112.847 113.256C110.363 115.768 110.363 119.81 110.363 127.894L110.363 152.186C110.363 156.089 110.363 158.04 109.747 159.584C108.885 161.743 107.192 163.455 105.057 164.326C103.53 164.95 101.6 164.95 97.741 164.95H97.7409C93.8819 164.95 91.9523 164.95 90.4253 165.573C88.2902 166.444 86.5972 168.156 85.7355 170.315C85.1191 171.859 85.1191 173.81 85.1191 177.713V202.821C85.1191 210.905 85.1191 214.948 87.6029 217.459C90.0866 219.971 94.0841 219.971 102.079 219.971H102.079H117.449C129.771 219.971 135.932 219.971 138.417 215.897C140.901 211.823 138.135 206.256 132.604 195.122L122.036 173.852C120.192 170.14 122.86 165.766 126.967 165.766C129.054 165.766 130.962 166.956 131.899 168.841L152.606 210.52C154.891 215.118 156.033 217.418 158.08 218.694C160.126 219.97 162.671 219.97 167.761 219.97H167.761H172.835C180.83 219.97 184.828 219.97 187.312 217.459C189.795 214.947 189.795 210.905 189.795 202.82V178.529C189.795 174.626 189.795 172.675 190.412 171.131C191.274 168.972 192.966 167.26 195.102 166.389C196.629 165.765 198.558 165.765 202.417 165.765Z" fill="white"/>
<path d="M202.417 165.765C206.276 165.765 208.206 165.765 209.733 165.142C211.868 164.271 213.561 162.559 214.423 160.4C215.039 158.856 215.039 156.905 215.039 153.002V153.002V127.894C215.039 119.81 215.039 115.767 212.555 113.256C210.072 110.744 206.074 110.744 198.079 110.744H182.71C170.387 110.744 164.226 110.744 161.741 114.818C159.257 118.892 162.023 124.459 167.555 135.593L167.555 135.593L178.122 156.863C179.966 160.574 177.298 164.949 173.191 164.949C171.104 164.949 169.196 163.759 168.26 161.874L147.552 120.195C145.268 115.597 144.125 113.297 142.079 112.021C140.032 110.744 137.487 110.744 132.398 110.744L127.323 110.744C119.328 110.744 115.33 110.744 112.847 113.256C110.363 115.768 110.363 119.81 110.363 127.894L110.363 152.186C110.363 156.089 110.363 158.04 109.747 159.584C108.885 161.743 107.192 163.455 105.057 164.326C103.53 164.95 101.6 164.95 97.741 164.95H97.7409C93.8819 164.95 91.9523 164.95 90.4253 165.573C88.2902 166.444 86.5972 168.156 85.7355 170.315C85.1191 171.859 85.1191 173.81 85.1191 177.713V202.821C85.1191 210.905 85.1191 214.948 87.6029 217.459C90.0866 219.971 94.0841 219.971 102.079 219.971H102.079H117.449C129.771 219.971 135.932 219.971 138.417 215.897C140.901 211.823 138.135 206.256 132.604 195.122L122.036 173.852C120.192 170.14 122.86 165.766 126.967 165.766C129.054 165.766 130.962 166.956 131.899 168.841L152.606 210.52C154.891 215.118 156.033 217.418 158.08 218.694C160.126 219.97 162.671 219.97 167.761 219.97H167.761H172.835C180.83 219.97 184.828 219.97 187.312 217.459C189.795 214.947 189.795 210.905 189.795 202.82V178.529C189.795 174.626 189.795 172.675 190.412 171.131C191.274 168.972 192.966 167.26 195.102 166.389C196.629 165.765 198.558 165.765 202.417 165.765Z" stroke="white"/>
<path d="M142.097 399.441L123.006 329.623H131.597L146.188 386.487H146.87L161.734 329.623H171.279L186.143 386.487H186.825L201.415 329.623H210.006L190.915 399.441H182.188L166.779 343.805H166.234L150.825 399.441H142.097ZM225.575 367.941V399.441H217.53V329.623H225.575V355.26H226.257C227.484 352.555 229.325 350.407 231.78 348.816C234.257 347.203 237.552 346.396 241.666 346.396C245.234 346.396 248.359 347.112 251.041 348.544C253.723 349.953 255.802 352.123 257.28 355.055C258.78 357.964 259.53 361.669 259.53 366.169V399.441H251.484V366.714C251.484 362.555 250.405 359.339 248.245 357.066C246.109 354.771 243.143 353.623 239.348 353.623C236.711 353.623 234.348 354.18 232.257 355.294C230.189 356.407 228.552 358.032 227.348 360.169C226.166 362.305 225.575 364.896 225.575 367.941ZM287.737 400.669C284.419 400.669 281.408 400.044 278.703 398.794C275.999 397.521 273.851 395.691 272.26 393.305C270.669 390.896 269.874 387.987 269.874 384.578C269.874 381.578 270.465 379.146 271.647 377.282C272.828 375.396 274.408 373.919 276.385 372.85C278.362 371.782 280.544 370.987 282.931 370.464C285.34 369.919 287.76 369.487 290.192 369.169C293.374 368.76 295.953 368.453 297.931 368.248C299.931 368.021 301.385 367.646 302.294 367.123C303.226 366.6 303.692 365.691 303.692 364.396V364.123C303.692 360.76 302.772 358.146 300.931 356.282C299.112 354.419 296.351 353.487 292.647 353.487C288.806 353.487 285.794 354.328 283.612 356.01C281.431 357.691 279.897 359.487 279.01 361.396L271.374 358.669C272.737 355.487 274.556 353.01 276.828 351.237C279.124 349.441 281.624 348.191 284.328 347.487C287.056 346.76 289.737 346.396 292.374 346.396C294.056 346.396 295.987 346.6 298.169 347.01C300.374 347.396 302.499 348.203 304.544 349.43C306.612 350.657 308.328 352.51 309.692 354.987C311.056 357.464 311.737 360.782 311.737 364.941V399.441H303.692V392.35H303.283C302.737 393.487 301.828 394.703 300.556 395.998C299.283 397.294 297.59 398.396 295.476 399.305C293.362 400.214 290.783 400.669 287.737 400.669ZM288.965 393.441C292.147 393.441 294.828 392.816 297.01 391.566C299.215 390.316 300.874 388.703 301.987 386.725C303.124 384.748 303.692 382.669 303.692 380.487V373.123C303.351 373.532 302.601 373.907 301.442 374.248C300.306 374.566 298.987 374.85 297.487 375.1C296.01 375.328 294.567 375.532 293.158 375.714C291.772 375.873 290.647 376.01 289.783 376.123C287.692 376.396 285.737 376.839 283.919 377.453C282.124 378.044 280.669 378.941 279.556 380.146C278.465 381.328 277.919 382.941 277.919 384.987C277.919 387.782 278.953 389.896 281.022 391.328C283.112 392.737 285.76 393.441 288.965 393.441ZM347.275 347.078V353.896H320.138V347.078H347.275ZM328.048 334.532H336.093V384.441C336.093 386.714 336.423 388.419 337.082 389.555C337.763 390.669 338.627 391.419 339.673 391.805C340.741 392.169 341.866 392.35 343.048 392.35C343.934 392.35 344.661 392.305 345.229 392.214C345.798 392.1 346.252 392.01 346.593 391.941L348.229 399.169C347.684 399.373 346.923 399.578 345.945 399.782C344.968 400.01 343.729 400.123 342.229 400.123C339.957 400.123 337.729 399.635 335.548 398.657C333.388 397.68 331.593 396.191 330.161 394.191C328.752 392.191 328.048 389.669 328.048 386.623V334.532ZM397.946 400.669C394.628 400.669 391.617 400.044 388.912 398.794C386.208 397.521 384.06 395.691 382.469 393.305C380.878 390.896 380.083 387.987 380.083 384.578C380.083 381.578 380.673 379.146 381.855 377.282C383.037 375.396 384.617 373.919 386.594 372.85C388.571 371.782 390.753 370.987 393.139 370.464C395.548 369.919 397.969 369.487 400.401 369.169C403.583 368.76 406.162 368.453 408.139 368.248C410.139 368.021 411.594 367.646 412.503 367.123C413.435 366.6 413.901 365.691 413.901 364.396V364.123C413.901 360.76 412.98 358.146 411.139 356.282C409.321 354.419 406.56 353.487 402.855 353.487C399.014 353.487 396.003 354.328 393.821 356.01C391.639 357.691 390.105 359.487 389.219 361.396L381.583 358.669C382.946 355.487 384.764 353.01 387.037 351.237C389.333 349.441 391.833 348.191 394.537 347.487C397.264 346.76 399.946 346.396 402.583 346.396C404.264 346.396 406.196 346.6 408.378 347.01C410.583 347.396 412.708 348.203 414.753 349.43C416.821 350.657 418.537 352.51 419.901 354.987C421.264 357.464 421.946 360.782 421.946 364.941V399.441H413.901V392.35H413.492C412.946 393.487 412.037 394.703 410.764 395.998C409.492 397.294 407.798 398.396 405.685 399.305C403.571 400.214 400.992 400.669 397.946 400.669ZM399.173 393.441C402.355 393.441 405.037 392.816 407.219 391.566C409.423 390.316 411.083 388.703 412.196 386.725C413.333 384.748 413.901 382.669 413.901 380.487V373.123C413.56 373.532 412.81 373.907 411.651 374.248C410.514 374.566 409.196 374.85 407.696 375.1C406.219 375.328 404.776 375.532 403.367 375.714C401.98 375.873 400.855 376.01 399.992 376.123C397.901 376.396 395.946 376.839 394.128 377.453C392.333 378.044 390.878 378.941 389.764 380.146C388.673 381.328 388.128 382.941 388.128 384.987C388.128 387.782 389.162 389.896 391.23 391.328C393.321 392.737 395.969 393.441 399.173 393.441ZM434.711 399.441V347.078H442.484V354.987H443.029C443.984 352.396 445.711 350.294 448.211 348.68C450.711 347.066 453.529 346.26 456.665 346.26C457.256 346.26 457.995 346.271 458.881 346.294C459.768 346.316 460.438 346.35 460.893 346.396V354.578C460.62 354.51 459.995 354.407 459.018 354.271C458.063 354.112 457.052 354.032 455.984 354.032C453.438 354.032 451.165 354.566 449.165 355.635C447.188 356.68 445.62 358.135 444.461 359.998C443.324 361.839 442.756 363.941 442.756 366.305V399.441H434.711ZM488.87 400.532C483.825 400.532 479.473 399.419 475.814 397.191C472.177 394.941 469.37 391.805 467.393 387.782C465.439 383.737 464.461 379.032 464.461 373.669C464.461 368.305 465.439 363.578 467.393 359.487C469.37 355.373 472.12 352.169 475.643 349.873C479.189 347.555 483.325 346.396 488.052 346.396C490.779 346.396 493.473 346.85 496.132 347.76C498.791 348.669 501.211 350.146 503.393 352.191C505.575 354.214 507.314 356.896 508.609 360.237C509.904 363.578 510.552 367.691 510.552 372.578V375.987H470.189V369.032H502.37C502.37 366.078 501.779 363.441 500.598 361.123C499.439 358.805 497.779 356.975 495.62 355.635C493.484 354.294 490.961 353.623 488.052 353.623C484.848 353.623 482.075 354.419 479.734 356.01C477.416 357.578 475.632 359.623 474.382 362.146C473.132 364.669 472.507 367.373 472.507 370.26V374.896C472.507 378.85 473.189 382.203 474.552 384.953C475.939 387.68 477.859 389.76 480.314 391.191C482.768 392.6 485.62 393.305 488.87 393.305C490.984 393.305 492.893 393.01 494.598 392.419C496.325 391.805 497.814 390.896 499.064 389.691C500.314 388.464 501.279 386.941 501.961 385.123L509.734 387.305C508.916 389.941 507.541 392.26 505.609 394.26C503.677 396.237 501.291 397.782 498.45 398.896C495.609 399.987 492.416 400.532 488.87 400.532ZM583.042 358.805L575.814 360.85C575.36 359.646 574.689 358.475 573.803 357.339C572.939 356.18 571.758 355.225 570.258 354.475C568.758 353.725 566.837 353.35 564.496 353.35C561.292 353.35 558.621 354.089 556.485 355.566C554.371 357.021 553.314 358.873 553.314 361.123C553.314 363.123 554.042 364.703 555.496 365.862C556.951 367.021 559.224 367.987 562.314 368.76L570.087 370.669C574.769 371.805 578.258 373.544 580.553 375.885C582.849 378.203 583.996 381.191 583.996 384.85C583.996 387.85 583.133 390.532 581.405 392.896C579.701 395.26 577.314 397.123 574.246 398.487C571.178 399.85 567.61 400.532 563.542 400.532C558.201 400.532 553.78 399.373 550.28 397.055C546.78 394.737 544.564 391.35 543.633 386.896L551.269 384.987C551.996 387.805 553.371 389.919 555.394 391.328C557.439 392.737 560.11 393.441 563.405 393.441C567.155 393.441 570.133 392.646 572.337 391.055C574.564 389.441 575.678 387.51 575.678 385.26C575.678 383.441 575.042 381.919 573.769 380.691C572.496 379.441 570.542 378.51 567.905 377.896L559.178 375.85C554.383 374.714 550.86 372.953 548.61 370.566C546.383 368.157 545.269 365.146 545.269 361.532C545.269 358.578 546.099 355.964 547.758 353.691C549.439 351.419 551.724 349.635 554.61 348.339C557.519 347.044 560.814 346.396 564.496 346.396C569.678 346.396 573.746 347.532 576.701 349.805C579.678 352.078 581.792 355.078 583.042 358.805ZM615.46 400.532C610.733 400.532 606.585 399.407 603.017 397.157C599.471 394.907 596.698 391.76 594.698 387.714C592.721 383.669 591.733 378.941 591.733 373.532C591.733 368.078 592.721 363.316 594.698 359.248C596.698 355.18 599.471 352.021 603.017 349.771C606.585 347.521 610.733 346.396 615.46 346.396C620.187 346.396 624.323 347.521 627.869 349.771C631.437 352.021 634.21 355.18 636.187 359.248C638.187 363.316 639.187 368.078 639.187 373.532C639.187 378.941 638.187 383.669 636.187 387.714C634.21 391.76 631.437 394.907 627.869 397.157C624.323 399.407 620.187 400.532 615.46 400.532ZM615.46 393.305C619.051 393.305 622.005 392.385 624.323 390.544C626.642 388.703 628.358 386.282 629.471 383.282C630.585 380.282 631.142 377.032 631.142 373.532C631.142 370.032 630.585 366.771 629.471 363.748C628.358 360.725 626.642 358.282 624.323 356.419C622.005 354.555 619.051 353.623 615.46 353.623C611.869 353.623 608.914 354.555 606.596 356.419C604.278 358.282 602.562 360.725 601.448 363.748C600.335 366.771 599.778 370.032 599.778 373.532C599.778 377.032 600.335 380.282 601.448 383.282C602.562 386.282 604.278 388.703 606.596 390.544C608.914 392.385 611.869 393.305 615.46 393.305ZM649.548 399.441V347.078H657.321V355.26H658.003C659.094 352.464 660.855 350.294 663.287 348.748C665.719 347.18 668.639 346.396 672.048 346.396C675.503 346.396 678.378 347.18 680.673 348.748C682.992 350.294 684.798 352.464 686.094 355.26H686.639C687.98 352.555 689.992 350.407 692.673 348.816C695.355 347.203 698.571 346.396 702.321 346.396C707.003 346.396 710.832 347.862 713.81 350.794C716.787 353.703 718.276 358.237 718.276 364.396V399.441H710.23V364.396C710.23 360.532 709.173 357.771 707.06 356.112C704.946 354.453 702.457 353.623 699.594 353.623C695.912 353.623 693.06 354.737 691.037 356.964C689.014 359.169 688.003 361.964 688.003 365.35V399.441H679.821V363.578C679.821 360.6 678.855 358.203 676.923 356.385C674.992 354.544 672.503 353.623 669.457 353.623C667.367 353.623 665.412 354.18 663.594 355.294C661.798 356.407 660.344 357.953 659.23 359.93C658.139 361.885 657.594 364.146 657.594 366.714V399.441H649.548ZM753.02 400.532C747.975 400.532 743.623 399.419 739.964 397.191C736.327 394.941 733.52 391.805 731.543 387.782C729.589 383.737 728.611 379.032 728.611 373.669C728.611 368.305 729.589 363.578 731.543 359.487C733.52 355.373 736.27 352.169 739.793 349.873C743.339 347.555 747.475 346.396 752.202 346.396C754.929 346.396 757.623 346.85 760.282 347.76C762.941 348.669 765.361 350.146 767.543 352.191C769.725 354.214 771.464 356.896 772.759 360.237C774.054 363.578 774.702 367.691 774.702 372.578V375.987H734.339V369.032H766.52C766.52 366.078 765.929 363.441 764.748 361.123C763.589 358.805 761.929 356.975 759.77 355.635C757.634 354.294 755.111 353.623 752.202 353.623C748.998 353.623 746.225 354.419 743.884 356.01C741.566 357.578 739.782 359.623 738.532 362.146C737.282 364.669 736.657 367.373 736.657 370.26V374.896C736.657 378.85 737.339 382.203 738.702 384.953C740.089 387.68 742.009 389.76 744.464 391.191C746.918 392.6 749.77 393.305 753.02 393.305C755.134 393.305 757.043 393.01 758.748 392.419C760.475 391.805 761.964 390.896 763.214 389.691C764.464 388.464 765.429 386.941 766.111 385.123L773.884 387.305C773.066 389.941 771.691 392.26 769.759 394.26C767.827 396.237 765.441 397.782 762.6 398.896C759.759 399.987 756.566 400.532 753.02 400.532ZM825.51 400.669C822.192 400.669 819.18 400.044 816.476 398.794C813.771 397.521 811.624 395.691 810.033 393.305C808.442 390.896 807.646 387.987 807.646 384.578C807.646 381.578 808.237 379.146 809.419 377.282C810.601 375.396 812.18 373.919 814.158 372.85C816.135 371.782 818.317 370.987 820.703 370.464C823.112 369.919 825.533 369.487 827.964 369.169C831.146 368.76 833.726 368.453 835.703 368.248C837.703 368.021 839.158 367.646 840.067 367.123C840.999 366.6 841.464 365.691 841.464 364.396V364.123C841.464 360.76 840.544 358.146 838.703 356.282C836.885 354.419 834.124 353.487 830.419 353.487C826.578 353.487 823.567 354.328 821.385 356.01C819.203 357.691 817.669 359.487 816.783 361.396L809.146 358.669C810.51 355.487 812.328 353.01 814.601 351.237C816.896 349.441 819.396 348.191 822.101 347.487C824.828 346.76 827.51 346.396 830.146 346.396C831.828 346.396 833.76 346.6 835.942 347.01C838.146 347.396 840.271 348.203 842.317 349.43C844.385 350.657 846.101 352.51 847.464 354.987C848.828 357.464 849.51 360.782 849.51 364.941V399.441H841.464V392.35H841.055C840.51 393.487 839.601 394.703 838.328 395.998C837.055 397.294 835.362 398.396 833.249 399.305C831.135 400.214 828.555 400.669 825.51 400.669ZM826.737 393.441C829.919 393.441 832.601 392.816 834.783 391.566C836.987 390.316 838.646 388.703 839.76 386.725C840.896 384.748 841.464 382.669 841.464 380.487V373.123C841.124 373.532 840.374 373.907 839.214 374.248C838.078 374.566 836.76 374.85 835.26 375.1C833.783 375.328 832.339 375.532 830.93 375.714C829.544 375.873 828.419 376.01 827.555 376.123C825.464 376.396 823.51 376.839 821.692 377.453C819.896 378.044 818.442 378.941 817.328 380.146C816.237 381.328 815.692 382.941 815.692 384.987C815.692 387.782 816.726 389.896 818.794 391.328C820.885 392.737 823.533 393.441 826.737 393.441ZM870.32 329.623V399.441H862.275V329.623H870.32ZM905.909 347.078V353.896H878.772V347.078H905.909ZM886.681 334.532H894.727V384.441C894.727 386.714 895.056 388.419 895.715 389.555C896.397 390.669 897.261 391.419 898.306 391.805C899.374 392.169 900.499 392.35 901.681 392.35C902.568 392.35 903.295 392.305 903.863 392.214C904.431 392.1 904.886 392.01 905.227 391.941L906.863 399.169C906.318 399.373 905.556 399.578 904.579 399.782C903.602 400.01 902.363 400.123 900.863 400.123C898.59 400.123 896.363 399.635 894.181 398.657C892.022 397.68 890.227 396.191 888.795 394.191C887.386 392.191 886.681 389.669 886.681 386.623V334.532ZM937.483 400.532C932.437 400.532 928.085 399.419 924.426 397.191C920.79 394.941 917.983 391.805 916.006 387.782C914.051 383.737 913.074 379.032 913.074 373.669C913.074 368.305 914.051 363.578 916.006 359.487C917.983 355.373 920.733 352.169 924.256 349.873C927.801 347.555 931.937 346.396 936.665 346.396C939.392 346.396 942.085 346.85 944.744 347.76C947.403 348.669 949.824 350.146 952.006 352.191C954.187 354.214 955.926 356.896 957.221 360.237C958.517 363.578 959.165 367.691 959.165 372.578V375.987H918.801V369.032H950.983C950.983 366.078 950.392 363.441 949.21 361.123C948.051 358.805 946.392 356.975 944.233 355.635C942.096 354.294 939.574 353.623 936.665 353.623C933.46 353.623 930.687 354.419 928.346 356.01C926.028 357.578 924.244 359.623 922.994 362.146C921.744 364.669 921.119 367.373 921.119 370.26V374.896C921.119 378.85 921.801 382.203 923.165 384.953C924.551 387.68 926.471 389.76 928.926 391.191C931.381 392.6 934.233 393.305 937.483 393.305C939.596 393.305 941.506 393.01 943.21 392.419C944.937 391.805 946.426 390.896 947.676 389.691C948.926 388.464 949.892 386.941 950.574 385.123L958.346 387.305C957.528 389.941 956.153 392.26 954.221 394.26C952.29 396.237 949.903 397.782 947.062 398.896C944.221 399.987 941.028 400.532 937.483 400.532ZM969.483 399.441V347.078H977.256V354.987H977.802C978.756 352.396 980.483 350.294 982.983 348.68C985.483 347.066 988.302 346.26 991.438 346.26C992.029 346.26 992.767 346.271 993.654 346.294C994.54 346.316 995.211 346.35 995.665 346.396V354.578C995.392 354.51 994.767 354.407 993.79 354.271C992.836 354.112 991.824 354.032 990.756 354.032C988.211 354.032 985.938 354.566 983.938 355.635C981.961 356.68 980.392 358.135 979.233 359.998C978.097 361.839 977.529 363.941 977.529 366.305V399.441H969.483ZM1011.33 367.941V399.441H1003.28V347.078H1011.05V355.26H1011.74C1012.96 352.6 1014.83 350.464 1017.33 348.85C1019.83 347.214 1023.05 346.396 1027.01 346.396C1030.55 346.396 1033.66 347.123 1036.32 348.578C1038.98 350.01 1041.04 352.191 1042.52 355.123C1044 358.032 1044.74 361.714 1044.74 366.169V399.441H1036.69V366.714C1036.69 362.6 1035.62 359.396 1033.49 357.1C1031.35 354.782 1028.42 353.623 1024.69 353.623C1022.12 353.623 1019.83 354.18 1017.8 355.294C1015.8 356.407 1014.23 358.032 1013.07 360.169C1011.91 362.305 1011.33 364.896 1011.33 367.941ZM1072.93 400.669C1069.61 400.669 1066.6 400.044 1063.89 398.794C1061.19 397.521 1059.04 395.691 1057.45 393.305C1055.86 390.896 1055.06 387.987 1055.06 384.578C1055.06 381.578 1055.65 379.146 1056.84 377.282C1058.02 375.396 1059.6 373.919 1061.58 372.85C1063.55 371.782 1065.73 370.987 1068.12 370.464C1070.53 369.919 1072.95 369.487 1075.38 369.169C1078.56 368.76 1081.14 368.453 1083.12 368.248C1085.12 368.021 1086.58 367.646 1087.48 367.123C1088.42 366.6 1088.88 365.691 1088.88 364.396V364.123C1088.88 360.76 1087.96 358.146 1086.12 356.282C1084.3 354.419 1081.54 353.487 1077.84 353.487C1074 353.487 1070.98 354.328 1068.8 356.01C1066.62 357.691 1065.09 359.487 1064.2 361.396L1056.56 358.669C1057.93 355.487 1059.75 353.01 1062.02 351.237C1064.31 349.441 1066.81 348.191 1069.52 347.487C1072.25 346.76 1074.93 346.396 1077.56 346.396C1079.25 346.396 1081.18 346.6 1083.36 347.01C1085.56 347.396 1087.69 348.203 1089.73 349.43C1091.8 350.657 1093.52 352.51 1094.88 354.987C1096.25 357.464 1096.93 360.782 1096.93 364.941V399.441H1088.88V392.35H1088.47C1087.93 393.487 1087.02 394.703 1085.75 395.998C1084.47 397.294 1082.78 398.396 1080.67 399.305C1078.55 400.214 1075.97 400.669 1072.93 400.669ZM1074.15 393.441C1077.34 393.441 1080.02 392.816 1082.2 391.566C1084.4 390.316 1086.06 388.703 1087.18 386.725C1088.31 384.748 1088.88 382.669 1088.88 380.487V373.123C1088.54 373.532 1087.79 373.907 1086.63 374.248C1085.5 374.566 1084.18 374.85 1082.68 375.1C1081.2 375.328 1079.76 375.532 1078.35 375.714C1076.96 375.873 1075.84 376.01 1074.97 376.123C1072.88 376.396 1070.93 376.839 1069.11 377.453C1067.31 378.044 1065.86 378.941 1064.75 380.146C1063.65 381.328 1063.11 382.941 1063.11 384.987C1063.11 387.782 1064.14 389.896 1066.21 391.328C1068.3 392.737 1070.95 393.441 1074.15 393.441ZM1132.46 347.078V353.896H1105.33V347.078H1132.46ZM1113.24 334.532H1121.28V384.441C1121.28 386.714 1121.61 388.419 1122.27 389.555C1122.95 390.669 1123.82 391.419 1124.86 391.805C1125.93 392.169 1127.06 392.35 1128.24 392.35C1129.12 392.35 1129.85 392.305 1130.42 392.214C1130.99 392.1 1131.44 392.01 1131.78 391.941L1133.42 399.169C1132.87 399.373 1132.11 399.578 1131.14 399.782C1130.16 400.01 1128.92 400.123 1127.42 400.123C1125.15 400.123 1122.92 399.635 1120.74 398.657C1118.58 397.68 1116.78 396.191 1115.35 394.191C1113.94 392.191 1113.24 389.669 1113.24 386.623V334.532ZM1142.65 399.441V347.078H1150.69V399.441H1142.65ZM1146.74 338.35C1145.17 338.35 1143.82 337.816 1142.68 336.748C1141.57 335.68 1141.01 334.396 1141.01 332.896C1141.01 331.396 1141.57 330.112 1142.68 329.044C1143.82 327.975 1145.17 327.441 1146.74 327.441C1148.31 327.441 1149.65 327.975 1150.76 329.044C1151.9 330.112 1152.47 331.396 1152.47 332.896C1152.47 334.396 1151.9 335.68 1150.76 336.748C1149.65 337.816 1148.31 338.35 1146.74 338.35ZM1206.33 347.078L1186.96 399.441H1178.78L1159.42 347.078H1168.14L1182.6 388.805H1183.14L1197.6 347.078H1206.33ZM1235.11 400.532C1230.06 400.532 1225.71 399.419 1222.05 397.191C1218.41 394.941 1215.61 391.805 1213.63 387.782C1211.67 383.737 1210.7 379.032 1210.7 373.669C1210.7 368.305 1211.67 363.578 1213.63 359.487C1215.61 355.373 1218.36 352.169 1221.88 349.873C1225.42 347.555 1229.56 346.396 1234.29 346.396C1237.01 346.396 1239.71 346.85 1242.37 347.76C1245.03 348.669 1247.45 350.146 1249.63 352.191C1251.81 354.214 1253.55 356.896 1254.84 360.237C1256.14 363.578 1256.79 367.691 1256.79 372.578V375.987H1216.42V369.032H1248.61C1248.61 366.078 1248.01 363.441 1246.83 361.123C1245.67 358.805 1244.01 356.975 1241.86 355.635C1239.72 354.294 1237.2 353.623 1234.29 353.623C1231.08 353.623 1228.31 354.419 1225.97 356.01C1223.65 357.578 1221.87 359.623 1220.62 362.146C1219.37 364.669 1218.74 367.373 1218.74 370.26V374.896C1218.74 378.85 1219.42 382.203 1220.79 384.953C1222.17 387.68 1224.09 389.76 1226.55 391.191C1229 392.6 1231.86 393.305 1235.11 393.305C1237.22 393.305 1239.13 393.01 1240.83 392.419C1242.56 391.805 1244.05 390.896 1245.3 389.691C1246.55 388.464 1247.51 386.941 1248.2 385.123L1255.97 387.305C1255.15 389.941 1253.78 392.26 1251.84 394.26C1249.91 396.237 1247.53 397.782 1244.68 398.896C1241.84 399.987 1238.65 400.532 1235.11 400.532ZM1304.2 358.805L1296.97 360.85C1296.51 359.646 1295.84 358.475 1294.96 357.339C1294.09 356.18 1292.91 355.225 1291.41 354.475C1289.91 353.725 1287.99 353.35 1285.65 353.35C1282.45 353.35 1279.78 354.089 1277.64 355.566C1275.53 357.021 1274.47 358.873 1274.47 361.123C1274.47 363.123 1275.2 364.703 1276.65 365.862C1278.11 367.021 1280.38 367.987 1283.47 368.76L1291.24 370.669C1295.92 371.805 1299.41 373.544 1301.71 375.885C1304 378.203 1305.15 381.191 1305.15 384.85C1305.15 387.85 1304.29 390.532 1302.56 392.896C1300.86 395.26 1298.47 397.123 1295.4 398.487C1292.33 399.85 1288.76 400.532 1284.7 400.532C1279.36 400.532 1274.94 399.373 1271.44 397.055C1267.94 394.737 1265.72 391.35 1264.79 386.896L1272.42 384.987C1273.15 387.805 1274.53 389.919 1276.55 391.328C1278.59 392.737 1281.26 393.441 1284.56 393.441C1288.31 393.441 1291.29 392.646 1293.49 391.055C1295.72 389.441 1296.83 387.51 1296.83 385.26C1296.83 383.441 1296.2 381.919 1294.92 380.691C1293.65 379.441 1291.7 378.51 1289.06 377.896L1280.33 375.85C1275.54 374.714 1272.01 372.953 1269.76 370.566C1267.54 368.157 1266.42 365.146 1266.42 361.532C1266.42 358.578 1267.25 355.964 1268.91 353.691C1270.59 351.419 1272.88 349.635 1275.76 348.339C1278.67 347.044 1281.97 346.396 1285.65 346.396C1290.83 346.396 1294.9 347.532 1297.86 349.805C1300.83 352.078 1302.95 355.078 1304.2 358.805ZM1363.19 347.078V353.896H1336.06V347.078H1363.19ZM1343.97 334.532H1352.01V384.441C1352.01 386.714 1352.34 388.419 1353 389.555C1353.68 390.669 1354.55 391.419 1355.59 391.805C1356.66 392.169 1357.79 392.35 1358.97 392.35C1359.85 392.35 1360.58 392.305 1361.15 392.214C1361.72 392.1 1362.17 392.01 1362.51 391.941L1364.15 399.169C1363.6 399.373 1362.84 399.578 1361.87 399.782C1360.89 400.01 1359.65 400.123 1358.15 400.123C1355.88 400.123 1353.65 399.635 1351.47 398.657C1349.31 397.68 1347.51 396.191 1346.08 394.191C1344.67 392.191 1343.97 389.669 1343.97 386.623V334.532ZM1394.09 400.532C1389.36 400.532 1385.21 399.407 1381.64 397.157C1378.1 394.907 1375.33 391.76 1373.33 387.714C1371.35 383.669 1370.36 378.941 1370.36 373.532C1370.36 368.078 1371.35 363.316 1373.33 359.248C1375.33 355.18 1378.1 352.021 1381.64 349.771C1385.21 347.521 1389.36 346.396 1394.09 346.396C1398.81 346.396 1402.95 347.521 1406.5 349.771C1410.06 352.021 1412.84 355.18 1414.81 359.248C1416.81 363.316 1417.81 368.078 1417.81 373.532C1417.81 378.941 1416.81 383.669 1414.81 387.714C1412.84 391.76 1410.06 394.907 1406.5 397.157C1402.95 399.407 1398.81 400.532 1394.09 400.532ZM1394.09 393.305C1397.68 393.305 1400.63 392.385 1402.95 390.544C1405.27 388.703 1406.99 386.282 1408.1 383.282C1409.21 380.282 1409.77 377.032 1409.77 373.532C1409.77 370.032 1409.21 366.771 1408.1 363.748C1406.99 360.725 1405.27 358.282 1402.95 356.419C1400.63 354.555 1397.68 353.623 1394.09 353.623C1390.5 353.623 1387.54 354.555 1385.22 356.419C1382.91 358.282 1381.19 360.725 1380.08 363.748C1378.96 366.771 1378.41 370.032 1378.41 373.532C1378.41 377.032 1378.96 380.282 1380.08 383.282C1381.19 386.282 1382.91 388.703 1385.22 390.544C1387.54 392.385 1390.5 393.305 1394.09 393.305ZM129.415 515.441V445.623H153.006C158.484 445.623 162.961 446.612 166.438 448.589C169.938 450.544 172.529 453.191 174.211 456.532C175.893 459.873 176.734 463.6 176.734 467.714C176.734 471.828 175.893 475.566 174.211 478.93C172.552 482.294 169.984 484.975 166.506 486.975C163.029 488.953 158.575 489.941 153.143 489.941H136.234V482.441H152.87C156.62 482.441 159.631 481.794 161.904 480.498C164.177 479.203 165.825 477.453 166.847 475.248C167.893 473.021 168.415 470.51 168.415 467.714C168.415 464.919 167.893 462.419 166.847 460.214C165.825 458.01 164.165 456.282 161.87 455.032C159.575 453.76 156.529 453.123 152.734 453.123H137.87V515.441H129.415ZM236.16 467.441C235.41 465.146 234.422 463.089 233.194 461.271C231.99 459.43 230.547 457.862 228.865 456.566C227.206 455.271 225.319 454.282 223.206 453.6C221.092 452.919 218.774 452.578 216.251 452.578C212.115 452.578 208.353 453.646 204.967 455.782C201.581 457.919 198.888 461.066 196.888 465.225C194.888 469.385 193.888 474.487 193.888 480.532C193.888 486.578 194.899 491.68 196.922 495.839C198.944 499.998 201.683 503.146 205.138 505.282C208.592 507.419 212.478 508.487 216.797 508.487C220.797 508.487 224.319 507.635 227.365 505.93C230.433 504.203 232.819 501.771 234.524 498.635C236.251 495.475 237.115 491.76 237.115 487.487L239.706 488.032H218.706V480.532H245.297V488.032C245.297 493.782 244.069 498.782 241.615 503.032C239.183 507.282 235.819 510.578 231.524 512.919C227.251 515.237 222.342 516.396 216.797 516.396C210.615 516.396 205.183 514.941 200.501 512.032C195.842 509.123 192.206 504.987 189.592 499.623C187.001 494.26 185.706 487.896 185.706 480.532C185.706 475.01 186.444 470.044 187.922 465.635C189.422 461.203 191.535 457.43 194.263 454.316C196.99 451.203 200.217 448.816 203.944 447.157C207.672 445.498 211.774 444.669 216.251 444.669C219.933 444.669 223.365 445.225 226.547 446.339C229.751 447.43 232.603 448.987 235.103 451.01C237.626 453.01 239.728 455.407 241.41 458.203C243.092 460.975 244.251 464.055 244.888 467.441H236.16ZM285.8 515.441H276.937L302.573 445.623H311.3L336.937 515.441H328.073L307.209 456.669H306.664L285.8 515.441ZM289.073 488.169H324.8V495.669H289.073V488.169ZM352.846 483.941V515.441H344.801V463.078H352.574V471.26H353.255C354.483 468.6 356.346 466.464 358.846 464.85C361.346 463.214 364.574 462.396 368.528 462.396C372.074 462.396 375.176 463.123 377.835 464.578C380.494 466.01 382.562 468.191 384.039 471.123C385.517 474.032 386.255 477.714 386.255 482.169V515.441H378.21V482.714C378.21 478.6 377.142 475.396 375.005 473.1C372.869 470.782 369.937 469.623 366.21 469.623C363.642 469.623 361.346 470.18 359.324 471.294C357.324 472.407 355.744 474.032 354.585 476.169C353.426 478.305 352.846 480.896 352.846 483.941ZM420.31 516.532C415.583 516.532 411.435 515.407 407.867 513.157C404.321 510.907 401.548 507.76 399.548 503.714C397.571 499.669 396.583 494.941 396.583 489.532C396.583 484.078 397.571 479.316 399.548 475.248C401.548 471.18 404.321 468.021 407.867 465.771C411.435 463.521 415.583 462.396 420.31 462.396C425.037 462.396 429.173 463.521 432.719 465.771C436.287 468.021 439.06 471.18 441.037 475.248C443.037 479.316 444.037 484.078 444.037 489.532C444.037 494.941 443.037 499.669 441.037 503.714C439.06 507.76 436.287 510.907 432.719 513.157C429.173 515.407 425.037 516.532 420.31 516.532ZM420.31 509.305C423.901 509.305 426.855 508.385 429.173 506.544C431.492 504.703 433.208 502.282 434.321 499.282C435.435 496.282 435.992 493.032 435.992 489.532C435.992 486.032 435.435 482.771 434.321 479.748C433.208 476.725 431.492 474.282 429.173 472.419C426.855 470.555 423.901 469.623 420.31 469.623C416.719 469.623 413.764 470.555 411.446 472.419C409.128 474.282 407.412 476.725 406.298 479.748C405.185 482.771 404.628 486.032 404.628 489.532C404.628 493.032 405.185 496.282 406.298 499.282C407.412 502.282 409.128 504.703 411.446 506.544C413.764 508.385 416.719 509.305 420.31 509.305ZM462.444 483.941V515.441H454.398V463.078H462.171V471.26H462.853C464.08 468.6 465.944 466.464 468.444 464.85C470.944 463.214 474.171 462.396 478.126 462.396C481.671 462.396 484.773 463.123 487.432 464.578C490.092 466.01 492.16 468.191 493.637 471.123C495.114 474.032 495.853 477.714 495.853 482.169V515.441H487.807V482.714C487.807 478.6 486.739 475.396 484.603 473.1C482.467 470.782 479.535 469.623 475.807 469.623C473.239 469.623 470.944 470.18 468.921 471.294C466.921 472.407 465.342 474.032 464.182 476.169C463.023 478.305 462.444 480.896 462.444 483.941ZM511.941 535.078C510.578 535.078 509.362 534.964 508.294 534.737C507.225 534.532 506.487 534.328 506.078 534.123L508.123 527.032C510.078 527.532 511.805 527.714 513.305 527.578C514.805 527.441 516.135 526.771 517.294 525.566C518.475 524.385 519.555 522.464 520.532 519.805L522.032 515.714L502.669 463.078H511.396L525.85 504.805H526.396L540.85 463.078H549.578L527.35 523.078C526.35 525.782 525.112 528.021 523.635 529.794C522.157 531.589 520.441 532.919 518.487 533.782C516.555 534.646 514.373 535.078 511.941 535.078ZM558.277 515.441V463.078H566.05V471.26H566.732C567.823 468.464 569.584 466.294 572.016 464.748C574.448 463.18 577.368 462.396 580.777 462.396C584.232 462.396 587.107 463.18 589.402 464.748C591.72 466.294 593.527 468.464 594.823 471.26H595.368C596.709 468.555 598.72 466.407 601.402 464.816C604.084 463.203 607.3 462.396 611.05 462.396C615.732 462.396 619.561 463.862 622.538 466.794C625.516 469.703 627.004 474.237 627.004 480.396V515.441H618.959V480.396C618.959 476.532 617.902 473.771 615.788 472.112C613.675 470.453 611.186 469.623 608.323 469.623C604.641 469.623 601.788 470.737 599.766 472.964C597.743 475.169 596.732 477.964 596.732 481.35V515.441H588.55V479.578C588.55 476.6 587.584 474.203 585.652 472.385C583.72 470.544 581.232 469.623 578.186 469.623C576.095 469.623 574.141 470.18 572.323 471.294C570.527 472.407 569.073 473.953 567.959 475.93C566.868 477.885 566.323 480.146 566.323 482.714V515.441H558.277ZM639.795 515.441V463.078H647.84V515.441H639.795ZM643.885 454.35C642.317 454.35 640.965 453.816 639.829 452.748C638.715 451.68 638.158 450.396 638.158 448.896C638.158 447.396 638.715 446.112 639.829 445.044C640.965 443.975 642.317 443.441 643.885 443.441C645.454 443.441 646.795 443.975 647.908 445.044C649.045 446.112 649.613 447.396 649.613 448.896C649.613 450.396 649.045 451.68 647.908 452.748C646.795 453.816 645.454 454.35 643.885 454.35ZM659.156 515.441V509.305L688.883 471.123V470.578H660.11V463.078H699.247V469.487L670.338 507.396V507.941H700.201V515.441H659.156ZM731.128 516.532C726.082 516.532 721.73 515.419 718.071 513.191C714.435 510.941 711.628 507.805 709.651 503.782C707.696 499.737 706.719 495.032 706.719 489.669C706.719 484.305 707.696 479.578 709.651 475.487C711.628 471.373 714.378 468.169 717.901 465.873C721.446 463.555 725.582 462.396 730.31 462.396C733.037 462.396 735.73 462.85 738.389 463.76C741.048 464.669 743.469 466.146 745.651 468.191C747.832 470.214 749.571 472.896 750.867 476.237C752.162 479.578 752.81 483.691 752.81 488.578V491.987H712.446V485.032H744.628C744.628 482.078 744.037 479.441 742.855 477.123C741.696 474.805 740.037 472.975 737.878 471.635C735.742 470.294 733.219 469.623 730.31 469.623C727.105 469.623 724.332 470.419 721.992 472.01C719.673 473.578 717.889 475.623 716.639 478.146C715.389 480.669 714.764 483.373 714.764 486.26V490.896C714.764 494.85 715.446 498.203 716.81 500.953C718.196 503.68 720.117 505.76 722.571 507.191C725.026 508.6 727.878 509.305 731.128 509.305C733.242 509.305 735.151 509.01 736.855 508.419C738.582 507.805 740.071 506.896 741.321 505.691C742.571 504.464 743.537 502.941 744.219 501.123L751.992 503.305C751.173 505.941 749.798 508.26 747.867 510.26C745.935 512.237 743.548 513.782 740.707 514.896C737.867 515.987 734.673 516.532 731.128 516.532ZM763.128 515.441V463.078H770.901V470.987H771.447C772.401 468.396 774.128 466.294 776.628 464.68C779.128 463.066 781.947 462.26 785.083 462.26C785.674 462.26 786.412 462.271 787.299 462.294C788.185 462.316 788.856 462.35 789.31 462.396V470.578C789.037 470.51 788.412 470.407 787.435 470.271C786.481 470.112 785.469 470.032 784.401 470.032C781.856 470.032 779.583 470.566 777.583 471.635C775.606 472.68 774.037 474.135 772.878 475.998C771.742 477.839 771.174 479.941 771.174 482.305V515.441H763.128ZM807.427 495.805V495.396C807.473 491.055 807.927 487.6 808.791 485.032C809.654 482.464 810.882 480.385 812.473 478.794C814.063 477.203 815.973 475.737 818.2 474.396C819.541 473.578 820.745 472.612 821.813 471.498C822.882 470.362 823.723 469.055 824.336 467.578C824.973 466.1 825.291 464.464 825.291 462.669C825.291 460.441 824.768 458.51 823.723 456.873C822.677 455.237 821.279 453.975 819.529 453.089C817.779 452.203 815.836 451.76 813.7 451.76C811.836 451.76 810.041 452.146 808.313 452.919C806.586 453.691 805.143 454.907 803.984 456.566C802.825 458.225 802.154 460.396 801.973 463.078H793.382C793.563 459.214 794.563 455.907 796.382 453.157C798.223 450.407 800.643 448.305 803.643 446.85C806.666 445.396 810.018 444.669 813.7 444.669C817.7 444.669 821.177 445.464 824.132 447.055C827.109 448.646 829.404 450.828 831.018 453.6C832.654 456.373 833.473 459.532 833.473 463.078C833.473 465.578 833.086 467.839 832.313 469.862C831.563 471.885 830.473 473.691 829.041 475.282C827.632 476.873 825.927 478.282 823.927 479.51C821.927 480.76 820.325 482.078 819.12 483.464C817.916 484.828 817.041 486.453 816.495 488.339C815.95 490.225 815.654 492.578 815.609 495.396V495.805H807.427ZM811.791 515.987C810.109 515.987 808.666 515.385 807.461 514.18C806.257 512.975 805.654 511.532 805.654 509.85C805.654 508.169 806.257 506.725 807.461 505.521C808.666 504.316 810.109 503.714 811.791 503.714C813.473 503.714 814.916 504.316 816.12 505.521C817.325 506.725 817.927 508.169 817.927 509.85C817.927 510.964 817.643 511.987 817.075 512.919C816.529 513.85 815.791 514.6 814.859 515.169C813.95 515.714 812.927 515.987 811.791 515.987Z" fill="white"/>
<path d="M88.9714 928.381V936.256H86.96V923.165H88.9032V925.21H89.0737C89.3805 924.546 89.8464 924.012 90.4714 923.608C91.0964 923.199 91.9032 922.994 92.8919 922.994C93.7782 922.994 94.5538 923.176 95.2186 923.54C95.8833 923.898 96.4004 924.443 96.7697 925.176C97.139 925.904 97.3237 926.824 97.3237 927.938V936.256H95.3123V928.074C95.3123 927.046 95.0453 926.244 94.5112 925.671C93.9771 925.091 93.2441 924.801 92.3123 924.801C91.6703 924.801 91.0964 924.941 90.5907 925.219C90.0907 925.497 89.6958 925.904 89.4061 926.438C89.1163 926.972 88.9714 927.619 88.9714 928.381ZM106.008 936.529C104.746 936.529 103.658 936.25 102.744 935.693C101.834 935.131 101.133 934.347 100.638 933.341C100.15 932.33 99.9055 931.154 99.9055 929.813C99.9055 928.472 100.15 927.29 100.638 926.267C101.133 925.239 101.82 924.438 102.701 923.864C103.587 923.284 104.621 922.994 105.803 922.994C106.485 922.994 107.158 923.108 107.823 923.335C108.488 923.563 109.093 923.932 109.638 924.443C110.184 924.949 110.619 925.619 110.942 926.455C111.266 927.29 111.428 928.318 111.428 929.54V930.392H101.337V928.654H109.383C109.383 927.915 109.235 927.256 108.94 926.676C108.65 926.097 108.235 925.639 107.695 925.304C107.161 924.969 106.53 924.801 105.803 924.801C105.002 924.801 104.309 925 103.724 925.398C103.144 925.79 102.698 926.301 102.386 926.932C102.073 927.563 101.917 928.239 101.917 928.96V930.119C101.917 931.108 102.087 931.946 102.428 932.634C102.775 933.316 103.255 933.835 103.869 934.193C104.482 934.546 105.195 934.722 106.008 934.722C106.536 934.722 107.013 934.648 107.44 934.5C107.871 934.347 108.244 934.119 108.556 933.818C108.869 933.512 109.11 933.131 109.28 932.676L111.224 933.222C111.019 933.881 110.675 934.46 110.192 934.96C109.709 935.455 109.113 935.841 108.403 936.119C107.692 936.392 106.894 936.529 106.008 936.529ZM119.326 936.529C118.144 936.529 117.107 936.247 116.215 935.685C115.329 935.122 114.636 934.335 114.136 933.324C113.641 932.313 113.394 931.131 113.394 929.779C113.394 928.415 113.641 927.225 114.136 926.208C114.636 925.191 115.329 924.401 116.215 923.838C117.107 923.276 118.144 922.994 119.326 922.994C120.508 922.994 121.542 923.276 122.428 923.838C123.32 924.401 124.014 925.191 124.508 926.208C125.008 927.225 125.258 928.415 125.258 929.779C125.258 931.131 125.008 932.313 124.508 933.324C124.014 934.335 123.32 935.122 122.428 935.685C121.542 936.247 120.508 936.529 119.326 936.529ZM119.326 934.722C120.224 934.722 120.962 934.492 121.542 934.031C122.121 933.571 122.55 932.966 122.829 932.216C123.107 931.466 123.247 930.654 123.247 929.779C123.247 928.904 123.107 928.088 122.829 927.333C122.55 926.577 122.121 925.966 121.542 925.5C120.962 925.034 120.224 924.801 119.326 924.801C118.428 924.801 117.69 925.034 117.11 925.5C116.531 925.966 116.102 926.577 115.823 927.333C115.545 928.088 115.406 928.904 115.406 929.779C115.406 930.654 115.545 931.466 115.823 932.216C116.102 932.966 116.531 933.571 117.11 934.031C117.69 934.492 118.428 934.722 119.326 934.722ZM137.121 926.097L135.314 926.608C135.2 926.307 135.033 926.014 134.811 925.73C134.595 925.441 134.3 925.202 133.925 925.014C133.55 924.827 133.07 924.733 132.485 924.733C131.683 924.733 131.016 924.918 130.482 925.287C129.953 925.651 129.689 926.114 129.689 926.676C129.689 927.176 129.871 927.571 130.235 927.861C130.598 928.151 131.166 928.392 131.939 928.585L133.882 929.063C135.053 929.347 135.925 929.781 136.499 930.367C137.073 930.946 137.36 931.693 137.36 932.608C137.36 933.358 137.144 934.029 136.712 934.619C136.286 935.21 135.689 935.676 134.922 936.017C134.155 936.358 133.263 936.529 132.246 936.529C130.911 936.529 129.806 936.239 128.931 935.659C128.056 935.08 127.502 934.233 127.269 933.119L129.178 932.642C129.36 933.347 129.703 933.875 130.209 934.227C130.72 934.58 131.388 934.756 132.212 934.756C133.149 934.756 133.894 934.557 134.445 934.159C135.002 933.756 135.28 933.273 135.28 932.71C135.28 932.256 135.121 931.875 134.803 931.568C134.485 931.256 133.996 931.023 133.337 930.869L131.155 930.358C129.956 930.074 129.075 929.634 128.513 929.037C127.956 928.435 127.678 927.682 127.678 926.779C127.678 926.04 127.885 925.387 128.3 924.818C128.72 924.25 129.291 923.804 130.013 923.48C130.74 923.156 131.564 922.994 132.485 922.994C133.78 922.994 134.797 923.279 135.536 923.847C136.28 924.415 136.808 925.165 137.121 926.097ZM141.203 941.165C140.862 941.165 140.558 941.137 140.291 941.08C140.024 941.029 139.839 940.977 139.737 940.926L140.248 939.154C140.737 939.279 141.169 939.324 141.544 939.29C141.919 939.256 142.251 939.088 142.541 938.787C142.836 938.492 143.106 938.012 143.35 937.347L143.725 936.324L138.885 923.165H141.066L144.68 933.597H144.816L148.43 923.165H150.612L145.055 938.165C144.805 938.841 144.495 939.401 144.126 939.844C143.757 940.293 143.328 940.625 142.839 940.841C142.356 941.057 141.811 941.165 141.203 941.165ZM154.798 928.381V936.256H152.787V923.165H154.73V925.21H154.9C155.207 924.546 155.673 924.012 156.298 923.608C156.923 923.199 157.73 922.994 158.718 922.994C159.605 922.994 160.38 923.176 161.045 923.54C161.71 923.898 162.227 924.443 162.596 925.176C162.966 925.904 163.15 926.824 163.15 927.938V936.256H161.139V928.074C161.139 927.046 160.872 926.244 160.338 925.671C159.804 925.091 159.071 924.801 158.139 924.801C157.497 924.801 156.923 924.941 156.417 925.219C155.917 925.497 155.522 925.904 155.233 926.438C154.943 926.972 154.798 927.619 154.798 928.381ZM171.664 936.529C170.437 936.529 169.38 936.239 168.493 935.659C167.607 935.08 166.925 934.281 166.448 933.264C165.971 932.247 165.732 931.085 165.732 929.779C165.732 928.449 165.976 927.276 166.465 926.259C166.959 925.236 167.647 924.438 168.527 923.864C169.414 923.284 170.448 922.994 171.63 922.994C172.55 922.994 173.38 923.165 174.118 923.506C174.857 923.847 175.462 924.324 175.934 924.938C176.405 925.551 176.698 926.267 176.812 927.085H174.8C174.647 926.489 174.306 925.96 173.777 925.5C173.255 925.034 172.55 924.801 171.664 924.801C170.88 924.801 170.192 925.006 169.601 925.415C169.016 925.818 168.559 926.389 168.229 927.128C167.905 927.861 167.743 928.722 167.743 929.71C167.743 930.722 167.902 931.602 168.221 932.352C168.545 933.102 168.999 933.685 169.584 934.1C170.175 934.514 170.868 934.722 171.664 934.722C172.187 934.722 172.661 934.631 173.087 934.449C173.513 934.267 173.874 934.006 174.17 933.665C174.465 933.324 174.675 932.915 174.8 932.438H176.812C176.698 933.21 176.417 933.906 175.968 934.526C175.525 935.139 174.937 935.628 174.204 935.992C173.476 936.35 172.63 936.529 171.664 936.529ZM180.738 936.392C180.317 936.392 179.957 936.242 179.655 935.941C179.354 935.639 179.204 935.279 179.204 934.858C179.204 934.438 179.354 934.077 179.655 933.776C179.957 933.475 180.317 933.324 180.738 933.324C181.158 933.324 181.519 933.475 181.82 933.776C182.121 934.077 182.272 934.438 182.272 934.858C182.272 935.137 182.201 935.392 182.059 935.625C181.922 935.858 181.738 936.046 181.505 936.188C181.278 936.324 181.022 936.392 180.738 936.392ZM190.344 936.529C189.254 936.529 188.291 936.253 187.455 935.702C186.62 935.145 185.967 934.361 185.495 933.35C185.023 932.333 184.788 931.131 184.788 929.744C184.788 928.369 185.023 927.176 185.495 926.165C185.967 925.154 186.623 924.372 187.464 923.821C188.305 923.27 189.276 922.994 190.379 922.994C191.231 922.994 191.904 923.137 192.398 923.421C192.898 923.699 193.279 924.017 193.541 924.375C193.808 924.727 194.015 925.017 194.163 925.244H194.333V918.801H196.344V936.256H194.401V934.244H194.163C194.015 934.483 193.805 934.784 193.532 935.148C193.259 935.506 192.87 935.827 192.364 936.111C191.859 936.389 191.185 936.529 190.344 936.529ZM190.617 934.722C191.424 934.722 192.106 934.512 192.663 934.091C193.219 933.665 193.643 933.077 193.933 932.327C194.222 931.571 194.367 930.699 194.367 929.71C194.367 928.733 194.225 927.878 193.941 927.145C193.657 926.406 193.237 925.833 192.68 925.423C192.123 925.009 191.435 924.801 190.617 924.801C189.765 924.801 189.055 925.02 188.487 925.458C187.924 925.889 187.501 926.477 187.217 927.222C186.938 927.96 186.799 928.79 186.799 929.71C186.799 930.642 186.941 931.489 187.225 932.25C187.515 933.006 187.941 933.608 188.504 934.057C189.072 934.5 189.776 934.722 190.617 934.722ZM205.316 936.529C204.055 936.529 202.967 936.25 202.052 935.693C201.143 935.131 200.441 934.347 199.947 933.341C199.458 932.33 199.214 931.154 199.214 929.813C199.214 928.472 199.458 927.29 199.947 926.267C200.441 925.239 201.129 924.438 202.009 923.864C202.896 923.284 203.93 922.994 205.112 922.994C205.793 922.994 206.467 923.108 207.132 923.335C207.796 923.563 208.401 923.932 208.947 924.443C209.492 924.949 209.927 925.619 210.251 926.455C210.575 927.29 210.737 928.318 210.737 929.54V930.392H200.646V928.654H208.691C208.691 927.915 208.543 927.256 208.248 926.676C207.958 926.097 207.543 925.639 207.004 925.304C206.47 924.969 205.839 924.801 205.112 924.801C204.311 924.801 203.617 925 203.032 925.398C202.453 925.79 202.007 926.301 201.694 926.932C201.382 927.563 201.225 928.239 201.225 928.96V930.119C201.225 931.108 201.396 931.946 201.737 932.634C202.083 933.316 202.563 933.835 203.177 934.193C203.791 934.546 204.504 934.722 205.316 934.722C205.845 934.722 206.322 934.648 206.748 934.5C207.18 934.347 207.552 934.119 207.864 933.818C208.177 933.512 208.418 933.131 208.589 932.676L210.532 933.222C210.328 933.881 209.984 934.46 209.501 934.96C209.018 935.455 208.421 935.841 207.711 936.119C207.001 936.392 206.203 936.529 205.316 936.529ZM223.622 923.165L218.781 936.256H216.736L211.895 923.165H214.077L217.691 933.597H217.827L221.441 923.165H223.622Z" fill="#777777"/>
<path d="M1333.12 945.182C1332.15 945.182 1331.32 945.057 1330.62 944.807C1329.92 944.562 1329.34 944.239 1328.87 943.835C1328.41 943.438 1328.05 943.011 1327.77 942.557L1329.38 941.432C1329.56 941.67 1329.79 941.943 1330.07 942.25C1330.34 942.562 1330.72 942.832 1331.21 943.06C1331.7 943.293 1332.34 943.409 1333.12 943.409C1334.18 943.409 1335.05 943.153 1335.74 942.642C1336.43 942.131 1336.77 941.33 1336.77 940.239V937.58H1336.6C1336.45 937.818 1336.24 938.114 1335.97 938.466C1335.7 938.812 1335.32 939.122 1334.81 939.395C1334.31 939.662 1333.64 939.795 1332.78 939.795C1331.73 939.795 1330.78 939.545 1329.94 939.045C1329.1 938.545 1328.44 937.818 1327.95 936.864C1327.47 935.909 1327.23 934.75 1327.23 933.386C1327.23 932.045 1327.46 930.878 1327.93 929.884C1328.41 928.884 1329.06 928.111 1329.9 927.565C1330.74 927.014 1331.72 926.739 1332.82 926.739C1333.67 926.739 1334.35 926.881 1334.85 927.165C1335.35 927.443 1335.74 927.761 1336.01 928.119C1336.28 928.472 1336.49 928.761 1336.64 928.989H1336.84V926.909H1338.78V940.375C1338.78 941.5 1338.53 942.415 1338.02 943.119C1337.51 943.83 1336.83 944.349 1335.97 944.679C1335.12 945.014 1334.17 945.182 1333.12 945.182ZM1333.06 937.989C1333.86 937.989 1334.55 937.804 1335.1 937.435C1335.66 937.065 1336.08 936.534 1336.37 935.841C1336.66 935.148 1336.81 934.318 1336.81 933.352C1336.81 932.409 1336.66 931.577 1336.38 930.855C1336.1 930.134 1335.68 929.568 1335.12 929.159C1334.56 928.75 1333.88 928.545 1333.06 928.545C1332.2 928.545 1331.49 928.761 1330.93 929.193C1330.36 929.625 1329.94 930.205 1329.66 930.932C1329.38 931.659 1329.24 932.466 1329.24 933.352C1329.24 934.261 1329.38 935.065 1329.66 935.764C1329.95 936.457 1330.38 937.003 1330.94 937.401C1331.51 937.793 1332.22 937.989 1333.06 937.989ZM1341.99 940V926.909H1344V940H1341.99ZM1343.01 924.727C1342.62 924.727 1342.28 924.594 1341.99 924.327C1341.72 924.06 1341.58 923.739 1341.58 923.364C1341.58 922.989 1341.72 922.668 1341.99 922.401C1342.28 922.134 1342.62 922 1343.01 922C1343.4 922 1343.74 922.134 1344.01 922.401C1344.3 922.668 1344.44 922.989 1344.44 923.364C1344.44 923.739 1344.3 924.06 1344.01 924.327C1343.74 924.594 1343.4 924.727 1343.01 924.727ZM1352.89 926.909V928.614H1346.11V926.909H1352.89ZM1348.09 923.773H1350.1V936.25C1350.1 936.818 1350.18 937.244 1350.35 937.528C1350.52 937.807 1350.73 937.994 1350.99 938.091C1351.26 938.182 1351.54 938.227 1351.84 938.227C1352.06 938.227 1352.24 938.216 1352.38 938.193C1352.53 938.165 1352.64 938.142 1352.72 938.125L1353.13 939.932C1353 939.983 1352.81 940.034 1352.56 940.085C1352.32 940.142 1352.01 940.17 1351.63 940.17C1351.06 940.17 1350.51 940.048 1349.96 939.804C1349.42 939.56 1348.97 939.188 1348.62 938.688C1348.26 938.188 1348.09 937.557 1348.09 936.795V923.773ZM1357.73 932.125V940H1355.72V922.545H1357.73V928.955H1357.9C1358.21 928.278 1358.67 927.741 1359.28 927.344C1359.9 926.94 1360.73 926.739 1361.76 926.739C1362.65 926.739 1363.43 926.918 1364.1 927.276C1364.77 927.628 1365.29 928.17 1365.66 928.903C1366.03 929.631 1366.22 930.557 1366.22 931.682V940H1364.21V931.818C1364.21 930.778 1363.94 929.974 1363.4 929.406C1362.87 928.832 1362.12 928.545 1361.18 928.545C1360.52 928.545 1359.93 928.685 1359.4 928.963C1358.89 929.241 1358.48 929.648 1358.18 930.182C1357.88 930.716 1357.73 931.364 1357.73 932.125ZM1377.67 934.648V926.909H1379.68V940H1377.67V937.784H1377.53C1377.23 938.449 1376.75 939.014 1376.1 939.48C1375.46 939.94 1374.64 940.17 1373.65 940.17C1372.83 940.17 1372.1 939.991 1371.47 939.634C1370.83 939.27 1370.33 938.724 1369.97 937.997C1369.6 937.264 1369.42 936.341 1369.42 935.227V926.909H1371.43V935.091C1371.43 936.045 1371.7 936.807 1372.23 937.375C1372.77 937.943 1373.46 938.227 1374.3 938.227C1374.8 938.227 1375.3 938.099 1375.82 937.844C1376.34 937.588 1376.78 937.196 1377.13 936.668C1377.49 936.139 1377.67 935.466 1377.67 934.648ZM1383.16 940V922.545H1385.17V928.989H1385.34C1385.49 928.761 1385.69 928.472 1385.95 928.119C1386.22 927.761 1386.6 927.443 1387.1 927.165C1387.6 926.881 1388.27 926.739 1389.12 926.739C1390.23 926.739 1391.2 927.014 1392.04 927.565C1392.88 928.116 1393.54 928.898 1394.01 929.909C1394.48 930.92 1394.72 932.114 1394.72 933.489C1394.72 934.875 1394.48 936.077 1394.01 937.094C1393.54 938.105 1392.88 938.889 1392.05 939.446C1391.21 939.997 1390.25 940.273 1389.16 940.273C1388.32 940.273 1387.64 940.134 1387.14 939.855C1386.63 939.571 1386.24 939.25 1385.97 938.892C1385.7 938.528 1385.49 938.227 1385.34 937.989H1385.1V940H1383.16ZM1385.14 933.455C1385.14 934.443 1385.28 935.315 1385.57 936.071C1385.86 936.821 1386.28 937.409 1386.84 937.835C1387.4 938.256 1388.08 938.466 1388.89 938.466C1389.73 938.466 1390.43 938.244 1390.99 937.801C1391.56 937.352 1391.99 936.75 1392.27 935.994C1392.56 935.233 1392.7 934.386 1392.7 933.455C1392.7 932.534 1392.56 931.705 1392.28 930.966C1392 930.222 1391.58 929.634 1391.01 929.202C1390.45 928.764 1389.74 928.545 1388.89 928.545C1388.07 928.545 1387.38 928.753 1386.82 929.168C1386.27 929.577 1385.85 930.151 1385.56 930.889C1385.28 931.622 1385.14 932.477 1385.14 933.455ZM1398.78 940.136C1398.36 940.136 1398 939.986 1397.7 939.685C1397.39 939.384 1397.24 939.023 1397.24 938.602C1397.24 938.182 1397.39 937.821 1397.7 937.52C1398 937.219 1398.36 937.068 1398.78 937.068C1399.2 937.068 1399.56 937.219 1399.86 937.52C1400.16 937.821 1400.31 938.182 1400.31 938.602C1400.31 938.881 1400.24 939.136 1400.1 939.369C1399.96 939.602 1399.78 939.79 1399.55 939.932C1399.32 940.068 1399.06 940.136 1398.78 940.136ZM1408.76 940.273C1407.53 940.273 1406.48 939.983 1405.59 939.403C1404.7 938.824 1404.02 938.026 1403.54 937.009C1403.07 935.991 1402.83 934.83 1402.83 933.523C1402.83 932.193 1403.07 931.02 1403.56 930.003C1404.06 928.98 1404.74 928.182 1405.62 927.608C1406.51 927.028 1407.54 926.739 1408.73 926.739C1409.65 926.739 1410.48 926.909 1411.21 927.25C1411.95 927.591 1412.56 928.068 1413.03 928.682C1413.5 929.295 1413.79 930.011 1413.91 930.83H1411.9C1411.74 930.233 1411.4 929.705 1410.87 929.244C1410.35 928.778 1409.65 928.545 1408.76 928.545C1407.98 928.545 1407.29 928.75 1406.7 929.159C1406.11 929.562 1405.65 930.134 1405.33 930.872C1405 931.605 1404.84 932.466 1404.84 933.455C1404.84 934.466 1405 935.347 1405.32 936.097C1405.64 936.847 1406.1 937.429 1406.68 937.844C1407.27 938.259 1407.96 938.466 1408.76 938.466C1409.28 938.466 1409.76 938.375 1410.18 938.193C1410.61 938.011 1410.97 937.75 1411.27 937.409C1411.56 937.068 1411.77 936.659 1411.9 936.182H1413.91C1413.79 936.955 1413.51 937.651 1413.06 938.27C1412.62 938.884 1412.03 939.372 1411.3 939.736C1410.57 940.094 1409.73 940.273 1408.76 940.273ZM1421.69 940.273C1420.5 940.273 1419.47 939.991 1418.58 939.429C1417.69 938.866 1417 938.08 1416.5 937.068C1416 936.057 1415.75 934.875 1415.75 933.523C1415.75 932.159 1416 930.969 1416.5 929.952C1417 928.935 1417.69 928.145 1418.58 927.582C1419.47 927.02 1420.5 926.739 1421.69 926.739C1422.87 926.739 1423.9 927.02 1424.79 927.582C1425.68 928.145 1426.37 928.935 1426.87 929.952C1427.37 930.969 1427.62 932.159 1427.62 933.523C1427.62 934.875 1427.37 936.057 1426.87 937.068C1426.37 938.08 1425.68 938.866 1424.79 939.429C1423.9 939.991 1422.87 940.273 1421.69 940.273ZM1421.69 938.466C1422.58 938.466 1423.32 938.236 1423.9 937.776C1424.48 937.315 1424.91 936.71 1425.19 935.96C1425.47 935.21 1425.61 934.398 1425.61 933.523C1425.61 932.648 1425.47 931.832 1425.19 931.077C1424.91 930.321 1424.48 929.71 1423.9 929.244C1423.32 928.778 1422.58 928.545 1421.69 928.545C1420.79 928.545 1420.05 928.778 1419.47 929.244C1418.89 929.71 1418.46 930.321 1418.18 931.077C1417.91 931.832 1417.77 932.648 1417.77 933.523C1417.77 934.398 1417.91 935.21 1418.18 935.96C1418.46 936.71 1418.89 937.315 1419.47 937.776C1420.05 938.236 1420.79 938.466 1421.69 938.466ZM1430.21 940V926.909H1432.15V928.955H1432.32C1432.59 928.256 1433.04 927.713 1433.64 927.327C1434.25 926.935 1434.98 926.739 1435.83 926.739C1436.7 926.739 1437.42 926.935 1437.99 927.327C1438.57 927.713 1439.02 928.256 1439.34 928.955H1439.48C1439.82 928.278 1440.32 927.741 1440.99 927.344C1441.66 926.94 1442.46 926.739 1443.4 926.739C1444.57 926.739 1445.53 927.105 1446.27 927.838C1447.02 928.565 1447.39 929.699 1447.39 931.239V940H1445.38V931.239C1445.38 930.273 1445.11 929.582 1444.59 929.168C1444.06 928.753 1443.44 928.545 1442.72 928.545C1441.8 928.545 1441.09 928.824 1440.58 929.381C1440.07 929.932 1439.82 930.631 1439.82 931.477V940H1437.78V931.034C1437.78 930.29 1437.54 929.69 1437.05 929.236C1436.57 928.776 1435.95 928.545 1435.19 928.545C1434.66 928.545 1434.17 928.685 1433.72 928.963C1433.27 929.241 1432.91 929.628 1432.63 930.122C1432.36 930.611 1432.22 931.176 1432.22 931.818V940H1430.21ZM1456.76 921.727L1451.13 942.625H1449.29L1454.92 921.727H1456.76ZM1460.67 932.125V940H1458.66V926.909H1460.61V928.955H1460.78C1461.08 928.29 1461.55 927.756 1462.17 927.352C1462.8 926.943 1463.61 926.739 1464.59 926.739C1465.48 926.739 1466.26 926.92 1466.92 927.284C1467.59 927.642 1468.1 928.188 1468.47 928.92C1468.84 929.648 1469.03 930.568 1469.03 931.682V940H1467.01V931.818C1467.01 930.79 1466.75 929.989 1466.21 929.415C1465.68 928.835 1464.95 928.545 1464.01 928.545C1463.37 928.545 1462.8 928.685 1462.29 928.963C1461.79 929.241 1461.4 929.648 1461.11 930.182C1460.82 930.716 1460.67 931.364 1460.67 932.125ZM1480.47 934.648V926.909H1482.48V940H1480.47V937.784H1480.34C1480.03 938.449 1479.55 939.014 1478.9 939.48C1478.26 939.94 1477.44 940.17 1476.45 940.17C1475.63 940.17 1474.9 939.991 1474.27 939.634C1473.63 939.27 1473.13 938.724 1472.77 937.997C1472.4 937.264 1472.22 936.341 1472.22 935.227V926.909H1474.23V935.091C1474.23 936.045 1474.5 936.807 1475.03 937.375C1475.57 937.943 1476.26 938.227 1477.1 938.227C1477.6 938.227 1478.11 938.099 1478.62 937.844C1479.14 937.588 1479.58 937.196 1479.93 936.668C1480.29 936.139 1480.47 935.466 1480.47 934.648ZM1491.01 940.273C1489.78 940.273 1488.72 939.983 1487.83 939.403C1486.95 938.824 1486.27 938.026 1485.79 937.009C1485.31 935.991 1485.07 934.83 1485.07 933.523C1485.07 932.193 1485.32 931.02 1485.81 930.003C1486.3 928.98 1486.99 928.182 1487.87 927.608C1488.76 927.028 1489.79 926.739 1490.97 926.739C1491.89 926.739 1492.72 926.909 1493.46 927.25C1494.2 927.591 1494.8 928.068 1495.27 928.682C1495.75 929.295 1496.04 930.011 1496.15 930.83H1494.14C1493.99 930.233 1493.65 929.705 1493.12 929.244C1492.6 928.778 1491.89 928.545 1491.01 928.545C1490.22 928.545 1489.53 928.75 1488.94 929.159C1488.36 929.562 1487.9 930.134 1487.57 930.872C1487.25 931.605 1487.08 932.466 1487.08 933.455C1487.08 934.466 1487.24 935.347 1487.56 936.097C1487.89 936.847 1488.34 937.429 1488.93 937.844C1489.52 938.259 1490.21 938.466 1491.01 938.466C1491.53 938.466 1492 938.375 1492.43 938.193C1492.85 938.011 1493.22 937.75 1493.51 937.409C1493.81 937.068 1494.02 936.659 1494.14 936.182H1496.15C1496.04 936.955 1495.76 937.651 1495.31 938.27C1494.87 938.884 1494.28 939.372 1493.54 939.736C1492.82 940.094 1491.97 940.273 1491.01 940.273ZM1500.62 922.545V940H1498.61V922.545H1500.62ZM1509.32 940.273C1508.06 940.273 1506.97 939.994 1506.05 939.438C1505.14 938.875 1504.44 938.091 1503.95 937.085C1503.46 936.074 1503.21 934.898 1503.21 933.557C1503.21 932.216 1503.46 931.034 1503.95 930.011C1504.44 928.983 1505.13 928.182 1506.01 927.608C1506.9 927.028 1507.93 926.739 1509.11 926.739C1509.79 926.739 1510.47 926.852 1511.13 927.08C1511.8 927.307 1512.4 927.676 1512.95 928.188C1513.49 928.693 1513.93 929.364 1514.25 930.199C1514.58 931.034 1514.74 932.062 1514.74 933.284V934.136H1504.65V932.398H1512.69C1512.69 931.659 1512.54 931 1512.25 930.42C1511.96 929.841 1511.54 929.384 1511 929.048C1510.47 928.713 1509.84 928.545 1509.11 928.545C1508.31 928.545 1507.62 928.744 1507.03 929.142C1506.45 929.534 1506.01 930.045 1505.69 930.676C1505.38 931.307 1505.23 931.983 1505.23 932.705V933.864C1505.23 934.852 1505.4 935.69 1505.74 936.378C1506.08 937.06 1506.56 937.58 1507.18 937.938C1507.79 938.29 1508.5 938.466 1509.32 938.466C1509.85 938.466 1510.32 938.392 1510.75 938.244C1511.18 938.091 1511.55 937.864 1511.87 937.562C1512.18 937.256 1512.42 936.875 1512.59 936.42L1514.53 936.966C1514.33 937.625 1513.98 938.205 1513.5 938.705C1513.02 939.199 1512.42 939.585 1511.71 939.864C1511 940.136 1510.2 940.273 1509.32 940.273ZM1525.57 934.648V926.909H1527.58V940H1525.57V937.784H1525.43C1525.12 938.449 1524.65 939.014 1524 939.48C1523.35 939.94 1522.53 940.17 1521.54 940.17C1520.73 940.17 1520 939.991 1519.36 939.634C1518.73 939.27 1518.23 938.724 1517.86 937.997C1517.5 937.264 1517.32 936.341 1517.32 935.227V926.909H1519.33V935.091C1519.33 936.045 1519.6 936.807 1520.13 937.375C1520.67 937.943 1521.36 938.227 1522.19 938.227C1522.69 938.227 1523.2 938.099 1523.72 937.844C1524.24 937.588 1524.68 937.196 1525.03 936.668C1525.39 936.139 1525.57 935.466 1525.57 934.648ZM1540.06 929.841L1538.25 930.352C1538.13 930.051 1537.97 929.759 1537.75 929.474C1537.53 929.185 1537.23 928.946 1536.86 928.759C1536.48 928.571 1536 928.477 1535.42 928.477C1534.62 928.477 1533.95 928.662 1533.42 929.031C1532.89 929.395 1532.62 929.858 1532.62 930.42C1532.62 930.92 1532.81 931.315 1533.17 931.605C1533.53 931.895 1534.1 932.136 1534.87 932.33L1536.82 932.807C1537.99 933.091 1538.86 933.526 1539.43 934.111C1540.01 934.69 1540.29 935.437 1540.29 936.352C1540.29 937.102 1540.08 937.773 1539.65 938.364C1539.22 938.955 1538.62 939.42 1537.86 939.761C1537.09 940.102 1536.2 940.273 1535.18 940.273C1533.84 940.273 1532.74 939.983 1531.86 939.403C1530.99 938.824 1530.44 937.977 1530.2 936.864L1532.11 936.386C1532.29 937.091 1532.64 937.619 1533.14 937.972C1533.65 938.324 1534.32 938.5 1535.15 938.5C1536.08 938.5 1536.83 938.301 1537.38 937.903C1537.94 937.5 1538.21 937.017 1538.21 936.455C1538.21 936 1538.06 935.619 1537.74 935.312C1537.42 935 1536.93 934.767 1536.27 934.614L1534.09 934.102C1532.89 933.818 1532.01 933.378 1531.45 932.781C1530.89 932.179 1530.61 931.426 1530.61 930.523C1530.61 929.784 1530.82 929.131 1531.23 928.562C1531.65 927.994 1532.23 927.548 1532.95 927.224C1533.67 926.901 1534.5 926.739 1535.42 926.739C1536.71 926.739 1537.73 927.023 1538.47 927.591C1539.21 928.159 1539.74 928.909 1540.06 929.841ZM1548.16 940.273C1546.93 940.273 1545.88 939.983 1544.99 939.403C1544.1 938.824 1543.42 938.026 1542.94 937.009C1542.47 935.991 1542.23 934.83 1542.23 933.523C1542.23 932.193 1542.47 931.02 1542.96 930.003C1543.46 928.98 1544.14 928.182 1545.02 927.608C1545.91 927.028 1546.94 926.739 1548.13 926.739C1549.05 926.739 1549.88 926.909 1550.61 927.25C1551.35 927.591 1551.96 928.068 1552.43 928.682C1552.9 929.295 1553.19 930.011 1553.31 930.83H1551.3C1551.14 930.233 1550.8 929.705 1550.27 929.244C1549.75 928.778 1549.05 928.545 1548.16 928.545C1547.38 928.545 1546.69 928.75 1546.1 929.159C1545.51 929.562 1545.05 930.134 1544.73 930.872C1544.4 931.605 1544.24 932.466 1544.24 933.455C1544.24 934.466 1544.4 935.347 1544.72 936.097C1545.04 936.847 1545.49 937.429 1546.08 937.844C1546.67 938.259 1547.36 938.466 1548.16 938.466C1548.68 938.466 1549.16 938.375 1549.58 938.193C1550.01 938.011 1550.37 937.75 1550.67 937.409C1550.96 937.068 1551.17 936.659 1551.3 936.182H1553.31C1553.19 936.955 1552.91 937.651 1552.46 938.27C1552.02 938.884 1551.43 939.372 1550.7 939.736C1549.97 940.094 1549.13 940.273 1548.16 940.273ZM1557.78 922.545V940H1555.77V922.545H1557.78ZM1566.3 940.273C1565.12 940.273 1564.08 939.991 1563.19 939.429C1562.3 938.866 1561.61 938.08 1561.11 937.068C1560.62 936.057 1560.37 934.875 1560.37 933.523C1560.37 932.159 1560.62 930.969 1561.11 929.952C1561.61 928.935 1562.3 928.145 1563.19 927.582C1564.08 927.02 1565.12 926.739 1566.3 926.739C1567.48 926.739 1568.52 927.02 1569.4 927.582C1570.3 928.145 1570.99 928.935 1571.48 929.952C1571.98 930.969 1572.23 932.159 1572.23 933.523C1572.23 934.875 1571.98 936.057 1571.48 937.068C1570.99 938.08 1570.3 938.866 1569.4 939.429C1568.52 939.991 1567.48 940.273 1566.3 940.273ZM1566.3 938.466C1567.2 938.466 1567.94 938.236 1568.52 937.776C1569.1 937.315 1569.53 936.71 1569.8 935.96C1570.08 935.21 1570.22 934.398 1570.22 933.523C1570.22 932.648 1570.08 931.832 1569.8 931.077C1569.53 930.321 1569.1 929.71 1568.52 929.244C1567.94 928.778 1567.2 928.545 1566.3 928.545C1565.4 928.545 1564.66 928.778 1564.09 929.244C1563.51 929.71 1563.08 930.321 1562.8 931.077C1562.52 931.832 1562.38 932.648 1562.38 933.523C1562.38 934.398 1562.52 935.21 1562.8 935.96C1563.08 936.71 1563.51 937.315 1564.09 937.776C1564.66 938.236 1565.4 938.466 1566.3 938.466ZM1583.07 934.648V926.909H1585.08V940H1583.07V937.784H1582.94C1582.63 938.449 1582.15 939.014 1581.51 939.48C1580.86 939.94 1580.04 940.17 1579.05 940.17C1578.23 940.17 1577.51 939.991 1576.87 939.634C1576.23 939.27 1575.73 938.724 1575.37 937.997C1575.01 937.264 1574.82 936.341 1574.82 935.227V926.909H1576.83V935.091C1576.83 936.045 1577.1 936.807 1577.64 937.375C1578.18 937.943 1578.86 938.227 1579.7 938.227C1580.2 938.227 1580.71 938.099 1581.22 937.844C1581.75 937.588 1582.18 937.196 1582.54 936.668C1582.89 936.139 1583.07 935.466 1583.07 934.648ZM1593.23 940.273C1592.14 940.273 1591.18 939.997 1590.34 939.446C1589.51 938.889 1588.85 938.105 1588.38 937.094C1587.91 936.077 1587.68 934.875 1587.68 933.489C1587.68 932.114 1587.91 930.92 1588.38 929.909C1588.85 928.898 1589.51 928.116 1590.35 927.565C1591.19 927.014 1592.16 926.739 1593.27 926.739C1594.12 926.739 1594.79 926.881 1595.29 927.165C1595.79 927.443 1596.17 927.761 1596.43 928.119C1596.69 928.472 1596.9 928.761 1597.05 928.989H1597.22V922.545H1599.23V940H1597.29V937.989H1597.05C1596.9 938.227 1596.69 938.528 1596.42 938.892C1596.15 939.25 1595.76 939.571 1595.25 939.855C1594.75 940.134 1594.07 940.273 1593.23 940.273ZM1593.5 938.466C1594.31 938.466 1594.99 938.256 1595.55 937.835C1596.11 937.409 1596.53 936.821 1596.82 936.071C1597.11 935.315 1597.25 934.443 1597.25 933.455C1597.25 932.477 1597.11 931.622 1596.83 930.889C1596.54 930.151 1596.12 929.577 1595.57 929.168C1595.01 928.753 1594.32 928.545 1593.5 928.545C1592.65 928.545 1591.94 928.764 1591.37 929.202C1590.81 929.634 1590.39 930.222 1590.1 930.966C1589.83 931.705 1589.69 932.534 1589.69 933.455C1589.69 934.386 1589.83 935.233 1590.11 935.994C1590.4 936.75 1590.83 937.352 1591.39 937.801C1591.96 938.244 1592.66 938.466 1593.5 938.466ZM1608.89 921.727L1603.26 942.625H1601.42L1607.04 921.727H1608.89ZM1612.8 932.125V940H1610.79V926.909H1612.73V928.955H1612.9C1613.21 928.29 1613.68 927.756 1614.3 927.352C1614.93 926.943 1615.73 926.739 1616.72 926.739C1617.61 926.739 1618.38 926.92 1619.05 927.284C1619.71 927.642 1620.23 928.188 1620.6 928.92C1620.97 929.648 1621.15 930.568 1621.15 931.682V940H1619.14V931.818C1619.14 930.79 1618.87 929.989 1618.34 929.415C1617.81 928.835 1617.07 928.545 1616.14 928.545C1615.5 928.545 1614.93 928.685 1614.42 928.963C1613.92 929.241 1613.53 929.648 1613.24 930.182C1612.95 930.716 1612.8 931.364 1612.8 932.125ZM1629.84 940.273C1628.58 940.273 1627.49 939.994 1626.57 939.438C1625.66 938.875 1624.96 938.091 1624.47 937.085C1623.98 936.074 1623.74 934.898 1623.74 933.557C1623.74 932.216 1623.98 931.034 1624.47 930.011C1624.96 928.983 1625.65 928.182 1626.53 927.608C1627.42 927.028 1628.45 926.739 1629.63 926.739C1630.31 926.739 1630.99 926.852 1631.65 927.08C1632.32 927.307 1632.92 927.676 1633.47 928.188C1634.01 928.693 1634.45 929.364 1634.77 930.199C1635.1 931.034 1635.26 932.062 1635.26 933.284V934.136H1625.17V932.398H1633.21C1633.21 931.659 1633.06 931 1632.77 930.42C1632.48 929.841 1632.06 929.384 1631.52 929.048C1630.99 928.713 1630.36 928.545 1629.63 928.545C1628.83 928.545 1628.14 928.744 1627.55 929.142C1626.97 929.534 1626.53 930.045 1626.22 930.676C1625.9 931.307 1625.75 931.983 1625.75 932.705V933.864C1625.75 934.852 1625.92 935.69 1626.26 936.378C1626.6 937.06 1627.08 937.58 1627.7 937.938C1628.31 938.29 1629.02 938.466 1629.84 938.466C1630.37 938.466 1630.84 938.392 1631.27 938.244C1631.7 938.091 1632.07 937.864 1632.39 937.562C1632.7 937.256 1632.94 936.875 1633.11 936.42L1635.05 936.966C1634.85 937.625 1634.5 938.205 1634.02 938.705C1633.54 939.199 1632.94 939.585 1632.23 939.864C1631.52 940.136 1630.72 940.273 1629.84 940.273ZM1643.16 940.273C1641.97 940.273 1640.94 939.991 1640.04 939.429C1639.16 938.866 1638.47 938.08 1637.97 937.068C1637.47 936.057 1637.22 934.875 1637.22 933.523C1637.22 932.159 1637.47 930.969 1637.97 929.952C1638.47 928.935 1639.16 928.145 1640.04 927.582C1640.94 927.02 1641.97 926.739 1643.16 926.739C1644.34 926.739 1645.37 927.02 1646.26 927.582C1647.15 928.145 1647.84 928.935 1648.34 929.952C1648.84 930.969 1649.09 932.159 1649.09 933.523C1649.09 934.875 1648.84 936.057 1648.34 937.068C1647.84 938.08 1647.15 938.866 1646.26 939.429C1645.37 939.991 1644.34 940.273 1643.16 940.273ZM1643.16 938.466C1644.05 938.466 1644.79 938.236 1645.37 937.776C1645.95 937.315 1646.38 936.71 1646.66 935.96C1646.94 935.21 1647.08 934.398 1647.08 933.523C1647.08 932.648 1646.94 931.832 1646.66 931.077C1646.38 930.321 1645.95 929.71 1645.37 929.244C1644.79 928.778 1644.05 928.545 1643.16 928.545C1642.26 928.545 1641.52 928.778 1640.94 929.244C1640.36 929.71 1639.93 930.321 1639.65 931.077C1639.37 931.832 1639.24 932.648 1639.24 933.523C1639.24 934.398 1639.37 935.21 1639.65 935.96C1639.93 936.71 1640.36 937.315 1640.94 937.776C1641.52 938.236 1642.26 938.466 1643.16 938.466ZM1660.95 929.841L1659.14 930.352C1659.03 930.051 1658.86 929.759 1658.64 929.474C1658.42 929.185 1658.13 928.946 1657.75 928.759C1657.38 928.571 1656.9 928.477 1656.31 928.477C1655.51 928.477 1654.85 928.662 1654.31 929.031C1653.78 929.395 1653.52 929.858 1653.52 930.42C1653.52 930.92 1653.7 931.315 1654.06 931.605C1654.43 931.895 1655 932.136 1655.77 932.33L1657.71 932.807C1658.88 933.091 1659.75 933.526 1660.33 934.111C1660.9 934.69 1661.19 935.437 1661.19 936.352C1661.19 937.102 1660.97 937.773 1660.54 938.364C1660.12 938.955 1659.52 939.42 1658.75 939.761C1657.98 940.102 1657.09 940.273 1656.08 940.273C1654.74 940.273 1653.64 939.983 1652.76 939.403C1651.89 938.824 1651.33 937.977 1651.1 936.864L1653.01 936.386C1653.19 937.091 1653.53 937.619 1654.04 937.972C1654.55 938.324 1655.22 938.5 1656.04 938.5C1656.98 938.5 1657.72 938.301 1658.27 937.903C1658.83 937.5 1659.11 937.017 1659.11 936.455C1659.11 936 1658.95 935.619 1658.63 935.312C1658.31 935 1657.83 934.767 1657.17 934.614L1654.98 934.102C1653.79 933.818 1652.91 933.378 1652.34 932.781C1651.79 932.179 1651.51 931.426 1651.51 930.523C1651.51 929.784 1651.71 929.131 1652.13 928.562C1652.55 927.994 1653.12 927.548 1653.84 927.224C1654.57 926.901 1655.39 926.739 1656.31 926.739C1657.61 926.739 1658.63 927.023 1659.37 927.591C1660.11 928.159 1660.64 928.909 1660.95 929.841ZM1665.03 944.909C1664.69 944.909 1664.39 944.881 1664.12 944.824C1663.85 944.773 1663.67 944.722 1663.57 944.67L1664.08 942.898C1664.57 943.023 1665 943.068 1665.37 943.034C1665.75 943 1666.08 942.832 1666.37 942.531C1666.67 942.236 1666.94 941.756 1667.18 941.091L1667.56 940.068L1662.71 926.909H1664.9L1668.51 937.341H1668.65L1672.26 926.909H1674.44L1668.88 941.909C1668.63 942.585 1668.32 943.145 1667.96 943.588C1667.59 944.037 1667.16 944.369 1666.67 944.585C1666.19 944.801 1665.64 944.909 1665.03 944.909ZM1678.63 932.125V940H1676.62V926.909H1678.56V928.955H1678.73C1679.04 928.29 1679.5 927.756 1680.13 927.352C1680.75 926.943 1681.56 926.739 1682.55 926.739C1683.43 926.739 1684.21 926.92 1684.87 927.284C1685.54 927.642 1686.06 928.188 1686.43 928.92C1686.8 929.648 1686.98 930.568 1686.98 931.682V940H1684.97V931.818C1684.97 930.79 1684.7 929.989 1684.17 929.415C1683.63 928.835 1682.9 928.545 1681.97 928.545C1681.33 928.545 1680.75 928.685 1680.25 928.963C1679.75 929.241 1679.35 929.648 1679.06 930.182C1678.77 930.716 1678.63 931.364 1678.63 932.125ZM1695.49 940.273C1694.27 940.273 1693.21 939.983 1692.32 939.403C1691.44 938.824 1690.75 938.026 1690.28 937.009C1689.8 935.991 1689.56 934.83 1689.56 933.523C1689.56 932.193 1689.81 931.02 1690.29 930.003C1690.79 928.98 1691.48 928.182 1692.36 927.608C1693.24 927.028 1694.28 926.739 1695.46 926.739C1696.38 926.739 1697.21 926.909 1697.95 927.25C1698.69 927.591 1699.29 928.068 1699.76 928.682C1700.23 929.295 1700.53 930.011 1700.64 930.83H1698.63C1698.48 930.233 1698.14 929.705 1697.61 929.244C1697.08 928.778 1696.38 928.545 1695.49 928.545C1694.71 928.545 1694.02 928.75 1693.43 929.159C1692.85 929.562 1692.39 930.134 1692.06 930.872C1691.73 931.605 1691.57 932.466 1691.57 933.455C1691.57 934.466 1691.73 935.347 1692.05 936.097C1692.37 936.847 1692.83 937.429 1693.41 937.844C1694 938.259 1694.7 938.466 1695.49 938.466C1696.02 938.466 1696.49 938.375 1696.92 938.193C1697.34 938.011 1697.7 937.75 1698 937.409C1698.29 937.068 1698.5 936.659 1698.63 936.182H1700.64C1700.53 936.955 1700.25 937.651 1699.8 938.27C1699.35 938.884 1698.77 939.372 1698.03 939.736C1697.31 940.094 1696.46 940.273 1695.49 940.273Z" fill="#777777"/>
<path fill-rule="evenodd" clip-rule="evenodd" d="M1270.13 913C1255.69 913 1244 924.88 1244 939.548C1244 951.296 1251.48 961.218 1261.87 964.736C1263.18 964.968 1263.67 964.172 1263.67 963.475C1263.67 962.844 1263.63 960.753 1263.63 958.53C1257.07 959.758 1255.37 956.904 1254.85 955.411C1254.55 954.647 1253.28 952.291 1252.17 951.661C1251.25 951.163 1249.95 949.935 1252.13 949.902C1254.19 949.869 1255.66 951.827 1256.15 952.623C1258.5 956.639 1262.26 955.51 1263.76 954.813C1263.99 953.088 1264.68 951.926 1265.43 951.263C1259.61 950.599 1253.54 948.309 1253.54 938.154C1253.54 935.267 1254.55 932.878 1256.22 931.02C1255.96 930.356 1255.04 927.635 1256.48 923.984C1256.48 923.984 1258.67 923.287 1263.67 926.705C1265.76 926.108 1267.98 925.809 1270.2 925.809C1272.42 925.809 1274.64 926.108 1276.73 926.705C1281.73 923.254 1283.92 923.984 1283.92 923.984C1285.36 927.635 1284.44 930.356 1284.18 931.02C1285.85 932.878 1286.86 935.234 1286.86 938.154C1286.86 948.342 1280.75 950.599 1274.94 951.263C1275.88 952.092 1276.7 953.685 1276.7 956.174C1276.7 959.725 1276.67 962.579 1276.67 963.475C1276.67 964.172 1277.16 965.001 1278.46 964.736C1283.65 962.957 1288.16 959.569 1291.35 955.051C1294.55 950.533 1296.27 945.111 1296.27 939.548C1296.27 924.88 1284.57 913 1270.13 913Z" fill="#777777"/>
</svg>
