<svg width="1792" height="1024" viewBox="0 0 1792 1024" fill="none" xmlns="http://www.w3.org/2000/svg">
<rect width="1792" height="1024" fill="#080808"/>
<path d="M202.417 165.765C206.276 165.765 208.206 165.765 209.733 165.142C211.868 164.271 213.561 162.559 214.423 160.4C215.039 158.856 215.039 156.905 215.039 153.002V153.002V127.894C215.039 119.81 215.039 115.767 212.555 113.256C210.072 110.744 206.074 110.744 198.079 110.744H182.71C170.387 110.744 164.226 110.744 161.741 114.818C159.257 118.892 162.023 124.459 167.555 135.593L178.122 156.863C179.966 160.574 177.298 164.949 173.191 164.949C171.104 164.949 169.196 163.759 168.26 161.874L147.552 120.195C145.268 115.597 144.125 113.297 142.079 112.021C140.032 110.744 137.487 110.744 132.398 110.744L127.323 110.744C119.328 110.744 115.33 110.744 112.847 113.256C110.363 115.768 110.363 119.81 110.363 127.894L110.363 152.186C110.363 156.089 110.363 158.04 109.747 159.584C108.885 161.743 107.192 163.455 105.057 164.326C103.53 164.95 101.6 164.95 97.741 164.95H97.7409C93.8819 164.95 91.9523 164.95 90.4253 165.573C88.2902 166.444 86.5972 168.156 85.7355 170.315C85.1191 171.859 85.1191 173.81 85.1191 177.713V202.821C85.1191 210.905 85.1191 214.948 87.6029 217.459C90.0866 219.971 94.0841 219.971 102.079 219.971H102.079H117.449C129.771 219.971 135.932 219.971 138.417 215.897C140.901 211.823 138.135 206.256 132.604 195.122L122.036 173.852C120.192 170.14 122.86 165.766 126.967 165.766C129.054 165.766 130.962 166.956 131.899 168.841L152.606 210.52C154.891 215.118 156.033 217.418 158.08 218.694C160.126 219.97 162.671 219.97 167.761 219.97H167.761H172.835C180.83 219.97 184.828 219.97 187.312 217.459C189.795 214.947 189.795 210.905 189.795 202.82V178.529C189.795 174.626 189.795 172.675 190.412 171.131C191.274 168.972 192.966 167.26 195.102 166.389C196.629 165.765 198.558 165.765 202.417 165.765Z" fill="white"/>
<path d="M202.417 165.765C206.276 165.765 208.206 165.765 209.733 165.142C211.868 164.271 213.561 162.559 214.423 160.4C215.039 158.856 215.039 156.905 215.039 153.002V153.002V127.894C215.039 119.81 215.039 115.767 212.555 113.256C210.072 110.744 206.074 110.744 198.079 110.744H182.71C170.387 110.744 164.226 110.744 161.741 114.818C159.257 118.892 162.023 124.459 167.555 135.593L178.122 156.863C179.966 160.574 177.298 164.949 173.191 164.949C171.104 164.949 169.196 163.759 168.26 161.874L147.552 120.195C145.268 115.597 144.125 113.297 142.079 112.021C140.032 110.744 137.487 110.744 132.398 110.744L127.323 110.744C119.328 110.744 115.33 110.744 112.847 113.256C110.363 115.768 110.363 119.81 110.363 127.894L110.363 152.186C110.363 156.089 110.363 158.04 109.747 159.584C108.885 161.743 107.192 163.455 105.057 164.326C103.53 164.95 101.6 164.95 97.741 164.95H97.7409C93.8819 164.95 91.9523 164.95 90.4253 165.573C88.2902 166.444 86.5972 168.156 85.7355 170.315C85.1191 171.859 85.1191 173.81 85.1191 177.713V202.821C85.1191 210.905 85.1191 214.948 87.6029 217.459C90.0866 219.971 94.0841 219.971 102.079 219.971H102.079H117.449C129.771 219.971 135.932 219.971 138.417 215.897C140.901 211.823 138.135 206.256 132.604 195.122L122.036 173.852C120.192 170.14 122.86 165.766 126.967 165.766C129.054 165.766 130.962 166.956 131.899 168.841L152.606 210.52C154.891 215.118 156.033 217.418 158.08 218.694C160.126 219.97 162.671 219.97 167.761 219.97H167.761H172.835C180.83 219.97 184.828 219.97 187.312 217.459C189.795 214.947 189.795 210.905 189.795 202.82V178.529C189.795 174.626 189.795 172.675 190.412 171.131C191.274 168.972 192.966 167.26 195.102 166.389C196.629 165.765 198.558 165.765 202.417 165.765Z" stroke="white"/>
<path d="M142.097 399.441L123.006 329.623H131.597L146.188 386.487H146.87L161.734 329.623H171.279L186.143 386.487H186.825L201.415 329.623H210.006L190.915 399.441H182.188L166.779 343.805H166.234L150.825 399.441H142.097ZM225.575 367.941V399.441H217.53V329.623H225.575V355.26H226.257C227.484 352.555 229.325 350.407 231.78 348.816C234.257 347.203 237.552 346.396 241.666 346.396C245.234 346.396 248.359 347.112 251.041 348.544C253.723 349.953 255.802 352.123 257.28 355.055C258.78 357.964 259.53 361.669 259.53 366.169V399.441H251.484V366.714C251.484 362.555 250.405 359.339 248.245 357.066C246.109 354.771 243.143 353.623 239.348 353.623C236.711 353.623 234.348 354.18 232.257 355.294C230.189 356.407 228.552 358.032 227.348 360.169C226.166 362.305 225.575 364.896 225.575 367.941ZM287.737 400.669C284.419 400.669 281.408 400.044 278.703 398.794C275.999 397.521 273.851 395.691 272.26 393.305C270.669 390.896 269.874 387.987 269.874 384.578C269.874 381.578 270.465 379.146 271.647 377.282C272.828 375.396 274.408 373.919 276.385 372.85C278.362 371.782 280.544 370.987 282.931 370.464C285.34 369.919 287.76 369.487 290.192 369.169C293.374 368.76 295.953 368.453 297.931 368.248C299.931 368.021 301.385 367.646 302.294 367.123C303.226 366.6 303.692 365.691 303.692 364.396V364.123C303.692 360.76 302.772 358.146 300.931 356.282C299.112 354.419 296.351 353.487 292.647 353.487C288.806 353.487 285.794 354.328 283.612 356.01C281.431 357.691 279.897 359.487 279.01 361.396L271.374 358.669C272.737 355.487 274.556 353.01 276.828 351.237C279.124 349.441 281.624 348.191 284.328 347.487C287.056 346.76 289.737 346.396 292.374 346.396C294.056 346.396 295.987 346.6 298.169 347.01C300.374 347.396 302.499 348.203 304.544 349.43C306.612 350.657 308.328 352.51 309.692 354.987C311.056 357.464 311.737 360.782 311.737 364.941V399.441H303.692V392.35H303.283C302.737 393.487 301.828 394.703 300.556 395.998C299.283 397.294 297.59 398.396 295.476 399.305C293.362 400.214 290.783 400.669 287.737 400.669ZM288.965 393.441C292.147 393.441 294.828 392.816 297.01 391.566C299.215 390.316 300.874 388.703 301.987 386.725C303.124 384.748 303.692 382.669 303.692 380.487V373.123C303.351 373.532 302.601 373.907 301.442 374.248C300.306 374.566 298.987 374.85 297.487 375.1C296.01 375.328 294.567 375.532 293.158 375.714C291.772 375.873 290.647 376.01 289.783 376.123C287.692 376.396 285.737 376.839 283.919 377.453C282.124 378.044 280.669 378.941 279.556 380.146C278.465 381.328 277.919 382.941 277.919 384.987C277.919 387.782 278.953 389.896 281.022 391.328C283.112 392.737 285.76 393.441 288.965 393.441ZM347.275 347.078V353.896H320.138V347.078H347.275ZM328.048 334.532H336.093V384.441C336.093 386.714 336.423 388.419 337.082 389.555C337.763 390.669 338.627 391.419 339.673 391.805C340.741 392.169 341.866 392.35 343.048 392.35C343.934 392.35 344.661 392.305 345.229 392.214C345.798 392.1 346.252 392.01 346.593 391.941L348.229 399.169C347.684 399.373 346.923 399.578 345.945 399.782C344.968 400.01 343.729 400.123 342.229 400.123C339.957 400.123 337.729 399.635 335.548 398.657C333.388 397.68 331.593 396.191 330.161 394.191C328.752 392.191 328.048 389.669 328.048 386.623V334.532ZM382.537 399.441V347.078H390.583V399.441H382.537ZM386.628 338.35C385.06 338.35 383.708 337.816 382.571 336.748C381.458 335.68 380.901 334.396 380.901 332.896C380.901 331.396 381.458 330.112 382.571 329.044C383.708 327.975 385.06 327.441 386.628 327.441C388.196 327.441 389.537 327.975 390.651 329.044C391.787 330.112 392.355 331.396 392.355 332.896C392.355 334.396 391.787 335.68 390.651 336.748C389.537 337.816 388.196 338.35 386.628 338.35ZM440.489 358.805L433.262 360.85C432.807 359.646 432.137 358.475 431.251 357.339C430.387 356.18 429.205 355.225 427.705 354.475C426.205 353.725 424.285 353.35 421.944 353.35C418.739 353.35 416.069 354.089 413.932 355.566C411.819 357.021 410.762 358.873 410.762 361.123C410.762 363.123 411.489 364.703 412.944 365.862C414.398 367.021 416.671 367.987 419.762 368.76L427.535 370.669C432.217 371.805 435.705 373.544 438.001 375.885C440.296 378.203 441.444 381.191 441.444 384.85C441.444 387.85 440.58 390.532 438.853 392.896C437.148 395.26 434.762 397.123 431.694 398.487C428.626 399.85 425.057 400.532 420.989 400.532C415.648 400.532 411.228 399.373 407.728 397.055C404.228 394.737 402.012 391.35 401.08 386.896L408.717 384.987C409.444 387.805 410.819 389.919 412.842 391.328C414.887 392.737 417.557 393.441 420.853 393.441C424.603 393.441 427.58 392.646 429.785 391.055C432.012 389.441 433.126 387.51 433.126 385.26C433.126 383.441 432.489 381.919 431.217 380.691C429.944 379.441 427.989 378.51 425.353 377.896L416.626 375.85C411.83 374.714 408.307 372.953 406.057 370.566C403.83 368.157 402.717 365.146 402.717 361.532C402.717 358.578 403.546 355.964 405.205 353.691C406.887 351.419 409.171 349.635 412.057 348.339C414.967 347.044 418.262 346.396 421.944 346.396C427.126 346.396 431.194 347.532 434.148 349.805C437.126 352.078 439.239 355.078 440.489 358.805ZM477.805 399.441V329.623H501.396C506.874 329.623 511.351 330.612 514.828 332.589C518.328 334.544 520.919 337.191 522.601 340.532C524.283 343.873 525.124 347.6 525.124 351.714C525.124 355.828 524.283 359.566 522.601 362.93C520.942 366.294 518.374 368.975 514.896 370.975C511.419 372.953 506.965 373.941 501.533 373.941H484.624V366.441H501.26C505.01 366.441 508.021 365.794 510.294 364.498C512.567 363.203 514.215 361.453 515.237 359.248C516.283 357.021 516.805 354.51 516.805 351.714C516.805 348.919 516.283 346.419 515.237 344.214C514.215 342.01 512.555 340.282 510.26 339.032C507.965 337.76 504.919 337.123 501.124 337.123H486.26V399.441H477.805ZM556.442 400.532C551.715 400.532 547.567 399.407 543.999 397.157C540.454 394.907 537.681 391.76 535.681 387.714C533.704 383.669 532.715 378.941 532.715 373.532C532.715 368.078 533.704 363.316 535.681 359.248C537.681 355.18 540.454 352.021 543.999 349.771C547.567 347.521 551.715 346.396 556.442 346.396C561.17 346.396 565.306 347.521 568.851 349.771C572.42 352.021 575.192 355.18 577.17 359.248C579.17 363.316 580.17 368.078 580.17 373.532C580.17 378.941 579.17 383.669 577.17 387.714C575.192 391.76 572.42 394.907 568.851 397.157C565.306 399.407 561.17 400.532 556.442 400.532ZM556.442 393.305C560.033 393.305 562.988 392.385 565.306 390.544C567.624 388.703 569.34 386.282 570.454 383.282C571.567 380.282 572.124 377.032 572.124 373.532C572.124 370.032 571.567 366.771 570.454 363.748C569.34 360.725 567.624 358.282 565.306 356.419C562.988 354.555 560.033 353.623 556.442 353.623C552.851 353.623 549.897 354.555 547.579 356.419C545.26 358.282 543.545 360.725 542.431 363.748C541.317 366.771 540.76 370.032 540.76 373.532C540.76 377.032 541.317 380.282 542.431 383.282C543.545 386.282 545.26 388.703 547.579 390.544C549.897 392.385 552.851 393.305 556.442 393.305ZM627.622 358.805L620.394 360.85C619.94 359.646 619.269 358.475 618.383 357.339C617.519 356.18 616.338 355.225 614.838 354.475C613.338 353.725 611.417 353.35 609.076 353.35C605.872 353.35 603.201 354.089 601.065 355.566C598.951 357.021 597.894 358.873 597.894 361.123C597.894 363.123 598.622 364.703 600.076 365.862C601.531 367.021 603.804 367.987 606.894 368.76L614.667 370.669C619.349 371.805 622.838 373.544 625.133 375.885C627.429 378.203 628.576 381.191 628.576 384.85C628.576 387.85 627.713 390.532 625.985 392.896C624.281 395.26 621.894 397.123 618.826 398.487C615.758 399.85 612.19 400.532 608.122 400.532C602.781 400.532 598.36 399.373 594.86 397.055C591.36 394.737 589.144 391.35 588.213 386.896L595.849 384.987C596.576 387.805 597.951 389.919 599.974 391.328C602.019 392.737 604.69 393.441 607.985 393.441C611.735 393.441 614.713 392.646 616.917 391.055C619.144 389.441 620.258 387.51 620.258 385.26C620.258 383.441 619.622 381.919 618.349 380.691C617.076 379.441 615.122 378.51 612.485 377.896L603.758 375.85C598.963 374.714 595.44 372.953 593.19 370.566C590.963 368.157 589.849 365.146 589.849 361.532C589.849 358.578 590.679 355.964 592.338 353.691C594.019 351.419 596.304 349.635 599.19 348.339C602.099 347.044 605.394 346.396 609.076 346.396C614.258 346.396 618.326 347.532 621.281 349.805C624.258 352.078 626.372 355.078 627.622 358.805ZM661.54 347.078V353.896H634.403V347.078H661.54ZM642.313 334.532H650.358V384.441C650.358 386.714 650.688 388.419 651.347 389.555C652.028 390.669 652.892 391.419 653.938 391.805C655.006 392.169 656.131 392.35 657.313 392.35C658.199 392.35 658.926 392.305 659.494 392.214C660.063 392.1 660.517 392.01 660.858 391.941L662.494 399.169C661.949 399.373 661.188 399.578 660.21 399.782C659.233 400.01 657.994 400.123 656.494 400.123C654.222 400.123 651.994 399.635 649.813 398.657C647.653 397.68 645.858 396.191 644.426 394.191C643.017 392.191 642.313 389.669 642.313 386.623V334.532ZM692.296 420.169C688.41 420.169 685.069 419.669 682.273 418.669C679.478 417.691 677.148 416.396 675.285 414.782C673.444 413.191 671.978 411.487 670.887 409.669L677.296 405.169C678.023 406.123 678.944 407.214 680.057 408.441C681.171 409.691 682.694 410.771 684.626 411.68C686.58 412.612 689.137 413.078 692.296 413.078C696.523 413.078 700.012 412.055 702.762 410.01C705.512 407.964 706.887 404.76 706.887 400.396V389.76H706.205C705.614 390.714 704.773 391.896 703.682 393.305C702.614 394.691 701.069 395.93 699.046 397.021C697.046 398.089 694.341 398.623 690.932 398.623C686.705 398.623 682.91 397.623 679.546 395.623C676.205 393.623 673.557 390.714 671.603 386.896C669.671 383.078 668.705 378.441 668.705 372.987C668.705 367.623 669.648 362.953 671.535 358.975C673.421 354.975 676.046 351.885 679.41 349.703C682.773 347.498 686.66 346.396 691.069 346.396C694.478 346.396 697.182 346.964 699.182 348.1C701.205 349.214 702.751 350.487 703.819 351.919C704.91 353.328 705.751 354.487 706.341 355.396H707.16V347.078H714.932V400.941C714.932 405.441 713.91 409.1 711.864 411.919C709.841 414.76 707.114 416.839 703.682 418.157C700.273 419.498 696.478 420.169 692.296 420.169ZM692.023 391.396C695.251 391.396 697.978 390.657 700.205 389.18C702.432 387.703 704.126 385.578 705.285 382.805C706.444 380.032 707.023 376.714 707.023 372.85C707.023 369.078 706.455 365.748 705.319 362.862C704.182 359.975 702.501 357.714 700.273 356.078C698.046 354.441 695.296 353.623 692.023 353.623C688.614 353.623 685.773 354.487 683.501 356.214C681.251 357.941 679.557 360.26 678.421 363.169C677.307 366.078 676.751 369.305 676.751 372.85C676.751 376.487 677.319 379.703 678.455 382.498C679.614 385.271 681.319 387.453 683.569 389.044C685.841 390.612 688.66 391.396 692.023 391.396ZM727.74 399.441V347.078H735.512V354.987H736.058C737.012 352.396 738.74 350.294 741.24 348.68C743.74 347.066 746.558 346.26 749.694 346.26C750.285 346.26 751.024 346.271 751.91 346.294C752.796 346.316 753.467 346.35 753.921 346.396V354.578C753.649 354.51 753.024 354.407 752.046 354.271C751.092 354.112 750.08 354.032 749.012 354.032C746.467 354.032 744.194 354.566 742.194 355.635C740.217 356.68 738.649 358.135 737.49 359.998C736.353 361.839 735.785 363.941 735.785 366.305V399.441H727.74ZM781.899 400.532C776.854 400.532 772.501 399.419 768.842 397.191C765.206 394.941 762.399 391.805 760.422 387.782C758.467 383.737 757.49 379.032 757.49 373.669C757.49 368.305 758.467 363.578 760.422 359.487C762.399 355.373 765.149 352.169 768.672 349.873C772.217 347.555 776.354 346.396 781.081 346.396C783.808 346.396 786.501 346.85 789.16 347.76C791.82 348.669 794.24 350.146 796.422 352.191C798.604 354.214 800.342 356.896 801.638 360.237C802.933 363.578 803.581 367.691 803.581 372.578V375.987H763.217V369.032H795.399C795.399 366.078 794.808 363.441 793.626 361.123C792.467 358.805 790.808 356.975 788.649 355.635C786.513 354.294 783.99 353.623 781.081 353.623C777.876 353.623 775.104 354.419 772.763 356.01C770.445 357.578 768.66 359.623 767.41 362.146C766.16 364.669 765.535 367.373 765.535 370.26V374.896C765.535 378.85 766.217 382.203 767.581 384.953C768.967 387.68 770.888 389.76 773.342 391.191C775.797 392.6 778.649 393.305 781.899 393.305C784.013 393.305 785.922 393.01 787.626 392.419C789.354 391.805 790.842 390.896 792.092 389.691C793.342 388.464 794.308 386.941 794.99 385.123L802.763 387.305C801.945 389.941 800.57 392.26 798.638 394.26C796.706 396.237 794.32 397.782 791.479 398.896C788.638 399.987 785.445 400.532 781.899 400.532ZM850.99 358.805L843.763 360.85C843.309 359.646 842.638 358.475 841.752 357.339C840.888 356.18 839.706 355.225 838.206 354.475C836.706 353.725 834.786 353.35 832.445 353.35C829.24 353.35 826.57 354.089 824.434 355.566C822.32 357.021 821.263 358.873 821.263 361.123C821.263 363.123 821.99 364.703 823.445 365.862C824.9 367.021 827.172 367.987 830.263 368.76L838.036 370.669C842.718 371.805 846.206 373.544 848.502 375.885C850.797 378.203 851.945 381.191 851.945 384.85C851.945 387.85 851.081 390.532 849.354 392.896C847.65 395.26 845.263 397.123 842.195 398.487C839.127 399.85 835.559 400.532 831.49 400.532C826.15 400.532 821.729 399.373 818.229 397.055C814.729 394.737 812.513 391.35 811.581 386.896L819.218 384.987C819.945 387.805 821.32 389.919 823.343 391.328C825.388 392.737 828.059 393.441 831.354 393.441C835.104 393.441 838.081 392.646 840.286 391.055C842.513 389.441 843.627 387.51 843.627 385.26C843.627 383.441 842.99 381.919 841.718 380.691C840.445 379.441 838.49 378.51 835.854 377.896L827.127 375.85C822.331 374.714 818.809 372.953 816.559 370.566C814.331 368.157 813.218 365.146 813.218 361.532C813.218 358.578 814.047 355.964 815.706 353.691C817.388 351.419 819.672 349.635 822.559 348.339C825.468 347.044 828.763 346.396 832.445 346.396C837.627 346.396 841.695 347.532 844.65 349.805C847.627 352.078 849.74 355.078 850.99 358.805ZM891.17 399.441H882.307L907.943 329.623H916.67L942.307 399.441H933.443L912.579 340.669H912.034L891.17 399.441ZM894.443 372.169H930.17V379.669H894.443V372.169ZM958.216 367.941V399.441H950.171V347.078H957.944V355.26H958.625C959.853 352.6 961.716 350.464 964.216 348.85C966.716 347.214 969.944 346.396 973.898 346.396C977.444 346.396 980.546 347.123 983.205 348.578C985.864 350.01 987.932 352.191 989.409 355.123C990.887 358.032 991.625 361.714 991.625 366.169V399.441H983.58V366.714C983.58 362.6 982.512 359.396 980.375 357.1C978.239 354.782 975.307 353.623 971.58 353.623C969.012 353.623 966.716 354.18 964.694 355.294C962.694 356.407 961.114 358.032 959.955 360.169C958.796 362.305 958.216 364.896 958.216 367.941ZM1025.68 400.532C1020.95 400.532 1016.8 399.407 1013.24 397.157C1009.69 394.907 1006.92 391.76 1004.92 387.714C1002.94 383.669 1001.95 378.941 1001.95 373.532C1001.95 368.078 1002.94 363.316 1004.92 359.248C1006.92 355.18 1009.69 352.021 1013.24 349.771C1016.8 347.521 1020.95 346.396 1025.68 346.396C1030.41 346.396 1034.54 347.521 1038.09 349.771C1041.66 352.021 1044.43 355.18 1046.41 359.248C1048.41 363.316 1049.41 368.078 1049.41 373.532C1049.41 378.941 1048.41 383.669 1046.41 387.714C1044.43 391.76 1041.66 394.907 1038.09 397.157C1034.54 399.407 1030.41 400.532 1025.68 400.532ZM1025.68 393.305C1029.27 393.305 1032.23 392.385 1034.54 390.544C1036.86 388.703 1038.58 386.282 1039.69 383.282C1040.8 380.282 1041.36 377.032 1041.36 373.532C1041.36 370.032 1040.8 366.771 1039.69 363.748C1038.58 360.725 1036.86 358.282 1034.54 356.419C1032.23 354.555 1029.27 353.623 1025.68 353.623C1022.09 353.623 1019.13 354.555 1016.82 356.419C1014.5 358.282 1012.78 360.725 1011.67 363.748C1010.55 366.771 1010 370.032 1010 373.532C1010 377.032 1010.55 380.282 1011.67 383.282C1012.78 386.282 1014.5 388.703 1016.82 390.544C1019.13 392.385 1022.09 393.305 1025.68 393.305ZM1067.81 367.941V399.441H1059.77V347.078H1067.54V355.26H1068.22C1069.45 352.6 1071.31 350.464 1073.81 348.85C1076.31 347.214 1079.54 346.396 1083.5 346.396C1087.04 346.396 1090.14 347.123 1092.8 348.578C1095.46 350.01 1097.53 352.191 1099.01 355.123C1100.48 358.032 1101.22 361.714 1101.22 366.169V399.441H1093.18V366.714C1093.18 362.6 1092.11 359.396 1089.97 357.1C1087.84 354.782 1084.9 353.623 1081.18 353.623C1078.61 353.623 1076.31 354.18 1074.29 355.294C1072.29 356.407 1070.71 358.032 1069.55 360.169C1068.39 362.305 1067.81 364.896 1067.81 367.941ZM1117.31 419.078C1115.95 419.078 1114.73 418.964 1113.66 418.737C1112.6 418.532 1111.86 418.328 1111.45 418.123L1113.49 411.032C1115.45 411.532 1117.18 411.714 1118.68 411.578C1120.18 411.441 1121.5 410.771 1122.66 409.566C1123.85 408.385 1124.93 406.464 1125.9 403.805L1127.4 399.714L1108.04 347.078H1116.77L1131.22 388.805H1131.77L1146.22 347.078H1154.95L1132.72 407.078C1131.72 409.782 1130.48 412.021 1129 413.794C1127.53 415.589 1125.81 416.919 1123.86 417.782C1121.93 418.646 1119.74 419.078 1117.31 419.078ZM1163.65 399.441V347.078H1171.42V355.26H1172.1C1173.19 352.464 1174.95 350.294 1177.39 348.748C1179.82 347.18 1182.74 346.396 1186.15 346.396C1189.6 346.396 1192.48 347.18 1194.77 348.748C1197.09 350.294 1198.9 352.464 1200.19 355.26H1200.74C1202.08 352.555 1204.09 350.407 1206.77 348.816C1209.45 347.203 1212.67 346.396 1216.42 346.396C1221.1 346.396 1224.93 347.862 1227.91 350.794C1230.89 353.703 1232.37 358.237 1232.37 364.396V399.441H1224.33V364.396C1224.33 360.532 1223.27 357.771 1221.16 356.112C1219.04 354.453 1216.56 353.623 1213.69 353.623C1210.01 353.623 1207.16 354.737 1205.14 356.964C1203.11 359.169 1202.1 361.964 1202.1 365.35V399.441H1193.92V363.578C1193.92 360.6 1192.95 358.203 1191.02 356.385C1189.09 354.544 1186.6 353.623 1183.56 353.623C1181.47 353.623 1179.51 354.18 1177.69 355.294C1175.9 356.407 1174.44 357.953 1173.33 359.93C1172.24 361.885 1171.69 364.146 1171.69 366.714V399.441H1163.65ZM1245.16 399.441V347.078H1253.21V399.441H1245.16ZM1249.26 338.35C1247.69 338.35 1246.33 337.816 1245.2 336.748C1244.08 335.68 1243.53 334.396 1243.53 332.896C1243.53 331.396 1244.08 330.112 1245.2 329.044C1246.33 327.975 1247.69 327.441 1249.26 327.441C1250.82 327.441 1252.16 327.975 1253.28 329.044C1254.41 330.112 1254.98 331.396 1254.98 332.896C1254.98 334.396 1254.41 335.68 1253.28 336.748C1252.16 337.816 1250.82 338.35 1249.26 338.35ZM1264.53 399.441V393.305L1294.25 355.123V354.578H1265.48V347.078H1304.62V353.487L1275.71 391.396V391.941H1305.57V399.441H1264.53ZM1336.5 400.532C1331.45 400.532 1327.1 399.419 1323.44 397.191C1319.8 394.941 1317 391.805 1315.02 387.782C1313.07 383.737 1312.09 379.032 1312.09 373.669C1312.09 368.305 1313.07 363.578 1315.02 359.487C1317 355.373 1319.75 352.169 1323.27 349.873C1326.82 347.555 1330.95 346.396 1335.68 346.396C1338.41 346.396 1341.1 346.85 1343.76 347.76C1346.42 348.669 1348.84 350.146 1351.02 352.191C1353.2 354.214 1354.94 356.896 1356.24 360.237C1357.53 363.578 1358.18 367.691 1358.18 372.578V375.987H1317.82V369.032H1350C1350 366.078 1349.41 363.441 1348.23 361.123C1347.07 358.805 1345.41 356.975 1343.25 355.635C1341.11 354.294 1338.59 353.623 1335.68 353.623C1332.48 353.623 1329.7 354.419 1327.36 356.01C1325.04 357.578 1323.26 359.623 1322.01 362.146C1320.76 364.669 1320.13 367.373 1320.13 370.26V374.896C1320.13 378.85 1320.82 382.203 1322.18 384.953C1323.57 387.68 1325.49 389.76 1327.94 391.191C1330.4 392.6 1333.25 393.305 1336.5 393.305C1338.61 393.305 1340.52 393.01 1342.23 392.419C1343.95 391.805 1345.44 390.896 1346.69 389.691C1347.94 388.464 1348.91 386.941 1349.59 385.123L1357.36 387.305C1356.54 389.941 1355.17 392.26 1353.24 394.26C1351.3 396.237 1348.92 397.782 1346.08 398.896C1343.24 399.987 1340.04 400.532 1336.5 400.532ZM1368.5 399.441V347.078H1376.27V354.987H1376.82C1377.77 352.396 1379.5 350.294 1382 348.68C1384.5 347.066 1387.32 346.26 1390.45 346.26C1391.04 346.26 1391.78 346.271 1392.67 346.294C1393.56 346.316 1394.23 346.35 1394.68 346.396V354.578C1394.41 354.51 1393.78 354.407 1392.81 354.271C1391.85 354.112 1390.84 354.032 1389.77 354.032C1387.23 354.032 1384.95 354.566 1382.95 355.635C1380.98 356.68 1379.41 358.135 1378.25 359.998C1377.11 361.839 1376.54 363.941 1376.54 366.305V399.441H1368.5ZM1412.8 379.805V379.396C1412.84 375.055 1413.3 371.6 1414.16 369.032C1415.02 366.464 1416.25 364.385 1417.84 362.794C1419.43 361.203 1421.34 359.737 1423.57 358.396C1424.91 357.578 1426.12 356.612 1427.18 355.498C1428.25 354.362 1429.09 353.055 1429.71 351.578C1430.34 350.1 1430.66 348.464 1430.66 346.669C1430.66 344.441 1430.14 342.51 1429.09 340.873C1428.05 339.237 1426.65 337.975 1424.9 337.089C1423.15 336.203 1421.21 335.76 1419.07 335.76C1417.21 335.76 1415.41 336.146 1413.68 336.919C1411.96 337.691 1410.51 338.907 1409.35 340.566C1408.19 342.225 1407.52 344.396 1407.34 347.078H1398.75C1398.93 343.214 1399.93 339.907 1401.75 337.157C1403.59 334.407 1406.01 332.305 1409.01 330.85C1412.04 329.396 1415.39 328.669 1419.07 328.669C1423.07 328.669 1426.55 329.464 1429.5 331.055C1432.48 332.646 1434.77 334.828 1436.39 337.6C1438.02 340.373 1438.84 343.532 1438.84 347.078C1438.84 349.578 1438.46 351.839 1437.68 353.862C1436.93 355.885 1435.84 357.691 1434.41 359.282C1433 360.873 1431.3 362.282 1429.3 363.51C1427.3 364.76 1425.69 366.078 1424.49 367.464C1423.29 368.828 1422.41 370.453 1421.87 372.339C1421.32 374.225 1421.02 376.578 1420.98 379.396V379.805H1412.8ZM1417.16 399.987C1415.48 399.987 1414.04 399.385 1412.83 398.18C1411.63 396.975 1411.02 395.532 1411.02 393.85C1411.02 392.169 1411.63 390.725 1412.83 389.521C1414.04 388.316 1415.48 387.714 1417.16 387.714C1418.84 387.714 1420.29 388.316 1421.49 389.521C1422.69 390.725 1423.3 392.169 1423.3 393.85C1423.3 394.964 1423.01 395.987 1422.44 396.919C1421.9 397.85 1421.16 398.6 1420.23 399.169C1419.32 399.714 1418.3 399.987 1417.16 399.987ZM132.279 631.441H123.415L149.052 561.623H157.779L183.415 631.441H174.552L153.688 572.669H153.143L132.279 631.441ZM135.552 604.169H171.279V611.669H135.552V604.169ZM199.325 599.941V631.441H191.28V579.078H199.052V587.26H199.734C200.961 584.6 202.825 582.464 205.325 580.85C207.825 579.214 211.052 578.396 215.007 578.396C218.552 578.396 221.655 579.123 224.314 580.578C226.973 582.01 229.041 584.191 230.518 587.123C231.995 590.032 232.734 593.714 232.734 598.169V631.441H224.689V598.714C224.689 594.6 223.62 591.396 221.484 589.1C219.348 586.782 216.416 585.623 212.689 585.623C210.12 585.623 207.825 586.18 205.802 587.294C203.802 588.407 202.223 590.032 201.064 592.169C199.905 594.305 199.325 596.896 199.325 599.941ZM265.289 632.532C260.925 632.532 257.073 631.43 253.732 629.225C250.391 626.998 247.777 623.862 245.891 619.816C244.004 615.748 243.061 610.941 243.061 605.396C243.061 599.896 244.004 595.123 245.891 591.078C247.777 587.032 250.402 583.907 253.766 581.703C257.129 579.498 261.016 578.396 265.425 578.396C268.834 578.396 271.527 578.964 273.504 580.1C275.504 581.214 277.027 582.487 278.073 583.919C279.141 585.328 279.97 586.487 280.561 587.396H281.243V561.623H289.289V631.441H281.516V623.396H280.561C279.97 624.35 279.129 625.555 278.039 627.01C276.948 628.441 275.391 629.725 273.368 630.862C271.345 631.975 268.652 632.532 265.289 632.532ZM266.379 625.305C269.607 625.305 272.334 624.464 274.561 622.782C276.789 621.078 278.482 618.725 279.641 615.725C280.8 612.703 281.379 609.214 281.379 605.26C281.379 601.35 280.811 597.93 279.675 594.998C278.539 592.044 276.857 589.748 274.629 588.112C272.402 586.453 269.652 585.623 266.379 585.623C262.97 585.623 260.129 586.498 257.857 588.248C255.607 589.975 253.914 592.328 252.777 595.305C251.664 598.26 251.107 601.578 251.107 605.26C251.107 608.987 251.675 612.373 252.811 615.419C253.97 618.441 255.675 620.85 257.925 622.646C260.198 624.419 263.016 625.305 266.379 625.305ZM336.346 599.941V631.441H328.301V561.623H336.346V587.26H337.028C338.255 584.555 340.096 582.407 342.551 580.816C345.028 579.203 348.324 578.396 352.437 578.396C356.005 578.396 359.13 579.112 361.812 580.544C364.494 581.953 366.574 584.123 368.051 587.055C369.551 589.964 370.301 593.669 370.301 598.169V631.441H362.255V598.714C362.255 594.555 361.176 591.339 359.017 589.066C356.88 586.771 353.914 585.623 350.119 585.623C347.483 585.623 345.119 586.18 343.028 587.294C340.96 588.407 339.324 590.032 338.119 592.169C336.937 594.305 336.346 596.896 336.346 599.941ZM404.372 632.532C399.645 632.532 395.497 631.407 391.929 629.157C388.384 626.907 385.611 623.76 383.611 619.714C381.634 615.669 380.645 610.941 380.645 605.532C380.645 600.078 381.634 595.316 383.611 591.248C385.611 587.18 388.384 584.021 391.929 581.771C395.497 579.521 399.645 578.396 404.372 578.396C409.1 578.396 413.236 579.521 416.781 581.771C420.35 584.021 423.122 587.18 425.1 591.248C427.1 595.316 428.1 600.078 428.1 605.532C428.1 610.941 427.1 615.669 425.1 619.714C423.122 623.76 420.35 626.907 416.781 629.157C413.236 631.407 409.1 632.532 404.372 632.532ZM404.372 625.305C407.963 625.305 410.918 624.385 413.236 622.544C415.554 620.703 417.27 618.282 418.384 615.282C419.497 612.282 420.054 609.032 420.054 605.532C420.054 602.032 419.497 598.771 418.384 595.748C417.27 592.725 415.554 590.282 413.236 588.419C410.918 586.555 407.963 585.623 404.372 585.623C400.781 585.623 397.827 586.555 395.509 588.419C393.19 590.282 391.475 592.725 390.361 595.748C389.247 598.771 388.69 602.032 388.69 605.532C388.69 609.032 389.247 612.282 390.361 615.282C391.475 618.282 393.19 620.703 395.509 622.544C397.827 624.385 400.781 625.305 404.372 625.305ZM448.543 631.441L432.589 579.078H441.043L452.361 619.169H452.907L464.089 579.078H472.68L483.725 619.032H484.27L495.589 579.078H504.043L488.089 631.441H480.18L468.725 591.214H467.907L456.452 631.441H448.543ZM557.612 632.532C553.249 632.532 549.396 631.43 546.055 629.225C542.715 626.998 540.101 623.862 538.215 619.816C536.328 615.748 535.385 610.941 535.385 605.396C535.385 599.896 536.328 595.123 538.215 591.078C540.101 587.032 542.726 583.907 546.09 581.703C549.453 579.498 553.34 578.396 557.749 578.396C561.158 578.396 563.851 578.964 565.828 580.1C567.828 581.214 569.351 582.487 570.396 583.919C571.465 585.328 572.294 586.487 572.885 587.396H573.567V561.623H581.612V631.441H573.84V623.396H572.885C572.294 624.35 571.453 625.555 570.362 627.01C569.271 628.441 567.715 629.725 565.692 630.862C563.669 631.975 560.976 632.532 557.612 632.532ZM558.703 625.305C561.93 625.305 564.658 624.464 566.885 622.782C569.112 621.078 570.805 618.725 571.965 615.725C573.124 612.703 573.703 609.214 573.703 605.26C573.703 601.35 573.135 597.93 571.999 594.998C570.862 592.044 569.18 589.748 566.953 588.112C564.726 586.453 561.976 585.623 558.703 585.623C555.294 585.623 552.453 586.498 550.18 588.248C547.93 589.975 546.237 592.328 545.101 595.305C543.987 598.26 543.43 601.578 543.43 605.26C543.43 608.987 543.999 612.373 545.135 615.419C546.294 618.441 547.999 620.85 550.249 622.646C552.521 624.419 555.34 625.305 558.703 625.305ZM616.817 632.532C612.09 632.532 607.942 631.407 604.374 629.157C600.829 626.907 598.056 623.76 596.056 619.714C594.079 615.669 593.09 610.941 593.09 605.532C593.09 600.078 594.079 595.316 596.056 591.248C598.056 587.18 600.829 584.021 604.374 581.771C607.942 579.521 612.09 578.396 616.817 578.396C621.545 578.396 625.681 579.521 629.226 581.771C632.795 584.021 635.567 587.18 637.545 591.248C639.545 595.316 640.545 600.078 640.545 605.532C640.545 610.941 639.545 615.669 637.545 619.714C635.567 623.76 632.795 626.907 629.226 629.157C625.681 631.407 621.545 632.532 616.817 632.532ZM616.817 625.305C620.408 625.305 623.363 624.385 625.681 622.544C627.999 620.703 629.715 618.282 630.829 615.282C631.942 612.282 632.499 609.032 632.499 605.532C632.499 602.032 631.942 598.771 630.829 595.748C629.715 592.725 627.999 590.282 625.681 588.419C623.363 586.555 620.408 585.623 616.817 585.623C613.226 585.623 610.272 586.555 607.954 588.419C605.635 590.282 603.92 592.725 602.806 595.748C601.692 598.771 601.135 602.032 601.135 605.532C601.135 609.032 601.692 612.282 602.806 615.282C603.92 618.282 605.635 620.703 607.954 622.544C610.272 624.385 613.226 625.305 616.817 625.305ZM681.168 651.078C679.804 651.078 678.588 650.964 677.52 650.737C676.452 650.532 675.713 650.328 675.304 650.123L677.349 643.032C679.304 643.532 681.031 643.714 682.531 643.578C684.031 643.441 685.361 642.771 686.52 641.566C687.702 640.385 688.781 638.464 689.759 635.805L691.259 631.714L671.895 579.078H680.622L695.077 620.805H695.622L710.077 579.078H718.804L696.577 639.078C695.577 641.782 694.338 644.021 692.861 645.794C691.384 647.589 689.668 648.919 687.713 649.782C685.781 650.646 683.599 651.078 681.168 651.078ZM746.901 632.532C742.174 632.532 738.026 631.407 734.458 629.157C730.912 626.907 728.14 623.76 726.14 619.714C724.162 615.669 723.174 610.941 723.174 605.532C723.174 600.078 724.162 595.316 726.14 591.248C728.14 587.18 730.912 584.021 734.458 581.771C738.026 579.521 742.174 578.396 746.901 578.396C751.628 578.396 755.765 579.521 759.31 581.771C762.878 584.021 765.651 587.18 767.628 591.248C769.628 595.316 770.628 600.078 770.628 605.532C770.628 610.941 769.628 615.669 767.628 619.714C765.651 623.76 762.878 626.907 759.31 629.157C755.765 631.407 751.628 632.532 746.901 632.532ZM746.901 625.305C750.492 625.305 753.447 624.385 755.765 622.544C758.083 620.703 759.799 618.282 760.912 615.282C762.026 612.282 762.583 609.032 762.583 605.532C762.583 602.032 762.026 598.771 760.912 595.748C759.799 592.725 758.083 590.282 755.765 588.419C753.447 586.555 750.492 585.623 746.901 585.623C743.31 585.623 740.356 586.555 738.037 588.419C735.719 590.282 734.003 592.725 732.89 595.748C731.776 598.771 731.219 602.032 731.219 605.532C731.219 609.032 731.776 612.282 732.89 615.282C734.003 618.282 735.719 620.703 738.037 622.544C740.356 624.385 743.31 625.305 746.901 625.305ZM813.99 610.032V579.078H822.035V631.441H813.99V622.578H813.444C812.217 625.237 810.308 627.498 807.717 629.362C805.126 631.203 801.853 632.123 797.899 632.123C794.626 632.123 791.717 631.407 789.171 629.975C786.626 628.521 784.626 626.339 783.171 623.43C781.717 620.498 780.99 616.805 780.99 612.35V579.078H789.035V611.805C789.035 615.623 790.103 618.669 792.24 620.941C794.399 623.214 797.149 624.35 800.49 624.35C802.49 624.35 804.524 623.839 806.592 622.816C808.683 621.794 810.433 620.225 811.842 618.112C813.274 615.998 813.99 613.305 813.99 610.032ZM892.931 610.032V579.078H900.976V631.441H892.931V622.578H892.385C891.158 625.237 889.249 627.498 886.658 629.362C884.067 631.203 880.794 632.123 876.84 632.123C873.567 632.123 870.658 631.407 868.113 629.975C865.567 628.521 863.567 626.339 862.113 623.43C860.658 620.498 859.931 616.805 859.931 612.35V579.078H867.976V611.805C867.976 615.623 869.044 618.669 871.181 620.941C873.34 623.214 876.09 624.35 879.431 624.35C881.431 624.35 883.465 623.839 885.533 622.816C887.624 621.794 889.374 620.225 890.783 618.112C892.215 615.998 892.931 613.305 892.931 610.032ZM950.883 590.805L943.656 592.85C943.201 591.646 942.531 590.475 941.644 589.339C940.781 588.18 939.599 587.225 938.099 586.475C936.599 585.725 934.678 585.35 932.338 585.35C929.133 585.35 926.463 586.089 924.326 587.566C922.213 589.021 921.156 590.873 921.156 593.123C921.156 595.123 921.883 596.703 923.338 597.862C924.792 599.021 927.065 599.987 930.156 600.76L937.928 602.669C942.61 603.805 946.099 605.544 948.394 607.885C950.69 610.203 951.838 613.191 951.838 616.85C951.838 619.85 950.974 622.532 949.247 624.896C947.542 627.26 945.156 629.123 942.088 630.487C939.019 631.85 935.451 632.532 931.383 632.532C926.042 632.532 921.622 631.373 918.122 629.055C914.622 626.737 912.406 623.35 911.474 618.896L919.11 616.987C919.838 619.805 921.213 621.919 923.235 623.328C925.281 624.737 927.951 625.441 931.247 625.441C934.997 625.441 937.974 624.646 940.178 623.055C942.406 621.441 943.519 619.51 943.519 617.26C943.519 615.441 942.883 613.919 941.61 612.691C940.338 611.441 938.383 610.51 935.747 609.896L927.019 607.85C922.224 606.714 918.701 604.953 916.451 602.566C914.224 600.157 913.11 597.146 913.11 593.532C913.11 590.578 913.94 587.964 915.599 585.691C917.281 583.419 919.565 581.635 922.451 580.339C925.36 579.044 928.656 578.396 932.338 578.396C937.519 578.396 941.588 579.532 944.542 581.805C947.519 584.078 949.633 587.078 950.883 590.805ZM983.983 632.532C978.937 632.532 974.585 631.419 970.926 629.191C967.29 626.941 964.483 623.805 962.506 619.782C960.551 615.737 959.574 611.032 959.574 605.669C959.574 600.305 960.551 595.578 962.506 591.487C964.483 587.373 967.233 584.169 970.756 581.873C974.301 579.555 978.437 578.396 983.165 578.396C985.892 578.396 988.585 578.85 991.244 579.76C993.903 580.669 996.324 582.146 998.506 584.191C1000.69 586.214 1002.43 588.896 1003.72 592.237C1005.02 595.578 1005.66 599.691 1005.66 604.578V607.987H965.301V601.032H997.483C997.483 598.078 996.892 595.441 995.71 593.123C994.551 590.805 992.892 588.975 990.733 587.635C988.596 586.294 986.074 585.623 983.165 585.623C979.96 585.623 977.187 586.419 974.846 588.01C972.528 589.578 970.744 591.623 969.494 594.146C968.244 596.669 967.619 599.373 967.619 602.26V606.896C967.619 610.85 968.301 614.203 969.665 616.953C971.051 619.68 972.971 621.76 975.426 623.191C977.881 624.6 980.733 625.305 983.983 625.305C986.096 625.305 988.006 625.01 989.71 624.419C991.437 623.805 992.926 622.896 994.176 621.691C995.426 620.464 996.392 618.941 997.074 617.123L1004.85 619.305C1004.03 621.941 1002.65 624.26 1000.72 626.26C998.79 628.237 996.403 629.782 993.562 630.896C990.721 631.987 987.528 632.532 983.983 632.532ZM1041.06 631.441V579.078H1049.11V631.441H1041.06ZM1045.15 570.35C1043.59 570.35 1042.23 569.816 1041.1 568.748C1039.98 567.68 1039.43 566.396 1039.43 564.896C1039.43 563.396 1039.98 562.112 1041.1 561.044C1042.23 559.975 1043.59 559.441 1045.15 559.441C1046.72 559.441 1048.06 559.975 1049.18 561.044C1050.31 562.112 1050.88 563.396 1050.88 564.896C1050.88 566.396 1050.31 567.68 1049.18 568.748C1048.06 569.816 1046.72 570.35 1045.15 570.35ZM1084.7 579.078V585.896H1057.56V579.078H1084.7ZM1065.47 566.532H1073.52V616.441C1073.52 618.714 1073.85 620.419 1074.5 621.555C1075.19 622.669 1076.05 623.419 1077.1 623.805C1078.16 624.169 1079.29 624.35 1080.47 624.35C1081.36 624.35 1082.08 624.305 1082.65 624.214C1083.22 624.1 1083.67 624.01 1084.02 623.941L1085.65 631.169C1085.11 631.373 1084.35 631.578 1083.37 631.782C1082.39 632.01 1081.15 632.123 1079.65 632.123C1077.38 632.123 1075.15 631.635 1072.97 630.657C1070.81 629.68 1069.02 628.191 1067.58 626.191C1066.17 624.191 1065.47 621.669 1065.47 618.623V566.532ZM1105.38 611.805V611.396C1105.43 607.055 1105.88 603.6 1106.74 601.032C1107.61 598.464 1108.83 596.385 1110.43 594.794C1112.02 593.203 1113.93 591.737 1116.15 590.396C1117.49 589.578 1118.7 588.612 1119.77 587.498C1120.83 586.362 1121.68 585.055 1122.29 583.578C1122.93 582.1 1123.24 580.464 1123.24 578.669C1123.24 576.441 1122.72 574.51 1121.68 572.873C1120.63 571.237 1119.23 569.975 1117.48 569.089C1115.73 568.203 1113.79 567.76 1111.65 567.76C1109.79 567.76 1107.99 568.146 1106.27 568.919C1104.54 569.691 1103.1 570.907 1101.94 572.566C1100.78 574.225 1100.11 576.396 1099.93 579.078H1091.33C1091.52 575.214 1092.52 571.907 1094.33 569.157C1096.18 566.407 1098.6 564.305 1101.6 562.85C1104.62 561.396 1107.97 560.669 1111.65 560.669C1115.65 560.669 1119.13 561.464 1122.08 563.055C1125.06 564.646 1127.36 566.828 1128.97 569.6C1130.61 572.373 1131.43 575.532 1131.43 579.078C1131.43 581.578 1131.04 583.839 1130.27 585.862C1129.52 587.885 1128.43 589.691 1126.99 591.282C1125.58 592.873 1123.88 594.282 1121.88 595.51C1119.88 596.76 1118.28 598.078 1117.07 599.464C1115.87 600.828 1114.99 602.453 1114.45 604.339C1113.9 606.225 1113.61 608.578 1113.56 611.396V611.805H1105.38ZM1109.74 631.987C1108.06 631.987 1106.62 631.385 1105.41 630.18C1104.21 628.975 1103.61 627.532 1103.61 625.85C1103.61 624.169 1104.21 622.725 1105.41 621.521C1106.62 620.316 1108.06 619.714 1109.74 619.714C1111.43 619.714 1112.87 620.316 1114.07 621.521C1115.28 622.725 1115.88 624.169 1115.88 625.85C1115.88 626.964 1115.6 627.987 1115.03 628.919C1114.48 629.85 1113.74 630.6 1112.81 631.169C1111.9 631.714 1110.88 631.987 1109.74 631.987Z" fill="white"/>
<path d="M88.9714 928.381V936.256H86.96V923.165H88.9032V925.21H89.0737C89.3805 924.546 89.8464 924.012 90.4714 923.608C91.0964 923.199 91.9032 922.994 92.8919 922.994C93.7782 922.994 94.5538 923.176 95.2186 923.54C95.8833 923.898 96.4004 924.443 96.7697 925.176C97.139 925.904 97.3237 926.824 97.3237 927.938V936.256H95.3123V928.074C95.3123 927.046 95.0453 926.244 94.5112 925.671C93.9771 925.091 93.2441 924.801 92.3123 924.801C91.6703 924.801 91.0964 924.941 90.5907 925.219C90.0907 925.497 89.6958 925.904 89.4061 926.438C89.1163 926.972 88.9714 927.619 88.9714 928.381ZM106.008 936.529C104.746 936.529 103.658 936.25 102.744 935.693C101.834 935.131 101.133 934.347 100.638 933.341C100.15 932.33 99.9055 931.154 99.9055 929.813C99.9055 928.472 100.15 927.29 100.638 926.267C101.133 925.239 101.82 924.438 102.701 923.864C103.587 923.284 104.621 922.994 105.803 922.994C106.485 922.994 107.158 923.108 107.823 923.335C108.488 923.563 109.093 923.932 109.638 924.443C110.184 924.949 110.619 925.619 110.942 926.455C111.266 927.29 111.428 928.318 111.428 929.54V930.392H101.337V928.654H109.383C109.383 927.915 109.235 927.256 108.94 926.676C108.65 926.097 108.235 925.639 107.695 925.304C107.161 924.969 106.53 924.801 105.803 924.801C105.002 924.801 104.309 925 103.724 925.398C103.144 925.79 102.698 926.301 102.386 926.932C102.073 927.563 101.917 928.239 101.917 928.96V930.119C101.917 931.108 102.087 931.946 102.428 932.634C102.775 933.316 103.255 933.835 103.869 934.193C104.482 934.546 105.195 934.722 106.008 934.722C106.536 934.722 107.013 934.648 107.44 934.5C107.871 934.347 108.244 934.119 108.556 933.818C108.869 933.512 109.11 933.131 109.28 932.676L111.224 933.222C111.019 933.881 110.675 934.46 110.192 934.96C109.709 935.455 109.113 935.841 108.403 936.119C107.692 936.392 106.894 936.529 106.008 936.529ZM119.326 936.529C118.144 936.529 117.107 936.247 116.215 935.685C115.329 935.122 114.636 934.335 114.136 933.324C113.641 932.313 113.394 931.131 113.394 929.779C113.394 928.415 113.641 927.225 114.136 926.208C114.636 925.191 115.329 924.401 116.215 923.838C117.107 923.276 118.144 922.994 119.326 922.994C120.508 922.994 121.542 923.276 122.428 923.838C123.32 924.401 124.014 925.191 124.508 926.208C125.008 927.225 125.258 928.415 125.258 929.779C125.258 931.131 125.008 932.313 124.508 933.324C124.014 934.335 123.32 935.122 122.428 935.685C121.542 936.247 120.508 936.529 119.326 936.529ZM119.326 934.722C120.224 934.722 120.962 934.492 121.542 934.031C122.121 933.571 122.55 932.966 122.829 932.216C123.107 931.466 123.247 930.654 123.247 929.779C123.247 928.904 123.107 928.088 122.829 927.333C122.55 926.577 122.121 925.966 121.542 925.5C120.962 925.034 120.224 924.801 119.326 924.801C118.428 924.801 117.69 925.034 117.11 925.5C116.531 925.966 116.102 926.577 115.823 927.333C115.545 928.088 115.406 928.904 115.406 929.779C115.406 930.654 115.545 931.466 115.823 932.216C116.102 932.966 116.531 933.571 117.11 934.031C117.69 934.492 118.428 934.722 119.326 934.722ZM137.121 926.097L135.314 926.608C135.2 926.307 135.033 926.014 134.811 925.73C134.595 925.441 134.3 925.202 133.925 925.014C133.55 924.827 133.07 924.733 132.485 924.733C131.683 924.733 131.016 924.918 130.482 925.287C129.953 925.651 129.689 926.114 129.689 926.676C129.689 927.176 129.871 927.571 130.235 927.861C130.598 928.151 131.166 928.392 131.939 928.585L133.882 929.063C135.053 929.347 135.925 929.781 136.499 930.367C137.073 930.946 137.36 931.693 137.36 932.608C137.36 933.358 137.144 934.029 136.712 934.619C136.286 935.21 135.689 935.676 134.922 936.017C134.155 936.358 133.263 936.529 132.246 936.529C130.911 936.529 129.806 936.239 128.931 935.659C128.056 935.08 127.502 934.233 127.269 933.119L129.178 932.642C129.36 933.347 129.703 933.875 130.209 934.227C130.72 934.58 131.388 934.756 132.212 934.756C133.149 934.756 133.894 934.557 134.445 934.159C135.002 933.756 135.28 933.273 135.28 932.71C135.28 932.256 135.121 931.875 134.803 931.568C134.485 931.256 133.996 931.023 133.337 930.869L131.155 930.358C129.956 930.074 129.075 929.634 128.513 929.037C127.956 928.435 127.678 927.682 127.678 926.779C127.678 926.04 127.885 925.387 128.3 924.818C128.72 924.25 129.291 923.804 130.013 923.48C130.74 923.156 131.564 922.994 132.485 922.994C133.78 922.994 134.797 923.279 135.536 923.847C136.28 924.415 136.808 925.165 137.121 926.097ZM141.203 941.165C140.862 941.165 140.558 941.137 140.291 941.08C140.024 941.029 139.839 940.977 139.737 940.926L140.248 939.154C140.737 939.279 141.169 939.324 141.544 939.29C141.919 939.256 142.251 939.088 142.541 938.787C142.836 938.492 143.106 938.012 143.35 937.347L143.725 936.324L138.885 923.165H141.066L144.68 933.597H144.816L148.43 923.165H150.612L145.055 938.165C144.805 938.841 144.495 939.401 144.126 939.844C143.757 940.293 143.328 940.625 142.839 940.841C142.356 941.057 141.811 941.165 141.203 941.165ZM154.798 928.381V936.256H152.787V923.165H154.73V925.21H154.9C155.207 924.546 155.673 924.012 156.298 923.608C156.923 923.199 157.73 922.994 158.718 922.994C159.605 922.994 160.38 923.176 161.045 923.54C161.71 923.898 162.227 924.443 162.596 925.176C162.966 925.904 163.15 926.824 163.15 927.938V936.256H161.139V928.074C161.139 927.046 160.872 926.244 160.338 925.671C159.804 925.091 159.071 924.801 158.139 924.801C157.497 924.801 156.923 924.941 156.417 925.219C155.917 925.497 155.522 925.904 155.233 926.438C154.943 926.972 154.798 927.619 154.798 928.381ZM171.664 936.529C170.437 936.529 169.38 936.239 168.493 935.659C167.607 935.08 166.925 934.281 166.448 933.264C165.971 932.247 165.732 931.085 165.732 929.779C165.732 928.449 165.976 927.276 166.465 926.259C166.959 925.236 167.647 924.438 168.527 923.864C169.414 923.284 170.448 922.994 171.63 922.994C172.55 922.994 173.38 923.165 174.118 923.506C174.857 923.847 175.462 924.324 175.934 924.938C176.405 925.551 176.698 926.267 176.812 927.085H174.8C174.647 926.489 174.306 925.96 173.777 925.5C173.255 925.034 172.55 924.801 171.664 924.801C170.88 924.801 170.192 925.006 169.601 925.415C169.016 925.818 168.559 926.389 168.229 927.128C167.905 927.861 167.743 928.722 167.743 929.71C167.743 930.722 167.902 931.602 168.221 932.352C168.545 933.102 168.999 933.685 169.584 934.1C170.175 934.514 170.868 934.722 171.664 934.722C172.187 934.722 172.661 934.631 173.087 934.449C173.513 934.267 173.874 934.006 174.17 933.665C174.465 933.324 174.675 932.915 174.8 932.438H176.812C176.698 933.21 176.417 933.906 175.968 934.526C175.525 935.139 174.937 935.628 174.204 935.992C173.476 936.35 172.63 936.529 171.664 936.529ZM180.738 936.392C180.317 936.392 179.957 936.242 179.655 935.941C179.354 935.639 179.204 935.279 179.204 934.858C179.204 934.438 179.354 934.077 179.655 933.776C179.957 933.475 180.317 933.324 180.738 933.324C181.158 933.324 181.519 933.475 181.82 933.776C182.121 934.077 182.272 934.438 182.272 934.858C182.272 935.137 182.201 935.392 182.059 935.625C181.922 935.858 181.738 936.046 181.505 936.188C181.278 936.324 181.022 936.392 180.738 936.392ZM190.344 936.529C189.254 936.529 188.291 936.253 187.455 935.702C186.62 935.145 185.967 934.361 185.495 933.35C185.023 932.333 184.788 931.131 184.788 929.744C184.788 928.369 185.023 927.176 185.495 926.165C185.967 925.154 186.623 924.372 187.464 923.821C188.305 923.27 189.276 922.994 190.379 922.994C191.231 922.994 191.904 923.137 192.398 923.421C192.898 923.699 193.279 924.017 193.541 924.375C193.808 924.727 194.015 925.017 194.163 925.244H194.333V918.801H196.344V936.256H194.401V934.244H194.163C194.015 934.483 193.805 934.784 193.532 935.148C193.259 935.506 192.87 935.827 192.364 936.111C191.859 936.389 191.185 936.529 190.344 936.529ZM190.617 934.722C191.424 934.722 192.106 934.512 192.663 934.091C193.219 933.665 193.643 933.077 193.933 932.327C194.222 931.571 194.367 930.699 194.367 929.71C194.367 928.733 194.225 927.878 193.941 927.145C193.657 926.406 193.237 925.833 192.68 925.423C192.123 925.009 191.435 924.801 190.617 924.801C189.765 924.801 189.055 925.02 188.487 925.458C187.924 925.889 187.501 926.477 187.217 927.222C186.938 927.96 186.799 928.79 186.799 929.71C186.799 930.642 186.941 931.489 187.225 932.25C187.515 933.006 187.941 933.608 188.504 934.057C189.072 934.5 189.776 934.722 190.617 934.722ZM205.316 936.529C204.055 936.529 202.967 936.25 202.052 935.693C201.143 935.131 200.441 934.347 199.947 933.341C199.458 932.33 199.214 931.154 199.214 929.813C199.214 928.472 199.458 927.29 199.947 926.267C200.441 925.239 201.129 924.438 202.009 923.864C202.896 923.284 203.93 922.994 205.112 922.994C205.793 922.994 206.467 923.108 207.132 923.335C207.796 923.563 208.401 923.932 208.947 924.443C209.492 924.949 209.927 925.619 210.251 926.455C210.575 927.29 210.737 928.318 210.737 929.54V930.392H200.646V928.654H208.691C208.691 927.915 208.543 927.256 208.248 926.676C207.958 926.097 207.543 925.639 207.004 925.304C206.47 924.969 205.839 924.801 205.112 924.801C204.311 924.801 203.617 925 203.032 925.398C202.453 925.79 202.007 926.301 201.694 926.932C201.382 927.563 201.225 928.239 201.225 928.96V930.119C201.225 931.108 201.396 931.946 201.737 932.634C202.083 933.316 202.563 933.835 203.177 934.193C203.791 934.546 204.504 934.722 205.316 934.722C205.845 934.722 206.322 934.648 206.748 934.5C207.18 934.347 207.552 934.119 207.864 933.818C208.177 933.512 208.418 933.131 208.589 932.676L210.532 933.222C210.328 933.881 209.984 934.46 209.501 934.96C209.018 935.455 208.421 935.841 207.711 936.119C207.001 936.392 206.203 936.529 205.316 936.529ZM223.622 923.165L218.781 936.256H216.736L211.895 923.165H214.077L217.691 933.597H217.827L221.441 923.165H223.622Z" fill="#777777"/>
<path d="M1333.12 945.182C1332.15 945.182 1331.32 945.057 1330.62 944.807C1329.92 944.562 1329.34 944.239 1328.87 943.835C1328.41 943.438 1328.05 943.011 1327.77 942.557L1329.38 941.432C1329.56 941.67 1329.79 941.943 1330.07 942.25C1330.34 942.562 1330.72 942.832 1331.21 943.06C1331.7 943.293 1332.34 943.409 1333.12 943.409C1334.18 943.409 1335.05 943.153 1335.74 942.642C1336.43 942.131 1336.77 941.33 1336.77 940.239V937.58H1336.6C1336.45 937.818 1336.24 938.114 1335.97 938.466C1335.7 938.812 1335.32 939.122 1334.81 939.395C1334.31 939.662 1333.64 939.795 1332.78 939.795C1331.73 939.795 1330.78 939.545 1329.94 939.045C1329.1 938.545 1328.44 937.818 1327.95 936.864C1327.47 935.909 1327.23 934.75 1327.23 933.386C1327.23 932.045 1327.46 930.878 1327.93 929.884C1328.41 928.884 1329.06 928.111 1329.9 927.565C1330.74 927.014 1331.72 926.739 1332.82 926.739C1333.67 926.739 1334.35 926.881 1334.85 927.165C1335.35 927.443 1335.74 927.761 1336.01 928.119C1336.28 928.472 1336.49 928.761 1336.64 928.989H1336.84V926.909H1338.78V940.375C1338.78 941.5 1338.53 942.415 1338.02 943.119C1337.51 943.83 1336.83 944.349 1335.97 944.679C1335.12 945.014 1334.17 945.182 1333.12 945.182ZM1333.06 937.989C1333.86 937.989 1334.55 937.804 1335.1 937.435C1335.66 937.065 1336.08 936.534 1336.37 935.841C1336.66 935.148 1336.81 934.318 1336.81 933.352C1336.81 932.409 1336.66 931.577 1336.38 930.855C1336.1 930.134 1335.68 929.568 1335.12 929.159C1334.56 928.75 1333.88 928.545 1333.06 928.545C1332.2 928.545 1331.49 928.761 1330.93 929.193C1330.36 929.625 1329.94 930.205 1329.66 930.932C1329.38 931.659 1329.24 932.466 1329.24 933.352C1329.24 934.261 1329.38 935.065 1329.66 935.764C1329.95 936.457 1330.38 937.003 1330.94 937.401C1331.51 937.793 1332.22 937.989 1333.06 937.989ZM1341.99 940V926.909H1344V940H1341.99ZM1343.01 924.727C1342.62 924.727 1342.28 924.594 1341.99 924.327C1341.72 924.06 1341.58 923.739 1341.58 923.364C1341.58 922.989 1341.72 922.668 1341.99 922.401C1342.28 922.134 1342.62 922 1343.01 922C1343.4 922 1343.74 922.134 1344.01 922.401C1344.3 922.668 1344.44 922.989 1344.44 923.364C1344.44 923.739 1344.3 924.06 1344.01 924.327C1343.74 924.594 1343.4 924.727 1343.01 924.727ZM1352.89 926.909V928.614H1346.11V926.909H1352.89ZM1348.09 923.773H1350.1V936.25C1350.1 936.818 1350.18 937.244 1350.35 937.528C1350.52 937.807 1350.73 937.994 1350.99 938.091C1351.26 938.182 1351.54 938.227 1351.84 938.227C1352.06 938.227 1352.24 938.216 1352.38 938.193C1352.53 938.165 1352.64 938.142 1352.72 938.125L1353.13 939.932C1353 939.983 1352.81 940.034 1352.56 940.085C1352.32 940.142 1352.01 940.17 1351.63 940.17C1351.06 940.17 1350.51 940.048 1349.96 939.804C1349.42 939.56 1348.97 939.188 1348.62 938.688C1348.26 938.188 1348.09 937.557 1348.09 936.795V923.773ZM1357.73 932.125V940H1355.72V922.545H1357.73V928.955H1357.9C1358.21 928.278 1358.67 927.741 1359.28 927.344C1359.9 926.94 1360.73 926.739 1361.76 926.739C1362.65 926.739 1363.43 926.918 1364.1 927.276C1364.77 927.628 1365.29 928.17 1365.66 928.903C1366.03 929.631 1366.22 930.557 1366.22 931.682V940H1364.21V931.818C1364.21 930.778 1363.94 929.974 1363.4 929.406C1362.87 928.832 1362.12 928.545 1361.18 928.545C1360.52 928.545 1359.93 928.685 1359.4 928.963C1358.89 929.241 1358.48 929.648 1358.18 930.182C1357.88 930.716 1357.73 931.364 1357.73 932.125ZM1377.67 934.648V926.909H1379.68V940H1377.67V937.784H1377.53C1377.23 938.449 1376.75 939.014 1376.1 939.48C1375.46 939.94 1374.64 940.17 1373.65 940.17C1372.83 940.17 1372.1 939.991 1371.47 939.634C1370.83 939.27 1370.33 938.724 1369.97 937.997C1369.6 937.264 1369.42 936.341 1369.42 935.227V926.909H1371.43V935.091C1371.43 936.045 1371.7 936.807 1372.23 937.375C1372.77 937.943 1373.46 938.227 1374.3 938.227C1374.8 938.227 1375.3 938.099 1375.82 937.844C1376.34 937.588 1376.78 937.196 1377.13 936.668C1377.49 936.139 1377.67 935.466 1377.67 934.648ZM1383.16 940V922.545H1385.17V928.989H1385.34C1385.49 928.761 1385.69 928.472 1385.95 928.119C1386.22 927.761 1386.6 927.443 1387.1 927.165C1387.6 926.881 1388.27 926.739 1389.12 926.739C1390.23 926.739 1391.2 927.014 1392.04 927.565C1392.88 928.116 1393.54 928.898 1394.01 929.909C1394.48 930.92 1394.72 932.114 1394.72 933.489C1394.72 934.875 1394.48 936.077 1394.01 937.094C1393.54 938.105 1392.88 938.889 1392.05 939.446C1391.21 939.997 1390.25 940.273 1389.16 940.273C1388.32 940.273 1387.64 940.134 1387.14 939.855C1386.63 939.571 1386.24 939.25 1385.97 938.892C1385.7 938.528 1385.49 938.227 1385.34 937.989H1385.1V940H1383.16ZM1385.14 933.455C1385.14 934.443 1385.28 935.315 1385.57 936.071C1385.86 936.821 1386.28 937.409 1386.84 937.835C1387.4 938.256 1388.08 938.466 1388.89 938.466C1389.73 938.466 1390.43 938.244 1390.99 937.801C1391.56 937.352 1391.99 936.75 1392.27 935.994C1392.56 935.233 1392.7 934.386 1392.7 933.455C1392.7 932.534 1392.56 931.705 1392.28 930.966C1392 930.222 1391.58 929.634 1391.01 929.202C1390.45 928.764 1389.74 928.545 1388.89 928.545C1388.07 928.545 1387.38 928.753 1386.82 929.168C1386.27 929.577 1385.85 930.151 1385.56 930.889C1385.28 931.622 1385.14 932.477 1385.14 933.455ZM1398.78 940.136C1398.36 940.136 1398 939.986 1397.7 939.685C1397.39 939.384 1397.24 939.023 1397.24 938.602C1397.24 938.182 1397.39 937.821 1397.7 937.52C1398 937.219 1398.36 937.068 1398.78 937.068C1399.2 937.068 1399.56 937.219 1399.86 937.52C1400.16 937.821 1400.31 938.182 1400.31 938.602C1400.31 938.881 1400.24 939.136 1400.1 939.369C1399.96 939.602 1399.78 939.79 1399.55 939.932C1399.32 940.068 1399.06 940.136 1398.78 940.136ZM1408.76 940.273C1407.53 940.273 1406.48 939.983 1405.59 939.403C1404.7 938.824 1404.02 938.026 1403.54 937.009C1403.07 935.991 1402.83 934.83 1402.83 933.523C1402.83 932.193 1403.07 931.02 1403.56 930.003C1404.06 928.98 1404.74 928.182 1405.62 927.608C1406.51 927.028 1407.54 926.739 1408.73 926.739C1409.65 926.739 1410.48 926.909 1411.21 927.25C1411.95 927.591 1412.56 928.068 1413.03 928.682C1413.5 929.295 1413.79 930.011 1413.91 930.83H1411.9C1411.74 930.233 1411.4 929.705 1410.87 929.244C1410.35 928.778 1409.65 928.545 1408.76 928.545C1407.98 928.545 1407.29 928.75 1406.7 929.159C1406.11 929.562 1405.65 930.134 1405.33 930.872C1405 931.605 1404.84 932.466 1404.84 933.455C1404.84 934.466 1405 935.347 1405.32 936.097C1405.64 936.847 1406.1 937.429 1406.68 937.844C1407.27 938.259 1407.96 938.466 1408.76 938.466C1409.28 938.466 1409.76 938.375 1410.18 938.193C1410.61 938.011 1410.97 937.75 1411.27 937.409C1411.56 937.068 1411.77 936.659 1411.9 936.182H1413.91C1413.79 936.955 1413.51 937.651 1413.06 938.27C1412.62 938.884 1412.03 939.372 1411.3 939.736C1410.57 940.094 1409.73 940.273 1408.76 940.273ZM1421.69 940.273C1420.5 940.273 1419.47 939.991 1418.58 939.429C1417.69 938.866 1417 938.08 1416.5 937.068C1416 936.057 1415.75 934.875 1415.75 933.523C1415.75 932.159 1416 930.969 1416.5 929.952C1417 928.935 1417.69 928.145 1418.58 927.582C1419.47 927.02 1420.5 926.739 1421.69 926.739C1422.87 926.739 1423.9 927.02 1424.79 927.582C1425.68 928.145 1426.37 928.935 1426.87 929.952C1427.37 930.969 1427.62 932.159 1427.62 933.523C1427.62 934.875 1427.37 936.057 1426.87 937.068C1426.37 938.08 1425.68 938.866 1424.79 939.429C1423.9 939.991 1422.87 940.273 1421.69 940.273ZM1421.69 938.466C1422.58 938.466 1423.32 938.236 1423.9 937.776C1424.48 937.315 1424.91 936.71 1425.19 935.96C1425.47 935.21 1425.61 934.398 1425.61 933.523C1425.61 932.648 1425.47 931.832 1425.19 931.077C1424.91 930.321 1424.48 929.71 1423.9 929.244C1423.32 928.778 1422.58 928.545 1421.69 928.545C1420.79 928.545 1420.05 928.778 1419.47 929.244C1418.89 929.71 1418.46 930.321 1418.18 931.077C1417.91 931.832 1417.77 932.648 1417.77 933.523C1417.77 934.398 1417.91 935.21 1418.18 935.96C1418.46 936.71 1418.89 937.315 1419.47 937.776C1420.05 938.236 1420.79 938.466 1421.69 938.466ZM1430.21 940V926.909H1432.15V928.955H1432.32C1432.59 928.256 1433.04 927.713 1433.64 927.327C1434.25 926.935 1434.98 926.739 1435.83 926.739C1436.7 926.739 1437.42 926.935 1437.99 927.327C1438.57 927.713 1439.02 928.256 1439.34 928.955H1439.48C1439.82 928.278 1440.32 927.741 1440.99 927.344C1441.66 926.94 1442.46 926.739 1443.4 926.739C1444.57 926.739 1445.53 927.105 1446.27 927.838C1447.02 928.565 1447.39 929.699 1447.39 931.239V940H1445.38V931.239C1445.38 930.273 1445.11 929.582 1444.59 929.168C1444.06 928.753 1443.44 928.545 1442.72 928.545C1441.8 928.545 1441.09 928.824 1440.58 929.381C1440.07 929.932 1439.82 930.631 1439.82 931.477V940H1437.78V931.034C1437.78 930.29 1437.54 929.69 1437.05 929.236C1436.57 928.776 1435.95 928.545 1435.19 928.545C1434.66 928.545 1434.17 928.685 1433.72 928.963C1433.27 929.241 1432.91 929.628 1432.63 930.122C1432.36 930.611 1432.22 931.176 1432.22 931.818V940H1430.21ZM1456.76 921.727L1451.13 942.625H1449.29L1454.92 921.727H1456.76ZM1460.67 932.125V940H1458.66V926.909H1460.61V928.955H1460.78C1461.08 928.29 1461.55 927.756 1462.17 927.352C1462.8 926.943 1463.61 926.739 1464.59 926.739C1465.48 926.739 1466.26 926.92 1466.92 927.284C1467.59 927.642 1468.1 928.188 1468.47 928.92C1468.84 929.648 1469.03 930.568 1469.03 931.682V940H1467.01V931.818C1467.01 930.79 1466.75 929.989 1466.21 929.415C1465.68 928.835 1464.95 928.545 1464.01 928.545C1463.37 928.545 1462.8 928.685 1462.29 928.963C1461.79 929.241 1461.4 929.648 1461.11 930.182C1460.82 930.716 1460.67 931.364 1460.67 932.125ZM1480.47 934.648V926.909H1482.48V940H1480.47V937.784H1480.34C1480.03 938.449 1479.55 939.014 1478.9 939.48C1478.26 939.94 1477.44 940.17 1476.45 940.17C1475.63 940.17 1474.9 939.991 1474.27 939.634C1473.63 939.27 1473.13 938.724 1472.77 937.997C1472.4 937.264 1472.22 936.341 1472.22 935.227V926.909H1474.23V935.091C1474.23 936.045 1474.5 936.807 1475.03 937.375C1475.57 937.943 1476.26 938.227 1477.1 938.227C1477.6 938.227 1478.11 938.099 1478.62 937.844C1479.14 937.588 1479.58 937.196 1479.93 936.668C1480.29 936.139 1480.47 935.466 1480.47 934.648ZM1491.01 940.273C1489.78 940.273 1488.72 939.983 1487.83 939.403C1486.95 938.824 1486.27 938.026 1485.79 937.009C1485.31 935.991 1485.07 934.83 1485.07 933.523C1485.07 932.193 1485.32 931.02 1485.81 930.003C1486.3 928.98 1486.99 928.182 1487.87 927.608C1488.76 927.028 1489.79 926.739 1490.97 926.739C1491.89 926.739 1492.72 926.909 1493.46 927.25C1494.2 927.591 1494.8 928.068 1495.27 928.682C1495.75 929.295 1496.04 930.011 1496.15 930.83H1494.14C1493.99 930.233 1493.65 929.705 1493.12 929.244C1492.6 928.778 1491.89 928.545 1491.01 928.545C1490.22 928.545 1489.53 928.75 1488.94 929.159C1488.36 929.562 1487.9 930.134 1487.57 930.872C1487.25 931.605 1487.08 932.466 1487.08 933.455C1487.08 934.466 1487.24 935.347 1487.56 936.097C1487.89 936.847 1488.34 937.429 1488.93 937.844C1489.52 938.259 1490.21 938.466 1491.01 938.466C1491.53 938.466 1492 938.375 1492.43 938.193C1492.85 938.011 1493.22 937.75 1493.51 937.409C1493.81 937.068 1494.02 936.659 1494.14 936.182H1496.15C1496.04 936.955 1495.76 937.651 1495.31 938.27C1494.87 938.884 1494.28 939.372 1493.54 939.736C1492.82 940.094 1491.97 940.273 1491.01 940.273ZM1500.62 922.545V940H1498.61V922.545H1500.62ZM1509.32 940.273C1508.06 940.273 1506.97 939.994 1506.05 939.438C1505.14 938.875 1504.44 938.091 1503.95 937.085C1503.46 936.074 1503.21 934.898 1503.21 933.557C1503.21 932.216 1503.46 931.034 1503.95 930.011C1504.44 928.983 1505.13 928.182 1506.01 927.608C1506.9 927.028 1507.93 926.739 1509.11 926.739C1509.79 926.739 1510.47 926.852 1511.13 927.08C1511.8 927.307 1512.4 927.676 1512.95 928.188C1513.49 928.693 1513.93 929.364 1514.25 930.199C1514.58 931.034 1514.74 932.062 1514.74 933.284V934.136H1504.65V932.398H1512.69C1512.69 931.659 1512.54 931 1512.25 930.42C1511.96 929.841 1511.54 929.384 1511 929.048C1510.47 928.713 1509.84 928.545 1509.11 928.545C1508.31 928.545 1507.62 928.744 1507.03 929.142C1506.45 929.534 1506.01 930.045 1505.69 930.676C1505.38 931.307 1505.23 931.983 1505.23 932.705V933.864C1505.23 934.852 1505.4 935.69 1505.74 936.378C1506.08 937.06 1506.56 937.58 1507.18 937.938C1507.79 938.29 1508.5 938.466 1509.32 938.466C1509.85 938.466 1510.32 938.392 1510.75 938.244C1511.18 938.091 1511.55 937.864 1511.87 937.562C1512.18 937.256 1512.42 936.875 1512.59 936.42L1514.53 936.966C1514.33 937.625 1513.98 938.205 1513.5 938.705C1513.02 939.199 1512.42 939.585 1511.71 939.864C1511 940.136 1510.2 940.273 1509.32 940.273ZM1525.57 934.648V926.909H1527.58V940H1525.57V937.784H1525.43C1525.12 938.449 1524.65 939.014 1524 939.48C1523.35 939.94 1522.53 940.17 1521.54 940.17C1520.73 940.17 1520 939.991 1519.36 939.634C1518.73 939.27 1518.23 938.724 1517.86 937.997C1517.5 937.264 1517.32 936.341 1517.32 935.227V926.909H1519.33V935.091C1519.33 936.045 1519.6 936.807 1520.13 937.375C1520.67 937.943 1521.36 938.227 1522.19 938.227C1522.69 938.227 1523.2 938.099 1523.72 937.844C1524.24 937.588 1524.68 937.196 1525.03 936.668C1525.39 936.139 1525.57 935.466 1525.57 934.648ZM1540.06 929.841L1538.25 930.352C1538.13 930.051 1537.97 929.759 1537.75 929.474C1537.53 929.185 1537.23 928.946 1536.86 928.759C1536.48 928.571 1536 928.477 1535.42 928.477C1534.62 928.477 1533.95 928.662 1533.42 929.031C1532.89 929.395 1532.62 929.858 1532.62 930.42C1532.62 930.92 1532.81 931.315 1533.17 931.605C1533.53 931.895 1534.1 932.136 1534.87 932.33L1536.82 932.807C1537.99 933.091 1538.86 933.526 1539.43 934.111C1540.01 934.69 1540.29 935.437 1540.29 936.352C1540.29 937.102 1540.08 937.773 1539.65 938.364C1539.22 938.955 1538.62 939.42 1537.86 939.761C1537.09 940.102 1536.2 940.273 1535.18 940.273C1533.84 940.273 1532.74 939.983 1531.86 939.403C1530.99 938.824 1530.44 937.977 1530.2 936.864L1532.11 936.386C1532.29 937.091 1532.64 937.619 1533.14 937.972C1533.65 938.324 1534.32 938.5 1535.15 938.5C1536.08 938.5 1536.83 938.301 1537.38 937.903C1537.94 937.5 1538.21 937.017 1538.21 936.455C1538.21 936 1538.06 935.619 1537.74 935.312C1537.42 935 1536.93 934.767 1536.27 934.614L1534.09 934.102C1532.89 933.818 1532.01 933.378 1531.45 932.781C1530.89 932.179 1530.61 931.426 1530.61 930.523C1530.61 929.784 1530.82 929.131 1531.23 928.562C1531.65 927.994 1532.23 927.548 1532.95 927.224C1533.67 926.901 1534.5 926.739 1535.42 926.739C1536.71 926.739 1537.73 927.023 1538.47 927.591C1539.21 928.159 1539.74 928.909 1540.06 929.841ZM1548.16 940.273C1546.93 940.273 1545.88 939.983 1544.99 939.403C1544.1 938.824 1543.42 938.026 1542.94 937.009C1542.47 935.991 1542.23 934.83 1542.23 933.523C1542.23 932.193 1542.47 931.02 1542.96 930.003C1543.46 928.98 1544.14 928.182 1545.02 927.608C1545.91 927.028 1546.94 926.739 1548.13 926.739C1549.05 926.739 1549.88 926.909 1550.61 927.25C1551.35 927.591 1551.96 928.068 1552.43 928.682C1552.9 929.295 1553.19 930.011 1553.31 930.83H1551.3C1551.14 930.233 1550.8 929.705 1550.27 929.244C1549.75 928.778 1549.05 928.545 1548.16 928.545C1547.38 928.545 1546.69 928.75 1546.1 929.159C1545.51 929.562 1545.05 930.134 1544.73 930.872C1544.4 931.605 1544.24 932.466 1544.24 933.455C1544.24 934.466 1544.4 935.347 1544.72 936.097C1545.04 936.847 1545.49 937.429 1546.08 937.844C1546.67 938.259 1547.36 938.466 1548.16 938.466C1548.68 938.466 1549.16 938.375 1549.58 938.193C1550.01 938.011 1550.37 937.75 1550.67 937.409C1550.96 937.068 1551.17 936.659 1551.3 936.182H1553.31C1553.19 936.955 1552.91 937.651 1552.46 938.27C1552.02 938.884 1551.43 939.372 1550.7 939.736C1549.97 940.094 1549.13 940.273 1548.16 940.273ZM1557.78 922.545V940H1555.77V922.545H1557.78ZM1566.3 940.273C1565.12 940.273 1564.08 939.991 1563.19 939.429C1562.3 938.866 1561.61 938.08 1561.11 937.068C1560.62 936.057 1560.37 934.875 1560.37 933.523C1560.37 932.159 1560.62 930.969 1561.11 929.952C1561.61 928.935 1562.3 928.145 1563.19 927.582C1564.08 927.02 1565.12 926.739 1566.3 926.739C1567.48 926.739 1568.52 927.02 1569.4 927.582C1570.3 928.145 1570.99 928.935 1571.48 929.952C1571.98 930.969 1572.23 932.159 1572.23 933.523C1572.23 934.875 1571.98 936.057 1571.48 937.068C1570.99 938.08 1570.3 938.866 1569.4 939.429C1568.52 939.991 1567.48 940.273 1566.3 940.273ZM1566.3 938.466C1567.2 938.466 1567.94 938.236 1568.52 937.776C1569.1 937.315 1569.53 936.71 1569.8 935.96C1570.08 935.21 1570.22 934.398 1570.22 933.523C1570.22 932.648 1570.08 931.832 1569.8 931.077C1569.53 930.321 1569.1 929.71 1568.52 929.244C1567.94 928.778 1567.2 928.545 1566.3 928.545C1565.4 928.545 1564.66 928.778 1564.09 929.244C1563.51 929.71 1563.08 930.321 1562.8 931.077C1562.52 931.832 1562.38 932.648 1562.38 933.523C1562.38 934.398 1562.52 935.21 1562.8 935.96C1563.08 936.71 1563.51 937.315 1564.09 937.776C1564.66 938.236 1565.4 938.466 1566.3 938.466ZM1583.07 934.648V926.909H1585.08V940H1583.07V937.784H1582.94C1582.63 938.449 1582.15 939.014 1581.51 939.48C1580.86 939.94 1580.04 940.17 1579.05 940.17C1578.23 940.17 1577.51 939.991 1576.87 939.634C1576.23 939.27 1575.73 938.724 1575.37 937.997C1575.01 937.264 1574.82 936.341 1574.82 935.227V926.909H1576.83V935.091C1576.83 936.045 1577.1 936.807 1577.64 937.375C1578.18 937.943 1578.86 938.227 1579.7 938.227C1580.2 938.227 1580.71 938.099 1581.22 937.844C1581.75 937.588 1582.18 937.196 1582.54 936.668C1582.89 936.139 1583.07 935.466 1583.07 934.648ZM1593.23 940.273C1592.14 940.273 1591.18 939.997 1590.34 939.446C1589.51 938.889 1588.85 938.105 1588.38 937.094C1587.91 936.077 1587.68 934.875 1587.68 933.489C1587.68 932.114 1587.91 930.92 1588.38 929.909C1588.85 928.898 1589.51 928.116 1590.35 927.565C1591.19 927.014 1592.16 926.739 1593.27 926.739C1594.12 926.739 1594.79 926.881 1595.29 927.165C1595.79 927.443 1596.17 927.761 1596.43 928.119C1596.69 928.472 1596.9 928.761 1597.05 928.989H1597.22V922.545H1599.23V940H1597.29V937.989H1597.05C1596.9 938.227 1596.69 938.528 1596.42 938.892C1596.15 939.25 1595.76 939.571 1595.25 939.855C1594.75 940.134 1594.07 940.273 1593.23 940.273ZM1593.5 938.466C1594.31 938.466 1594.99 938.256 1595.55 937.835C1596.11 937.409 1596.53 936.821 1596.82 936.071C1597.11 935.315 1597.25 934.443 1597.25 933.455C1597.25 932.477 1597.11 931.622 1596.83 930.889C1596.54 930.151 1596.12 929.577 1595.57 929.168C1595.01 928.753 1594.32 928.545 1593.5 928.545C1592.65 928.545 1591.94 928.764 1591.37 929.202C1590.81 929.634 1590.39 930.222 1590.1 930.966C1589.83 931.705 1589.69 932.534 1589.69 933.455C1589.69 934.386 1589.83 935.233 1590.11 935.994C1590.4 936.75 1590.83 937.352 1591.39 937.801C1591.96 938.244 1592.66 938.466 1593.5 938.466ZM1608.89 921.727L1603.26 942.625H1601.42L1607.04 921.727H1608.89ZM1612.8 932.125V940H1610.79V926.909H1612.73V928.955H1612.9C1613.21 928.29 1613.68 927.756 1614.3 927.352C1614.93 926.943 1615.73 926.739 1616.72 926.739C1617.61 926.739 1618.38 926.92 1619.05 927.284C1619.71 927.642 1620.23 928.188 1620.6 928.92C1620.97 929.648 1621.15 930.568 1621.15 931.682V940H1619.14V931.818C1619.14 930.79 1618.87 929.989 1618.34 929.415C1617.81 928.835 1617.07 928.545 1616.14 928.545C1615.5 928.545 1614.93 928.685 1614.42 928.963C1613.92 929.241 1613.53 929.648 1613.24 930.182C1612.95 930.716 1612.8 931.364 1612.8 932.125ZM1629.84 940.273C1628.58 940.273 1627.49 939.994 1626.57 939.438C1625.66 938.875 1624.96 938.091 1624.47 937.085C1623.98 936.074 1623.74 934.898 1623.74 933.557C1623.74 932.216 1623.98 931.034 1624.47 930.011C1624.96 928.983 1625.65 928.182 1626.53 927.608C1627.42 927.028 1628.45 926.739 1629.63 926.739C1630.31 926.739 1630.99 926.852 1631.65 927.08C1632.32 927.307 1632.92 927.676 1633.47 928.188C1634.01 928.693 1634.45 929.364 1634.77 930.199C1635.1 931.034 1635.26 932.062 1635.26 933.284V934.136H1625.17V932.398H1633.21C1633.21 931.659 1633.06 931 1632.77 930.42C1632.48 929.841 1632.06 929.384 1631.52 929.048C1630.99 928.713 1630.36 928.545 1629.63 928.545C1628.83 928.545 1628.14 928.744 1627.55 929.142C1626.97 929.534 1626.53 930.045 1626.22 930.676C1625.9 931.307 1625.75 931.983 1625.75 932.705V933.864C1625.75 934.852 1625.92 935.69 1626.26 936.378C1626.6 937.06 1627.08 937.58 1627.7 937.938C1628.31 938.29 1629.02 938.466 1629.84 938.466C1630.37 938.466 1630.84 938.392 1631.27 938.244C1631.7 938.091 1632.07 937.864 1632.39 937.562C1632.7 937.256 1632.94 936.875 1633.11 936.42L1635.05 936.966C1634.85 937.625 1634.5 938.205 1634.02 938.705C1633.54 939.199 1632.94 939.585 1632.23 939.864C1631.52 940.136 1630.72 940.273 1629.84 940.273ZM1643.16 940.273C1641.97 940.273 1640.94 939.991 1640.04 939.429C1639.16 938.866 1638.47 938.08 1637.97 937.068C1637.47 936.057 1637.22 934.875 1637.22 933.523C1637.22 932.159 1637.47 930.969 1637.97 929.952C1638.47 928.935 1639.16 928.145 1640.04 927.582C1640.94 927.02 1641.97 926.739 1643.16 926.739C1644.34 926.739 1645.37 927.02 1646.26 927.582C1647.15 928.145 1647.84 928.935 1648.34 929.952C1648.84 930.969 1649.09 932.159 1649.09 933.523C1649.09 934.875 1648.84 936.057 1648.34 937.068C1647.84 938.08 1647.15 938.866 1646.26 939.429C1645.37 939.991 1644.34 940.273 1643.16 940.273ZM1643.16 938.466C1644.05 938.466 1644.79 938.236 1645.37 937.776C1645.95 937.315 1646.38 936.71 1646.66 935.96C1646.94 935.21 1647.08 934.398 1647.08 933.523C1647.08 932.648 1646.94 931.832 1646.66 931.077C1646.38 930.321 1645.95 929.71 1645.37 929.244C1644.79 928.778 1644.05 928.545 1643.16 928.545C1642.26 928.545 1641.52 928.778 1640.94 929.244C1640.36 929.71 1639.93 930.321 1639.65 931.077C1639.37 931.832 1639.24 932.648 1639.24 933.523C1639.24 934.398 1639.37 935.21 1639.65 935.96C1639.93 936.71 1640.36 937.315 1640.94 937.776C1641.52 938.236 1642.26 938.466 1643.16 938.466ZM1660.95 929.841L1659.14 930.352C1659.03 930.051 1658.86 929.759 1658.64 929.474C1658.42 929.185 1658.13 928.946 1657.75 928.759C1657.38 928.571 1656.9 928.477 1656.31 928.477C1655.51 928.477 1654.85 928.662 1654.31 929.031C1653.78 929.395 1653.52 929.858 1653.52 930.42C1653.52 930.92 1653.7 931.315 1654.06 931.605C1654.43 931.895 1655 932.136 1655.77 932.33L1657.71 932.807C1658.88 933.091 1659.75 933.526 1660.33 934.111C1660.9 934.69 1661.19 935.437 1661.19 936.352C1661.19 937.102 1660.97 937.773 1660.54 938.364C1660.12 938.955 1659.52 939.42 1658.75 939.761C1657.98 940.102 1657.09 940.273 1656.08 940.273C1654.74 940.273 1653.64 939.983 1652.76 939.403C1651.89 938.824 1651.33 937.977 1651.1 936.864L1653.01 936.386C1653.19 937.091 1653.53 937.619 1654.04 937.972C1654.55 938.324 1655.22 938.5 1656.04 938.5C1656.98 938.5 1657.72 938.301 1658.27 937.903C1658.83 937.5 1659.11 937.017 1659.11 936.455C1659.11 936 1658.95 935.619 1658.63 935.312C1658.31 935 1657.83 934.767 1657.17 934.614L1654.98 934.102C1653.79 933.818 1652.91 933.378 1652.34 932.781C1651.79 932.179 1651.51 931.426 1651.51 930.523C1651.51 929.784 1651.71 929.131 1652.13 928.562C1652.55 927.994 1653.12 927.548 1653.84 927.224C1654.57 926.901 1655.39 926.739 1656.31 926.739C1657.61 926.739 1658.63 927.023 1659.37 927.591C1660.11 928.159 1660.64 928.909 1660.95 929.841ZM1665.03 944.909C1664.69 944.909 1664.39 944.881 1664.12 944.824C1663.85 944.773 1663.67 944.722 1663.57 944.67L1664.08 942.898C1664.57 943.023 1665 943.068 1665.37 943.034C1665.75 943 1666.08 942.832 1666.37 942.531C1666.67 942.236 1666.94 941.756 1667.18 941.091L1667.56 940.068L1662.71 926.909H1664.9L1668.51 937.341H1668.65L1672.26 926.909H1674.44L1668.88 941.909C1668.63 942.585 1668.32 943.145 1667.96 943.588C1667.59 944.037 1667.16 944.369 1666.67 944.585C1666.19 944.801 1665.64 944.909 1665.03 944.909ZM1678.63 932.125V940H1676.62V926.909H1678.56V928.955H1678.73C1679.04 928.29 1679.5 927.756 1680.13 927.352C1680.75 926.943 1681.56 926.739 1682.55 926.739C1683.43 926.739 1684.21 926.92 1684.87 927.284C1685.54 927.642 1686.06 928.188 1686.43 928.92C1686.8 929.648 1686.98 930.568 1686.98 931.682V940H1684.97V931.818C1684.97 930.79 1684.7 929.989 1684.17 929.415C1683.63 928.835 1682.9 928.545 1681.97 928.545C1681.33 928.545 1680.75 928.685 1680.25 928.963C1679.75 929.241 1679.35 929.648 1679.06 930.182C1678.77 930.716 1678.63 931.364 1678.63 932.125ZM1695.49 940.273C1694.27 940.273 1693.21 939.983 1692.32 939.403C1691.44 938.824 1690.75 938.026 1690.28 937.009C1689.8 935.991 1689.56 934.83 1689.56 933.523C1689.56 932.193 1689.81 931.02 1690.29 930.003C1690.79 928.98 1691.48 928.182 1692.36 927.608C1693.24 927.028 1694.28 926.739 1695.46 926.739C1696.38 926.739 1697.21 926.909 1697.95 927.25C1698.69 927.591 1699.29 928.068 1699.76 928.682C1700.23 929.295 1700.53 930.011 1700.64 930.83H1698.63C1698.48 930.233 1698.14 929.705 1697.61 929.244C1697.08 928.778 1696.38 928.545 1695.49 928.545C1694.71 928.545 1694.02 928.75 1693.43 929.159C1692.85 929.562 1692.39 930.134 1692.06 930.872C1691.73 931.605 1691.57 932.466 1691.57 933.455C1691.57 934.466 1691.73 935.347 1692.05 936.097C1692.37 936.847 1692.83 937.429 1693.41 937.844C1694 938.259 1694.7 938.466 1695.49 938.466C1696.02 938.466 1696.49 938.375 1696.92 938.193C1697.34 938.011 1697.7 937.75 1698 937.409C1698.29 937.068 1698.5 936.659 1698.63 936.182H1700.64C1700.53 936.955 1700.25 937.651 1699.8 938.27C1699.35 938.884 1698.77 939.372 1698.03 939.736C1697.31 940.094 1696.46 940.273 1695.49 940.273Z" fill="#777777"/>
<path fill-rule="evenodd" clip-rule="evenodd" d="M1270.13 913C1255.69 913 1244 924.88 1244 939.548C1244 951.296 1251.48 961.218 1261.87 964.736C1263.18 964.968 1263.67 964.172 1263.67 963.475C1263.67 962.844 1263.63 960.753 1263.63 958.53C1257.07 959.758 1255.37 956.904 1254.85 955.411C1254.55 954.647 1253.28 952.291 1252.17 951.661C1251.25 951.163 1249.95 949.935 1252.13 949.902C1254.19 949.869 1255.66 951.827 1256.15 952.623C1258.5 956.639 1262.26 955.51 1263.76 954.813C1263.99 953.088 1264.68 951.926 1265.43 951.263C1259.61 950.599 1253.54 948.309 1253.54 938.154C1253.54 935.267 1254.55 932.878 1256.22 931.02C1255.96 930.356 1255.04 927.635 1256.48 923.984C1256.48 923.984 1258.67 923.287 1263.67 926.705C1265.76 926.108 1267.98 925.809 1270.2 925.809C1272.42 925.809 1274.64 926.108 1276.73 926.705C1281.73 923.254 1283.92 923.984 1283.92 923.984C1285.36 927.635 1284.44 930.356 1284.18 931.02C1285.85 932.878 1286.86 935.234 1286.86 938.154C1286.86 948.342 1280.75 950.599 1274.94 951.263C1275.88 952.092 1276.7 953.685 1276.7 956.174C1276.7 959.725 1276.67 962.579 1276.67 963.475C1276.67 964.172 1277.16 965.001 1278.46 964.736C1283.65 962.957 1288.16 959.569 1291.35 955.051C1294.55 950.533 1296.27 945.111 1296.27 939.548C1296.27 924.88 1284.57 913 1270.13 913Z" fill="#777777"/>
</svg>
