<svg width="1792" height="1024" viewBox="0 0 1792 1024" fill="none" xmlns="http://www.w3.org/2000/svg">
<rect width="1792" height="1024" fill="#080808"/>
<path d="M202.417 165.765C206.276 165.765 208.206 165.765 209.733 165.142C211.868 164.271 213.561 162.559 214.423 160.4C215.039 158.856 215.039 156.905 215.039 153.002V153.002V127.894C215.039 119.81 215.039 115.767 212.555 113.256C210.072 110.744 206.074 110.744 198.079 110.744H182.71C170.387 110.744 164.226 110.744 161.741 114.818C159.257 118.892 162.023 124.459 167.555 135.593L167.555 135.593L178.122 156.863C179.966 160.574 177.298 164.949 173.191 164.949C171.104 164.949 169.196 163.759 168.26 161.874L147.552 120.195C145.268 115.597 144.125 113.297 142.079 112.021C140.032 110.744 137.487 110.744 132.398 110.744L127.323 110.744C119.328 110.744 115.33 110.744 112.847 113.256C110.363 115.768 110.363 119.81 110.363 127.894L110.363 152.186C110.363 156.089 110.363 158.04 109.747 159.584C108.885 161.743 107.192 163.455 105.057 164.326C103.53 164.95 101.6 164.95 97.741 164.95H97.7409C93.8819 164.95 91.9523 164.95 90.4253 165.573C88.2902 166.444 86.5972 168.156 85.7355 170.315C85.1191 171.859 85.1191 173.81 85.1191 177.713V202.821C85.1191 210.905 85.1191 214.948 87.6029 217.459C90.0866 219.971 94.0841 219.971 102.079 219.971H102.079H117.449C129.771 219.971 135.932 219.971 138.417 215.897C140.901 211.823 138.135 206.256 132.604 195.122L122.036 173.852C120.192 170.14 122.86 165.766 126.967 165.766C129.054 165.766 130.962 166.956 131.899 168.841L152.606 210.52C154.891 215.118 156.033 217.418 158.08 218.694C160.126 219.97 162.671 219.97 167.761 219.97H167.761H172.835C180.83 219.97 184.828 219.97 187.312 217.459C189.795 214.947 189.795 210.905 189.795 202.82V178.529C189.795 174.626 189.795 172.675 190.412 171.131C191.274 168.972 192.966 167.26 195.102 166.389C196.629 165.765 198.558 165.765 202.417 165.765Z" fill="white"/>
<path d="M202.417 165.765C206.276 165.765 208.206 165.765 209.733 165.142C211.868 164.271 213.561 162.559 214.423 160.4C215.039 158.856 215.039 156.905 215.039 153.002V153.002V127.894C215.039 119.81 215.039 115.767 212.555 113.256C210.072 110.744 206.074 110.744 198.079 110.744H182.71C170.387 110.744 164.226 110.744 161.741 114.818C159.257 118.892 162.023 124.459 167.555 135.593L167.555 135.593L178.122 156.863C179.966 160.574 177.298 164.949 173.191 164.949C171.104 164.949 169.196 163.759 168.26 161.874L147.552 120.195C145.268 115.597 144.125 113.297 142.079 112.021C140.032 110.744 137.487 110.744 132.398 110.744L127.323 110.744C119.328 110.744 115.33 110.744 112.847 113.256C110.363 115.768 110.363 119.81 110.363 127.894L110.363 152.186C110.363 156.089 110.363 158.04 109.747 159.584C108.885 161.743 107.192 163.455 105.057 164.326C103.53 164.95 101.6 164.95 97.741 164.95H97.7409C93.8819 164.95 91.9523 164.95 90.4253 165.573C88.2902 166.444 86.5972 168.156 85.7355 170.315C85.1191 171.859 85.1191 173.81 85.1191 177.713V202.821C85.1191 210.905 85.1191 214.948 87.6029 217.459C90.0866 219.971 94.0841 219.971 102.079 219.971H102.079H117.449C129.771 219.971 135.932 219.971 138.417 215.897C140.901 211.823 138.135 206.256 132.604 195.122L122.036 173.852C120.192 170.14 122.86 165.766 126.967 165.766C129.054 165.766 130.962 166.956 131.899 168.841L152.606 210.52C154.891 215.118 156.033 217.418 158.08 218.694C160.126 219.97 162.671 219.97 167.761 219.97H167.761H172.835C180.83 219.97 184.828 219.97 187.312 217.459C189.795 214.947 189.795 210.905 189.795 202.82V178.529C189.795 174.626 189.795 172.675 190.412 171.131C191.274 168.972 192.966 167.26 195.102 166.389C196.629 165.765 198.558 165.765 202.417 165.765Z" stroke="white"/>
<path d="M132.279 399.441H123.415L149.052 329.623H157.779L183.415 399.441H174.552L153.688 340.669H153.143L132.279 399.441ZM135.552 372.169H171.279V379.669H135.552V372.169ZM239.132 347.078V353.896H211.996V347.078H239.132ZM219.905 334.532H227.95V384.441C227.95 386.714 228.28 388.419 228.939 389.555C229.621 390.669 230.485 391.419 231.53 391.805C232.598 392.169 233.723 392.35 234.905 392.35C235.791 392.35 236.519 392.305 237.087 392.214C237.655 392.1 238.11 392.01 238.45 391.941L240.087 399.169C239.541 399.373 238.78 399.578 237.803 399.782C236.825 400.01 235.587 400.123 234.087 400.123C231.814 400.123 229.587 399.635 227.405 398.657C225.246 397.68 223.45 396.191 222.019 394.191C220.61 392.191 219.905 389.669 219.905 386.623V334.532ZM270.707 400.532C265.661 400.532 261.309 399.419 257.65 397.191C254.013 394.941 251.207 391.805 249.229 387.782C247.275 383.737 246.298 379.032 246.298 373.669C246.298 368.305 247.275 363.578 249.229 359.487C251.207 355.373 253.957 352.169 257.479 349.873C261.025 347.555 265.161 346.396 269.888 346.396C272.616 346.396 275.309 346.85 277.968 347.76C280.627 348.669 283.048 350.146 285.229 352.191C287.411 354.214 289.15 356.896 290.445 360.237C291.741 363.578 292.388 367.691 292.388 372.578V375.987H252.025V369.032H284.207C284.207 366.078 283.616 363.441 282.434 361.123C281.275 358.805 279.616 356.975 277.457 355.635C275.32 354.294 272.798 353.623 269.888 353.623C266.684 353.623 263.911 354.419 261.57 356.01C259.252 357.578 257.468 359.623 256.218 362.146C254.968 364.669 254.343 367.373 254.343 370.26V374.896C254.343 378.85 255.025 382.203 256.388 384.953C257.775 387.68 259.695 389.76 262.15 391.191C264.604 392.6 267.457 393.305 270.707 393.305C272.82 393.305 274.729 393.01 276.434 392.419C278.161 391.805 279.65 390.896 280.9 389.691C282.15 388.464 283.116 386.941 283.798 385.123L291.57 387.305C290.752 389.941 289.377 392.26 287.445 394.26C285.513 396.237 283.127 397.782 280.286 398.896C277.445 399.987 274.252 400.532 270.707 400.532ZM323.98 400.532C319.071 400.532 314.843 399.373 311.298 397.055C307.753 394.737 305.025 391.544 303.116 387.475C301.207 383.407 300.253 378.76 300.253 373.532C300.253 368.214 301.23 363.521 303.184 359.453C305.162 355.362 307.912 352.169 311.434 349.873C314.98 347.555 319.116 346.396 323.843 346.396C327.525 346.396 330.843 347.078 333.798 348.441C336.753 349.805 339.173 351.714 341.059 354.169C342.946 356.623 344.116 359.487 344.571 362.76H336.525C335.912 360.373 334.548 358.26 332.434 356.419C330.343 354.555 327.525 353.623 323.98 353.623C320.843 353.623 318.093 354.441 315.73 356.078C313.389 357.691 311.559 359.975 310.241 362.93C308.946 365.862 308.298 369.305 308.298 373.26C308.298 377.305 308.934 380.828 310.207 383.828C311.503 386.828 313.321 389.157 315.662 390.816C318.025 392.475 320.798 393.305 323.98 393.305C326.071 393.305 327.968 392.941 329.673 392.214C331.378 391.487 332.821 390.441 334.003 389.078C335.184 387.714 336.025 386.078 336.525 384.169H344.571C344.116 387.26 342.991 390.044 341.196 392.521C339.423 394.975 337.071 396.93 334.139 398.385C331.23 399.816 327.843 400.532 323.98 400.532ZM362.458 367.941V399.441H354.412V329.623H362.458V355.26H363.139C364.367 352.555 366.208 350.407 368.662 348.816C371.139 347.203 374.435 346.396 378.548 346.396C382.117 346.396 385.242 347.112 387.923 348.544C390.605 349.953 392.685 352.123 394.162 355.055C395.662 357.964 396.412 361.669 396.412 366.169V399.441H388.367V366.714C388.367 362.555 387.287 359.339 385.128 357.066C382.992 354.771 380.026 353.623 376.23 353.623C373.594 353.623 371.23 354.18 369.139 355.294C367.071 356.407 365.435 358.032 364.23 360.169C363.048 362.305 362.458 364.896 362.458 367.941ZM417.256 367.941V399.441H409.211V347.078H416.984V355.26H417.665C418.893 352.6 420.756 350.464 423.256 348.85C425.756 347.214 428.984 346.396 432.938 346.396C436.484 346.396 439.586 347.123 442.245 348.578C444.904 350.01 446.972 352.191 448.449 355.123C449.927 358.032 450.665 361.714 450.665 366.169V399.441H442.62V366.714C442.62 362.6 441.552 359.396 439.415 357.1C437.279 354.782 434.347 353.623 430.62 353.623C428.052 353.623 425.756 354.18 423.734 355.294C421.734 356.407 420.154 358.032 418.995 360.169C417.836 362.305 417.256 364.896 417.256 367.941ZM463.447 399.441V347.078H471.493V399.441H463.447ZM467.538 338.35C465.97 338.35 464.618 337.816 463.481 336.748C462.368 335.68 461.811 334.396 461.811 332.896C461.811 331.396 462.368 330.112 463.481 329.044C464.618 327.975 465.97 327.441 467.538 327.441C469.106 327.441 470.447 327.975 471.561 329.044C472.697 330.112 473.265 331.396 473.265 332.896C473.265 334.396 472.697 335.68 471.561 336.748C470.447 337.816 469.106 338.35 467.538 338.35ZM505.581 400.532C500.672 400.532 496.445 399.373 492.899 397.055C489.354 394.737 486.627 391.544 484.717 387.475C482.808 383.407 481.854 378.76 481.854 373.532C481.854 368.214 482.831 363.521 484.786 359.453C486.763 355.362 489.513 352.169 493.036 349.873C496.581 347.555 500.717 346.396 505.445 346.396C509.127 346.396 512.445 347.078 515.399 348.441C518.354 349.805 520.774 351.714 522.661 354.169C524.547 356.623 525.717 359.487 526.172 362.76H518.127C517.513 360.373 516.149 358.26 514.036 356.419C511.945 354.555 509.127 353.623 505.581 353.623C502.445 353.623 499.695 354.441 497.331 356.078C494.99 357.691 493.161 359.975 491.842 362.93C490.547 365.862 489.899 369.305 489.899 373.26C489.899 377.305 490.536 380.828 491.808 383.828C493.104 386.828 494.922 389.157 497.263 390.816C499.627 392.475 502.399 393.305 505.581 393.305C507.672 393.305 509.57 392.941 511.274 392.214C512.979 391.487 514.422 390.441 515.604 389.078C516.786 387.714 517.627 386.078 518.127 384.169H526.172C525.717 387.26 524.592 390.044 522.797 392.521C521.024 394.975 518.672 396.93 515.74 398.385C512.831 399.816 509.445 400.532 505.581 400.532ZM551.422 400.669C548.104 400.669 545.093 400.044 542.388 398.794C539.684 397.521 537.536 395.691 535.945 393.305C534.354 390.896 533.559 387.987 533.559 384.578C533.559 381.578 534.15 379.146 535.332 377.282C536.513 375.396 538.093 373.919 540.07 372.85C542.047 371.782 544.229 370.987 546.616 370.464C549.025 369.919 551.445 369.487 553.877 369.169C557.059 368.76 559.638 368.453 561.616 368.248C563.616 368.021 565.07 367.646 565.979 367.123C566.911 366.6 567.377 365.691 567.377 364.396V364.123C567.377 360.76 566.457 358.146 564.616 356.282C562.797 354.419 560.036 353.487 556.332 353.487C552.491 353.487 549.479 354.328 547.297 356.01C545.116 357.691 543.582 359.487 542.695 361.396L535.059 358.669C536.422 355.487 538.241 353.01 540.513 351.237C542.809 349.441 545.309 348.191 548.013 347.487C550.741 346.76 553.422 346.396 556.059 346.396C557.741 346.396 559.672 346.6 561.854 347.01C564.059 347.396 566.184 348.203 568.229 349.43C570.297 350.657 572.013 352.51 573.377 354.987C574.741 357.464 575.422 360.782 575.422 364.941V399.441H567.377V392.35H566.968C566.422 393.487 565.513 394.703 564.241 395.998C562.968 397.294 561.275 398.396 559.161 399.305C557.047 400.214 554.468 400.669 551.422 400.669ZM552.65 393.441C555.832 393.441 558.513 392.816 560.695 391.566C562.9 390.316 564.559 388.703 565.672 386.725C566.809 384.748 567.377 382.669 567.377 380.487V373.123C567.036 373.532 566.286 373.907 565.127 374.248C563.991 374.566 562.672 374.85 561.172 375.1C559.695 375.328 558.252 375.532 556.843 375.714C555.457 375.873 554.332 376.01 553.468 376.123C551.377 376.396 549.422 376.839 547.604 377.453C545.809 378.044 544.354 378.941 543.241 380.146C542.15 381.328 541.604 382.941 541.604 384.987C541.604 387.782 542.638 389.896 544.707 391.328C546.797 392.737 549.445 393.441 552.65 393.441ZM596.233 329.623V399.441H588.187V329.623H596.233ZM653.901 400.532C649.537 400.532 645.685 399.43 642.344 397.225C639.003 394.998 636.39 391.862 634.503 387.816C632.617 383.748 631.674 378.941 631.674 373.396C631.674 367.896 632.617 363.123 634.503 359.078C636.39 355.032 639.015 351.907 642.378 349.703C645.742 347.498 649.628 346.396 654.037 346.396C657.446 346.396 660.14 346.964 662.117 348.1C664.117 349.214 665.64 350.487 666.685 351.919C667.753 353.328 668.583 354.487 669.174 355.396H669.856V329.623H677.901V399.441H670.128V391.396H669.174C668.583 392.35 667.742 393.555 666.651 395.01C665.56 396.441 664.003 397.725 661.981 398.862C659.958 399.975 657.265 400.532 653.901 400.532ZM654.992 393.305C658.219 393.305 660.946 392.464 663.174 390.782C665.401 389.078 667.094 386.725 668.253 383.725C669.412 380.703 669.992 377.214 669.992 373.26C669.992 369.35 669.424 365.93 668.287 362.998C667.151 360.044 665.469 357.748 663.242 356.112C661.015 354.453 658.265 353.623 654.992 353.623C651.583 353.623 648.742 354.498 646.469 356.248C644.219 357.975 642.526 360.328 641.39 363.305C640.276 366.26 639.719 369.578 639.719 373.26C639.719 376.987 640.287 380.373 641.424 383.419C642.583 386.441 644.287 388.85 646.537 390.646C648.81 392.419 651.628 393.305 654.992 393.305ZM713.788 400.532C708.742 400.532 704.39 399.419 700.731 397.191C697.095 394.941 694.288 391.805 692.311 387.782C690.356 383.737 689.379 379.032 689.379 373.669C689.379 368.305 690.356 363.578 692.311 359.487C694.288 355.373 697.038 352.169 700.561 349.873C704.106 347.555 708.242 346.396 712.97 346.396C715.697 346.396 718.39 346.85 721.049 347.76C723.708 348.669 726.129 350.146 728.311 352.191C730.492 354.214 732.231 356.896 733.526 360.237C734.822 363.578 735.47 367.691 735.47 372.578V375.987H695.106V369.032H727.288C727.288 366.078 726.697 363.441 725.515 361.123C724.356 358.805 722.697 356.975 720.538 355.635C718.401 354.294 715.879 353.623 712.97 353.623C709.765 353.623 706.992 354.419 704.651 356.01C702.333 357.578 700.549 359.623 699.299 362.146C698.049 364.669 697.424 367.373 697.424 370.26V374.896C697.424 378.85 698.106 382.203 699.47 384.953C700.856 387.68 702.776 389.76 705.231 391.191C707.686 392.6 710.538 393.305 713.788 393.305C715.901 393.305 717.811 393.01 719.515 392.419C721.242 391.805 722.731 390.896 723.981 389.691C725.231 388.464 726.197 386.941 726.879 385.123L734.651 387.305C733.833 389.941 732.458 392.26 730.526 394.26C728.595 396.237 726.208 397.782 723.367 398.896C720.526 399.987 717.333 400.532 713.788 400.532ZM767.743 400.532C762.697 400.532 758.345 399.419 754.686 397.191C751.05 394.941 748.243 391.805 746.266 387.782C744.311 383.737 743.334 379.032 743.334 373.669C743.334 368.305 744.311 363.578 746.266 359.487C748.243 355.373 750.993 352.169 754.516 349.873C758.061 347.555 762.197 346.396 766.925 346.396C769.652 346.396 772.345 346.85 775.004 347.76C777.663 348.669 780.084 350.146 782.266 352.191C784.447 354.214 786.186 356.896 787.482 360.237C788.777 363.578 789.425 367.691 789.425 372.578V375.987H749.061V369.032H781.243C781.243 366.078 780.652 363.441 779.47 361.123C778.311 358.805 776.652 356.975 774.493 355.635C772.357 354.294 769.834 353.623 766.925 353.623C763.72 353.623 760.947 354.419 758.607 356.01C756.288 357.578 754.504 359.623 753.254 362.146C752.004 364.669 751.379 367.373 751.379 370.26V374.896C751.379 378.85 752.061 382.203 753.425 384.953C754.811 387.68 756.732 389.76 759.186 391.191C761.641 392.6 764.493 393.305 767.743 393.305C769.857 393.305 771.766 393.01 773.47 392.419C775.197 391.805 776.686 390.896 777.936 389.691C779.186 388.464 780.152 386.941 780.834 385.123L788.607 387.305C787.788 389.941 786.413 392.26 784.482 394.26C782.55 396.237 780.163 397.782 777.322 398.896C774.482 399.987 771.288 400.532 767.743 400.532ZM799.743 419.078V347.078H807.516V355.396H808.471C809.062 354.487 809.88 353.328 810.925 351.919C811.993 350.487 813.516 349.214 815.493 348.1C817.493 346.964 820.198 346.396 823.607 346.396C828.016 346.396 831.902 347.498 835.266 349.703C838.63 351.907 841.255 355.032 843.141 359.078C845.027 363.123 845.971 367.896 845.971 373.396C845.971 378.941 845.027 383.748 843.141 387.816C841.255 391.862 838.641 394.998 835.3 397.225C831.959 399.43 828.107 400.532 823.743 400.532C820.38 400.532 817.687 399.975 815.664 398.862C813.641 397.725 812.084 396.441 810.993 395.01C809.902 393.555 809.062 392.35 808.471 391.396H807.789V419.078H799.743ZM807.652 373.26C807.652 377.214 808.232 380.703 809.391 383.725C810.55 386.725 812.243 389.078 814.471 390.782C816.698 392.464 819.425 393.305 822.652 393.305C826.016 393.305 828.823 392.419 831.073 390.646C833.346 388.85 835.05 386.441 836.187 383.419C837.346 380.373 837.925 376.987 837.925 373.26C837.925 369.578 837.357 366.26 836.221 363.305C835.107 360.328 833.414 357.975 831.141 356.248C828.891 354.498 826.062 353.623 822.652 353.623C819.38 353.623 816.63 354.453 814.402 356.112C812.175 357.748 810.493 360.044 809.357 362.998C808.221 365.93 807.652 369.35 807.652 373.26ZM901.176 400.532C896.812 400.532 892.96 399.43 889.619 397.225C886.278 394.998 883.665 391.862 881.778 387.816C879.892 383.748 878.949 378.941 878.949 373.396C878.949 367.896 879.892 363.123 881.778 359.078C883.665 355.032 886.29 351.907 889.653 349.703C893.017 347.498 896.903 346.396 901.312 346.396C904.721 346.396 907.415 346.964 909.392 348.1C911.392 349.214 912.915 350.487 913.96 351.919C915.028 353.328 915.858 354.487 916.449 355.396H917.131V329.623H925.176V399.441H917.403V391.396H916.449C915.858 392.35 915.017 393.555 913.926 395.01C912.835 396.441 911.278 397.725 909.256 398.862C907.233 399.975 904.54 400.532 901.176 400.532ZM902.267 393.305C905.494 393.305 908.221 392.464 910.449 390.782C912.676 389.078 914.369 386.725 915.528 383.725C916.687 380.703 917.267 377.214 917.267 373.26C917.267 369.35 916.699 365.93 915.562 362.998C914.426 360.044 912.744 357.748 910.517 356.112C908.29 354.453 905.54 353.623 902.267 353.623C898.858 353.623 896.017 354.498 893.744 356.248C891.494 357.975 889.801 360.328 888.665 363.305C887.551 366.26 886.994 369.578 886.994 373.26C886.994 376.987 887.562 380.373 888.699 383.419C889.858 386.441 891.562 388.85 893.812 390.646C896.085 392.419 898.903 393.305 902.267 393.305ZM939.108 399.441V347.078H947.154V399.441H939.108ZM943.199 338.35C941.631 338.35 940.279 337.816 939.142 336.748C938.029 335.68 937.472 334.396 937.472 332.896C937.472 331.396 938.029 330.112 939.142 329.044C940.279 327.975 941.631 327.441 943.199 327.441C944.767 327.441 946.108 327.975 947.222 329.044C948.358 330.112 948.927 331.396 948.927 332.896C948.927 334.396 948.358 335.68 947.222 336.748C946.108 337.816 944.767 338.35 943.199 338.35ZM1002.79 347.078L983.424 399.441H975.242L955.879 347.078H964.606L979.061 388.805H979.606L994.061 347.078H1002.79ZM1031.57 400.532C1026.52 400.532 1022.17 399.419 1018.51 397.191C1014.87 394.941 1012.07 391.805 1010.09 387.782C1008.13 383.737 1007.16 379.032 1007.16 373.669C1007.16 368.305 1008.13 363.578 1010.09 359.487C1012.07 355.373 1014.82 352.169 1018.34 349.873C1021.88 347.555 1026.02 346.396 1030.75 346.396C1033.48 346.396 1036.17 346.85 1038.83 347.76C1041.49 348.669 1043.91 350.146 1046.09 352.191C1048.27 354.214 1050.01 356.896 1051.31 360.237C1052.6 363.578 1053.25 367.691 1053.25 372.578V375.987H1012.88V369.032H1045.07C1045.07 366.078 1044.48 363.441 1043.29 361.123C1042.13 358.805 1040.48 356.975 1038.32 355.635C1036.18 354.294 1033.66 353.623 1030.75 353.623C1027.54 353.623 1024.77 354.419 1022.43 356.01C1020.11 357.578 1018.33 359.623 1017.08 362.146C1015.83 364.669 1015.2 367.373 1015.2 370.26V374.896C1015.2 378.85 1015.88 382.203 1017.25 384.953C1018.63 387.68 1020.56 389.76 1023.01 391.191C1025.46 392.6 1028.32 393.305 1031.57 393.305C1033.68 393.305 1035.59 393.01 1037.29 392.419C1039.02 391.805 1040.51 390.896 1041.76 389.691C1043.01 388.464 1043.98 386.941 1044.66 385.123L1052.43 387.305C1051.61 389.941 1050.24 392.26 1048.31 394.26C1046.37 396.237 1043.99 397.782 1041.15 398.896C1038.31 399.987 1035.11 400.532 1031.57 400.532ZM1088.65 399.441V347.078H1096.69V399.441H1088.65ZM1092.74 338.35C1091.17 338.35 1089.82 337.816 1088.68 336.748C1087.57 335.68 1087.01 334.396 1087.01 332.896C1087.01 331.396 1087.57 330.112 1088.68 329.044C1089.82 327.975 1091.17 327.441 1092.74 327.441C1094.31 327.441 1095.65 327.975 1096.76 329.044C1097.9 330.112 1098.47 331.396 1098.47 332.896C1098.47 334.396 1097.9 335.68 1096.76 336.748C1095.65 337.816 1094.31 338.35 1092.74 338.35ZM1117.55 367.941V399.441H1109.51V347.078H1117.28V355.26H1117.96C1119.19 352.6 1121.05 350.464 1123.55 348.85C1126.05 347.214 1129.28 346.396 1133.24 346.396C1136.78 346.396 1139.88 347.123 1142.54 348.578C1145.2 350.01 1147.27 352.191 1148.75 355.123C1150.22 358.032 1150.96 361.714 1150.96 366.169V399.441H1142.92V366.714C1142.92 362.6 1141.85 359.396 1139.71 357.1C1137.58 354.782 1134.64 353.623 1130.92 353.623C1128.35 353.623 1126.05 354.18 1124.03 355.294C1122.03 356.407 1120.45 358.032 1119.29 360.169C1118.13 362.305 1117.55 364.896 1117.55 367.941ZM1186.52 347.078V353.896H1159.38V347.078H1186.52ZM1167.29 334.532H1175.34V384.441C1175.34 386.714 1175.67 388.419 1176.32 389.555C1177.01 390.669 1177.87 391.419 1178.92 391.805C1179.98 392.169 1181.11 392.35 1182.29 392.35C1183.18 392.35 1183.9 392.305 1184.47 392.214C1185.04 392.1 1185.49 392.01 1185.84 391.941L1187.47 399.169C1186.93 399.373 1186.17 399.578 1185.19 399.782C1184.21 400.01 1182.97 400.123 1181.47 400.123C1179.2 400.123 1176.97 399.635 1174.79 398.657C1172.63 397.68 1170.84 396.191 1169.4 394.191C1167.99 392.191 1167.29 389.669 1167.29 386.623V334.532ZM1217.41 400.532C1212.68 400.532 1208.53 399.407 1204.97 397.157C1201.42 394.907 1198.65 391.76 1196.65 387.714C1194.67 383.669 1193.68 378.941 1193.68 373.532C1193.68 368.078 1194.67 363.316 1196.65 359.248C1198.65 355.18 1201.42 352.021 1204.97 349.771C1208.53 347.521 1212.68 346.396 1217.41 346.396C1222.14 346.396 1226.27 347.521 1229.82 349.771C1233.39 352.021 1236.16 355.18 1238.14 359.248C1240.14 363.316 1241.14 368.078 1241.14 373.532C1241.14 378.941 1240.14 383.669 1238.14 387.714C1236.16 391.76 1233.39 394.907 1229.82 397.157C1226.27 399.407 1222.14 400.532 1217.41 400.532ZM1217.41 393.305C1221 393.305 1223.96 392.385 1226.27 390.544C1228.59 388.703 1230.31 386.282 1231.42 383.282C1232.53 380.282 1233.09 377.032 1233.09 373.532C1233.09 370.032 1232.53 366.771 1231.42 363.748C1230.31 360.725 1228.59 358.282 1226.27 356.419C1223.96 354.555 1221 353.623 1217.41 353.623C1213.82 353.623 1210.86 354.555 1208.55 356.419C1206.23 358.282 1204.51 360.725 1203.4 363.748C1202.28 366.771 1201.73 370.032 1201.73 373.532C1201.73 377.032 1202.28 380.282 1203.4 383.282C1204.51 386.282 1206.23 388.703 1208.55 390.544C1210.86 392.385 1213.82 393.305 1217.41 393.305ZM1284.62 367.941V399.441H1276.58V329.623H1284.62V355.26H1285.31C1286.53 352.555 1288.37 350.407 1290.83 348.816C1293.31 347.203 1296.6 346.396 1300.71 346.396C1304.28 346.396 1307.41 347.112 1310.09 348.544C1312.77 349.953 1314.85 352.123 1316.33 355.055C1317.83 357.964 1318.58 361.669 1318.58 366.169V399.441H1310.53V366.714C1310.53 362.555 1309.45 359.339 1307.29 357.066C1305.16 354.771 1302.19 353.623 1298.4 353.623C1295.76 353.623 1293.4 354.18 1291.31 355.294C1289.24 356.407 1287.6 358.032 1286.4 360.169C1285.21 362.305 1284.62 364.896 1284.62 367.941ZM1352.65 400.532C1347.92 400.532 1343.77 399.407 1340.21 397.157C1336.66 394.907 1333.89 391.76 1331.89 387.714C1329.91 383.669 1328.92 378.941 1328.92 373.532C1328.92 368.078 1329.91 363.316 1331.89 359.248C1333.89 355.18 1336.66 352.021 1340.21 349.771C1343.77 347.521 1347.92 346.396 1352.65 346.396C1357.38 346.396 1361.51 347.521 1365.06 349.771C1368.63 352.021 1371.4 355.18 1373.38 359.248C1375.38 363.316 1376.38 368.078 1376.38 373.532C1376.38 378.941 1375.38 383.669 1373.38 387.714C1371.4 391.76 1368.63 394.907 1365.06 397.157C1361.51 399.407 1357.38 400.532 1352.65 400.532ZM1352.65 393.305C1356.24 393.305 1359.2 392.385 1361.51 390.544C1363.83 388.703 1365.55 386.282 1366.66 383.282C1367.77 380.282 1368.33 377.032 1368.33 373.532C1368.33 370.032 1367.77 366.771 1366.66 363.748C1365.55 360.725 1363.83 358.282 1361.51 356.419C1359.2 354.555 1356.24 353.623 1352.65 353.623C1349.06 353.623 1346.1 354.555 1343.79 356.419C1341.47 358.282 1339.75 360.725 1338.64 363.748C1337.52 366.771 1336.97 370.032 1336.97 373.532C1336.97 377.032 1337.52 380.282 1338.64 383.282C1339.75 386.282 1341.47 388.703 1343.79 390.544C1346.1 392.385 1349.06 393.305 1352.65 393.305ZM1396.82 399.441L1380.87 347.078H1389.32L1400.64 387.169H1401.18L1412.37 347.078H1420.96L1432 387.032H1432.55L1443.87 347.078H1452.32L1436.37 399.441H1428.46L1417 359.214H1416.18L1404.73 399.441H1396.82ZM129.415 515.441V445.623H153.006C158.484 445.623 162.961 446.612 166.438 448.589C169.938 450.544 172.529 453.191 174.211 456.532C175.893 459.873 176.734 463.6 176.734 467.714C176.734 471.828 175.893 475.566 174.211 478.93C172.552 482.294 169.984 484.975 166.506 486.975C163.029 488.953 158.575 489.941 153.143 489.941H136.234V482.441H152.87C156.62 482.441 159.631 481.794 161.904 480.498C164.177 479.203 165.825 477.453 166.847 475.248C167.893 473.021 168.415 470.51 168.415 467.714C168.415 464.919 167.893 462.419 166.847 460.214C165.825 458.01 164.165 456.282 161.87 455.032C159.575 453.76 156.529 453.123 152.734 453.123H137.87V515.441H129.415ZM236.16 467.441C235.41 465.146 234.422 463.089 233.194 461.271C231.99 459.43 230.547 457.862 228.865 456.566C227.206 455.271 225.319 454.282 223.206 453.6C221.092 452.919 218.774 452.578 216.251 452.578C212.115 452.578 208.353 453.646 204.967 455.782C201.581 457.919 198.888 461.066 196.888 465.225C194.888 469.385 193.888 474.487 193.888 480.532C193.888 486.578 194.899 491.68 196.922 495.839C198.944 499.998 201.683 503.146 205.138 505.282C208.592 507.419 212.478 508.487 216.797 508.487C220.797 508.487 224.319 507.635 227.365 505.93C230.433 504.203 232.819 501.771 234.524 498.635C236.251 495.475 237.115 491.76 237.115 487.487L239.706 488.032H218.706V480.532H245.297V488.032C245.297 493.782 244.069 498.782 241.615 503.032C239.183 507.282 235.819 510.578 231.524 512.919C227.251 515.237 222.342 516.396 216.797 516.396C210.615 516.396 205.183 514.941 200.501 512.032C195.842 509.123 192.206 504.987 189.592 499.623C187.001 494.26 185.706 487.896 185.706 480.532C185.706 475.01 186.444 470.044 187.922 465.635C189.422 461.203 191.535 457.43 194.263 454.316C196.99 451.203 200.217 448.816 203.944 447.157C207.672 445.498 211.774 444.669 216.251 444.669C219.933 444.669 223.365 445.225 226.547 446.339C229.751 447.43 232.603 448.987 235.103 451.01C237.626 453.01 239.728 455.407 241.41 458.203C243.092 460.975 244.251 464.055 244.888 467.441H236.16ZM279.402 515.441H257.857V445.623H280.357C287.129 445.623 292.925 447.021 297.743 449.816C302.561 452.589 306.254 456.578 308.823 461.782C311.391 466.964 312.675 473.169 312.675 480.396C312.675 487.669 311.379 493.93 308.789 499.18C306.198 504.407 302.425 508.43 297.47 511.248C292.516 514.044 286.493 515.441 279.402 515.441ZM266.311 507.941H278.857C284.629 507.941 289.414 506.828 293.209 504.6C297.004 502.373 299.834 499.203 301.698 495.089C303.561 490.975 304.493 486.078 304.493 480.396C304.493 474.76 303.573 469.907 301.732 465.839C299.891 461.748 297.141 458.612 293.482 456.43C289.823 454.225 285.266 453.123 279.811 453.123H266.311V507.941ZM370.755 445.623H379.209V491.85C379.209 496.623 378.084 500.885 375.834 504.635C373.607 508.362 370.459 511.305 366.391 513.464C362.323 515.6 357.55 516.669 352.073 516.669C346.596 516.669 341.823 515.6 337.755 513.464C333.687 511.305 330.528 508.362 328.278 504.635C326.05 500.885 324.937 496.623 324.937 491.85V445.623H333.391V491.169C333.391 494.578 334.141 497.612 335.641 500.271C337.141 502.907 339.278 504.987 342.05 506.51C344.846 508.01 348.187 508.76 352.073 508.76C355.959 508.76 359.3 508.01 362.096 506.51C364.891 504.987 367.028 502.907 368.505 500.271C370.005 497.612 370.755 494.578 370.755 491.169V445.623ZM394.173 445.623H404.264L427.991 503.578H428.809L452.537 445.623H462.628V515.441H454.718V462.396H454.037L432.218 515.441H424.582L402.764 462.396H402.082V515.441H394.173V445.623ZM477.659 515.441V445.623H501.25C506.727 445.623 511.205 446.612 514.682 448.589C518.182 450.544 520.773 453.191 522.455 456.532C524.137 459.873 524.977 463.6 524.977 467.714C524.977 471.828 524.137 475.566 522.455 478.93C520.796 482.294 518.227 484.975 514.75 486.975C511.273 488.953 506.818 489.941 501.387 489.941H484.477V482.441H501.114C504.864 482.441 507.875 481.794 510.148 480.498C512.421 479.203 514.068 477.453 515.091 475.248C516.137 473.021 516.659 470.51 516.659 467.714C516.659 464.919 516.137 462.419 515.091 460.214C514.068 458.01 512.409 456.282 510.114 455.032C507.818 453.76 504.773 453.123 500.977 453.123H486.114V515.441H477.659ZM572.529 515.441L556.575 463.078H565.029L576.348 503.169H576.893L588.075 463.078H596.666L607.711 503.032H608.257L619.575 463.078H628.029L612.075 515.441H604.166L592.711 475.214H591.893L580.439 515.441H572.529ZM656.237 516.532C651.51 516.532 647.362 515.407 643.794 513.157C640.249 510.907 637.476 507.76 635.476 503.714C633.499 499.669 632.51 494.941 632.51 489.532C632.51 484.078 633.499 479.316 635.476 475.248C637.476 471.18 640.249 468.021 643.794 465.771C647.362 463.521 651.51 462.396 656.237 462.396C660.965 462.396 665.101 463.521 668.646 465.771C672.215 468.021 674.987 471.18 676.965 475.248C678.965 479.316 679.965 484.078 679.965 489.532C679.965 494.941 678.965 499.669 676.965 503.714C674.987 507.76 672.215 510.907 668.646 513.157C665.101 515.407 660.965 516.532 656.237 516.532ZM656.237 509.305C659.828 509.305 662.783 508.385 665.101 506.544C667.419 504.703 669.135 502.282 670.249 499.282C671.362 496.282 671.919 493.032 671.919 489.532C671.919 486.032 671.362 482.771 670.249 479.748C669.135 476.725 667.419 474.282 665.101 472.419C662.783 470.555 659.828 469.623 656.237 469.623C652.646 469.623 649.692 470.555 647.374 472.419C645.055 474.282 643.34 476.725 642.226 479.748C641.112 482.771 640.555 486.032 640.555 489.532C640.555 493.032 641.112 496.282 642.226 499.282C643.34 502.282 645.055 504.703 647.374 506.544C649.692 508.385 652.646 509.305 656.237 509.305ZM690.326 515.441V463.078H698.099V470.987H698.644C699.599 468.396 701.326 466.294 703.826 464.68C706.326 463.066 709.144 462.26 712.28 462.26C712.871 462.26 713.61 462.271 714.496 462.294C715.383 462.316 716.053 462.35 716.508 462.396V470.578C716.235 470.51 715.61 470.407 714.633 470.271C713.678 470.112 712.667 470.032 711.599 470.032C709.053 470.032 706.78 470.566 704.78 471.635C702.803 472.68 701.235 474.135 700.076 475.998C698.939 477.839 698.371 479.941 698.371 482.305V515.441H690.326ZM731.625 496.35L731.488 486.396H733.125L756.034 463.078H765.988L741.579 487.76H740.897L731.625 496.35ZM724.125 515.441V445.623H732.17V515.441H724.125ZM757.397 515.441L736.943 489.532L742.67 483.941L767.625 515.441H757.397ZM811.514 474.805L804.287 476.85C803.832 475.646 803.162 474.475 802.276 473.339C801.412 472.18 800.23 471.225 798.73 470.475C797.23 469.725 795.31 469.35 792.969 469.35C789.764 469.35 787.094 470.089 784.957 471.566C782.844 473.021 781.787 474.873 781.787 477.123C781.787 479.123 782.514 480.703 783.969 481.862C785.423 483.021 787.696 483.987 790.787 484.76L798.56 486.669C803.242 487.805 806.73 489.544 809.026 491.885C811.321 494.203 812.469 497.191 812.469 500.85C812.469 503.85 811.605 506.532 809.878 508.896C808.173 511.26 805.787 513.123 802.719 514.487C799.651 515.85 796.082 516.532 792.014 516.532C786.673 516.532 782.253 515.373 778.753 513.055C775.253 510.737 773.037 507.35 772.105 502.896L779.742 500.987C780.469 503.805 781.844 505.919 783.867 507.328C785.912 508.737 788.582 509.441 791.878 509.441C795.628 509.441 798.605 508.646 800.81 507.055C803.037 505.441 804.151 503.51 804.151 501.26C804.151 499.441 803.514 497.919 802.242 496.691C800.969 495.441 799.014 494.51 796.378 493.896L787.651 491.85C782.855 490.714 779.332 488.953 777.082 486.566C774.855 484.157 773.742 481.146 773.742 477.532C773.742 474.578 774.571 471.964 776.23 469.691C777.912 467.419 780.196 465.635 783.082 464.339C785.992 463.044 789.287 462.396 792.969 462.396C798.151 462.396 802.219 463.532 805.173 465.805C808.151 468.078 810.264 471.078 811.514 474.805Z" fill="white"/>
<path d="M88.9714 928.381V936.256H86.96V923.165H88.9032V925.21H89.0737C89.3805 924.546 89.8464 924.012 90.4714 923.608C91.0964 923.199 91.9032 922.994 92.8919 922.994C93.7782 922.994 94.5538 923.176 95.2186 923.54C95.8833 923.898 96.4004 924.443 96.7697 925.176C97.139 925.904 97.3237 926.824 97.3237 927.938V936.256H95.3123V928.074C95.3123 927.046 95.0453 926.244 94.5112 925.671C93.9771 925.091 93.2441 924.801 92.3123 924.801C91.6703 924.801 91.0964 924.941 90.5907 925.219C90.0907 925.497 89.6958 925.904 89.4061 926.438C89.1163 926.972 88.9714 927.619 88.9714 928.381ZM106.008 936.529C104.746 936.529 103.658 936.25 102.744 935.693C101.834 935.131 101.133 934.347 100.638 933.341C100.15 932.33 99.9055 931.154 99.9055 929.813C99.9055 928.472 100.15 927.29 100.638 926.267C101.133 925.239 101.82 924.438 102.701 923.864C103.587 923.284 104.621 922.994 105.803 922.994C106.485 922.994 107.158 923.108 107.823 923.335C108.488 923.563 109.093 923.932 109.638 924.443C110.184 924.949 110.619 925.619 110.942 926.455C111.266 927.29 111.428 928.318 111.428 929.54V930.392H101.337V928.654H109.383C109.383 927.915 109.235 927.256 108.94 926.676C108.65 926.097 108.235 925.639 107.695 925.304C107.161 924.969 106.53 924.801 105.803 924.801C105.002 924.801 104.309 925 103.724 925.398C103.144 925.79 102.698 926.301 102.386 926.932C102.073 927.563 101.917 928.239 101.917 928.96V930.119C101.917 931.108 102.087 931.946 102.428 932.634C102.775 933.316 103.255 933.835 103.869 934.193C104.482 934.546 105.195 934.722 106.008 934.722C106.536 934.722 107.013 934.648 107.44 934.5C107.871 934.347 108.244 934.119 108.556 933.818C108.869 933.512 109.11 933.131 109.28 932.676L111.224 933.222C111.019 933.881 110.675 934.46 110.192 934.96C109.709 935.455 109.113 935.841 108.403 936.119C107.692 936.392 106.894 936.529 106.008 936.529ZM119.326 936.529C118.144 936.529 117.107 936.247 116.215 935.685C115.329 935.122 114.636 934.335 114.136 933.324C113.641 932.313 113.394 931.131 113.394 929.779C113.394 928.415 113.641 927.225 114.136 926.208C114.636 925.191 115.329 924.401 116.215 923.838C117.107 923.276 118.144 922.994 119.326 922.994C120.508 922.994 121.542 923.276 122.428 923.838C123.32 924.401 124.014 925.191 124.508 926.208C125.008 927.225 125.258 928.415 125.258 929.779C125.258 931.131 125.008 932.313 124.508 933.324C124.014 934.335 123.32 935.122 122.428 935.685C121.542 936.247 120.508 936.529 119.326 936.529ZM119.326 934.722C120.224 934.722 120.962 934.492 121.542 934.031C122.121 933.571 122.55 932.966 122.829 932.216C123.107 931.466 123.247 930.654 123.247 929.779C123.247 928.904 123.107 928.088 122.829 927.333C122.55 926.577 122.121 925.966 121.542 925.5C120.962 925.034 120.224 924.801 119.326 924.801C118.428 924.801 117.69 925.034 117.11 925.5C116.531 925.966 116.102 926.577 115.823 927.333C115.545 928.088 115.406 928.904 115.406 929.779C115.406 930.654 115.545 931.466 115.823 932.216C116.102 932.966 116.531 933.571 117.11 934.031C117.69 934.492 118.428 934.722 119.326 934.722ZM137.121 926.097L135.314 926.608C135.2 926.307 135.033 926.014 134.811 925.73C134.595 925.441 134.3 925.202 133.925 925.014C133.55 924.827 133.07 924.733 132.485 924.733C131.683 924.733 131.016 924.918 130.482 925.287C129.953 925.651 129.689 926.114 129.689 926.676C129.689 927.176 129.871 927.571 130.235 927.861C130.598 928.151 131.166 928.392 131.939 928.585L133.882 929.063C135.053 929.347 135.925 929.781 136.499 930.367C137.073 930.946 137.36 931.693 137.36 932.608C137.36 933.358 137.144 934.029 136.712 934.619C136.286 935.21 135.689 935.676 134.922 936.017C134.155 936.358 133.263 936.529 132.246 936.529C130.911 936.529 129.806 936.239 128.931 935.659C128.056 935.08 127.502 934.233 127.269 933.119L129.178 932.642C129.36 933.347 129.703 933.875 130.209 934.227C130.72 934.58 131.388 934.756 132.212 934.756C133.149 934.756 133.894 934.557 134.445 934.159C135.002 933.756 135.28 933.273 135.28 932.71C135.28 932.256 135.121 931.875 134.803 931.568C134.485 931.256 133.996 931.023 133.337 930.869L131.155 930.358C129.956 930.074 129.075 929.634 128.513 929.037C127.956 928.435 127.678 927.682 127.678 926.779C127.678 926.04 127.885 925.387 128.3 924.818C128.72 924.25 129.291 923.804 130.013 923.48C130.74 923.156 131.564 922.994 132.485 922.994C133.78 922.994 134.797 923.279 135.536 923.847C136.28 924.415 136.808 925.165 137.121 926.097ZM141.203 941.165C140.862 941.165 140.558 941.137 140.291 941.08C140.024 941.029 139.839 940.977 139.737 940.926L140.248 939.154C140.737 939.279 141.169 939.324 141.544 939.29C141.919 939.256 142.251 939.088 142.541 938.787C142.836 938.492 143.106 938.012 143.35 937.347L143.725 936.324L138.885 923.165H141.066L144.68 933.597H144.816L148.43 923.165H150.612L145.055 938.165C144.805 938.841 144.495 939.401 144.126 939.844C143.757 940.293 143.328 940.625 142.839 940.841C142.356 941.057 141.811 941.165 141.203 941.165ZM154.798 928.381V936.256H152.787V923.165H154.73V925.21H154.9C155.207 924.546 155.673 924.012 156.298 923.608C156.923 923.199 157.73 922.994 158.718 922.994C159.605 922.994 160.38 923.176 161.045 923.54C161.71 923.898 162.227 924.443 162.596 925.176C162.966 925.904 163.15 926.824 163.15 927.938V936.256H161.139V928.074C161.139 927.046 160.872 926.244 160.338 925.671C159.804 925.091 159.071 924.801 158.139 924.801C157.497 924.801 156.923 924.941 156.417 925.219C155.917 925.497 155.522 925.904 155.233 926.438C154.943 926.972 154.798 927.619 154.798 928.381ZM171.664 936.529C170.437 936.529 169.38 936.239 168.493 935.659C167.607 935.08 166.925 934.281 166.448 933.264C165.971 932.247 165.732 931.085 165.732 929.779C165.732 928.449 165.976 927.276 166.465 926.259C166.959 925.236 167.647 924.438 168.527 923.864C169.414 923.284 170.448 922.994 171.63 922.994C172.55 922.994 173.38 923.165 174.118 923.506C174.857 923.847 175.462 924.324 175.934 924.938C176.405 925.551 176.698 926.267 176.812 927.085H174.8C174.647 926.489 174.306 925.96 173.777 925.5C173.255 925.034 172.55 924.801 171.664 924.801C170.88 924.801 170.192 925.006 169.601 925.415C169.016 925.818 168.559 926.389 168.229 927.128C167.905 927.861 167.743 928.722 167.743 929.71C167.743 930.722 167.902 931.602 168.221 932.352C168.545 933.102 168.999 933.685 169.584 934.1C170.175 934.514 170.868 934.722 171.664 934.722C172.187 934.722 172.661 934.631 173.087 934.449C173.513 934.267 173.874 934.006 174.17 933.665C174.465 933.324 174.675 932.915 174.8 932.438H176.812C176.698 933.21 176.417 933.906 175.968 934.526C175.525 935.139 174.937 935.628 174.204 935.992C173.476 936.35 172.63 936.529 171.664 936.529ZM180.738 936.392C180.317 936.392 179.957 936.242 179.655 935.941C179.354 935.639 179.204 935.279 179.204 934.858C179.204 934.438 179.354 934.077 179.655 933.776C179.957 933.475 180.317 933.324 180.738 933.324C181.158 933.324 181.519 933.475 181.82 933.776C182.121 934.077 182.272 934.438 182.272 934.858C182.272 935.137 182.201 935.392 182.059 935.625C181.922 935.858 181.738 936.046 181.505 936.188C181.278 936.324 181.022 936.392 180.738 936.392ZM190.344 936.529C189.254 936.529 188.291 936.253 187.455 935.702C186.62 935.145 185.967 934.361 185.495 933.35C185.023 932.333 184.788 931.131 184.788 929.744C184.788 928.369 185.023 927.176 185.495 926.165C185.967 925.154 186.623 924.372 187.464 923.821C188.305 923.27 189.276 922.994 190.379 922.994C191.231 922.994 191.904 923.137 192.398 923.421C192.898 923.699 193.279 924.017 193.541 924.375C193.808 924.727 194.015 925.017 194.163 925.244H194.333V918.801H196.344V936.256H194.401V934.244H194.163C194.015 934.483 193.805 934.784 193.532 935.148C193.259 935.506 192.87 935.827 192.364 936.111C191.859 936.389 191.185 936.529 190.344 936.529ZM190.617 934.722C191.424 934.722 192.106 934.512 192.663 934.091C193.219 933.665 193.643 933.077 193.933 932.327C194.222 931.571 194.367 930.699 194.367 929.71C194.367 928.733 194.225 927.878 193.941 927.145C193.657 926.406 193.237 925.833 192.68 925.423C192.123 925.009 191.435 924.801 190.617 924.801C189.765 924.801 189.055 925.02 188.487 925.458C187.924 925.889 187.501 926.477 187.217 927.222C186.938 927.96 186.799 928.79 186.799 929.71C186.799 930.642 186.941 931.489 187.225 932.25C187.515 933.006 187.941 933.608 188.504 934.057C189.072 934.5 189.776 934.722 190.617 934.722ZM205.316 936.529C204.055 936.529 202.967 936.25 202.052 935.693C201.143 935.131 200.441 934.347 199.947 933.341C199.458 932.33 199.214 931.154 199.214 929.813C199.214 928.472 199.458 927.29 199.947 926.267C200.441 925.239 201.129 924.438 202.009 923.864C202.896 923.284 203.93 922.994 205.112 922.994C205.793 922.994 206.467 923.108 207.132 923.335C207.796 923.563 208.401 923.932 208.947 924.443C209.492 924.949 209.927 925.619 210.251 926.455C210.575 927.29 210.737 928.318 210.737 929.54V930.392H200.646V928.654H208.691C208.691 927.915 208.543 927.256 208.248 926.676C207.958 926.097 207.543 925.639 207.004 925.304C206.47 924.969 205.839 924.801 205.112 924.801C204.311 924.801 203.617 925 203.032 925.398C202.453 925.79 202.007 926.301 201.694 926.932C201.382 927.563 201.225 928.239 201.225 928.96V930.119C201.225 931.108 201.396 931.946 201.737 932.634C202.083 933.316 202.563 933.835 203.177 934.193C203.791 934.546 204.504 934.722 205.316 934.722C205.845 934.722 206.322 934.648 206.748 934.5C207.18 934.347 207.552 934.119 207.864 933.818C208.177 933.512 208.418 933.131 208.589 932.676L210.532 933.222C210.328 933.881 209.984 934.46 209.501 934.96C209.018 935.455 208.421 935.841 207.711 936.119C207.001 936.392 206.203 936.529 205.316 936.529ZM223.622 923.165L218.781 936.256H216.736L211.895 923.165H214.077L217.691 933.597H217.827L221.441 923.165H223.622Z" fill="#777777"/>
<path d="M1333.12 945.182C1332.15 945.182 1331.32 945.057 1330.62 944.807C1329.92 944.562 1329.34 944.239 1328.87 943.835C1328.41 943.438 1328.05 943.011 1327.77 942.557L1329.38 941.432C1329.56 941.67 1329.79 941.943 1330.07 942.25C1330.34 942.562 1330.72 942.832 1331.21 943.06C1331.7 943.293 1332.34 943.409 1333.12 943.409C1334.18 943.409 1335.05 943.153 1335.74 942.642C1336.43 942.131 1336.77 941.33 1336.77 940.239V937.58H1336.6C1336.45 937.818 1336.24 938.114 1335.97 938.466C1335.7 938.812 1335.32 939.122 1334.81 939.395C1334.31 939.662 1333.64 939.795 1332.78 939.795C1331.73 939.795 1330.78 939.545 1329.94 939.045C1329.1 938.545 1328.44 937.818 1327.95 936.864C1327.47 935.909 1327.23 934.75 1327.23 933.386C1327.23 932.045 1327.46 930.878 1327.93 929.884C1328.41 928.884 1329.06 928.111 1329.9 927.565C1330.74 927.014 1331.72 926.739 1332.82 926.739C1333.67 926.739 1334.35 926.881 1334.85 927.165C1335.35 927.443 1335.74 927.761 1336.01 928.119C1336.28 928.472 1336.49 928.761 1336.64 928.989H1336.84V926.909H1338.78V940.375C1338.78 941.5 1338.53 942.415 1338.02 943.119C1337.51 943.83 1336.83 944.349 1335.97 944.679C1335.12 945.014 1334.17 945.182 1333.12 945.182ZM1333.06 937.989C1333.86 937.989 1334.55 937.804 1335.1 937.435C1335.66 937.065 1336.08 936.534 1336.37 935.841C1336.66 935.148 1336.81 934.318 1336.81 933.352C1336.81 932.409 1336.66 931.577 1336.38 930.855C1336.1 930.134 1335.68 929.568 1335.12 929.159C1334.56 928.75 1333.88 928.545 1333.06 928.545C1332.2 928.545 1331.49 928.761 1330.93 929.193C1330.36 929.625 1329.94 930.205 1329.66 930.932C1329.38 931.659 1329.24 932.466 1329.24 933.352C1329.24 934.261 1329.38 935.065 1329.66 935.764C1329.95 936.457 1330.38 937.003 1330.94 937.401C1331.51 937.793 1332.22 937.989 1333.06 937.989ZM1341.99 940V926.909H1344V940H1341.99ZM1343.01 924.727C1342.62 924.727 1342.28 924.594 1341.99 924.327C1341.72 924.06 1341.58 923.739 1341.58 923.364C1341.58 922.989 1341.72 922.668 1341.99 922.401C1342.28 922.134 1342.62 922 1343.01 922C1343.4 922 1343.74 922.134 1344.01 922.401C1344.3 922.668 1344.44 922.989 1344.44 923.364C1344.44 923.739 1344.3 924.06 1344.01 924.327C1343.74 924.594 1343.4 924.727 1343.01 924.727ZM1352.89 926.909V928.614H1346.11V926.909H1352.89ZM1348.09 923.773H1350.1V936.25C1350.1 936.818 1350.18 937.244 1350.35 937.528C1350.52 937.807 1350.73 937.994 1350.99 938.091C1351.26 938.182 1351.54 938.227 1351.84 938.227C1352.06 938.227 1352.24 938.216 1352.38 938.193C1352.53 938.165 1352.64 938.142 1352.72 938.125L1353.13 939.932C1353 939.983 1352.81 940.034 1352.56 940.085C1352.32 940.142 1352.01 940.17 1351.63 940.17C1351.06 940.17 1350.51 940.048 1349.96 939.804C1349.42 939.56 1348.97 939.188 1348.62 938.688C1348.26 938.188 1348.09 937.557 1348.09 936.795V923.773ZM1357.73 932.125V940H1355.72V922.545H1357.73V928.955H1357.9C1358.21 928.278 1358.67 927.741 1359.28 927.344C1359.9 926.94 1360.73 926.739 1361.76 926.739C1362.65 926.739 1363.43 926.918 1364.1 927.276C1364.77 927.628 1365.29 928.17 1365.66 928.903C1366.03 929.631 1366.22 930.557 1366.22 931.682V940H1364.21V931.818C1364.21 930.778 1363.94 929.974 1363.4 929.406C1362.87 928.832 1362.12 928.545 1361.18 928.545C1360.52 928.545 1359.93 928.685 1359.4 928.963C1358.89 929.241 1358.48 929.648 1358.18 930.182C1357.88 930.716 1357.73 931.364 1357.73 932.125ZM1377.67 934.648V926.909H1379.68V940H1377.67V937.784H1377.53C1377.23 938.449 1376.75 939.014 1376.1 939.48C1375.46 939.94 1374.64 940.17 1373.65 940.17C1372.83 940.17 1372.1 939.991 1371.47 939.634C1370.83 939.27 1370.33 938.724 1369.97 937.997C1369.6 937.264 1369.42 936.341 1369.42 935.227V926.909H1371.43V935.091C1371.43 936.045 1371.7 936.807 1372.23 937.375C1372.77 937.943 1373.46 938.227 1374.3 938.227C1374.8 938.227 1375.3 938.099 1375.82 937.844C1376.34 937.588 1376.78 937.196 1377.13 936.668C1377.49 936.139 1377.67 935.466 1377.67 934.648ZM1383.16 940V922.545H1385.17V928.989H1385.34C1385.49 928.761 1385.69 928.472 1385.95 928.119C1386.22 927.761 1386.6 927.443 1387.1 927.165C1387.6 926.881 1388.27 926.739 1389.12 926.739C1390.23 926.739 1391.2 927.014 1392.04 927.565C1392.88 928.116 1393.54 928.898 1394.01 929.909C1394.48 930.92 1394.72 932.114 1394.72 933.489C1394.72 934.875 1394.48 936.077 1394.01 937.094C1393.54 938.105 1392.88 938.889 1392.05 939.446C1391.21 939.997 1390.25 940.273 1389.16 940.273C1388.32 940.273 1387.64 940.134 1387.14 939.855C1386.63 939.571 1386.24 939.25 1385.97 938.892C1385.7 938.528 1385.49 938.227 1385.34 937.989H1385.1V940H1383.16ZM1385.14 933.455C1385.14 934.443 1385.28 935.315 1385.57 936.071C1385.86 936.821 1386.28 937.409 1386.84 937.835C1387.4 938.256 1388.08 938.466 1388.89 938.466C1389.73 938.466 1390.43 938.244 1390.99 937.801C1391.56 937.352 1391.99 936.75 1392.27 935.994C1392.56 935.233 1392.7 934.386 1392.7 933.455C1392.7 932.534 1392.56 931.705 1392.28 930.966C1392 930.222 1391.58 929.634 1391.01 929.202C1390.45 928.764 1389.74 928.545 1388.89 928.545C1388.07 928.545 1387.38 928.753 1386.82 929.168C1386.27 929.577 1385.85 930.151 1385.56 930.889C1385.28 931.622 1385.14 932.477 1385.14 933.455ZM1398.78 940.136C1398.36 940.136 1398 939.986 1397.7 939.685C1397.39 939.384 1397.24 939.023 1397.24 938.602C1397.24 938.182 1397.39 937.821 1397.7 937.52C1398 937.219 1398.36 937.068 1398.78 937.068C1399.2 937.068 1399.56 937.219 1399.86 937.52C1400.16 937.821 1400.31 938.182 1400.31 938.602C1400.31 938.881 1400.24 939.136 1400.1 939.369C1399.96 939.602 1399.78 939.79 1399.55 939.932C1399.32 940.068 1399.06 940.136 1398.78 940.136ZM1408.76 940.273C1407.53 940.273 1406.48 939.983 1405.59 939.403C1404.7 938.824 1404.02 938.026 1403.54 937.009C1403.07 935.991 1402.83 934.83 1402.83 933.523C1402.83 932.193 1403.07 931.02 1403.56 930.003C1404.06 928.98 1404.74 928.182 1405.62 927.608C1406.51 927.028 1407.54 926.739 1408.73 926.739C1409.65 926.739 1410.48 926.909 1411.21 927.25C1411.95 927.591 1412.56 928.068 1413.03 928.682C1413.5 929.295 1413.79 930.011 1413.91 930.83H1411.9C1411.74 930.233 1411.4 929.705 1410.87 929.244C1410.35 928.778 1409.65 928.545 1408.76 928.545C1407.98 928.545 1407.29 928.75 1406.7 929.159C1406.11 929.562 1405.65 930.134 1405.33 930.872C1405 931.605 1404.84 932.466 1404.84 933.455C1404.84 934.466 1405 935.347 1405.32 936.097C1405.64 936.847 1406.1 937.429 1406.68 937.844C1407.27 938.259 1407.96 938.466 1408.76 938.466C1409.28 938.466 1409.76 938.375 1410.18 938.193C1410.61 938.011 1410.97 937.75 1411.27 937.409C1411.56 937.068 1411.77 936.659 1411.9 936.182H1413.91C1413.79 936.955 1413.51 937.651 1413.06 938.27C1412.62 938.884 1412.03 939.372 1411.3 939.736C1410.57 940.094 1409.73 940.273 1408.76 940.273ZM1421.69 940.273C1420.5 940.273 1419.47 939.991 1418.58 939.429C1417.69 938.866 1417 938.08 1416.5 937.068C1416 936.057 1415.75 934.875 1415.75 933.523C1415.75 932.159 1416 930.969 1416.5 929.952C1417 928.935 1417.69 928.145 1418.58 927.582C1419.47 927.02 1420.5 926.739 1421.69 926.739C1422.87 926.739 1423.9 927.02 1424.79 927.582C1425.68 928.145 1426.37 928.935 1426.87 929.952C1427.37 930.969 1427.62 932.159 1427.62 933.523C1427.62 934.875 1427.37 936.057 1426.87 937.068C1426.37 938.08 1425.68 938.866 1424.79 939.429C1423.9 939.991 1422.87 940.273 1421.69 940.273ZM1421.69 938.466C1422.58 938.466 1423.32 938.236 1423.9 937.776C1424.48 937.315 1424.91 936.71 1425.19 935.96C1425.47 935.21 1425.61 934.398 1425.61 933.523C1425.61 932.648 1425.47 931.832 1425.19 931.077C1424.91 930.321 1424.48 929.71 1423.9 929.244C1423.32 928.778 1422.58 928.545 1421.69 928.545C1420.79 928.545 1420.05 928.778 1419.47 929.244C1418.89 929.71 1418.46 930.321 1418.18 931.077C1417.91 931.832 1417.77 932.648 1417.77 933.523C1417.77 934.398 1417.91 935.21 1418.18 935.96C1418.46 936.71 1418.89 937.315 1419.47 937.776C1420.05 938.236 1420.79 938.466 1421.69 938.466ZM1430.21 940V926.909H1432.15V928.955H1432.32C1432.59 928.256 1433.04 927.713 1433.64 927.327C1434.25 926.935 1434.98 926.739 1435.83 926.739C1436.7 926.739 1437.42 926.935 1437.99 927.327C1438.57 927.713 1439.02 928.256 1439.34 928.955H1439.48C1439.82 928.278 1440.32 927.741 1440.99 927.344C1441.66 926.94 1442.46 926.739 1443.4 926.739C1444.57 926.739 1445.53 927.105 1446.27 927.838C1447.02 928.565 1447.39 929.699 1447.39 931.239V940H1445.38V931.239C1445.38 930.273 1445.11 929.582 1444.59 929.168C1444.06 928.753 1443.44 928.545 1442.72 928.545C1441.8 928.545 1441.09 928.824 1440.58 929.381C1440.07 929.932 1439.82 930.631 1439.82 931.477V940H1437.78V931.034C1437.78 930.29 1437.54 929.69 1437.05 929.236C1436.57 928.776 1435.95 928.545 1435.19 928.545C1434.66 928.545 1434.17 928.685 1433.72 928.963C1433.27 929.241 1432.91 929.628 1432.63 930.122C1432.36 930.611 1432.22 931.176 1432.22 931.818V940H1430.21ZM1456.76 921.727L1451.13 942.625H1449.29L1454.92 921.727H1456.76ZM1460.67 932.125V940H1458.66V926.909H1460.61V928.955H1460.78C1461.08 928.29 1461.55 927.756 1462.17 927.352C1462.8 926.943 1463.61 926.739 1464.59 926.739C1465.48 926.739 1466.26 926.92 1466.92 927.284C1467.59 927.642 1468.1 928.188 1468.47 928.92C1468.84 929.648 1469.03 930.568 1469.03 931.682V940H1467.01V931.818C1467.01 930.79 1466.75 929.989 1466.21 929.415C1465.68 928.835 1464.95 928.545 1464.01 928.545C1463.37 928.545 1462.8 928.685 1462.29 928.963C1461.79 929.241 1461.4 929.648 1461.11 930.182C1460.82 930.716 1460.67 931.364 1460.67 932.125ZM1480.47 934.648V926.909H1482.48V940H1480.47V937.784H1480.34C1480.03 938.449 1479.55 939.014 1478.9 939.48C1478.26 939.94 1477.44 940.17 1476.45 940.17C1475.63 940.17 1474.9 939.991 1474.27 939.634C1473.63 939.27 1473.13 938.724 1472.77 937.997C1472.4 937.264 1472.22 936.341 1472.22 935.227V926.909H1474.23V935.091C1474.23 936.045 1474.5 936.807 1475.03 937.375C1475.57 937.943 1476.26 938.227 1477.1 938.227C1477.6 938.227 1478.11 938.099 1478.62 937.844C1479.14 937.588 1479.58 937.196 1479.93 936.668C1480.29 936.139 1480.47 935.466 1480.47 934.648ZM1491.01 940.273C1489.78 940.273 1488.72 939.983 1487.83 939.403C1486.95 938.824 1486.27 938.026 1485.79 937.009C1485.31 935.991 1485.07 934.83 1485.07 933.523C1485.07 932.193 1485.32 931.02 1485.81 930.003C1486.3 928.98 1486.99 928.182 1487.87 927.608C1488.76 927.028 1489.79 926.739 1490.97 926.739C1491.89 926.739 1492.72 926.909 1493.46 927.25C1494.2 927.591 1494.8 928.068 1495.27 928.682C1495.75 929.295 1496.04 930.011 1496.15 930.83H1494.14C1493.99 930.233 1493.65 929.705 1493.12 929.244C1492.6 928.778 1491.89 928.545 1491.01 928.545C1490.22 928.545 1489.53 928.75 1488.94 929.159C1488.36 929.562 1487.9 930.134 1487.57 930.872C1487.25 931.605 1487.08 932.466 1487.08 933.455C1487.08 934.466 1487.24 935.347 1487.56 936.097C1487.89 936.847 1488.34 937.429 1488.93 937.844C1489.52 938.259 1490.21 938.466 1491.01 938.466C1491.53 938.466 1492 938.375 1492.43 938.193C1492.85 938.011 1493.22 937.75 1493.51 937.409C1493.81 937.068 1494.02 936.659 1494.14 936.182H1496.15C1496.04 936.955 1495.76 937.651 1495.31 938.27C1494.87 938.884 1494.28 939.372 1493.54 939.736C1492.82 940.094 1491.97 940.273 1491.01 940.273ZM1500.62 922.545V940H1498.61V922.545H1500.62ZM1509.32 940.273C1508.06 940.273 1506.97 939.994 1506.05 939.438C1505.14 938.875 1504.44 938.091 1503.95 937.085C1503.46 936.074 1503.21 934.898 1503.21 933.557C1503.21 932.216 1503.46 931.034 1503.95 930.011C1504.44 928.983 1505.13 928.182 1506.01 927.608C1506.9 927.028 1507.93 926.739 1509.11 926.739C1509.79 926.739 1510.47 926.852 1511.13 927.08C1511.8 927.307 1512.4 927.676 1512.95 928.188C1513.49 928.693 1513.93 929.364 1514.25 930.199C1514.58 931.034 1514.74 932.062 1514.74 933.284V934.136H1504.65V932.398H1512.69C1512.69 931.659 1512.54 931 1512.25 930.42C1511.96 929.841 1511.54 929.384 1511 929.048C1510.47 928.713 1509.84 928.545 1509.11 928.545C1508.31 928.545 1507.62 928.744 1507.03 929.142C1506.45 929.534 1506.01 930.045 1505.69 930.676C1505.38 931.307 1505.23 931.983 1505.23 932.705V933.864C1505.23 934.852 1505.4 935.69 1505.74 936.378C1506.08 937.06 1506.56 937.58 1507.18 937.938C1507.79 938.29 1508.5 938.466 1509.32 938.466C1509.85 938.466 1510.32 938.392 1510.75 938.244C1511.18 938.091 1511.55 937.864 1511.87 937.562C1512.18 937.256 1512.42 936.875 1512.59 936.42L1514.53 936.966C1514.33 937.625 1513.98 938.205 1513.5 938.705C1513.02 939.199 1512.42 939.585 1511.71 939.864C1511 940.136 1510.2 940.273 1509.32 940.273ZM1525.57 934.648V926.909H1527.58V940H1525.57V937.784H1525.43C1525.12 938.449 1524.65 939.014 1524 939.48C1523.35 939.94 1522.53 940.17 1521.54 940.17C1520.73 940.17 1520 939.991 1519.36 939.634C1518.73 939.27 1518.23 938.724 1517.86 937.997C1517.5 937.264 1517.32 936.341 1517.32 935.227V926.909H1519.33V935.091C1519.33 936.045 1519.6 936.807 1520.13 937.375C1520.67 937.943 1521.36 938.227 1522.19 938.227C1522.69 938.227 1523.2 938.099 1523.72 937.844C1524.24 937.588 1524.68 937.196 1525.03 936.668C1525.39 936.139 1525.57 935.466 1525.57 934.648ZM1540.06 929.841L1538.25 930.352C1538.13 930.051 1537.97 929.759 1537.75 929.474C1537.53 929.185 1537.23 928.946 1536.86 928.759C1536.48 928.571 1536 928.477 1535.42 928.477C1534.62 928.477 1533.95 928.662 1533.42 929.031C1532.89 929.395 1532.62 929.858 1532.62 930.42C1532.62 930.92 1532.81 931.315 1533.17 931.605C1533.53 931.895 1534.1 932.136 1534.87 932.33L1536.82 932.807C1537.99 933.091 1538.86 933.526 1539.43 934.111C1540.01 934.69 1540.29 935.437 1540.29 936.352C1540.29 937.102 1540.08 937.773 1539.65 938.364C1539.22 938.955 1538.62 939.42 1537.86 939.761C1537.09 940.102 1536.2 940.273 1535.18 940.273C1533.84 940.273 1532.74 939.983 1531.86 939.403C1530.99 938.824 1530.44 937.977 1530.2 936.864L1532.11 936.386C1532.29 937.091 1532.64 937.619 1533.14 937.972C1533.65 938.324 1534.32 938.5 1535.15 938.5C1536.08 938.5 1536.83 938.301 1537.38 937.903C1537.94 937.5 1538.21 937.017 1538.21 936.455C1538.21 936 1538.06 935.619 1537.74 935.312C1537.42 935 1536.93 934.767 1536.27 934.614L1534.09 934.102C1532.89 933.818 1532.01 933.378 1531.45 932.781C1530.89 932.179 1530.61 931.426 1530.61 930.523C1530.61 929.784 1530.82 929.131 1531.23 928.562C1531.65 927.994 1532.23 927.548 1532.95 927.224C1533.67 926.901 1534.5 926.739 1535.42 926.739C1536.71 926.739 1537.73 927.023 1538.47 927.591C1539.21 928.159 1539.74 928.909 1540.06 929.841ZM1548.16 940.273C1546.93 940.273 1545.88 939.983 1544.99 939.403C1544.1 938.824 1543.42 938.026 1542.94 937.009C1542.47 935.991 1542.23 934.83 1542.23 933.523C1542.23 932.193 1542.47 931.02 1542.96 930.003C1543.46 928.98 1544.14 928.182 1545.02 927.608C1545.91 927.028 1546.94 926.739 1548.13 926.739C1549.05 926.739 1549.88 926.909 1550.61 927.25C1551.35 927.591 1551.96 928.068 1552.43 928.682C1552.9 929.295 1553.19 930.011 1553.31 930.83H1551.3C1551.14 930.233 1550.8 929.705 1550.27 929.244C1549.75 928.778 1549.05 928.545 1548.16 928.545C1547.38 928.545 1546.69 928.75 1546.1 929.159C1545.51 929.562 1545.05 930.134 1544.73 930.872C1544.4 931.605 1544.24 932.466 1544.24 933.455C1544.24 934.466 1544.4 935.347 1544.72 936.097C1545.04 936.847 1545.49 937.429 1546.08 937.844C1546.67 938.259 1547.36 938.466 1548.16 938.466C1548.68 938.466 1549.16 938.375 1549.58 938.193C1550.01 938.011 1550.37 937.75 1550.67 937.409C1550.96 937.068 1551.17 936.659 1551.3 936.182H1553.31C1553.19 936.955 1552.91 937.651 1552.46 938.27C1552.02 938.884 1551.43 939.372 1550.7 939.736C1549.97 940.094 1549.13 940.273 1548.16 940.273ZM1557.78 922.545V940H1555.77V922.545H1557.78ZM1566.3 940.273C1565.12 940.273 1564.08 939.991 1563.19 939.429C1562.3 938.866 1561.61 938.08 1561.11 937.068C1560.62 936.057 1560.37 934.875 1560.37 933.523C1560.37 932.159 1560.62 930.969 1561.11 929.952C1561.61 928.935 1562.3 928.145 1563.19 927.582C1564.08 927.02 1565.12 926.739 1566.3 926.739C1567.48 926.739 1568.52 927.02 1569.4 927.582C1570.3 928.145 1570.99 928.935 1571.48 929.952C1571.98 930.969 1572.23 932.159 1572.23 933.523C1572.23 934.875 1571.98 936.057 1571.48 937.068C1570.99 938.08 1570.3 938.866 1569.4 939.429C1568.52 939.991 1567.48 940.273 1566.3 940.273ZM1566.3 938.466C1567.2 938.466 1567.94 938.236 1568.52 937.776C1569.1 937.315 1569.53 936.71 1569.8 935.96C1570.08 935.21 1570.22 934.398 1570.22 933.523C1570.22 932.648 1570.08 931.832 1569.8 931.077C1569.53 930.321 1569.1 929.71 1568.52 929.244C1567.94 928.778 1567.2 928.545 1566.3 928.545C1565.4 928.545 1564.66 928.778 1564.09 929.244C1563.51 929.71 1563.08 930.321 1562.8 931.077C1562.52 931.832 1562.38 932.648 1562.38 933.523C1562.38 934.398 1562.52 935.21 1562.8 935.96C1563.08 936.71 1563.51 937.315 1564.09 937.776C1564.66 938.236 1565.4 938.466 1566.3 938.466ZM1583.07 934.648V926.909H1585.08V940H1583.07V937.784H1582.94C1582.63 938.449 1582.15 939.014 1581.51 939.48C1580.86 939.94 1580.04 940.17 1579.05 940.17C1578.23 940.17 1577.51 939.991 1576.87 939.634C1576.23 939.27 1575.73 938.724 1575.37 937.997C1575.01 937.264 1574.82 936.341 1574.82 935.227V926.909H1576.83V935.091C1576.83 936.045 1577.1 936.807 1577.64 937.375C1578.18 937.943 1578.86 938.227 1579.7 938.227C1580.2 938.227 1580.71 938.099 1581.22 937.844C1581.75 937.588 1582.18 937.196 1582.54 936.668C1582.89 936.139 1583.07 935.466 1583.07 934.648ZM1593.23 940.273C1592.14 940.273 1591.18 939.997 1590.34 939.446C1589.51 938.889 1588.85 938.105 1588.38 937.094C1587.91 936.077 1587.68 934.875 1587.68 933.489C1587.68 932.114 1587.91 930.92 1588.38 929.909C1588.85 928.898 1589.51 928.116 1590.35 927.565C1591.19 927.014 1592.16 926.739 1593.27 926.739C1594.12 926.739 1594.79 926.881 1595.29 927.165C1595.79 927.443 1596.17 927.761 1596.43 928.119C1596.69 928.472 1596.9 928.761 1597.05 928.989H1597.22V922.545H1599.23V940H1597.29V937.989H1597.05C1596.9 938.227 1596.69 938.528 1596.42 938.892C1596.15 939.25 1595.76 939.571 1595.25 939.855C1594.75 940.134 1594.07 940.273 1593.23 940.273ZM1593.5 938.466C1594.31 938.466 1594.99 938.256 1595.55 937.835C1596.11 937.409 1596.53 936.821 1596.82 936.071C1597.11 935.315 1597.25 934.443 1597.25 933.455C1597.25 932.477 1597.11 931.622 1596.83 930.889C1596.54 930.151 1596.12 929.577 1595.57 929.168C1595.01 928.753 1594.32 928.545 1593.5 928.545C1592.65 928.545 1591.94 928.764 1591.37 929.202C1590.81 929.634 1590.39 930.222 1590.1 930.966C1589.83 931.705 1589.69 932.534 1589.69 933.455C1589.69 934.386 1589.83 935.233 1590.11 935.994C1590.4 936.75 1590.83 937.352 1591.39 937.801C1591.96 938.244 1592.66 938.466 1593.5 938.466ZM1608.89 921.727L1603.26 942.625H1601.42L1607.04 921.727H1608.89ZM1612.8 932.125V940H1610.79V926.909H1612.73V928.955H1612.9C1613.21 928.29 1613.68 927.756 1614.3 927.352C1614.93 926.943 1615.73 926.739 1616.72 926.739C1617.61 926.739 1618.38 926.92 1619.05 927.284C1619.71 927.642 1620.23 928.188 1620.6 928.92C1620.97 929.648 1621.15 930.568 1621.15 931.682V940H1619.14V931.818C1619.14 930.79 1618.87 929.989 1618.34 929.415C1617.81 928.835 1617.07 928.545 1616.14 928.545C1615.5 928.545 1614.93 928.685 1614.42 928.963C1613.92 929.241 1613.53 929.648 1613.24 930.182C1612.95 930.716 1612.8 931.364 1612.8 932.125ZM1629.84 940.273C1628.58 940.273 1627.49 939.994 1626.57 939.438C1625.66 938.875 1624.96 938.091 1624.47 937.085C1623.98 936.074 1623.74 934.898 1623.74 933.557C1623.74 932.216 1623.98 931.034 1624.47 930.011C1624.96 928.983 1625.65 928.182 1626.53 927.608C1627.42 927.028 1628.45 926.739 1629.63 926.739C1630.31 926.739 1630.99 926.852 1631.65 927.08C1632.32 927.307 1632.92 927.676 1633.47 928.188C1634.01 928.693 1634.45 929.364 1634.77 930.199C1635.1 931.034 1635.26 932.062 1635.26 933.284V934.136H1625.17V932.398H1633.21C1633.21 931.659 1633.06 931 1632.77 930.42C1632.48 929.841 1632.06 929.384 1631.52 929.048C1630.99 928.713 1630.36 928.545 1629.63 928.545C1628.83 928.545 1628.14 928.744 1627.55 929.142C1626.97 929.534 1626.53 930.045 1626.22 930.676C1625.9 931.307 1625.75 931.983 1625.75 932.705V933.864C1625.75 934.852 1625.92 935.69 1626.26 936.378C1626.6 937.06 1627.08 937.58 1627.7 937.938C1628.31 938.29 1629.02 938.466 1629.84 938.466C1630.37 938.466 1630.84 938.392 1631.27 938.244C1631.7 938.091 1632.07 937.864 1632.39 937.562C1632.7 937.256 1632.94 936.875 1633.11 936.42L1635.05 936.966C1634.85 937.625 1634.5 938.205 1634.02 938.705C1633.54 939.199 1632.94 939.585 1632.23 939.864C1631.52 940.136 1630.72 940.273 1629.84 940.273ZM1643.16 940.273C1641.97 940.273 1640.94 939.991 1640.04 939.429C1639.16 938.866 1638.47 938.08 1637.97 937.068C1637.47 936.057 1637.22 934.875 1637.22 933.523C1637.22 932.159 1637.47 930.969 1637.97 929.952C1638.47 928.935 1639.16 928.145 1640.04 927.582C1640.94 927.02 1641.97 926.739 1643.16 926.739C1644.34 926.739 1645.37 927.02 1646.26 927.582C1647.15 928.145 1647.84 928.935 1648.34 929.952C1648.84 930.969 1649.09 932.159 1649.09 933.523C1649.09 934.875 1648.84 936.057 1648.34 937.068C1647.84 938.08 1647.15 938.866 1646.26 939.429C1645.37 939.991 1644.34 940.273 1643.16 940.273ZM1643.16 938.466C1644.05 938.466 1644.79 938.236 1645.37 937.776C1645.95 937.315 1646.38 936.71 1646.66 935.96C1646.94 935.21 1647.08 934.398 1647.08 933.523C1647.08 932.648 1646.94 931.832 1646.66 931.077C1646.38 930.321 1645.95 929.71 1645.37 929.244C1644.79 928.778 1644.05 928.545 1643.16 928.545C1642.26 928.545 1641.52 928.778 1640.94 929.244C1640.36 929.71 1639.93 930.321 1639.65 931.077C1639.37 931.832 1639.24 932.648 1639.24 933.523C1639.24 934.398 1639.37 935.21 1639.65 935.96C1639.93 936.71 1640.36 937.315 1640.94 937.776C1641.52 938.236 1642.26 938.466 1643.16 938.466ZM1660.95 929.841L1659.14 930.352C1659.03 930.051 1658.86 929.759 1658.64 929.474C1658.42 929.185 1658.13 928.946 1657.75 928.759C1657.38 928.571 1656.9 928.477 1656.31 928.477C1655.51 928.477 1654.85 928.662 1654.31 929.031C1653.78 929.395 1653.52 929.858 1653.52 930.42C1653.52 930.92 1653.7 931.315 1654.06 931.605C1654.43 931.895 1655 932.136 1655.77 932.33L1657.71 932.807C1658.88 933.091 1659.75 933.526 1660.33 934.111C1660.9 934.69 1661.19 935.437 1661.19 936.352C1661.19 937.102 1660.97 937.773 1660.54 938.364C1660.12 938.955 1659.52 939.42 1658.75 939.761C1657.98 940.102 1657.09 940.273 1656.08 940.273C1654.74 940.273 1653.64 939.983 1652.76 939.403C1651.89 938.824 1651.33 937.977 1651.1 936.864L1653.01 936.386C1653.19 937.091 1653.53 937.619 1654.04 937.972C1654.55 938.324 1655.22 938.5 1656.04 938.5C1656.98 938.5 1657.72 938.301 1658.27 937.903C1658.83 937.5 1659.11 937.017 1659.11 936.455C1659.11 936 1658.95 935.619 1658.63 935.312C1658.31 935 1657.83 934.767 1657.17 934.614L1654.98 934.102C1653.79 933.818 1652.91 933.378 1652.34 932.781C1651.79 932.179 1651.51 931.426 1651.51 930.523C1651.51 929.784 1651.71 929.131 1652.13 928.562C1652.55 927.994 1653.12 927.548 1653.84 927.224C1654.57 926.901 1655.39 926.739 1656.31 926.739C1657.61 926.739 1658.63 927.023 1659.37 927.591C1660.11 928.159 1660.64 928.909 1660.95 929.841ZM1665.03 944.909C1664.69 944.909 1664.39 944.881 1664.12 944.824C1663.85 944.773 1663.67 944.722 1663.57 944.67L1664.08 942.898C1664.57 943.023 1665 943.068 1665.37 943.034C1665.75 943 1666.08 942.832 1666.37 942.531C1666.67 942.236 1666.94 941.756 1667.18 941.091L1667.56 940.068L1662.71 926.909H1664.9L1668.51 937.341H1668.65L1672.26 926.909H1674.44L1668.88 941.909C1668.63 942.585 1668.32 943.145 1667.96 943.588C1667.59 944.037 1667.16 944.369 1666.67 944.585C1666.19 944.801 1665.64 944.909 1665.03 944.909ZM1678.63 932.125V940H1676.62V926.909H1678.56V928.955H1678.73C1679.04 928.29 1679.5 927.756 1680.13 927.352C1680.75 926.943 1681.56 926.739 1682.55 926.739C1683.43 926.739 1684.21 926.92 1684.87 927.284C1685.54 927.642 1686.06 928.188 1686.43 928.92C1686.8 929.648 1686.98 930.568 1686.98 931.682V940H1684.97V931.818C1684.97 930.79 1684.7 929.989 1684.17 929.415C1683.63 928.835 1682.9 928.545 1681.97 928.545C1681.33 928.545 1680.75 928.685 1680.25 928.963C1679.75 929.241 1679.35 929.648 1679.06 930.182C1678.77 930.716 1678.63 931.364 1678.63 932.125ZM1695.49 940.273C1694.27 940.273 1693.21 939.983 1692.32 939.403C1691.44 938.824 1690.75 938.026 1690.28 937.009C1689.8 935.991 1689.56 934.83 1689.56 933.523C1689.56 932.193 1689.81 931.02 1690.29 930.003C1690.79 928.98 1691.48 928.182 1692.36 927.608C1693.24 927.028 1694.28 926.739 1695.46 926.739C1696.38 926.739 1697.21 926.909 1697.95 927.25C1698.69 927.591 1699.29 928.068 1699.76 928.682C1700.23 929.295 1700.53 930.011 1700.64 930.83H1698.63C1698.48 930.233 1698.14 929.705 1697.61 929.244C1697.08 928.778 1696.38 928.545 1695.49 928.545C1694.71 928.545 1694.02 928.75 1693.43 929.159C1692.85 929.562 1692.39 930.134 1692.06 930.872C1691.73 931.605 1691.57 932.466 1691.57 933.455C1691.57 934.466 1691.73 935.347 1692.05 936.097C1692.37 936.847 1692.83 937.429 1693.41 937.844C1694 938.259 1694.7 938.466 1695.49 938.466C1696.02 938.466 1696.49 938.375 1696.92 938.193C1697.34 938.011 1697.7 937.75 1698 937.409C1698.29 937.068 1698.5 936.659 1698.63 936.182H1700.64C1700.53 936.955 1700.25 937.651 1699.8 938.27C1699.35 938.884 1698.77 939.372 1698.03 939.736C1697.31 940.094 1696.46 940.273 1695.49 940.273Z" fill="#777777"/>
<path fill-rule="evenodd" clip-rule="evenodd" d="M1270.13 913C1255.69 913 1244 924.88 1244 939.548C1244 951.296 1251.48 961.218 1261.87 964.736C1263.18 964.968 1263.67 964.172 1263.67 963.475C1263.67 962.844 1263.63 960.753 1263.63 958.53C1257.07 959.758 1255.37 956.904 1254.85 955.411C1254.55 954.647 1253.28 952.291 1252.17 951.661C1251.25 951.163 1249.95 949.935 1252.13 949.902C1254.19 949.869 1255.66 951.827 1256.15 952.623C1258.5 956.639 1262.26 955.51 1263.76 954.813C1263.99 953.088 1264.68 951.926 1265.43 951.263C1259.61 950.599 1253.54 948.309 1253.54 938.154C1253.54 935.267 1254.55 932.878 1256.22 931.02C1255.96 930.356 1255.04 927.635 1256.48 923.984C1256.48 923.984 1258.67 923.287 1263.67 926.705C1265.76 926.108 1267.98 925.809 1270.2 925.809C1272.42 925.809 1274.64 926.108 1276.73 926.705C1281.73 923.254 1283.92 923.984 1283.92 923.984C1285.36 927.635 1284.44 930.356 1284.18 931.02C1285.85 932.878 1286.86 935.234 1286.86 938.154C1286.86 948.342 1280.75 950.599 1274.94 951.263C1275.88 952.092 1276.7 953.685 1276.7 956.174C1276.7 959.725 1276.67 962.579 1276.67 963.475C1276.67 964.172 1277.16 965.001 1278.46 964.736C1283.65 962.957 1288.16 959.569 1291.35 955.051C1294.55 950.533 1296.27 945.111 1296.27 939.548C1296.27 924.88 1284.57 913 1270.13 913Z" fill="#777777"/>
</svg>
