<svg width="1792" height="1024" viewBox="0 0 1792 1024" fill="none" xmlns="http://www.w3.org/2000/svg">
<rect width="1792" height="1024" fill="#080808"/>
<path d="M202.417 165.765C206.276 165.765 208.206 165.765 209.733 165.142C211.868 164.271 213.561 162.559 214.423 160.4C215.039 158.856 215.039 156.905 215.039 153.002V153.002V127.894C215.039 119.81 215.039 115.767 212.555 113.256C210.072 110.744 206.074 110.744 198.079 110.744H182.71C170.387 110.744 164.226 110.744 161.741 114.818C159.257 118.892 162.023 124.459 167.555 135.593L167.555 135.593L178.122 156.863C179.966 160.574 177.298 164.949 173.191 164.949C171.104 164.949 169.196 163.759 168.26 161.874L147.552 120.195C145.268 115.597 144.125 113.297 142.079 112.021C140.032 110.744 137.487 110.744 132.398 110.744L127.323 110.744C119.328 110.744 115.33 110.744 112.847 113.256C110.363 115.768 110.363 119.81 110.363 127.894L110.363 152.186C110.363 156.089 110.363 158.04 109.747 159.584C108.885 161.743 107.192 163.455 105.057 164.326C103.53 164.95 101.6 164.95 97.741 164.95H97.7409C93.8819 164.95 91.9523 164.95 90.4253 165.573C88.2902 166.444 86.5972 168.156 85.7355 170.315C85.1191 171.859 85.1191 173.81 85.1191 177.713V202.821C85.1191 210.905 85.1191 214.948 87.6029 217.459C90.0866 219.971 94.0841 219.971 102.079 219.971H102.079H117.449C129.771 219.971 135.932 219.971 138.417 215.897C140.901 211.823 138.135 206.256 132.604 195.122L122.036 173.852C120.192 170.14 122.86 165.766 126.967 165.766C129.054 165.766 130.962 166.956 131.899 168.841L152.606 210.52C154.891 215.118 156.033 217.418 158.08 218.694C160.126 219.97 162.671 219.97 167.761 219.97H167.761H172.835C180.83 219.97 184.828 219.97 187.312 217.459C189.795 214.947 189.795 210.905 189.795 202.82V178.529C189.795 174.626 189.795 172.675 190.412 171.131C191.274 168.972 192.966 167.26 195.102 166.389C196.629 165.765 198.558 165.765 202.417 165.765Z" fill="white"/>
<path d="M202.417 165.765C206.276 165.765 208.206 165.765 209.733 165.142C211.868 164.271 213.561 162.559 214.423 160.4C215.039 158.856 215.039 156.905 215.039 153.002V153.002V127.894C215.039 119.81 215.039 115.767 212.555 113.256C210.072 110.744 206.074 110.744 198.079 110.744H182.71C170.387 110.744 164.226 110.744 161.741 114.818C159.257 118.892 162.023 124.459 167.555 135.593L167.555 135.593L178.122 156.863C179.966 160.574 177.298 164.949 173.191 164.949C171.104 164.949 169.196 163.759 168.26 161.874L147.552 120.195C145.268 115.597 144.125 113.297 142.079 112.021C140.032 110.744 137.487 110.744 132.398 110.744L127.323 110.744C119.328 110.744 115.33 110.744 112.847 113.256C110.363 115.768 110.363 119.81 110.363 127.894L110.363 152.186C110.363 156.089 110.363 158.04 109.747 159.584C108.885 161.743 107.192 163.455 105.057 164.326C103.53 164.95 101.6 164.95 97.741 164.95H97.7409C93.8819 164.95 91.9523 164.95 90.4253 165.573C88.2902 166.444 86.5972 168.156 85.7355 170.315C85.1191 171.859 85.1191 173.81 85.1191 177.713V202.821C85.1191 210.905 85.1191 214.948 87.6029 217.459C90.0866 219.971 94.0841 219.971 102.079 219.971H102.079H117.449C129.771 219.971 135.932 219.971 138.417 215.897C140.901 211.823 138.135 206.256 132.604 195.122L122.036 173.852C120.192 170.14 122.86 165.766 126.967 165.766C129.054 165.766 130.962 166.956 131.899 168.841L152.606 210.52C154.891 215.118 156.033 217.418 158.08 218.694C160.126 219.97 162.671 219.97 167.761 219.97H167.761H172.835C180.83 219.97 184.828 219.97 187.312 217.459C189.795 214.947 189.795 210.905 189.795 202.82V178.529C189.795 174.626 189.795 172.675 190.412 171.131C191.274 168.972 192.966 167.26 195.102 166.389C196.629 165.765 198.558 165.765 202.417 165.765Z" stroke="white"/>
<path d="M150.961 399.441H129.415V329.623H151.915C158.688 329.623 164.484 331.021 169.302 333.816C174.12 336.589 177.813 340.578 180.381 345.782C182.95 350.964 184.234 357.169 184.234 364.396C184.234 371.669 182.938 377.93 180.347 383.18C177.756 388.407 173.984 392.43 169.029 395.248C164.075 398.044 158.052 399.441 150.961 399.441ZM137.87 391.941H150.415C156.188 391.941 160.972 390.828 164.768 388.6C168.563 386.373 171.393 383.203 173.256 379.089C175.12 374.975 176.052 370.078 176.052 364.396C176.052 358.76 175.131 353.907 173.29 349.839C171.45 345.748 168.7 342.612 165.04 340.43C161.381 338.225 156.825 337.123 151.37 337.123H137.87V391.941ZM217.359 400.532C212.314 400.532 207.961 399.419 204.302 397.191C200.666 394.941 197.859 391.805 195.882 387.782C193.927 383.737 192.95 379.032 192.95 373.669C192.95 368.305 193.927 363.578 195.882 359.487C197.859 355.373 200.609 352.169 204.132 349.873C207.677 347.555 211.814 346.396 216.541 346.396C219.268 346.396 221.961 346.85 224.62 347.76C227.28 348.669 229.7 350.146 231.882 352.191C234.064 354.214 235.802 356.896 237.098 360.237C238.393 363.578 239.041 367.691 239.041 372.578V375.987H198.677V369.032H230.859C230.859 366.078 230.268 363.441 229.086 361.123C227.927 358.805 226.268 356.975 224.109 355.635C221.973 354.294 219.45 353.623 216.541 353.623C213.336 353.623 210.564 354.419 208.223 356.01C205.905 357.578 204.12 359.623 202.87 362.146C201.62 364.669 200.995 367.373 200.995 370.26V374.896C200.995 378.85 201.677 382.203 203.041 384.953C204.427 387.68 206.348 389.76 208.802 391.191C211.257 392.6 214.109 393.305 217.359 393.305C219.473 393.305 221.382 393.01 223.086 392.419C224.814 391.805 226.302 390.896 227.552 389.691C228.802 388.464 229.768 386.941 230.45 385.123L238.223 387.305C237.405 389.941 236.03 392.26 234.098 394.26C232.166 396.237 229.78 397.782 226.939 398.896C224.098 399.987 220.905 400.532 217.359 400.532ZM271.314 400.532C266.269 400.532 261.916 399.419 258.257 397.191C254.621 394.941 251.814 391.805 249.837 387.782C247.882 383.737 246.905 379.032 246.905 373.669C246.905 368.305 247.882 363.578 249.837 359.487C251.814 355.373 254.564 352.169 258.087 349.873C261.632 347.555 265.769 346.396 270.496 346.396C273.223 346.396 275.916 346.85 278.575 347.76C281.235 348.669 283.655 350.146 285.837 352.191C288.019 354.214 289.757 356.896 291.053 360.237C292.348 363.578 292.996 367.691 292.996 372.578V375.987H252.632V369.032H284.814C284.814 366.078 284.223 363.441 283.041 361.123C281.882 358.805 280.223 356.975 278.064 355.635C275.928 354.294 273.405 353.623 270.496 353.623C267.291 353.623 264.519 354.419 262.178 356.01C259.86 357.578 258.075 359.623 256.825 362.146C255.575 364.669 254.95 367.373 254.95 370.26V374.896C254.95 378.85 255.632 382.203 256.996 384.953C258.382 387.68 260.303 389.76 262.757 391.191C265.212 392.6 268.064 393.305 271.314 393.305C273.428 393.305 275.337 393.01 277.041 392.419C278.769 391.805 280.257 390.896 281.507 389.691C282.757 388.464 283.723 386.941 284.405 385.123L292.178 387.305C291.36 389.941 289.985 392.26 288.053 394.26C286.121 396.237 283.735 397.782 280.894 398.896C278.053 399.987 274.86 400.532 271.314 400.532ZM303.315 419.078V347.078H311.087V355.396H312.042C312.633 354.487 313.451 353.328 314.496 351.919C315.565 350.487 317.087 349.214 319.065 348.1C321.065 346.964 323.769 346.396 327.178 346.396C331.587 346.396 335.474 347.498 338.837 349.703C342.201 351.907 344.826 355.032 346.712 359.078C348.599 363.123 349.542 367.896 349.542 373.396C349.542 378.941 348.599 383.748 346.712 387.816C344.826 391.862 342.212 394.998 338.871 397.225C335.53 399.43 331.678 400.532 327.315 400.532C323.951 400.532 321.258 399.975 319.235 398.862C317.212 397.725 315.655 396.441 314.565 395.01C313.474 393.555 312.633 392.35 312.042 391.396H311.36V419.078H303.315ZM311.224 373.26C311.224 377.214 311.803 380.703 312.962 383.725C314.121 386.725 315.815 389.078 318.042 390.782C320.269 392.464 322.996 393.305 326.224 393.305C329.587 393.305 332.394 392.419 334.644 390.646C336.917 388.85 338.621 386.441 339.758 383.419C340.917 380.373 341.496 376.987 341.496 373.26C341.496 369.578 340.928 366.26 339.792 363.305C338.678 360.328 336.985 357.975 334.712 356.248C332.462 354.498 329.633 353.623 326.224 353.623C322.951 353.623 320.201 354.453 317.974 356.112C315.746 357.748 314.065 360.044 312.928 362.998C311.792 365.93 311.224 369.35 311.224 373.26ZM404.747 400.532C400.384 400.532 396.531 399.43 393.19 397.225C389.85 394.998 387.236 391.862 385.35 387.816C383.463 383.748 382.52 378.941 382.52 373.396C382.52 367.896 383.463 363.123 385.35 359.078C387.236 355.032 389.861 351.907 393.225 349.703C396.588 347.498 400.475 346.396 404.884 346.396C408.293 346.396 410.986 346.964 412.963 348.1C414.963 349.214 416.486 350.487 417.531 351.919C418.6 353.328 419.429 354.487 420.02 355.396H420.702V329.623H428.747V399.441H420.975V391.396H420.02C419.429 392.35 418.588 393.555 417.497 395.01C416.406 396.441 414.85 397.725 412.827 398.862C410.804 399.975 408.111 400.532 404.747 400.532ZM405.838 393.305C409.065 393.305 411.793 392.464 414.02 390.782C416.247 389.078 417.94 386.725 419.1 383.725C420.259 380.703 420.838 377.214 420.838 373.26C420.838 369.35 420.27 365.93 419.134 362.998C417.997 360.044 416.315 357.748 414.088 356.112C411.861 354.453 409.111 353.623 405.838 353.623C402.429 353.623 399.588 354.498 397.315 356.248C395.065 357.975 393.372 360.328 392.236 363.305C391.122 366.26 390.565 369.578 390.565 373.26C390.565 376.987 391.134 380.373 392.27 383.419C393.429 386.441 395.134 388.85 397.384 390.646C399.656 392.419 402.475 393.305 405.838 393.305ZM442.68 399.441V347.078H450.725V399.441H442.68ZM446.77 338.35C445.202 338.35 443.85 337.816 442.714 336.748C441.6 335.68 441.043 334.396 441.043 332.896C441.043 331.396 441.6 330.112 442.714 329.044C443.85 327.975 445.202 327.441 446.77 327.441C448.339 327.441 449.68 327.975 450.793 329.044C451.93 330.112 452.498 331.396 452.498 332.896C452.498 334.396 451.93 335.68 450.793 336.748C449.68 337.816 448.339 338.35 446.77 338.35ZM506.359 347.078L486.995 399.441H478.814L459.45 347.078H468.177L482.632 388.805H483.177L497.632 347.078H506.359ZM535.138 400.532C530.092 400.532 525.74 399.419 522.081 397.191C518.445 394.941 515.638 391.805 513.661 387.782C511.706 383.737 510.729 379.032 510.729 373.669C510.729 368.305 511.706 363.578 513.661 359.487C515.638 355.373 518.388 352.169 521.911 349.873C525.456 347.555 529.592 346.396 534.32 346.396C537.047 346.396 539.74 346.85 542.399 347.76C545.058 348.669 547.479 350.146 549.661 352.191C551.842 354.214 553.581 356.896 554.877 360.237C556.172 363.578 556.82 367.691 556.82 372.578V375.987H516.456V369.032H548.638C548.638 366.078 548.047 363.441 546.865 361.123C545.706 358.805 544.047 356.975 541.888 355.635C539.752 354.294 537.229 353.623 534.32 353.623C531.115 353.623 528.342 354.419 526.002 356.01C523.683 357.578 521.899 359.623 520.649 362.146C519.399 364.669 518.774 367.373 518.774 370.26V374.896C518.774 378.85 519.456 382.203 520.82 384.953C522.206 387.68 524.127 389.76 526.581 391.191C529.036 392.6 531.888 393.305 535.138 393.305C537.252 393.305 539.161 393.01 540.865 392.419C542.592 391.805 544.081 390.896 545.331 389.691C546.581 388.464 547.547 386.941 548.229 385.123L556.002 387.305C555.183 389.941 553.808 392.26 551.877 394.26C549.945 396.237 547.558 397.782 544.717 398.896C541.877 399.987 538.683 400.532 535.138 400.532ZM592.218 399.441V347.078H600.264V399.441H592.218ZM596.309 338.35C594.741 338.35 593.389 337.816 592.252 336.748C591.139 335.68 590.582 334.396 590.582 332.896C590.582 331.396 591.139 330.112 592.252 329.044C593.389 327.975 594.741 327.441 596.309 327.441C597.877 327.441 599.218 327.975 600.332 329.044C601.468 330.112 602.036 331.396 602.036 332.896C602.036 334.396 601.468 335.68 600.332 336.748C599.218 337.816 597.877 338.35 596.309 338.35ZM621.125 367.941V399.441H613.08V347.078H620.852V355.26H621.534C622.761 352.6 624.625 350.464 627.125 348.85C629.625 347.214 632.852 346.396 636.807 346.396C640.352 346.396 643.455 347.123 646.114 348.578C648.773 350.01 650.841 352.191 652.318 355.123C653.795 358.032 654.534 361.714 654.534 366.169V399.441H646.489V366.714C646.489 362.6 645.42 359.396 643.284 357.1C641.148 354.782 638.216 353.623 634.489 353.623C631.92 353.623 629.625 354.18 627.602 355.294C625.602 356.407 624.023 358.032 622.864 360.169C621.705 362.305 621.125 364.896 621.125 367.941ZM690.089 347.078V353.896H662.952V347.078H690.089ZM670.861 334.532H678.907V384.441C678.907 386.714 679.236 388.419 679.895 389.555C680.577 390.669 681.441 391.419 682.486 391.805C683.554 392.169 684.679 392.35 685.861 392.35C686.748 392.35 687.475 392.305 688.043 392.214C688.611 392.1 689.066 392.01 689.407 391.941L691.043 399.169C690.498 399.373 689.736 399.578 688.759 399.782C687.782 400.01 686.543 400.123 685.043 400.123C682.77 400.123 680.543 399.635 678.361 398.657C676.202 397.68 674.407 396.191 672.975 394.191C671.566 392.191 670.861 389.669 670.861 386.623V334.532ZM720.981 400.532C716.254 400.532 712.106 399.407 708.538 397.157C704.992 394.907 702.22 391.76 700.22 387.714C698.242 383.669 697.254 378.941 697.254 373.532C697.254 368.078 698.242 363.316 700.22 359.248C702.22 355.18 704.992 352.021 708.538 349.771C712.106 347.521 716.254 346.396 720.981 346.396C725.708 346.396 729.845 347.521 733.39 349.771C736.958 352.021 739.731 355.18 741.708 359.248C743.708 363.316 744.708 368.078 744.708 373.532C744.708 378.941 743.708 383.669 741.708 387.714C739.731 391.76 736.958 394.907 733.39 397.157C729.845 399.407 725.708 400.532 720.981 400.532ZM720.981 393.305C724.572 393.305 727.526 392.385 729.845 390.544C732.163 388.703 733.879 386.282 734.992 383.282C736.106 380.282 736.663 377.032 736.663 373.532C736.663 370.032 736.106 366.771 734.992 363.748C733.879 360.725 732.163 358.282 729.845 356.419C727.526 354.555 724.572 353.623 720.981 353.623C717.39 353.623 714.436 354.555 712.117 356.419C709.799 358.282 708.083 360.725 706.97 363.748C705.856 366.771 705.299 370.032 705.299 373.532C705.299 377.032 705.856 380.282 706.97 383.282C708.083 386.282 709.799 388.703 712.117 390.544C714.436 392.385 717.39 393.305 720.981 393.305ZM788.195 367.941V399.441H780.15V329.623H788.195V355.26H788.877C790.104 352.555 791.945 350.407 794.4 348.816C796.877 347.203 800.172 346.396 804.286 346.396C807.854 346.396 810.979 347.112 813.661 348.544C816.343 349.953 818.422 352.123 819.9 355.055C821.4 357.964 822.15 361.669 822.15 366.169V399.441H814.104V366.714C814.104 362.555 813.025 359.339 810.865 357.066C808.729 354.771 805.763 353.623 801.968 353.623C799.331 353.623 796.968 354.18 794.877 355.294C792.809 356.407 791.172 358.032 789.968 360.169C788.786 362.305 788.195 364.896 788.195 367.941ZM856.221 400.532C851.494 400.532 847.346 399.407 843.778 397.157C840.232 394.907 837.46 391.76 835.46 387.714C833.482 383.669 832.494 378.941 832.494 373.532C832.494 368.078 833.482 363.316 835.46 359.248C837.46 355.18 840.232 352.021 843.778 349.771C847.346 347.521 851.494 346.396 856.221 346.396C860.948 346.396 865.085 347.521 868.63 349.771C872.198 352.021 874.971 355.18 876.948 359.248C878.948 363.316 879.948 368.078 879.948 373.532C879.948 378.941 878.948 383.669 876.948 387.714C874.971 391.76 872.198 394.907 868.63 397.157C865.085 399.407 860.948 400.532 856.221 400.532ZM856.221 393.305C859.812 393.305 862.767 392.385 865.085 390.544C867.403 388.703 869.119 386.282 870.232 383.282C871.346 380.282 871.903 377.032 871.903 373.532C871.903 370.032 871.346 366.771 870.232 363.748C869.119 360.725 867.403 358.282 865.085 356.419C862.767 354.555 859.812 353.623 856.221 353.623C852.63 353.623 849.676 354.555 847.357 356.419C845.039 358.282 843.323 360.725 842.21 363.748C841.096 366.771 840.539 370.032 840.539 373.532C840.539 377.032 841.096 380.282 842.21 383.282C843.323 386.282 845.039 388.703 847.357 390.544C849.676 392.385 852.63 393.305 856.221 393.305ZM900.392 399.441L884.437 347.078H892.892L904.21 387.169H904.756L915.937 347.078H924.528L935.574 387.032H936.119L947.437 347.078H955.892L939.937 399.441H932.028L920.574 359.214H919.756L908.301 399.441H900.392ZM990.779 399.441V329.623H1014.37C1019.85 329.623 1024.32 330.612 1027.8 332.589C1031.3 334.544 1033.89 337.191 1035.57 340.532C1037.26 343.873 1038.1 347.6 1038.1 351.714C1038.1 355.828 1037.26 359.566 1035.57 362.93C1033.92 366.294 1031.35 368.975 1027.87 370.975C1024.39 372.953 1019.94 373.941 1014.51 373.941H997.597V366.441H1014.23C1017.98 366.441 1021 365.794 1023.27 364.498C1025.54 363.203 1027.19 361.453 1028.21 359.248C1029.26 357.021 1029.78 354.51 1029.78 351.714C1029.78 348.919 1029.26 346.419 1028.21 344.214C1027.19 342.01 1025.53 340.282 1023.23 339.032C1020.94 337.76 1017.89 337.123 1014.1 337.123H999.234V399.441H990.779ZM1097.52 351.441C1096.77 349.146 1095.79 347.089 1094.56 345.271C1093.35 343.43 1091.91 341.862 1090.23 340.566C1088.57 339.271 1086.68 338.282 1084.57 337.6C1082.46 336.919 1080.14 336.578 1077.61 336.578C1073.48 336.578 1069.72 337.646 1066.33 339.782C1062.94 341.919 1060.25 345.066 1058.25 349.225C1056.25 353.385 1055.25 358.487 1055.25 364.532C1055.25 370.578 1056.26 375.68 1058.29 379.839C1060.31 383.998 1063.05 387.146 1066.5 389.282C1069.96 391.419 1073.84 392.487 1078.16 392.487C1082.16 392.487 1085.68 391.635 1088.73 389.93C1091.8 388.203 1094.18 385.771 1095.89 382.635C1097.61 379.475 1098.48 375.76 1098.48 371.487L1101.07 372.032H1080.07V364.532H1106.66V372.032C1106.66 377.782 1105.43 382.782 1102.98 387.032C1100.55 391.282 1097.18 394.578 1092.89 396.919C1088.61 399.237 1083.71 400.396 1078.16 400.396C1071.98 400.396 1066.55 398.941 1061.86 396.032C1057.21 393.123 1053.57 388.987 1050.96 383.623C1048.36 378.26 1047.07 371.896 1047.07 364.532C1047.07 359.01 1047.81 354.044 1049.29 349.635C1050.79 345.203 1052.9 341.43 1055.63 338.316C1058.35 335.203 1061.58 332.816 1065.31 331.157C1069.04 329.498 1073.14 328.669 1077.61 328.669C1081.3 328.669 1084.73 329.225 1087.91 330.339C1091.11 331.43 1093.97 332.987 1096.47 335.01C1098.99 337.01 1101.09 339.407 1102.77 342.203C1104.46 344.975 1105.61 348.055 1106.25 351.441H1097.52ZM1140.77 399.441H1119.22V329.623H1141.72C1148.49 329.623 1154.29 331.021 1159.11 333.816C1163.93 336.589 1167.62 340.578 1170.19 345.782C1172.75 350.964 1174.04 357.169 1174.04 364.396C1174.04 371.669 1172.74 377.93 1170.15 383.18C1167.56 388.407 1163.79 392.43 1158.83 395.248C1153.88 398.044 1147.86 399.441 1140.77 399.441ZM1127.68 391.941H1140.22C1145.99 391.941 1150.78 390.828 1154.57 388.6C1158.37 386.373 1161.2 383.203 1163.06 379.089C1164.93 374.975 1165.86 370.078 1165.86 364.396C1165.86 358.76 1164.94 353.907 1163.1 349.839C1161.25 345.748 1158.5 342.612 1154.85 340.43C1151.19 338.225 1146.63 337.123 1141.18 337.123H1127.68V391.941ZM1232.12 329.623H1240.57V375.85C1240.57 380.623 1239.45 384.885 1237.2 388.635C1234.97 392.362 1231.82 395.305 1227.76 397.464C1223.69 399.6 1218.91 400.669 1213.44 400.669C1207.96 400.669 1203.19 399.6 1199.12 397.464C1195.05 395.305 1191.89 392.362 1189.64 388.635C1187.41 384.885 1186.3 380.623 1186.3 375.85V329.623H1194.76V375.169C1194.76 378.578 1195.51 381.612 1197.01 384.271C1198.51 386.907 1200.64 388.987 1203.41 390.51C1206.21 392.01 1209.55 392.76 1213.44 392.76C1217.32 392.76 1220.66 392.01 1223.46 390.51C1226.26 388.987 1228.39 386.907 1229.87 384.271C1231.37 381.612 1232.12 378.578 1232.12 375.169V329.623ZM1255.54 329.623H1265.63L1289.35 387.578H1290.17L1313.9 329.623H1323.99V399.441H1316.08V346.396H1315.4L1293.58 399.441H1285.95L1264.13 346.396H1263.45V399.441H1255.54V329.623ZM1339.02 399.441V329.623H1362.61C1368.09 329.623 1372.57 330.612 1376.05 332.589C1379.55 334.544 1382.14 337.191 1383.82 340.532C1385.5 343.873 1386.34 347.6 1386.34 351.714C1386.34 355.828 1385.5 359.566 1383.82 362.93C1382.16 366.294 1379.59 368.975 1376.11 370.975C1372.64 372.953 1368.18 373.941 1362.75 373.941H1345.84V366.441H1362.48C1366.23 366.441 1369.24 365.794 1371.51 364.498C1373.78 363.203 1375.43 361.453 1376.45 359.248C1377.5 357.021 1378.02 354.51 1378.02 351.714C1378.02 348.919 1377.5 346.419 1376.45 344.214C1375.43 342.01 1373.77 340.282 1371.48 339.032C1369.18 337.76 1366.14 337.123 1362.34 337.123H1347.48V399.441H1339.02ZM1433.89 399.441L1417.94 347.078H1426.39L1437.71 387.169H1438.26L1449.44 347.078H1458.03L1469.07 387.032H1469.62L1480.94 347.078H1489.39L1473.44 399.441H1465.53L1454.07 359.214H1453.26L1441.8 399.441H1433.89ZM1517.6 400.532C1512.87 400.532 1508.73 399.407 1505.16 397.157C1501.61 394.907 1498.84 391.76 1496.84 387.714C1494.86 383.669 1493.87 378.941 1493.87 373.532C1493.87 368.078 1494.86 363.316 1496.84 359.248C1498.84 355.18 1501.61 352.021 1505.16 349.771C1508.73 347.521 1512.87 346.396 1517.6 346.396C1522.33 346.396 1526.46 347.521 1530.01 349.771C1533.58 352.021 1536.35 355.18 1538.33 359.248C1540.33 363.316 1541.33 368.078 1541.33 373.532C1541.33 378.941 1540.33 383.669 1538.33 387.714C1536.35 391.76 1533.58 394.907 1530.01 397.157C1526.46 399.407 1522.33 400.532 1517.6 400.532ZM1517.6 393.305C1521.19 393.305 1524.15 392.385 1526.46 390.544C1528.78 388.703 1530.5 386.282 1531.61 383.282C1532.73 380.282 1533.28 377.032 1533.28 373.532C1533.28 370.032 1532.73 366.771 1531.61 363.748C1530.5 360.725 1528.78 358.282 1526.46 356.419C1524.15 354.555 1521.19 353.623 1517.6 353.623C1514.01 353.623 1511.06 354.555 1508.74 356.419C1506.42 358.282 1504.7 360.725 1503.59 363.748C1502.48 366.771 1501.92 370.032 1501.92 373.532C1501.92 377.032 1502.48 380.282 1503.59 383.282C1504.7 386.282 1506.42 388.703 1508.74 390.544C1511.06 392.385 1514.01 393.305 1517.6 393.305ZM1551.69 399.441V347.078H1559.46V354.987H1560.01C1560.96 352.396 1562.69 350.294 1565.19 348.68C1567.69 347.066 1570.51 346.26 1573.64 346.26C1574.24 346.26 1574.97 346.271 1575.86 346.294C1576.75 346.316 1577.42 346.35 1577.87 346.396V354.578C1577.6 354.51 1576.97 354.407 1576 354.271C1575.04 354.112 1574.03 354.032 1572.96 354.032C1570.42 354.032 1568.14 354.566 1566.14 355.635C1564.17 356.68 1562.6 358.135 1561.44 359.998C1560.3 361.839 1559.74 363.941 1559.74 366.305V399.441H1551.69ZM1592.99 380.35L1592.85 370.396H1594.49L1617.4 347.078H1627.35L1602.94 371.76H1602.26L1592.99 380.35ZM1585.49 399.441V329.623H1593.53V399.441H1585.49ZM1618.76 399.441L1598.31 373.532L1604.03 367.941L1628.99 399.441H1618.76ZM1672.88 358.805L1665.65 360.85C1665.2 359.646 1664.53 358.475 1663.64 357.339C1662.78 356.18 1661.59 355.225 1660.09 354.475C1658.59 353.725 1656.67 353.35 1654.33 353.35C1651.13 353.35 1648.46 354.089 1646.32 355.566C1644.21 357.021 1643.15 358.873 1643.15 361.123C1643.15 363.123 1643.88 364.703 1645.33 365.862C1646.79 367.021 1649.06 367.987 1652.15 368.76L1659.92 370.669C1664.61 371.805 1668.09 373.544 1670.39 375.885C1672.68 378.203 1673.83 381.191 1673.83 384.85C1673.83 387.85 1672.97 390.532 1671.24 392.896C1669.54 395.26 1667.15 397.123 1664.08 398.487C1661.01 399.85 1657.45 400.532 1653.38 400.532C1648.04 400.532 1643.62 399.373 1640.12 397.055C1636.62 394.737 1634.4 391.35 1633.47 386.896L1641.11 384.987C1641.83 387.805 1643.21 389.919 1645.23 391.328C1647.28 392.737 1649.95 393.441 1653.24 393.441C1656.99 393.441 1659.97 392.646 1662.17 391.055C1664.4 389.441 1665.51 387.51 1665.51 385.26C1665.51 383.441 1664.88 381.919 1663.61 380.691C1662.33 379.441 1660.38 378.51 1657.74 377.896L1649.01 375.85C1644.22 374.714 1640.7 372.953 1638.45 370.566C1636.22 368.157 1635.11 365.146 1635.11 361.532C1635.11 358.578 1635.93 355.964 1637.59 353.691C1639.28 351.419 1641.56 349.635 1644.45 348.339C1647.36 347.044 1650.65 346.396 1654.33 346.396C1659.51 346.396 1663.58 347.532 1666.54 349.805C1669.51 352.078 1671.63 355.078 1672.88 358.805Z" fill="white"/>
<path d="M88.9714 928.381V936.256H86.96V923.165H88.9032V925.21H89.0737C89.3805 924.546 89.8464 924.012 90.4714 923.608C91.0964 923.199 91.9032 922.994 92.8919 922.994C93.7782 922.994 94.5538 923.176 95.2186 923.54C95.8833 923.898 96.4004 924.443 96.7697 925.176C97.139 925.904 97.3237 926.824 97.3237 927.938V936.256H95.3123V928.074C95.3123 927.046 95.0453 926.244 94.5112 925.671C93.9771 925.091 93.2441 924.801 92.3123 924.801C91.6703 924.801 91.0964 924.941 90.5907 925.219C90.0907 925.497 89.6958 925.904 89.4061 926.438C89.1163 926.972 88.9714 927.619 88.9714 928.381ZM106.008 936.529C104.746 936.529 103.658 936.25 102.744 935.693C101.834 935.131 101.133 934.347 100.638 933.341C100.15 932.33 99.9055 931.154 99.9055 929.813C99.9055 928.472 100.15 927.29 100.638 926.267C101.133 925.239 101.82 924.438 102.701 923.864C103.587 923.284 104.621 922.994 105.803 922.994C106.485 922.994 107.158 923.108 107.823 923.335C108.488 923.563 109.093 923.932 109.638 924.443C110.184 924.949 110.619 925.619 110.942 926.455C111.266 927.29 111.428 928.318 111.428 929.54V930.392H101.337V928.654H109.383C109.383 927.915 109.235 927.256 108.94 926.676C108.65 926.097 108.235 925.639 107.695 925.304C107.161 924.969 106.53 924.801 105.803 924.801C105.002 924.801 104.309 925 103.724 925.398C103.144 925.79 102.698 926.301 102.386 926.932C102.073 927.563 101.917 928.239 101.917 928.96V930.119C101.917 931.108 102.087 931.946 102.428 932.634C102.775 933.316 103.255 933.835 103.869 934.193C104.482 934.546 105.195 934.722 106.008 934.722C106.536 934.722 107.013 934.648 107.44 934.5C107.871 934.347 108.244 934.119 108.556 933.818C108.869 933.512 109.11 933.131 109.28 932.676L111.224 933.222C111.019 933.881 110.675 934.46 110.192 934.96C109.709 935.455 109.113 935.841 108.403 936.119C107.692 936.392 106.894 936.529 106.008 936.529ZM119.326 936.529C118.144 936.529 117.107 936.247 116.215 935.685C115.329 935.122 114.636 934.335 114.136 933.324C113.641 932.313 113.394 931.131 113.394 929.779C113.394 928.415 113.641 927.225 114.136 926.208C114.636 925.191 115.329 924.401 116.215 923.838C117.107 923.276 118.144 922.994 119.326 922.994C120.508 922.994 121.542 923.276 122.428 923.838C123.32 924.401 124.014 925.191 124.508 926.208C125.008 927.225 125.258 928.415 125.258 929.779C125.258 931.131 125.008 932.313 124.508 933.324C124.014 934.335 123.32 935.122 122.428 935.685C121.542 936.247 120.508 936.529 119.326 936.529ZM119.326 934.722C120.224 934.722 120.962 934.492 121.542 934.031C122.121 933.571 122.55 932.966 122.829 932.216C123.107 931.466 123.247 930.654 123.247 929.779C123.247 928.904 123.107 928.088 122.829 927.333C122.55 926.577 122.121 925.966 121.542 925.5C120.962 925.034 120.224 924.801 119.326 924.801C118.428 924.801 117.69 925.034 117.11 925.5C116.531 925.966 116.102 926.577 115.823 927.333C115.545 928.088 115.406 928.904 115.406 929.779C115.406 930.654 115.545 931.466 115.823 932.216C116.102 932.966 116.531 933.571 117.11 934.031C117.69 934.492 118.428 934.722 119.326 934.722ZM137.121 926.097L135.314 926.608C135.2 926.307 135.033 926.014 134.811 925.73C134.595 925.441 134.3 925.202 133.925 925.014C133.55 924.827 133.07 924.733 132.485 924.733C131.683 924.733 131.016 924.918 130.482 925.287C129.953 925.651 129.689 926.114 129.689 926.676C129.689 927.176 129.871 927.571 130.235 927.861C130.598 928.151 131.166 928.392 131.939 928.585L133.882 929.063C135.053 929.347 135.925 929.781 136.499 930.367C137.073 930.946 137.36 931.693 137.36 932.608C137.36 933.358 137.144 934.029 136.712 934.619C136.286 935.21 135.689 935.676 134.922 936.017C134.155 936.358 133.263 936.529 132.246 936.529C130.911 936.529 129.806 936.239 128.931 935.659C128.056 935.08 127.502 934.233 127.269 933.119L129.178 932.642C129.36 933.347 129.703 933.875 130.209 934.227C130.72 934.58 131.388 934.756 132.212 934.756C133.149 934.756 133.894 934.557 134.445 934.159C135.002 933.756 135.28 933.273 135.28 932.71C135.28 932.256 135.121 931.875 134.803 931.568C134.485 931.256 133.996 931.023 133.337 930.869L131.155 930.358C129.956 930.074 129.075 929.634 128.513 929.037C127.956 928.435 127.678 927.682 127.678 926.779C127.678 926.04 127.885 925.387 128.3 924.818C128.72 924.25 129.291 923.804 130.013 923.48C130.74 923.156 131.564 922.994 132.485 922.994C133.78 922.994 134.797 923.279 135.536 923.847C136.28 924.415 136.808 925.165 137.121 926.097ZM141.203 941.165C140.862 941.165 140.558 941.137 140.291 941.08C140.024 941.029 139.839 940.977 139.737 940.926L140.248 939.154C140.737 939.279 141.169 939.324 141.544 939.29C141.919 939.256 142.251 939.088 142.541 938.787C142.836 938.492 143.106 938.012 143.35 937.347L143.725 936.324L138.885 923.165H141.066L144.68 933.597H144.816L148.43 923.165H150.612L145.055 938.165C144.805 938.841 144.495 939.401 144.126 939.844C143.757 940.293 143.328 940.625 142.839 940.841C142.356 941.057 141.811 941.165 141.203 941.165ZM154.798 928.381V936.256H152.787V923.165H154.73V925.21H154.9C155.207 924.546 155.673 924.012 156.298 923.608C156.923 923.199 157.73 922.994 158.718 922.994C159.605 922.994 160.38 923.176 161.045 923.54C161.71 923.898 162.227 924.443 162.596 925.176C162.966 925.904 163.15 926.824 163.15 927.938V936.256H161.139V928.074C161.139 927.046 160.872 926.244 160.338 925.671C159.804 925.091 159.071 924.801 158.139 924.801C157.497 924.801 156.923 924.941 156.417 925.219C155.917 925.497 155.522 925.904 155.233 926.438C154.943 926.972 154.798 927.619 154.798 928.381ZM171.664 936.529C170.437 936.529 169.38 936.239 168.493 935.659C167.607 935.08 166.925 934.281 166.448 933.264C165.971 932.247 165.732 931.085 165.732 929.779C165.732 928.449 165.976 927.276 166.465 926.259C166.959 925.236 167.647 924.438 168.527 923.864C169.414 923.284 170.448 922.994 171.63 922.994C172.55 922.994 173.38 923.165 174.118 923.506C174.857 923.847 175.462 924.324 175.934 924.938C176.405 925.551 176.698 926.267 176.812 927.085H174.8C174.647 926.489 174.306 925.96 173.777 925.5C173.255 925.034 172.55 924.801 171.664 924.801C170.88 924.801 170.192 925.006 169.601 925.415C169.016 925.818 168.559 926.389 168.229 927.128C167.905 927.861 167.743 928.722 167.743 929.71C167.743 930.722 167.902 931.602 168.221 932.352C168.545 933.102 168.999 933.685 169.584 934.1C170.175 934.514 170.868 934.722 171.664 934.722C172.187 934.722 172.661 934.631 173.087 934.449C173.513 934.267 173.874 934.006 174.17 933.665C174.465 933.324 174.675 932.915 174.8 932.438H176.812C176.698 933.21 176.417 933.906 175.968 934.526C175.525 935.139 174.937 935.628 174.204 935.992C173.476 936.35 172.63 936.529 171.664 936.529ZM180.738 936.392C180.317 936.392 179.957 936.242 179.655 935.941C179.354 935.639 179.204 935.279 179.204 934.858C179.204 934.438 179.354 934.077 179.655 933.776C179.957 933.475 180.317 933.324 180.738 933.324C181.158 933.324 181.519 933.475 181.82 933.776C182.121 934.077 182.272 934.438 182.272 934.858C182.272 935.137 182.201 935.392 182.059 935.625C181.922 935.858 181.738 936.046 181.505 936.188C181.278 936.324 181.022 936.392 180.738 936.392ZM190.344 936.529C189.254 936.529 188.291 936.253 187.455 935.702C186.62 935.145 185.967 934.361 185.495 933.35C185.023 932.333 184.788 931.131 184.788 929.744C184.788 928.369 185.023 927.176 185.495 926.165C185.967 925.154 186.623 924.372 187.464 923.821C188.305 923.27 189.276 922.994 190.379 922.994C191.231 922.994 191.904 923.137 192.398 923.421C192.898 923.699 193.279 924.017 193.541 924.375C193.808 924.727 194.015 925.017 194.163 925.244H194.333V918.801H196.344V936.256H194.401V934.244H194.163C194.015 934.483 193.805 934.784 193.532 935.148C193.259 935.506 192.87 935.827 192.364 936.111C191.859 936.389 191.185 936.529 190.344 936.529ZM190.617 934.722C191.424 934.722 192.106 934.512 192.663 934.091C193.219 933.665 193.643 933.077 193.933 932.327C194.222 931.571 194.367 930.699 194.367 929.71C194.367 928.733 194.225 927.878 193.941 927.145C193.657 926.406 193.237 925.833 192.68 925.423C192.123 925.009 191.435 924.801 190.617 924.801C189.765 924.801 189.055 925.02 188.487 925.458C187.924 925.889 187.501 926.477 187.217 927.222C186.938 927.96 186.799 928.79 186.799 929.71C186.799 930.642 186.941 931.489 187.225 932.25C187.515 933.006 187.941 933.608 188.504 934.057C189.072 934.5 189.776 934.722 190.617 934.722ZM205.316 936.529C204.055 936.529 202.967 936.25 202.052 935.693C201.143 935.131 200.441 934.347 199.947 933.341C199.458 932.33 199.214 931.154 199.214 929.813C199.214 928.472 199.458 927.29 199.947 926.267C200.441 925.239 201.129 924.438 202.009 923.864C202.896 923.284 203.93 922.994 205.112 922.994C205.793 922.994 206.467 923.108 207.132 923.335C207.796 923.563 208.401 923.932 208.947 924.443C209.492 924.949 209.927 925.619 210.251 926.455C210.575 927.29 210.737 928.318 210.737 929.54V930.392H200.646V928.654H208.691C208.691 927.915 208.543 927.256 208.248 926.676C207.958 926.097 207.543 925.639 207.004 925.304C206.47 924.969 205.839 924.801 205.112 924.801C204.311 924.801 203.617 925 203.032 925.398C202.453 925.79 202.007 926.301 201.694 926.932C201.382 927.563 201.225 928.239 201.225 928.96V930.119C201.225 931.108 201.396 931.946 201.737 932.634C202.083 933.316 202.563 933.835 203.177 934.193C203.791 934.546 204.504 934.722 205.316 934.722C205.845 934.722 206.322 934.648 206.748 934.5C207.18 934.347 207.552 934.119 207.864 933.818C208.177 933.512 208.418 933.131 208.589 932.676L210.532 933.222C210.328 933.881 209.984 934.46 209.501 934.96C209.018 935.455 208.421 935.841 207.711 936.119C207.001 936.392 206.203 936.529 205.316 936.529ZM223.622 923.165L218.781 936.256H216.736L211.895 923.165H214.077L217.691 933.597H217.827L221.441 923.165H223.622Z" fill="#777777"/>
<path d="M1333.12 945.182C1332.15 945.182 1331.32 945.057 1330.62 944.807C1329.92 944.562 1329.34 944.239 1328.87 943.835C1328.41 943.438 1328.05 943.011 1327.77 942.557L1329.38 941.432C1329.56 941.67 1329.79 941.943 1330.07 942.25C1330.34 942.562 1330.72 942.832 1331.21 943.06C1331.7 943.293 1332.34 943.409 1333.12 943.409C1334.18 943.409 1335.05 943.153 1335.74 942.642C1336.43 942.131 1336.77 941.33 1336.77 940.239V937.58H1336.6C1336.45 937.818 1336.24 938.114 1335.97 938.466C1335.7 938.812 1335.32 939.122 1334.81 939.395C1334.31 939.662 1333.64 939.795 1332.78 939.795C1331.73 939.795 1330.78 939.545 1329.94 939.045C1329.1 938.545 1328.44 937.818 1327.95 936.864C1327.47 935.909 1327.23 934.75 1327.23 933.386C1327.23 932.045 1327.46 930.878 1327.93 929.884C1328.41 928.884 1329.06 928.111 1329.9 927.565C1330.74 927.014 1331.72 926.739 1332.82 926.739C1333.67 926.739 1334.35 926.881 1334.85 927.165C1335.35 927.443 1335.74 927.761 1336.01 928.119C1336.28 928.472 1336.49 928.761 1336.64 928.989H1336.84V926.909H1338.78V940.375C1338.78 941.5 1338.53 942.415 1338.02 943.119C1337.51 943.83 1336.83 944.349 1335.97 944.679C1335.12 945.014 1334.17 945.182 1333.12 945.182ZM1333.06 937.989C1333.86 937.989 1334.55 937.804 1335.1 937.435C1335.66 937.065 1336.08 936.534 1336.37 935.841C1336.66 935.148 1336.81 934.318 1336.81 933.352C1336.81 932.409 1336.66 931.577 1336.38 930.855C1336.1 930.134 1335.68 929.568 1335.12 929.159C1334.56 928.75 1333.88 928.545 1333.06 928.545C1332.2 928.545 1331.49 928.761 1330.93 929.193C1330.36 929.625 1329.94 930.205 1329.66 930.932C1329.38 931.659 1329.24 932.466 1329.24 933.352C1329.24 934.261 1329.38 935.065 1329.66 935.764C1329.95 936.457 1330.38 937.003 1330.94 937.401C1331.51 937.793 1332.22 937.989 1333.06 937.989ZM1341.99 940V926.909H1344V940H1341.99ZM1343.01 924.727C1342.62 924.727 1342.28 924.594 1341.99 924.327C1341.72 924.06 1341.58 923.739 1341.58 923.364C1341.58 922.989 1341.72 922.668 1341.99 922.401C1342.28 922.134 1342.62 922 1343.01 922C1343.4 922 1343.74 922.134 1344.01 922.401C1344.3 922.668 1344.44 922.989 1344.44 923.364C1344.44 923.739 1344.3 924.06 1344.01 924.327C1343.74 924.594 1343.4 924.727 1343.01 924.727ZM1352.89 926.909V928.614H1346.11V926.909H1352.89ZM1348.09 923.773H1350.1V936.25C1350.1 936.818 1350.18 937.244 1350.35 937.528C1350.52 937.807 1350.73 937.994 1350.99 938.091C1351.26 938.182 1351.54 938.227 1351.84 938.227C1352.06 938.227 1352.24 938.216 1352.38 938.193C1352.53 938.165 1352.64 938.142 1352.72 938.125L1353.13 939.932C1353 939.983 1352.81 940.034 1352.56 940.085C1352.32 940.142 1352.01 940.17 1351.63 940.17C1351.06 940.17 1350.51 940.048 1349.96 939.804C1349.42 939.56 1348.97 939.188 1348.62 938.688C1348.26 938.188 1348.09 937.557 1348.09 936.795V923.773ZM1357.73 932.125V940H1355.72V922.545H1357.73V928.955H1357.9C1358.21 928.278 1358.67 927.741 1359.28 927.344C1359.9 926.94 1360.73 926.739 1361.76 926.739C1362.65 926.739 1363.43 926.918 1364.1 927.276C1364.77 927.628 1365.29 928.17 1365.66 928.903C1366.03 929.631 1366.22 930.557 1366.22 931.682V940H1364.21V931.818C1364.21 930.778 1363.94 929.974 1363.4 929.406C1362.87 928.832 1362.12 928.545 1361.18 928.545C1360.52 928.545 1359.93 928.685 1359.4 928.963C1358.89 929.241 1358.48 929.648 1358.18 930.182C1357.88 930.716 1357.73 931.364 1357.73 932.125ZM1377.67 934.648V926.909H1379.68V940H1377.67V937.784H1377.53C1377.23 938.449 1376.75 939.014 1376.1 939.48C1375.46 939.94 1374.64 940.17 1373.65 940.17C1372.83 940.17 1372.1 939.991 1371.47 939.634C1370.83 939.27 1370.33 938.724 1369.97 937.997C1369.6 937.264 1369.42 936.341 1369.42 935.227V926.909H1371.43V935.091C1371.43 936.045 1371.7 936.807 1372.23 937.375C1372.77 937.943 1373.46 938.227 1374.3 938.227C1374.8 938.227 1375.3 938.099 1375.82 937.844C1376.34 937.588 1376.78 937.196 1377.13 936.668C1377.49 936.139 1377.67 935.466 1377.67 934.648ZM1383.16 940V922.545H1385.17V928.989H1385.34C1385.49 928.761 1385.69 928.472 1385.95 928.119C1386.22 927.761 1386.6 927.443 1387.1 927.165C1387.6 926.881 1388.27 926.739 1389.12 926.739C1390.23 926.739 1391.2 927.014 1392.04 927.565C1392.88 928.116 1393.54 928.898 1394.01 929.909C1394.48 930.92 1394.72 932.114 1394.72 933.489C1394.72 934.875 1394.48 936.077 1394.01 937.094C1393.54 938.105 1392.88 938.889 1392.05 939.446C1391.21 939.997 1390.25 940.273 1389.16 940.273C1388.32 940.273 1387.64 940.134 1387.14 939.855C1386.63 939.571 1386.24 939.25 1385.97 938.892C1385.7 938.528 1385.49 938.227 1385.34 937.989H1385.1V940H1383.16ZM1385.14 933.455C1385.14 934.443 1385.28 935.315 1385.57 936.071C1385.86 936.821 1386.28 937.409 1386.84 937.835C1387.4 938.256 1388.08 938.466 1388.89 938.466C1389.73 938.466 1390.43 938.244 1390.99 937.801C1391.56 937.352 1391.99 936.75 1392.27 935.994C1392.56 935.233 1392.7 934.386 1392.7 933.455C1392.7 932.534 1392.56 931.705 1392.28 930.966C1392 930.222 1391.58 929.634 1391.01 929.202C1390.45 928.764 1389.74 928.545 1388.89 928.545C1388.07 928.545 1387.38 928.753 1386.82 929.168C1386.27 929.577 1385.85 930.151 1385.56 930.889C1385.28 931.622 1385.14 932.477 1385.14 933.455ZM1398.78 940.136C1398.36 940.136 1398 939.986 1397.7 939.685C1397.39 939.384 1397.24 939.023 1397.24 938.602C1397.24 938.182 1397.39 937.821 1397.7 937.52C1398 937.219 1398.36 937.068 1398.78 937.068C1399.2 937.068 1399.56 937.219 1399.86 937.52C1400.16 937.821 1400.31 938.182 1400.31 938.602C1400.31 938.881 1400.24 939.136 1400.1 939.369C1399.96 939.602 1399.78 939.79 1399.55 939.932C1399.32 940.068 1399.06 940.136 1398.78 940.136ZM1408.76 940.273C1407.53 940.273 1406.48 939.983 1405.59 939.403C1404.7 938.824 1404.02 938.026 1403.54 937.009C1403.07 935.991 1402.83 934.83 1402.83 933.523C1402.83 932.193 1403.07 931.02 1403.56 930.003C1404.06 928.98 1404.74 928.182 1405.62 927.608C1406.51 927.028 1407.54 926.739 1408.73 926.739C1409.65 926.739 1410.48 926.909 1411.21 927.25C1411.95 927.591 1412.56 928.068 1413.03 928.682C1413.5 929.295 1413.79 930.011 1413.91 930.83H1411.9C1411.74 930.233 1411.4 929.705 1410.87 929.244C1410.35 928.778 1409.65 928.545 1408.76 928.545C1407.98 928.545 1407.29 928.75 1406.7 929.159C1406.11 929.562 1405.65 930.134 1405.33 930.872C1405 931.605 1404.84 932.466 1404.84 933.455C1404.84 934.466 1405 935.347 1405.32 936.097C1405.64 936.847 1406.1 937.429 1406.68 937.844C1407.27 938.259 1407.96 938.466 1408.76 938.466C1409.28 938.466 1409.76 938.375 1410.18 938.193C1410.61 938.011 1410.97 937.75 1411.27 937.409C1411.56 937.068 1411.77 936.659 1411.9 936.182H1413.91C1413.79 936.955 1413.51 937.651 1413.06 938.27C1412.62 938.884 1412.03 939.372 1411.3 939.736C1410.57 940.094 1409.73 940.273 1408.76 940.273ZM1421.69 940.273C1420.5 940.273 1419.47 939.991 1418.58 939.429C1417.69 938.866 1417 938.08 1416.5 937.068C1416 936.057 1415.75 934.875 1415.75 933.523C1415.75 932.159 1416 930.969 1416.5 929.952C1417 928.935 1417.69 928.145 1418.58 927.582C1419.47 927.02 1420.5 926.739 1421.69 926.739C1422.87 926.739 1423.9 927.02 1424.79 927.582C1425.68 928.145 1426.37 928.935 1426.87 929.952C1427.37 930.969 1427.62 932.159 1427.62 933.523C1427.62 934.875 1427.37 936.057 1426.87 937.068C1426.37 938.08 1425.68 938.866 1424.79 939.429C1423.9 939.991 1422.87 940.273 1421.69 940.273ZM1421.69 938.466C1422.58 938.466 1423.32 938.236 1423.9 937.776C1424.48 937.315 1424.91 936.71 1425.19 935.96C1425.47 935.21 1425.61 934.398 1425.61 933.523C1425.61 932.648 1425.47 931.832 1425.19 931.077C1424.91 930.321 1424.48 929.71 1423.9 929.244C1423.32 928.778 1422.58 928.545 1421.69 928.545C1420.79 928.545 1420.05 928.778 1419.47 929.244C1418.89 929.71 1418.46 930.321 1418.18 931.077C1417.91 931.832 1417.77 932.648 1417.77 933.523C1417.77 934.398 1417.91 935.21 1418.18 935.96C1418.46 936.71 1418.89 937.315 1419.47 937.776C1420.05 938.236 1420.79 938.466 1421.69 938.466ZM1430.21 940V926.909H1432.15V928.955H1432.32C1432.59 928.256 1433.04 927.713 1433.64 927.327C1434.25 926.935 1434.98 926.739 1435.83 926.739C1436.7 926.739 1437.42 926.935 1437.99 927.327C1438.57 927.713 1439.02 928.256 1439.34 928.955H1439.48C1439.82 928.278 1440.32 927.741 1440.99 927.344C1441.66 926.94 1442.46 926.739 1443.4 926.739C1444.57 926.739 1445.53 927.105 1446.27 927.838C1447.02 928.565 1447.39 929.699 1447.39 931.239V940H1445.38V931.239C1445.38 930.273 1445.11 929.582 1444.59 929.168C1444.06 928.753 1443.44 928.545 1442.72 928.545C1441.8 928.545 1441.09 928.824 1440.58 929.381C1440.07 929.932 1439.82 930.631 1439.82 931.477V940H1437.78V931.034C1437.78 930.29 1437.54 929.69 1437.05 929.236C1436.57 928.776 1435.95 928.545 1435.19 928.545C1434.66 928.545 1434.17 928.685 1433.72 928.963C1433.27 929.241 1432.91 929.628 1432.63 930.122C1432.36 930.611 1432.22 931.176 1432.22 931.818V940H1430.21ZM1456.76 921.727L1451.13 942.625H1449.29L1454.92 921.727H1456.76ZM1460.67 932.125V940H1458.66V926.909H1460.61V928.955H1460.78C1461.08 928.29 1461.55 927.756 1462.17 927.352C1462.8 926.943 1463.61 926.739 1464.59 926.739C1465.48 926.739 1466.26 926.92 1466.92 927.284C1467.59 927.642 1468.1 928.188 1468.47 928.92C1468.84 929.648 1469.03 930.568 1469.03 931.682V940H1467.01V931.818C1467.01 930.79 1466.75 929.989 1466.21 929.415C1465.68 928.835 1464.95 928.545 1464.01 928.545C1463.37 928.545 1462.8 928.685 1462.29 928.963C1461.79 929.241 1461.4 929.648 1461.11 930.182C1460.82 930.716 1460.67 931.364 1460.67 932.125ZM1480.47 934.648V926.909H1482.48V940H1480.47V937.784H1480.34C1480.03 938.449 1479.55 939.014 1478.9 939.48C1478.26 939.94 1477.44 940.17 1476.45 940.17C1475.63 940.17 1474.9 939.991 1474.27 939.634C1473.63 939.27 1473.13 938.724 1472.77 937.997C1472.4 937.264 1472.22 936.341 1472.22 935.227V926.909H1474.23V935.091C1474.23 936.045 1474.5 936.807 1475.03 937.375C1475.57 937.943 1476.26 938.227 1477.1 938.227C1477.6 938.227 1478.11 938.099 1478.62 937.844C1479.14 937.588 1479.58 937.196 1479.93 936.668C1480.29 936.139 1480.47 935.466 1480.47 934.648ZM1491.01 940.273C1489.78 940.273 1488.72 939.983 1487.83 939.403C1486.95 938.824 1486.27 938.026 1485.79 937.009C1485.31 935.991 1485.07 934.83 1485.07 933.523C1485.07 932.193 1485.32 931.02 1485.81 930.003C1486.3 928.98 1486.99 928.182 1487.87 927.608C1488.76 927.028 1489.79 926.739 1490.97 926.739C1491.89 926.739 1492.72 926.909 1493.46 927.25C1494.2 927.591 1494.8 928.068 1495.27 928.682C1495.75 929.295 1496.04 930.011 1496.15 930.83H1494.14C1493.99 930.233 1493.65 929.705 1493.12 929.244C1492.6 928.778 1491.89 928.545 1491.01 928.545C1490.22 928.545 1489.53 928.75 1488.94 929.159C1488.36 929.562 1487.9 930.134 1487.57 930.872C1487.25 931.605 1487.08 932.466 1487.08 933.455C1487.08 934.466 1487.24 935.347 1487.56 936.097C1487.89 936.847 1488.34 937.429 1488.93 937.844C1489.52 938.259 1490.21 938.466 1491.01 938.466C1491.53 938.466 1492 938.375 1492.43 938.193C1492.85 938.011 1493.22 937.75 1493.51 937.409C1493.81 937.068 1494.02 936.659 1494.14 936.182H1496.15C1496.04 936.955 1495.76 937.651 1495.31 938.27C1494.87 938.884 1494.28 939.372 1493.54 939.736C1492.82 940.094 1491.97 940.273 1491.01 940.273ZM1500.62 922.545V940H1498.61V922.545H1500.62ZM1509.32 940.273C1508.06 940.273 1506.97 939.994 1506.05 939.438C1505.14 938.875 1504.44 938.091 1503.95 937.085C1503.46 936.074 1503.21 934.898 1503.21 933.557C1503.21 932.216 1503.46 931.034 1503.95 930.011C1504.44 928.983 1505.13 928.182 1506.01 927.608C1506.9 927.028 1507.93 926.739 1509.11 926.739C1509.79 926.739 1510.47 926.852 1511.13 927.08C1511.8 927.307 1512.4 927.676 1512.95 928.188C1513.49 928.693 1513.93 929.364 1514.25 930.199C1514.58 931.034 1514.74 932.062 1514.74 933.284V934.136H1504.65V932.398H1512.69C1512.69 931.659 1512.54 931 1512.25 930.42C1511.96 929.841 1511.54 929.384 1511 929.048C1510.47 928.713 1509.84 928.545 1509.11 928.545C1508.31 928.545 1507.62 928.744 1507.03 929.142C1506.45 929.534 1506.01 930.045 1505.69 930.676C1505.38 931.307 1505.23 931.983 1505.23 932.705V933.864C1505.23 934.852 1505.4 935.69 1505.74 936.378C1506.08 937.06 1506.56 937.58 1507.18 937.938C1507.79 938.29 1508.5 938.466 1509.32 938.466C1509.85 938.466 1510.32 938.392 1510.75 938.244C1511.18 938.091 1511.55 937.864 1511.87 937.562C1512.18 937.256 1512.42 936.875 1512.59 936.42L1514.53 936.966C1514.33 937.625 1513.98 938.205 1513.5 938.705C1513.02 939.199 1512.42 939.585 1511.71 939.864C1511 940.136 1510.2 940.273 1509.32 940.273ZM1525.57 934.648V926.909H1527.58V940H1525.57V937.784H1525.43C1525.12 938.449 1524.65 939.014 1524 939.48C1523.35 939.94 1522.53 940.17 1521.54 940.17C1520.73 940.17 1520 939.991 1519.36 939.634C1518.73 939.27 1518.23 938.724 1517.86 937.997C1517.5 937.264 1517.32 936.341 1517.32 935.227V926.909H1519.33V935.091C1519.33 936.045 1519.6 936.807 1520.13 937.375C1520.67 937.943 1521.36 938.227 1522.19 938.227C1522.69 938.227 1523.2 938.099 1523.72 937.844C1524.24 937.588 1524.68 937.196 1525.03 936.668C1525.39 936.139 1525.57 935.466 1525.57 934.648ZM1540.06 929.841L1538.25 930.352C1538.13 930.051 1537.97 929.759 1537.75 929.474C1537.53 929.185 1537.23 928.946 1536.86 928.759C1536.48 928.571 1536 928.477 1535.42 928.477C1534.62 928.477 1533.95 928.662 1533.42 929.031C1532.89 929.395 1532.62 929.858 1532.62 930.42C1532.62 930.92 1532.81 931.315 1533.17 931.605C1533.53 931.895 1534.1 932.136 1534.87 932.33L1536.82 932.807C1537.99 933.091 1538.86 933.526 1539.43 934.111C1540.01 934.69 1540.29 935.437 1540.29 936.352C1540.29 937.102 1540.08 937.773 1539.65 938.364C1539.22 938.955 1538.62 939.42 1537.86 939.761C1537.09 940.102 1536.2 940.273 1535.18 940.273C1533.84 940.273 1532.74 939.983 1531.86 939.403C1530.99 938.824 1530.44 937.977 1530.2 936.864L1532.11 936.386C1532.29 937.091 1532.64 937.619 1533.14 937.972C1533.65 938.324 1534.32 938.5 1535.15 938.5C1536.08 938.5 1536.83 938.301 1537.38 937.903C1537.94 937.5 1538.21 937.017 1538.21 936.455C1538.21 936 1538.06 935.619 1537.74 935.312C1537.42 935 1536.93 934.767 1536.27 934.614L1534.09 934.102C1532.89 933.818 1532.01 933.378 1531.45 932.781C1530.89 932.179 1530.61 931.426 1530.61 930.523C1530.61 929.784 1530.82 929.131 1531.23 928.562C1531.65 927.994 1532.23 927.548 1532.95 927.224C1533.67 926.901 1534.5 926.739 1535.42 926.739C1536.71 926.739 1537.73 927.023 1538.47 927.591C1539.21 928.159 1539.74 928.909 1540.06 929.841ZM1548.16 940.273C1546.93 940.273 1545.88 939.983 1544.99 939.403C1544.1 938.824 1543.42 938.026 1542.94 937.009C1542.47 935.991 1542.23 934.83 1542.23 933.523C1542.23 932.193 1542.47 931.02 1542.96 930.003C1543.46 928.98 1544.14 928.182 1545.02 927.608C1545.91 927.028 1546.94 926.739 1548.13 926.739C1549.05 926.739 1549.88 926.909 1550.61 927.25C1551.35 927.591 1551.96 928.068 1552.43 928.682C1552.9 929.295 1553.19 930.011 1553.31 930.83H1551.3C1551.14 930.233 1550.8 929.705 1550.27 929.244C1549.75 928.778 1549.05 928.545 1548.16 928.545C1547.38 928.545 1546.69 928.75 1546.1 929.159C1545.51 929.562 1545.05 930.134 1544.73 930.872C1544.4 931.605 1544.24 932.466 1544.24 933.455C1544.24 934.466 1544.4 935.347 1544.72 936.097C1545.04 936.847 1545.49 937.429 1546.08 937.844C1546.67 938.259 1547.36 938.466 1548.16 938.466C1548.68 938.466 1549.16 938.375 1549.58 938.193C1550.01 938.011 1550.37 937.75 1550.67 937.409C1550.96 937.068 1551.17 936.659 1551.3 936.182H1553.31C1553.19 936.955 1552.91 937.651 1552.46 938.27C1552.02 938.884 1551.43 939.372 1550.7 939.736C1549.97 940.094 1549.13 940.273 1548.16 940.273ZM1557.78 922.545V940H1555.77V922.545H1557.78ZM1566.3 940.273C1565.12 940.273 1564.08 939.991 1563.19 939.429C1562.3 938.866 1561.61 938.08 1561.11 937.068C1560.62 936.057 1560.37 934.875 1560.37 933.523C1560.37 932.159 1560.62 930.969 1561.11 929.952C1561.61 928.935 1562.3 928.145 1563.19 927.582C1564.08 927.02 1565.12 926.739 1566.3 926.739C1567.48 926.739 1568.52 927.02 1569.4 927.582C1570.3 928.145 1570.99 928.935 1571.48 929.952C1571.98 930.969 1572.23 932.159 1572.23 933.523C1572.23 934.875 1571.98 936.057 1571.48 937.068C1570.99 938.08 1570.3 938.866 1569.4 939.429C1568.52 939.991 1567.48 940.273 1566.3 940.273ZM1566.3 938.466C1567.2 938.466 1567.94 938.236 1568.52 937.776C1569.1 937.315 1569.53 936.71 1569.8 935.96C1570.08 935.21 1570.22 934.398 1570.22 933.523C1570.22 932.648 1570.08 931.832 1569.8 931.077C1569.53 930.321 1569.1 929.71 1568.52 929.244C1567.94 928.778 1567.2 928.545 1566.3 928.545C1565.4 928.545 1564.66 928.778 1564.09 929.244C1563.51 929.71 1563.08 930.321 1562.8 931.077C1562.52 931.832 1562.38 932.648 1562.38 933.523C1562.38 934.398 1562.52 935.21 1562.8 935.96C1563.08 936.71 1563.51 937.315 1564.09 937.776C1564.66 938.236 1565.4 938.466 1566.3 938.466ZM1583.07 934.648V926.909H1585.08V940H1583.07V937.784H1582.94C1582.63 938.449 1582.15 939.014 1581.51 939.48C1580.86 939.94 1580.04 940.17 1579.05 940.17C1578.23 940.17 1577.51 939.991 1576.87 939.634C1576.23 939.27 1575.73 938.724 1575.37 937.997C1575.01 937.264 1574.82 936.341 1574.82 935.227V926.909H1576.83V935.091C1576.83 936.045 1577.1 936.807 1577.64 937.375C1578.18 937.943 1578.86 938.227 1579.7 938.227C1580.2 938.227 1580.71 938.099 1581.22 937.844C1581.75 937.588 1582.18 937.196 1582.54 936.668C1582.89 936.139 1583.07 935.466 1583.07 934.648ZM1593.23 940.273C1592.14 940.273 1591.18 939.997 1590.34 939.446C1589.51 938.889 1588.85 938.105 1588.38 937.094C1587.91 936.077 1587.68 934.875 1587.68 933.489C1587.68 932.114 1587.91 930.92 1588.38 929.909C1588.85 928.898 1589.51 928.116 1590.35 927.565C1591.19 927.014 1592.16 926.739 1593.27 926.739C1594.12 926.739 1594.79 926.881 1595.29 927.165C1595.79 927.443 1596.17 927.761 1596.43 928.119C1596.69 928.472 1596.9 928.761 1597.05 928.989H1597.22V922.545H1599.23V940H1597.29V937.989H1597.05C1596.9 938.227 1596.69 938.528 1596.42 938.892C1596.15 939.25 1595.76 939.571 1595.25 939.855C1594.75 940.134 1594.07 940.273 1593.23 940.273ZM1593.5 938.466C1594.31 938.466 1594.99 938.256 1595.55 937.835C1596.11 937.409 1596.53 936.821 1596.82 936.071C1597.11 935.315 1597.25 934.443 1597.25 933.455C1597.25 932.477 1597.11 931.622 1596.83 930.889C1596.54 930.151 1596.12 929.577 1595.57 929.168C1595.01 928.753 1594.32 928.545 1593.5 928.545C1592.65 928.545 1591.94 928.764 1591.37 929.202C1590.81 929.634 1590.39 930.222 1590.1 930.966C1589.83 931.705 1589.69 932.534 1589.69 933.455C1589.69 934.386 1589.83 935.233 1590.11 935.994C1590.4 936.75 1590.83 937.352 1591.39 937.801C1591.96 938.244 1592.66 938.466 1593.5 938.466ZM1608.89 921.727L1603.26 942.625H1601.42L1607.04 921.727H1608.89ZM1612.8 932.125V940H1610.79V926.909H1612.73V928.955H1612.9C1613.21 928.29 1613.68 927.756 1614.3 927.352C1614.93 926.943 1615.73 926.739 1616.72 926.739C1617.61 926.739 1618.38 926.92 1619.05 927.284C1619.71 927.642 1620.23 928.188 1620.6 928.92C1620.97 929.648 1621.15 930.568 1621.15 931.682V940H1619.14V931.818C1619.14 930.79 1618.87 929.989 1618.34 929.415C1617.81 928.835 1617.07 928.545 1616.14 928.545C1615.5 928.545 1614.93 928.685 1614.42 928.963C1613.92 929.241 1613.53 929.648 1613.24 930.182C1612.95 930.716 1612.8 931.364 1612.8 932.125ZM1629.84 940.273C1628.58 940.273 1627.49 939.994 1626.57 939.438C1625.66 938.875 1624.96 938.091 1624.47 937.085C1623.98 936.074 1623.74 934.898 1623.74 933.557C1623.74 932.216 1623.98 931.034 1624.47 930.011C1624.96 928.983 1625.65 928.182 1626.53 927.608C1627.42 927.028 1628.45 926.739 1629.63 926.739C1630.31 926.739 1630.99 926.852 1631.65 927.08C1632.32 927.307 1632.92 927.676 1633.47 928.188C1634.01 928.693 1634.45 929.364 1634.77 930.199C1635.1 931.034 1635.26 932.062 1635.26 933.284V934.136H1625.17V932.398H1633.21C1633.21 931.659 1633.06 931 1632.77 930.42C1632.48 929.841 1632.06 929.384 1631.52 929.048C1630.99 928.713 1630.36 928.545 1629.63 928.545C1628.83 928.545 1628.14 928.744 1627.55 929.142C1626.97 929.534 1626.53 930.045 1626.22 930.676C1625.9 931.307 1625.75 931.983 1625.75 932.705V933.864C1625.75 934.852 1625.92 935.69 1626.26 936.378C1626.6 937.06 1627.08 937.58 1627.7 937.938C1628.31 938.29 1629.02 938.466 1629.84 938.466C1630.37 938.466 1630.84 938.392 1631.27 938.244C1631.7 938.091 1632.07 937.864 1632.39 937.562C1632.7 937.256 1632.94 936.875 1633.11 936.42L1635.05 936.966C1634.85 937.625 1634.5 938.205 1634.02 938.705C1633.54 939.199 1632.94 939.585 1632.23 939.864C1631.52 940.136 1630.72 940.273 1629.84 940.273ZM1643.16 940.273C1641.97 940.273 1640.94 939.991 1640.04 939.429C1639.16 938.866 1638.47 938.08 1637.97 937.068C1637.47 936.057 1637.22 934.875 1637.22 933.523C1637.22 932.159 1637.47 930.969 1637.97 929.952C1638.47 928.935 1639.16 928.145 1640.04 927.582C1640.94 927.02 1641.97 926.739 1643.16 926.739C1644.34 926.739 1645.37 927.02 1646.26 927.582C1647.15 928.145 1647.84 928.935 1648.34 929.952C1648.84 930.969 1649.09 932.159 1649.09 933.523C1649.09 934.875 1648.84 936.057 1648.34 937.068C1647.84 938.08 1647.15 938.866 1646.26 939.429C1645.37 939.991 1644.34 940.273 1643.16 940.273ZM1643.16 938.466C1644.05 938.466 1644.79 938.236 1645.37 937.776C1645.95 937.315 1646.38 936.71 1646.66 935.96C1646.94 935.21 1647.08 934.398 1647.08 933.523C1647.08 932.648 1646.94 931.832 1646.66 931.077C1646.38 930.321 1645.95 929.71 1645.37 929.244C1644.79 928.778 1644.05 928.545 1643.16 928.545C1642.26 928.545 1641.52 928.778 1640.94 929.244C1640.36 929.71 1639.93 930.321 1639.65 931.077C1639.37 931.832 1639.24 932.648 1639.24 933.523C1639.24 934.398 1639.37 935.21 1639.65 935.96C1639.93 936.71 1640.36 937.315 1640.94 937.776C1641.52 938.236 1642.26 938.466 1643.16 938.466ZM1660.95 929.841L1659.14 930.352C1659.03 930.051 1658.86 929.759 1658.64 929.474C1658.42 929.185 1658.13 928.946 1657.75 928.759C1657.38 928.571 1656.9 928.477 1656.31 928.477C1655.51 928.477 1654.85 928.662 1654.31 929.031C1653.78 929.395 1653.52 929.858 1653.52 930.42C1653.52 930.92 1653.7 931.315 1654.06 931.605C1654.43 931.895 1655 932.136 1655.77 932.33L1657.71 932.807C1658.88 933.091 1659.75 933.526 1660.33 934.111C1660.9 934.69 1661.19 935.437 1661.19 936.352C1661.19 937.102 1660.97 937.773 1660.54 938.364C1660.12 938.955 1659.52 939.42 1658.75 939.761C1657.98 940.102 1657.09 940.273 1656.08 940.273C1654.74 940.273 1653.64 939.983 1652.76 939.403C1651.89 938.824 1651.33 937.977 1651.1 936.864L1653.01 936.386C1653.19 937.091 1653.53 937.619 1654.04 937.972C1654.55 938.324 1655.22 938.5 1656.04 938.5C1656.98 938.5 1657.72 938.301 1658.27 937.903C1658.83 937.5 1659.11 937.017 1659.11 936.455C1659.11 936 1658.95 935.619 1658.63 935.312C1658.31 935 1657.83 934.767 1657.17 934.614L1654.98 934.102C1653.79 933.818 1652.91 933.378 1652.34 932.781C1651.79 932.179 1651.51 931.426 1651.51 930.523C1651.51 929.784 1651.71 929.131 1652.13 928.562C1652.55 927.994 1653.12 927.548 1653.84 927.224C1654.57 926.901 1655.39 926.739 1656.31 926.739C1657.61 926.739 1658.63 927.023 1659.37 927.591C1660.11 928.159 1660.64 928.909 1660.95 929.841ZM1665.03 944.909C1664.69 944.909 1664.39 944.881 1664.12 944.824C1663.85 944.773 1663.67 944.722 1663.57 944.67L1664.08 942.898C1664.57 943.023 1665 943.068 1665.37 943.034C1665.75 943 1666.08 942.832 1666.37 942.531C1666.67 942.236 1666.94 941.756 1667.18 941.091L1667.56 940.068L1662.71 926.909H1664.9L1668.51 937.341H1668.65L1672.26 926.909H1674.44L1668.88 941.909C1668.63 942.585 1668.32 943.145 1667.96 943.588C1667.59 944.037 1667.16 944.369 1666.67 944.585C1666.19 944.801 1665.64 944.909 1665.03 944.909ZM1678.63 932.125V940H1676.62V926.909H1678.56V928.955H1678.73C1679.04 928.29 1679.5 927.756 1680.13 927.352C1680.75 926.943 1681.56 926.739 1682.55 926.739C1683.43 926.739 1684.21 926.92 1684.87 927.284C1685.54 927.642 1686.06 928.188 1686.43 928.92C1686.8 929.648 1686.98 930.568 1686.98 931.682V940H1684.97V931.818C1684.97 930.79 1684.7 929.989 1684.17 929.415C1683.63 928.835 1682.9 928.545 1681.97 928.545C1681.33 928.545 1680.75 928.685 1680.25 928.963C1679.75 929.241 1679.35 929.648 1679.06 930.182C1678.77 930.716 1678.63 931.364 1678.63 932.125ZM1695.49 940.273C1694.27 940.273 1693.21 939.983 1692.32 939.403C1691.44 938.824 1690.75 938.026 1690.28 937.009C1689.8 935.991 1689.56 934.83 1689.56 933.523C1689.56 932.193 1689.81 931.02 1690.29 930.003C1690.79 928.98 1691.48 928.182 1692.36 927.608C1693.24 927.028 1694.28 926.739 1695.46 926.739C1696.38 926.739 1697.21 926.909 1697.95 927.25C1698.69 927.591 1699.29 928.068 1699.76 928.682C1700.23 929.295 1700.53 930.011 1700.64 930.83H1698.63C1698.48 930.233 1698.14 929.705 1697.61 929.244C1697.08 928.778 1696.38 928.545 1695.49 928.545C1694.71 928.545 1694.02 928.75 1693.43 929.159C1692.85 929.562 1692.39 930.134 1692.06 930.872C1691.73 931.605 1691.57 932.466 1691.57 933.455C1691.57 934.466 1691.73 935.347 1692.05 936.097C1692.37 936.847 1692.83 937.429 1693.41 937.844C1694 938.259 1694.7 938.466 1695.49 938.466C1696.02 938.466 1696.49 938.375 1696.92 938.193C1697.34 938.011 1697.7 937.75 1698 937.409C1698.29 937.068 1698.5 936.659 1698.63 936.182H1700.64C1700.53 936.955 1700.25 937.651 1699.8 938.27C1699.35 938.884 1698.77 939.372 1698.03 939.736C1697.31 940.094 1696.46 940.273 1695.49 940.273Z" fill="#777777"/>
<path fill-rule="evenodd" clip-rule="evenodd" d="M1270.13 913C1255.69 913 1244 924.88 1244 939.548C1244 951.296 1251.48 961.218 1261.87 964.736C1263.18 964.968 1263.67 964.172 1263.67 963.475C1263.67 962.844 1263.63 960.753 1263.63 958.53C1257.07 959.758 1255.37 956.904 1254.85 955.411C1254.55 954.647 1253.28 952.291 1252.17 951.661C1251.25 951.163 1249.95 949.935 1252.13 949.902C1254.19 949.869 1255.66 951.827 1256.15 952.623C1258.5 956.639 1262.26 955.51 1263.76 954.813C1263.99 953.088 1264.68 951.926 1265.43 951.263C1259.61 950.599 1253.54 948.309 1253.54 938.154C1253.54 935.267 1254.55 932.878 1256.22 931.02C1255.96 930.356 1255.04 927.635 1256.48 923.984C1256.48 923.984 1258.67 923.287 1263.67 926.705C1265.76 926.108 1267.98 925.809 1270.2 925.809C1272.42 925.809 1274.64 926.108 1276.73 926.705C1281.73 923.254 1283.92 923.984 1283.92 923.984C1285.36 927.635 1284.44 930.356 1284.18 931.02C1285.85 932.878 1286.86 935.234 1286.86 938.154C1286.86 948.342 1280.75 950.599 1274.94 951.263C1275.88 952.092 1276.7 953.685 1276.7 956.174C1276.7 959.725 1276.67 962.579 1276.67 963.475C1276.67 964.172 1277.16 965.001 1278.46 964.736C1283.65 962.957 1288.16 959.569 1291.35 955.051C1294.55 950.533 1296.27 945.111 1296.27 939.548C1296.27 924.88 1284.57 913 1270.13 913Z" fill="#777777"/>
</svg>
