<svg width="1792" height="1024" viewBox="0 0 1792 1024" fill="none" xmlns="http://www.w3.org/2000/svg">
<rect width="1792" height="1024" fill="#080808"/>
<path d="M202.417 165.765C206.276 165.765 208.206 165.765 209.733 165.142C211.868 164.271 213.561 162.559 214.423 160.4C215.039 158.856 215.039 156.905 215.039 153.002V153.002V127.894C215.039 119.81 215.039 115.767 212.555 113.256C210.072 110.744 206.074 110.744 198.079 110.744H182.71C170.387 110.744 164.226 110.744 161.741 114.818C159.257 118.892 162.023 124.459 167.555 135.593L178.122 156.863C179.966 160.574 177.298 164.949 173.191 164.949C171.104 164.949 169.196 163.759 168.26 161.874L147.552 120.195C145.268 115.597 144.125 113.297 142.079 112.021C140.032 110.744 137.487 110.744 132.398 110.744L127.323 110.744C119.328 110.744 115.33 110.744 112.847 113.256C110.363 115.768 110.363 119.81 110.363 127.894L110.363 152.186C110.363 156.089 110.363 158.04 109.747 159.584C108.885 161.743 107.192 163.455 105.057 164.326C103.53 164.95 101.6 164.95 97.741 164.95H97.7409C93.8819 164.95 91.9523 164.95 90.4253 165.573C88.2902 166.444 86.5972 168.156 85.7355 170.315C85.1191 171.859 85.1191 173.81 85.1191 177.713V202.821C85.1191 210.905 85.1191 214.948 87.6029 217.459C90.0866 219.971 94.0841 219.971 102.079 219.971H102.079H117.449C129.771 219.971 135.932 219.971 138.417 215.897C140.901 211.823 138.135 206.256 132.604 195.122L122.036 173.852C120.192 170.14 122.86 165.766 126.967 165.766C129.054 165.766 130.962 166.956 131.899 168.841L152.606 210.52C154.891 215.118 156.033 217.418 158.08 218.694C160.126 219.97 162.671 219.97 167.761 219.97H167.761H172.835C180.83 219.97 184.828 219.97 187.312 217.459C189.795 214.947 189.795 210.905 189.795 202.82V178.529C189.795 174.626 189.795 172.675 190.412 171.131C191.274 168.972 192.966 167.26 195.102 166.389C196.629 165.765 198.558 165.765 202.417 165.765Z" fill="white"/>
<path d="M202.417 165.765C206.276 165.765 208.206 165.765 209.733 165.142C211.868 164.271 213.561 162.559 214.423 160.4C215.039 158.856 215.039 156.905 215.039 153.002V153.002V127.894C215.039 119.81 215.039 115.767 212.555 113.256C210.072 110.744 206.074 110.744 198.079 110.744H182.71C170.387 110.744 164.226 110.744 161.741 114.818C159.257 118.892 162.023 124.459 167.555 135.593L178.122 156.863C179.966 160.574 177.298 164.949 173.191 164.949C171.104 164.949 169.196 163.759 168.26 161.874L147.552 120.195C145.268 115.597 144.125 113.297 142.079 112.021C140.032 110.744 137.487 110.744 132.398 110.744L127.323 110.744C119.328 110.744 115.33 110.744 112.847 113.256C110.363 115.768 110.363 119.81 110.363 127.894L110.363 152.186C110.363 156.089 110.363 158.04 109.747 159.584C108.885 161.743 107.192 163.455 105.057 164.326C103.53 164.95 101.6 164.95 97.741 164.95H97.7409C93.8819 164.95 91.9523 164.95 90.4253 165.573C88.2902 166.444 86.5972 168.156 85.7355 170.315C85.1191 171.859 85.1191 173.81 85.1191 177.713V202.821C85.1191 210.905 85.1191 214.948 87.6029 217.459C90.0866 219.971 94.0841 219.971 102.079 219.971H102.079H117.449C129.771 219.971 135.932 219.971 138.417 215.897C140.901 211.823 138.135 206.256 132.604 195.122L122.036 173.852C120.192 170.14 122.86 165.766 126.967 165.766C129.054 165.766 130.962 166.956 131.899 168.841L152.606 210.52C154.891 215.118 156.033 217.418 158.08 218.694C160.126 219.97 162.671 219.97 167.761 219.97H167.761H172.835C180.83 219.97 184.828 219.97 187.312 217.459C189.795 214.947 189.795 210.905 189.795 202.82V178.529C189.795 174.626 189.795 172.675 190.412 171.131C191.274 168.972 192.966 167.26 195.102 166.389C196.629 165.765 198.558 165.765 202.417 165.765Z" stroke="white"/>
<path d="M129.415 399.441V329.623H153.006C158.484 329.623 162.961 330.612 166.438 332.589C169.938 334.544 172.529 337.191 174.211 340.532C175.893 343.873 176.734 347.6 176.734 351.714C176.734 355.828 175.893 359.566 174.211 362.93C172.552 366.294 169.984 368.975 166.506 370.975C163.029 372.953 158.575 373.941 153.143 373.941H136.234V366.441H152.87C156.62 366.441 159.631 365.794 161.904 364.498C164.177 363.203 165.825 361.453 166.847 359.248C167.893 357.021 168.415 354.51 168.415 351.714C168.415 348.919 167.893 346.419 166.847 344.214C165.825 342.01 164.165 340.282 161.87 339.032C159.575 337.76 156.529 337.123 152.734 337.123H137.87V399.441H129.415ZM236.16 351.441C235.41 349.146 234.422 347.089 233.194 345.271C231.99 343.43 230.547 341.862 228.865 340.566C227.206 339.271 225.319 338.282 223.206 337.6C221.092 336.919 218.774 336.578 216.251 336.578C212.115 336.578 208.353 337.646 204.967 339.782C201.581 341.919 198.888 345.066 196.888 349.225C194.888 353.385 193.888 358.487 193.888 364.532C193.888 370.578 194.899 375.68 196.922 379.839C198.944 383.998 201.683 387.146 205.138 389.282C208.592 391.419 212.478 392.487 216.797 392.487C220.797 392.487 224.319 391.635 227.365 389.93C230.433 388.203 232.819 385.771 234.524 382.635C236.251 379.475 237.115 375.76 237.115 371.487L239.706 372.032H218.706V364.532H245.297V372.032C245.297 377.782 244.069 382.782 241.615 387.032C239.183 391.282 235.819 394.578 231.524 396.919C227.251 399.237 222.342 400.396 216.797 400.396C210.615 400.396 205.183 398.941 200.501 396.032C195.842 393.123 192.206 388.987 189.592 383.623C187.001 378.26 185.706 371.896 185.706 364.532C185.706 359.01 186.444 354.044 187.922 349.635C189.422 345.203 191.535 341.43 194.263 338.316C196.99 335.203 200.217 332.816 203.944 331.157C207.672 329.498 211.774 328.669 216.251 328.669C219.933 328.669 223.365 329.225 226.547 330.339C229.751 331.43 232.603 332.987 235.103 335.01C237.626 337.01 239.728 339.407 241.41 342.203C243.092 344.975 244.251 348.055 244.888 351.441H236.16ZM279.402 399.441H257.857V329.623H280.357C287.129 329.623 292.925 331.021 297.743 333.816C302.561 336.589 306.254 340.578 308.823 345.782C311.391 350.964 312.675 357.169 312.675 364.396C312.675 371.669 311.379 377.93 308.789 383.18C306.198 388.407 302.425 392.43 297.47 395.248C292.516 398.044 286.493 399.441 279.402 399.441ZM266.311 391.941H278.857C284.629 391.941 289.414 390.828 293.209 388.6C297.004 386.373 299.834 383.203 301.698 379.089C303.561 374.975 304.493 370.078 304.493 364.396C304.493 358.76 303.573 353.907 301.732 349.839C299.891 345.748 297.141 342.612 293.482 340.43C289.823 338.225 285.266 337.123 279.811 337.123H266.311V391.941ZM370.755 329.623H379.209V375.85C379.209 380.623 378.084 384.885 375.834 388.635C373.607 392.362 370.459 395.305 366.391 397.464C362.323 399.6 357.55 400.669 352.073 400.669C346.596 400.669 341.823 399.6 337.755 397.464C333.687 395.305 330.528 392.362 328.278 388.635C326.05 384.885 324.937 380.623 324.937 375.85V329.623H333.391V375.169C333.391 378.578 334.141 381.612 335.641 384.271C337.141 386.907 339.278 388.987 342.05 390.51C344.846 392.01 348.187 392.76 352.073 392.76C355.959 392.76 359.3 392.01 362.096 390.51C364.891 388.987 367.028 386.907 368.505 384.271C370.005 381.612 370.755 378.578 370.755 375.169V329.623ZM394.173 329.623H404.264L427.991 387.578H428.809L452.537 329.623H462.628V399.441H454.718V346.396H454.037L432.218 399.441H424.582L402.764 346.396H402.082V399.441H394.173V329.623ZM477.659 399.441V329.623H501.25C506.727 329.623 511.205 330.612 514.682 332.589C518.182 334.544 520.773 337.191 522.455 340.532C524.137 343.873 524.977 347.6 524.977 351.714C524.977 355.828 524.137 359.566 522.455 362.93C520.796 366.294 518.227 368.975 514.75 370.975C511.273 372.953 506.818 373.941 501.387 373.941H484.477V366.441H501.114C504.864 366.441 507.875 365.794 510.148 364.498C512.421 363.203 514.068 361.453 515.091 359.248C516.137 357.021 516.659 354.51 516.659 351.714C516.659 348.919 516.137 346.419 515.091 344.214C514.068 342.01 512.409 340.282 510.114 339.032C507.818 337.76 504.773 337.123 500.977 337.123H486.114V399.441H477.659ZM603.484 347.078L584.12 399.441H575.939L556.575 347.078H565.302L579.757 388.805H580.302L594.757 347.078H603.484ZM649.274 358.805L642.047 360.85C641.592 359.646 640.922 358.475 640.036 357.339C639.172 356.18 637.99 355.225 636.49 354.475C634.99 353.725 633.07 353.35 630.729 353.35C627.524 353.35 624.854 354.089 622.717 355.566C620.604 357.021 619.547 358.873 619.547 361.123C619.547 363.123 620.274 364.703 621.729 365.862C623.183 367.021 625.456 367.987 628.547 368.76L636.32 370.669C641.002 371.805 644.49 373.544 646.786 375.885C649.081 378.203 650.229 381.191 650.229 384.85C650.229 387.85 649.365 390.532 647.638 392.896C645.933 395.26 643.547 397.123 640.479 398.487C637.411 399.85 633.842 400.532 629.774 400.532C624.433 400.532 620.013 399.373 616.513 397.055C613.013 394.737 610.797 391.35 609.865 386.896L617.502 384.987C618.229 387.805 619.604 389.919 621.627 391.328C623.672 392.737 626.342 393.441 629.638 393.441C633.388 393.441 636.365 392.646 638.57 391.055C640.797 389.441 641.911 387.51 641.911 385.26C641.911 383.441 641.274 381.919 640.002 380.691C638.729 379.441 636.774 378.51 634.138 377.896L625.411 375.85C620.615 374.714 617.092 372.953 614.842 370.566C612.615 368.157 611.502 365.146 611.502 361.532C611.502 358.578 612.331 355.964 613.99 353.691C615.672 351.419 617.956 349.635 620.842 348.339C623.752 347.044 627.047 346.396 630.729 346.396C635.911 346.396 639.979 347.532 642.933 349.805C645.911 352.078 648.024 355.078 649.274 358.805ZM741.954 329.623V399.441H733.772L695.727 344.623H695.045V399.441H686.59V329.623H694.772L732.954 384.578H733.636V329.623H741.954ZM777.815 400.532C772.77 400.532 768.418 399.419 764.759 397.191C761.122 394.941 758.315 391.805 756.338 387.782C754.384 383.737 753.406 379.032 753.406 373.669C753.406 368.305 754.384 363.578 756.338 359.487C758.315 355.373 761.065 352.169 764.588 349.873C768.134 347.555 772.27 346.396 776.997 346.396C779.724 346.396 782.418 346.85 785.077 347.76C787.736 348.669 790.156 350.146 792.338 352.191C794.52 354.214 796.259 356.896 797.554 360.237C798.849 363.578 799.497 367.691 799.497 372.578V375.987H759.134V369.032H791.315C791.315 366.078 790.724 363.441 789.543 361.123C788.384 358.805 786.724 356.975 784.565 355.635C782.429 354.294 779.906 353.623 776.997 353.623C773.793 353.623 771.02 354.419 768.679 356.01C766.361 357.578 764.577 359.623 763.327 362.146C762.077 364.669 761.452 367.373 761.452 370.26V374.896C761.452 378.85 762.134 382.203 763.497 384.953C764.884 387.68 766.804 389.76 769.259 391.191C771.713 392.6 774.565 393.305 777.815 393.305C779.929 393.305 781.838 393.01 783.543 392.419C785.27 391.805 786.759 390.896 788.009 389.691C789.259 388.464 790.224 386.941 790.906 385.123L798.679 387.305C797.861 389.941 796.486 392.26 794.554 394.26C792.622 396.237 790.236 397.782 787.395 398.896C784.554 399.987 781.361 400.532 777.815 400.532ZM831.089 400.532C826.361 400.532 822.214 399.407 818.645 397.157C815.1 394.907 812.327 391.76 810.327 387.714C808.35 383.669 807.361 378.941 807.361 373.532C807.361 368.078 808.35 363.316 810.327 359.248C812.327 355.18 815.1 352.021 818.645 349.771C822.214 347.521 826.361 346.396 831.089 346.396C835.816 346.396 839.952 347.521 843.498 349.771C847.066 352.021 849.839 355.18 851.816 359.248C853.816 363.316 854.816 368.078 854.816 373.532C854.816 378.941 853.816 383.669 851.816 387.714C849.839 391.76 847.066 394.907 843.498 397.157C839.952 399.407 835.816 400.532 831.089 400.532ZM831.089 393.305C834.679 393.305 837.634 392.385 839.952 390.544C842.27 388.703 843.986 386.282 845.1 383.282C846.214 380.282 846.77 377.032 846.77 373.532C846.77 370.032 846.214 366.771 845.1 363.748C843.986 360.725 842.27 358.282 839.952 356.419C837.634 354.555 834.679 353.623 831.089 353.623C827.498 353.623 824.543 354.555 822.225 356.419C819.907 358.282 818.191 360.725 817.077 363.748C815.964 366.771 815.407 370.032 815.407 373.532C815.407 377.032 815.964 380.282 817.077 383.282C818.191 386.282 819.907 388.703 822.225 390.544C824.543 392.385 827.498 393.305 831.089 393.305ZM902.268 358.805L895.041 360.85C894.586 359.646 893.916 358.475 893.029 357.339C892.166 356.18 890.984 355.225 889.484 354.475C887.984 353.725 886.063 353.35 883.723 353.35C880.518 353.35 877.848 354.089 875.711 355.566C873.598 357.021 872.541 358.873 872.541 361.123C872.541 363.123 873.268 364.703 874.723 365.862C876.177 367.021 878.45 367.987 881.541 368.76L889.313 370.669C893.995 371.805 897.484 373.544 899.779 375.885C902.075 378.203 903.223 381.191 903.223 384.85C903.223 387.85 902.359 390.532 900.632 392.896C898.927 395.26 896.541 397.123 893.473 398.487C890.404 399.85 886.836 400.532 882.768 400.532C877.427 400.532 873.007 399.373 869.507 397.055C866.007 394.737 863.791 391.35 862.859 386.896L870.495 384.987C871.223 387.805 872.598 389.919 874.62 391.328C876.666 392.737 879.336 393.441 882.632 393.441C886.382 393.441 889.359 392.646 891.563 391.055C893.791 389.441 894.904 387.51 894.904 385.26C894.904 383.441 894.268 381.919 892.995 380.691C891.723 379.441 889.768 378.51 887.132 377.896L878.404 375.85C873.609 374.714 870.086 372.953 867.836 370.566C865.609 368.157 864.495 365.146 864.495 361.532C864.495 358.578 865.325 355.964 866.984 353.691C868.666 351.419 870.95 349.635 873.836 348.339C876.745 347.044 880.041 346.396 883.723 346.396C888.904 346.396 892.973 347.532 895.927 349.805C898.904 352.078 901.018 355.078 902.268 358.805ZM918.595 419.078C917.232 419.078 916.016 418.964 914.947 418.737C913.879 418.532 913.141 418.328 912.732 418.123L914.777 411.032C916.732 411.532 918.459 411.714 919.959 411.578C921.459 411.441 922.788 410.771 923.947 409.566C925.129 408.385 926.209 406.464 927.186 403.805L928.686 399.714L909.322 347.078H918.05L932.504 388.805H933.05L947.504 347.078H956.232L934.004 407.078C933.004 409.782 931.766 412.021 930.288 413.794C928.811 415.589 927.095 416.919 925.141 417.782C923.209 418.646 921.027 419.078 918.595 419.078ZM972.976 367.941V399.441H964.931V347.078H972.704V355.26H973.385C974.613 352.6 976.476 350.464 978.976 348.85C981.476 347.214 984.704 346.396 988.658 346.396C992.204 346.396 995.306 347.123 997.965 348.578C1000.62 350.01 1002.69 352.191 1004.17 355.123C1005.65 358.032 1006.39 361.714 1006.39 366.169V399.441H998.34V366.714C998.34 362.6 997.272 359.396 995.135 357.1C992.999 354.782 990.067 353.623 986.34 353.623C983.772 353.623 981.476 354.18 979.454 355.294C977.454 356.407 975.874 358.032 974.715 360.169C973.556 362.305 972.976 364.896 972.976 367.941ZM1040.44 400.532C1035.53 400.532 1031.3 399.373 1027.76 397.055C1024.21 394.737 1021.49 391.544 1019.58 387.475C1017.67 383.407 1016.71 378.76 1016.71 373.532C1016.71 368.214 1017.69 363.521 1019.64 359.453C1021.62 355.362 1024.37 352.169 1027.89 349.873C1031.44 347.555 1035.58 346.396 1040.3 346.396C1043.99 346.396 1047.3 347.078 1050.26 348.441C1053.21 349.805 1055.63 351.714 1057.52 354.169C1059.41 356.623 1060.58 359.487 1061.03 362.76H1052.99C1052.37 360.373 1051.01 358.26 1048.89 356.419C1046.8 354.555 1043.99 353.623 1040.44 353.623C1037.3 353.623 1034.55 354.441 1032.19 356.078C1029.85 357.691 1028.02 359.975 1026.7 362.93C1025.41 365.862 1024.76 369.305 1024.76 373.26C1024.76 377.305 1025.39 380.828 1026.67 383.828C1027.96 386.828 1029.78 389.157 1032.12 390.816C1034.49 392.475 1037.26 393.305 1040.44 393.305C1042.53 393.305 1044.43 392.941 1046.13 392.214C1047.84 391.487 1049.28 390.441 1050.46 389.078C1051.64 387.714 1052.49 386.078 1052.99 384.169H1061.03C1060.58 387.26 1059.45 390.044 1057.66 392.521C1055.88 394.975 1053.53 396.93 1050.6 398.385C1047.69 399.816 1044.3 400.532 1040.44 400.532ZM1119.27 347.078V353.896H1091.04V347.078H1119.27ZM1099.5 399.441V339.85C1099.5 336.85 1100.2 334.35 1101.61 332.35C1103.02 330.35 1104.85 328.85 1107.1 327.85C1109.35 326.85 1111.72 326.35 1114.22 326.35C1116.2 326.35 1117.82 326.51 1119.07 326.828C1120.32 327.146 1121.25 327.441 1121.86 327.714L1119.54 334.669C1119.13 334.532 1118.57 334.362 1117.84 334.157C1117.13 333.953 1116.2 333.85 1115.04 333.85C1112.38 333.85 1110.46 334.521 1109.28 335.862C1108.12 337.203 1107.54 339.169 1107.54 341.76V399.441H1099.5ZM1147.74 400.532C1143.02 400.532 1138.87 399.407 1135.3 397.157C1131.75 394.907 1128.98 391.76 1126.98 387.714C1125 383.669 1124.02 378.941 1124.02 373.532C1124.02 368.078 1125 363.316 1126.98 359.248C1128.98 355.18 1131.75 352.021 1135.3 349.771C1138.87 347.521 1143.02 346.396 1147.74 346.396C1152.47 346.396 1156.61 347.521 1160.15 349.771C1163.72 352.021 1166.49 355.18 1168.47 359.248C1170.47 363.316 1171.47 368.078 1171.47 373.532C1171.47 378.941 1170.47 383.669 1168.47 387.714C1166.49 391.76 1163.72 394.907 1160.15 397.157C1156.61 399.407 1152.47 400.532 1147.74 400.532ZM1147.74 393.305C1151.33 393.305 1154.29 392.385 1156.61 390.544C1158.92 388.703 1160.64 386.282 1161.75 383.282C1162.87 380.282 1163.42 377.032 1163.42 373.532C1163.42 370.032 1162.87 366.771 1161.75 363.748C1160.64 360.725 1158.92 358.282 1156.61 356.419C1154.29 354.555 1151.33 353.623 1147.74 353.623C1144.15 353.623 1141.2 354.555 1138.88 356.419C1136.56 358.282 1134.84 360.725 1133.73 363.748C1132.62 366.771 1132.06 370.032 1132.06 373.532C1132.06 377.032 1132.62 380.282 1133.73 383.282C1134.84 386.282 1136.56 388.703 1138.88 390.544C1141.2 392.385 1144.15 393.305 1147.74 393.305ZM1181.83 399.441V347.078H1189.6V354.987H1190.15C1191.1 352.396 1192.83 350.294 1195.33 348.68C1197.83 347.066 1200.65 346.26 1203.79 346.26C1204.38 346.26 1205.11 346.271 1206 346.294C1206.89 346.316 1207.56 346.35 1208.01 346.396V354.578C1207.74 354.51 1207.11 354.407 1206.14 354.271C1205.18 354.112 1204.17 354.032 1203.1 354.032C1200.56 354.032 1198.29 354.566 1196.29 355.635C1194.31 356.68 1192.74 358.135 1191.58 359.998C1190.44 361.839 1189.88 363.941 1189.88 366.305V399.441H1181.83ZM1241.8 399.441V329.623H1265.39C1270.87 329.623 1275.35 330.612 1278.82 332.589C1282.32 334.544 1284.91 337.191 1286.6 340.532C1288.28 343.873 1289.12 347.6 1289.12 351.714C1289.12 355.828 1288.28 359.566 1286.6 362.93C1284.94 366.294 1282.37 368.975 1278.89 370.975C1275.41 372.953 1270.96 373.941 1265.53 373.941H1248.62V366.441H1265.26C1269.01 366.441 1272.02 365.794 1274.29 364.498C1276.56 363.203 1278.21 361.453 1279.23 359.248C1280.28 357.021 1280.8 354.51 1280.8 351.714C1280.8 348.919 1280.28 346.419 1279.23 344.214C1278.21 342.01 1276.55 340.282 1274.26 339.032C1271.96 337.76 1268.91 337.123 1265.12 337.123H1250.26V399.441H1241.8ZM1320.44 400.532C1315.71 400.532 1311.56 399.407 1307.99 397.157C1304.45 394.907 1301.68 391.76 1299.68 387.714C1297.7 383.669 1296.71 378.941 1296.71 373.532C1296.71 368.078 1297.7 363.316 1299.68 359.248C1301.68 355.18 1304.45 352.021 1307.99 349.771C1311.56 347.521 1315.71 346.396 1320.44 346.396C1325.16 346.396 1329.3 347.521 1332.85 349.771C1336.41 352.021 1339.19 355.18 1341.16 359.248C1343.16 363.316 1344.16 368.078 1344.16 373.532C1344.16 378.941 1343.16 383.669 1341.16 387.714C1339.19 391.76 1336.41 394.907 1332.85 397.157C1329.3 399.407 1325.16 400.532 1320.44 400.532ZM1320.44 393.305C1324.03 393.305 1326.98 392.385 1329.3 390.544C1331.62 388.703 1333.33 386.282 1334.45 383.282C1335.56 380.282 1336.12 377.032 1336.12 373.532C1336.12 370.032 1335.56 366.771 1334.45 363.748C1333.33 360.725 1331.62 358.282 1329.3 356.419C1326.98 354.555 1324.03 353.623 1320.44 353.623C1316.85 353.623 1313.89 354.555 1311.57 356.419C1309.26 358.282 1307.54 360.725 1306.43 363.748C1305.31 366.771 1304.76 370.032 1304.76 373.532C1304.76 377.032 1305.31 380.282 1306.43 383.282C1307.54 386.282 1309.26 388.703 1311.57 390.544C1313.89 392.385 1316.85 393.305 1320.44 393.305ZM1391.62 358.805L1384.39 360.85C1383.93 359.646 1383.26 358.475 1382.38 357.339C1381.51 356.18 1380.33 355.225 1378.83 354.475C1377.33 353.725 1375.41 353.35 1373.07 353.35C1369.87 353.35 1367.2 354.089 1365.06 355.566C1362.95 357.021 1361.89 358.873 1361.89 361.123C1361.89 363.123 1362.62 364.703 1364.07 365.862C1365.53 367.021 1367.8 367.987 1370.89 368.76L1378.66 370.669C1383.34 371.805 1386.83 373.544 1389.13 375.885C1391.42 378.203 1392.57 381.191 1392.57 384.85C1392.57 387.85 1391.71 390.532 1389.98 392.896C1388.28 395.26 1385.89 397.123 1382.82 398.487C1379.75 399.85 1376.18 400.532 1372.12 400.532C1366.78 400.532 1362.36 399.373 1358.86 397.055C1355.36 394.737 1353.14 391.35 1352.21 386.896L1359.84 384.987C1360.57 387.805 1361.95 389.919 1363.97 391.328C1366.01 392.737 1368.68 393.441 1371.98 393.441C1375.73 393.441 1378.71 392.646 1380.91 391.055C1383.14 389.441 1384.25 387.51 1384.25 385.26C1384.25 383.441 1383.62 381.919 1382.34 380.691C1381.07 379.441 1379.12 378.51 1376.48 377.896L1367.75 375.85C1362.96 374.714 1359.43 372.953 1357.18 370.566C1354.96 368.157 1353.84 365.146 1353.84 361.532C1353.84 358.578 1354.67 355.964 1356.33 353.691C1358.01 351.419 1360.3 349.635 1363.18 348.339C1366.09 347.044 1369.39 346.396 1373.07 346.396C1378.25 346.396 1382.32 347.532 1385.28 349.805C1388.25 352.078 1390.37 355.078 1391.62 358.805ZM1425.53 347.078V353.896H1398.4V347.078H1425.53ZM1406.31 334.532H1414.35V384.441C1414.35 386.714 1414.68 388.419 1415.34 389.555C1416.02 390.669 1416.89 391.419 1417.93 391.805C1419 392.169 1420.13 392.35 1421.31 392.35C1422.19 392.35 1422.92 392.305 1423.49 392.214C1424.06 392.1 1424.51 392.01 1424.85 391.941L1426.49 399.169C1425.94 399.373 1425.18 399.578 1424.21 399.782C1423.23 400.01 1421.99 400.123 1420.49 400.123C1418.22 400.123 1415.99 399.635 1413.81 398.657C1411.65 397.68 1409.85 396.191 1408.42 394.191C1407.01 392.191 1406.31 389.669 1406.31 386.623V334.532ZM1456.29 420.169C1452.4 420.169 1449.06 419.669 1446.27 418.669C1443.47 417.691 1441.14 416.396 1439.28 414.782C1437.44 413.191 1435.97 411.487 1434.88 409.669L1441.29 405.169C1442.02 406.123 1442.94 407.214 1444.05 408.441C1445.17 409.691 1446.69 410.771 1448.62 411.68C1450.57 412.612 1453.13 413.078 1456.29 413.078C1460.52 413.078 1464.01 412.055 1466.76 410.01C1469.51 407.964 1470.88 404.76 1470.88 400.396V389.76H1470.2C1469.61 390.714 1468.77 391.896 1467.68 393.305C1466.61 394.691 1465.06 395.93 1463.04 397.021C1461.04 398.089 1458.34 398.623 1454.93 398.623C1450.7 398.623 1446.9 397.623 1443.54 395.623C1440.2 393.623 1437.55 390.714 1435.6 386.896C1433.67 383.078 1432.7 378.441 1432.7 372.987C1432.7 367.623 1433.64 362.953 1435.53 358.975C1437.42 354.975 1440.04 351.885 1443.4 349.703C1446.77 347.498 1450.65 346.396 1455.06 346.396C1458.47 346.396 1461.18 346.964 1463.18 348.1C1465.2 349.214 1466.75 350.487 1467.81 351.919C1468.9 353.328 1469.75 354.487 1470.34 355.396H1471.15V347.078H1478.93V400.941C1478.93 405.441 1477.9 409.1 1475.86 411.919C1473.84 414.76 1471.11 416.839 1467.68 418.157C1464.27 419.498 1460.47 420.169 1456.29 420.169ZM1456.02 391.396C1459.25 391.396 1461.97 390.657 1464.2 389.18C1466.43 387.703 1468.12 385.578 1469.28 382.805C1470.44 380.032 1471.02 376.714 1471.02 372.85C1471.02 369.078 1470.45 365.748 1469.31 362.862C1468.18 359.975 1466.5 357.714 1464.27 356.078C1462.04 354.441 1459.29 353.623 1456.02 353.623C1452.61 353.623 1449.77 354.487 1447.5 356.214C1445.25 357.941 1443.55 360.26 1442.42 363.169C1441.3 366.078 1440.75 369.305 1440.75 372.85C1440.75 376.487 1441.31 379.703 1442.45 382.498C1443.61 385.271 1445.31 387.453 1447.56 389.044C1449.84 390.612 1452.65 391.396 1456.02 391.396ZM1491.73 399.441V347.078H1499.51V354.987H1500.05C1501.01 352.396 1502.73 350.294 1505.23 348.68C1507.73 347.066 1510.55 346.26 1513.69 346.26C1514.28 346.26 1515.02 346.271 1515.91 346.294C1516.79 346.316 1517.46 346.35 1517.92 346.396V354.578C1517.64 354.51 1517.02 354.407 1516.04 354.271C1515.09 354.112 1514.08 354.032 1513.01 354.032C1510.46 354.032 1508.19 354.566 1506.19 355.635C1504.21 356.68 1502.64 358.135 1501.48 359.998C1500.35 361.839 1499.78 363.941 1499.78 366.305V399.441H1491.73ZM1545.89 400.532C1540.85 400.532 1536.5 399.419 1532.84 397.191C1529.2 394.941 1526.39 391.805 1524.42 387.782C1522.46 383.737 1521.49 379.032 1521.49 373.669C1521.49 368.305 1522.46 363.578 1524.42 359.487C1526.39 355.373 1529.14 352.169 1532.67 349.873C1536.21 347.555 1540.35 346.396 1545.08 346.396C1547.8 346.396 1550.5 346.85 1553.16 347.76C1555.81 348.669 1558.24 350.146 1560.42 352.191C1562.6 354.214 1564.34 356.896 1565.63 360.237C1566.93 363.578 1567.58 367.691 1567.58 372.578V375.987H1527.21V369.032H1559.39C1559.39 366.078 1558.8 363.441 1557.62 361.123C1556.46 358.805 1554.8 356.975 1552.64 355.635C1550.51 354.294 1547.99 353.623 1545.08 353.623C1541.87 353.623 1539.1 354.419 1536.76 356.01C1534.44 357.578 1532.66 359.623 1531.41 362.146C1530.16 364.669 1529.53 367.373 1529.53 370.26V374.896C1529.53 378.85 1530.21 382.203 1531.58 384.953C1532.96 387.68 1534.88 389.76 1537.34 391.191C1539.79 392.6 1542.64 393.305 1545.89 393.305C1548.01 393.305 1549.92 393.01 1551.62 392.419C1553.35 391.805 1554.84 390.896 1556.09 389.691C1557.34 388.464 1558.3 386.941 1558.99 385.123L1566.76 387.305C1565.94 389.941 1564.56 392.26 1562.63 394.26C1560.7 396.237 1558.31 397.782 1555.47 398.896C1552.63 399.987 1549.44 400.532 1545.89 400.532ZM1614.99 358.805L1607.76 360.85C1607.3 359.646 1606.63 358.475 1605.75 357.339C1604.88 356.18 1603.7 355.225 1602.2 354.475C1600.7 353.725 1598.78 353.35 1596.44 353.35C1593.24 353.35 1590.56 354.089 1588.43 355.566C1586.31 357.021 1585.26 358.873 1585.26 361.123C1585.26 363.123 1585.99 364.703 1587.44 365.862C1588.89 367.021 1591.17 367.987 1594.26 368.76L1602.03 370.669C1606.71 371.805 1610.2 373.544 1612.5 375.885C1614.79 378.203 1615.94 381.191 1615.94 384.85C1615.94 387.85 1615.08 390.532 1613.35 392.896C1611.64 395.26 1609.26 397.123 1606.19 398.487C1603.12 399.85 1599.55 400.532 1595.49 400.532C1590.14 400.532 1585.72 399.373 1582.22 397.055C1578.72 394.737 1576.51 391.35 1575.58 386.896L1583.21 384.987C1583.94 387.805 1585.31 389.919 1587.34 391.328C1589.38 392.737 1592.05 393.441 1595.35 393.441C1599.1 393.441 1602.08 392.646 1604.28 391.055C1606.51 389.441 1607.62 387.51 1607.62 385.26C1607.62 383.441 1606.99 381.919 1605.71 380.691C1604.44 379.441 1602.49 378.51 1599.85 377.896L1591.12 375.85C1586.33 374.714 1582.8 372.953 1580.55 370.566C1578.33 368.157 1577.21 365.146 1577.21 361.532C1577.21 358.578 1578.04 355.964 1579.7 353.691C1581.38 351.419 1583.67 349.635 1586.55 348.339C1589.46 347.044 1592.76 346.396 1596.44 346.396C1601.62 346.396 1605.69 347.532 1608.64 349.805C1611.62 352.078 1613.74 355.078 1614.99 358.805ZM148.097 516.532C143.734 516.532 139.881 515.43 136.54 513.225C133.2 510.998 130.586 507.862 128.7 503.816C126.813 499.748 125.87 494.941 125.87 489.396C125.87 483.896 126.813 479.123 128.7 475.078C130.586 471.032 133.211 467.907 136.575 465.703C139.938 463.498 143.825 462.396 148.234 462.396C151.643 462.396 154.336 462.964 156.313 464.1C158.313 465.214 159.836 466.487 160.881 467.919C161.95 469.328 162.779 470.487 163.37 471.396H164.052V445.623H172.097V515.441H164.325V507.396H163.37C162.779 508.35 161.938 509.555 160.847 511.01C159.756 512.441 158.2 513.725 156.177 514.862C154.154 515.975 151.461 516.532 148.097 516.532ZM149.188 509.305C152.415 509.305 155.143 508.464 157.37 506.782C159.597 505.078 161.29 502.725 162.45 499.725C163.609 496.703 164.188 493.214 164.188 489.26C164.188 485.35 163.62 481.93 162.484 478.998C161.347 476.044 159.665 473.748 157.438 472.112C155.211 470.453 152.461 469.623 149.188 469.623C145.779 469.623 142.938 470.498 140.665 472.248C138.415 473.975 136.722 476.328 135.586 479.305C134.472 482.26 133.915 485.578 133.915 489.26C133.915 492.987 134.484 496.373 135.62 499.419C136.779 502.441 138.484 504.85 140.734 506.646C143.006 508.419 145.825 509.305 149.188 509.305ZM201.439 516.669C198.12 516.669 195.109 516.044 192.405 514.794C189.7 513.521 187.552 511.691 185.961 509.305C184.37 506.896 183.575 503.987 183.575 500.578C183.575 497.578 184.166 495.146 185.348 493.282C186.53 491.396 188.109 489.919 190.086 488.85C192.064 487.782 194.245 486.987 196.632 486.464C199.041 485.919 201.461 485.487 203.893 485.169C207.075 484.76 209.655 484.453 211.632 484.248C213.632 484.021 215.086 483.646 215.995 483.123C216.927 482.6 217.393 481.691 217.393 480.396V480.123C217.393 476.76 216.473 474.146 214.632 472.282C212.814 470.419 210.052 469.487 206.348 469.487C202.507 469.487 199.495 470.328 197.314 472.01C195.132 473.691 193.598 475.487 192.711 477.396L185.075 474.669C186.439 471.487 188.257 469.01 190.53 467.237C192.825 465.441 195.325 464.191 198.03 463.487C200.757 462.76 203.439 462.396 206.075 462.396C207.757 462.396 209.689 462.6 211.87 463.01C214.075 463.396 216.2 464.203 218.245 465.43C220.314 466.657 222.03 468.51 223.393 470.987C224.757 473.464 225.439 476.782 225.439 480.941V515.441H217.393V508.35H216.984C216.439 509.487 215.53 510.703 214.257 511.998C212.984 513.294 211.291 514.396 209.177 515.305C207.064 516.214 204.484 516.669 201.439 516.669ZM202.666 509.441C205.848 509.441 208.53 508.816 210.711 507.566C212.916 506.316 214.575 504.703 215.689 502.725C216.825 500.748 217.393 498.669 217.393 496.487V489.123C217.052 489.532 216.302 489.907 215.143 490.248C214.007 490.566 212.689 490.85 211.189 491.1C209.711 491.328 208.268 491.532 206.859 491.714C205.473 491.873 204.348 492.01 203.484 492.123C201.393 492.396 199.439 492.839 197.62 493.453C195.825 494.044 194.37 494.941 193.257 496.146C192.166 497.328 191.62 498.941 191.62 500.987C191.62 503.782 192.655 505.896 194.723 507.328C196.814 508.737 199.461 509.441 202.666 509.441ZM260.976 463.078V469.896H233.84V463.078H260.976ZM241.749 450.532H249.794V500.441C249.794 502.714 250.124 504.419 250.783 505.555C251.465 506.669 252.328 507.419 253.374 507.805C254.442 508.169 255.567 508.35 256.749 508.35C257.635 508.35 258.362 508.305 258.931 508.214C259.499 508.1 259.953 508.01 260.294 507.941L261.931 515.169C261.385 515.373 260.624 515.578 259.647 515.782C258.669 516.01 257.431 516.123 255.931 516.123C253.658 516.123 251.431 515.635 249.249 514.657C247.09 513.68 245.294 512.191 243.862 510.191C242.453 508.191 241.749 505.669 241.749 502.623V450.532ZM286.567 516.669C283.249 516.669 280.238 516.044 277.533 514.794C274.829 513.521 272.681 511.691 271.09 509.305C269.499 506.896 268.704 503.987 268.704 500.578C268.704 497.578 269.295 495.146 270.477 493.282C271.658 491.396 273.238 489.919 275.215 488.85C277.192 487.782 279.374 486.987 281.761 486.464C284.17 485.919 286.59 485.487 289.022 485.169C292.204 484.76 294.783 484.453 296.761 484.248C298.761 484.021 300.215 483.646 301.124 483.123C302.056 482.6 302.522 481.691 302.522 480.396V480.123C302.522 476.76 301.602 474.146 299.761 472.282C297.942 470.419 295.181 469.487 291.477 469.487C287.636 469.487 284.624 470.328 282.442 472.01C280.261 473.691 278.727 475.487 277.84 477.396L270.204 474.669C271.567 471.487 273.386 469.01 275.658 467.237C277.954 465.441 280.454 464.191 283.158 463.487C285.886 462.76 288.567 462.396 291.204 462.396C292.886 462.396 294.817 462.6 296.999 463.01C299.204 463.396 301.329 464.203 303.374 465.43C305.442 466.657 307.158 468.51 308.522 470.987C309.886 473.464 310.567 476.782 310.567 480.941V515.441H302.522V508.35H302.113C301.567 509.487 300.658 510.703 299.386 511.998C298.113 513.294 296.42 514.396 294.306 515.305C292.192 516.214 289.613 516.669 286.567 516.669ZM287.795 509.441C290.977 509.441 293.658 508.816 295.84 507.566C298.045 506.316 299.704 504.703 300.817 502.725C301.954 500.748 302.522 498.669 302.522 496.487V489.123C302.181 489.532 301.431 489.907 300.272 490.248C299.136 490.566 297.817 490.85 296.317 491.1C294.84 491.328 293.397 491.532 291.988 491.714C290.602 491.873 289.477 492.01 288.613 492.123C286.522 492.396 284.567 492.839 282.749 493.453C280.954 494.044 279.499 494.941 278.386 496.146C277.295 497.328 276.749 498.941 276.749 500.987C276.749 503.782 277.783 505.896 279.852 507.328C281.942 508.737 284.59 509.441 287.795 509.441ZM348.412 515.441V463.078H356.185V471.26H356.867C357.958 468.464 359.719 466.294 362.151 464.748C364.583 463.18 367.503 462.396 370.912 462.396C374.367 462.396 377.242 463.18 379.537 464.748C381.855 466.294 383.662 468.464 384.958 471.26H385.503C386.844 468.555 388.855 466.407 391.537 464.816C394.219 463.203 397.435 462.396 401.185 462.396C405.867 462.396 409.696 463.862 412.673 466.794C415.651 469.703 417.139 474.237 417.139 480.396V515.441H409.094V480.396C409.094 476.532 408.037 473.771 405.923 472.112C403.81 470.453 401.321 469.623 398.458 469.623C394.776 469.623 391.923 470.737 389.901 472.964C387.878 475.169 386.867 477.964 386.867 481.35V515.441H378.685V479.578C378.685 476.6 377.719 474.203 375.787 472.385C373.855 470.544 371.367 469.623 368.321 469.623C366.23 469.623 364.276 470.18 362.458 471.294C360.662 472.407 359.208 473.953 358.094 475.93C357.003 477.885 356.458 480.146 356.458 482.714V515.441H348.412ZM429.93 515.441V463.078H437.975V515.441H429.93ZM434.02 454.35C432.452 454.35 431.1 453.816 429.964 452.748C428.85 451.68 428.293 450.396 428.293 448.896C428.293 447.396 428.85 446.112 429.964 445.044C431.1 443.975 432.452 443.441 434.02 443.441C435.589 443.441 436.93 443.975 438.043 445.044C439.18 446.112 439.748 447.396 439.748 448.896C439.748 450.396 439.18 451.68 438.043 452.748C436.93 453.816 435.589 454.35 434.02 454.35ZM471.927 536.169C468.041 536.169 464.7 535.669 461.904 534.669C459.109 533.691 456.779 532.396 454.916 530.782C453.075 529.191 451.609 527.487 450.518 525.669L456.927 521.169C457.654 522.123 458.575 523.214 459.689 524.441C460.802 525.691 462.325 526.771 464.257 527.68C466.211 528.612 468.768 529.078 471.927 529.078C476.154 529.078 479.643 528.055 482.393 526.01C485.143 523.964 486.518 520.76 486.518 516.396V505.76H485.836C485.245 506.714 484.404 507.896 483.314 509.305C482.245 510.691 480.7 511.93 478.677 513.021C476.677 514.089 473.973 514.623 470.564 514.623C466.336 514.623 462.541 513.623 459.177 511.623C455.836 509.623 453.189 506.714 451.234 502.896C449.302 499.078 448.336 494.441 448.336 488.987C448.336 483.623 449.279 478.953 451.166 474.975C453.052 470.975 455.677 467.885 459.041 465.703C462.404 463.498 466.291 462.396 470.7 462.396C474.109 462.396 476.814 462.964 478.814 464.1C480.836 465.214 482.382 466.487 483.45 467.919C484.541 469.328 485.382 470.487 485.973 471.396H486.791V463.078H494.564V516.941C494.564 521.441 493.541 525.1 491.495 527.919C489.473 530.76 486.745 532.839 483.314 534.157C479.904 535.498 476.109 536.169 471.927 536.169ZM471.654 507.396C474.882 507.396 477.609 506.657 479.836 505.18C482.064 503.703 483.757 501.578 484.916 498.805C486.075 496.032 486.654 492.714 486.654 488.85C486.654 485.078 486.086 481.748 484.95 478.862C483.814 475.975 482.132 473.714 479.904 472.078C477.677 470.441 474.927 469.623 471.654 469.623C468.245 469.623 465.404 470.487 463.132 472.214C460.882 473.941 459.189 476.26 458.052 479.169C456.939 482.078 456.382 485.305 456.382 488.85C456.382 492.487 456.95 495.703 458.086 498.498C459.245 501.271 460.95 503.453 463.2 505.044C465.473 506.612 468.291 507.396 471.654 507.396ZM507.371 515.441V463.078H515.144V470.987H515.689C516.644 468.396 518.371 466.294 520.871 464.68C523.371 463.066 526.189 462.26 529.325 462.26C529.916 462.26 530.655 462.271 531.541 462.294C532.428 462.316 533.098 462.35 533.553 462.396V470.578C533.28 470.51 532.655 470.407 531.678 470.271C530.723 470.112 529.712 470.032 528.644 470.032C526.098 470.032 523.825 470.566 521.825 471.635C519.848 472.68 518.28 474.135 517.121 475.998C515.984 477.839 515.416 479.941 515.416 482.305V515.441H507.371ZM556.579 516.669C553.26 516.669 550.249 516.044 547.545 514.794C544.84 513.521 542.692 511.691 541.101 509.305C539.51 506.896 538.715 503.987 538.715 500.578C538.715 497.578 539.306 495.146 540.488 493.282C541.67 491.396 543.249 489.919 545.226 488.85C547.204 487.782 549.385 486.987 551.772 486.464C554.181 485.919 556.601 485.487 559.033 485.169C562.215 484.76 564.795 484.453 566.772 484.248C568.772 484.021 570.226 483.646 571.135 483.123C572.067 482.6 572.533 481.691 572.533 480.396V480.123C572.533 476.76 571.613 474.146 569.772 472.282C567.954 470.419 565.192 469.487 561.488 469.487C557.647 469.487 554.635 470.328 552.454 472.01C550.272 473.691 548.738 475.487 547.851 477.396L540.215 474.669C541.579 471.487 543.397 469.01 545.67 467.237C547.965 465.441 550.465 464.191 553.17 463.487C555.897 462.76 558.579 462.396 561.215 462.396C562.897 462.396 564.829 462.6 567.01 463.01C569.215 463.396 571.34 464.203 573.385 465.43C575.454 466.657 577.17 468.51 578.533 470.987C579.897 473.464 580.579 476.782 580.579 480.941V515.441H572.533V508.35H572.124C571.579 509.487 570.67 510.703 569.397 511.998C568.124 513.294 566.431 514.396 564.317 515.305C562.204 516.214 559.624 516.669 556.579 516.669ZM557.806 509.441C560.988 509.441 563.67 508.816 565.851 507.566C568.056 506.316 569.715 504.703 570.829 502.725C571.965 500.748 572.533 498.669 572.533 496.487V489.123C572.192 489.532 571.442 489.907 570.283 490.248C569.147 490.566 567.829 490.85 566.329 491.1C564.851 491.328 563.408 491.532 561.999 491.714C560.613 491.873 559.488 492.01 558.624 492.123C556.533 492.396 554.579 492.839 552.76 493.453C550.965 494.044 549.51 494.941 548.397 496.146C547.306 497.328 546.76 498.941 546.76 500.987C546.76 503.782 547.795 505.896 549.863 507.328C551.954 508.737 554.601 509.441 557.806 509.441ZM616.116 463.078V469.896H588.98V463.078H616.116ZM596.889 450.532H604.934V500.441C604.934 502.714 605.264 504.419 605.923 505.555C606.605 506.669 607.468 507.419 608.514 507.805C609.582 508.169 610.707 508.35 611.889 508.35C612.775 508.35 613.502 508.305 614.071 508.214C614.639 508.1 615.093 508.01 615.434 507.941L617.071 515.169C616.525 515.373 615.764 515.578 614.786 515.782C613.809 516.01 612.571 516.123 611.071 516.123C608.798 516.123 606.571 515.635 604.389 514.657C602.23 513.68 600.434 512.191 599.002 510.191C597.593 508.191 596.889 505.669 596.889 502.623V450.532ZM626.298 515.441V463.078H634.344V515.441H626.298ZM630.389 454.35C628.821 454.35 627.469 453.816 626.332 452.748C625.219 451.68 624.662 450.396 624.662 448.896C624.662 447.396 625.219 446.112 626.332 445.044C627.469 443.975 628.821 443.441 630.389 443.441C631.957 443.441 633.298 443.975 634.412 445.044C635.548 446.112 636.117 447.396 636.117 448.896C636.117 450.396 635.548 451.68 634.412 452.748C633.298 453.816 631.957 454.35 630.389 454.35ZM668.432 516.532C663.705 516.532 659.557 515.407 655.989 513.157C652.444 510.907 649.671 507.76 647.671 503.714C645.694 499.669 644.705 494.941 644.705 489.532C644.705 484.078 645.694 479.316 647.671 475.248C649.671 471.18 652.444 468.021 655.989 465.771C659.557 463.521 663.705 462.396 668.432 462.396C673.16 462.396 677.296 463.521 680.841 465.771C684.41 468.021 687.182 471.18 689.16 475.248C691.16 479.316 692.16 484.078 692.16 489.532C692.16 494.941 691.16 499.669 689.16 503.714C687.182 507.76 684.41 510.907 680.841 513.157C677.296 515.407 673.16 516.532 668.432 516.532ZM668.432 509.305C672.023 509.305 674.978 508.385 677.296 506.544C679.614 504.703 681.33 502.282 682.444 499.282C683.557 496.282 684.114 493.032 684.114 489.532C684.114 486.032 683.557 482.771 682.444 479.748C681.33 476.725 679.614 474.282 677.296 472.419C674.978 470.555 672.023 469.623 668.432 469.623C664.841 469.623 661.887 470.555 659.569 472.419C657.251 474.282 655.535 476.725 654.421 479.748C653.307 482.771 652.751 486.032 652.751 489.532C652.751 493.032 653.307 496.282 654.421 499.282C655.535 502.282 657.251 504.703 659.569 506.544C661.887 508.385 664.841 509.305 668.432 509.305ZM710.566 483.941V515.441H702.521V463.078H710.294V471.26H710.975C712.203 468.6 714.066 466.464 716.566 464.85C719.066 463.214 722.294 462.396 726.248 462.396C729.794 462.396 732.896 463.123 735.555 464.578C738.214 466.01 740.282 468.191 741.759 471.123C743.237 474.032 743.975 477.714 743.975 482.169V515.441H735.93V482.714C735.93 478.6 734.862 475.396 732.725 473.1C730.589 470.782 727.657 469.623 723.93 469.623C721.362 469.623 719.066 470.18 717.044 471.294C715.044 472.407 713.464 474.032 712.305 476.169C711.146 478.305 710.566 480.896 710.566 483.941ZM793.848 474.805L786.621 476.85C786.166 475.646 785.496 474.475 784.609 473.339C783.746 472.18 782.564 471.225 781.064 470.475C779.564 469.725 777.643 469.35 775.303 469.35C772.098 469.35 769.428 470.089 767.291 471.566C765.178 473.021 764.121 474.873 764.121 477.123C764.121 479.123 764.848 480.703 766.303 481.862C767.757 483.021 770.03 483.987 773.121 484.76L780.893 486.669C785.575 487.805 789.064 489.544 791.359 491.885C793.655 494.203 794.803 497.191 794.803 500.85C794.803 503.85 793.939 506.532 792.212 508.896C790.507 511.26 788.121 513.123 785.053 514.487C781.984 515.85 778.416 516.532 774.348 516.532C769.007 516.532 764.587 515.373 761.087 513.055C757.587 510.737 755.371 507.35 754.439 502.896L762.075 500.987C762.803 503.805 764.178 505.919 766.2 507.328C768.246 508.737 770.916 509.441 774.212 509.441C777.962 509.441 780.939 508.646 783.143 507.055C785.371 505.441 786.484 503.51 786.484 501.26C786.484 499.441 785.848 497.919 784.575 496.691C783.303 495.441 781.348 494.51 778.712 493.896L769.984 491.85C765.189 490.714 761.666 488.953 759.416 486.566C757.189 484.157 756.075 481.146 756.075 477.532C756.075 474.578 756.905 471.964 758.564 469.691C760.246 467.419 762.53 465.635 765.416 464.339C768.325 463.044 771.621 462.396 775.303 462.396C780.484 462.396 784.553 463.532 787.507 465.805C790.484 468.078 792.598 471.078 793.848 474.805Z" fill="white"/>
<path d="M88.9714 928.381V936.256H86.96V923.165H88.9032V925.21H89.0737C89.3805 924.546 89.8464 924.012 90.4714 923.608C91.0964 923.199 91.9032 922.994 92.8919 922.994C93.7782 922.994 94.5538 923.176 95.2186 923.54C95.8833 923.898 96.4004 924.443 96.7697 925.176C97.139 925.904 97.3237 926.824 97.3237 927.938V936.256H95.3123V928.074C95.3123 927.046 95.0453 926.244 94.5112 925.671C93.9771 925.091 93.2441 924.801 92.3123 924.801C91.6703 924.801 91.0964 924.941 90.5907 925.219C90.0907 925.497 89.6958 925.904 89.4061 926.438C89.1163 926.972 88.9714 927.619 88.9714 928.381ZM106.008 936.529C104.746 936.529 103.658 936.25 102.744 935.693C101.834 935.131 101.133 934.347 100.638 933.341C100.15 932.33 99.9055 931.154 99.9055 929.813C99.9055 928.472 100.15 927.29 100.638 926.267C101.133 925.239 101.82 924.438 102.701 923.864C103.587 923.284 104.621 922.994 105.803 922.994C106.485 922.994 107.158 923.108 107.823 923.335C108.488 923.563 109.093 923.932 109.638 924.443C110.184 924.949 110.619 925.619 110.942 926.455C111.266 927.29 111.428 928.318 111.428 929.54V930.392H101.337V928.654H109.383C109.383 927.915 109.235 927.256 108.94 926.676C108.65 926.097 108.235 925.639 107.695 925.304C107.161 924.969 106.53 924.801 105.803 924.801C105.002 924.801 104.309 925 103.724 925.398C103.144 925.79 102.698 926.301 102.386 926.932C102.073 927.563 101.917 928.239 101.917 928.96V930.119C101.917 931.108 102.087 931.946 102.428 932.634C102.775 933.316 103.255 933.835 103.869 934.193C104.482 934.546 105.195 934.722 106.008 934.722C106.536 934.722 107.013 934.648 107.44 934.5C107.871 934.347 108.244 934.119 108.556 933.818C108.869 933.512 109.11 933.131 109.28 932.676L111.224 933.222C111.019 933.881 110.675 934.46 110.192 934.96C109.709 935.455 109.113 935.841 108.403 936.119C107.692 936.392 106.894 936.529 106.008 936.529ZM119.326 936.529C118.144 936.529 117.107 936.247 116.215 935.685C115.329 935.122 114.636 934.335 114.136 933.324C113.641 932.313 113.394 931.131 113.394 929.779C113.394 928.415 113.641 927.225 114.136 926.208C114.636 925.191 115.329 924.401 116.215 923.838C117.107 923.276 118.144 922.994 119.326 922.994C120.508 922.994 121.542 923.276 122.428 923.838C123.32 924.401 124.014 925.191 124.508 926.208C125.008 927.225 125.258 928.415 125.258 929.779C125.258 931.131 125.008 932.313 124.508 933.324C124.014 934.335 123.32 935.122 122.428 935.685C121.542 936.247 120.508 936.529 119.326 936.529ZM119.326 934.722C120.224 934.722 120.962 934.492 121.542 934.031C122.121 933.571 122.55 932.966 122.829 932.216C123.107 931.466 123.247 930.654 123.247 929.779C123.247 928.904 123.107 928.088 122.829 927.333C122.55 926.577 122.121 925.966 121.542 925.5C120.962 925.034 120.224 924.801 119.326 924.801C118.428 924.801 117.69 925.034 117.11 925.5C116.531 925.966 116.102 926.577 115.823 927.333C115.545 928.088 115.406 928.904 115.406 929.779C115.406 930.654 115.545 931.466 115.823 932.216C116.102 932.966 116.531 933.571 117.11 934.031C117.69 934.492 118.428 934.722 119.326 934.722ZM137.121 926.097L135.314 926.608C135.2 926.307 135.033 926.014 134.811 925.73C134.595 925.441 134.3 925.202 133.925 925.014C133.55 924.827 133.07 924.733 132.485 924.733C131.683 924.733 131.016 924.918 130.482 925.287C129.953 925.651 129.689 926.114 129.689 926.676C129.689 927.176 129.871 927.571 130.235 927.861C130.598 928.151 131.166 928.392 131.939 928.585L133.882 929.063C135.053 929.347 135.925 929.781 136.499 930.367C137.073 930.946 137.36 931.693 137.36 932.608C137.36 933.358 137.144 934.029 136.712 934.619C136.286 935.21 135.689 935.676 134.922 936.017C134.155 936.358 133.263 936.529 132.246 936.529C130.911 936.529 129.806 936.239 128.931 935.659C128.056 935.08 127.502 934.233 127.269 933.119L129.178 932.642C129.36 933.347 129.703 933.875 130.209 934.227C130.72 934.58 131.388 934.756 132.212 934.756C133.149 934.756 133.894 934.557 134.445 934.159C135.002 933.756 135.28 933.273 135.28 932.71C135.28 932.256 135.121 931.875 134.803 931.568C134.485 931.256 133.996 931.023 133.337 930.869L131.155 930.358C129.956 930.074 129.075 929.634 128.513 929.037C127.956 928.435 127.678 927.682 127.678 926.779C127.678 926.04 127.885 925.387 128.3 924.818C128.72 924.25 129.291 923.804 130.013 923.48C130.74 923.156 131.564 922.994 132.485 922.994C133.78 922.994 134.797 923.279 135.536 923.847C136.28 924.415 136.808 925.165 137.121 926.097ZM141.203 941.165C140.862 941.165 140.558 941.137 140.291 941.08C140.024 941.029 139.839 940.977 139.737 940.926L140.248 939.154C140.737 939.279 141.169 939.324 141.544 939.29C141.919 939.256 142.251 939.088 142.541 938.787C142.836 938.492 143.106 938.012 143.35 937.347L143.725 936.324L138.885 923.165H141.066L144.68 933.597H144.816L148.43 923.165H150.612L145.055 938.165C144.805 938.841 144.495 939.401 144.126 939.844C143.757 940.293 143.328 940.625 142.839 940.841C142.356 941.057 141.811 941.165 141.203 941.165ZM154.798 928.381V936.256H152.787V923.165H154.73V925.21H154.9C155.207 924.546 155.673 924.012 156.298 923.608C156.923 923.199 157.73 922.994 158.718 922.994C159.605 922.994 160.38 923.176 161.045 923.54C161.71 923.898 162.227 924.443 162.596 925.176C162.966 925.904 163.15 926.824 163.15 927.938V936.256H161.139V928.074C161.139 927.046 160.872 926.244 160.338 925.671C159.804 925.091 159.071 924.801 158.139 924.801C157.497 924.801 156.923 924.941 156.417 925.219C155.917 925.497 155.522 925.904 155.233 926.438C154.943 926.972 154.798 927.619 154.798 928.381ZM171.664 936.529C170.437 936.529 169.38 936.239 168.493 935.659C167.607 935.08 166.925 934.281 166.448 933.264C165.971 932.247 165.732 931.085 165.732 929.779C165.732 928.449 165.976 927.276 166.465 926.259C166.959 925.236 167.647 924.438 168.527 923.864C169.414 923.284 170.448 922.994 171.63 922.994C172.55 922.994 173.38 923.165 174.118 923.506C174.857 923.847 175.462 924.324 175.934 924.938C176.405 925.551 176.698 926.267 176.812 927.085H174.8C174.647 926.489 174.306 925.96 173.777 925.5C173.255 925.034 172.55 924.801 171.664 924.801C170.88 924.801 170.192 925.006 169.601 925.415C169.016 925.818 168.559 926.389 168.229 927.128C167.905 927.861 167.743 928.722 167.743 929.71C167.743 930.722 167.902 931.602 168.221 932.352C168.545 933.102 168.999 933.685 169.584 934.1C170.175 934.514 170.868 934.722 171.664 934.722C172.187 934.722 172.661 934.631 173.087 934.449C173.513 934.267 173.874 934.006 174.17 933.665C174.465 933.324 174.675 932.915 174.8 932.438H176.812C176.698 933.21 176.417 933.906 175.968 934.526C175.525 935.139 174.937 935.628 174.204 935.992C173.476 936.35 172.63 936.529 171.664 936.529ZM180.738 936.392C180.317 936.392 179.957 936.242 179.655 935.941C179.354 935.639 179.204 935.279 179.204 934.858C179.204 934.438 179.354 934.077 179.655 933.776C179.957 933.475 180.317 933.324 180.738 933.324C181.158 933.324 181.519 933.475 181.82 933.776C182.121 934.077 182.272 934.438 182.272 934.858C182.272 935.137 182.201 935.392 182.059 935.625C181.922 935.858 181.738 936.046 181.505 936.188C181.278 936.324 181.022 936.392 180.738 936.392ZM190.344 936.529C189.254 936.529 188.291 936.253 187.455 935.702C186.62 935.145 185.967 934.361 185.495 933.35C185.023 932.333 184.788 931.131 184.788 929.744C184.788 928.369 185.023 927.176 185.495 926.165C185.967 925.154 186.623 924.372 187.464 923.821C188.305 923.27 189.276 922.994 190.379 922.994C191.231 922.994 191.904 923.137 192.398 923.421C192.898 923.699 193.279 924.017 193.541 924.375C193.808 924.727 194.015 925.017 194.163 925.244H194.333V918.801H196.344V936.256H194.401V934.244H194.163C194.015 934.483 193.805 934.784 193.532 935.148C193.259 935.506 192.87 935.827 192.364 936.111C191.859 936.389 191.185 936.529 190.344 936.529ZM190.617 934.722C191.424 934.722 192.106 934.512 192.663 934.091C193.219 933.665 193.643 933.077 193.933 932.327C194.222 931.571 194.367 930.699 194.367 929.71C194.367 928.733 194.225 927.878 193.941 927.145C193.657 926.406 193.237 925.833 192.68 925.423C192.123 925.009 191.435 924.801 190.617 924.801C189.765 924.801 189.055 925.02 188.487 925.458C187.924 925.889 187.501 926.477 187.217 927.222C186.938 927.96 186.799 928.79 186.799 929.71C186.799 930.642 186.941 931.489 187.225 932.25C187.515 933.006 187.941 933.608 188.504 934.057C189.072 934.5 189.776 934.722 190.617 934.722ZM205.316 936.529C204.055 936.529 202.967 936.25 202.052 935.693C201.143 935.131 200.441 934.347 199.947 933.341C199.458 932.33 199.214 931.154 199.214 929.813C199.214 928.472 199.458 927.29 199.947 926.267C200.441 925.239 201.129 924.438 202.009 923.864C202.896 923.284 203.93 922.994 205.112 922.994C205.793 922.994 206.467 923.108 207.132 923.335C207.796 923.563 208.401 923.932 208.947 924.443C209.492 924.949 209.927 925.619 210.251 926.455C210.575 927.29 210.737 928.318 210.737 929.54V930.392H200.646V928.654H208.691C208.691 927.915 208.543 927.256 208.248 926.676C207.958 926.097 207.543 925.639 207.004 925.304C206.47 924.969 205.839 924.801 205.112 924.801C204.311 924.801 203.617 925 203.032 925.398C202.453 925.79 202.007 926.301 201.694 926.932C201.382 927.563 201.225 928.239 201.225 928.96V930.119C201.225 931.108 201.396 931.946 201.737 932.634C202.083 933.316 202.563 933.835 203.177 934.193C203.791 934.546 204.504 934.722 205.316 934.722C205.845 934.722 206.322 934.648 206.748 934.5C207.18 934.347 207.552 934.119 207.864 933.818C208.177 933.512 208.418 933.131 208.589 932.676L210.532 933.222C210.328 933.881 209.984 934.46 209.501 934.96C209.018 935.455 208.421 935.841 207.711 936.119C207.001 936.392 206.203 936.529 205.316 936.529ZM223.622 923.165L218.781 936.256H216.736L211.895 923.165H214.077L217.691 933.597H217.827L221.441 923.165H223.622Z" fill="#777777"/>
<path d="M1333.12 945.182C1332.15 945.182 1331.32 945.057 1330.62 944.807C1329.92 944.562 1329.34 944.239 1328.87 943.835C1328.41 943.438 1328.05 943.011 1327.77 942.557L1329.38 941.432C1329.56 941.67 1329.79 941.943 1330.07 942.25C1330.34 942.562 1330.72 942.832 1331.21 943.06C1331.7 943.293 1332.34 943.409 1333.12 943.409C1334.18 943.409 1335.05 943.153 1335.74 942.642C1336.43 942.131 1336.77 941.33 1336.77 940.239V937.58H1336.6C1336.45 937.818 1336.24 938.114 1335.97 938.466C1335.7 938.812 1335.32 939.122 1334.81 939.395C1334.31 939.662 1333.64 939.795 1332.78 939.795C1331.73 939.795 1330.78 939.545 1329.94 939.045C1329.1 938.545 1328.44 937.818 1327.95 936.864C1327.47 935.909 1327.23 934.75 1327.23 933.386C1327.23 932.045 1327.46 930.878 1327.93 929.884C1328.41 928.884 1329.06 928.111 1329.9 927.565C1330.74 927.014 1331.72 926.739 1332.82 926.739C1333.67 926.739 1334.35 926.881 1334.85 927.165C1335.35 927.443 1335.74 927.761 1336.01 928.119C1336.28 928.472 1336.49 928.761 1336.64 928.989H1336.84V926.909H1338.78V940.375C1338.78 941.5 1338.53 942.415 1338.02 943.119C1337.51 943.83 1336.83 944.349 1335.97 944.679C1335.12 945.014 1334.17 945.182 1333.12 945.182ZM1333.06 937.989C1333.86 937.989 1334.55 937.804 1335.1 937.435C1335.66 937.065 1336.08 936.534 1336.37 935.841C1336.66 935.148 1336.81 934.318 1336.81 933.352C1336.81 932.409 1336.66 931.577 1336.38 930.855C1336.1 930.134 1335.68 929.568 1335.12 929.159C1334.56 928.75 1333.88 928.545 1333.06 928.545C1332.2 928.545 1331.49 928.761 1330.93 929.193C1330.36 929.625 1329.94 930.205 1329.66 930.932C1329.38 931.659 1329.24 932.466 1329.24 933.352C1329.24 934.261 1329.38 935.065 1329.66 935.764C1329.95 936.457 1330.38 937.003 1330.94 937.401C1331.51 937.793 1332.22 937.989 1333.06 937.989ZM1341.99 940V926.909H1344V940H1341.99ZM1343.01 924.727C1342.62 924.727 1342.28 924.594 1341.99 924.327C1341.72 924.06 1341.58 923.739 1341.58 923.364C1341.58 922.989 1341.72 922.668 1341.99 922.401C1342.28 922.134 1342.62 922 1343.01 922C1343.4 922 1343.74 922.134 1344.01 922.401C1344.3 922.668 1344.44 922.989 1344.44 923.364C1344.44 923.739 1344.3 924.06 1344.01 924.327C1343.74 924.594 1343.4 924.727 1343.01 924.727ZM1352.89 926.909V928.614H1346.11V926.909H1352.89ZM1348.09 923.773H1350.1V936.25C1350.1 936.818 1350.18 937.244 1350.35 937.528C1350.52 937.807 1350.73 937.994 1350.99 938.091C1351.26 938.182 1351.54 938.227 1351.84 938.227C1352.06 938.227 1352.24 938.216 1352.38 938.193C1352.53 938.165 1352.64 938.142 1352.72 938.125L1353.13 939.932C1353 939.983 1352.81 940.034 1352.56 940.085C1352.32 940.142 1352.01 940.17 1351.63 940.17C1351.06 940.17 1350.51 940.048 1349.96 939.804C1349.42 939.56 1348.97 939.188 1348.62 938.688C1348.26 938.188 1348.09 937.557 1348.09 936.795V923.773ZM1357.73 932.125V940H1355.72V922.545H1357.73V928.955H1357.9C1358.21 928.278 1358.67 927.741 1359.28 927.344C1359.9 926.94 1360.73 926.739 1361.76 926.739C1362.65 926.739 1363.43 926.918 1364.1 927.276C1364.77 927.628 1365.29 928.17 1365.66 928.903C1366.03 929.631 1366.22 930.557 1366.22 931.682V940H1364.21V931.818C1364.21 930.778 1363.94 929.974 1363.4 929.406C1362.87 928.832 1362.12 928.545 1361.18 928.545C1360.52 928.545 1359.93 928.685 1359.4 928.963C1358.89 929.241 1358.48 929.648 1358.18 930.182C1357.88 930.716 1357.73 931.364 1357.73 932.125ZM1377.67 934.648V926.909H1379.68V940H1377.67V937.784H1377.53C1377.23 938.449 1376.75 939.014 1376.1 939.48C1375.46 939.94 1374.64 940.17 1373.65 940.17C1372.83 940.17 1372.1 939.991 1371.47 939.634C1370.83 939.27 1370.33 938.724 1369.97 937.997C1369.6 937.264 1369.42 936.341 1369.42 935.227V926.909H1371.43V935.091C1371.43 936.045 1371.7 936.807 1372.23 937.375C1372.77 937.943 1373.46 938.227 1374.3 938.227C1374.8 938.227 1375.3 938.099 1375.82 937.844C1376.34 937.588 1376.78 937.196 1377.13 936.668C1377.49 936.139 1377.67 935.466 1377.67 934.648ZM1383.16 940V922.545H1385.17V928.989H1385.34C1385.49 928.761 1385.69 928.472 1385.95 928.119C1386.22 927.761 1386.6 927.443 1387.1 927.165C1387.6 926.881 1388.27 926.739 1389.12 926.739C1390.23 926.739 1391.2 927.014 1392.04 927.565C1392.88 928.116 1393.54 928.898 1394.01 929.909C1394.48 930.92 1394.72 932.114 1394.72 933.489C1394.72 934.875 1394.48 936.077 1394.01 937.094C1393.54 938.105 1392.88 938.889 1392.05 939.446C1391.21 939.997 1390.25 940.273 1389.16 940.273C1388.32 940.273 1387.64 940.134 1387.14 939.855C1386.63 939.571 1386.24 939.25 1385.97 938.892C1385.7 938.528 1385.49 938.227 1385.34 937.989H1385.1V940H1383.16ZM1385.14 933.455C1385.14 934.443 1385.28 935.315 1385.57 936.071C1385.86 936.821 1386.28 937.409 1386.84 937.835C1387.4 938.256 1388.08 938.466 1388.89 938.466C1389.73 938.466 1390.43 938.244 1390.99 937.801C1391.56 937.352 1391.99 936.75 1392.27 935.994C1392.56 935.233 1392.7 934.386 1392.7 933.455C1392.7 932.534 1392.56 931.705 1392.28 930.966C1392 930.222 1391.58 929.634 1391.01 929.202C1390.45 928.764 1389.74 928.545 1388.89 928.545C1388.07 928.545 1387.38 928.753 1386.82 929.168C1386.27 929.577 1385.85 930.151 1385.56 930.889C1385.28 931.622 1385.14 932.477 1385.14 933.455ZM1398.78 940.136C1398.36 940.136 1398 939.986 1397.7 939.685C1397.39 939.384 1397.24 939.023 1397.24 938.602C1397.24 938.182 1397.39 937.821 1397.7 937.52C1398 937.219 1398.36 937.068 1398.78 937.068C1399.2 937.068 1399.56 937.219 1399.86 937.52C1400.16 937.821 1400.31 938.182 1400.31 938.602C1400.31 938.881 1400.24 939.136 1400.1 939.369C1399.96 939.602 1399.78 939.79 1399.55 939.932C1399.32 940.068 1399.06 940.136 1398.78 940.136ZM1408.76 940.273C1407.53 940.273 1406.48 939.983 1405.59 939.403C1404.7 938.824 1404.02 938.026 1403.54 937.009C1403.07 935.991 1402.83 934.83 1402.83 933.523C1402.83 932.193 1403.07 931.02 1403.56 930.003C1404.06 928.98 1404.74 928.182 1405.62 927.608C1406.51 927.028 1407.54 926.739 1408.73 926.739C1409.65 926.739 1410.48 926.909 1411.21 927.25C1411.95 927.591 1412.56 928.068 1413.03 928.682C1413.5 929.295 1413.79 930.011 1413.91 930.83H1411.9C1411.74 930.233 1411.4 929.705 1410.87 929.244C1410.35 928.778 1409.65 928.545 1408.76 928.545C1407.98 928.545 1407.29 928.75 1406.7 929.159C1406.11 929.562 1405.65 930.134 1405.33 930.872C1405 931.605 1404.84 932.466 1404.84 933.455C1404.84 934.466 1405 935.347 1405.32 936.097C1405.64 936.847 1406.1 937.429 1406.68 937.844C1407.27 938.259 1407.96 938.466 1408.76 938.466C1409.28 938.466 1409.76 938.375 1410.18 938.193C1410.61 938.011 1410.97 937.75 1411.27 937.409C1411.56 937.068 1411.77 936.659 1411.9 936.182H1413.91C1413.79 936.955 1413.51 937.651 1413.06 938.27C1412.62 938.884 1412.03 939.372 1411.3 939.736C1410.57 940.094 1409.73 940.273 1408.76 940.273ZM1421.69 940.273C1420.5 940.273 1419.47 939.991 1418.58 939.429C1417.69 938.866 1417 938.08 1416.5 937.068C1416 936.057 1415.75 934.875 1415.75 933.523C1415.75 932.159 1416 930.969 1416.5 929.952C1417 928.935 1417.69 928.145 1418.58 927.582C1419.47 927.02 1420.5 926.739 1421.69 926.739C1422.87 926.739 1423.9 927.02 1424.79 927.582C1425.68 928.145 1426.37 928.935 1426.87 929.952C1427.37 930.969 1427.62 932.159 1427.62 933.523C1427.62 934.875 1427.37 936.057 1426.87 937.068C1426.37 938.08 1425.68 938.866 1424.79 939.429C1423.9 939.991 1422.87 940.273 1421.69 940.273ZM1421.69 938.466C1422.58 938.466 1423.32 938.236 1423.9 937.776C1424.48 937.315 1424.91 936.71 1425.19 935.96C1425.47 935.21 1425.61 934.398 1425.61 933.523C1425.61 932.648 1425.47 931.832 1425.19 931.077C1424.91 930.321 1424.48 929.71 1423.9 929.244C1423.32 928.778 1422.58 928.545 1421.69 928.545C1420.79 928.545 1420.05 928.778 1419.47 929.244C1418.89 929.71 1418.46 930.321 1418.18 931.077C1417.91 931.832 1417.77 932.648 1417.77 933.523C1417.77 934.398 1417.91 935.21 1418.18 935.96C1418.46 936.71 1418.89 937.315 1419.47 937.776C1420.05 938.236 1420.79 938.466 1421.69 938.466ZM1430.21 940V926.909H1432.15V928.955H1432.32C1432.59 928.256 1433.04 927.713 1433.64 927.327C1434.25 926.935 1434.98 926.739 1435.83 926.739C1436.7 926.739 1437.42 926.935 1437.99 927.327C1438.57 927.713 1439.02 928.256 1439.34 928.955H1439.48C1439.82 928.278 1440.32 927.741 1440.99 927.344C1441.66 926.94 1442.46 926.739 1443.4 926.739C1444.57 926.739 1445.53 927.105 1446.27 927.838C1447.02 928.565 1447.39 929.699 1447.39 931.239V940H1445.38V931.239C1445.38 930.273 1445.11 929.582 1444.59 929.168C1444.06 928.753 1443.44 928.545 1442.72 928.545C1441.8 928.545 1441.09 928.824 1440.58 929.381C1440.07 929.932 1439.82 930.631 1439.82 931.477V940H1437.78V931.034C1437.78 930.29 1437.54 929.69 1437.05 929.236C1436.57 928.776 1435.95 928.545 1435.19 928.545C1434.66 928.545 1434.17 928.685 1433.72 928.963C1433.27 929.241 1432.91 929.628 1432.63 930.122C1432.36 930.611 1432.22 931.176 1432.22 931.818V940H1430.21ZM1456.76 921.727L1451.13 942.625H1449.29L1454.92 921.727H1456.76ZM1460.67 932.125V940H1458.66V926.909H1460.61V928.955H1460.78C1461.08 928.29 1461.55 927.756 1462.17 927.352C1462.8 926.943 1463.61 926.739 1464.59 926.739C1465.48 926.739 1466.26 926.92 1466.92 927.284C1467.59 927.642 1468.1 928.188 1468.47 928.92C1468.84 929.648 1469.03 930.568 1469.03 931.682V940H1467.01V931.818C1467.01 930.79 1466.75 929.989 1466.21 929.415C1465.68 928.835 1464.95 928.545 1464.01 928.545C1463.37 928.545 1462.8 928.685 1462.29 928.963C1461.79 929.241 1461.4 929.648 1461.11 930.182C1460.82 930.716 1460.67 931.364 1460.67 932.125ZM1480.47 934.648V926.909H1482.48V940H1480.47V937.784H1480.34C1480.03 938.449 1479.55 939.014 1478.9 939.48C1478.26 939.94 1477.44 940.17 1476.45 940.17C1475.63 940.17 1474.9 939.991 1474.27 939.634C1473.63 939.27 1473.13 938.724 1472.77 937.997C1472.4 937.264 1472.22 936.341 1472.22 935.227V926.909H1474.23V935.091C1474.23 936.045 1474.5 936.807 1475.03 937.375C1475.57 937.943 1476.26 938.227 1477.1 938.227C1477.6 938.227 1478.11 938.099 1478.62 937.844C1479.14 937.588 1479.58 937.196 1479.93 936.668C1480.29 936.139 1480.47 935.466 1480.47 934.648ZM1491.01 940.273C1489.78 940.273 1488.72 939.983 1487.83 939.403C1486.95 938.824 1486.27 938.026 1485.79 937.009C1485.31 935.991 1485.07 934.83 1485.07 933.523C1485.07 932.193 1485.32 931.02 1485.81 930.003C1486.3 928.98 1486.99 928.182 1487.87 927.608C1488.76 927.028 1489.79 926.739 1490.97 926.739C1491.89 926.739 1492.72 926.909 1493.46 927.25C1494.2 927.591 1494.8 928.068 1495.27 928.682C1495.75 929.295 1496.04 930.011 1496.15 930.83H1494.14C1493.99 930.233 1493.65 929.705 1493.12 929.244C1492.6 928.778 1491.89 928.545 1491.01 928.545C1490.22 928.545 1489.53 928.75 1488.94 929.159C1488.36 929.562 1487.9 930.134 1487.57 930.872C1487.25 931.605 1487.08 932.466 1487.08 933.455C1487.08 934.466 1487.24 935.347 1487.56 936.097C1487.89 936.847 1488.34 937.429 1488.93 937.844C1489.52 938.259 1490.21 938.466 1491.01 938.466C1491.53 938.466 1492 938.375 1492.43 938.193C1492.85 938.011 1493.22 937.75 1493.51 937.409C1493.81 937.068 1494.02 936.659 1494.14 936.182H1496.15C1496.04 936.955 1495.76 937.651 1495.31 938.27C1494.87 938.884 1494.28 939.372 1493.54 939.736C1492.82 940.094 1491.97 940.273 1491.01 940.273ZM1500.62 922.545V940H1498.61V922.545H1500.62ZM1509.32 940.273C1508.06 940.273 1506.97 939.994 1506.05 939.438C1505.14 938.875 1504.44 938.091 1503.95 937.085C1503.46 936.074 1503.21 934.898 1503.21 933.557C1503.21 932.216 1503.46 931.034 1503.95 930.011C1504.44 928.983 1505.13 928.182 1506.01 927.608C1506.9 927.028 1507.93 926.739 1509.11 926.739C1509.79 926.739 1510.47 926.852 1511.13 927.08C1511.8 927.307 1512.4 927.676 1512.95 928.188C1513.49 928.693 1513.93 929.364 1514.25 930.199C1514.58 931.034 1514.74 932.062 1514.74 933.284V934.136H1504.65V932.398H1512.69C1512.69 931.659 1512.54 931 1512.25 930.42C1511.96 929.841 1511.54 929.384 1511 929.048C1510.47 928.713 1509.84 928.545 1509.11 928.545C1508.31 928.545 1507.62 928.744 1507.03 929.142C1506.45 929.534 1506.01 930.045 1505.69 930.676C1505.38 931.307 1505.23 931.983 1505.23 932.705V933.864C1505.23 934.852 1505.4 935.69 1505.74 936.378C1506.08 937.06 1506.56 937.58 1507.18 937.938C1507.79 938.29 1508.5 938.466 1509.32 938.466C1509.85 938.466 1510.32 938.392 1510.75 938.244C1511.18 938.091 1511.55 937.864 1511.87 937.562C1512.18 937.256 1512.42 936.875 1512.59 936.42L1514.53 936.966C1514.33 937.625 1513.98 938.205 1513.5 938.705C1513.02 939.199 1512.42 939.585 1511.71 939.864C1511 940.136 1510.2 940.273 1509.32 940.273ZM1525.57 934.648V926.909H1527.58V940H1525.57V937.784H1525.43C1525.12 938.449 1524.65 939.014 1524 939.48C1523.35 939.94 1522.53 940.17 1521.54 940.17C1520.73 940.17 1520 939.991 1519.36 939.634C1518.73 939.27 1518.23 938.724 1517.86 937.997C1517.5 937.264 1517.32 936.341 1517.32 935.227V926.909H1519.33V935.091C1519.33 936.045 1519.6 936.807 1520.13 937.375C1520.67 937.943 1521.36 938.227 1522.19 938.227C1522.69 938.227 1523.2 938.099 1523.72 937.844C1524.24 937.588 1524.68 937.196 1525.03 936.668C1525.39 936.139 1525.57 935.466 1525.57 934.648ZM1540.06 929.841L1538.25 930.352C1538.13 930.051 1537.97 929.759 1537.75 929.474C1537.53 929.185 1537.23 928.946 1536.86 928.759C1536.48 928.571 1536 928.477 1535.42 928.477C1534.62 928.477 1533.95 928.662 1533.42 929.031C1532.89 929.395 1532.62 929.858 1532.62 930.42C1532.62 930.92 1532.81 931.315 1533.17 931.605C1533.53 931.895 1534.1 932.136 1534.87 932.33L1536.82 932.807C1537.99 933.091 1538.86 933.526 1539.43 934.111C1540.01 934.69 1540.29 935.437 1540.29 936.352C1540.29 937.102 1540.08 937.773 1539.65 938.364C1539.22 938.955 1538.62 939.42 1537.86 939.761C1537.09 940.102 1536.2 940.273 1535.18 940.273C1533.84 940.273 1532.74 939.983 1531.86 939.403C1530.99 938.824 1530.44 937.977 1530.2 936.864L1532.11 936.386C1532.29 937.091 1532.64 937.619 1533.14 937.972C1533.65 938.324 1534.32 938.5 1535.15 938.5C1536.08 938.5 1536.83 938.301 1537.38 937.903C1537.94 937.5 1538.21 937.017 1538.21 936.455C1538.21 936 1538.06 935.619 1537.74 935.312C1537.42 935 1536.93 934.767 1536.27 934.614L1534.09 934.102C1532.89 933.818 1532.01 933.378 1531.45 932.781C1530.89 932.179 1530.61 931.426 1530.61 930.523C1530.61 929.784 1530.82 929.131 1531.23 928.562C1531.65 927.994 1532.23 927.548 1532.95 927.224C1533.67 926.901 1534.5 926.739 1535.42 926.739C1536.71 926.739 1537.73 927.023 1538.47 927.591C1539.21 928.159 1539.74 928.909 1540.06 929.841ZM1548.16 940.273C1546.93 940.273 1545.88 939.983 1544.99 939.403C1544.1 938.824 1543.42 938.026 1542.94 937.009C1542.47 935.991 1542.23 934.83 1542.23 933.523C1542.23 932.193 1542.47 931.02 1542.96 930.003C1543.46 928.98 1544.14 928.182 1545.02 927.608C1545.91 927.028 1546.94 926.739 1548.13 926.739C1549.05 926.739 1549.88 926.909 1550.61 927.25C1551.35 927.591 1551.96 928.068 1552.43 928.682C1552.9 929.295 1553.19 930.011 1553.31 930.83H1551.3C1551.14 930.233 1550.8 929.705 1550.27 929.244C1549.75 928.778 1549.05 928.545 1548.16 928.545C1547.38 928.545 1546.69 928.75 1546.1 929.159C1545.51 929.562 1545.05 930.134 1544.73 930.872C1544.4 931.605 1544.24 932.466 1544.24 933.455C1544.24 934.466 1544.4 935.347 1544.72 936.097C1545.04 936.847 1545.49 937.429 1546.08 937.844C1546.67 938.259 1547.36 938.466 1548.16 938.466C1548.68 938.466 1549.16 938.375 1549.58 938.193C1550.01 938.011 1550.37 937.75 1550.67 937.409C1550.96 937.068 1551.17 936.659 1551.3 936.182H1553.31C1553.19 936.955 1552.91 937.651 1552.46 938.27C1552.02 938.884 1551.43 939.372 1550.7 939.736C1549.97 940.094 1549.13 940.273 1548.16 940.273ZM1557.78 922.545V940H1555.77V922.545H1557.78ZM1566.3 940.273C1565.12 940.273 1564.08 939.991 1563.19 939.429C1562.3 938.866 1561.61 938.08 1561.11 937.068C1560.62 936.057 1560.37 934.875 1560.37 933.523C1560.37 932.159 1560.62 930.969 1561.11 929.952C1561.61 928.935 1562.3 928.145 1563.19 927.582C1564.08 927.02 1565.12 926.739 1566.3 926.739C1567.48 926.739 1568.52 927.02 1569.4 927.582C1570.3 928.145 1570.99 928.935 1571.48 929.952C1571.98 930.969 1572.23 932.159 1572.23 933.523C1572.23 934.875 1571.98 936.057 1571.48 937.068C1570.99 938.08 1570.3 938.866 1569.4 939.429C1568.52 939.991 1567.48 940.273 1566.3 940.273ZM1566.3 938.466C1567.2 938.466 1567.94 938.236 1568.52 937.776C1569.1 937.315 1569.53 936.71 1569.8 935.96C1570.08 935.21 1570.22 934.398 1570.22 933.523C1570.22 932.648 1570.08 931.832 1569.8 931.077C1569.53 930.321 1569.1 929.71 1568.52 929.244C1567.94 928.778 1567.2 928.545 1566.3 928.545C1565.4 928.545 1564.66 928.778 1564.09 929.244C1563.51 929.71 1563.08 930.321 1562.8 931.077C1562.52 931.832 1562.38 932.648 1562.38 933.523C1562.38 934.398 1562.52 935.21 1562.8 935.96C1563.08 936.71 1563.51 937.315 1564.09 937.776C1564.66 938.236 1565.4 938.466 1566.3 938.466ZM1583.07 934.648V926.909H1585.08V940H1583.07V937.784H1582.94C1582.63 938.449 1582.15 939.014 1581.51 939.48C1580.86 939.94 1580.04 940.17 1579.05 940.17C1578.23 940.17 1577.51 939.991 1576.87 939.634C1576.23 939.27 1575.73 938.724 1575.37 937.997C1575.01 937.264 1574.82 936.341 1574.82 935.227V926.909H1576.83V935.091C1576.83 936.045 1577.1 936.807 1577.64 937.375C1578.18 937.943 1578.86 938.227 1579.7 938.227C1580.2 938.227 1580.71 938.099 1581.22 937.844C1581.75 937.588 1582.18 937.196 1582.54 936.668C1582.89 936.139 1583.07 935.466 1583.07 934.648ZM1593.23 940.273C1592.14 940.273 1591.18 939.997 1590.34 939.446C1589.51 938.889 1588.85 938.105 1588.38 937.094C1587.91 936.077 1587.68 934.875 1587.68 933.489C1587.68 932.114 1587.91 930.92 1588.38 929.909C1588.85 928.898 1589.51 928.116 1590.35 927.565C1591.19 927.014 1592.16 926.739 1593.27 926.739C1594.12 926.739 1594.79 926.881 1595.29 927.165C1595.79 927.443 1596.17 927.761 1596.43 928.119C1596.69 928.472 1596.9 928.761 1597.05 928.989H1597.22V922.545H1599.23V940H1597.29V937.989H1597.05C1596.9 938.227 1596.69 938.528 1596.42 938.892C1596.15 939.25 1595.76 939.571 1595.25 939.855C1594.75 940.134 1594.07 940.273 1593.23 940.273ZM1593.5 938.466C1594.31 938.466 1594.99 938.256 1595.55 937.835C1596.11 937.409 1596.53 936.821 1596.82 936.071C1597.11 935.315 1597.25 934.443 1597.25 933.455C1597.25 932.477 1597.11 931.622 1596.83 930.889C1596.54 930.151 1596.12 929.577 1595.57 929.168C1595.01 928.753 1594.32 928.545 1593.5 928.545C1592.65 928.545 1591.94 928.764 1591.37 929.202C1590.81 929.634 1590.39 930.222 1590.1 930.966C1589.83 931.705 1589.69 932.534 1589.69 933.455C1589.69 934.386 1589.83 935.233 1590.11 935.994C1590.4 936.75 1590.83 937.352 1591.39 937.801C1591.96 938.244 1592.66 938.466 1593.5 938.466ZM1608.89 921.727L1603.26 942.625H1601.42L1607.04 921.727H1608.89ZM1612.8 932.125V940H1610.79V926.909H1612.73V928.955H1612.9C1613.21 928.29 1613.68 927.756 1614.3 927.352C1614.93 926.943 1615.73 926.739 1616.72 926.739C1617.61 926.739 1618.38 926.92 1619.05 927.284C1619.71 927.642 1620.23 928.188 1620.6 928.92C1620.97 929.648 1621.15 930.568 1621.15 931.682V940H1619.14V931.818C1619.14 930.79 1618.87 929.989 1618.34 929.415C1617.81 928.835 1617.07 928.545 1616.14 928.545C1615.5 928.545 1614.93 928.685 1614.42 928.963C1613.92 929.241 1613.53 929.648 1613.24 930.182C1612.95 930.716 1612.8 931.364 1612.8 932.125ZM1629.84 940.273C1628.58 940.273 1627.49 939.994 1626.57 939.438C1625.66 938.875 1624.96 938.091 1624.47 937.085C1623.98 936.074 1623.74 934.898 1623.74 933.557C1623.74 932.216 1623.98 931.034 1624.47 930.011C1624.96 928.983 1625.65 928.182 1626.53 927.608C1627.42 927.028 1628.45 926.739 1629.63 926.739C1630.31 926.739 1630.99 926.852 1631.65 927.08C1632.32 927.307 1632.92 927.676 1633.47 928.188C1634.01 928.693 1634.45 929.364 1634.77 930.199C1635.1 931.034 1635.26 932.062 1635.26 933.284V934.136H1625.17V932.398H1633.21C1633.21 931.659 1633.06 931 1632.77 930.42C1632.48 929.841 1632.06 929.384 1631.52 929.048C1630.99 928.713 1630.36 928.545 1629.63 928.545C1628.83 928.545 1628.14 928.744 1627.55 929.142C1626.97 929.534 1626.53 930.045 1626.22 930.676C1625.9 931.307 1625.75 931.983 1625.75 932.705V933.864C1625.75 934.852 1625.92 935.69 1626.26 936.378C1626.6 937.06 1627.08 937.58 1627.7 937.938C1628.31 938.29 1629.02 938.466 1629.84 938.466C1630.37 938.466 1630.84 938.392 1631.27 938.244C1631.7 938.091 1632.07 937.864 1632.39 937.562C1632.7 937.256 1632.94 936.875 1633.11 936.42L1635.05 936.966C1634.85 937.625 1634.5 938.205 1634.02 938.705C1633.54 939.199 1632.94 939.585 1632.23 939.864C1631.52 940.136 1630.72 940.273 1629.84 940.273ZM1643.16 940.273C1641.97 940.273 1640.94 939.991 1640.04 939.429C1639.16 938.866 1638.47 938.08 1637.97 937.068C1637.47 936.057 1637.22 934.875 1637.22 933.523C1637.22 932.159 1637.47 930.969 1637.97 929.952C1638.47 928.935 1639.16 928.145 1640.04 927.582C1640.94 927.02 1641.97 926.739 1643.16 926.739C1644.34 926.739 1645.37 927.02 1646.26 927.582C1647.15 928.145 1647.84 928.935 1648.34 929.952C1648.84 930.969 1649.09 932.159 1649.09 933.523C1649.09 934.875 1648.84 936.057 1648.34 937.068C1647.84 938.08 1647.15 938.866 1646.26 939.429C1645.37 939.991 1644.34 940.273 1643.16 940.273ZM1643.16 938.466C1644.05 938.466 1644.79 938.236 1645.37 937.776C1645.95 937.315 1646.38 936.71 1646.66 935.96C1646.94 935.21 1647.08 934.398 1647.08 933.523C1647.08 932.648 1646.94 931.832 1646.66 931.077C1646.38 930.321 1645.95 929.71 1645.37 929.244C1644.79 928.778 1644.05 928.545 1643.16 928.545C1642.26 928.545 1641.52 928.778 1640.94 929.244C1640.36 929.71 1639.93 930.321 1639.65 931.077C1639.37 931.832 1639.24 932.648 1639.24 933.523C1639.24 934.398 1639.37 935.21 1639.65 935.96C1639.93 936.71 1640.36 937.315 1640.94 937.776C1641.52 938.236 1642.26 938.466 1643.16 938.466ZM1660.95 929.841L1659.14 930.352C1659.03 930.051 1658.86 929.759 1658.64 929.474C1658.42 929.185 1658.13 928.946 1657.75 928.759C1657.38 928.571 1656.9 928.477 1656.31 928.477C1655.51 928.477 1654.85 928.662 1654.31 929.031C1653.78 929.395 1653.52 929.858 1653.52 930.42C1653.52 930.92 1653.7 931.315 1654.06 931.605C1654.43 931.895 1655 932.136 1655.77 932.33L1657.71 932.807C1658.88 933.091 1659.75 933.526 1660.33 934.111C1660.9 934.69 1661.19 935.437 1661.19 936.352C1661.19 937.102 1660.97 937.773 1660.54 938.364C1660.12 938.955 1659.52 939.42 1658.75 939.761C1657.98 940.102 1657.09 940.273 1656.08 940.273C1654.74 940.273 1653.64 939.983 1652.76 939.403C1651.89 938.824 1651.33 937.977 1651.1 936.864L1653.01 936.386C1653.19 937.091 1653.53 937.619 1654.04 937.972C1654.55 938.324 1655.22 938.5 1656.04 938.5C1656.98 938.5 1657.72 938.301 1658.27 937.903C1658.83 937.5 1659.11 937.017 1659.11 936.455C1659.11 936 1658.95 935.619 1658.63 935.312C1658.31 935 1657.83 934.767 1657.17 934.614L1654.98 934.102C1653.79 933.818 1652.91 933.378 1652.34 932.781C1651.79 932.179 1651.51 931.426 1651.51 930.523C1651.51 929.784 1651.71 929.131 1652.13 928.562C1652.55 927.994 1653.12 927.548 1653.84 927.224C1654.57 926.901 1655.39 926.739 1656.31 926.739C1657.61 926.739 1658.63 927.023 1659.37 927.591C1660.11 928.159 1660.64 928.909 1660.95 929.841ZM1665.03 944.909C1664.69 944.909 1664.39 944.881 1664.12 944.824C1663.85 944.773 1663.67 944.722 1663.57 944.67L1664.08 942.898C1664.57 943.023 1665 943.068 1665.37 943.034C1665.75 943 1666.08 942.832 1666.37 942.531C1666.67 942.236 1666.94 941.756 1667.18 941.091L1667.56 940.068L1662.71 926.909H1664.9L1668.51 937.341H1668.65L1672.26 926.909H1674.44L1668.88 941.909C1668.63 942.585 1668.32 943.145 1667.96 943.588C1667.59 944.037 1667.16 944.369 1666.67 944.585C1666.19 944.801 1665.64 944.909 1665.03 944.909ZM1678.63 932.125V940H1676.62V926.909H1678.56V928.955H1678.73C1679.04 928.29 1679.5 927.756 1680.13 927.352C1680.75 926.943 1681.56 926.739 1682.55 926.739C1683.43 926.739 1684.21 926.92 1684.87 927.284C1685.54 927.642 1686.06 928.188 1686.43 928.92C1686.8 929.648 1686.98 930.568 1686.98 931.682V940H1684.97V931.818C1684.97 930.79 1684.7 929.989 1684.17 929.415C1683.63 928.835 1682.9 928.545 1681.97 928.545C1681.33 928.545 1680.75 928.685 1680.25 928.963C1679.75 929.241 1679.35 929.648 1679.06 930.182C1678.77 930.716 1678.63 931.364 1678.63 932.125ZM1695.49 940.273C1694.27 940.273 1693.21 939.983 1692.32 939.403C1691.44 938.824 1690.75 938.026 1690.28 937.009C1689.8 935.991 1689.56 934.83 1689.56 933.523C1689.56 932.193 1689.81 931.02 1690.29 930.003C1690.79 928.98 1691.48 928.182 1692.36 927.608C1693.24 927.028 1694.28 926.739 1695.46 926.739C1696.38 926.739 1697.21 926.909 1697.95 927.25C1698.69 927.591 1699.29 928.068 1699.76 928.682C1700.23 929.295 1700.53 930.011 1700.64 930.83H1698.63C1698.48 930.233 1698.14 929.705 1697.61 929.244C1697.08 928.778 1696.38 928.545 1695.49 928.545C1694.71 928.545 1694.02 928.75 1693.43 929.159C1692.85 929.562 1692.39 930.134 1692.06 930.872C1691.73 931.605 1691.57 932.466 1691.57 933.455C1691.57 934.466 1691.73 935.347 1692.05 936.097C1692.37 936.847 1692.83 937.429 1693.41 937.844C1694 938.259 1694.7 938.466 1695.49 938.466C1696.02 938.466 1696.49 938.375 1696.92 938.193C1697.34 938.011 1697.7 937.75 1698 937.409C1698.29 937.068 1698.5 936.659 1698.63 936.182H1700.64C1700.53 936.955 1700.25 937.651 1699.8 938.27C1699.35 938.884 1698.77 939.372 1698.03 939.736C1697.31 940.094 1696.46 940.273 1695.49 940.273Z" fill="#777777"/>
<path fill-rule="evenodd" clip-rule="evenodd" d="M1270.13 913C1255.69 913 1244 924.88 1244 939.548C1244 951.296 1251.48 961.218 1261.87 964.736C1263.18 964.968 1263.67 964.172 1263.67 963.475C1263.67 962.844 1263.63 960.753 1263.63 958.53C1257.07 959.758 1255.37 956.904 1254.85 955.411C1254.55 954.647 1253.28 952.291 1252.17 951.661C1251.25 951.163 1249.95 949.935 1252.13 949.902C1254.19 949.869 1255.66 951.827 1256.15 952.623C1258.5 956.639 1262.26 955.51 1263.76 954.813C1263.99 953.088 1264.68 951.926 1265.43 951.263C1259.61 950.599 1253.54 948.309 1253.54 938.154C1253.54 935.267 1254.55 932.878 1256.22 931.02C1255.96 930.356 1255.04 927.635 1256.48 923.984C1256.48 923.984 1258.67 923.287 1263.67 926.705C1265.76 926.108 1267.98 925.809 1270.2 925.809C1272.42 925.809 1274.64 926.108 1276.73 926.705C1281.73 923.254 1283.92 923.984 1283.92 923.984C1285.36 927.635 1284.44 930.356 1284.18 931.02C1285.85 932.878 1286.86 935.234 1286.86 938.154C1286.86 948.342 1280.75 950.599 1274.94 951.263C1275.88 952.092 1276.7 953.685 1276.7 956.174C1276.7 959.725 1276.67 962.579 1276.67 963.475C1276.67 964.172 1277.16 965.001 1278.46 964.736C1283.65 962.957 1288.16 959.569 1291.35 955.051C1294.55 950.533 1296.27 945.111 1296.27 939.548C1296.27 924.88 1284.57 913 1270.13 913Z" fill="#777777"/>
<path d="M1302.67 733.731C1298.36 728.744 1291.01 730.108 1285.32 731.238C1271.65 733.677 1256.78 736.511 1243.54 730.825C1267.19 693.515 1285.79 652.779 1296.19 609.783C1299.98 593.442 1302.9 576.724 1302.34 559.899C1301.93 550.481 1300.62 540.454 1294.86 532.652C1280.62 513.871 1259.97 500.185 1237.21 494.068C1208.78 486.355 1178.29 488.651 1150.32 497.297C1148.01 497.763 1145.73 496.723 1143.47 496.436C1118.09 491.288 1090.11 493.315 1068.1 508.005C1041.68 498.499 1013.28 492.759 985.154 495.7C964.239 497.871 943.234 507.593 931.234 525.405C916.059 547.629 913.996 576.007 916.418 602.052C921.297 636.635 929.727 670.681 940.454 703.883C947.521 724.583 955.306 745.444 967.881 763.525C974.266 772.404 982.751 781.355 994.177 782.754C1004.33 783.992 1013.51 777.696 1019.74 770.234C1030.5 757.355 1041.57 744.709 1053.05 732.475C1060.55 736.153 1068.69 738.269 1077.01 738.897C1072.51 744.242 1068.8 751.22 1061.62 753.319C1051.95 757.05 1040.64 756.547 1032.11 762.987C1027.2 766.503 1026.97 774.162 1031.38 778.198C1039.36 785.947 1051.13 787.615 1061.75 788.512C1076.8 789.66 1092.01 784.602 1103.43 774.736C1103.36 798.665 1103.47 822.665 1106.16 846.468C1107.51 860.406 1113.52 874.289 1124.12 883.671C1134.11 892.388 1148.35 894.2 1161.03 891.994C1173.48 889.626 1186.27 885.895 1195.99 877.392C1206.32 868.28 1210.74 854.522 1212.78 841.32C1216.49 817.661 1219.31 793.893 1222 770.126C1248.6 774.611 1278.7 769.516 1298.58 750.09C1302.83 746.09 1306.86 739.166 1302.67 733.731ZM1243.63 508.723C1259.6 514.786 1273.79 525.315 1284.44 538.643C1289.52 545.011 1290.16 553.567 1290.49 561.387C1290.72 580.042 1286.95 598.464 1282.16 616.402C1273 649.604 1259.08 681.425 1241.59 711.058C1239.87 713.982 1237.98 716.798 1235.9 719.471C1235.74 718.663 1235.42 717.013 1235.26 716.188C1237.43 710.484 1240.6 705.103 1241.84 699.04C1246.22 681.945 1242.52 664.349 1240.94 647.147C1239.29 630.913 1244.84 615.11 1244.69 598.913C1245.32 590.984 1242.18 583.486 1239.13 576.365C1228.1 551.701 1210.56 529.764 1188.05 514.696C1182.56 510.929 1176.42 508.292 1170.95 504.508C1194.88 499.378 1220.55 500.023 1243.62 508.705L1243.63 508.723ZM1229.05 647.183C1230.45 666.394 1236.03 687.022 1226.97 705.246C1214.83 681.084 1199.13 658.017 1193.66 631.111C1192.12 622.554 1191.72 611.72 1199.33 605.765C1208.98 598.913 1221.59 600.455 1232.75 601.137C1232.26 616.545 1227.53 631.667 1229.07 647.183H1229.05ZM1011.95 760.996C1007.59 766.126 1001.71 772.243 994.285 770.718C985.603 768.207 980.078 760.278 975.235 753.157C962.158 732.242 954.284 708.618 947.055 685.174C938.965 657.425 932.149 629.227 928.221 600.563C926.266 578.751 927.485 555.36 938.642 535.934C947.001 521.225 962.589 511.844 978.966 508.777C1005.19 503.736 1032.08 509.082 1057.25 516.759C1046.14 528.956 1037.5 543.324 1032.46 559.056C1025.59 580.06 1022.45 602.411 1024.1 624.492C1025.05 640.043 1024.63 655.667 1022.46 671.093C1019.74 691.237 1027.83 711.955 1042.79 725.551C1032.6 737.462 1021.8 748.816 1011.94 761.014L1011.95 760.996ZM1034.91 688.833C1032.35 677.425 1035.7 665.945 1036.08 654.519C1036.96 641.586 1036.04 628.635 1035.79 615.702C1047.88 607.881 1062.02 601.765 1076.67 602.608C1084.26 602.931 1091.25 608.294 1093.08 615.774C1099.74 642.268 1101.8 671.757 1089.05 696.851C1084.6 706.538 1080.99 716.565 1077.89 726.735C1056.69 726.951 1038.66 709.013 1034.91 688.833ZM1100.89 759.758C1087.58 777.785 1060.94 781.229 1041.69 771.418C1051.18 767.023 1062.29 767.364 1071.45 761.947C1080.31 757.175 1083.83 746.682 1092.12 741.283C1101.14 740.009 1107.72 753.408 1100.91 759.74L1100.89 759.758ZM1215.04 738.7C1209.98 746.843 1211.76 756.781 1210.52 765.821C1207.62 791.167 1204.76 816.548 1200.64 841.733C1198.68 853.805 1193.55 866.63 1182.16 872.639C1170.48 878.576 1156.92 882.307 1143.79 880.28C1131.33 878.092 1123.47 866.468 1119.94 855.15C1117.35 845.661 1117.08 835.742 1116.35 825.966C1115.09 802.378 1115.08 778.736 1115.69 755.13C1116.21 745.911 1111.47 736.314 1103.24 731.83C1099.25 729.587 1094.59 729.282 1090.14 728.924C1093.64 711.578 1104.21 696.6 1107.83 679.273C1112.53 657.837 1109.93 635.523 1105.12 614.357C1102.77 603.792 1094.73 594.446 1084.04 591.881C1067.58 587.738 1050.97 594.177 1036.24 601.065C1038.11 577.137 1044.51 552.634 1059.16 533.208C1069.94 518.75 1086.66 509.1 1104.51 506.786C1133.96 503.037 1164.89 511.145 1188.3 529.566C1207.63 544.849 1222.92 565.549 1231.15 588.832C1217.46 588.348 1201.95 587.791 1190.88 597.298C1180.83 605.765 1179.54 620.205 1181.8 632.33C1187.04 661.174 1204.06 685.694 1216.62 711.632C1219.96 717.713 1224.44 723.022 1228.71 728.475C1223.63 731.04 1217.97 733.498 1215.08 738.718L1215.04 738.7ZM1250.27 759.095C1241.23 760.171 1231.83 760.494 1223.11 757.498C1223.15 752.565 1222.88 746.718 1226.84 743.041C1229.98 740.727 1234.45 738.592 1238.07 741.121C1253.5 749.247 1271.44 745.283 1287.85 743.292C1277.82 753.05 1263.94 757.606 1250.27 759.095ZM1202.88 609.37C1199.67 612.007 1203.13 615.953 1205.89 617.191C1212.58 621.119 1221.75 615.63 1221.97 607.989C1215.92 605.173 1208.35 605.46 1202.88 609.37ZM1084.46 621.568C1087.31 619.953 1090.32 615.523 1087.02 612.85C1082.32 609.029 1075.49 608.294 1069.77 609.837C1067.92 610.482 1065.98 611.738 1066.36 613.998C1067.68 621.675 1077.96 626.339 1084.44 621.568H1084.46Z" fill="white"/>
</svg>
