<svg width="1792" height="1024" viewBox="0 0 1792 1024" fill="none" xmlns="http://www.w3.org/2000/svg">
<rect width="1792" height="1024" fill="#080808"/>
<path d="M202.417 165.765C206.276 165.765 208.206 165.765 209.733 165.142C211.868 164.271 213.561 162.559 214.423 160.4C215.039 158.856 215.039 156.905 215.039 153.002V153.002V127.894C215.039 119.81 215.039 115.767 212.555 113.256C210.072 110.744 206.074 110.744 198.079 110.744H182.71C170.387 110.744 164.226 110.744 161.741 114.818C159.257 118.892 162.023 124.459 167.555 135.593L178.122 156.863C179.966 160.574 177.298 164.949 173.191 164.949C171.104 164.949 169.196 163.759 168.26 161.874L147.552 120.195C145.268 115.597 144.125 113.297 142.079 112.021C140.032 110.744 137.487 110.744 132.398 110.744L127.323 110.744C119.328 110.744 115.33 110.744 112.847 113.256C110.363 115.768 110.363 119.81 110.363 127.894L110.363 152.186C110.363 156.089 110.363 158.04 109.747 159.584C108.885 161.743 107.192 163.455 105.057 164.326C103.53 164.95 101.6 164.95 97.741 164.95H97.7409C93.8819 164.95 91.9523 164.95 90.4253 165.573C88.2902 166.444 86.5972 168.156 85.7355 170.315C85.1191 171.859 85.1191 173.81 85.1191 177.713V202.821C85.1191 210.905 85.1191 214.948 87.6029 217.459C90.0866 219.971 94.0841 219.971 102.079 219.971H102.079H117.449C129.771 219.971 135.932 219.971 138.417 215.897C140.901 211.823 138.135 206.256 132.604 195.122L122.036 173.852C120.192 170.14 122.86 165.766 126.967 165.766C129.054 165.766 130.962 166.956 131.899 168.841L152.606 210.52C154.891 215.118 156.033 217.418 158.08 218.694C160.126 219.97 162.671 219.97 167.761 219.97H167.761H172.835C180.83 219.97 184.828 219.97 187.312 217.459C189.795 214.947 189.795 210.905 189.795 202.82V178.529C189.795 174.626 189.795 172.675 190.412 171.131C191.274 168.972 192.966 167.26 195.102 166.389C196.629 165.765 198.558 165.765 202.417 165.765Z" fill="white"/>
<path d="M202.417 165.765C206.276 165.765 208.206 165.765 209.733 165.142C211.868 164.271 213.561 162.559 214.423 160.4C215.039 158.856 215.039 156.905 215.039 153.002V153.002V127.894C215.039 119.81 215.039 115.767 212.555 113.256C210.072 110.744 206.074 110.744 198.079 110.744H182.71C170.387 110.744 164.226 110.744 161.741 114.818C159.257 118.892 162.023 124.459 167.555 135.593L178.122 156.863C179.966 160.574 177.298 164.949 173.191 164.949C171.104 164.949 169.196 163.759 168.26 161.874L147.552 120.195C145.268 115.597 144.125 113.297 142.079 112.021C140.032 110.744 137.487 110.744 132.398 110.744L127.323 110.744C119.328 110.744 115.33 110.744 112.847 113.256C110.363 115.768 110.363 119.81 110.363 127.894L110.363 152.186C110.363 156.089 110.363 158.04 109.747 159.584C108.885 161.743 107.192 163.455 105.057 164.326C103.53 164.95 101.6 164.95 97.741 164.95H97.7409C93.8819 164.95 91.9523 164.95 90.4253 165.573C88.2902 166.444 86.5972 168.156 85.7355 170.315C85.1191 171.859 85.1191 173.81 85.1191 177.713V202.821C85.1191 210.905 85.1191 214.948 87.6029 217.459C90.0866 219.971 94.0841 219.971 102.079 219.971H102.079H117.449C129.771 219.971 135.932 219.971 138.417 215.897C140.901 211.823 138.135 206.256 132.604 195.122L122.036 173.852C120.192 170.14 122.86 165.766 126.967 165.766C129.054 165.766 130.962 166.956 131.899 168.841L152.606 210.52C154.891 215.118 156.033 217.418 158.08 218.694C160.126 219.97 162.671 219.97 167.761 219.97H167.761H172.835C180.83 219.97 184.828 219.97 187.312 217.459C189.795 214.947 189.795 210.905 189.795 202.82V178.529C189.795 174.626 189.795 172.675 190.412 171.131C191.274 168.972 192.966 167.26 195.102 166.389C196.629 165.765 198.558 165.765 202.417 165.765Z" stroke="white"/>
<path d="M129.415 399.441V329.623H137.87V360.714H175.097V329.623H183.552V399.441H175.097V368.214H137.87V399.441H129.415ZM218.74 400.532C214.013 400.532 209.865 399.407 206.297 397.157C202.751 394.907 199.978 391.76 197.978 387.714C196.001 383.669 195.013 378.941 195.013 373.532C195.013 368.078 196.001 363.316 197.978 359.248C199.978 355.18 202.751 352.021 206.297 349.771C209.865 347.521 214.013 346.396 218.74 346.396C223.467 346.396 227.603 347.521 231.149 349.771C234.717 352.021 237.49 355.18 239.467 359.248C241.467 363.316 242.467 368.078 242.467 373.532C242.467 378.941 241.467 383.669 239.467 387.714C237.49 391.76 234.717 394.907 231.149 397.157C227.603 399.407 223.467 400.532 218.74 400.532ZM218.74 393.305C222.331 393.305 225.285 392.385 227.603 390.544C229.922 388.703 231.638 386.282 232.751 383.282C233.865 380.282 234.422 377.032 234.422 373.532C234.422 370.032 233.865 366.771 232.751 363.748C231.638 360.725 229.922 358.282 227.603 356.419C225.285 354.555 222.331 353.623 218.74 353.623C215.149 353.623 212.194 354.555 209.876 356.419C207.558 358.282 205.842 360.725 204.728 363.748C203.615 366.771 203.058 370.032 203.058 373.532C203.058 377.032 203.615 380.282 204.728 383.282C205.842 386.282 207.558 388.703 209.876 390.544C212.194 392.385 215.149 393.305 218.74 393.305ZM262.911 399.441L246.956 347.078H255.411L266.729 387.169H267.274L278.456 347.078H287.047L298.093 387.032H298.638L309.956 347.078H318.411L302.456 399.441H294.547L283.093 359.214H282.274L270.82 399.441H262.911ZM364.071 399.441L348.116 347.078H356.571L367.889 387.169H368.434L379.616 347.078H388.207L399.253 387.032H399.798L411.116 347.078H419.571L403.616 399.441H395.707L384.253 359.214H383.434L371.98 399.441H364.071ZM448.46 400.532C443.415 400.532 439.063 399.419 435.404 397.191C431.767 394.941 428.96 391.805 426.983 387.782C425.029 383.737 424.051 379.032 424.051 373.669C424.051 368.305 425.029 363.578 426.983 359.487C428.96 355.373 431.71 352.169 435.233 349.873C438.779 347.555 442.915 346.396 447.642 346.396C450.369 346.396 453.063 346.85 455.722 347.76C458.381 348.669 460.801 350.146 462.983 352.191C465.165 354.214 466.904 356.896 468.199 360.237C469.494 363.578 470.142 367.691 470.142 372.578V375.987H429.779V369.032H461.96C461.96 366.078 461.369 363.441 460.188 361.123C459.029 358.805 457.369 356.975 455.21 355.635C453.074 354.294 450.551 353.623 447.642 353.623C444.438 353.623 441.665 354.419 439.324 356.01C437.006 357.578 435.222 359.623 433.972 362.146C432.722 364.669 432.097 367.373 432.097 370.26V374.896C432.097 378.85 432.779 382.203 434.142 384.953C435.529 387.68 437.449 389.76 439.904 391.191C442.358 392.6 445.21 393.305 448.46 393.305C450.574 393.305 452.483 393.01 454.188 392.419C455.915 391.805 457.404 390.896 458.654 389.691C459.904 388.464 460.869 386.941 461.551 385.123L469.324 387.305C468.506 389.941 467.131 392.26 465.199 394.26C463.267 396.237 460.881 397.782 458.04 398.896C455.199 399.987 452.006 400.532 448.46 400.532ZM506.632 399.441V329.623H514.677V355.396H515.359C515.95 354.487 516.768 353.328 517.814 351.919C518.882 350.487 520.404 349.214 522.382 348.1C524.382 346.964 527.086 346.396 530.495 346.396C534.904 346.396 538.791 347.498 542.154 349.703C545.518 351.907 548.143 355.032 550.029 359.078C551.916 363.123 552.859 367.896 552.859 373.396C552.859 378.941 551.916 383.748 550.029 387.816C548.143 391.862 545.529 394.998 542.189 397.225C538.848 399.43 534.995 400.532 530.632 400.532C527.268 400.532 524.575 399.975 522.552 398.862C520.529 397.725 518.973 396.441 517.882 395.01C516.791 393.555 515.95 392.35 515.359 391.396H514.404V399.441H506.632ZM514.541 373.26C514.541 377.214 515.12 380.703 516.279 383.725C517.439 386.725 519.132 389.078 521.359 390.782C523.586 392.464 526.314 393.305 529.541 393.305C532.904 393.305 535.711 392.419 537.961 390.646C540.234 388.85 541.939 386.441 543.075 383.419C544.234 380.373 544.814 376.987 544.814 373.26C544.814 369.578 544.245 366.26 543.109 363.305C541.995 360.328 540.302 357.975 538.029 356.248C535.779 354.498 532.95 353.623 529.541 353.623C526.268 353.623 523.518 354.453 521.291 356.112C519.064 357.748 517.382 360.044 516.245 362.998C515.109 365.93 514.541 369.35 514.541 373.26ZM596.246 378.032V347.078H604.291V399.441H596.246V390.578H595.7C594.473 393.237 592.564 395.498 589.973 397.362C587.382 399.203 584.109 400.123 580.155 400.123C576.882 400.123 573.973 399.407 571.428 397.975C568.882 396.521 566.882 394.339 565.428 391.43C563.973 388.498 563.246 384.805 563.246 380.35V347.078H571.291V379.805C571.291 383.623 572.359 386.669 574.496 388.941C576.655 391.214 579.405 392.35 582.746 392.35C584.746 392.35 586.78 391.839 588.848 390.816C590.939 389.794 592.689 388.225 594.098 386.112C595.53 383.998 596.246 381.305 596.246 378.032ZM617.107 399.441V347.078H625.153V399.441H617.107ZM621.198 338.35C619.63 338.35 618.278 337.816 617.141 336.748C616.028 335.68 615.471 334.396 615.471 332.896C615.471 331.396 616.028 330.112 617.141 329.044C618.278 327.975 619.63 327.441 621.198 327.441C622.766 327.441 624.107 327.975 625.221 329.044C626.357 330.112 626.925 331.396 626.925 332.896C626.925 334.396 626.357 335.68 625.221 336.748C624.107 337.816 622.766 338.35 621.198 338.35ZM646.014 329.623V399.441H637.968V329.623H646.014ZM681.602 347.078V353.896H654.466V347.078H681.602ZM662.375 334.532H670.42V384.441C670.42 386.714 670.75 388.419 671.409 389.555C672.091 390.669 672.955 391.419 674 391.805C675.068 392.169 676.193 392.35 677.375 392.35C678.261 392.35 678.989 392.305 679.557 392.214C680.125 392.1 680.58 392.01 680.92 391.941L682.557 399.169C682.011 399.373 681.25 399.578 680.273 399.782C679.295 400.01 678.057 400.123 676.557 400.123C674.284 400.123 672.057 399.635 669.875 398.657C667.716 397.68 665.92 396.191 664.489 394.191C663.08 392.191 662.375 389.669 662.375 386.623V334.532ZM716.865 399.441V347.078H724.637V354.987H725.183C726.137 352.396 727.865 350.294 730.365 348.68C732.865 347.066 735.683 346.26 738.819 346.26C739.41 346.26 740.149 346.271 741.035 346.294C741.921 346.316 742.592 346.35 743.046 346.396V354.578C742.774 354.51 742.149 354.407 741.171 354.271C740.217 354.112 739.205 354.032 738.137 354.032C735.592 354.032 733.319 354.566 731.319 355.635C729.342 356.68 727.774 358.135 726.615 359.998C725.478 361.839 724.91 363.941 724.91 366.305V399.441H716.865ZM771.024 400.532C765.979 400.532 761.626 399.419 757.967 397.191C754.331 394.941 751.524 391.805 749.547 387.782C747.592 383.737 746.615 379.032 746.615 373.669C746.615 368.305 747.592 363.578 749.547 359.487C751.524 355.373 754.274 352.169 757.797 349.873C761.342 347.555 765.479 346.396 770.206 346.396C772.933 346.396 775.626 346.85 778.285 347.76C780.945 348.669 783.365 350.146 785.547 352.191C787.729 354.214 789.467 356.896 790.763 360.237C792.058 363.578 792.706 367.691 792.706 372.578V375.987H752.342V369.032H784.524C784.524 366.078 783.933 363.441 782.751 361.123C781.592 358.805 779.933 356.975 777.774 355.635C775.638 354.294 773.115 353.623 770.206 353.623C767.001 353.623 764.229 354.419 761.888 356.01C759.57 357.578 757.785 359.623 756.535 362.146C755.285 364.669 754.66 367.373 754.66 370.26V374.896C754.66 378.85 755.342 382.203 756.706 384.953C758.092 387.68 760.013 389.76 762.467 391.191C764.922 392.6 767.774 393.305 771.024 393.305C773.138 393.305 775.047 393.01 776.751 392.419C778.479 391.805 779.967 390.896 781.217 389.691C782.467 388.464 783.433 386.941 784.115 385.123L791.888 387.305C791.07 389.941 789.695 392.26 787.763 394.26C785.831 396.237 783.445 397.782 780.604 398.896C777.763 399.987 774.57 400.532 771.024 400.532ZM826.343 347.078V353.896H798.115V347.078H826.343ZM806.57 399.441V339.85C806.57 336.85 807.275 334.35 808.684 332.35C810.093 330.35 811.922 328.85 814.172 327.85C816.422 326.85 818.797 326.35 821.297 326.35C823.275 326.35 824.888 326.51 826.138 326.828C827.388 327.146 828.32 327.441 828.934 327.714L826.615 334.669C826.206 334.532 825.638 334.362 824.911 334.157C824.206 333.953 823.275 333.85 822.115 333.85C819.456 333.85 817.536 334.521 816.354 335.862C815.195 337.203 814.615 339.169 814.615 341.76V399.441H806.57ZM855.497 400.532C850.451 400.532 846.099 399.419 842.44 397.191C838.803 394.941 835.997 391.805 834.019 387.782C832.065 383.737 831.088 379.032 831.088 373.669C831.088 368.305 832.065 363.578 834.019 359.487C835.997 355.373 838.747 352.169 842.269 349.873C845.815 347.555 849.951 346.396 854.678 346.396C857.406 346.396 860.099 346.85 862.758 347.76C865.417 348.669 867.838 350.146 870.019 352.191C872.201 354.214 873.94 356.896 875.235 360.237C876.531 363.578 877.178 367.691 877.178 372.578V375.987H836.815V369.032H868.997C868.997 366.078 868.406 363.441 867.224 361.123C866.065 358.805 864.406 356.975 862.247 355.635C860.11 354.294 857.588 353.623 854.678 353.623C851.474 353.623 848.701 354.419 846.36 356.01C844.042 357.578 842.258 359.623 841.008 362.146C839.758 364.669 839.133 367.373 839.133 370.26V374.896C839.133 378.85 839.815 382.203 841.178 384.953C842.565 387.68 844.485 389.76 846.94 391.191C849.394 392.6 852.247 393.305 855.497 393.305C857.61 393.305 859.519 393.01 861.224 392.419C862.951 391.805 864.44 390.896 865.69 389.691C866.94 388.464 867.906 386.941 868.588 385.123L876.36 387.305C875.542 389.941 874.167 392.26 872.235 394.26C870.303 396.237 867.917 397.782 865.076 398.896C862.235 399.987 859.042 400.532 855.497 400.532ZM887.497 399.441V347.078H895.27V354.987H895.815C896.77 352.396 898.497 350.294 900.997 348.68C903.497 347.066 906.315 346.26 909.452 346.26C910.043 346.26 910.781 346.271 911.668 346.294C912.554 346.316 913.224 346.35 913.679 346.396V354.578C913.406 354.51 912.781 354.407 911.804 354.271C910.849 354.112 909.838 354.032 908.77 354.032C906.224 354.032 903.952 354.566 901.952 355.635C899.974 356.68 898.406 358.135 897.247 359.998C896.111 361.839 895.543 363.941 895.543 366.305V399.441H887.497ZM941.657 400.532C936.611 400.532 932.259 399.419 928.6 397.191C924.963 394.941 922.157 391.805 920.179 387.782C918.225 383.737 917.248 379.032 917.248 373.669C917.248 368.305 918.225 363.578 920.179 359.487C922.157 355.373 924.907 352.169 928.429 349.873C931.975 347.555 936.111 346.396 940.838 346.396C943.566 346.396 946.259 346.85 948.918 347.76C951.577 348.669 953.998 350.146 956.179 352.191C958.361 354.214 960.1 356.896 961.395 360.237C962.691 363.578 963.338 367.691 963.338 372.578V375.987H922.975V369.032H955.157C955.157 366.078 954.566 363.441 953.384 361.123C952.225 358.805 950.566 356.975 948.407 355.635C946.27 354.294 943.748 353.623 940.838 353.623C937.634 353.623 934.861 354.419 932.52 356.01C930.202 357.578 928.418 359.623 927.168 362.146C925.918 364.669 925.293 367.373 925.293 370.26V374.896C925.293 378.85 925.975 382.203 927.338 384.953C928.725 387.68 930.645 389.76 933.1 391.191C935.554 392.6 938.407 393.305 941.657 393.305C943.77 393.305 945.679 393.01 947.384 392.419C949.111 391.805 950.6 390.896 951.85 389.691C953.1 388.464 954.066 386.941 954.748 385.123L962.52 387.305C961.702 389.941 960.327 392.26 958.395 394.26C956.463 396.237 954.077 397.782 951.236 398.896C948.395 399.987 945.202 400.532 941.657 400.532ZM981.703 367.941V399.441H973.657V347.078H981.43V355.26H982.112C983.339 352.6 985.203 350.464 987.703 348.85C990.203 347.214 993.43 346.396 997.384 346.396C1000.93 346.396 1004.03 347.123 1006.69 348.578C1009.35 350.01 1011.42 352.191 1012.9 355.123C1014.37 358.032 1015.11 361.714 1015.11 366.169V399.441H1007.07V366.714C1007.07 362.6 1006 359.396 1003.86 357.1C1001.73 354.782 998.793 353.623 995.066 353.623C992.498 353.623 990.203 354.18 988.18 355.294C986.18 356.407 984.6 358.032 983.441 360.169C982.282 362.305 981.703 364.896 981.703 367.941ZM1050.67 347.078V353.896H1023.53V347.078H1050.67ZM1031.44 334.532H1039.48V384.441C1039.48 386.714 1039.81 388.419 1040.47 389.555C1041.15 390.669 1042.02 391.419 1043.06 391.805C1044.13 392.169 1045.26 392.35 1046.44 392.35C1047.33 392.35 1048.05 392.305 1048.62 392.214C1049.19 392.1 1049.64 392.01 1049.98 391.941L1051.62 399.169C1051.08 399.373 1050.31 399.578 1049.34 399.782C1048.36 400.01 1047.12 400.123 1045.62 400.123C1043.35 400.123 1041.12 399.635 1038.94 398.657C1036.78 397.68 1034.98 396.191 1033.55 394.191C1032.14 392.191 1031.44 389.669 1031.44 386.623V334.532ZM1060.85 399.441V347.078H1068.89V399.441H1060.85ZM1064.94 338.35C1063.37 338.35 1062.02 337.816 1060.88 336.748C1059.77 335.68 1059.21 334.396 1059.21 332.896C1059.21 331.396 1059.77 330.112 1060.88 329.044C1062.02 327.975 1063.37 327.441 1064.94 327.441C1066.51 327.441 1067.85 327.975 1068.96 329.044C1070.1 330.112 1070.67 331.396 1070.67 332.896C1070.67 334.396 1070.1 335.68 1068.96 336.748C1067.85 337.816 1066.51 338.35 1064.94 338.35ZM1097.12 400.669C1093.8 400.669 1090.79 400.044 1088.08 398.794C1085.38 397.521 1083.23 395.691 1081.64 393.305C1080.05 390.896 1079.26 387.987 1079.26 384.578C1079.26 381.578 1079.85 379.146 1081.03 377.282C1082.21 375.396 1083.79 373.919 1085.77 372.85C1087.74 371.782 1089.93 370.987 1092.31 370.464C1094.72 369.919 1097.14 369.487 1099.57 369.169C1102.76 368.76 1105.33 368.453 1107.31 368.248C1109.31 368.021 1110.77 367.646 1111.68 367.123C1112.61 366.6 1113.07 365.691 1113.07 364.396V364.123C1113.07 360.76 1112.15 358.146 1110.31 356.282C1108.49 354.419 1105.73 353.487 1102.03 353.487C1098.19 353.487 1095.18 354.328 1092.99 356.01C1090.81 357.691 1089.28 359.487 1088.39 361.396L1080.76 358.669C1082.12 355.487 1083.94 353.01 1086.21 351.237C1088.51 349.441 1091.01 348.191 1093.71 347.487C1096.44 346.76 1099.12 346.396 1101.76 346.396C1103.44 346.396 1105.37 346.6 1107.55 347.01C1109.76 347.396 1111.88 348.203 1113.93 349.43C1115.99 350.657 1117.71 352.51 1119.07 354.987C1120.44 357.464 1121.12 360.782 1121.12 364.941V399.441H1113.07V392.35H1112.66C1112.12 393.487 1111.21 394.703 1109.94 395.998C1108.66 397.294 1106.97 398.396 1104.86 399.305C1102.74 400.214 1100.16 400.669 1097.12 400.669ZM1098.35 393.441C1101.53 393.441 1104.21 392.816 1106.39 391.566C1108.6 390.316 1110.26 388.703 1111.37 386.725C1112.51 384.748 1113.07 382.669 1113.07 380.487V373.123C1112.73 373.532 1111.98 373.907 1110.82 374.248C1109.69 374.566 1108.37 374.85 1106.87 375.1C1105.39 375.328 1103.95 375.532 1102.54 375.714C1101.15 375.873 1100.03 376.01 1099.16 376.123C1097.07 376.396 1095.12 376.839 1093.3 377.453C1091.51 378.044 1090.05 378.941 1088.94 380.146C1087.85 381.328 1087.3 382.941 1087.3 384.987C1087.3 387.782 1088.33 389.896 1090.4 391.328C1092.49 392.737 1095.14 393.441 1098.35 393.441ZM1141.93 329.623V399.441H1133.88V329.623H1141.93ZM1179.82 399.441V347.078H1187.87V399.441H1179.82ZM1183.92 338.35C1182.35 338.35 1181 337.816 1179.86 336.748C1178.75 335.68 1178.19 334.396 1178.19 332.896C1178.19 331.396 1178.75 330.112 1179.86 329.044C1181 327.975 1182.35 327.441 1183.92 327.441C1185.48 327.441 1186.82 327.975 1187.94 329.044C1189.07 330.112 1189.64 331.396 1189.64 332.896C1189.64 334.396 1189.07 335.68 1187.94 336.748C1186.82 337.816 1185.48 338.35 1183.92 338.35ZM1208.73 367.941V399.441H1200.69V347.078H1208.46V355.26H1209.14C1210.37 352.6 1212.23 350.464 1214.73 348.85C1217.23 347.214 1220.46 346.396 1224.41 346.396C1227.96 346.396 1231.06 347.123 1233.72 348.578C1236.38 350.01 1238.45 352.191 1239.92 355.123C1241.4 358.032 1242.14 361.714 1242.14 366.169V399.441H1234.09V366.714C1234.09 362.6 1233.03 359.396 1230.89 357.1C1228.75 354.782 1225.82 353.623 1222.09 353.623C1219.53 353.623 1217.23 354.18 1215.21 355.294C1213.21 356.407 1211.63 358.032 1210.47 360.169C1209.31 362.305 1208.73 364.896 1208.73 367.941ZM1277.69 347.078V353.896H1250.56V347.078H1277.69ZM1258.47 334.532H1266.51V384.441C1266.51 386.714 1266.84 388.419 1267.5 389.555C1268.18 390.669 1269.05 391.419 1270.09 391.805C1271.16 392.169 1272.29 392.35 1273.47 392.35C1274.35 392.35 1275.08 392.305 1275.65 392.214C1276.22 392.1 1276.67 392.01 1277.01 391.941L1278.65 399.169C1278.1 399.373 1277.34 399.578 1276.37 399.782C1275.39 400.01 1274.15 400.123 1272.65 400.123C1270.38 400.123 1268.15 399.635 1265.97 398.657C1263.81 397.68 1262.01 396.191 1260.58 394.191C1259.17 392.191 1258.47 389.669 1258.47 386.623V334.532ZM1309.27 400.532C1304.22 400.532 1299.87 399.419 1296.21 397.191C1292.58 394.941 1289.77 391.805 1287.79 387.782C1285.84 383.737 1284.86 379.032 1284.86 373.669C1284.86 368.305 1285.84 363.578 1287.79 359.487C1289.77 355.373 1292.52 352.169 1296.04 349.873C1299.59 347.555 1303.72 346.396 1308.45 346.396C1311.18 346.396 1313.87 346.85 1316.53 347.76C1319.19 348.669 1321.61 350.146 1323.79 352.191C1325.97 354.214 1327.71 356.896 1329.01 360.237C1330.3 363.578 1330.95 367.691 1330.95 372.578V375.987H1290.59V369.032H1322.77C1322.77 366.078 1322.18 363.441 1321 361.123C1319.84 358.805 1318.18 356.975 1316.02 355.635C1313.88 354.294 1311.36 353.623 1308.45 353.623C1305.25 353.623 1302.47 354.419 1300.13 356.01C1297.81 357.578 1296.03 359.623 1294.78 362.146C1293.53 364.669 1292.91 367.373 1292.91 370.26V374.896C1292.91 378.85 1293.59 382.203 1294.95 384.953C1296.34 387.68 1298.26 389.76 1300.71 391.191C1303.17 392.6 1306.02 393.305 1309.27 393.305C1311.38 393.305 1313.29 393.01 1315 392.419C1316.72 391.805 1318.21 390.896 1319.46 389.691C1320.71 388.464 1321.68 386.941 1322.36 385.123L1330.13 387.305C1329.31 389.941 1327.94 392.26 1326.01 394.26C1324.08 396.237 1321.69 397.782 1318.85 398.896C1316.01 399.987 1312.81 400.532 1309.27 400.532ZM1362.41 420.169C1358.52 420.169 1355.18 419.669 1352.38 418.669C1349.59 417.691 1347.26 416.396 1345.39 414.782C1343.55 413.191 1342.09 411.487 1341 409.669L1347.41 405.169C1348.13 406.123 1349.05 407.214 1350.17 408.441C1351.28 409.691 1352.8 410.771 1354.74 411.68C1356.69 412.612 1359.25 413.078 1362.41 413.078C1366.63 413.078 1370.12 412.055 1372.87 410.01C1375.62 407.964 1377 404.76 1377 400.396V389.76H1376.31C1375.72 390.714 1374.88 391.896 1373.79 393.305C1372.72 394.691 1371.18 395.93 1369.16 397.021C1367.16 398.089 1364.45 398.623 1361.04 398.623C1356.81 398.623 1353.02 397.623 1349.66 395.623C1346.31 393.623 1343.67 390.714 1341.71 386.896C1339.78 383.078 1338.81 378.441 1338.81 372.987C1338.81 367.623 1339.76 362.953 1341.64 358.975C1343.53 354.975 1346.16 351.885 1349.52 349.703C1352.88 347.498 1356.77 346.396 1361.18 346.396C1364.59 346.396 1367.29 346.964 1369.29 348.1C1371.31 349.214 1372.86 350.487 1373.93 351.919C1375.02 353.328 1375.86 354.487 1376.45 355.396H1377.27V347.078H1385.04V400.941C1385.04 405.441 1384.02 409.1 1381.97 411.919C1379.95 414.76 1377.22 416.839 1373.79 418.157C1370.38 419.498 1366.59 420.169 1362.41 420.169ZM1362.13 391.396C1365.36 391.396 1368.09 390.657 1370.31 389.18C1372.54 387.703 1374.24 385.578 1375.39 382.805C1376.55 380.032 1377.13 376.714 1377.13 372.85C1377.13 369.078 1376.56 365.748 1375.43 362.862C1374.29 359.975 1372.61 357.714 1370.38 356.078C1368.16 354.441 1365.41 353.623 1362.13 353.623C1358.72 353.623 1355.88 354.487 1353.61 356.214C1351.36 357.941 1349.67 360.26 1348.53 363.169C1347.42 366.078 1346.86 369.305 1346.86 372.85C1346.86 376.487 1347.43 379.703 1348.56 382.498C1349.72 385.271 1351.43 387.453 1353.68 389.044C1355.95 390.612 1358.77 391.396 1362.13 391.396ZM1397.85 399.441V347.078H1405.62V354.987H1406.17C1407.12 352.396 1408.85 350.294 1411.35 348.68C1413.85 347.066 1416.67 346.26 1419.8 346.26C1420.4 346.26 1421.13 346.271 1422.02 346.294C1422.91 346.316 1423.58 346.35 1424.03 346.396V354.578C1423.76 354.51 1423.13 354.407 1422.16 354.271C1421.2 354.112 1420.19 354.032 1419.12 354.032C1416.58 354.032 1414.3 354.566 1412.3 355.635C1410.33 356.68 1408.76 358.135 1407.6 359.998C1406.46 361.839 1405.9 363.941 1405.9 366.305V399.441H1397.85ZM1431.65 399.441V347.078H1439.69V399.441H1431.65ZM1435.74 338.35C1434.17 338.35 1432.82 337.816 1431.68 336.748C1430.57 335.68 1430.01 334.396 1430.01 332.896C1430.01 331.396 1430.57 330.112 1431.68 329.044C1432.82 327.975 1434.17 327.441 1435.74 327.441C1437.31 327.441 1438.65 327.975 1439.76 329.044C1440.9 330.112 1441.47 331.396 1441.47 332.896C1441.47 334.396 1440.9 335.68 1439.76 336.748C1438.65 337.816 1437.31 338.35 1435.74 338.35ZM1475.28 347.078V353.896H1448.15V347.078H1475.28ZM1456.06 334.532H1464.1V384.441C1464.1 386.714 1464.43 388.419 1465.09 389.555C1465.77 390.669 1466.63 391.419 1467.68 391.805C1468.75 392.169 1469.87 392.35 1471.06 392.35C1471.94 392.35 1472.67 392.305 1473.24 392.214C1473.81 392.1 1474.26 392.01 1474.6 391.941L1476.24 399.169C1475.69 399.373 1474.93 399.578 1473.95 399.782C1472.98 400.01 1471.74 400.123 1470.24 400.123C1467.96 400.123 1465.74 399.635 1463.56 398.657C1461.4 397.68 1459.6 396.191 1458.17 394.191C1456.76 392.191 1456.06 389.669 1456.06 386.623V334.532ZM1490.65 419.078C1489.28 419.078 1488.07 418.964 1487 418.737C1485.93 418.532 1485.19 418.328 1484.78 418.123L1486.83 411.032C1488.78 411.532 1490.51 411.714 1492.01 411.578C1493.51 411.441 1494.84 410.771 1496 409.566C1497.18 408.385 1498.26 406.464 1499.24 403.805L1500.74 399.714L1481.37 347.078H1490.1L1504.56 388.805H1505.1L1519.56 347.078H1528.28L1506.06 407.078C1505.06 409.782 1503.82 412.021 1502.34 413.794C1500.86 415.589 1499.15 416.919 1497.19 417.782C1495.26 418.646 1493.08 419.078 1490.65 419.078ZM128.325 515.441V463.078H136.37V515.441H128.325ZM132.415 454.35C130.847 454.35 129.495 453.816 128.359 452.748C127.245 451.68 126.688 450.396 126.688 448.896C126.688 447.396 127.245 446.112 128.359 445.044C129.495 443.975 130.847 443.441 132.415 443.441C133.984 443.441 135.325 443.975 136.438 445.044C137.575 446.112 138.143 447.396 138.143 448.896C138.143 450.396 137.575 451.68 136.438 452.748C135.325 453.816 133.984 454.35 132.415 454.35ZM157.231 483.941V515.441H149.186V463.078H156.959V471.26H157.64C158.868 468.6 160.731 466.464 163.231 464.85C165.731 463.214 168.959 462.396 172.913 462.396C176.459 462.396 179.561 463.123 182.22 464.578C184.879 466.01 186.947 468.191 188.424 471.123C189.902 474.032 190.64 477.714 190.64 482.169V515.441H182.595V482.714C182.595 478.6 181.527 475.396 179.39 473.1C177.254 470.782 174.322 469.623 170.595 469.623C168.027 469.623 165.731 470.18 163.709 471.294C161.709 472.407 160.129 474.032 158.97 476.169C157.811 478.305 157.231 480.896 157.231 483.941ZM226.195 463.078V469.896H199.058V463.078H226.195ZM206.968 450.532H215.013V500.441C215.013 502.714 215.343 504.419 216.002 505.555C216.683 506.669 217.547 507.419 218.593 507.805C219.661 508.169 220.786 508.35 221.968 508.35C222.854 508.35 223.581 508.305 224.149 508.214C224.718 508.1 225.172 508.01 225.513 507.941L227.149 515.169C226.604 515.373 225.843 515.578 224.865 515.782C223.888 516.01 222.649 516.123 221.149 516.123C218.877 516.123 216.649 515.635 214.468 514.657C212.308 513.68 210.513 512.191 209.081 510.191C207.672 508.191 206.968 505.669 206.968 502.623V450.532ZM257.087 516.532C252.36 516.532 248.212 515.407 244.644 513.157C241.099 510.907 238.326 507.76 236.326 503.714C234.349 499.669 233.36 494.941 233.36 489.532C233.36 484.078 234.349 479.316 236.326 475.248C238.326 471.18 241.099 468.021 244.644 465.771C248.212 463.521 252.36 462.396 257.087 462.396C261.815 462.396 265.951 463.521 269.496 465.771C273.065 468.021 275.837 471.18 277.815 475.248C279.815 479.316 280.815 484.078 280.815 489.532C280.815 494.941 279.815 499.669 277.815 503.714C275.837 507.76 273.065 510.907 269.496 513.157C265.951 515.407 261.815 516.532 257.087 516.532ZM257.087 509.305C260.678 509.305 263.633 508.385 265.951 506.544C268.269 504.703 269.985 502.282 271.099 499.282C272.212 496.282 272.769 493.032 272.769 489.532C272.769 486.032 272.212 482.771 271.099 479.748C269.985 476.725 268.269 474.282 265.951 472.419C263.633 470.555 260.678 469.623 257.087 469.623C253.496 469.623 250.542 470.555 248.224 472.419C245.905 474.282 244.19 476.725 243.076 479.748C241.962 482.771 241.405 486.032 241.405 489.532C241.405 493.032 241.962 496.282 243.076 499.282C244.19 502.282 245.905 504.703 248.224 506.544C250.542 508.385 253.496 509.305 257.087 509.305ZM337.529 516.532C332.801 516.532 328.654 515.407 325.085 513.157C321.54 510.907 318.767 507.76 316.767 503.714C314.79 499.669 313.801 494.941 313.801 489.532C313.801 484.078 314.79 479.316 316.767 475.248C318.767 471.18 321.54 468.021 325.085 465.771C328.654 463.521 332.801 462.396 337.529 462.396C342.256 462.396 346.392 463.521 349.938 465.771C353.506 468.021 356.279 471.18 358.256 475.248C360.256 479.316 361.256 484.078 361.256 489.532C361.256 494.941 360.256 499.669 358.256 503.714C356.279 507.76 353.506 510.907 349.938 513.157C346.392 515.407 342.256 516.532 337.529 516.532ZM337.529 509.305C341.119 509.305 344.074 508.385 346.392 506.544C348.71 504.703 350.426 502.282 351.54 499.282C352.654 496.282 353.21 493.032 353.21 489.532C353.21 486.032 352.654 482.771 351.54 479.748C350.426 476.725 348.71 474.282 346.392 472.419C344.074 470.555 341.119 469.623 337.529 469.623C333.938 469.623 330.983 470.555 328.665 472.419C326.347 474.282 324.631 476.725 323.517 479.748C322.404 482.771 321.847 486.032 321.847 489.532C321.847 493.032 322.404 496.282 323.517 499.282C324.631 502.282 326.347 504.703 328.665 506.544C330.983 508.385 333.938 509.305 337.529 509.305ZM404.617 494.032V463.078H412.663V515.441H404.617V506.578H404.072C402.844 509.237 400.935 511.498 398.344 513.362C395.753 515.203 392.481 516.123 388.526 516.123C385.253 516.123 382.344 515.407 379.799 513.975C377.253 512.521 375.253 510.339 373.799 507.43C372.344 504.498 371.617 500.805 371.617 496.35V463.078H379.663V495.805C379.663 499.623 380.731 502.669 382.867 504.941C385.026 507.214 387.776 508.35 391.117 508.35C393.117 508.35 395.151 507.839 397.219 506.816C399.31 505.794 401.06 504.225 402.469 502.112C403.901 499.998 404.617 497.305 404.617 494.032ZM425.478 515.441V463.078H433.251V470.987H433.797C434.751 468.396 436.478 466.294 438.978 464.68C441.478 463.066 444.297 462.26 447.433 462.26C448.024 462.26 448.762 462.271 449.649 462.294C450.535 462.316 451.206 462.35 451.66 462.396V470.578C451.387 470.51 450.762 470.407 449.785 470.271C448.831 470.112 447.819 470.032 446.751 470.032C444.206 470.032 441.933 470.566 439.933 471.635C437.956 472.68 436.387 474.135 435.228 475.998C434.092 477.839 433.524 479.941 433.524 482.305V515.441H425.478ZM523.63 463.078C523.221 459.623 521.562 456.941 518.653 455.032C515.743 453.123 512.175 452.169 507.948 452.169C504.857 452.169 502.153 452.669 499.834 453.669C497.539 454.669 495.743 456.044 494.448 457.794C493.175 459.544 492.539 461.532 492.539 463.76C492.539 465.623 492.982 467.225 493.868 468.566C494.778 469.885 495.937 470.987 497.346 471.873C498.755 472.737 500.232 473.453 501.778 474.021C503.323 474.566 504.743 475.01 506.039 475.35L513.13 477.26C514.948 477.737 516.971 478.396 519.198 479.237C521.448 480.078 523.596 481.225 525.641 482.68C527.709 484.112 529.414 485.953 530.755 488.203C532.096 490.453 532.766 493.214 532.766 496.487C532.766 500.26 531.778 503.669 529.8 506.714C527.846 509.76 524.982 512.18 521.209 513.975C517.459 515.771 512.903 516.669 507.539 516.669C502.539 516.669 498.209 515.862 494.55 514.248C490.914 512.635 488.05 510.385 485.959 507.498C483.891 504.612 482.721 501.26 482.448 497.441H491.175C491.403 500.078 492.289 502.26 493.834 503.987C495.403 505.691 497.38 506.964 499.766 507.805C502.175 508.623 504.766 509.032 507.539 509.032C510.766 509.032 513.664 508.51 516.232 507.464C518.8 506.396 520.834 504.919 522.334 503.032C523.834 501.123 524.584 498.896 524.584 496.35C524.584 494.032 523.937 492.146 522.641 490.691C521.346 489.237 519.641 488.055 517.528 487.146C515.414 486.237 513.13 485.441 510.675 484.76L502.084 482.305C496.63 480.737 492.312 478.498 489.13 475.589C485.948 472.68 484.357 468.873 484.357 464.169C484.357 460.26 485.414 456.85 487.528 453.941C489.664 451.01 492.528 448.737 496.118 447.123C499.732 445.487 503.766 444.669 508.221 444.669C512.721 444.669 516.721 445.475 520.221 447.089C523.721 448.68 526.493 450.862 528.539 453.635C530.607 456.407 531.698 459.555 531.812 463.078H523.63ZM576.656 494.032V463.078H584.701V515.441H576.656V506.578H576.11C574.883 509.237 572.974 511.498 570.383 513.362C567.792 515.203 564.519 516.123 560.565 516.123C557.292 516.123 554.383 515.407 551.838 513.975C549.292 512.521 547.292 510.339 545.838 507.43C544.383 504.498 543.656 500.805 543.656 496.35V463.078H551.701V495.805C551.701 499.623 552.769 502.669 554.906 504.941C557.065 507.214 559.815 508.35 563.156 508.35C565.156 508.35 567.19 507.839 569.258 506.816C571.349 505.794 573.099 504.225 574.508 502.112C575.94 499.998 576.656 497.305 576.656 494.032ZM598.608 515.441V445.623H606.653V471.396H607.335C607.926 470.487 608.744 469.328 609.79 467.919C610.858 466.487 612.381 465.214 614.358 464.1C616.358 462.964 619.063 462.396 622.472 462.396C626.881 462.396 630.767 463.498 634.131 465.703C637.494 467.907 640.119 471.032 642.006 475.078C643.892 479.123 644.835 483.896 644.835 489.396C644.835 494.941 643.892 499.748 642.006 503.816C640.119 507.862 637.506 510.998 634.165 513.225C630.824 515.43 626.972 516.532 622.608 516.532C619.244 516.532 616.551 515.975 614.528 514.862C612.506 513.725 610.949 512.441 609.858 511.01C608.767 509.555 607.926 508.35 607.335 507.396H606.381V515.441H598.608ZM606.517 489.26C606.517 493.214 607.097 496.703 608.256 499.725C609.415 502.725 611.108 505.078 613.335 506.782C615.563 508.464 618.29 509.305 621.517 509.305C624.881 509.305 627.688 508.419 629.938 506.646C632.21 504.85 633.915 502.441 635.051 499.419C636.21 496.373 636.79 492.987 636.79 489.26C636.79 485.578 636.222 482.26 635.085 479.305C633.972 476.328 632.278 473.975 630.006 472.248C627.756 470.498 624.926 469.623 621.517 469.623C618.244 469.623 615.494 470.453 613.267 472.112C611.04 473.748 609.358 476.044 608.222 478.998C607.085 481.93 606.517 485.35 606.517 489.26ZM692.313 474.805L685.086 476.85C684.631 475.646 683.961 474.475 683.074 473.339C682.211 472.18 681.029 471.225 679.529 470.475C678.029 469.725 676.108 469.35 673.768 469.35C670.563 469.35 667.893 470.089 665.756 471.566C663.643 473.021 662.586 474.873 662.586 477.123C662.586 479.123 663.313 480.703 664.768 481.862C666.222 483.021 668.495 483.987 671.586 484.76L679.358 486.669C684.04 487.805 687.529 489.544 689.824 491.885C692.12 494.203 693.268 497.191 693.268 500.85C693.268 503.85 692.404 506.532 690.677 508.896C688.972 511.26 686.586 513.123 683.518 514.487C680.449 515.85 676.881 516.532 672.813 516.532C667.472 516.532 663.052 515.373 659.552 513.055C656.052 510.737 653.836 507.35 652.904 502.896L660.54 500.987C661.268 503.805 662.643 505.919 664.665 507.328C666.711 508.737 669.381 509.441 672.677 509.441C676.427 509.441 679.404 508.646 681.608 507.055C683.836 505.441 684.949 503.51 684.949 501.26C684.949 499.441 684.313 497.919 683.04 496.691C681.768 495.441 679.813 494.51 677.177 493.896L668.449 491.85C663.654 490.714 660.131 488.953 657.881 486.566C655.654 484.157 654.54 481.146 654.54 477.532C654.54 474.578 655.37 471.964 657.029 469.691C658.711 467.419 660.995 465.635 663.881 464.339C666.79 463.044 670.086 462.396 673.768 462.396C678.949 462.396 683.018 463.532 685.972 465.805C688.949 468.078 691.063 471.078 692.313 474.805ZM725.413 516.532C720.367 516.532 716.015 515.419 712.356 513.191C708.72 510.941 705.913 507.805 703.936 503.782C701.981 499.737 701.004 495.032 701.004 489.669C701.004 484.305 701.981 479.578 703.936 475.487C705.913 471.373 708.663 468.169 712.186 465.873C715.731 463.555 719.867 462.396 724.595 462.396C727.322 462.396 730.015 462.85 732.674 463.76C735.333 464.669 737.754 466.146 739.936 468.191C742.117 470.214 743.856 472.896 745.151 476.237C746.447 479.578 747.095 483.691 747.095 488.578V491.987H706.731V485.032H738.913C738.913 482.078 738.322 479.441 737.14 477.123C735.981 474.805 734.322 472.975 732.163 471.635C730.026 470.294 727.504 469.623 724.595 469.623C721.39 469.623 718.617 470.419 716.276 472.01C713.958 473.578 712.174 475.623 710.924 478.146C709.674 480.669 709.049 483.373 709.049 486.26V490.896C709.049 494.85 709.731 498.203 711.095 500.953C712.481 503.68 714.401 505.76 716.856 507.191C719.311 508.6 722.163 509.305 725.413 509.305C727.526 509.305 729.436 509.01 731.14 508.419C732.867 507.805 734.356 506.896 735.606 505.691C736.856 504.464 737.822 502.941 738.504 501.123L746.276 503.305C745.458 505.941 744.083 508.26 742.151 510.26C740.22 512.237 737.833 513.782 734.992 514.896C732.151 515.987 728.958 516.532 725.413 516.532ZM780.186 463.078V469.896H753.05V463.078H780.186ZM760.959 450.532H769.004V500.441C769.004 502.714 769.334 504.419 769.993 505.555C770.675 506.669 771.538 507.419 772.584 507.805C773.652 508.169 774.777 508.35 775.959 508.35C776.845 508.35 777.572 508.305 778.141 508.214C778.709 508.1 779.163 508.01 779.504 507.941L781.141 515.169C780.595 515.373 779.834 515.578 778.857 515.782C777.879 516.01 776.641 516.123 775.141 516.123C772.868 516.123 770.641 515.635 768.459 514.657C766.3 513.68 764.504 512.191 763.072 510.191C761.663 508.191 760.959 505.669 760.959 502.623V450.532ZM813.141 463.078V469.896H786.005V463.078H813.141ZM793.914 450.532H801.959V500.441C801.959 502.714 802.289 504.419 802.948 505.555C803.63 506.669 804.493 507.419 805.539 507.805C806.607 508.169 807.732 508.35 808.914 508.35C809.8 508.35 810.527 508.305 811.096 508.214C811.664 508.1 812.118 508.01 812.459 507.941L814.096 515.169C813.55 515.373 812.789 515.578 811.812 515.782C810.834 516.01 809.596 516.123 808.096 516.123C805.823 516.123 803.596 515.635 801.414 514.657C799.255 513.68 797.459 512.191 796.027 510.191C794.618 508.191 793.914 505.669 793.914 502.623V450.532ZM823.323 515.441V463.078H831.369V515.441H823.323ZM827.414 454.35C825.846 454.35 824.494 453.816 823.357 452.748C822.244 451.68 821.687 450.396 821.687 448.896C821.687 447.396 822.244 446.112 823.357 445.044C824.494 443.975 825.846 443.441 827.414 443.441C828.982 443.441 830.323 443.975 831.437 445.044C832.573 446.112 833.142 447.396 833.142 448.896C833.142 450.396 832.573 451.68 831.437 452.748C830.323 453.816 828.982 454.35 827.414 454.35ZM852.23 483.941V515.441H844.185V463.078H851.957V471.26H852.639C853.866 468.6 855.73 466.464 858.23 464.85C860.73 463.214 863.957 462.396 867.912 462.396C871.457 462.396 874.56 463.123 877.219 464.578C879.878 466.01 881.946 468.191 883.423 471.123C884.9 474.032 885.639 477.714 885.639 482.169V515.441H877.594V482.714C877.594 478.6 876.525 475.396 874.389 473.1C872.253 470.782 869.321 469.623 865.594 469.623C863.025 469.623 860.73 470.18 858.707 471.294C856.707 472.407 855.128 474.032 853.969 476.169C852.81 478.305 852.23 480.896 852.23 483.941ZM919.557 536.169C915.671 536.169 912.33 535.669 909.534 534.669C906.739 533.691 904.409 532.396 902.546 530.782C900.705 529.191 899.239 527.487 898.148 525.669L904.557 521.169C905.284 522.123 906.205 523.214 907.319 524.441C908.432 525.691 909.955 526.771 911.887 527.68C913.841 528.612 916.398 529.078 919.557 529.078C923.784 529.078 927.273 528.055 930.023 526.01C932.773 523.964 934.148 520.76 934.148 516.396V505.76H933.466C932.875 506.714 932.034 507.896 930.944 509.305C929.875 510.691 928.33 511.93 926.307 513.021C924.307 514.089 921.603 514.623 918.194 514.623C913.966 514.623 910.171 513.623 906.807 511.623C903.466 509.623 900.819 506.714 898.864 502.896C896.932 499.078 895.966 494.441 895.966 488.987C895.966 483.623 896.909 478.953 898.796 474.975C900.682 470.975 903.307 467.885 906.671 465.703C910.034 463.498 913.921 462.396 918.33 462.396C921.739 462.396 924.444 462.964 926.444 464.1C928.466 465.214 930.012 466.487 931.08 467.919C932.171 469.328 933.012 470.487 933.603 471.396H934.421V463.078H942.194V516.941C942.194 521.441 941.171 525.1 939.125 527.919C937.103 530.76 934.375 532.839 930.944 534.157C927.534 535.498 923.739 536.169 919.557 536.169ZM919.284 507.396C922.512 507.396 925.239 506.657 927.466 505.18C929.694 503.703 931.387 501.578 932.546 498.805C933.705 496.032 934.284 492.714 934.284 488.85C934.284 485.078 933.716 481.748 932.58 478.862C931.444 475.975 929.762 473.714 927.534 472.078C925.307 470.441 922.557 469.623 919.284 469.623C915.875 469.623 913.034 470.487 910.762 472.214C908.512 473.941 906.819 476.26 905.682 479.169C904.569 482.078 904.012 485.305 904.012 488.85C904.012 492.487 904.58 495.703 905.716 498.498C906.875 501.271 908.58 503.453 910.83 505.044C913.103 506.612 915.921 507.396 919.284 507.396ZM1003.4 463.078V469.896H975.172V463.078H1003.4ZM983.626 515.441V455.85C983.626 452.85 984.331 450.35 985.74 448.35C987.149 446.35 988.979 444.85 991.229 443.85C993.479 442.85 995.854 442.35 998.354 442.35C1000.33 442.35 1001.94 442.51 1003.19 442.828C1004.44 443.146 1005.38 443.441 1005.99 443.714L1003.67 450.669C1003.26 450.532 1002.69 450.362 1001.97 450.157C1001.26 449.953 1000.33 449.85 999.172 449.85C996.513 449.85 994.592 450.521 993.41 451.862C992.251 453.203 991.672 455.169 991.672 457.76V515.441H983.626ZM1032.55 516.532C1027.51 516.532 1023.16 515.419 1019.5 513.191C1015.86 510.941 1013.05 507.805 1011.08 503.782C1009.12 499.737 1008.14 495.032 1008.14 489.669C1008.14 484.305 1009.12 479.578 1011.08 475.487C1013.05 471.373 1015.8 468.169 1019.33 465.873C1022.87 463.555 1027.01 462.396 1031.73 462.396C1034.46 462.396 1037.16 462.85 1039.81 463.76C1042.47 464.669 1044.89 466.146 1047.08 468.191C1049.26 470.214 1051 472.896 1052.29 476.237C1053.59 479.578 1054.23 483.691 1054.23 488.578V491.987H1013.87V485.032H1046.05C1046.05 482.078 1045.46 479.441 1044.28 477.123C1043.12 474.805 1041.46 472.975 1039.3 471.635C1037.17 470.294 1034.64 469.623 1031.73 469.623C1028.53 469.623 1025.76 470.419 1023.42 472.01C1021.1 473.578 1019.31 475.623 1018.06 478.146C1016.81 480.669 1016.19 483.373 1016.19 486.26V490.896C1016.19 494.85 1016.87 498.203 1018.23 500.953C1019.62 503.68 1021.54 505.76 1024 507.191C1026.45 508.6 1029.3 509.305 1032.55 509.305C1034.67 509.305 1036.58 509.01 1038.28 508.419C1040.01 507.805 1041.5 506.896 1042.75 505.691C1044 504.464 1044.96 502.941 1045.64 501.123L1053.42 503.305C1052.6 505.941 1051.22 508.26 1049.29 510.26C1047.36 512.237 1044.97 513.782 1042.13 514.896C1039.29 515.987 1036.1 516.532 1032.55 516.532ZM1079.96 516.669C1076.64 516.669 1073.63 516.044 1070.93 514.794C1068.22 513.521 1066.08 511.691 1064.49 509.305C1062.89 506.896 1062.1 503.987 1062.1 500.578C1062.1 497.578 1062.69 495.146 1063.87 493.282C1065.05 491.396 1066.63 489.919 1068.61 488.85C1070.59 487.782 1072.77 486.987 1075.16 486.464C1077.56 485.919 1079.99 485.487 1082.42 485.169C1085.6 484.76 1088.18 484.453 1090.16 484.248C1092.16 484.021 1093.61 483.646 1094.52 483.123C1095.45 482.6 1095.92 481.691 1095.92 480.396V480.123C1095.92 476.76 1095 474.146 1093.16 472.282C1091.34 470.419 1088.58 469.487 1084.87 469.487C1081.03 469.487 1078.02 470.328 1075.84 472.01C1073.66 473.691 1072.12 475.487 1071.24 477.396L1063.6 474.669C1064.96 471.487 1066.78 469.01 1069.05 467.237C1071.35 465.441 1073.85 464.191 1076.55 463.487C1079.28 462.76 1081.96 462.396 1084.6 462.396C1086.28 462.396 1088.21 462.6 1090.39 463.01C1092.6 463.396 1094.72 464.203 1096.77 465.43C1098.84 466.657 1100.55 468.51 1101.92 470.987C1103.28 473.464 1103.96 476.782 1103.96 480.941V515.441H1095.92V508.35H1095.51C1094.96 509.487 1094.05 510.703 1092.78 511.998C1091.51 513.294 1089.81 514.396 1087.7 515.305C1085.59 516.214 1083.01 516.669 1079.96 516.669ZM1081.19 509.441C1084.37 509.441 1087.05 508.816 1089.24 507.566C1091.44 506.316 1093.1 504.703 1094.21 502.725C1095.35 500.748 1095.92 498.669 1095.92 496.487V489.123C1095.58 489.532 1094.83 489.907 1093.67 490.248C1092.53 490.566 1091.21 490.85 1089.71 491.1C1088.24 491.328 1086.79 491.532 1085.38 491.714C1084 491.873 1082.87 492.01 1082.01 492.123C1079.92 492.396 1077.96 492.839 1076.14 493.453C1074.35 494.044 1072.89 494.941 1071.78 496.146C1070.69 497.328 1070.14 498.941 1070.14 500.987C1070.14 503.782 1071.18 505.896 1073.25 507.328C1075.34 508.737 1077.99 509.441 1081.19 509.441ZM1139.5 463.078V469.896H1112.36V463.078H1139.5ZM1120.27 450.532H1128.32V500.441C1128.32 502.714 1128.65 504.419 1129.31 505.555C1129.99 506.669 1130.85 507.419 1131.9 507.805C1132.97 508.169 1134.09 508.35 1135.27 508.35C1136.16 508.35 1136.89 508.305 1137.45 508.214C1138.02 508.1 1138.48 508.01 1138.82 507.941L1140.45 515.169C1139.91 515.373 1139.15 515.578 1138.17 515.782C1137.19 516.01 1135.95 516.123 1134.45 516.123C1132.18 516.123 1129.95 515.635 1127.77 514.657C1125.61 513.68 1123.82 512.191 1122.39 510.191C1120.98 508.191 1120.27 505.669 1120.27 502.623V450.532ZM1182.68 494.032V463.078H1190.73V515.441H1182.68V506.578H1182.14C1180.91 509.237 1179 511.498 1176.41 513.362C1173.82 515.203 1170.55 516.123 1166.59 516.123C1163.32 516.123 1160.41 515.407 1157.86 513.975C1155.32 512.521 1153.32 510.339 1151.86 507.43C1150.41 504.498 1149.68 500.805 1149.68 496.35V463.078H1157.73V495.805C1157.73 499.623 1158.8 502.669 1160.93 504.941C1163.09 507.214 1165.84 508.35 1169.18 508.35C1171.18 508.35 1173.22 507.839 1175.28 506.816C1177.38 505.794 1179.13 504.225 1180.53 502.112C1181.97 499.998 1182.68 497.305 1182.68 494.032ZM1203.54 515.441V463.078H1211.32V470.987H1211.86C1212.82 468.396 1214.54 466.294 1217.04 464.68C1219.54 463.066 1222.36 462.26 1225.5 462.26C1226.09 462.26 1226.83 462.271 1227.71 462.294C1228.6 462.316 1229.27 462.35 1229.73 462.396V470.578C1229.45 470.51 1228.83 470.407 1227.85 470.271C1226.9 470.112 1225.88 470.032 1224.82 470.032C1222.27 470.032 1220 470.566 1218 471.635C1216.02 472.68 1214.45 474.135 1213.29 475.998C1212.16 477.839 1211.59 479.941 1211.59 482.305V515.441H1203.54ZM1257.7 516.532C1252.66 516.532 1248.31 515.419 1244.65 513.191C1241.01 510.941 1238.2 507.805 1236.23 503.782C1234.27 499.737 1233.29 495.032 1233.29 489.669C1233.29 484.305 1234.27 479.578 1236.23 475.487C1238.2 471.373 1240.95 468.169 1244.48 465.873C1248.02 463.555 1252.16 462.396 1256.88 462.396C1259.61 462.396 1262.31 462.85 1264.96 463.76C1267.62 464.669 1270.04 466.146 1272.23 468.191C1274.41 470.214 1276.15 472.896 1277.44 476.237C1278.74 479.578 1279.38 483.691 1279.38 488.578V491.987H1239.02V485.032H1271.2C1271.2 482.078 1270.61 479.441 1269.43 477.123C1268.27 474.805 1266.61 472.975 1264.45 471.635C1262.32 470.294 1259.79 469.623 1256.88 469.623C1253.68 469.623 1250.91 470.419 1248.57 472.01C1246.25 473.578 1244.46 475.623 1243.21 478.146C1241.96 480.669 1241.34 483.373 1241.34 486.26V490.896C1241.34 494.85 1242.02 498.203 1243.38 500.953C1244.77 503.68 1246.69 505.76 1249.15 507.191C1251.6 508.6 1254.45 509.305 1257.7 509.305C1259.82 509.305 1261.73 509.01 1263.43 508.419C1265.16 507.805 1266.65 506.896 1267.9 505.691C1269.15 504.464 1270.11 502.941 1270.79 501.123L1278.57 503.305C1277.75 505.941 1276.37 508.26 1274.44 510.26C1272.51 512.237 1270.12 513.782 1267.28 514.896C1264.44 515.987 1261.25 516.532 1257.7 516.532ZM1295.57 515.987C1293.89 515.987 1292.44 515.385 1291.24 514.18C1290.03 512.975 1289.43 511.532 1289.43 509.85C1289.43 508.169 1290.03 506.725 1291.24 505.521C1292.44 504.316 1293.89 503.714 1295.57 503.714C1297.25 503.714 1298.69 504.316 1299.9 505.521C1301.1 506.725 1301.7 508.169 1301.7 509.85C1301.7 510.964 1301.42 511.987 1300.85 512.919C1300.31 513.85 1299.57 514.6 1298.64 515.169C1297.73 515.714 1296.7 515.987 1295.57 515.987Z" fill="white"/>
<path d="M88.9714 928.381V936.256H86.96V923.165H88.9032V925.21H89.0737C89.3805 924.546 89.8464 924.012 90.4714 923.608C91.0964 923.199 91.9032 922.994 92.8919 922.994C93.7782 922.994 94.5538 923.176 95.2186 923.54C95.8833 923.898 96.4004 924.443 96.7697 925.176C97.139 925.904 97.3237 926.824 97.3237 927.938V936.256H95.3123V928.074C95.3123 927.046 95.0453 926.244 94.5112 925.671C93.9771 925.091 93.2441 924.801 92.3123 924.801C91.6703 924.801 91.0964 924.941 90.5907 925.219C90.0907 925.497 89.6958 925.904 89.4061 926.438C89.1163 926.972 88.9714 927.619 88.9714 928.381ZM106.008 936.529C104.746 936.529 103.658 936.25 102.744 935.693C101.834 935.131 101.133 934.347 100.638 933.341C100.15 932.33 99.9055 931.154 99.9055 929.813C99.9055 928.472 100.15 927.29 100.638 926.267C101.133 925.239 101.82 924.438 102.701 923.864C103.587 923.284 104.621 922.994 105.803 922.994C106.485 922.994 107.158 923.108 107.823 923.335C108.488 923.563 109.093 923.932 109.638 924.443C110.184 924.949 110.619 925.619 110.942 926.455C111.266 927.29 111.428 928.318 111.428 929.54V930.392H101.337V928.654H109.383C109.383 927.915 109.235 927.256 108.94 926.676C108.65 926.097 108.235 925.639 107.695 925.304C107.161 924.969 106.53 924.801 105.803 924.801C105.002 924.801 104.309 925 103.724 925.398C103.144 925.79 102.698 926.301 102.386 926.932C102.073 927.563 101.917 928.239 101.917 928.96V930.119C101.917 931.108 102.087 931.946 102.428 932.634C102.775 933.316 103.255 933.835 103.869 934.193C104.482 934.546 105.195 934.722 106.008 934.722C106.536 934.722 107.013 934.648 107.44 934.5C107.871 934.347 108.244 934.119 108.556 933.818C108.869 933.512 109.11 933.131 109.28 932.676L111.224 933.222C111.019 933.881 110.675 934.46 110.192 934.96C109.709 935.455 109.113 935.841 108.403 936.119C107.692 936.392 106.894 936.529 106.008 936.529ZM119.326 936.529C118.144 936.529 117.107 936.247 116.215 935.685C115.329 935.122 114.636 934.335 114.136 933.324C113.641 932.313 113.394 931.131 113.394 929.779C113.394 928.415 113.641 927.225 114.136 926.208C114.636 925.191 115.329 924.401 116.215 923.838C117.107 923.276 118.144 922.994 119.326 922.994C120.508 922.994 121.542 923.276 122.428 923.838C123.32 924.401 124.014 925.191 124.508 926.208C125.008 927.225 125.258 928.415 125.258 929.779C125.258 931.131 125.008 932.313 124.508 933.324C124.014 934.335 123.32 935.122 122.428 935.685C121.542 936.247 120.508 936.529 119.326 936.529ZM119.326 934.722C120.224 934.722 120.962 934.492 121.542 934.031C122.121 933.571 122.55 932.966 122.829 932.216C123.107 931.466 123.247 930.654 123.247 929.779C123.247 928.904 123.107 928.088 122.829 927.333C122.55 926.577 122.121 925.966 121.542 925.5C120.962 925.034 120.224 924.801 119.326 924.801C118.428 924.801 117.69 925.034 117.11 925.5C116.531 925.966 116.102 926.577 115.823 927.333C115.545 928.088 115.406 928.904 115.406 929.779C115.406 930.654 115.545 931.466 115.823 932.216C116.102 932.966 116.531 933.571 117.11 934.031C117.69 934.492 118.428 934.722 119.326 934.722ZM137.121 926.097L135.314 926.608C135.2 926.307 135.033 926.014 134.811 925.73C134.595 925.441 134.3 925.202 133.925 925.014C133.55 924.827 133.07 924.733 132.485 924.733C131.683 924.733 131.016 924.918 130.482 925.287C129.953 925.651 129.689 926.114 129.689 926.676C129.689 927.176 129.871 927.571 130.235 927.861C130.598 928.151 131.166 928.392 131.939 928.585L133.882 929.063C135.053 929.347 135.925 929.781 136.499 930.367C137.073 930.946 137.36 931.693 137.36 932.608C137.36 933.358 137.144 934.029 136.712 934.619C136.286 935.21 135.689 935.676 134.922 936.017C134.155 936.358 133.263 936.529 132.246 936.529C130.911 936.529 129.806 936.239 128.931 935.659C128.056 935.08 127.502 934.233 127.269 933.119L129.178 932.642C129.36 933.347 129.703 933.875 130.209 934.227C130.72 934.58 131.388 934.756 132.212 934.756C133.149 934.756 133.894 934.557 134.445 934.159C135.002 933.756 135.28 933.273 135.28 932.71C135.28 932.256 135.121 931.875 134.803 931.568C134.485 931.256 133.996 931.023 133.337 930.869L131.155 930.358C129.956 930.074 129.075 929.634 128.513 929.037C127.956 928.435 127.678 927.682 127.678 926.779C127.678 926.04 127.885 925.387 128.3 924.818C128.72 924.25 129.291 923.804 130.013 923.48C130.74 923.156 131.564 922.994 132.485 922.994C133.78 922.994 134.797 923.279 135.536 923.847C136.28 924.415 136.808 925.165 137.121 926.097ZM141.203 941.165C140.862 941.165 140.558 941.137 140.291 941.08C140.024 941.029 139.839 940.977 139.737 940.926L140.248 939.154C140.737 939.279 141.169 939.324 141.544 939.29C141.919 939.256 142.251 939.088 142.541 938.787C142.836 938.492 143.106 938.012 143.35 937.347L143.725 936.324L138.885 923.165H141.066L144.68 933.597H144.816L148.43 923.165H150.612L145.055 938.165C144.805 938.841 144.495 939.401 144.126 939.844C143.757 940.293 143.328 940.625 142.839 940.841C142.356 941.057 141.811 941.165 141.203 941.165ZM154.798 928.381V936.256H152.787V923.165H154.73V925.21H154.9C155.207 924.546 155.673 924.012 156.298 923.608C156.923 923.199 157.73 922.994 158.718 922.994C159.605 922.994 160.38 923.176 161.045 923.54C161.71 923.898 162.227 924.443 162.596 925.176C162.966 925.904 163.15 926.824 163.15 927.938V936.256H161.139V928.074C161.139 927.046 160.872 926.244 160.338 925.671C159.804 925.091 159.071 924.801 158.139 924.801C157.497 924.801 156.923 924.941 156.417 925.219C155.917 925.497 155.522 925.904 155.233 926.438C154.943 926.972 154.798 927.619 154.798 928.381ZM171.664 936.529C170.437 936.529 169.38 936.239 168.493 935.659C167.607 935.08 166.925 934.281 166.448 933.264C165.971 932.247 165.732 931.085 165.732 929.779C165.732 928.449 165.976 927.276 166.465 926.259C166.959 925.236 167.647 924.438 168.527 923.864C169.414 923.284 170.448 922.994 171.63 922.994C172.55 922.994 173.38 923.165 174.118 923.506C174.857 923.847 175.462 924.324 175.934 924.938C176.405 925.551 176.698 926.267 176.812 927.085H174.8C174.647 926.489 174.306 925.96 173.777 925.5C173.255 925.034 172.55 924.801 171.664 924.801C170.88 924.801 170.192 925.006 169.601 925.415C169.016 925.818 168.559 926.389 168.229 927.128C167.905 927.861 167.743 928.722 167.743 929.71C167.743 930.722 167.902 931.602 168.221 932.352C168.545 933.102 168.999 933.685 169.584 934.1C170.175 934.514 170.868 934.722 171.664 934.722C172.187 934.722 172.661 934.631 173.087 934.449C173.513 934.267 173.874 934.006 174.17 933.665C174.465 933.324 174.675 932.915 174.8 932.438H176.812C176.698 933.21 176.417 933.906 175.968 934.526C175.525 935.139 174.937 935.628 174.204 935.992C173.476 936.35 172.63 936.529 171.664 936.529ZM180.738 936.392C180.317 936.392 179.957 936.242 179.655 935.941C179.354 935.639 179.204 935.279 179.204 934.858C179.204 934.438 179.354 934.077 179.655 933.776C179.957 933.475 180.317 933.324 180.738 933.324C181.158 933.324 181.519 933.475 181.82 933.776C182.121 934.077 182.272 934.438 182.272 934.858C182.272 935.137 182.201 935.392 182.059 935.625C181.922 935.858 181.738 936.046 181.505 936.188C181.278 936.324 181.022 936.392 180.738 936.392ZM190.344 936.529C189.254 936.529 188.291 936.253 187.455 935.702C186.62 935.145 185.967 934.361 185.495 933.35C185.023 932.333 184.788 931.131 184.788 929.744C184.788 928.369 185.023 927.176 185.495 926.165C185.967 925.154 186.623 924.372 187.464 923.821C188.305 923.27 189.276 922.994 190.379 922.994C191.231 922.994 191.904 923.137 192.398 923.421C192.898 923.699 193.279 924.017 193.541 924.375C193.808 924.727 194.015 925.017 194.163 925.244H194.333V918.801H196.344V936.256H194.401V934.244H194.163C194.015 934.483 193.805 934.784 193.532 935.148C193.259 935.506 192.87 935.827 192.364 936.111C191.859 936.389 191.185 936.529 190.344 936.529ZM190.617 934.722C191.424 934.722 192.106 934.512 192.663 934.091C193.219 933.665 193.643 933.077 193.933 932.327C194.222 931.571 194.367 930.699 194.367 929.71C194.367 928.733 194.225 927.878 193.941 927.145C193.657 926.406 193.237 925.833 192.68 925.423C192.123 925.009 191.435 924.801 190.617 924.801C189.765 924.801 189.055 925.02 188.487 925.458C187.924 925.889 187.501 926.477 187.217 927.222C186.938 927.96 186.799 928.79 186.799 929.71C186.799 930.642 186.941 931.489 187.225 932.25C187.515 933.006 187.941 933.608 188.504 934.057C189.072 934.5 189.776 934.722 190.617 934.722ZM205.316 936.529C204.055 936.529 202.967 936.25 202.052 935.693C201.143 935.131 200.441 934.347 199.947 933.341C199.458 932.33 199.214 931.154 199.214 929.813C199.214 928.472 199.458 927.29 199.947 926.267C200.441 925.239 201.129 924.438 202.009 923.864C202.896 923.284 203.93 922.994 205.112 922.994C205.793 922.994 206.467 923.108 207.132 923.335C207.796 923.563 208.401 923.932 208.947 924.443C209.492 924.949 209.927 925.619 210.251 926.455C210.575 927.29 210.737 928.318 210.737 929.54V930.392H200.646V928.654H208.691C208.691 927.915 208.543 927.256 208.248 926.676C207.958 926.097 207.543 925.639 207.004 925.304C206.47 924.969 205.839 924.801 205.112 924.801C204.311 924.801 203.617 925 203.032 925.398C202.453 925.79 202.007 926.301 201.694 926.932C201.382 927.563 201.225 928.239 201.225 928.96V930.119C201.225 931.108 201.396 931.946 201.737 932.634C202.083 933.316 202.563 933.835 203.177 934.193C203.791 934.546 204.504 934.722 205.316 934.722C205.845 934.722 206.322 934.648 206.748 934.5C207.18 934.347 207.552 934.119 207.864 933.818C208.177 933.512 208.418 933.131 208.589 932.676L210.532 933.222C210.328 933.881 209.984 934.46 209.501 934.96C209.018 935.455 208.421 935.841 207.711 936.119C207.001 936.392 206.203 936.529 205.316 936.529ZM223.622 923.165L218.781 936.256H216.736L211.895 923.165H214.077L217.691 933.597H217.827L221.441 923.165H223.622Z" fill="#777777"/>
<path d="M1333.12 945.182C1332.15 945.182 1331.32 945.057 1330.62 944.807C1329.92 944.562 1329.34 944.239 1328.87 943.835C1328.41 943.438 1328.05 943.011 1327.77 942.557L1329.38 941.432C1329.56 941.67 1329.79 941.943 1330.07 942.25C1330.34 942.562 1330.72 942.832 1331.21 943.06C1331.7 943.293 1332.34 943.409 1333.12 943.409C1334.18 943.409 1335.05 943.153 1335.74 942.642C1336.43 942.131 1336.77 941.33 1336.77 940.239V937.58H1336.6C1336.45 937.818 1336.24 938.114 1335.97 938.466C1335.7 938.812 1335.32 939.122 1334.81 939.395C1334.31 939.662 1333.64 939.795 1332.78 939.795C1331.73 939.795 1330.78 939.545 1329.94 939.045C1329.1 938.545 1328.44 937.818 1327.95 936.864C1327.47 935.909 1327.23 934.75 1327.23 933.386C1327.23 932.045 1327.46 930.878 1327.93 929.884C1328.41 928.884 1329.06 928.111 1329.9 927.565C1330.74 927.014 1331.72 926.739 1332.82 926.739C1333.67 926.739 1334.35 926.881 1334.85 927.165C1335.35 927.443 1335.74 927.761 1336.01 928.119C1336.28 928.472 1336.49 928.761 1336.64 928.989H1336.84V926.909H1338.78V940.375C1338.78 941.5 1338.53 942.415 1338.02 943.119C1337.51 943.83 1336.83 944.349 1335.97 944.679C1335.12 945.014 1334.17 945.182 1333.12 945.182ZM1333.06 937.989C1333.86 937.989 1334.55 937.804 1335.1 937.435C1335.66 937.065 1336.08 936.534 1336.37 935.841C1336.66 935.148 1336.81 934.318 1336.81 933.352C1336.81 932.409 1336.66 931.577 1336.38 930.855C1336.1 930.134 1335.68 929.568 1335.12 929.159C1334.56 928.75 1333.88 928.545 1333.06 928.545C1332.2 928.545 1331.49 928.761 1330.93 929.193C1330.36 929.625 1329.94 930.205 1329.66 930.932C1329.38 931.659 1329.24 932.466 1329.24 933.352C1329.24 934.261 1329.38 935.065 1329.66 935.764C1329.95 936.457 1330.38 937.003 1330.94 937.401C1331.51 937.793 1332.22 937.989 1333.06 937.989ZM1341.99 940V926.909H1344V940H1341.99ZM1343.01 924.727C1342.62 924.727 1342.28 924.594 1341.99 924.327C1341.72 924.06 1341.58 923.739 1341.58 923.364C1341.58 922.989 1341.72 922.668 1341.99 922.401C1342.28 922.134 1342.62 922 1343.01 922C1343.4 922 1343.74 922.134 1344.01 922.401C1344.3 922.668 1344.44 922.989 1344.44 923.364C1344.44 923.739 1344.3 924.06 1344.01 924.327C1343.74 924.594 1343.4 924.727 1343.01 924.727ZM1352.89 926.909V928.614H1346.11V926.909H1352.89ZM1348.09 923.773H1350.1V936.25C1350.1 936.818 1350.18 937.244 1350.35 937.528C1350.52 937.807 1350.73 937.994 1350.99 938.091C1351.26 938.182 1351.54 938.227 1351.84 938.227C1352.06 938.227 1352.24 938.216 1352.38 938.193C1352.53 938.165 1352.64 938.142 1352.72 938.125L1353.13 939.932C1353 939.983 1352.81 940.034 1352.56 940.085C1352.32 940.142 1352.01 940.17 1351.63 940.17C1351.06 940.17 1350.51 940.048 1349.96 939.804C1349.42 939.56 1348.97 939.188 1348.62 938.688C1348.26 938.188 1348.09 937.557 1348.09 936.795V923.773ZM1357.73 932.125V940H1355.72V922.545H1357.73V928.955H1357.9C1358.21 928.278 1358.67 927.741 1359.28 927.344C1359.9 926.94 1360.73 926.739 1361.76 926.739C1362.65 926.739 1363.43 926.918 1364.1 927.276C1364.77 927.628 1365.29 928.17 1365.66 928.903C1366.03 929.631 1366.22 930.557 1366.22 931.682V940H1364.21V931.818C1364.21 930.778 1363.94 929.974 1363.4 929.406C1362.87 928.832 1362.12 928.545 1361.18 928.545C1360.52 928.545 1359.93 928.685 1359.4 928.963C1358.89 929.241 1358.48 929.648 1358.18 930.182C1357.88 930.716 1357.73 931.364 1357.73 932.125ZM1377.67 934.648V926.909H1379.68V940H1377.67V937.784H1377.53C1377.23 938.449 1376.75 939.014 1376.1 939.48C1375.46 939.94 1374.64 940.17 1373.65 940.17C1372.83 940.17 1372.1 939.991 1371.47 939.634C1370.83 939.27 1370.33 938.724 1369.97 937.997C1369.6 937.264 1369.42 936.341 1369.42 935.227V926.909H1371.43V935.091C1371.43 936.045 1371.7 936.807 1372.23 937.375C1372.77 937.943 1373.46 938.227 1374.3 938.227C1374.8 938.227 1375.3 938.099 1375.82 937.844C1376.34 937.588 1376.78 937.196 1377.13 936.668C1377.49 936.139 1377.67 935.466 1377.67 934.648ZM1383.16 940V922.545H1385.17V928.989H1385.34C1385.49 928.761 1385.69 928.472 1385.95 928.119C1386.22 927.761 1386.6 927.443 1387.1 927.165C1387.6 926.881 1388.27 926.739 1389.12 926.739C1390.23 926.739 1391.2 927.014 1392.04 927.565C1392.88 928.116 1393.54 928.898 1394.01 929.909C1394.48 930.92 1394.72 932.114 1394.72 933.489C1394.72 934.875 1394.48 936.077 1394.01 937.094C1393.54 938.105 1392.88 938.889 1392.05 939.446C1391.21 939.997 1390.25 940.273 1389.16 940.273C1388.32 940.273 1387.64 940.134 1387.14 939.855C1386.63 939.571 1386.24 939.25 1385.97 938.892C1385.7 938.528 1385.49 938.227 1385.34 937.989H1385.1V940H1383.16ZM1385.14 933.455C1385.14 934.443 1385.28 935.315 1385.57 936.071C1385.86 936.821 1386.28 937.409 1386.84 937.835C1387.4 938.256 1388.08 938.466 1388.89 938.466C1389.73 938.466 1390.43 938.244 1390.99 937.801C1391.56 937.352 1391.99 936.75 1392.27 935.994C1392.56 935.233 1392.7 934.386 1392.7 933.455C1392.7 932.534 1392.56 931.705 1392.28 930.966C1392 930.222 1391.58 929.634 1391.01 929.202C1390.45 928.764 1389.74 928.545 1388.89 928.545C1388.07 928.545 1387.38 928.753 1386.82 929.168C1386.27 929.577 1385.85 930.151 1385.56 930.889C1385.28 931.622 1385.14 932.477 1385.14 933.455ZM1398.78 940.136C1398.36 940.136 1398 939.986 1397.7 939.685C1397.39 939.384 1397.24 939.023 1397.24 938.602C1397.24 938.182 1397.39 937.821 1397.7 937.52C1398 937.219 1398.36 937.068 1398.78 937.068C1399.2 937.068 1399.56 937.219 1399.86 937.52C1400.16 937.821 1400.31 938.182 1400.31 938.602C1400.31 938.881 1400.24 939.136 1400.1 939.369C1399.96 939.602 1399.78 939.79 1399.55 939.932C1399.32 940.068 1399.06 940.136 1398.78 940.136ZM1408.76 940.273C1407.53 940.273 1406.48 939.983 1405.59 939.403C1404.7 938.824 1404.02 938.026 1403.54 937.009C1403.07 935.991 1402.83 934.83 1402.83 933.523C1402.83 932.193 1403.07 931.02 1403.56 930.003C1404.06 928.98 1404.74 928.182 1405.62 927.608C1406.51 927.028 1407.54 926.739 1408.73 926.739C1409.65 926.739 1410.48 926.909 1411.21 927.25C1411.95 927.591 1412.56 928.068 1413.03 928.682C1413.5 929.295 1413.79 930.011 1413.91 930.83H1411.9C1411.74 930.233 1411.4 929.705 1410.87 929.244C1410.35 928.778 1409.65 928.545 1408.76 928.545C1407.98 928.545 1407.29 928.75 1406.7 929.159C1406.11 929.562 1405.65 930.134 1405.33 930.872C1405 931.605 1404.84 932.466 1404.84 933.455C1404.84 934.466 1405 935.347 1405.32 936.097C1405.64 936.847 1406.1 937.429 1406.68 937.844C1407.27 938.259 1407.96 938.466 1408.76 938.466C1409.28 938.466 1409.76 938.375 1410.18 938.193C1410.61 938.011 1410.97 937.75 1411.27 937.409C1411.56 937.068 1411.77 936.659 1411.9 936.182H1413.91C1413.79 936.955 1413.51 937.651 1413.06 938.27C1412.62 938.884 1412.03 939.372 1411.3 939.736C1410.57 940.094 1409.73 940.273 1408.76 940.273ZM1421.69 940.273C1420.5 940.273 1419.47 939.991 1418.58 939.429C1417.69 938.866 1417 938.08 1416.5 937.068C1416 936.057 1415.75 934.875 1415.75 933.523C1415.75 932.159 1416 930.969 1416.5 929.952C1417 928.935 1417.69 928.145 1418.58 927.582C1419.47 927.02 1420.5 926.739 1421.69 926.739C1422.87 926.739 1423.9 927.02 1424.79 927.582C1425.68 928.145 1426.37 928.935 1426.87 929.952C1427.37 930.969 1427.62 932.159 1427.62 933.523C1427.62 934.875 1427.37 936.057 1426.87 937.068C1426.37 938.08 1425.68 938.866 1424.79 939.429C1423.9 939.991 1422.87 940.273 1421.69 940.273ZM1421.69 938.466C1422.58 938.466 1423.32 938.236 1423.9 937.776C1424.48 937.315 1424.91 936.71 1425.19 935.96C1425.47 935.21 1425.61 934.398 1425.61 933.523C1425.61 932.648 1425.47 931.832 1425.19 931.077C1424.91 930.321 1424.48 929.71 1423.9 929.244C1423.32 928.778 1422.58 928.545 1421.69 928.545C1420.79 928.545 1420.05 928.778 1419.47 929.244C1418.89 929.71 1418.46 930.321 1418.18 931.077C1417.91 931.832 1417.77 932.648 1417.77 933.523C1417.77 934.398 1417.91 935.21 1418.18 935.96C1418.46 936.71 1418.89 937.315 1419.47 937.776C1420.05 938.236 1420.79 938.466 1421.69 938.466ZM1430.21 940V926.909H1432.15V928.955H1432.32C1432.59 928.256 1433.04 927.713 1433.64 927.327C1434.25 926.935 1434.98 926.739 1435.83 926.739C1436.7 926.739 1437.42 926.935 1437.99 927.327C1438.57 927.713 1439.02 928.256 1439.34 928.955H1439.48C1439.82 928.278 1440.32 927.741 1440.99 927.344C1441.66 926.94 1442.46 926.739 1443.4 926.739C1444.57 926.739 1445.53 927.105 1446.27 927.838C1447.02 928.565 1447.39 929.699 1447.39 931.239V940H1445.38V931.239C1445.38 930.273 1445.11 929.582 1444.59 929.168C1444.06 928.753 1443.44 928.545 1442.72 928.545C1441.8 928.545 1441.09 928.824 1440.58 929.381C1440.07 929.932 1439.82 930.631 1439.82 931.477V940H1437.78V931.034C1437.78 930.29 1437.54 929.69 1437.05 929.236C1436.57 928.776 1435.95 928.545 1435.19 928.545C1434.66 928.545 1434.17 928.685 1433.72 928.963C1433.27 929.241 1432.91 929.628 1432.63 930.122C1432.36 930.611 1432.22 931.176 1432.22 931.818V940H1430.21ZM1456.76 921.727L1451.13 942.625H1449.29L1454.92 921.727H1456.76ZM1460.67 932.125V940H1458.66V926.909H1460.61V928.955H1460.78C1461.08 928.29 1461.55 927.756 1462.17 927.352C1462.8 926.943 1463.61 926.739 1464.59 926.739C1465.48 926.739 1466.26 926.92 1466.92 927.284C1467.59 927.642 1468.1 928.188 1468.47 928.92C1468.84 929.648 1469.03 930.568 1469.03 931.682V940H1467.01V931.818C1467.01 930.79 1466.75 929.989 1466.21 929.415C1465.68 928.835 1464.95 928.545 1464.01 928.545C1463.37 928.545 1462.8 928.685 1462.29 928.963C1461.79 929.241 1461.4 929.648 1461.11 930.182C1460.82 930.716 1460.67 931.364 1460.67 932.125ZM1480.47 934.648V926.909H1482.48V940H1480.47V937.784H1480.34C1480.03 938.449 1479.55 939.014 1478.9 939.48C1478.26 939.94 1477.44 940.17 1476.45 940.17C1475.63 940.17 1474.9 939.991 1474.27 939.634C1473.63 939.27 1473.13 938.724 1472.77 937.997C1472.4 937.264 1472.22 936.341 1472.22 935.227V926.909H1474.23V935.091C1474.23 936.045 1474.5 936.807 1475.03 937.375C1475.57 937.943 1476.26 938.227 1477.1 938.227C1477.6 938.227 1478.11 938.099 1478.62 937.844C1479.14 937.588 1479.58 937.196 1479.93 936.668C1480.29 936.139 1480.47 935.466 1480.47 934.648ZM1491.01 940.273C1489.78 940.273 1488.72 939.983 1487.83 939.403C1486.95 938.824 1486.27 938.026 1485.79 937.009C1485.31 935.991 1485.07 934.83 1485.07 933.523C1485.07 932.193 1485.32 931.02 1485.81 930.003C1486.3 928.98 1486.99 928.182 1487.87 927.608C1488.76 927.028 1489.79 926.739 1490.97 926.739C1491.89 926.739 1492.72 926.909 1493.46 927.25C1494.2 927.591 1494.8 928.068 1495.27 928.682C1495.75 929.295 1496.04 930.011 1496.15 930.83H1494.14C1493.99 930.233 1493.65 929.705 1493.12 929.244C1492.6 928.778 1491.89 928.545 1491.01 928.545C1490.22 928.545 1489.53 928.75 1488.94 929.159C1488.36 929.562 1487.9 930.134 1487.57 930.872C1487.25 931.605 1487.08 932.466 1487.08 933.455C1487.08 934.466 1487.24 935.347 1487.56 936.097C1487.89 936.847 1488.34 937.429 1488.93 937.844C1489.52 938.259 1490.21 938.466 1491.01 938.466C1491.53 938.466 1492 938.375 1492.43 938.193C1492.85 938.011 1493.22 937.75 1493.51 937.409C1493.81 937.068 1494.02 936.659 1494.14 936.182H1496.15C1496.04 936.955 1495.76 937.651 1495.31 938.27C1494.87 938.884 1494.28 939.372 1493.54 939.736C1492.82 940.094 1491.97 940.273 1491.01 940.273ZM1500.62 922.545V940H1498.61V922.545H1500.62ZM1509.32 940.273C1508.06 940.273 1506.97 939.994 1506.05 939.438C1505.14 938.875 1504.44 938.091 1503.95 937.085C1503.46 936.074 1503.21 934.898 1503.21 933.557C1503.21 932.216 1503.46 931.034 1503.95 930.011C1504.44 928.983 1505.13 928.182 1506.01 927.608C1506.9 927.028 1507.93 926.739 1509.11 926.739C1509.79 926.739 1510.47 926.852 1511.13 927.08C1511.8 927.307 1512.4 927.676 1512.95 928.188C1513.49 928.693 1513.93 929.364 1514.25 930.199C1514.58 931.034 1514.74 932.062 1514.74 933.284V934.136H1504.65V932.398H1512.69C1512.69 931.659 1512.54 931 1512.25 930.42C1511.96 929.841 1511.54 929.384 1511 929.048C1510.47 928.713 1509.84 928.545 1509.11 928.545C1508.31 928.545 1507.62 928.744 1507.03 929.142C1506.45 929.534 1506.01 930.045 1505.69 930.676C1505.38 931.307 1505.23 931.983 1505.23 932.705V933.864C1505.23 934.852 1505.4 935.69 1505.74 936.378C1506.08 937.06 1506.56 937.58 1507.18 937.938C1507.79 938.29 1508.5 938.466 1509.32 938.466C1509.85 938.466 1510.32 938.392 1510.75 938.244C1511.18 938.091 1511.55 937.864 1511.87 937.562C1512.18 937.256 1512.42 936.875 1512.59 936.42L1514.53 936.966C1514.33 937.625 1513.98 938.205 1513.5 938.705C1513.02 939.199 1512.42 939.585 1511.71 939.864C1511 940.136 1510.2 940.273 1509.32 940.273ZM1525.57 934.648V926.909H1527.58V940H1525.57V937.784H1525.43C1525.12 938.449 1524.65 939.014 1524 939.48C1523.35 939.94 1522.53 940.17 1521.54 940.17C1520.73 940.17 1520 939.991 1519.36 939.634C1518.73 939.27 1518.23 938.724 1517.86 937.997C1517.5 937.264 1517.32 936.341 1517.32 935.227V926.909H1519.33V935.091C1519.33 936.045 1519.6 936.807 1520.13 937.375C1520.67 937.943 1521.36 938.227 1522.19 938.227C1522.69 938.227 1523.2 938.099 1523.72 937.844C1524.24 937.588 1524.68 937.196 1525.03 936.668C1525.39 936.139 1525.57 935.466 1525.57 934.648ZM1540.06 929.841L1538.25 930.352C1538.13 930.051 1537.97 929.759 1537.75 929.474C1537.53 929.185 1537.23 928.946 1536.86 928.759C1536.48 928.571 1536 928.477 1535.42 928.477C1534.62 928.477 1533.95 928.662 1533.42 929.031C1532.89 929.395 1532.62 929.858 1532.62 930.42C1532.62 930.92 1532.81 931.315 1533.17 931.605C1533.53 931.895 1534.1 932.136 1534.87 932.33L1536.82 932.807C1537.99 933.091 1538.86 933.526 1539.43 934.111C1540.01 934.69 1540.29 935.437 1540.29 936.352C1540.29 937.102 1540.08 937.773 1539.65 938.364C1539.22 938.955 1538.62 939.42 1537.86 939.761C1537.09 940.102 1536.2 940.273 1535.18 940.273C1533.84 940.273 1532.74 939.983 1531.86 939.403C1530.99 938.824 1530.44 937.977 1530.2 936.864L1532.11 936.386C1532.29 937.091 1532.64 937.619 1533.14 937.972C1533.65 938.324 1534.32 938.5 1535.15 938.5C1536.08 938.5 1536.83 938.301 1537.38 937.903C1537.94 937.5 1538.21 937.017 1538.21 936.455C1538.21 936 1538.06 935.619 1537.74 935.312C1537.42 935 1536.93 934.767 1536.27 934.614L1534.09 934.102C1532.89 933.818 1532.01 933.378 1531.45 932.781C1530.89 932.179 1530.61 931.426 1530.61 930.523C1530.61 929.784 1530.82 929.131 1531.23 928.562C1531.65 927.994 1532.23 927.548 1532.95 927.224C1533.67 926.901 1534.5 926.739 1535.42 926.739C1536.71 926.739 1537.73 927.023 1538.47 927.591C1539.21 928.159 1539.74 928.909 1540.06 929.841ZM1548.16 940.273C1546.93 940.273 1545.88 939.983 1544.99 939.403C1544.1 938.824 1543.42 938.026 1542.94 937.009C1542.47 935.991 1542.23 934.83 1542.23 933.523C1542.23 932.193 1542.47 931.02 1542.96 930.003C1543.46 928.98 1544.14 928.182 1545.02 927.608C1545.91 927.028 1546.94 926.739 1548.13 926.739C1549.05 926.739 1549.88 926.909 1550.61 927.25C1551.35 927.591 1551.96 928.068 1552.43 928.682C1552.9 929.295 1553.19 930.011 1553.31 930.83H1551.3C1551.14 930.233 1550.8 929.705 1550.27 929.244C1549.75 928.778 1549.05 928.545 1548.16 928.545C1547.38 928.545 1546.69 928.75 1546.1 929.159C1545.51 929.562 1545.05 930.134 1544.73 930.872C1544.4 931.605 1544.24 932.466 1544.24 933.455C1544.24 934.466 1544.4 935.347 1544.72 936.097C1545.04 936.847 1545.49 937.429 1546.08 937.844C1546.67 938.259 1547.36 938.466 1548.16 938.466C1548.68 938.466 1549.16 938.375 1549.58 938.193C1550.01 938.011 1550.37 937.75 1550.67 937.409C1550.96 937.068 1551.17 936.659 1551.3 936.182H1553.31C1553.19 936.955 1552.91 937.651 1552.46 938.27C1552.02 938.884 1551.43 939.372 1550.7 939.736C1549.97 940.094 1549.13 940.273 1548.16 940.273ZM1557.78 922.545V940H1555.77V922.545H1557.78ZM1566.3 940.273C1565.12 940.273 1564.08 939.991 1563.19 939.429C1562.3 938.866 1561.61 938.08 1561.11 937.068C1560.62 936.057 1560.37 934.875 1560.37 933.523C1560.37 932.159 1560.62 930.969 1561.11 929.952C1561.61 928.935 1562.3 928.145 1563.19 927.582C1564.08 927.02 1565.12 926.739 1566.3 926.739C1567.48 926.739 1568.52 927.02 1569.4 927.582C1570.3 928.145 1570.99 928.935 1571.48 929.952C1571.98 930.969 1572.23 932.159 1572.23 933.523C1572.23 934.875 1571.98 936.057 1571.48 937.068C1570.99 938.08 1570.3 938.866 1569.4 939.429C1568.52 939.991 1567.48 940.273 1566.3 940.273ZM1566.3 938.466C1567.2 938.466 1567.94 938.236 1568.52 937.776C1569.1 937.315 1569.53 936.71 1569.8 935.96C1570.08 935.21 1570.22 934.398 1570.22 933.523C1570.22 932.648 1570.08 931.832 1569.8 931.077C1569.53 930.321 1569.1 929.71 1568.52 929.244C1567.94 928.778 1567.2 928.545 1566.3 928.545C1565.4 928.545 1564.66 928.778 1564.09 929.244C1563.51 929.71 1563.08 930.321 1562.8 931.077C1562.52 931.832 1562.38 932.648 1562.38 933.523C1562.38 934.398 1562.52 935.21 1562.8 935.96C1563.08 936.71 1563.51 937.315 1564.09 937.776C1564.66 938.236 1565.4 938.466 1566.3 938.466ZM1583.07 934.648V926.909H1585.08V940H1583.07V937.784H1582.94C1582.63 938.449 1582.15 939.014 1581.51 939.48C1580.86 939.94 1580.04 940.17 1579.05 940.17C1578.23 940.17 1577.51 939.991 1576.87 939.634C1576.23 939.27 1575.73 938.724 1575.37 937.997C1575.01 937.264 1574.82 936.341 1574.82 935.227V926.909H1576.83V935.091C1576.83 936.045 1577.1 936.807 1577.64 937.375C1578.18 937.943 1578.86 938.227 1579.7 938.227C1580.2 938.227 1580.71 938.099 1581.22 937.844C1581.75 937.588 1582.18 937.196 1582.54 936.668C1582.89 936.139 1583.07 935.466 1583.07 934.648ZM1593.23 940.273C1592.14 940.273 1591.18 939.997 1590.34 939.446C1589.51 938.889 1588.85 938.105 1588.38 937.094C1587.91 936.077 1587.68 934.875 1587.68 933.489C1587.68 932.114 1587.91 930.92 1588.38 929.909C1588.85 928.898 1589.51 928.116 1590.35 927.565C1591.19 927.014 1592.16 926.739 1593.27 926.739C1594.12 926.739 1594.79 926.881 1595.29 927.165C1595.79 927.443 1596.17 927.761 1596.43 928.119C1596.69 928.472 1596.9 928.761 1597.05 928.989H1597.22V922.545H1599.23V940H1597.29V937.989H1597.05C1596.9 938.227 1596.69 938.528 1596.42 938.892C1596.15 939.25 1595.76 939.571 1595.25 939.855C1594.75 940.134 1594.07 940.273 1593.23 940.273ZM1593.5 938.466C1594.31 938.466 1594.99 938.256 1595.55 937.835C1596.11 937.409 1596.53 936.821 1596.82 936.071C1597.11 935.315 1597.25 934.443 1597.25 933.455C1597.25 932.477 1597.11 931.622 1596.83 930.889C1596.54 930.151 1596.12 929.577 1595.57 929.168C1595.01 928.753 1594.32 928.545 1593.5 928.545C1592.65 928.545 1591.94 928.764 1591.37 929.202C1590.81 929.634 1590.39 930.222 1590.1 930.966C1589.83 931.705 1589.69 932.534 1589.69 933.455C1589.69 934.386 1589.83 935.233 1590.11 935.994C1590.4 936.75 1590.83 937.352 1591.39 937.801C1591.96 938.244 1592.66 938.466 1593.5 938.466ZM1608.89 921.727L1603.26 942.625H1601.42L1607.04 921.727H1608.89ZM1612.8 932.125V940H1610.79V926.909H1612.73V928.955H1612.9C1613.21 928.29 1613.68 927.756 1614.3 927.352C1614.93 926.943 1615.73 926.739 1616.72 926.739C1617.61 926.739 1618.38 926.92 1619.05 927.284C1619.71 927.642 1620.23 928.188 1620.6 928.92C1620.97 929.648 1621.15 930.568 1621.15 931.682V940H1619.14V931.818C1619.14 930.79 1618.87 929.989 1618.34 929.415C1617.81 928.835 1617.07 928.545 1616.14 928.545C1615.5 928.545 1614.93 928.685 1614.42 928.963C1613.92 929.241 1613.53 929.648 1613.24 930.182C1612.95 930.716 1612.8 931.364 1612.8 932.125ZM1629.84 940.273C1628.58 940.273 1627.49 939.994 1626.57 939.438C1625.66 938.875 1624.96 938.091 1624.47 937.085C1623.98 936.074 1623.74 934.898 1623.74 933.557C1623.74 932.216 1623.98 931.034 1624.47 930.011C1624.96 928.983 1625.65 928.182 1626.53 927.608C1627.42 927.028 1628.45 926.739 1629.63 926.739C1630.31 926.739 1630.99 926.852 1631.65 927.08C1632.32 927.307 1632.92 927.676 1633.47 928.188C1634.01 928.693 1634.45 929.364 1634.77 930.199C1635.1 931.034 1635.26 932.062 1635.26 933.284V934.136H1625.17V932.398H1633.21C1633.21 931.659 1633.06 931 1632.77 930.42C1632.48 929.841 1632.06 929.384 1631.52 929.048C1630.99 928.713 1630.36 928.545 1629.63 928.545C1628.83 928.545 1628.14 928.744 1627.55 929.142C1626.97 929.534 1626.53 930.045 1626.22 930.676C1625.9 931.307 1625.75 931.983 1625.75 932.705V933.864C1625.75 934.852 1625.92 935.69 1626.26 936.378C1626.6 937.06 1627.08 937.58 1627.7 937.938C1628.31 938.29 1629.02 938.466 1629.84 938.466C1630.37 938.466 1630.84 938.392 1631.27 938.244C1631.7 938.091 1632.07 937.864 1632.39 937.562C1632.7 937.256 1632.94 936.875 1633.11 936.42L1635.05 936.966C1634.85 937.625 1634.5 938.205 1634.02 938.705C1633.54 939.199 1632.94 939.585 1632.23 939.864C1631.52 940.136 1630.72 940.273 1629.84 940.273ZM1643.16 940.273C1641.97 940.273 1640.94 939.991 1640.04 939.429C1639.16 938.866 1638.47 938.08 1637.97 937.068C1637.47 936.057 1637.22 934.875 1637.22 933.523C1637.22 932.159 1637.47 930.969 1637.97 929.952C1638.47 928.935 1639.16 928.145 1640.04 927.582C1640.94 927.02 1641.97 926.739 1643.16 926.739C1644.34 926.739 1645.37 927.02 1646.26 927.582C1647.15 928.145 1647.84 928.935 1648.34 929.952C1648.84 930.969 1649.09 932.159 1649.09 933.523C1649.09 934.875 1648.84 936.057 1648.34 937.068C1647.84 938.08 1647.15 938.866 1646.26 939.429C1645.37 939.991 1644.34 940.273 1643.16 940.273ZM1643.16 938.466C1644.05 938.466 1644.79 938.236 1645.37 937.776C1645.95 937.315 1646.38 936.71 1646.66 935.96C1646.94 935.21 1647.08 934.398 1647.08 933.523C1647.08 932.648 1646.94 931.832 1646.66 931.077C1646.38 930.321 1645.95 929.71 1645.37 929.244C1644.79 928.778 1644.05 928.545 1643.16 928.545C1642.26 928.545 1641.52 928.778 1640.94 929.244C1640.36 929.71 1639.93 930.321 1639.65 931.077C1639.37 931.832 1639.24 932.648 1639.24 933.523C1639.24 934.398 1639.37 935.21 1639.65 935.96C1639.93 936.71 1640.36 937.315 1640.94 937.776C1641.52 938.236 1642.26 938.466 1643.16 938.466ZM1660.95 929.841L1659.14 930.352C1659.03 930.051 1658.86 929.759 1658.64 929.474C1658.42 929.185 1658.13 928.946 1657.75 928.759C1657.38 928.571 1656.9 928.477 1656.31 928.477C1655.51 928.477 1654.85 928.662 1654.31 929.031C1653.78 929.395 1653.52 929.858 1653.52 930.42C1653.52 930.92 1653.7 931.315 1654.06 931.605C1654.43 931.895 1655 932.136 1655.77 932.33L1657.71 932.807C1658.88 933.091 1659.75 933.526 1660.33 934.111C1660.9 934.69 1661.19 935.437 1661.19 936.352C1661.19 937.102 1660.97 937.773 1660.54 938.364C1660.12 938.955 1659.52 939.42 1658.75 939.761C1657.98 940.102 1657.09 940.273 1656.08 940.273C1654.74 940.273 1653.64 939.983 1652.76 939.403C1651.89 938.824 1651.33 937.977 1651.1 936.864L1653.01 936.386C1653.19 937.091 1653.53 937.619 1654.04 937.972C1654.55 938.324 1655.22 938.5 1656.04 938.5C1656.98 938.5 1657.72 938.301 1658.27 937.903C1658.83 937.5 1659.11 937.017 1659.11 936.455C1659.11 936 1658.95 935.619 1658.63 935.312C1658.31 935 1657.83 934.767 1657.17 934.614L1654.98 934.102C1653.79 933.818 1652.91 933.378 1652.34 932.781C1651.79 932.179 1651.51 931.426 1651.51 930.523C1651.51 929.784 1651.71 929.131 1652.13 928.562C1652.55 927.994 1653.12 927.548 1653.84 927.224C1654.57 926.901 1655.39 926.739 1656.31 926.739C1657.61 926.739 1658.63 927.023 1659.37 927.591C1660.11 928.159 1660.64 928.909 1660.95 929.841ZM1665.03 944.909C1664.69 944.909 1664.39 944.881 1664.12 944.824C1663.85 944.773 1663.67 944.722 1663.57 944.67L1664.08 942.898C1664.57 943.023 1665 943.068 1665.37 943.034C1665.75 943 1666.08 942.832 1666.37 942.531C1666.67 942.236 1666.94 941.756 1667.18 941.091L1667.56 940.068L1662.71 926.909H1664.9L1668.51 937.341H1668.65L1672.26 926.909H1674.44L1668.88 941.909C1668.63 942.585 1668.32 943.145 1667.96 943.588C1667.59 944.037 1667.16 944.369 1666.67 944.585C1666.19 944.801 1665.64 944.909 1665.03 944.909ZM1678.63 932.125V940H1676.62V926.909H1678.56V928.955H1678.73C1679.04 928.29 1679.5 927.756 1680.13 927.352C1680.75 926.943 1681.56 926.739 1682.55 926.739C1683.43 926.739 1684.21 926.92 1684.87 927.284C1685.54 927.642 1686.06 928.188 1686.43 928.92C1686.8 929.648 1686.98 930.568 1686.98 931.682V940H1684.97V931.818C1684.97 930.79 1684.7 929.989 1684.17 929.415C1683.63 928.835 1682.9 928.545 1681.97 928.545C1681.33 928.545 1680.75 928.685 1680.25 928.963C1679.75 929.241 1679.35 929.648 1679.06 930.182C1678.77 930.716 1678.63 931.364 1678.63 932.125ZM1695.49 940.273C1694.27 940.273 1693.21 939.983 1692.32 939.403C1691.44 938.824 1690.75 938.026 1690.28 937.009C1689.8 935.991 1689.56 934.83 1689.56 933.523C1689.56 932.193 1689.81 931.02 1690.29 930.003C1690.79 928.98 1691.48 928.182 1692.36 927.608C1693.24 927.028 1694.28 926.739 1695.46 926.739C1696.38 926.739 1697.21 926.909 1697.95 927.25C1698.69 927.591 1699.29 928.068 1699.76 928.682C1700.23 929.295 1700.53 930.011 1700.64 930.83H1698.63C1698.48 930.233 1698.14 929.705 1697.61 929.244C1697.08 928.778 1696.38 928.545 1695.49 928.545C1694.71 928.545 1694.02 928.75 1693.43 929.159C1692.85 929.562 1692.39 930.134 1692.06 930.872C1691.73 931.605 1691.57 932.466 1691.57 933.455C1691.57 934.466 1691.73 935.347 1692.05 936.097C1692.37 936.847 1692.83 937.429 1693.41 937.844C1694 938.259 1694.7 938.466 1695.49 938.466C1696.02 938.466 1696.49 938.375 1696.92 938.193C1697.34 938.011 1697.7 937.75 1698 937.409C1698.29 937.068 1698.5 936.659 1698.63 936.182H1700.64C1700.53 936.955 1700.25 937.651 1699.8 938.27C1699.35 938.884 1698.77 939.372 1698.03 939.736C1697.31 940.094 1696.46 940.273 1695.49 940.273Z" fill="#777777"/>
<path fill-rule="evenodd" clip-rule="evenodd" d="M1270.13 913C1255.69 913 1244 924.88 1244 939.548C1244 951.296 1251.48 961.218 1261.87 964.736C1263.18 964.968 1263.67 964.172 1263.67 963.475C1263.67 962.844 1263.63 960.753 1263.63 958.53C1257.07 959.758 1255.37 956.904 1254.85 955.411C1254.55 954.647 1253.28 952.291 1252.17 951.661C1251.25 951.163 1249.95 949.935 1252.13 949.902C1254.19 949.869 1255.66 951.827 1256.15 952.623C1258.5 956.639 1262.26 955.51 1263.76 954.813C1263.99 953.088 1264.68 951.926 1265.43 951.263C1259.61 950.599 1253.54 948.309 1253.54 938.154C1253.54 935.267 1254.55 932.878 1256.22 931.02C1255.96 930.356 1255.04 927.635 1256.48 923.984C1256.48 923.984 1258.67 923.287 1263.67 926.705C1265.76 926.108 1267.98 925.809 1270.2 925.809C1272.42 925.809 1274.64 926.108 1276.73 926.705C1281.73 923.254 1283.92 923.984 1283.92 923.984C1285.36 927.635 1284.44 930.356 1284.18 931.02C1285.85 932.878 1286.86 935.234 1286.86 938.154C1286.86 948.342 1280.75 950.599 1274.94 951.263C1275.88 952.092 1276.7 953.685 1276.7 956.174C1276.7 959.725 1276.67 962.579 1276.67 963.475C1276.67 964.172 1277.16 965.001 1278.46 964.736C1283.65 962.957 1288.16 959.569 1291.35 955.051C1294.55 950.533 1296.27 945.111 1296.27 939.548C1296.27 924.88 1284.57 913 1270.13 913Z" fill="#777777"/>
</svg>
