<svg width="1792" height="1024" viewBox="0 0 1792 1024" fill="none" xmlns="http://www.w3.org/2000/svg">
<rect width="1792" height="1024" fill="#080808"/>
<path d="M202.417 165.765C206.276 165.765 208.206 165.765 209.733 165.142C211.868 164.271 213.561 162.559 214.423 160.4C215.039 158.856 215.039 156.905 215.039 153.002V153.002V127.894C215.039 119.81 215.039 115.767 212.555 113.256C210.072 110.744 206.074 110.744 198.079 110.744H182.71C170.387 110.744 164.226 110.744 161.741 114.818C159.257 118.892 162.023 124.459 167.555 135.593L178.122 156.863C179.966 160.574 177.298 164.949 173.191 164.949C171.104 164.949 169.196 163.759 168.26 161.874L147.552 120.195C145.268 115.597 144.125 113.297 142.079 112.021C140.032 110.744 137.487 110.744 132.398 110.744L127.323 110.744C119.328 110.744 115.33 110.744 112.847 113.256C110.363 115.768 110.363 119.81 110.363 127.894L110.363 152.186C110.363 156.089 110.363 158.04 109.747 159.584C108.885 161.743 107.192 163.455 105.057 164.326C103.53 164.95 101.6 164.95 97.741 164.95H97.7409C93.8819 164.95 91.9523 164.95 90.4253 165.573C88.2902 166.444 86.5972 168.156 85.7355 170.315C85.1191 171.859 85.1191 173.81 85.1191 177.713V202.821C85.1191 210.905 85.1191 214.948 87.6029 217.459C90.0866 219.971 94.0841 219.971 102.079 219.971H102.079H117.449C129.771 219.971 135.932 219.971 138.417 215.897C140.901 211.823 138.135 206.256 132.604 195.122L122.036 173.852C120.192 170.14 122.86 165.766 126.967 165.766C129.054 165.766 130.962 166.956 131.899 168.841L152.606 210.52C154.891 215.118 156.033 217.418 158.08 218.694C160.126 219.97 162.671 219.97 167.761 219.97H167.761H172.835C180.83 219.97 184.828 219.97 187.312 217.459C189.795 214.947 189.795 210.905 189.795 202.82V178.529C189.795 174.626 189.795 172.675 190.412 171.131C191.274 168.972 192.966 167.26 195.102 166.389C196.629 165.765 198.558 165.765 202.417 165.765Z" fill="white"/>
<path d="M202.417 165.765C206.276 165.765 208.206 165.765 209.733 165.142C211.868 164.271 213.561 162.559 214.423 160.4C215.039 158.856 215.039 156.905 215.039 153.002V153.002V127.894C215.039 119.81 215.039 115.767 212.555 113.256C210.072 110.744 206.074 110.744 198.079 110.744H182.71C170.387 110.744 164.226 110.744 161.741 114.818C159.257 118.892 162.023 124.459 167.555 135.593L178.122 156.863C179.966 160.574 177.298 164.949 173.191 164.949C171.104 164.949 169.196 163.759 168.26 161.874L147.552 120.195C145.268 115.597 144.125 113.297 142.079 112.021C140.032 110.744 137.487 110.744 132.398 110.744L127.323 110.744C119.328 110.744 115.33 110.744 112.847 113.256C110.363 115.768 110.363 119.81 110.363 127.894L110.363 152.186C110.363 156.089 110.363 158.04 109.747 159.584C108.885 161.743 107.192 163.455 105.057 164.326C103.53 164.95 101.6 164.95 97.741 164.95H97.7409C93.8819 164.95 91.9523 164.95 90.4253 165.573C88.2902 166.444 86.5972 168.156 85.7355 170.315C85.1191 171.859 85.1191 173.81 85.1191 177.713V202.821C85.1191 210.905 85.1191 214.948 87.6029 217.459C90.0866 219.971 94.0841 219.971 102.079 219.971H102.079H117.449C129.771 219.971 135.932 219.971 138.417 215.897C140.901 211.823 138.135 206.256 132.604 195.122L122.036 173.852C120.192 170.14 122.86 165.766 126.967 165.766C129.054 165.766 130.962 166.956 131.899 168.841L152.606 210.52C154.891 215.118 156.033 217.418 158.08 218.694C160.126 219.97 162.671 219.97 167.761 219.97H167.761H172.835C180.83 219.97 184.828 219.97 187.312 217.459C189.795 214.947 189.795 210.905 189.795 202.82V178.529C189.795 174.626 189.795 172.675 190.412 171.131C191.274 168.972 192.966 167.26 195.102 166.389C196.629 165.765 198.558 165.765 202.417 165.765Z" stroke="white"/>
<path d="M150.961 399.441H129.415V329.623H151.915C158.688 329.623 164.484 331.021 169.302 333.816C174.12 336.589 177.813 340.578 180.381 345.782C182.95 350.964 184.234 357.169 184.234 364.396C184.234 371.669 182.938 377.93 180.347 383.18C177.756 388.407 173.984 392.43 169.029 395.248C164.075 398.044 158.052 399.441 150.961 399.441ZM137.87 391.941H150.415C156.188 391.941 160.972 390.828 164.768 388.6C168.563 386.373 171.393 383.203 173.256 379.089C175.12 374.975 176.052 370.078 176.052 364.396C176.052 358.76 175.131 353.907 173.29 349.839C171.45 345.748 168.7 342.612 165.04 340.43C161.381 338.225 156.825 337.123 151.37 337.123H137.87V391.941ZM210.814 400.669C207.495 400.669 204.484 400.044 201.78 398.794C199.075 397.521 196.927 395.691 195.336 393.305C193.745 390.896 192.95 387.987 192.95 384.578C192.95 381.578 193.541 379.146 194.723 377.282C195.905 375.396 197.484 373.919 199.461 372.85C201.439 371.782 203.62 370.987 206.007 370.464C208.416 369.919 210.836 369.487 213.268 369.169C216.45 368.76 219.03 368.453 221.007 368.248C223.007 368.021 224.461 367.646 225.37 367.123C226.302 366.6 226.768 365.691 226.768 364.396V364.123C226.768 360.76 225.848 358.146 224.007 356.282C222.189 354.419 219.427 353.487 215.723 353.487C211.882 353.487 208.87 354.328 206.689 356.01C204.507 357.691 202.973 359.487 202.086 361.396L194.45 358.669C195.814 355.487 197.632 353.01 199.905 351.237C202.2 349.441 204.7 348.191 207.405 347.487C210.132 346.76 212.814 346.396 215.45 346.396C217.132 346.396 219.064 346.6 221.245 347.01C223.45 347.396 225.575 348.203 227.62 349.43C229.689 350.657 231.405 352.51 232.768 354.987C234.132 357.464 234.814 360.782 234.814 364.941V399.441H226.768V392.35H226.359C225.814 393.487 224.905 394.703 223.632 395.998C222.359 397.294 220.666 398.396 218.552 399.305C216.439 400.214 213.859 400.669 210.814 400.669ZM212.041 393.441C215.223 393.441 217.905 392.816 220.086 391.566C222.291 390.316 223.95 388.703 225.064 386.725C226.2 384.748 226.768 382.669 226.768 380.487V373.123C226.427 373.532 225.677 373.907 224.518 374.248C223.382 374.566 222.064 374.85 220.564 375.1C219.086 375.328 217.643 375.532 216.234 375.714C214.848 375.873 213.723 376.01 212.859 376.123C210.768 376.396 208.814 376.839 206.995 377.453C205.2 378.044 203.745 378.941 202.632 380.146C201.541 381.328 200.995 382.941 200.995 384.987C200.995 387.782 202.03 389.896 204.098 391.328C206.189 392.737 208.836 393.441 212.041 393.441ZM270.351 347.078V353.896H243.215V347.078H270.351ZM251.124 334.532H259.169V384.441C259.169 386.714 259.499 388.419 260.158 389.555C260.84 390.669 261.703 391.419 262.749 391.805C263.817 392.169 264.942 392.35 266.124 392.35C267.01 392.35 267.737 392.305 268.306 392.214C268.874 392.1 269.328 392.01 269.669 391.941L271.306 399.169C270.76 399.373 269.999 399.578 269.022 399.782C268.044 400.01 266.806 400.123 265.306 400.123C263.033 400.123 260.806 399.635 258.624 398.657C256.465 397.68 254.669 396.191 253.237 394.191C251.828 392.191 251.124 389.669 251.124 386.623V334.532ZM295.942 400.669C292.624 400.669 289.613 400.044 286.908 398.794C284.204 397.521 282.056 395.691 280.465 393.305C278.874 390.896 278.079 387.987 278.079 384.578C278.079 381.578 278.67 379.146 279.852 377.282C281.033 375.396 282.613 373.919 284.59 372.85C286.567 371.782 288.749 370.987 291.136 370.464C293.545 369.919 295.965 369.487 298.397 369.169C301.579 368.76 304.158 368.453 306.136 368.248C308.136 368.021 309.59 367.646 310.499 367.123C311.431 366.6 311.897 365.691 311.897 364.396V364.123C311.897 360.76 310.977 358.146 309.136 356.282C307.317 354.419 304.556 353.487 300.852 353.487C297.011 353.487 293.999 354.328 291.817 356.01C289.636 357.691 288.102 359.487 287.215 361.396L279.579 358.669C280.942 355.487 282.761 353.01 285.033 351.237C287.329 349.441 289.829 348.191 292.533 347.487C295.261 346.76 297.942 346.396 300.579 346.396C302.261 346.396 304.192 346.6 306.374 347.01C308.579 347.396 310.704 348.203 312.749 349.43C314.817 350.657 316.533 352.51 317.897 354.987C319.261 357.464 319.942 360.782 319.942 364.941V399.441H311.897V392.35H311.488C310.942 393.487 310.033 394.703 308.761 395.998C307.488 397.294 305.795 398.396 303.681 399.305C301.567 400.214 298.988 400.669 295.942 400.669ZM297.17 393.441C300.352 393.441 303.033 392.816 305.215 391.566C307.42 390.316 309.079 388.703 310.192 386.725C311.329 384.748 311.897 382.669 311.897 380.487V373.123C311.556 373.532 310.806 373.907 309.647 374.248C308.511 374.566 307.192 374.85 305.692 375.1C304.215 375.328 302.772 375.532 301.363 375.714C299.977 375.873 298.852 376.01 297.988 376.123C295.897 376.396 293.942 376.839 292.124 377.453C290.329 378.044 288.874 378.941 287.761 380.146C286.67 381.328 286.124 382.941 286.124 384.987C286.124 387.782 287.158 389.896 289.227 391.328C291.317 392.737 293.965 393.441 297.17 393.441ZM358.878 399.441V329.623H382.469C387.946 329.623 392.423 330.612 395.901 332.589C399.401 334.544 401.992 337.191 403.673 340.532C405.355 343.873 406.196 347.6 406.196 351.714C406.196 355.828 405.355 359.566 403.673 362.93C402.014 366.294 399.446 368.975 395.969 370.975C392.492 372.953 388.037 373.941 382.605 373.941H365.696V366.441H382.333C386.083 366.441 389.094 365.794 391.367 364.498C393.639 363.203 395.287 361.453 396.31 359.248C397.355 357.021 397.878 354.51 397.878 351.714C397.878 348.919 397.355 346.419 396.31 344.214C395.287 342.01 393.628 340.282 391.333 339.032C389.037 337.76 385.992 337.123 382.196 337.123H367.333V399.441H358.878ZM416.805 399.441V347.078H424.577V354.987H425.123C426.077 352.396 427.805 350.294 430.305 348.68C432.805 347.066 435.623 346.26 438.759 346.26C439.35 346.26 440.089 346.271 440.975 346.294C441.861 346.316 442.532 346.35 442.986 346.396V354.578C442.714 354.51 442.089 354.407 441.111 354.271C440.157 354.112 439.145 354.032 438.077 354.032C435.532 354.032 433.259 354.566 431.259 355.635C429.282 356.68 427.714 358.135 426.555 359.998C425.418 361.839 424.85 363.941 424.85 366.305V399.441H416.805ZM450.603 399.441V347.078H458.649V399.441H450.603ZM454.694 338.35C453.126 338.35 451.774 337.816 450.637 336.748C449.524 335.68 448.967 334.396 448.967 332.896C448.967 331.396 449.524 330.112 450.637 329.044C451.774 327.975 453.126 327.441 454.694 327.441C456.262 327.441 457.603 327.975 458.717 329.044C459.853 330.112 460.422 331.396 460.422 332.896C460.422 334.396 459.853 335.68 458.717 336.748C457.603 337.816 456.262 338.35 454.694 338.35ZM514.283 347.078L494.919 399.441H486.737L467.374 347.078H476.101L490.555 388.805H491.101L505.555 347.078H514.283ZM536.797 400.669C533.479 400.669 530.468 400.044 527.763 398.794C525.059 397.521 522.911 395.691 521.32 393.305C519.729 390.896 518.934 387.987 518.934 384.578C518.934 381.578 519.525 379.146 520.707 377.282C521.888 375.396 523.468 373.919 525.445 372.85C527.422 371.782 529.604 370.987 531.991 370.464C534.4 369.919 536.82 369.487 539.252 369.169C542.434 368.76 545.013 368.453 546.991 368.248C548.991 368.021 550.445 367.646 551.354 367.123C552.286 366.6 552.752 365.691 552.752 364.396V364.123C552.752 360.76 551.832 358.146 549.991 356.282C548.172 354.419 545.411 353.487 541.707 353.487C537.866 353.487 534.854 354.328 532.672 356.01C530.491 357.691 528.957 359.487 528.07 361.396L520.434 358.669C521.797 355.487 523.616 353.01 525.888 351.237C528.184 349.441 530.684 348.191 533.388 347.487C536.116 346.76 538.797 346.396 541.434 346.396C543.116 346.396 545.047 346.6 547.229 347.01C549.434 347.396 551.559 348.203 553.604 349.43C555.672 350.657 557.388 352.51 558.752 354.987C560.116 357.464 560.797 360.782 560.797 364.941V399.441H552.752V392.35H552.343C551.797 393.487 550.888 394.703 549.616 395.998C548.343 397.294 546.65 398.396 544.536 399.305C542.422 400.214 539.843 400.669 536.797 400.669ZM538.025 393.441C541.207 393.441 543.888 392.816 546.07 391.566C548.275 390.316 549.934 388.703 551.047 386.725C552.184 384.748 552.752 382.669 552.752 380.487V373.123C552.411 373.532 551.661 373.907 550.502 374.248C549.366 374.566 548.047 374.85 546.547 375.1C545.07 375.328 543.627 375.532 542.218 375.714C540.832 375.873 539.707 376.01 538.843 376.123C536.752 376.396 534.797 376.839 532.979 377.453C531.184 378.044 529.729 378.941 528.616 380.146C527.525 381.328 526.979 382.941 526.979 384.987C526.979 387.782 528.013 389.896 530.082 391.328C532.172 392.737 534.82 393.441 538.025 393.441ZM594.835 400.532C589.926 400.532 585.698 399.373 582.153 397.055C578.608 394.737 575.88 391.544 573.971 387.475C572.062 383.407 571.108 378.76 571.108 373.532C571.108 368.214 572.085 363.521 574.039 359.453C576.017 355.362 578.767 352.169 582.289 349.873C585.835 347.555 589.971 346.396 594.698 346.396C598.38 346.396 601.698 347.078 604.653 348.441C607.608 349.805 610.028 351.714 611.914 354.169C613.801 356.623 614.971 359.487 615.426 362.76H607.38C606.767 360.373 605.403 358.26 603.289 356.419C601.198 354.555 598.38 353.623 594.835 353.623C591.698 353.623 588.948 354.441 586.585 356.078C584.244 357.691 582.414 359.975 581.096 362.93C579.801 365.862 579.153 369.305 579.153 373.26C579.153 377.305 579.789 380.828 581.062 383.828C582.358 386.828 584.176 389.157 586.517 390.816C588.88 392.475 591.653 393.305 594.835 393.305C596.926 393.305 598.823 392.941 600.528 392.214C602.233 391.487 603.676 390.441 604.858 389.078C606.039 387.714 606.88 386.078 607.38 384.169H615.426C614.971 387.26 613.846 390.044 612.051 392.521C610.278 394.975 607.926 396.93 604.994 398.385C602.085 399.816 598.698 400.532 594.835 400.532ZM630.449 419.078C629.085 419.078 627.869 418.964 626.801 418.737C625.733 418.532 624.994 418.328 624.585 418.123L626.631 411.032C628.585 411.532 630.313 411.714 631.813 411.578C633.313 411.441 634.642 410.771 635.801 409.566C636.983 408.385 638.063 406.464 639.04 403.805L640.54 399.714L621.176 347.078H629.903L644.358 388.805H644.903L659.358 347.078H668.085L645.858 407.078C644.858 409.782 643.619 412.021 642.142 413.794C640.665 415.589 638.949 416.919 636.994 417.782C635.063 418.646 632.881 419.078 630.449 419.078ZM725.183 347.078V353.896H696.955V347.078H725.183ZM705.41 399.441V339.85C705.41 336.85 706.115 334.35 707.524 332.35C708.933 330.35 710.762 328.85 713.012 327.85C715.262 326.85 717.637 326.35 720.137 326.35C722.115 326.35 723.728 326.51 724.978 326.828C726.228 327.146 727.16 327.441 727.774 327.714L725.455 334.669C725.046 334.532 724.478 334.362 723.751 334.157C723.046 333.953 722.115 333.85 720.955 333.85C718.296 333.85 716.376 334.521 715.194 335.862C714.035 337.203 713.455 339.169 713.455 341.76V399.441H705.41ZM753.655 400.532C748.928 400.532 744.78 399.407 741.212 397.157C737.666 394.907 734.893 391.76 732.893 387.714C730.916 383.669 729.928 378.941 729.928 373.532C729.928 368.078 730.916 363.316 732.893 359.248C734.893 355.18 737.666 352.021 741.212 349.771C744.78 347.521 748.928 346.396 753.655 346.396C758.382 346.396 762.518 347.521 766.064 349.771C769.632 352.021 772.405 355.18 774.382 359.248C776.382 363.316 777.382 368.078 777.382 373.532C777.382 378.941 776.382 383.669 774.382 387.714C772.405 391.76 769.632 394.907 766.064 397.157C762.518 399.407 758.382 400.532 753.655 400.532ZM753.655 393.305C757.246 393.305 760.2 392.385 762.518 390.544C764.837 388.703 766.553 386.282 767.666 383.282C768.78 380.282 769.337 377.032 769.337 373.532C769.337 370.032 768.78 366.771 767.666 363.748C766.553 360.725 764.837 358.282 762.518 356.419C760.2 354.555 757.246 353.623 753.655 353.623C750.064 353.623 747.109 354.555 744.791 356.419C742.473 358.282 740.757 360.725 739.643 363.748C738.53 366.771 737.973 370.032 737.973 373.532C737.973 377.032 738.53 380.282 739.643 383.282C740.757 386.282 742.473 388.703 744.791 390.544C747.109 392.385 750.064 393.305 753.655 393.305ZM787.743 399.441V347.078H795.516V354.987H796.062C797.016 352.396 798.743 350.294 801.243 348.68C803.743 347.066 806.562 346.26 809.698 346.26C810.289 346.26 811.027 346.271 811.914 346.294C812.8 346.316 813.471 346.35 813.925 346.396V354.578C813.652 354.51 813.027 354.407 812.05 354.271C811.096 354.112 810.084 354.032 809.016 354.032C806.471 354.032 804.198 354.566 802.198 355.635C800.221 356.68 798.652 358.135 797.493 359.998C796.357 361.839 795.789 363.941 795.789 366.305V399.441H787.743ZM847.713 399.441V329.623H856.168V391.941H888.622V399.441H847.713ZM899.793 399.441V329.623H908.248V391.941H940.702V399.441H899.793ZM951.873 329.623H961.964L985.691 387.578H986.509L1010.24 329.623H1020.33V399.441H1012.42V346.396H1011.74L989.918 399.441H982.282L960.464 346.396H959.782V399.441H951.873V329.623ZM1071.36 358.805L1064.13 360.85C1063.68 359.646 1063.01 358.475 1062.12 357.339C1061.26 356.18 1060.08 355.225 1058.58 354.475C1057.08 353.725 1055.15 353.35 1052.81 353.35C1049.61 353.35 1046.94 354.089 1044.8 355.566C1042.69 357.021 1041.63 358.873 1041.63 361.123C1041.63 363.123 1042.36 364.703 1043.81 365.862C1045.27 367.021 1047.54 367.987 1050.63 368.76L1058.4 370.669C1063.09 371.805 1066.58 373.544 1068.87 375.885C1071.17 378.203 1072.31 381.191 1072.31 384.85C1072.31 387.85 1071.45 390.532 1069.72 392.896C1068.02 395.26 1065.63 397.123 1062.56 398.487C1059.5 399.85 1055.93 400.532 1051.86 400.532C1046.52 400.532 1042.1 399.373 1038.6 397.055C1035.1 394.737 1032.88 391.35 1031.95 386.896L1039.59 384.987C1040.31 387.805 1041.69 389.919 1043.71 391.328C1045.76 392.737 1048.43 393.441 1051.72 393.441C1055.47 393.441 1058.45 392.646 1060.65 391.055C1062.88 389.441 1064 387.51 1064 385.26C1064 383.441 1063.36 381.919 1062.09 380.691C1060.81 379.441 1058.86 378.51 1056.22 377.896L1047.5 375.85C1042.7 374.714 1039.18 372.953 1036.93 370.566C1034.7 368.157 1033.59 365.146 1033.59 361.532C1033.59 358.578 1034.42 355.964 1036.08 353.691C1037.76 351.419 1040.04 349.635 1042.93 348.339C1045.84 347.044 1049.13 346.396 1052.81 346.396C1058 346.396 1062.06 347.532 1065.02 349.805C1068 352.078 1070.11 355.078 1071.36 358.805ZM1088.37 399.987C1086.69 399.987 1085.24 399.385 1084.04 398.18C1082.83 396.975 1082.23 395.532 1082.23 393.85C1082.23 392.169 1082.83 390.725 1084.04 389.521C1085.24 388.316 1086.69 387.714 1088.37 387.714C1090.05 387.714 1091.49 388.316 1092.7 389.521C1093.9 390.725 1094.5 392.169 1094.5 393.85C1094.5 394.964 1094.22 395.987 1093.65 396.919C1093.11 397.85 1092.37 398.6 1091.44 399.169C1090.53 399.714 1089.5 399.987 1088.37 399.987ZM1088.37 361.123C1086.69 361.123 1085.24 360.521 1084.04 359.316C1082.83 358.112 1082.23 356.669 1082.23 354.987C1082.23 353.305 1082.83 351.862 1084.04 350.657C1085.24 349.453 1086.69 348.85 1088.37 348.85C1090.05 348.85 1091.49 349.453 1092.7 350.657C1093.9 351.862 1094.5 353.305 1094.5 354.987C1094.5 356.1 1094.22 357.123 1093.65 358.055C1093.11 358.987 1092.37 359.737 1091.44 360.305C1090.53 360.85 1089.5 361.123 1088.37 361.123ZM167.597 579.078C167.188 575.623 165.529 572.941 162.62 571.032C159.711 569.123 156.143 568.169 151.915 568.169C148.825 568.169 146.12 568.669 143.802 569.669C141.506 570.669 139.711 572.044 138.415 573.794C137.143 575.544 136.506 577.532 136.506 579.76C136.506 581.623 136.95 583.225 137.836 584.566C138.745 585.885 139.904 586.987 141.313 587.873C142.722 588.737 144.2 589.453 145.745 590.021C147.29 590.566 148.711 591.01 150.006 591.35L157.097 593.26C158.915 593.737 160.938 594.396 163.165 595.237C165.415 596.078 167.563 597.225 169.609 598.68C171.677 600.112 173.381 601.953 174.722 604.203C176.063 606.453 176.734 609.214 176.734 612.487C176.734 616.26 175.745 619.669 173.768 622.714C171.813 625.76 168.95 628.18 165.177 629.975C161.427 631.771 156.87 632.669 151.506 632.669C146.506 632.669 142.177 631.862 138.518 630.248C134.881 628.635 132.018 626.385 129.927 623.498C127.859 620.612 126.688 617.26 126.415 613.441H135.143C135.37 616.078 136.256 618.26 137.802 619.987C139.37 621.691 141.347 622.964 143.734 623.805C146.143 624.623 148.734 625.032 151.506 625.032C154.734 625.032 157.631 624.51 160.2 623.464C162.768 622.396 164.802 620.919 166.302 619.032C167.802 617.123 168.552 614.896 168.552 612.35C168.552 610.032 167.904 608.146 166.609 606.691C165.313 605.237 163.609 604.055 161.495 603.146C159.381 602.237 157.097 601.441 154.643 600.76L146.052 598.305C140.597 596.737 136.279 594.498 133.097 591.589C129.915 588.68 128.325 584.873 128.325 580.169C128.325 576.26 129.381 572.85 131.495 569.941C133.631 567.01 136.495 564.737 140.086 563.123C143.7 561.487 147.734 560.669 152.188 560.669C156.688 560.669 160.688 561.475 164.188 563.089C167.688 564.68 170.461 566.862 172.506 569.635C174.575 572.407 175.665 575.555 175.779 579.078H167.597ZM192.805 651.078C191.442 651.078 190.226 650.964 189.157 650.737C188.089 650.532 187.351 650.328 186.942 650.123L188.987 643.032C190.942 643.532 192.669 643.714 194.169 643.578C195.669 643.441 196.998 642.771 198.157 641.566C199.339 640.385 200.419 638.464 201.396 635.805L202.896 631.714L183.532 579.078H192.26L206.714 620.805H207.26L221.714 579.078H230.442L208.214 639.078C207.214 641.782 205.976 644.021 204.498 645.794C203.021 647.589 201.305 648.919 199.351 649.782C197.419 650.646 195.237 651.078 192.805 651.078ZM247.186 599.941V631.441H239.141V579.078H246.914V587.26H247.595C248.823 584.6 250.686 582.464 253.186 580.85C255.686 579.214 258.914 578.396 262.868 578.396C266.414 578.396 269.516 579.123 272.175 580.578C274.834 582.01 276.902 584.191 278.379 587.123C279.857 590.032 280.595 593.714 280.595 598.169V631.441H272.55V598.714C272.55 594.6 271.482 591.396 269.345 589.1C267.209 586.782 264.277 585.623 260.55 585.623C257.982 585.623 255.686 586.18 253.664 587.294C251.664 588.407 250.084 590.032 248.925 592.169C247.766 594.305 247.186 596.896 247.186 599.941ZM316.15 579.078V585.896H289.013V579.078H316.15ZM296.923 566.532H304.968V616.441C304.968 618.714 305.298 620.419 305.957 621.555C306.638 622.669 307.502 623.419 308.548 623.805C309.616 624.169 310.741 624.35 311.923 624.35C312.809 624.35 313.536 624.305 314.104 624.214C314.673 624.1 315.127 624.01 315.468 623.941L317.104 631.169C316.559 631.373 315.798 631.578 314.82 631.782C313.843 632.01 312.604 632.123 311.104 632.123C308.832 632.123 306.604 631.635 304.423 630.657C302.263 629.68 300.468 628.191 299.036 626.191C297.627 624.191 296.923 621.669 296.923 618.623V566.532ZM335.503 599.941V631.441H327.457V561.623H335.503V587.26H336.184C337.412 584.555 339.253 582.407 341.707 580.816C344.184 579.203 347.48 578.396 351.593 578.396C355.162 578.396 358.287 579.112 360.968 580.544C363.65 581.953 365.73 584.123 367.207 587.055C368.707 589.964 369.457 593.669 369.457 598.169V631.441H361.412V598.714C361.412 594.555 360.332 591.339 358.173 589.066C356.037 586.771 353.071 585.623 349.275 585.623C346.639 585.623 344.275 586.18 342.184 587.294C340.116 588.407 338.48 590.032 337.275 592.169C336.093 594.305 335.503 596.896 335.503 599.941ZM404.21 632.532C399.165 632.532 394.813 631.419 391.154 629.191C387.517 626.941 384.71 623.805 382.733 619.782C380.779 615.737 379.801 611.032 379.801 605.669C379.801 600.305 380.779 595.578 382.733 591.487C384.71 587.373 387.46 584.169 390.983 581.873C394.529 579.555 398.665 578.396 403.392 578.396C406.119 578.396 408.813 578.85 411.472 579.76C414.131 580.669 416.551 582.146 418.733 584.191C420.915 586.214 422.654 588.896 423.949 592.237C425.244 595.578 425.892 599.691 425.892 604.578V607.987H385.529V601.032H417.71C417.71 598.078 417.119 595.441 415.938 593.123C414.779 590.805 413.119 588.975 410.96 587.635C408.824 586.294 406.301 585.623 403.392 585.623C400.188 585.623 397.415 586.419 395.074 588.01C392.756 589.578 390.972 591.623 389.722 594.146C388.472 596.669 387.847 599.373 387.847 602.26V606.896C387.847 610.85 388.529 614.203 389.892 616.953C391.279 619.68 393.199 621.76 395.654 623.191C398.108 624.6 400.96 625.305 404.21 625.305C406.324 625.305 408.233 625.01 409.938 624.419C411.665 623.805 413.154 622.896 414.404 621.691C415.654 620.464 416.619 618.941 417.301 617.123L425.074 619.305C424.256 621.941 422.881 624.26 420.949 626.26C419.017 628.237 416.631 629.782 413.79 630.896C410.949 631.987 407.756 632.532 404.21 632.532ZM458.984 579.078V585.896H431.847V579.078H458.984ZM439.756 566.532H447.802V616.441C447.802 618.714 448.131 620.419 448.79 621.555C449.472 622.669 450.336 623.419 451.381 623.805C452.449 624.169 453.574 624.35 454.756 624.35C455.643 624.35 456.37 624.305 456.938 624.214C457.506 624.1 457.961 624.01 458.302 623.941L459.938 631.169C459.393 631.373 458.631 631.578 457.654 631.782C456.677 632.01 455.438 632.123 453.938 632.123C451.665 632.123 449.438 631.635 447.256 630.657C445.097 629.68 443.302 628.191 441.87 626.191C440.461 624.191 439.756 621.669 439.756 618.623V566.532ZM469.166 631.441V579.078H477.211V631.441H469.166ZM473.257 570.35C471.689 570.35 470.336 569.816 469.2 568.748C468.086 567.68 467.529 566.396 467.529 564.896C467.529 563.396 468.086 562.112 469.2 561.044C470.336 559.975 471.689 559.441 473.257 559.441C474.825 559.441 476.166 559.975 477.279 561.044C478.416 562.112 478.984 563.396 478.984 564.896C478.984 566.396 478.416 567.68 477.279 568.748C476.166 569.816 474.825 570.35 473.257 570.35ZM511.3 632.532C506.391 632.532 502.163 631.373 498.618 629.055C495.073 626.737 492.345 623.544 490.436 619.475C488.527 615.407 487.573 610.76 487.573 605.532C487.573 600.214 488.55 595.521 490.504 591.453C492.482 587.362 495.232 584.169 498.754 581.873C502.3 579.555 506.436 578.396 511.163 578.396C514.845 578.396 518.163 579.078 521.118 580.441C524.073 581.805 526.493 583.714 528.379 586.169C530.266 588.623 531.436 591.487 531.891 594.76H523.845C523.232 592.373 521.868 590.26 519.754 588.419C517.663 586.555 514.845 585.623 511.3 585.623C508.163 585.623 505.413 586.441 503.05 588.078C500.709 589.691 498.879 591.975 497.561 594.93C496.266 597.862 495.618 601.305 495.618 605.26C495.618 609.305 496.254 612.828 497.527 615.828C498.823 618.828 500.641 621.157 502.982 622.816C505.345 624.475 508.118 625.305 511.3 625.305C513.391 625.305 515.288 624.941 516.993 624.214C518.698 623.487 520.141 622.441 521.323 621.078C522.504 619.714 523.345 618.078 523.845 616.169H531.891C531.436 619.26 530.311 622.044 528.516 624.521C526.743 626.975 524.391 628.93 521.459 630.385C518.55 631.816 515.163 632.532 511.3 632.532ZM589.448 631.441H567.903V561.623H590.403C597.176 561.623 602.971 563.021 607.789 565.816C612.608 568.589 616.301 572.578 618.869 577.782C621.437 582.964 622.721 589.169 622.721 596.396C622.721 603.669 621.426 609.93 618.835 615.18C616.244 620.407 612.471 624.43 607.517 627.248C602.562 630.044 596.539 631.441 589.448 631.441ZM576.358 623.941H588.903C594.676 623.941 599.46 622.828 603.255 620.6C607.051 618.373 609.88 615.203 611.744 611.089C613.608 606.975 614.539 602.078 614.539 596.396C614.539 590.76 613.619 585.907 611.778 581.839C609.937 577.748 607.187 574.612 603.528 572.43C599.869 570.225 595.312 569.123 589.858 569.123H576.358V623.941ZM649.301 632.669C645.983 632.669 642.972 632.044 640.267 630.794C637.563 629.521 635.415 627.691 633.824 625.305C632.233 622.896 631.438 619.987 631.438 616.578C631.438 613.578 632.028 611.146 633.21 609.282C634.392 607.396 635.972 605.919 637.949 604.85C639.926 603.782 642.108 602.987 644.494 602.464C646.903 601.919 649.324 601.487 651.756 601.169C654.938 600.76 657.517 600.453 659.494 600.248C661.494 600.021 662.949 599.646 663.858 599.123C664.79 598.6 665.256 597.691 665.256 596.396V596.123C665.256 592.76 664.335 590.146 662.494 588.282C660.676 586.419 657.915 585.487 654.21 585.487C650.369 585.487 647.358 586.328 645.176 588.01C642.994 589.691 641.46 591.487 640.574 593.396L632.938 590.669C634.301 587.487 636.119 585.01 638.392 583.237C640.688 581.441 643.188 580.191 645.892 579.487C648.619 578.76 651.301 578.396 653.938 578.396C655.619 578.396 657.551 578.6 659.733 579.01C661.938 579.396 664.063 580.203 666.108 581.43C668.176 582.657 669.892 584.51 671.256 586.987C672.619 589.464 673.301 592.782 673.301 596.941V631.441H665.256V624.35H664.847C664.301 625.487 663.392 626.703 662.119 627.998C660.847 629.294 659.153 630.396 657.04 631.305C654.926 632.214 652.347 632.669 649.301 632.669ZM650.528 625.441C653.71 625.441 656.392 624.816 658.574 623.566C660.778 622.316 662.438 620.703 663.551 618.725C664.688 616.748 665.256 614.669 665.256 612.487V605.123C664.915 605.532 664.165 605.907 663.006 606.248C661.869 606.566 660.551 606.85 659.051 607.1C657.574 607.328 656.131 607.532 654.722 607.714C653.335 607.873 652.21 608.01 651.347 608.123C649.256 608.396 647.301 608.839 645.483 609.453C643.688 610.044 642.233 610.941 641.119 612.146C640.028 613.328 639.483 614.941 639.483 616.987C639.483 619.782 640.517 621.896 642.585 623.328C644.676 624.737 647.324 625.441 650.528 625.441ZM708.839 579.078V585.896H681.702V579.078H708.839ZM689.611 566.532H697.657V616.441C697.657 618.714 697.986 620.419 698.645 621.555C699.327 622.669 700.191 623.419 701.236 623.805C702.304 624.169 703.429 624.35 704.611 624.35C705.498 624.35 706.225 624.305 706.793 624.214C707.361 624.1 707.816 624.01 708.157 623.941L709.793 631.169C709.248 631.373 708.486 631.578 707.509 631.782C706.532 632.01 705.293 632.123 703.793 632.123C701.52 632.123 699.293 631.635 697.111 630.657C694.952 629.68 693.157 628.191 691.725 626.191C690.316 624.191 689.611 621.669 689.611 618.623V566.532ZM734.43 632.669C731.112 632.669 728.1 632.044 725.396 630.794C722.691 629.521 720.544 627.691 718.953 625.305C717.362 622.896 716.566 619.987 716.566 616.578C716.566 613.578 717.157 611.146 718.339 609.282C719.521 607.396 721.1 605.919 723.078 604.85C725.055 603.782 727.237 602.987 729.623 602.464C732.032 601.919 734.453 601.487 736.884 601.169C740.066 600.76 742.646 600.453 744.623 600.248C746.623 600.021 748.078 599.646 748.987 599.123C749.919 598.6 750.384 597.691 750.384 596.396V596.123C750.384 592.76 749.464 590.146 747.623 588.282C745.805 586.419 743.044 585.487 739.339 585.487C735.498 585.487 732.487 586.328 730.305 588.01C728.123 589.691 726.589 591.487 725.703 593.396L718.066 590.669C719.43 587.487 721.248 585.01 723.521 583.237C725.816 581.441 728.316 580.191 731.021 579.487C733.748 578.76 736.43 578.396 739.066 578.396C740.748 578.396 742.68 578.6 744.862 579.01C747.066 579.396 749.191 580.203 751.237 581.43C753.305 582.657 755.021 584.51 756.384 586.987C757.748 589.464 758.43 592.782 758.43 596.941V631.441H750.384V624.35H749.975C749.43 625.487 748.521 626.703 747.248 627.998C745.975 629.294 744.282 630.396 742.169 631.305C740.055 632.214 737.475 632.669 734.43 632.669ZM735.657 625.441C738.839 625.441 741.521 624.816 743.703 623.566C745.907 622.316 747.566 620.703 748.68 618.725C749.816 616.748 750.384 614.669 750.384 612.487V605.123C750.044 605.532 749.294 605.907 748.134 606.248C746.998 606.566 745.68 606.85 744.18 607.1C742.703 607.328 741.259 607.532 739.85 607.714C738.464 607.873 737.339 608.01 736.475 608.123C734.384 608.396 732.43 608.839 730.612 609.453C728.816 610.044 727.362 610.941 726.248 612.146C725.157 613.328 724.612 614.941 724.612 616.987C724.612 619.782 725.646 621.896 727.714 623.328C729.805 624.737 732.453 625.441 735.657 625.441ZM839.093 579.078L819.729 631.441H811.547L792.184 579.078H800.911L815.365 620.805H815.911L830.365 579.078H839.093ZM884.883 590.805L877.656 592.85C877.201 591.646 876.531 590.475 875.644 589.339C874.781 588.18 873.599 587.225 872.099 586.475C870.599 585.725 868.678 585.35 866.338 585.35C863.133 585.35 860.463 586.089 858.326 587.566C856.213 589.021 855.156 590.873 855.156 593.123C855.156 595.123 855.883 596.703 857.338 597.862C858.792 599.021 861.065 599.987 864.156 600.76L871.928 602.669C876.61 603.805 880.099 605.544 882.394 607.885C884.69 610.203 885.838 613.191 885.838 616.85C885.838 619.85 884.974 622.532 883.247 624.896C881.542 627.26 879.156 629.123 876.088 630.487C873.019 631.85 869.451 632.532 865.383 632.532C860.042 632.532 855.622 631.373 852.122 629.055C848.622 626.737 846.406 623.35 845.474 618.896L853.11 616.987C853.838 619.805 855.213 621.919 857.235 623.328C859.281 624.737 861.951 625.441 865.247 625.441C868.997 625.441 871.974 624.646 874.178 623.055C876.406 621.441 877.519 619.51 877.519 617.26C877.519 615.441 876.883 613.919 875.61 612.691C874.338 611.441 872.383 610.51 869.747 609.896L861.019 607.85C856.224 606.714 852.701 604.953 850.451 602.566C848.224 600.157 847.11 597.146 847.11 593.532C847.11 590.578 847.94 587.964 849.599 585.691C851.281 583.419 853.565 581.635 856.451 580.339C859.36 579.044 862.656 578.396 866.338 578.396C871.519 578.396 875.588 579.532 878.542 581.805C881.519 584.078 883.633 587.078 884.883 590.805ZM918.381 569.123V561.623H970.745V569.123H948.79V631.441H940.336V569.123H918.381ZM994.461 632.532C989.734 632.532 985.586 631.407 982.018 629.157C978.472 626.907 975.7 623.76 973.7 619.714C971.722 615.669 970.734 610.941 970.734 605.532C970.734 600.078 971.722 595.316 973.7 591.248C975.7 587.18 978.472 584.021 982.018 581.771C985.586 579.521 989.734 578.396 994.461 578.396C999.188 578.396 1003.32 579.521 1006.87 581.771C1010.44 584.021 1013.21 587.18 1015.19 591.248C1017.19 595.316 1018.19 600.078 1018.19 605.532C1018.19 610.941 1017.19 615.669 1015.19 619.714C1013.21 623.76 1010.44 626.907 1006.87 629.157C1003.32 631.407 999.188 632.532 994.461 632.532ZM994.461 625.305C998.052 625.305 1001.01 624.385 1003.32 622.544C1005.64 620.703 1007.36 618.282 1008.47 615.282C1009.59 612.282 1010.14 609.032 1010.14 605.532C1010.14 602.032 1009.59 598.771 1008.47 595.748C1007.36 592.725 1005.64 590.282 1003.32 588.419C1001.01 586.555 998.052 585.623 994.461 585.623C990.87 585.623 987.916 586.555 985.597 588.419C983.279 590.282 981.563 592.725 980.45 595.748C979.336 598.771 978.779 602.032 978.779 605.532C978.779 609.032 979.336 612.282 980.45 615.282C981.563 618.282 983.279 620.703 985.597 622.544C987.916 624.385 990.87 625.305 994.461 625.305ZM1036.05 612.35L1035.91 602.396H1037.55L1060.46 579.078H1070.41L1046 603.76H1045.32L1036.05 612.35ZM1028.55 631.441V561.623H1036.6V631.441H1028.55ZM1061.82 631.441L1041.37 605.532L1047.1 599.941L1072.05 631.441H1061.82ZM1098.65 632.532C1093.6 632.532 1089.25 631.419 1085.59 629.191C1081.95 626.941 1079.15 623.805 1077.17 619.782C1075.21 615.737 1074.24 611.032 1074.24 605.669C1074.24 600.305 1075.21 595.578 1077.17 591.487C1079.15 587.373 1081.9 584.169 1085.42 581.873C1088.96 579.555 1093.1 578.396 1097.83 578.396C1100.56 578.396 1103.25 578.85 1105.91 579.76C1108.57 580.669 1110.99 582.146 1113.17 584.191C1115.35 586.214 1117.09 588.896 1118.39 592.237C1119.68 595.578 1120.33 599.691 1120.33 604.578V607.987H1079.96V601.032H1112.15C1112.15 598.078 1111.56 595.441 1110.37 593.123C1109.21 590.805 1107.56 588.975 1105.4 587.635C1103.26 586.294 1100.74 585.623 1097.83 585.623C1094.62 585.623 1091.85 586.419 1089.51 588.01C1087.19 589.578 1085.41 591.623 1084.16 594.146C1082.91 596.669 1082.28 599.373 1082.28 602.26V606.896C1082.28 610.85 1082.96 614.203 1084.33 616.953C1085.71 619.68 1087.64 621.76 1090.09 623.191C1092.54 624.6 1095.4 625.305 1098.65 625.305C1100.76 625.305 1102.67 625.01 1104.37 624.419C1106.1 623.805 1107.59 622.896 1108.84 621.691C1110.09 620.464 1111.06 618.941 1111.74 617.123L1119.51 619.305C1118.69 621.941 1117.32 624.26 1115.39 626.26C1113.45 628.237 1111.07 629.782 1108.23 630.896C1105.39 631.987 1102.19 632.532 1098.65 632.532ZM1138.69 599.941V631.441H1130.65V579.078H1138.42V587.26H1139.1C1140.33 584.6 1142.19 582.464 1144.69 580.85C1147.19 579.214 1150.42 578.396 1154.37 578.396C1157.92 578.396 1161.02 579.123 1163.68 580.578C1166.34 582.01 1168.41 584.191 1169.89 587.123C1171.36 590.032 1172.1 593.714 1172.1 598.169V631.441H1164.06V598.714C1164.06 594.6 1162.99 591.396 1160.85 589.1C1158.72 586.782 1155.78 585.623 1152.06 585.623C1149.49 585.623 1147.19 586.18 1145.17 587.294C1143.17 588.407 1141.59 590.032 1140.43 592.169C1139.27 594.305 1138.69 596.896 1138.69 599.941ZM1184.88 631.441V579.078H1192.93V631.441H1184.88ZM1188.97 570.35C1187.41 570.35 1186.05 569.816 1184.92 568.748C1183.8 567.68 1183.25 566.396 1183.25 564.896C1183.25 563.396 1183.8 562.112 1184.92 561.044C1186.05 559.975 1187.41 559.441 1188.97 559.441C1190.54 559.441 1191.88 559.975 1193 561.044C1194.13 562.112 1194.7 563.396 1194.7 564.896C1194.7 566.396 1194.13 567.68 1193 568.748C1191.88 569.816 1190.54 570.35 1188.97 570.35ZM1204.24 631.441V625.305L1233.97 587.123V586.578H1205.2V579.078H1244.34V585.487L1215.43 623.396V623.941H1245.29V631.441H1204.24ZM1271.17 632.669C1267.85 632.669 1264.84 632.044 1262.14 630.794C1259.43 629.521 1257.28 627.691 1255.69 625.305C1254.1 622.896 1253.31 619.987 1253.31 616.578C1253.31 613.578 1253.9 611.146 1255.08 609.282C1256.26 607.396 1257.84 605.919 1259.82 604.85C1261.8 603.782 1263.98 602.987 1266.36 602.464C1268.77 601.919 1271.19 601.487 1273.63 601.169C1276.81 600.76 1279.39 600.453 1281.36 600.248C1283.36 600.021 1284.82 599.646 1285.73 599.123C1286.66 598.6 1287.13 597.691 1287.13 596.396V596.123C1287.13 592.76 1286.21 590.146 1284.36 588.282C1282.55 586.419 1279.78 585.487 1276.08 585.487C1272.24 585.487 1269.23 586.328 1267.05 588.01C1264.86 589.691 1263.33 591.487 1262.44 593.396L1254.81 590.669C1256.17 587.487 1257.99 585.01 1260.26 583.237C1262.56 581.441 1265.06 580.191 1267.76 579.487C1270.49 578.76 1273.17 578.396 1275.81 578.396C1277.49 578.396 1279.42 578.6 1281.6 579.01C1283.81 579.396 1285.93 580.203 1287.98 581.43C1290.05 582.657 1291.76 584.51 1293.13 586.987C1294.49 589.464 1295.17 592.782 1295.17 596.941V631.441H1287.13V624.35H1286.72C1286.17 625.487 1285.26 626.703 1283.99 627.998C1282.72 629.294 1281.02 630.396 1278.91 631.305C1276.8 632.214 1274.22 632.669 1271.17 632.669ZM1272.4 625.441C1275.58 625.441 1278.26 624.816 1280.44 623.566C1282.65 622.316 1284.31 620.703 1285.42 618.725C1286.56 616.748 1287.13 614.669 1287.13 612.487V605.123C1286.78 605.532 1286.03 605.907 1284.88 606.248C1283.74 606.566 1282.42 606.85 1280.92 607.1C1279.44 607.328 1278 607.532 1276.59 607.714C1275.21 607.873 1274.08 608.01 1273.22 608.123C1271.13 608.396 1269.17 608.839 1267.35 609.453C1265.56 610.044 1264.1 610.941 1262.99 612.146C1261.9 613.328 1261.35 614.941 1261.35 616.987C1261.35 619.782 1262.39 621.896 1264.46 623.328C1266.55 624.737 1269.19 625.441 1272.4 625.441ZM1330.71 579.078V585.896H1303.57V579.078H1330.71ZM1311.48 566.532H1319.53V616.441C1319.53 618.714 1319.86 620.419 1320.52 621.555C1321.2 622.669 1322.06 623.419 1323.11 623.805C1324.17 624.169 1325.3 624.35 1326.48 624.35C1327.37 624.35 1328.09 624.305 1328.66 624.214C1329.23 624.1 1329.69 624.01 1330.03 623.941L1331.66 631.169C1331.12 631.373 1330.36 631.578 1329.38 631.782C1328.4 632.01 1327.16 632.123 1325.66 632.123C1323.39 632.123 1321.16 631.635 1318.98 630.657C1316.82 629.68 1315.03 628.191 1313.59 626.191C1312.19 624.191 1311.48 621.669 1311.48 618.623V566.532ZM1340.89 631.441V579.078H1348.94V631.441H1340.89ZM1344.98 570.35C1343.41 570.35 1342.06 569.816 1340.92 568.748C1339.81 567.68 1339.25 566.396 1339.25 564.896C1339.25 563.396 1339.81 562.112 1340.92 561.044C1342.06 559.975 1343.41 559.441 1344.98 559.441C1346.55 559.441 1347.89 559.975 1349 561.044C1350.14 562.112 1350.71 563.396 1350.71 564.896C1350.71 566.396 1350.14 567.68 1349 568.748C1347.89 569.816 1346.55 570.35 1344.98 570.35ZM1383.02 632.532C1378.3 632.532 1374.15 631.407 1370.58 629.157C1367.04 626.907 1364.26 623.76 1362.26 619.714C1360.29 615.669 1359.3 610.941 1359.3 605.532C1359.3 600.078 1360.29 595.316 1362.26 591.248C1364.26 587.18 1367.04 584.021 1370.58 581.771C1374.15 579.521 1378.3 578.396 1383.02 578.396C1387.75 578.396 1391.89 579.521 1395.43 581.771C1399 584.021 1401.77 587.18 1403.75 591.248C1405.75 595.316 1406.75 600.078 1406.75 605.532C1406.75 610.941 1405.75 615.669 1403.75 619.714C1401.77 623.76 1399 626.907 1395.43 629.157C1391.89 631.407 1387.75 632.532 1383.02 632.532ZM1383.02 625.305C1386.62 625.305 1389.57 624.385 1391.89 622.544C1394.21 620.703 1395.92 618.282 1397.04 615.282C1398.15 612.282 1398.71 609.032 1398.71 605.532C1398.71 602.032 1398.15 598.771 1397.04 595.748C1395.92 592.725 1394.21 590.282 1391.89 588.419C1389.57 586.555 1386.62 585.623 1383.02 585.623C1379.43 585.623 1376.48 586.555 1374.16 588.419C1371.84 590.282 1370.13 592.725 1369.01 595.748C1367.9 598.771 1367.34 602.032 1367.34 605.532C1367.34 609.032 1367.9 612.282 1369.01 615.282C1370.13 618.282 1371.84 620.703 1374.16 622.544C1376.48 624.385 1379.43 625.305 1383.02 625.305ZM1425.16 599.941V631.441H1417.11V579.078H1424.89V587.26H1425.57C1426.8 584.6 1428.66 582.464 1431.16 580.85C1433.66 579.214 1436.89 578.396 1440.84 578.396C1444.39 578.396 1447.49 579.123 1450.15 580.578C1452.81 582.01 1454.87 584.191 1456.35 587.123C1457.83 590.032 1458.57 593.714 1458.57 598.169V631.441H1450.52V598.714C1450.52 594.6 1449.45 591.396 1447.32 589.1C1445.18 586.782 1442.25 585.623 1438.52 585.623C1435.95 585.623 1433.66 586.18 1431.64 587.294C1429.64 588.407 1428.06 590.032 1426.9 592.169C1425.74 594.305 1425.16 596.896 1425.16 599.941Z" fill="white"/>
<path d="M88.9714 928.381V936.256H86.96V923.165H88.9032V925.21H89.0737C89.3805 924.546 89.8464 924.012 90.4714 923.608C91.0964 923.199 91.9032 922.994 92.8919 922.994C93.7782 922.994 94.5538 923.176 95.2186 923.54C95.8833 923.898 96.4004 924.443 96.7697 925.176C97.139 925.904 97.3237 926.824 97.3237 927.938V936.256H95.3123V928.074C95.3123 927.046 95.0453 926.244 94.5112 925.671C93.9771 925.091 93.2441 924.801 92.3123 924.801C91.6703 924.801 91.0964 924.941 90.5907 925.219C90.0907 925.497 89.6958 925.904 89.4061 926.438C89.1163 926.972 88.9714 927.619 88.9714 928.381ZM106.008 936.529C104.746 936.529 103.658 936.25 102.744 935.693C101.834 935.131 101.133 934.347 100.638 933.341C100.15 932.33 99.9055 931.154 99.9055 929.813C99.9055 928.472 100.15 927.29 100.638 926.267C101.133 925.239 101.82 924.438 102.701 923.864C103.587 923.284 104.621 922.994 105.803 922.994C106.485 922.994 107.158 923.108 107.823 923.335C108.488 923.563 109.093 923.932 109.638 924.443C110.184 924.949 110.619 925.619 110.942 926.455C111.266 927.29 111.428 928.318 111.428 929.54V930.392H101.337V928.654H109.383C109.383 927.915 109.235 927.256 108.94 926.676C108.65 926.097 108.235 925.639 107.695 925.304C107.161 924.969 106.53 924.801 105.803 924.801C105.002 924.801 104.309 925 103.724 925.398C103.144 925.79 102.698 926.301 102.386 926.932C102.073 927.563 101.917 928.239 101.917 928.96V930.119C101.917 931.108 102.087 931.946 102.428 932.634C102.775 933.316 103.255 933.835 103.869 934.193C104.482 934.546 105.195 934.722 106.008 934.722C106.536 934.722 107.013 934.648 107.44 934.5C107.871 934.347 108.244 934.119 108.556 933.818C108.869 933.512 109.11 933.131 109.28 932.676L111.224 933.222C111.019 933.881 110.675 934.46 110.192 934.96C109.709 935.455 109.113 935.841 108.403 936.119C107.692 936.392 106.894 936.529 106.008 936.529ZM119.326 936.529C118.144 936.529 117.107 936.247 116.215 935.685C115.329 935.122 114.636 934.335 114.136 933.324C113.641 932.313 113.394 931.131 113.394 929.779C113.394 928.415 113.641 927.225 114.136 926.208C114.636 925.191 115.329 924.401 116.215 923.838C117.107 923.276 118.144 922.994 119.326 922.994C120.508 922.994 121.542 923.276 122.428 923.838C123.32 924.401 124.014 925.191 124.508 926.208C125.008 927.225 125.258 928.415 125.258 929.779C125.258 931.131 125.008 932.313 124.508 933.324C124.014 934.335 123.32 935.122 122.428 935.685C121.542 936.247 120.508 936.529 119.326 936.529ZM119.326 934.722C120.224 934.722 120.962 934.492 121.542 934.031C122.121 933.571 122.55 932.966 122.829 932.216C123.107 931.466 123.247 930.654 123.247 929.779C123.247 928.904 123.107 928.088 122.829 927.333C122.55 926.577 122.121 925.966 121.542 925.5C120.962 925.034 120.224 924.801 119.326 924.801C118.428 924.801 117.69 925.034 117.11 925.5C116.531 925.966 116.102 926.577 115.823 927.333C115.545 928.088 115.406 928.904 115.406 929.779C115.406 930.654 115.545 931.466 115.823 932.216C116.102 932.966 116.531 933.571 117.11 934.031C117.69 934.492 118.428 934.722 119.326 934.722ZM137.121 926.097L135.314 926.608C135.2 926.307 135.033 926.014 134.811 925.73C134.595 925.441 134.3 925.202 133.925 925.014C133.55 924.827 133.07 924.733 132.485 924.733C131.683 924.733 131.016 924.918 130.482 925.287C129.953 925.651 129.689 926.114 129.689 926.676C129.689 927.176 129.871 927.571 130.235 927.861C130.598 928.151 131.166 928.392 131.939 928.585L133.882 929.063C135.053 929.347 135.925 929.781 136.499 930.367C137.073 930.946 137.36 931.693 137.36 932.608C137.36 933.358 137.144 934.029 136.712 934.619C136.286 935.21 135.689 935.676 134.922 936.017C134.155 936.358 133.263 936.529 132.246 936.529C130.911 936.529 129.806 936.239 128.931 935.659C128.056 935.08 127.502 934.233 127.269 933.119L129.178 932.642C129.36 933.347 129.703 933.875 130.209 934.227C130.72 934.58 131.388 934.756 132.212 934.756C133.149 934.756 133.894 934.557 134.445 934.159C135.002 933.756 135.28 933.273 135.28 932.71C135.28 932.256 135.121 931.875 134.803 931.568C134.485 931.256 133.996 931.023 133.337 930.869L131.155 930.358C129.956 930.074 129.075 929.634 128.513 929.037C127.956 928.435 127.678 927.682 127.678 926.779C127.678 926.04 127.885 925.387 128.3 924.818C128.72 924.25 129.291 923.804 130.013 923.48C130.74 923.156 131.564 922.994 132.485 922.994C133.78 922.994 134.797 923.279 135.536 923.847C136.28 924.415 136.808 925.165 137.121 926.097ZM141.203 941.165C140.862 941.165 140.558 941.137 140.291 941.08C140.024 941.029 139.839 940.977 139.737 940.926L140.248 939.154C140.737 939.279 141.169 939.324 141.544 939.29C141.919 939.256 142.251 939.088 142.541 938.787C142.836 938.492 143.106 938.012 143.35 937.347L143.725 936.324L138.885 923.165H141.066L144.68 933.597H144.816L148.43 923.165H150.612L145.055 938.165C144.805 938.841 144.495 939.401 144.126 939.844C143.757 940.293 143.328 940.625 142.839 940.841C142.356 941.057 141.811 941.165 141.203 941.165ZM154.798 928.381V936.256H152.787V923.165H154.73V925.21H154.9C155.207 924.546 155.673 924.012 156.298 923.608C156.923 923.199 157.73 922.994 158.718 922.994C159.605 922.994 160.38 923.176 161.045 923.54C161.71 923.898 162.227 924.443 162.596 925.176C162.966 925.904 163.15 926.824 163.15 927.938V936.256H161.139V928.074C161.139 927.046 160.872 926.244 160.338 925.671C159.804 925.091 159.071 924.801 158.139 924.801C157.497 924.801 156.923 924.941 156.417 925.219C155.917 925.497 155.522 925.904 155.233 926.438C154.943 926.972 154.798 927.619 154.798 928.381ZM171.664 936.529C170.437 936.529 169.38 936.239 168.493 935.659C167.607 935.08 166.925 934.281 166.448 933.264C165.971 932.247 165.732 931.085 165.732 929.779C165.732 928.449 165.976 927.276 166.465 926.259C166.959 925.236 167.647 924.438 168.527 923.864C169.414 923.284 170.448 922.994 171.63 922.994C172.55 922.994 173.38 923.165 174.118 923.506C174.857 923.847 175.462 924.324 175.934 924.938C176.405 925.551 176.698 926.267 176.812 927.085H174.8C174.647 926.489 174.306 925.96 173.777 925.5C173.255 925.034 172.55 924.801 171.664 924.801C170.88 924.801 170.192 925.006 169.601 925.415C169.016 925.818 168.559 926.389 168.229 927.128C167.905 927.861 167.743 928.722 167.743 929.71C167.743 930.722 167.902 931.602 168.221 932.352C168.545 933.102 168.999 933.685 169.584 934.1C170.175 934.514 170.868 934.722 171.664 934.722C172.187 934.722 172.661 934.631 173.087 934.449C173.513 934.267 173.874 934.006 174.17 933.665C174.465 933.324 174.675 932.915 174.8 932.438H176.812C176.698 933.21 176.417 933.906 175.968 934.526C175.525 935.139 174.937 935.628 174.204 935.992C173.476 936.35 172.63 936.529 171.664 936.529ZM180.738 936.392C180.317 936.392 179.957 936.242 179.655 935.941C179.354 935.639 179.204 935.279 179.204 934.858C179.204 934.438 179.354 934.077 179.655 933.776C179.957 933.475 180.317 933.324 180.738 933.324C181.158 933.324 181.519 933.475 181.82 933.776C182.121 934.077 182.272 934.438 182.272 934.858C182.272 935.137 182.201 935.392 182.059 935.625C181.922 935.858 181.738 936.046 181.505 936.188C181.278 936.324 181.022 936.392 180.738 936.392ZM190.344 936.529C189.254 936.529 188.291 936.253 187.455 935.702C186.62 935.145 185.967 934.361 185.495 933.35C185.023 932.333 184.788 931.131 184.788 929.744C184.788 928.369 185.023 927.176 185.495 926.165C185.967 925.154 186.623 924.372 187.464 923.821C188.305 923.27 189.276 922.994 190.379 922.994C191.231 922.994 191.904 923.137 192.398 923.421C192.898 923.699 193.279 924.017 193.541 924.375C193.808 924.727 194.015 925.017 194.163 925.244H194.333V918.801H196.344V936.256H194.401V934.244H194.163C194.015 934.483 193.805 934.784 193.532 935.148C193.259 935.506 192.87 935.827 192.364 936.111C191.859 936.389 191.185 936.529 190.344 936.529ZM190.617 934.722C191.424 934.722 192.106 934.512 192.663 934.091C193.219 933.665 193.643 933.077 193.933 932.327C194.222 931.571 194.367 930.699 194.367 929.71C194.367 928.733 194.225 927.878 193.941 927.145C193.657 926.406 193.237 925.833 192.68 925.423C192.123 925.009 191.435 924.801 190.617 924.801C189.765 924.801 189.055 925.02 188.487 925.458C187.924 925.889 187.501 926.477 187.217 927.222C186.938 927.96 186.799 928.79 186.799 929.71C186.799 930.642 186.941 931.489 187.225 932.25C187.515 933.006 187.941 933.608 188.504 934.057C189.072 934.5 189.776 934.722 190.617 934.722ZM205.316 936.529C204.055 936.529 202.967 936.25 202.052 935.693C201.143 935.131 200.441 934.347 199.947 933.341C199.458 932.33 199.214 931.154 199.214 929.813C199.214 928.472 199.458 927.29 199.947 926.267C200.441 925.239 201.129 924.438 202.009 923.864C202.896 923.284 203.93 922.994 205.112 922.994C205.793 922.994 206.467 923.108 207.132 923.335C207.796 923.563 208.401 923.932 208.947 924.443C209.492 924.949 209.927 925.619 210.251 926.455C210.575 927.29 210.737 928.318 210.737 929.54V930.392H200.646V928.654H208.691C208.691 927.915 208.543 927.256 208.248 926.676C207.958 926.097 207.543 925.639 207.004 925.304C206.47 924.969 205.839 924.801 205.112 924.801C204.311 924.801 203.617 925 203.032 925.398C202.453 925.79 202.007 926.301 201.694 926.932C201.382 927.563 201.225 928.239 201.225 928.96V930.119C201.225 931.108 201.396 931.946 201.737 932.634C202.083 933.316 202.563 933.835 203.177 934.193C203.791 934.546 204.504 934.722 205.316 934.722C205.845 934.722 206.322 934.648 206.748 934.5C207.18 934.347 207.552 934.119 207.864 933.818C208.177 933.512 208.418 933.131 208.589 932.676L210.532 933.222C210.328 933.881 209.984 934.46 209.501 934.96C209.018 935.455 208.421 935.841 207.711 936.119C207.001 936.392 206.203 936.529 205.316 936.529ZM223.622 923.165L218.781 936.256H216.736L211.895 923.165H214.077L217.691 933.597H217.827L221.441 923.165H223.622Z" fill="#777777"/>
<path d="M1333.12 945.182C1332.15 945.182 1331.32 945.057 1330.62 944.807C1329.92 944.562 1329.34 944.239 1328.87 943.835C1328.41 943.438 1328.05 943.011 1327.77 942.557L1329.38 941.432C1329.56 941.67 1329.79 941.943 1330.07 942.25C1330.34 942.562 1330.72 942.832 1331.21 943.06C1331.7 943.293 1332.34 943.409 1333.12 943.409C1334.18 943.409 1335.05 943.153 1335.74 942.642C1336.43 942.131 1336.77 941.33 1336.77 940.239V937.58H1336.6C1336.45 937.818 1336.24 938.114 1335.97 938.466C1335.7 938.812 1335.32 939.122 1334.81 939.395C1334.31 939.662 1333.64 939.795 1332.78 939.795C1331.73 939.795 1330.78 939.545 1329.94 939.045C1329.1 938.545 1328.44 937.818 1327.95 936.864C1327.47 935.909 1327.23 934.75 1327.23 933.386C1327.23 932.045 1327.46 930.878 1327.93 929.884C1328.41 928.884 1329.06 928.111 1329.9 927.565C1330.74 927.014 1331.72 926.739 1332.82 926.739C1333.67 926.739 1334.35 926.881 1334.85 927.165C1335.35 927.443 1335.74 927.761 1336.01 928.119C1336.28 928.472 1336.49 928.761 1336.64 928.989H1336.84V926.909H1338.78V940.375C1338.78 941.5 1338.53 942.415 1338.02 943.119C1337.51 943.83 1336.83 944.349 1335.97 944.679C1335.12 945.014 1334.17 945.182 1333.12 945.182ZM1333.06 937.989C1333.86 937.989 1334.55 937.804 1335.1 937.435C1335.66 937.065 1336.08 936.534 1336.37 935.841C1336.66 935.148 1336.81 934.318 1336.81 933.352C1336.81 932.409 1336.66 931.577 1336.38 930.855C1336.1 930.134 1335.68 929.568 1335.12 929.159C1334.56 928.75 1333.88 928.545 1333.06 928.545C1332.2 928.545 1331.49 928.761 1330.93 929.193C1330.36 929.625 1329.94 930.205 1329.66 930.932C1329.38 931.659 1329.24 932.466 1329.24 933.352C1329.24 934.261 1329.38 935.065 1329.66 935.764C1329.95 936.457 1330.38 937.003 1330.94 937.401C1331.51 937.793 1332.22 937.989 1333.06 937.989ZM1341.99 940V926.909H1344V940H1341.99ZM1343.01 924.727C1342.62 924.727 1342.28 924.594 1341.99 924.327C1341.72 924.06 1341.58 923.739 1341.58 923.364C1341.58 922.989 1341.72 922.668 1341.99 922.401C1342.28 922.134 1342.62 922 1343.01 922C1343.4 922 1343.74 922.134 1344.01 922.401C1344.3 922.668 1344.44 922.989 1344.44 923.364C1344.44 923.739 1344.3 924.06 1344.01 924.327C1343.74 924.594 1343.4 924.727 1343.01 924.727ZM1352.89 926.909V928.614H1346.11V926.909H1352.89ZM1348.09 923.773H1350.1V936.25C1350.1 936.818 1350.18 937.244 1350.35 937.528C1350.52 937.807 1350.73 937.994 1350.99 938.091C1351.26 938.182 1351.54 938.227 1351.84 938.227C1352.06 938.227 1352.24 938.216 1352.38 938.193C1352.53 938.165 1352.64 938.142 1352.72 938.125L1353.13 939.932C1353 939.983 1352.81 940.034 1352.56 940.085C1352.32 940.142 1352.01 940.17 1351.63 940.17C1351.06 940.17 1350.51 940.048 1349.96 939.804C1349.42 939.56 1348.97 939.188 1348.62 938.688C1348.26 938.188 1348.09 937.557 1348.09 936.795V923.773ZM1357.73 932.125V940H1355.72V922.545H1357.73V928.955H1357.9C1358.21 928.278 1358.67 927.741 1359.28 927.344C1359.9 926.94 1360.73 926.739 1361.76 926.739C1362.65 926.739 1363.43 926.918 1364.1 927.276C1364.77 927.628 1365.29 928.17 1365.66 928.903C1366.03 929.631 1366.22 930.557 1366.22 931.682V940H1364.21V931.818C1364.21 930.778 1363.94 929.974 1363.4 929.406C1362.87 928.832 1362.12 928.545 1361.18 928.545C1360.52 928.545 1359.93 928.685 1359.4 928.963C1358.89 929.241 1358.48 929.648 1358.18 930.182C1357.88 930.716 1357.73 931.364 1357.73 932.125ZM1377.67 934.648V926.909H1379.68V940H1377.67V937.784H1377.53C1377.23 938.449 1376.75 939.014 1376.1 939.48C1375.46 939.94 1374.64 940.17 1373.65 940.17C1372.83 940.17 1372.1 939.991 1371.47 939.634C1370.83 939.27 1370.33 938.724 1369.97 937.997C1369.6 937.264 1369.42 936.341 1369.42 935.227V926.909H1371.43V935.091C1371.43 936.045 1371.7 936.807 1372.23 937.375C1372.77 937.943 1373.46 938.227 1374.3 938.227C1374.8 938.227 1375.3 938.099 1375.82 937.844C1376.34 937.588 1376.78 937.196 1377.13 936.668C1377.49 936.139 1377.67 935.466 1377.67 934.648ZM1383.16 940V922.545H1385.17V928.989H1385.34C1385.49 928.761 1385.69 928.472 1385.95 928.119C1386.22 927.761 1386.6 927.443 1387.1 927.165C1387.6 926.881 1388.27 926.739 1389.12 926.739C1390.23 926.739 1391.2 927.014 1392.04 927.565C1392.88 928.116 1393.54 928.898 1394.01 929.909C1394.48 930.92 1394.72 932.114 1394.72 933.489C1394.72 934.875 1394.48 936.077 1394.01 937.094C1393.54 938.105 1392.88 938.889 1392.05 939.446C1391.21 939.997 1390.25 940.273 1389.16 940.273C1388.32 940.273 1387.64 940.134 1387.14 939.855C1386.63 939.571 1386.24 939.25 1385.97 938.892C1385.7 938.528 1385.49 938.227 1385.34 937.989H1385.1V940H1383.16ZM1385.14 933.455C1385.14 934.443 1385.28 935.315 1385.57 936.071C1385.86 936.821 1386.28 937.409 1386.84 937.835C1387.4 938.256 1388.08 938.466 1388.89 938.466C1389.73 938.466 1390.43 938.244 1390.99 937.801C1391.56 937.352 1391.99 936.75 1392.27 935.994C1392.56 935.233 1392.7 934.386 1392.7 933.455C1392.7 932.534 1392.56 931.705 1392.28 930.966C1392 930.222 1391.58 929.634 1391.01 929.202C1390.45 928.764 1389.74 928.545 1388.89 928.545C1388.07 928.545 1387.38 928.753 1386.82 929.168C1386.27 929.577 1385.85 930.151 1385.56 930.889C1385.28 931.622 1385.14 932.477 1385.14 933.455ZM1398.78 940.136C1398.36 940.136 1398 939.986 1397.7 939.685C1397.39 939.384 1397.24 939.023 1397.24 938.602C1397.24 938.182 1397.39 937.821 1397.7 937.52C1398 937.219 1398.36 937.068 1398.78 937.068C1399.2 937.068 1399.56 937.219 1399.86 937.52C1400.16 937.821 1400.31 938.182 1400.31 938.602C1400.31 938.881 1400.24 939.136 1400.1 939.369C1399.96 939.602 1399.78 939.79 1399.55 939.932C1399.32 940.068 1399.06 940.136 1398.78 940.136ZM1408.76 940.273C1407.53 940.273 1406.48 939.983 1405.59 939.403C1404.7 938.824 1404.02 938.026 1403.54 937.009C1403.07 935.991 1402.83 934.83 1402.83 933.523C1402.83 932.193 1403.07 931.02 1403.56 930.003C1404.06 928.98 1404.74 928.182 1405.62 927.608C1406.51 927.028 1407.54 926.739 1408.73 926.739C1409.65 926.739 1410.48 926.909 1411.21 927.25C1411.95 927.591 1412.56 928.068 1413.03 928.682C1413.5 929.295 1413.79 930.011 1413.91 930.83H1411.9C1411.74 930.233 1411.4 929.705 1410.87 929.244C1410.35 928.778 1409.65 928.545 1408.76 928.545C1407.98 928.545 1407.29 928.75 1406.7 929.159C1406.11 929.562 1405.65 930.134 1405.33 930.872C1405 931.605 1404.84 932.466 1404.84 933.455C1404.84 934.466 1405 935.347 1405.32 936.097C1405.64 936.847 1406.1 937.429 1406.68 937.844C1407.27 938.259 1407.96 938.466 1408.76 938.466C1409.28 938.466 1409.76 938.375 1410.18 938.193C1410.61 938.011 1410.97 937.75 1411.27 937.409C1411.56 937.068 1411.77 936.659 1411.9 936.182H1413.91C1413.79 936.955 1413.51 937.651 1413.06 938.27C1412.62 938.884 1412.03 939.372 1411.3 939.736C1410.57 940.094 1409.73 940.273 1408.76 940.273ZM1421.69 940.273C1420.5 940.273 1419.47 939.991 1418.58 939.429C1417.69 938.866 1417 938.08 1416.5 937.068C1416 936.057 1415.75 934.875 1415.75 933.523C1415.75 932.159 1416 930.969 1416.5 929.952C1417 928.935 1417.69 928.145 1418.58 927.582C1419.47 927.02 1420.5 926.739 1421.69 926.739C1422.87 926.739 1423.9 927.02 1424.79 927.582C1425.68 928.145 1426.37 928.935 1426.87 929.952C1427.37 930.969 1427.62 932.159 1427.62 933.523C1427.62 934.875 1427.37 936.057 1426.87 937.068C1426.37 938.08 1425.68 938.866 1424.79 939.429C1423.9 939.991 1422.87 940.273 1421.69 940.273ZM1421.69 938.466C1422.58 938.466 1423.32 938.236 1423.9 937.776C1424.48 937.315 1424.91 936.71 1425.19 935.96C1425.47 935.21 1425.61 934.398 1425.61 933.523C1425.61 932.648 1425.47 931.832 1425.19 931.077C1424.91 930.321 1424.48 929.71 1423.9 929.244C1423.32 928.778 1422.58 928.545 1421.69 928.545C1420.79 928.545 1420.05 928.778 1419.47 929.244C1418.89 929.71 1418.46 930.321 1418.18 931.077C1417.91 931.832 1417.77 932.648 1417.77 933.523C1417.77 934.398 1417.91 935.21 1418.18 935.96C1418.46 936.71 1418.89 937.315 1419.47 937.776C1420.05 938.236 1420.79 938.466 1421.69 938.466ZM1430.21 940V926.909H1432.15V928.955H1432.32C1432.59 928.256 1433.04 927.713 1433.64 927.327C1434.25 926.935 1434.98 926.739 1435.83 926.739C1436.7 926.739 1437.42 926.935 1437.99 927.327C1438.57 927.713 1439.02 928.256 1439.34 928.955H1439.48C1439.82 928.278 1440.32 927.741 1440.99 927.344C1441.66 926.94 1442.46 926.739 1443.4 926.739C1444.57 926.739 1445.53 927.105 1446.27 927.838C1447.02 928.565 1447.39 929.699 1447.39 931.239V940H1445.38V931.239C1445.38 930.273 1445.11 929.582 1444.59 929.168C1444.06 928.753 1443.44 928.545 1442.72 928.545C1441.8 928.545 1441.09 928.824 1440.58 929.381C1440.07 929.932 1439.82 930.631 1439.82 931.477V940H1437.78V931.034C1437.78 930.29 1437.54 929.69 1437.05 929.236C1436.57 928.776 1435.95 928.545 1435.19 928.545C1434.66 928.545 1434.17 928.685 1433.72 928.963C1433.27 929.241 1432.91 929.628 1432.63 930.122C1432.36 930.611 1432.22 931.176 1432.22 931.818V940H1430.21ZM1456.76 921.727L1451.13 942.625H1449.29L1454.92 921.727H1456.76ZM1460.67 932.125V940H1458.66V926.909H1460.61V928.955H1460.78C1461.08 928.29 1461.55 927.756 1462.17 927.352C1462.8 926.943 1463.61 926.739 1464.59 926.739C1465.48 926.739 1466.26 926.92 1466.92 927.284C1467.59 927.642 1468.1 928.188 1468.47 928.92C1468.84 929.648 1469.03 930.568 1469.03 931.682V940H1467.01V931.818C1467.01 930.79 1466.75 929.989 1466.21 929.415C1465.68 928.835 1464.95 928.545 1464.01 928.545C1463.37 928.545 1462.8 928.685 1462.29 928.963C1461.79 929.241 1461.4 929.648 1461.11 930.182C1460.82 930.716 1460.67 931.364 1460.67 932.125ZM1480.47 934.648V926.909H1482.48V940H1480.47V937.784H1480.34C1480.03 938.449 1479.55 939.014 1478.9 939.48C1478.26 939.94 1477.44 940.17 1476.45 940.17C1475.63 940.17 1474.9 939.991 1474.27 939.634C1473.63 939.27 1473.13 938.724 1472.77 937.997C1472.4 937.264 1472.22 936.341 1472.22 935.227V926.909H1474.23V935.091C1474.23 936.045 1474.5 936.807 1475.03 937.375C1475.57 937.943 1476.26 938.227 1477.1 938.227C1477.6 938.227 1478.11 938.099 1478.62 937.844C1479.14 937.588 1479.58 937.196 1479.93 936.668C1480.29 936.139 1480.47 935.466 1480.47 934.648ZM1491.01 940.273C1489.78 940.273 1488.72 939.983 1487.83 939.403C1486.95 938.824 1486.27 938.026 1485.79 937.009C1485.31 935.991 1485.07 934.83 1485.07 933.523C1485.07 932.193 1485.32 931.02 1485.81 930.003C1486.3 928.98 1486.99 928.182 1487.87 927.608C1488.76 927.028 1489.79 926.739 1490.97 926.739C1491.89 926.739 1492.72 926.909 1493.46 927.25C1494.2 927.591 1494.8 928.068 1495.27 928.682C1495.75 929.295 1496.04 930.011 1496.15 930.83H1494.14C1493.99 930.233 1493.65 929.705 1493.12 929.244C1492.6 928.778 1491.89 928.545 1491.01 928.545C1490.22 928.545 1489.53 928.75 1488.94 929.159C1488.36 929.562 1487.9 930.134 1487.57 930.872C1487.25 931.605 1487.08 932.466 1487.08 933.455C1487.08 934.466 1487.24 935.347 1487.56 936.097C1487.89 936.847 1488.34 937.429 1488.93 937.844C1489.52 938.259 1490.21 938.466 1491.01 938.466C1491.53 938.466 1492 938.375 1492.43 938.193C1492.85 938.011 1493.22 937.75 1493.51 937.409C1493.81 937.068 1494.02 936.659 1494.14 936.182H1496.15C1496.04 936.955 1495.76 937.651 1495.31 938.27C1494.87 938.884 1494.28 939.372 1493.54 939.736C1492.82 940.094 1491.97 940.273 1491.01 940.273ZM1500.62 922.545V940H1498.61V922.545H1500.62ZM1509.32 940.273C1508.06 940.273 1506.97 939.994 1506.05 939.438C1505.14 938.875 1504.44 938.091 1503.95 937.085C1503.46 936.074 1503.21 934.898 1503.21 933.557C1503.21 932.216 1503.46 931.034 1503.95 930.011C1504.44 928.983 1505.13 928.182 1506.01 927.608C1506.9 927.028 1507.93 926.739 1509.11 926.739C1509.79 926.739 1510.47 926.852 1511.13 927.08C1511.8 927.307 1512.4 927.676 1512.95 928.188C1513.49 928.693 1513.93 929.364 1514.25 930.199C1514.58 931.034 1514.74 932.062 1514.74 933.284V934.136H1504.65V932.398H1512.69C1512.69 931.659 1512.54 931 1512.25 930.42C1511.96 929.841 1511.54 929.384 1511 929.048C1510.47 928.713 1509.84 928.545 1509.11 928.545C1508.31 928.545 1507.62 928.744 1507.03 929.142C1506.45 929.534 1506.01 930.045 1505.69 930.676C1505.38 931.307 1505.23 931.983 1505.23 932.705V933.864C1505.23 934.852 1505.4 935.69 1505.74 936.378C1506.08 937.06 1506.56 937.58 1507.18 937.938C1507.79 938.29 1508.5 938.466 1509.32 938.466C1509.85 938.466 1510.32 938.392 1510.75 938.244C1511.18 938.091 1511.55 937.864 1511.87 937.562C1512.18 937.256 1512.42 936.875 1512.59 936.42L1514.53 936.966C1514.33 937.625 1513.98 938.205 1513.5 938.705C1513.02 939.199 1512.42 939.585 1511.71 939.864C1511 940.136 1510.2 940.273 1509.32 940.273ZM1525.57 934.648V926.909H1527.58V940H1525.57V937.784H1525.43C1525.12 938.449 1524.65 939.014 1524 939.48C1523.35 939.94 1522.53 940.17 1521.54 940.17C1520.73 940.17 1520 939.991 1519.36 939.634C1518.73 939.27 1518.23 938.724 1517.86 937.997C1517.5 937.264 1517.32 936.341 1517.32 935.227V926.909H1519.33V935.091C1519.33 936.045 1519.6 936.807 1520.13 937.375C1520.67 937.943 1521.36 938.227 1522.19 938.227C1522.69 938.227 1523.2 938.099 1523.72 937.844C1524.24 937.588 1524.68 937.196 1525.03 936.668C1525.39 936.139 1525.57 935.466 1525.57 934.648ZM1540.06 929.841L1538.25 930.352C1538.13 930.051 1537.97 929.759 1537.75 929.474C1537.53 929.185 1537.23 928.946 1536.86 928.759C1536.48 928.571 1536 928.477 1535.42 928.477C1534.62 928.477 1533.95 928.662 1533.42 929.031C1532.89 929.395 1532.62 929.858 1532.62 930.42C1532.62 930.92 1532.81 931.315 1533.17 931.605C1533.53 931.895 1534.1 932.136 1534.87 932.33L1536.82 932.807C1537.99 933.091 1538.86 933.526 1539.43 934.111C1540.01 934.69 1540.29 935.437 1540.29 936.352C1540.29 937.102 1540.08 937.773 1539.65 938.364C1539.22 938.955 1538.62 939.42 1537.86 939.761C1537.09 940.102 1536.2 940.273 1535.18 940.273C1533.84 940.273 1532.74 939.983 1531.86 939.403C1530.99 938.824 1530.44 937.977 1530.2 936.864L1532.11 936.386C1532.29 937.091 1532.64 937.619 1533.14 937.972C1533.65 938.324 1534.32 938.5 1535.15 938.5C1536.08 938.5 1536.83 938.301 1537.38 937.903C1537.94 937.5 1538.21 937.017 1538.21 936.455C1538.21 936 1538.06 935.619 1537.74 935.312C1537.42 935 1536.93 934.767 1536.27 934.614L1534.09 934.102C1532.89 933.818 1532.01 933.378 1531.45 932.781C1530.89 932.179 1530.61 931.426 1530.61 930.523C1530.61 929.784 1530.82 929.131 1531.23 928.562C1531.65 927.994 1532.23 927.548 1532.95 927.224C1533.67 926.901 1534.5 926.739 1535.42 926.739C1536.71 926.739 1537.73 927.023 1538.47 927.591C1539.21 928.159 1539.74 928.909 1540.06 929.841ZM1548.16 940.273C1546.93 940.273 1545.88 939.983 1544.99 939.403C1544.1 938.824 1543.42 938.026 1542.94 937.009C1542.47 935.991 1542.23 934.83 1542.23 933.523C1542.23 932.193 1542.47 931.02 1542.96 930.003C1543.46 928.98 1544.14 928.182 1545.02 927.608C1545.91 927.028 1546.94 926.739 1548.13 926.739C1549.05 926.739 1549.88 926.909 1550.61 927.25C1551.35 927.591 1551.96 928.068 1552.43 928.682C1552.9 929.295 1553.19 930.011 1553.31 930.83H1551.3C1551.14 930.233 1550.8 929.705 1550.27 929.244C1549.75 928.778 1549.05 928.545 1548.16 928.545C1547.38 928.545 1546.69 928.75 1546.1 929.159C1545.51 929.562 1545.05 930.134 1544.73 930.872C1544.4 931.605 1544.24 932.466 1544.24 933.455C1544.24 934.466 1544.4 935.347 1544.72 936.097C1545.04 936.847 1545.49 937.429 1546.08 937.844C1546.67 938.259 1547.36 938.466 1548.16 938.466C1548.68 938.466 1549.16 938.375 1549.58 938.193C1550.01 938.011 1550.37 937.75 1550.67 937.409C1550.96 937.068 1551.17 936.659 1551.3 936.182H1553.31C1553.19 936.955 1552.91 937.651 1552.46 938.27C1552.02 938.884 1551.43 939.372 1550.7 939.736C1549.97 940.094 1549.13 940.273 1548.16 940.273ZM1557.78 922.545V940H1555.77V922.545H1557.78ZM1566.3 940.273C1565.12 940.273 1564.08 939.991 1563.19 939.429C1562.3 938.866 1561.61 938.08 1561.11 937.068C1560.62 936.057 1560.37 934.875 1560.37 933.523C1560.37 932.159 1560.62 930.969 1561.11 929.952C1561.61 928.935 1562.3 928.145 1563.19 927.582C1564.08 927.02 1565.12 926.739 1566.3 926.739C1567.48 926.739 1568.52 927.02 1569.4 927.582C1570.3 928.145 1570.99 928.935 1571.48 929.952C1571.98 930.969 1572.23 932.159 1572.23 933.523C1572.23 934.875 1571.98 936.057 1571.48 937.068C1570.99 938.08 1570.3 938.866 1569.4 939.429C1568.52 939.991 1567.48 940.273 1566.3 940.273ZM1566.3 938.466C1567.2 938.466 1567.94 938.236 1568.52 937.776C1569.1 937.315 1569.53 936.71 1569.8 935.96C1570.08 935.21 1570.22 934.398 1570.22 933.523C1570.22 932.648 1570.08 931.832 1569.8 931.077C1569.53 930.321 1569.1 929.71 1568.52 929.244C1567.94 928.778 1567.2 928.545 1566.3 928.545C1565.4 928.545 1564.66 928.778 1564.09 929.244C1563.51 929.71 1563.08 930.321 1562.8 931.077C1562.52 931.832 1562.38 932.648 1562.38 933.523C1562.38 934.398 1562.52 935.21 1562.8 935.96C1563.08 936.71 1563.51 937.315 1564.09 937.776C1564.66 938.236 1565.4 938.466 1566.3 938.466ZM1583.07 934.648V926.909H1585.08V940H1583.07V937.784H1582.94C1582.63 938.449 1582.15 939.014 1581.51 939.48C1580.86 939.94 1580.04 940.17 1579.05 940.17C1578.23 940.17 1577.51 939.991 1576.87 939.634C1576.23 939.27 1575.73 938.724 1575.37 937.997C1575.01 937.264 1574.82 936.341 1574.82 935.227V926.909H1576.83V935.091C1576.83 936.045 1577.1 936.807 1577.64 937.375C1578.18 937.943 1578.86 938.227 1579.7 938.227C1580.2 938.227 1580.71 938.099 1581.22 937.844C1581.75 937.588 1582.18 937.196 1582.54 936.668C1582.89 936.139 1583.07 935.466 1583.07 934.648ZM1593.23 940.273C1592.14 940.273 1591.18 939.997 1590.34 939.446C1589.51 938.889 1588.85 938.105 1588.38 937.094C1587.91 936.077 1587.68 934.875 1587.68 933.489C1587.68 932.114 1587.91 930.92 1588.38 929.909C1588.85 928.898 1589.51 928.116 1590.35 927.565C1591.19 927.014 1592.16 926.739 1593.27 926.739C1594.12 926.739 1594.79 926.881 1595.29 927.165C1595.79 927.443 1596.17 927.761 1596.43 928.119C1596.69 928.472 1596.9 928.761 1597.05 928.989H1597.22V922.545H1599.23V940H1597.29V937.989H1597.05C1596.9 938.227 1596.69 938.528 1596.42 938.892C1596.15 939.25 1595.76 939.571 1595.25 939.855C1594.75 940.134 1594.07 940.273 1593.23 940.273ZM1593.5 938.466C1594.31 938.466 1594.99 938.256 1595.55 937.835C1596.11 937.409 1596.53 936.821 1596.82 936.071C1597.11 935.315 1597.25 934.443 1597.25 933.455C1597.25 932.477 1597.11 931.622 1596.83 930.889C1596.54 930.151 1596.12 929.577 1595.57 929.168C1595.01 928.753 1594.32 928.545 1593.5 928.545C1592.65 928.545 1591.94 928.764 1591.37 929.202C1590.81 929.634 1590.39 930.222 1590.1 930.966C1589.83 931.705 1589.69 932.534 1589.69 933.455C1589.69 934.386 1589.83 935.233 1590.11 935.994C1590.4 936.75 1590.83 937.352 1591.39 937.801C1591.96 938.244 1592.66 938.466 1593.5 938.466ZM1608.89 921.727L1603.26 942.625H1601.42L1607.04 921.727H1608.89ZM1612.8 932.125V940H1610.79V926.909H1612.73V928.955H1612.9C1613.21 928.29 1613.68 927.756 1614.3 927.352C1614.93 926.943 1615.73 926.739 1616.72 926.739C1617.61 926.739 1618.38 926.92 1619.05 927.284C1619.71 927.642 1620.23 928.188 1620.6 928.92C1620.97 929.648 1621.15 930.568 1621.15 931.682V940H1619.14V931.818C1619.14 930.79 1618.87 929.989 1618.34 929.415C1617.81 928.835 1617.07 928.545 1616.14 928.545C1615.5 928.545 1614.93 928.685 1614.42 928.963C1613.92 929.241 1613.53 929.648 1613.24 930.182C1612.95 930.716 1612.8 931.364 1612.8 932.125ZM1629.84 940.273C1628.58 940.273 1627.49 939.994 1626.57 939.438C1625.66 938.875 1624.96 938.091 1624.47 937.085C1623.98 936.074 1623.74 934.898 1623.74 933.557C1623.74 932.216 1623.98 931.034 1624.47 930.011C1624.96 928.983 1625.65 928.182 1626.53 927.608C1627.42 927.028 1628.45 926.739 1629.63 926.739C1630.31 926.739 1630.99 926.852 1631.65 927.08C1632.32 927.307 1632.92 927.676 1633.47 928.188C1634.01 928.693 1634.45 929.364 1634.77 930.199C1635.1 931.034 1635.26 932.062 1635.26 933.284V934.136H1625.17V932.398H1633.21C1633.21 931.659 1633.06 931 1632.77 930.42C1632.48 929.841 1632.06 929.384 1631.52 929.048C1630.99 928.713 1630.36 928.545 1629.63 928.545C1628.83 928.545 1628.14 928.744 1627.55 929.142C1626.97 929.534 1626.53 930.045 1626.22 930.676C1625.9 931.307 1625.75 931.983 1625.75 932.705V933.864C1625.75 934.852 1625.92 935.69 1626.26 936.378C1626.6 937.06 1627.08 937.58 1627.7 937.938C1628.31 938.29 1629.02 938.466 1629.84 938.466C1630.37 938.466 1630.84 938.392 1631.27 938.244C1631.7 938.091 1632.07 937.864 1632.39 937.562C1632.7 937.256 1632.94 936.875 1633.11 936.42L1635.05 936.966C1634.85 937.625 1634.5 938.205 1634.02 938.705C1633.54 939.199 1632.94 939.585 1632.23 939.864C1631.52 940.136 1630.72 940.273 1629.84 940.273ZM1643.16 940.273C1641.97 940.273 1640.94 939.991 1640.04 939.429C1639.16 938.866 1638.47 938.08 1637.97 937.068C1637.47 936.057 1637.22 934.875 1637.22 933.523C1637.22 932.159 1637.47 930.969 1637.97 929.952C1638.47 928.935 1639.16 928.145 1640.04 927.582C1640.94 927.02 1641.97 926.739 1643.16 926.739C1644.34 926.739 1645.37 927.02 1646.26 927.582C1647.15 928.145 1647.84 928.935 1648.34 929.952C1648.84 930.969 1649.09 932.159 1649.09 933.523C1649.09 934.875 1648.84 936.057 1648.34 937.068C1647.84 938.08 1647.15 938.866 1646.26 939.429C1645.37 939.991 1644.34 940.273 1643.16 940.273ZM1643.16 938.466C1644.05 938.466 1644.79 938.236 1645.37 937.776C1645.95 937.315 1646.38 936.71 1646.66 935.96C1646.94 935.21 1647.08 934.398 1647.08 933.523C1647.08 932.648 1646.94 931.832 1646.66 931.077C1646.38 930.321 1645.95 929.71 1645.37 929.244C1644.79 928.778 1644.05 928.545 1643.16 928.545C1642.26 928.545 1641.52 928.778 1640.94 929.244C1640.36 929.71 1639.93 930.321 1639.65 931.077C1639.37 931.832 1639.24 932.648 1639.24 933.523C1639.24 934.398 1639.37 935.21 1639.65 935.96C1639.93 936.71 1640.36 937.315 1640.94 937.776C1641.52 938.236 1642.26 938.466 1643.16 938.466ZM1660.95 929.841L1659.14 930.352C1659.03 930.051 1658.86 929.759 1658.64 929.474C1658.42 929.185 1658.13 928.946 1657.75 928.759C1657.38 928.571 1656.9 928.477 1656.31 928.477C1655.51 928.477 1654.85 928.662 1654.31 929.031C1653.78 929.395 1653.52 929.858 1653.52 930.42C1653.52 930.92 1653.7 931.315 1654.06 931.605C1654.43 931.895 1655 932.136 1655.77 932.33L1657.71 932.807C1658.88 933.091 1659.75 933.526 1660.33 934.111C1660.9 934.69 1661.19 935.437 1661.19 936.352C1661.19 937.102 1660.97 937.773 1660.54 938.364C1660.12 938.955 1659.52 939.42 1658.75 939.761C1657.98 940.102 1657.09 940.273 1656.08 940.273C1654.74 940.273 1653.64 939.983 1652.76 939.403C1651.89 938.824 1651.33 937.977 1651.1 936.864L1653.01 936.386C1653.19 937.091 1653.53 937.619 1654.04 937.972C1654.55 938.324 1655.22 938.5 1656.04 938.5C1656.98 938.5 1657.72 938.301 1658.27 937.903C1658.83 937.5 1659.11 937.017 1659.11 936.455C1659.11 936 1658.95 935.619 1658.63 935.312C1658.31 935 1657.83 934.767 1657.17 934.614L1654.98 934.102C1653.79 933.818 1652.91 933.378 1652.34 932.781C1651.79 932.179 1651.51 931.426 1651.51 930.523C1651.51 929.784 1651.71 929.131 1652.13 928.562C1652.55 927.994 1653.12 927.548 1653.84 927.224C1654.57 926.901 1655.39 926.739 1656.31 926.739C1657.61 926.739 1658.63 927.023 1659.37 927.591C1660.11 928.159 1660.64 928.909 1660.95 929.841ZM1665.03 944.909C1664.69 944.909 1664.39 944.881 1664.12 944.824C1663.85 944.773 1663.67 944.722 1663.57 944.67L1664.08 942.898C1664.57 943.023 1665 943.068 1665.37 943.034C1665.75 943 1666.08 942.832 1666.37 942.531C1666.67 942.236 1666.94 941.756 1667.18 941.091L1667.56 940.068L1662.71 926.909H1664.9L1668.51 937.341H1668.65L1672.26 926.909H1674.44L1668.88 941.909C1668.63 942.585 1668.32 943.145 1667.96 943.588C1667.59 944.037 1667.16 944.369 1666.67 944.585C1666.19 944.801 1665.64 944.909 1665.03 944.909ZM1678.63 932.125V940H1676.62V926.909H1678.56V928.955H1678.73C1679.04 928.29 1679.5 927.756 1680.13 927.352C1680.75 926.943 1681.56 926.739 1682.55 926.739C1683.43 926.739 1684.21 926.92 1684.87 927.284C1685.54 927.642 1686.06 928.188 1686.43 928.92C1686.8 929.648 1686.98 930.568 1686.98 931.682V940H1684.97V931.818C1684.97 930.79 1684.7 929.989 1684.17 929.415C1683.63 928.835 1682.9 928.545 1681.97 928.545C1681.33 928.545 1680.75 928.685 1680.25 928.963C1679.75 929.241 1679.35 929.648 1679.06 930.182C1678.77 930.716 1678.63 931.364 1678.63 932.125ZM1695.49 940.273C1694.27 940.273 1693.21 939.983 1692.32 939.403C1691.44 938.824 1690.75 938.026 1690.28 937.009C1689.8 935.991 1689.56 934.83 1689.56 933.523C1689.56 932.193 1689.81 931.02 1690.29 930.003C1690.79 928.98 1691.48 928.182 1692.36 927.608C1693.24 927.028 1694.28 926.739 1695.46 926.739C1696.38 926.739 1697.21 926.909 1697.95 927.25C1698.69 927.591 1699.29 928.068 1699.76 928.682C1700.23 929.295 1700.53 930.011 1700.64 930.83H1698.63C1698.48 930.233 1698.14 929.705 1697.61 929.244C1697.08 928.778 1696.38 928.545 1695.49 928.545C1694.71 928.545 1694.02 928.75 1693.43 929.159C1692.85 929.562 1692.39 930.134 1692.06 930.872C1691.73 931.605 1691.57 932.466 1691.57 933.455C1691.57 934.466 1691.73 935.347 1692.05 936.097C1692.37 936.847 1692.83 937.429 1693.41 937.844C1694 938.259 1694.7 938.466 1695.49 938.466C1696.02 938.466 1696.49 938.375 1696.92 938.193C1697.34 938.011 1697.7 937.75 1698 937.409C1698.29 937.068 1698.5 936.659 1698.63 936.182H1700.64C1700.53 936.955 1700.25 937.651 1699.8 938.27C1699.35 938.884 1698.77 939.372 1698.03 939.736C1697.31 940.094 1696.46 940.273 1695.49 940.273Z" fill="#777777"/>
<path fill-rule="evenodd" clip-rule="evenodd" d="M1270.13 913C1255.69 913 1244 924.88 1244 939.548C1244 951.296 1251.48 961.218 1261.87 964.736C1263.18 964.968 1263.67 964.172 1263.67 963.475C1263.67 962.844 1263.63 960.753 1263.63 958.53C1257.07 959.758 1255.37 956.904 1254.85 955.411C1254.55 954.647 1253.28 952.291 1252.17 951.661C1251.25 951.163 1249.95 949.935 1252.13 949.902C1254.19 949.869 1255.66 951.827 1256.15 952.623C1258.5 956.639 1262.26 955.51 1263.76 954.813C1263.99 953.088 1264.68 951.926 1265.43 951.263C1259.61 950.599 1253.54 948.309 1253.54 938.154C1253.54 935.267 1254.55 932.878 1256.22 931.02C1255.96 930.356 1255.04 927.635 1256.48 923.984C1256.48 923.984 1258.67 923.287 1263.67 926.705C1265.76 926.108 1267.98 925.809 1270.2 925.809C1272.42 925.809 1274.64 926.108 1276.73 926.705C1281.73 923.254 1283.92 923.984 1283.92 923.984C1285.36 927.635 1284.44 930.356 1284.18 931.02C1285.85 932.878 1286.86 935.234 1286.86 938.154C1286.86 948.342 1280.75 950.599 1274.94 951.263C1275.88 952.092 1276.7 953.685 1276.7 956.174C1276.7 959.725 1276.67 962.579 1276.67 963.475C1276.67 964.172 1277.16 965.001 1278.46 964.736C1283.65 962.957 1288.16 959.569 1291.35 955.051C1294.55 950.533 1296.27 945.111 1296.27 939.548C1296.27 924.88 1284.57 913 1270.13 913Z" fill="#777777"/>
</svg>
