<svg width="241" height="178" viewBox="0 0 241 178" fill="none" xmlns="http://www.w3.org/2000/svg">
<path d="M6.42253 32.9687C5.85904 33.294 5.35097 33.4807 4.89833 33.5287C4.45492 33.5713 4.06232 33.4833 3.72053 33.2647L4.21936 31.9687L4.27479 31.7927L4.37178 31.8007C4.39026 31.8647 4.41335 31.9367 4.44107 32.0167C4.46878 32.086 4.53344 32.1553 4.63506 32.2247C4.87523 32.3207 5.15236 32.3473 5.46644 32.3047C5.78976 32.2567 6.15464 32.1153 6.5611 31.8807C6.81975 31.7313 7.05531 31.5527 7.26777 31.3447C7.48948 31.1207 7.67885 30.8887 7.83589 30.6487C8.00216 30.3927 8.12687 30.1393 8.21001 29.8887C8.30238 29.622 8.34857 29.3713 8.34857 29.1367C8.34857 28.9553 8.3301 28.8007 8.29315 28.6727C8.26543 28.5393 8.20539 28.4407 8.11301 28.3767C8.02988 28.2967 7.91441 28.2407 7.7666 28.2087C7.6188 28.166 7.42943 28.142 7.19849 28.1367C6.96755 28.1313 6.69042 28.142 6.36711 28.1687C5.76666 28.2487 5.29093 28.2353 4.9399 28.1287C4.59811 28.006 4.35331 27.8113 4.20551 27.5447C4.06694 27.2727 3.99766 26.95 3.99766 26.5767C3.99766 26.086 4.10389 25.598 4.31636 25.1127C4.52882 24.6167 4.82905 24.1553 5.21703 23.7287C5.61424 23.286 6.08536 22.9073 6.63038 22.5927C6.94446 22.4113 7.24468 22.2913 7.53105 22.2327C7.82665 22.158 8.09916 22.1393 8.34857 22.1767C8.60723 22.2087 8.83355 22.302 9.02754 22.4567L8.48714 23.6007L8.404 23.7767L8.32086 23.7607C8.31162 23.6807 8.29315 23.606 8.26543 23.5367C8.23772 23.4673 8.17306 23.398 8.07145 23.3287C7.84974 23.2113 7.61418 23.182 7.36477 23.2407C7.11535 23.2887 6.81975 23.4113 6.47796 23.6087C6.24702 23.742 6.03917 23.8993 5.85442 24.0807C5.67891 24.2567 5.52648 24.4513 5.39716 24.6647C5.26783 24.878 5.16622 25.0967 5.09232 25.3207C5.02765 25.5287 4.99532 25.7287 4.99532 25.9207C4.99532 26.102 5.0138 26.2567 5.05075 26.3847C5.0877 26.5127 5.15236 26.6193 5.24474 26.7047C5.33711 26.79 5.46182 26.8567 5.61886 26.9047C5.78514 26.9473 5.98837 26.9687 6.22854 26.9687C6.47796 26.9633 6.77818 26.9393 7.12921 26.8967C7.55414 26.854 7.90517 26.854 8.1823 26.8967C8.46866 26.9233 8.69036 27.0033 8.8474 27.1367C9.01368 27.254 9.12915 27.422 9.19381 27.6407C9.26771 27.854 9.30467 28.1153 9.30467 28.4247C9.30467 28.8833 9.20305 29.3953 8.99982 29.9607C8.80583 30.51 8.49637 31.0513 8.07145 31.5847C7.64652 32.118 7.09688 32.5793 6.42253 32.9687ZM13.7941 28.6647C13.3877 28.8993 13.0551 29.0113 12.7965 29.0007C12.5378 28.99 12.3392 28.8593 12.2007 28.6087C12.0621 28.3473 11.9697 27.974 11.9235 27.4887C11.8866 26.998 11.8773 26.3953 11.8958 25.6807L12.0621 20.3687L13.1013 19.6247L13.2399 19.5287L13.2537 19.6327C13.2076 19.734 13.166 19.8327 13.129 19.9287C13.1013 20.0193 13.0782 20.1607 13.0598 20.3527L12.935 22.2327L12.9766 22.4967L12.8796 25.1927C12.8519 26.0193 12.8704 26.638 12.935 27.0487C12.9997 27.4487 13.1152 27.686 13.2815 27.7607C13.4477 27.8247 13.6694 27.7767 13.9466 27.6167C14.2514 27.4407 14.5193 27.2167 14.7502 26.9447C14.9904 26.6673 15.2398 26.3473 15.4985 25.9847L15.8033 26.7207C15.4892 27.1687 15.1659 27.5527 14.8334 27.8727C14.5008 28.1927 14.1544 28.4567 13.7941 28.6647ZM10.621 23.0727L15.1798 20.4407V21.3847L10.621 24.0167V23.0727ZM19.2259 25.5927C18.5053 26.0087 17.9511 26.142 17.5631 25.9927C17.1751 25.8327 16.9811 25.4593 16.9811 24.8727C16.9811 24.478 17.0643 24.078 17.2305 23.6727C17.3968 23.2567 17.6231 22.8593 17.9095 22.4807C18.2051 22.086 18.5469 21.718 18.9349 21.3767C19.3228 21.0353 19.7339 20.7393 20.1681 20.4887C20.3251 20.398 20.4822 20.3127 20.6392 20.2327C20.8055 20.1367 20.9764 20.0487 21.1519 19.9687C21.3366 19.8727 21.526 19.7847 21.72 19.7047L21.7477 20.5687C21.5814 20.6327 21.4105 20.71 21.235 20.8007C21.0688 20.8753 20.9025 20.9553 20.7362 21.0407C20.5699 21.126 20.4083 21.214 20.2512 21.3047C19.9187 21.4967 19.6138 21.7047 19.3367 21.9287C19.0596 22.1527 18.8194 22.3873 18.6162 22.6327C18.4129 22.878 18.2559 23.134 18.1451 23.4007C18.0342 23.6673 17.9788 23.9447 17.9788 24.2327C17.9788 24.4567 18.0111 24.63 18.0758 24.7527C18.1497 24.8593 18.2467 24.926 18.3668 24.9527C18.4868 24.9687 18.6254 24.9527 18.7824 24.9047C18.9487 24.8513 19.1289 24.7687 19.3228 24.6567C19.6831 24.4487 20.0018 24.2007 20.2789 23.9127C20.5653 23.6087 20.8055 23.2727 20.9995 22.9047C21.2027 22.5313 21.3551 22.1287 21.4567 21.6967C21.5583 21.2647 21.6092 20.8087 21.6092 20.3287C21.6092 19.6033 21.5353 19.0807 21.3875 18.7607C21.2396 18.4407 21.0179 18.2807 20.7223 18.2807C20.436 18.2753 20.0665 18.4033 19.6138 18.6647C19.309 18.8407 19.0088 19.0833 18.7132 19.3927C18.4176 19.6913 18.1497 20.0487 17.9095 20.4647L17.4245 20.0087C17.7201 19.4967 18.0619 19.0433 18.4499 18.6487C18.8379 18.254 19.2489 17.9313 19.6831 17.6807C20.0988 17.4407 20.4775 17.2807 20.8193 17.2007C21.1611 17.1207 21.4521 17.15 21.6923 17.2887C21.9417 17.4113 22.1311 17.6647 22.2604 18.0487C22.399 18.4273 22.4683 18.9633 22.4683 19.6567V23.5447L21.3875 24.1687V23.0487C21.2674 23.3847 21.1196 23.6887 20.944 23.9607C20.7778 24.2273 20.5976 24.4647 20.4036 24.6727C20.2097 24.87 20.011 25.0433 19.8078 25.1927C19.6046 25.3527 19.4106 25.486 19.2259 25.5927ZM26.3758 24.0407C25.9324 24.2967 25.5305 24.486 25.1703 24.6087C24.8192 24.7367 24.5144 24.7953 24.2557 24.7847C24.0063 24.7793 23.8123 24.6993 23.6738 24.5447C23.5444 24.3847 23.4798 24.1447 23.4798 23.8247C23.4798 23.526 23.5352 23.2273 23.646 22.9287C23.7569 22.63 23.9001 22.3553 24.0756 22.1047C24.2603 21.838 24.459 21.606 24.6714 21.4087L25.0871 21.4567C24.9208 21.67 24.7869 21.8647 24.6853 22.0407C24.5837 22.2167 24.5098 22.3927 24.4636 22.5687C24.4174 22.7553 24.3943 22.9553 24.3943 23.1687C24.3943 23.35 24.4405 23.4833 24.5329 23.5687C24.6252 23.6647 24.7546 23.7127 24.9208 23.7127C25.0964 23.7073 25.3042 23.662 25.5444 23.5767C25.7938 23.486 26.0755 23.35 26.3896 23.1687C26.8145 22.9233 27.1563 22.6727 27.415 22.4167C27.6829 22.166 27.8815 21.9127 28.0108 21.6567C28.1401 21.4113 28.2048 21.1767 28.2048 20.9527C28.2048 20.718 28.1679 20.5473 28.094 20.4407C28.0201 20.334 27.8676 20.31 27.6367 20.3687C27.4058 20.4273 27.0547 20.5927 26.5836 20.8647C26.2603 21.0513 25.9647 21.206 25.6968 21.3287C25.4289 21.4513 25.1887 21.5367 24.9763 21.5847C24.7638 21.6327 24.5837 21.646 24.4359 21.6247C24.2973 21.5873 24.1911 21.51 24.1172 21.3927C24.0433 21.2753 24.0063 21.11 24.0063 20.8967C24.0063 20.6193 24.071 20.3153 24.2003 19.9847C24.3389 19.6487 24.5236 19.2967 24.7546 18.9287L25.2257 19.0887C25.1333 19.2593 25.0594 19.4087 25.004 19.5367C24.9485 19.654 24.907 19.7633 24.8793 19.8647C24.8608 19.95 24.8516 20.0407 24.8516 20.1367C24.8516 20.3073 24.907 20.414 25.0178 20.4567C25.1379 20.494 25.3411 20.4567 25.6275 20.3447C25.9139 20.222 26.3019 20.0193 26.7915 19.7367C27.281 19.454 27.6783 19.2727 27.9831 19.1927C28.2879 19.102 28.5189 19.0967 28.6759 19.1767C28.8422 19.2513 28.9577 19.382 29.0223 19.5687C29.087 19.7553 29.1193 19.982 29.1193 20.2487C29.1193 20.5367 29.0685 20.838 28.9669 21.1527C28.8745 21.4727 28.7221 21.7953 28.5096 22.1207C28.2972 22.4567 28.0154 22.7847 27.6644 23.1047C27.3134 23.4353 26.8838 23.7473 26.3758 24.0407ZM26.0848 18.9767C25.6321 19.238 25.2395 19.3527 24.907 19.3207C24.5744 19.278 24.3158 19.118 24.131 18.8407C23.9555 18.5473 23.8677 18.166 23.8677 17.6967C23.8677 17.2273 23.9555 16.75 24.131 16.2647C24.3158 15.774 24.5744 15.3207 24.907 14.9047C25.2395 14.478 25.6321 14.134 26.0848 13.8727C26.5467 13.606 26.9393 13.4967 27.2626 13.5447C27.5951 13.5767 27.8492 13.734 28.0247 14.0167C28.2094 14.294 28.3018 14.6673 28.3018 15.1367C28.3018 15.606 28.2094 16.0913 28.0247 16.5927C27.8492 17.078 27.5951 17.534 27.2626 17.9607C26.9393 18.3713 26.5467 18.71 26.0848 18.9767ZM26.0848 18.0167C26.3527 17.862 26.5882 17.6567 26.7915 17.4007C27.0039 17.1287 27.1702 16.8353 27.2903 16.5207C27.4104 16.206 27.4704 15.9047 27.4704 15.6167C27.4704 15.318 27.4104 15.086 27.2903 14.9207C27.1702 14.7447 27.0039 14.6487 26.7915 14.6327C26.5882 14.6007 26.3527 14.662 26.0848 14.8167C25.8169 14.9713 25.5767 15.1847 25.3642 15.4567C25.161 15.7127 24.9994 15.998 24.8793 16.3127C24.7592 16.6167 24.6991 16.918 24.6991 17.2167C24.6991 17.5047 24.7592 17.7367 24.8793 17.9127C24.9994 18.0887 25.161 18.1927 25.3642 18.2247C25.5767 18.2407 25.8169 18.1713 26.0848 18.0167ZM27.9277 14.2647L27.5397 13.9607C27.8076 13.4967 28.0847 13.1127 28.3711 12.8087C28.6667 12.4887 29.0131 12.23 29.4103 12.0327L29.535 12.9047C29.2302 13.0487 28.9438 13.2247 28.6759 13.4327C28.408 13.6407 28.1586 13.918 27.9277 14.2647ZM33.3732 17.4087C32.9114 17.6753 32.4911 17.838 32.1123 17.8967C31.7336 17.9447 31.4056 17.8887 31.1285 17.7287C30.8606 17.5633 30.6528 17.2887 30.505 16.9047C30.3572 16.51 30.2833 16.0087 30.2833 15.4007C30.2833 14.782 30.3572 14.19 30.505 13.6247C30.662 13.054 30.8699 12.534 31.1285 12.0647C31.3964 11.5793 31.7059 11.15 32.0569 10.7767C32.4171 10.398 32.7959 10.094 33.1931 9.86467C33.5534 9.65667 33.8905 9.53133 34.2046 9.48867C34.5187 9.446 34.7912 9.502 35.0222 9.65667C35.2531 9.80067 35.4332 10.054 35.5626 10.4167C35.7011 10.774 35.7704 11.2513 35.7704 11.8487C35.7704 11.934 35.7658 12.0273 35.7565 12.1287C35.7565 12.214 35.7519 12.302 35.7427 12.3927L31.2394 14.9927C31.2578 15.4513 31.3271 15.822 31.4472 16.1047C31.5673 16.3767 31.7243 16.5687 31.9183 16.6807C32.1123 16.782 32.334 16.814 32.5834 16.7767C32.8421 16.734 33.1146 16.63 33.401 16.4647C33.6227 16.3367 33.8305 16.19 34.0245 16.0247C34.2185 15.8487 34.3986 15.654 34.5649 15.4407C34.7404 15.2113 34.8974 14.966 35.036 14.7047L35.5903 15.0087C35.4148 15.3553 35.2115 15.6807 34.9806 15.9847C34.7589 16.2833 34.5141 16.5473 34.2462 16.7767C33.9783 17.0167 33.6873 17.2273 33.3732 17.4087ZM31.2809 14.0727L34.7589 12.0647C34.7589 11.7233 34.7173 11.4433 34.6342 11.2247C34.5603 10.99 34.4494 10.8193 34.3016 10.7127C34.1631 10.59 33.9922 10.5393 33.7889 10.5607C33.5949 10.566 33.3732 10.6407 33.1238 10.7847C32.9021 10.9127 32.6897 11.078 32.4864 11.2807C32.2924 11.478 32.1123 11.7207 31.946 12.0087C31.7798 12.286 31.6366 12.598 31.5165 12.9447C31.4056 13.286 31.3271 13.662 31.2809 14.0727Z" fill="black"/>
<path d="M156.748 52.3272V42.3432L158.757 41.1832C159.256 40.8952 159.677 40.7058 160.018 40.6152C160.36 40.5245 160.651 40.5112 160.891 40.5752C161.131 40.6285 161.344 40.7512 161.529 40.9432C161.723 41.1298 161.88 41.3752 162 41.6792C162.129 41.9778 162.222 42.3352 162.277 42.7512C162.342 43.1512 162.374 43.6125 162.374 44.1352C162.346 44.9192 162.258 45.6578 162.111 46.3512C161.963 47.0445 161.741 47.6898 161.446 48.2872C161.15 48.8845 160.767 49.4365 160.295 49.9432C159.834 50.4338 159.265 50.8738 158.591 51.2632L156.748 52.3272ZM157.663 50.9192L158.55 50.4072C159.215 50.0232 159.755 49.5565 160.171 49.0072C160.596 48.4525 160.91 47.8178 161.113 47.1032C161.316 46.3885 161.413 45.6072 161.404 44.7592C161.404 43.8845 161.312 43.1912 161.127 42.6792C160.942 42.1672 160.651 41.8605 160.254 41.7592C159.866 41.6525 159.349 41.7858 158.702 42.1592L157.663 42.7592V50.9192ZM166.42 46.8872C165.958 47.1538 165.538 47.3165 165.159 47.3752C164.78 47.4232 164.452 47.3672 164.175 47.2072C163.907 47.0418 163.7 46.7672 163.552 46.3832C163.404 45.9885 163.33 45.4872 163.33 44.8792C163.33 44.2605 163.404 43.6685 163.552 43.1032C163.709 42.5325 163.917 42.0125 164.175 41.5432C164.443 41.0578 164.753 40.6285 165.104 40.2552C165.464 39.8765 165.843 39.5725 166.24 39.3432C166.6 39.1352 166.937 39.0098 167.251 38.9672C167.565 38.9245 167.838 38.9805 168.069 39.1352C168.3 39.2792 168.48 39.5325 168.609 39.8952C168.748 40.2525 168.817 40.7298 168.817 41.3272C168.817 41.4125 168.813 41.5058 168.803 41.6072C168.803 41.6925 168.799 41.7805 168.789 41.8712L164.286 44.4712C164.305 44.9298 164.374 45.3005 164.494 45.5832C164.614 45.8552 164.771 46.0472 164.965 46.1592C165.159 46.2605 165.381 46.2925 165.63 46.2552C165.889 46.2125 166.161 46.1085 166.448 45.9432C166.669 45.8152 166.877 45.6685 167.071 45.5032C167.265 45.3272 167.445 45.1325 167.612 44.9192C167.787 44.6898 167.944 44.4445 168.083 44.1832L168.637 44.4872C168.462 44.8338 168.258 45.1592 168.027 45.4632C167.806 45.7618 167.561 46.0258 167.293 46.2552C167.025 46.4952 166.734 46.7058 166.42 46.8872ZM164.328 43.5512L167.806 41.5432C167.806 41.2018 167.764 40.9218 167.681 40.7032C167.607 40.4685 167.496 40.2978 167.348 40.1912C167.21 40.0685 167.039 40.0178 166.836 40.0392C166.642 40.0445 166.42 40.1192 166.171 40.2632C165.949 40.3912 165.736 40.5565 165.533 40.7592C165.339 40.9565 165.159 41.1992 164.993 41.4872C164.827 41.7645 164.683 42.0765 164.563 42.4232C164.452 42.7645 164.374 43.1405 164.328 43.5512ZM172.364 43.2952L169.856 37.4312L170.854 36.8552L172.905 41.6712L172.711 41.7832L173.833 38.1592C174.055 37.4445 174.23 36.7992 174.36 36.2232C174.498 35.6418 174.6 35.1192 174.665 34.6552L175.607 34.1112C175.533 34.6018 175.417 35.1592 175.26 35.7832C175.103 36.4072 174.909 37.0952 174.678 37.8472L173.14 42.8472L172.364 43.2952Z" fill="black"/>
<g filter="url(#filter0_d_3086_1848)">
<line y1="-0.5" x2="60" y2="-0.5" transform="matrix(0.866025 -0.5 0 1 58 119)" stroke="black" strokeDasharray="3 3"/>
</g>
<g filter="url(#filter1_d_3086_1848)">
<line y1="-0.5" x2="82" y2="-0.5" transform="matrix(0.866025 0.5 0 1 110 89)" stroke="black" strokeDasharray="3 3"/>
</g>
<g filter="url(#filter2_d_3086_1848)">
<circle cx="16.748" cy="16.748" r="16.748" transform="matrix(0.866025 0.5 -0.866025 0.5 122.008 75)" fill="white" stroke="black" strokeLinejoin="bevel"/>
<path d="M101.496 91.748C101.496 95.0183 103.792 97.979 107.504 100.122V105.705C103.792 103.562 101.496 100.601 101.496 97.3307V91.748Z" fill="#E7E7E7" stroke="black" strokeLinejoin="bevel"/>
<path d="M107.502 100.122C115.512 104.747 128.5 104.747 136.51 100.122V105.705C128.5 110.33 115.512 110.33 107.502 105.705V100.122Z" fill="#B7B7B7" stroke="black" strokeLinejoin="bevel"/>
<path d="M142.52 91.748C142.52 95.0183 140.224 97.979 136.512 100.122V105.705C140.224 103.562 142.52 100.601 142.52 97.3307V91.748Z" fill="#B7B7B7" stroke="black" strokeLinejoin="bevel"/>
<path d="M129.815 87.3345C130.427 86.9811 130.733 86.8045 130.877 86.6076C131.077 86.3323 131.074 86.0206 130.868 85.744C130.721 85.5462 130.412 85.3676 129.793 85.0104L129.793 85.0103L125.812 82.7118C124.53 81.9716 123.889 81.6016 123.097 81.5991C122.305 81.5966 121.671 81.9626 120.403 82.6946L117.965 84.1019C116.011 85.2302 115.034 85.7943 115.286 86.3948C115.538 86.9952 116.859 87.2516 119.502 87.7644L124.551 88.744C125.432 88.915 125.702 89.5597 125.051 89.9358C124.72 90.1269 124.229 90.1926 123.781 90.1058L113.888 88.1863L113.888 88.1862C112.797 87.9744 112.251 87.8685 111.724 87.9391C111.197 88.0097 110.793 88.2427 109.986 88.7087L109.181 89.1733C107.914 89.9054 107.28 90.2714 107.284 90.7287C107.288 91.1861 107.929 91.5561 109.211 92.2963L113.063 94.5201C113.682 94.8774 113.991 95.056 114.138 95.2538C114.344 95.5304 114.347 95.8421 114.146 96.1174C114.003 96.3142 113.697 96.4909 113.085 96.8443C112.473 97.1976 112.167 97.3743 112.024 97.5712C111.823 97.8465 111.826 98.1582 112.032 98.4347C112.179 98.6325 112.488 98.8112 113.107 99.1684L117.088 101.467C118.37 102.207 119.011 102.577 119.803 102.58C120.596 102.582 121.23 102.216 122.498 101.484L122.498 101.484L124.935 100.077C126.889 98.9486 127.866 98.3844 127.614 97.784C127.362 97.1835 126.041 96.9271 123.398 96.4143L118.35 95.4347C117.469 95.2638 117.198 94.619 117.85 94.2429C118.18 94.0519 118.672 93.9861 119.119 94.0729L129.012 95.9925C130.104 96.2043 130.649 96.3102 131.176 96.2397C131.703 96.1691 132.107 95.9361 132.914 95.4701L132.914 95.4701L133.719 95.0054C134.987 94.2734 135.621 93.9074 135.616 93.45C135.612 92.9927 134.971 92.6226 133.689 91.8825L129.837 89.6586C129.219 89.3014 128.909 89.1228 128.762 88.925C128.556 88.6484 128.553 88.3367 128.754 88.0614C128.897 87.8645 129.203 87.6878 129.815 87.3345Z" fill="#272F30"/>
<path d="M129.815 87.3345C130.427 86.9811 130.733 86.8045 130.877 86.6076C131.077 86.3323 131.074 86.0206 130.868 85.744C130.721 85.5462 130.412 85.3676 129.793 85.0104L129.793 85.0103L125.812 82.7118C124.53 81.9716 123.889 81.6016 123.097 81.5991C122.305 81.5966 121.671 81.9626 120.403 82.6946L117.965 84.1019C116.011 85.2302 115.034 85.7943 115.286 86.3948C115.538 86.9952 116.859 87.2516 119.502 87.7644L124.551 88.744C125.432 88.915 125.702 89.5597 125.051 89.9358C124.72 90.1269 124.229 90.1926 123.781 90.1058L113.888 88.1863L113.888 88.1862C112.797 87.9744 112.251 87.8685 111.724 87.9391C111.197 88.0097 110.793 88.2427 109.986 88.7087L109.181 89.1733C107.914 89.9054 107.28 90.2714 107.284 90.7287C107.288 91.1861 107.929 91.5561 109.211 92.2963L113.063 94.5201C113.682 94.8774 113.991 95.056 114.138 95.2538C114.344 95.5304 114.347 95.8421 114.146 96.1174C114.003 96.3142 113.697 96.4909 113.085 96.8443C112.473 97.1976 112.167 97.3743 112.024 97.5712C111.823 97.8465 111.826 98.1582 112.032 98.4347C112.179 98.6325 112.488 98.8112 113.107 99.1684L117.088 101.467C118.37 102.207 119.011 102.577 119.803 102.58C120.596 102.582 121.23 102.216 122.498 101.484L122.498 101.484L124.935 100.077C126.889 98.9486 127.866 98.3844 127.614 97.784C127.362 97.1835 126.041 96.9271 123.398 96.4143L118.35 95.4347C117.469 95.2638 117.198 94.619 117.85 94.2429C118.18 94.0519 118.672 93.9861 119.119 94.0729L129.012 95.9925C130.104 96.2043 130.649 96.3102 131.176 96.2397C131.703 96.1691 132.107 95.9361 132.914 95.4701L132.914 95.4701L133.719 95.0054C134.987 94.2734 135.621 93.9074 135.616 93.45C135.612 92.9927 134.971 92.6226 133.689 91.8825L129.837 89.6586C129.219 89.3014 128.909 89.1228 128.762 88.925C128.556 88.6484 128.553 88.3367 128.754 88.0614C128.897 87.8645 129.203 87.6878 129.815 87.3345Z" stroke="white"/>
</g>
<g filter="url(#filter3_d_3086_1848)">
<path d="M74.2761 117.767C88.0077 109.612 85.237 108.253 85.8611 106.554C84.9249 125.582 88.0077 122.863 81.454 127.62L58.6721 141.891C48.6855 147.871 39.115 144.722 35.5781 142.23V127.96C45.5647 133.668 55.1352 129.659 58.6721 127.28L74.2761 117.767Z" fill="#F16855"/>
<path d="M74.2761 117.767C88.0077 109.612 85.237 108.253 85.8611 106.554C84.9249 125.582 88.0077 122.863 81.454 127.62L58.6721 141.891C48.6855 147.871 39.115 144.722 35.5781 142.23V127.96C45.5647 133.668 55.1352 129.659 58.6721 127.28L74.2761 117.767Z" stroke="black"/>
</g>
<g filter="url(#filter4_d_3086_1848)">
<rect width="54.9235" height="54.9235" rx="14" transform="matrix(0.846632 0.532179 -0.846632 0.532179 46.5 76.6538)" fill="#E7E7E7"/>
<rect width="54.9235" height="54.9235" rx="14" transform="matrix(0.846632 0.532179 -0.846632 0.532179 46.5 76.6538)" stroke="black" strokeLinejoin="bevel"/>
</g>
<path d="M64.5265 130.944C64.5265 132.011 63.8445 133.251 63.0579 133.745C62.2713 134.24 61.5893 133.857 61.5893 132.79C61.5893 131.723 62.2713 130.483 63.0579 129.989C63.8445 129.494 64.5265 129.877 64.5265 130.944Z" fill="#2246C8" stroke="black"/>
<path d="M58.2862 134.682C58.2862 135.749 57.6043 136.989 56.8177 137.483C56.0311 137.978 55.3491 137.595 55.3491 136.528C55.3491 135.461 56.0311 134.221 56.8177 133.726C57.6043 133.232 58.2862 133.614 58.2862 134.682Z" fill="#2246C8" stroke="black"/>
<rect x="0.423316" y="0.233911" width="15.9563" height="3.75684" rx="1.87842" transform="matrix(0.846632 -0.532179 0 1 66.8501 127.356)" fill="#B3F6CA" stroke="black"/>
<g filter="url(#filter5_d_3086_1848)">
<path d="M10.8979 112.33L35.5774 128.3L35.5536 142.23L12.1476 127.96C8.15301 125.513 7.15432 121.957 7.15431 120.485L7.15428 105.776C7.44357 110.193 9.33677 111.311 10.8979 112.33Z" fill="#B7B7B7"/>
<path d="M10.8979 112.33L35.5774 128.3L35.5536 142.23L12.1476 127.96C8.15301 125.513 7.15432 121.957 7.15431 120.485L7.15428 105.776C7.44357 110.193 9.33677 111.311 10.8979 112.33Z" stroke="black"/>
</g>
<path d="M74.2761 85.8268C88.0077 77.6722 85.237 76.3131 85.8611 74.6143C84.9249 93.6416 88.0077 90.9234 81.454 95.6802L58.6721 109.951C48.6855 115.931 39.115 112.782 35.5781 110.291V96.02C45.5647 101.728 55.1352 97.7189 58.6721 95.3405L74.2761 85.8268Z" fill="#F16855" stroke="black"/>
<rect width="54.9235" height="54.9235" rx="14" transform="matrix(0.846632 0.532179 -0.846632 0.532179 46.5 44.7148)" fill="#E7E7E7" stroke="black" strokeLinejoin="bevel"/>
<path d="M64.5265 99.0044C64.5265 100.072 63.8445 101.311 63.0579 101.806C62.2713 102.3 61.5893 101.918 61.5893 100.851C61.5893 99.7834 62.2713 98.5435 63.0579 98.0491C63.8445 97.5546 64.5265 97.9371 64.5265 99.0044Z" fill="#2246C8" stroke="black"/>
<path d="M58.2862 102.743C58.2862 103.81 57.6043 105.05 56.8177 105.544C56.0311 106.039 55.3491 105.656 55.3491 104.589C55.3491 103.522 56.0311 102.282 56.8177 101.787C57.6043 101.293 58.2862 101.675 58.2862 102.743Z" fill="#2246C8" stroke="black"/>
<rect x="0.423316" y="0.233911" width="15.9563" height="3.75684" rx="1.87842" transform="matrix(0.846632 -0.532179 0 1 66.8501 95.4157)" fill="#B3F6CA" stroke="black"/>
<path d="M10.8979 80.3908L35.5774 96.3601L35.5536 110.291L12.1476 96.0204C8.15299 93.574 7.15431 90.0177 7.1543 88.5453L7.15466 73.9351C7.44394 78.3521 9.33676 79.3714 10.8979 80.3908Z" fill="#B7B7B7" stroke="black"/>
<path d="M74.2761 53.8889C88.0077 45.7343 85.237 43.7663 85.8611 42.0674C84.9249 61.0947 88.0077 58.9855 81.454 63.7423L58.6721 78.0128C48.6855 83.9928 39.115 80.8443 35.5781 78.3526V64.0821C45.5647 69.7903 55.1352 65.7809 58.6721 63.4025L74.2761 53.8889Z" fill="#F16855" stroke="black"/>
<rect width="54.9235" height="54.9235" rx="14" transform="matrix(0.846632 0.532179 -0.846632 0.532179 46.5 12.7764)" fill="#E7E7E7" stroke="black" strokeLinejoin="bevel"/>
<path d="M64.5265 67.0664C64.5265 68.1336 63.8445 69.3735 63.0579 69.8679C62.2713 70.3624 61.5893 69.9799 61.5893 68.9126C61.5893 67.8454 62.2713 66.6055 63.0579 66.1111C63.8445 65.6166 64.5265 65.9991 64.5265 67.0664Z" fill="#2246C8" stroke="black"/>
<path d="M58.2862 70.8042C58.2862 71.8714 57.6043 73.1113 56.8177 73.6057C56.0311 74.1001 55.3491 73.7177 55.3491 72.6504C55.3491 71.5832 56.0311 70.3433 56.8177 69.8489C57.6043 69.3544 58.2862 69.7369 58.2862 70.8042Z" fill="#2246C8" stroke="black"/>
<rect x="0.423316" y="0.233911" width="15.9563" height="3.75684" rx="1.87842" transform="matrix(0.846632 -0.532179 0 1 66.8501 63.4777)" fill="#B3F6CA" stroke="black"/>
<path d="M10.8979 48.4523L35.5774 64.4217L35.5536 78.3524L12.1476 64.0819C8.15299 61.6355 7.15431 58.0792 7.1543 56.6069L7.15466 41.9966C7.44394 46.4136 9.33676 47.433 10.8979 48.4523Z" fill="#B7B7B7" stroke="black"/>
<g filter="url(#filter6_d_3086_1848)">
<path d="M222.276 140.99C236.008 132.836 233.237 131.477 233.861 129.778C232.925 148.805 236.008 146.087 229.454 150.844L206.672 165.114C196.686 171.094 187.115 167.946 183.578 165.454V151.184C193.565 156.892 203.135 152.882 206.672 150.504L222.276 140.99Z" fill="#B7D0F6"/>
<path d="M222.276 140.99C236.008 132.836 233.237 131.477 233.861 129.778C232.925 148.805 236.008 146.087 229.454 150.844L206.672 165.114C196.686 171.094 187.115 167.946 183.578 165.454V151.184C193.565 156.892 203.135 152.882 206.672 150.504L222.276 140.99Z" stroke="black"/>
</g>
<g filter="url(#filter7_d_3086_1848)">
<rect width="54.9235" height="54.9235" rx="14" transform="matrix(0.846632 0.532179 -0.846632 0.532179 194.5 99.8774)" fill="#E7E7E7"/>
<rect width="54.9235" height="54.9235" rx="14" transform="matrix(0.846632 0.532179 -0.846632 0.532179 194.5 99.8774)" stroke="black" strokeLinejoin="bevel"/>
</g>
<path d="M212.526 154.167C212.526 155.235 211.844 156.475 211.058 156.969C210.271 157.463 209.589 157.081 209.589 156.014C209.589 154.946 210.271 153.707 211.058 153.212C211.844 152.718 212.526 153.1 212.526 154.167Z" fill="#2246C8" stroke="black"/>
<path d="M206.286 157.905C206.286 158.973 205.604 160.212 204.818 160.707C204.031 161.201 203.349 160.819 203.349 159.751C203.349 158.684 204.031 157.444 204.818 156.95C205.604 156.456 206.286 156.838 206.286 157.905Z" fill="#2246C8" stroke="black"/>
<rect x="0.423316" y="0.233911" width="15.9563" height="3.75684" rx="1.87842" transform="matrix(0.846632 -0.532179 0 1 214.85 150.579)" fill="#B3F6CA" stroke="black"/>
<g filter="url(#filter8_d_3086_1848)">
<path d="M158.898 135.554L183.577 151.523L183.554 165.454L160.148 151.183C156.153 148.737 155.154 145.181 155.154 143.708L155.154 129C155.444 133.417 157.337 134.534 158.898 135.554Z" fill="#B7B7B7"/>
<path d="M158.898 135.554L183.577 151.523L183.554 165.454L160.148 151.183C156.153 148.737 155.154 145.181 155.154 143.708L155.154 129C155.444 133.417 157.337 134.534 158.898 135.554Z" stroke="black"/>
</g>
<path d="M222.276 109.05C236.008 100.896 233.237 99.5368 233.861 97.8379C232.925 116.865 236.008 114.147 229.454 118.904L206.672 133.174C196.686 139.154 187.115 136.006 183.578 133.514V119.244C193.565 124.952 203.135 120.943 206.672 118.564L222.276 109.05Z" fill="#B7D0F6" stroke="black"/>
<rect width="54.9235" height="54.9235" rx="14" transform="matrix(0.846632 0.532179 -0.846632 0.532179 194.5 67.9385)" fill="#E7E7E7" stroke="black" strokeLinejoin="bevel"/>
<path d="M212.526 122.228C212.526 123.295 211.844 124.535 211.058 125.03C210.271 125.524 209.589 125.142 209.589 124.074C209.589 123.007 210.271 121.767 211.058 121.273C211.844 120.778 212.526 121.161 212.526 122.228Z" fill="#2246C8" stroke="black"/>
<path d="M206.286 125.966C206.286 127.034 205.604 128.273 204.818 128.768C204.031 129.262 203.349 128.88 203.349 127.813C203.349 126.745 204.031 125.505 204.818 125.011C205.604 124.517 206.286 124.899 206.286 125.966Z" fill="#2246C8" stroke="black"/>
<rect x="0.423316" y="0.233911" width="15.9563" height="3.75684" rx="1.87842" transform="matrix(0.846632 -0.532179 0 1 214.85 118.639)" fill="#B3F6CA" stroke="black"/>
<path d="M158.898 103.614L183.577 119.584L183.554 133.515L160.148 119.244C156.153 116.798 155.154 113.241 155.154 111.769L155.155 97.1587C155.444 101.576 157.337 102.595 158.898 103.614Z" fill="#B7B7B7" stroke="black"/>
<path d="M222.276 77.1125C236.008 68.9579 233.237 66.9899 233.861 65.291C232.925 84.3184 236.008 82.2091 229.454 86.9659L206.672 101.236C196.686 107.216 187.115 104.068 183.578 101.576V87.3057C193.565 93.0139 203.135 89.0046 206.672 86.6262L222.276 77.1125Z" fill="#B7D0F6" stroke="black"/>
<rect width="54.9235" height="54.9235" rx="14" transform="matrix(0.846632 0.532179 -0.846632 0.532179 194.5 36)" fill="#E7E7E7" stroke="black" strokeLinejoin="bevel"/>
<path d="M212.526 90.29C212.526 91.3573 211.844 92.5971 211.058 93.0916C210.271 93.586 209.589 93.2035 209.589 92.1363C209.589 91.069 210.271 89.8292 211.058 89.3347C211.844 88.8403 212.526 89.2228 212.526 90.29Z" fill="#2246C8" stroke="black"/>
<path d="M206.286 94.0278C206.286 95.0951 205.604 96.3349 204.818 96.8293C204.031 97.3238 203.349 96.9413 203.349 95.874C203.349 94.8068 204.031 93.5669 204.818 93.0725C205.604 92.5781 206.286 92.9606 206.286 94.0278Z" fill="#2246C8" stroke="black"/>
<rect x="0.423316" y="0.233911" width="15.9563" height="3.75684" rx="1.87842" transform="matrix(0.846632 -0.532179 0 1 214.85 86.7014)" fill="#B3F6CA" stroke="black"/>
<path d="M158.898 71.6759L183.577 87.6453L183.554 101.576L160.148 87.3055C156.153 84.8592 155.154 81.3029 155.154 79.8305L155.155 65.2202C155.444 69.6373 157.337 70.6566 158.898 71.6759Z" fill="#B7B7B7" stroke="black"/>
<defs>
<filter id="filter0_d_3086_1848" x="54" y="88" width="59.9609" height="39" filterUnits="userSpaceOnUse" colorInterpolationFilters="sRGB">
<feFlood flood-opacity="0" result="BackgroundImageFix"/>
<feColorMatrix in="SourceAlpha" type="matrix" values="0 0 0 0 0 0 0 0 0 0 0 0 0 0 0 0 0 0 127 0" result="hardAlpha"/>
<feOffset dy="4"/>
<feGaussianBlur stdDeviation="2"/>
<feComposite in2="hardAlpha" operator="out"/>
<feColorMatrix type="matrix" values="0 0 0 0 0 0 0 0 0 0 0 0 0 0 0 0 0 0 0.25 0"/>
<feBlend mode="normal" in2="BackgroundImageFix" result="effect1_dropShadow_3086_1848"/>
<feBlend mode="normal" in="SourceGraphic" in2="effect1_dropShadow_3086_1848" result="shape"/>
</filter>
<filter id="filter1_d_3086_1848" x="106" y="88" width="79.0137" height="50" filterUnits="userSpaceOnUse" colorInterpolationFilters="sRGB">
<feFlood flood-opacity="0" result="BackgroundImageFix"/>
<feColorMatrix in="SourceAlpha" type="matrix" values="0 0 0 0 0 0 0 0 0 0 0 0 0 0 0 0 0 0 127 0" result="hardAlpha"/>
<feOffset dy="4"/>
<feGaussianBlur stdDeviation="2"/>
<feComposite in2="hardAlpha" operator="out"/>
<feColorMatrix type="matrix" values="0 0 0 0 0 0 0 0 0 0 0 0 0 0 0 0 0 0 0.25 0"/>
<feBlend mode="normal" in2="BackgroundImageFix" result="effect1_dropShadow_3086_1848"/>
<feBlend mode="normal" in="SourceGraphic" in2="effect1_dropShadow_3086_1848" result="shape"/>
</filter>
<filter id="filter2_d_3086_1848" x="96.8828" y="79.5518" width="50.25" height="38.1216" filterUnits="userSpaceOnUse" colorInterpolationFilters="sRGB">
<feFlood flood-opacity="0" result="BackgroundImageFix"/>
<feColorMatrix in="SourceAlpha" type="matrix" values="0 0 0 0 0 0 0 0 0 0 0 0 0 0 0 0 0 0 127 0" result="hardAlpha"/>
<feOffset dy="4"/>
<feGaussianBlur stdDeviation="2"/>
<feComposite in2="hardAlpha" operator="out"/>
<feColorMatrix type="matrix" values="0 0 0 0 0 0 0 0 0 0 0 0 0 0 0 0 0 0 0.25 0"/>
<feBlend mode="normal" in2="BackgroundImageFix" result="effect1_dropShadow_3086_1848"/>
<feBlend mode="normal" in="SourceGraphic" in2="effect1_dropShadow_3086_1848" result="shape"/>
</filter>
<filter id="filter3_d_3086_1848" x="31.0781" y="106.382" width="59.2832" height="47.4385" filterUnits="userSpaceOnUse" colorInterpolationFilters="sRGB">
<feFlood flood-opacity="0" result="BackgroundImageFix"/>
<feColorMatrix in="SourceAlpha" type="matrix" values="0 0 0 0 0 0 0 0 0 0 0 0 0 0 0 0 0 0 127 0" result="hardAlpha"/>
<feOffset dy="4"/>
<feGaussianBlur stdDeviation="2"/>
<feComposite in2="hardAlpha" operator="out"/>
<feColorMatrix type="matrix" values="0 0 0 0 0 0 0 0 0 0 0 0 0 0 0 0 0 0 0.25 0"/>
<feBlend mode="normal" in2="BackgroundImageFix" result="effect1_dropShadow_3086_1848"/>
<feBlend mode="normal" in="SourceGraphic" in2="effect1_dropShadow_3086_1848" result="shape"/>
</filter>
<filter id="filter4_d_3086_1848" x="2.34375" y="80.6421" width="88.3125" height="58.4819" filterUnits="userSpaceOnUse" colorInterpolationFilters="sRGB">
<feFlood flood-opacity="0" result="BackgroundImageFix"/>
<feColorMatrix in="SourceAlpha" type="matrix" values="0 0 0 0 0 0 0 0 0 0 0 0 0 0 0 0 0 0 127 0" result="hardAlpha"/>
<feOffset dy="4"/>
<feGaussianBlur stdDeviation="2"/>
<feComposite in2="hardAlpha" operator="out"/>
<feColorMatrix type="matrix" values="0 0 0 0 0 0 0 0 0 0 0 0 0 0 0 0 0 0 0.25 0"/>
<feBlend mode="normal" in2="BackgroundImageFix" result="effect1_dropShadow_3086_1848"/>
<feBlend mode="normal" in="SourceGraphic" in2="effect1_dropShadow_3086_1848" result="shape"/>
</filter>
<filter id="filter5_d_3086_1848" x="2.6543" y="105.744" width="37.4238" height="45.376" filterUnits="userSpaceOnUse" colorInterpolationFilters="sRGB">
<feFlood flood-opacity="0" result="BackgroundImageFix"/>
<feColorMatrix in="SourceAlpha" type="matrix" values="0 0 0 0 0 0 0 0 0 0 0 0 0 0 0 0 0 0 127 0" result="hardAlpha"/>
<feOffset dy="4"/>
<feGaussianBlur stdDeviation="2"/>
<feComposite in2="hardAlpha" operator="out"/>
<feColorMatrix type="matrix" values="0 0 0 0 0 0 0 0 0 0 0 0 0 0 0 0 0 0 0.25 0"/>
<feBlend mode="normal" in2="BackgroundImageFix" result="effect1_dropShadow_3086_1848"/>
<feBlend mode="normal" in="SourceGraphic" in2="effect1_dropShadow_3086_1848" result="shape"/>
</filter>
<filter id="filter6_d_3086_1848" x="179.078" y="129.605" width="59.2832" height="47.4385" filterUnits="userSpaceOnUse" colorInterpolationFilters="sRGB">
<feFlood flood-opacity="0" result="BackgroundImageFix"/>
<feColorMatrix in="SourceAlpha" type="matrix" values="0 0 0 0 0 0 0 0 0 0 0 0 0 0 0 0 0 0 127 0" result="hardAlpha"/>
<feOffset dy="4"/>
<feGaussianBlur stdDeviation="2"/>
<feComposite in2="hardAlpha" operator="out"/>
<feColorMatrix type="matrix" values="0 0 0 0 0 0 0 0 0 0 0 0 0 0 0 0 0 0 0.25 0"/>
<feBlend mode="normal" in2="BackgroundImageFix" result="effect1_dropShadow_3086_1848"/>
<feBlend mode="normal" in="SourceGraphic" in2="effect1_dropShadow_3086_1848" result="shape"/>
</filter>
<filter id="filter7_d_3086_1848" x="150.344" y="103.866" width="88.3125" height="58.4819" filterUnits="userSpaceOnUse" colorInterpolationFilters="sRGB">
<feFlood flood-opacity="0" result="BackgroundImageFix"/>
<feColorMatrix in="SourceAlpha" type="matrix" values="0 0 0 0 0 0 0 0 0 0 0 0 0 0 0 0 0 0 127 0" result="hardAlpha"/>
<feOffset dy="4"/>
<feGaussianBlur stdDeviation="2"/>
<feComposite in2="hardAlpha" operator="out"/>
<feColorMatrix type="matrix" values="0 0 0 0 0 0 0 0 0 0 0 0 0 0 0 0 0 0 0.25 0"/>
<feBlend mode="normal" in2="BackgroundImageFix" result="effect1_dropShadow_3086_1848"/>
<feBlend mode="normal" in="SourceGraphic" in2="effect1_dropShadow_3086_1848" result="shape"/>
</filter>
<filter id="filter8_d_3086_1848" x="150.654" y="128.967" width="37.4238" height="45.376" filterUnits="userSpaceOnUse" colorInterpolationFilters="sRGB">
<feFlood flood-opacity="0" result="BackgroundImageFix"/>
<feColorMatrix in="SourceAlpha" type="matrix" values="0 0 0 0 0 0 0 0 0 0 0 0 0 0 0 0 0 0 127 0" result="hardAlpha"/>
<feOffset dy="4"/>
<feGaussianBlur stdDeviation="2"/>
<feComposite in2="hardAlpha" operator="out"/>
<feColorMatrix type="matrix" values="0 0 0 0 0 0 0 0 0 0 0 0 0 0 0 0 0 0 0.25 0"/>
<feBlend mode="normal" in2="BackgroundImageFix" result="effect1_dropShadow_3086_1848"/>
<feBlend mode="normal" in="SourceGraphic" in2="effect1_dropShadow_3086_1848" result="shape"/>
</filter>
</defs>
</svg>
