<svg width="262" height="200" viewBox="0 0 262 190" fill="none" xmlns="http://www.w3.org/2000/svg">
<rect width="86.3356" height="86.3356" rx="8" transform="matrix(0.866025 -0.5 0 1 10.3457 46.1792)" fill="white" stroke="black" stroke-linejoin="bevel"/>
<rect width="10.7919" height="69.0685" transform="matrix(0.866025 0.5 0 1 1 49.417)" fill="#B7B7B7" stroke="black" stroke-linejoin="bevel"/>
<rect width="69.0685" height="10.7919" transform="matrix(0.866025 -0.5 0.866025 0.5 8.47461 36.4663)" fill="#E7E7E7" stroke="black" stroke-linejoin="bevel"/>
<path d="M10.3461 123.881C10.3461 126.091 11.0761 127.879 12.536 128.722L3.18993 123.326C1.72998 122.483 1 120.695 1 118.485L10.3461 123.881Z" fill="#B7B7B7" stroke="black" stroke-linejoin="bevel"/>
<path d="M10.3461 54.8126C10.3461 50.0444 13.6936 44.2464 17.823 41.8623L8.47688 36.4663C4.34751 38.8504 1 44.6485 1 49.4166L10.3461 54.8126Z" fill="#E7E7E7" stroke="black" stroke-linejoin="bevel"/>
<path d="M82.926 6.80507C81.4661 5.96216 79.5526 6.22402 77.6391 7.32878L68.293 1.9328C70.2065 0.828045 72.12 0.566188 73.5799 1.40909L82.926 6.80507Z" fill="#E7E7E7" stroke="black" stroke-linejoin="bevel"/>
<line y1="-0.5" x2="48.1906" y2="-0.5" transform="matrix(0.866025 0.5 0 1 54.9609 106.672)" stroke="black"/>
<line x1="135.255" y1="115.57" x2="184.364" y2="144.654" stroke="black"/>
<line x1="136.295" y1="115.404" x2="121.086" y2="126.501" stroke="black"/>
<circle cx="20.5073" cy="20.5073" r="20.5073" transform="matrix(0.866025 0.5 -0.866025 0.5 103.43 112.068)" fill="white" stroke="black" stroke-linejoin="bevel"/>
<path d="M78.3125 132.575C78.3125 136.579 81.1237 140.205 85.6689 142.829V149.665C81.1237 147.04 78.3125 143.415 78.3125 139.411V132.575Z" fill="#E7E7E7" stroke="black" stroke-linejoin="bevel"/>
<path d="M85.6699 142.83C95.4784 148.493 111.381 148.493 121.19 142.83V149.665C111.381 155.328 95.4784 155.328 85.6699 149.665V142.83Z" fill="#B7B7B7" stroke="black" stroke-linejoin="bevel"/>
<path d="M128.544 132.575C128.544 136.579 125.733 140.205 121.188 142.829V149.665C125.733 147.04 128.544 143.415 128.544 139.411V132.575Z" fill="#B7B7B7" stroke="black" stroke-linejoin="bevel"/>
<path d="M112.988 127.171C113.738 126.738 114.112 126.522 114.288 126.281C114.533 125.943 114.53 125.562 114.278 125.223C114.098 124.981 113.719 124.762 112.961 124.325L108.086 121.51C106.517 120.604 105.732 120.151 104.762 120.148C103.792 120.145 103.016 120.593 101.463 121.489L98.4784 123.212C96.0855 124.594 94.8891 125.285 95.1976 126.02C95.506 126.755 97.1241 127.069 100.36 127.697L106.542 128.897C107.621 129.106 107.952 129.895 107.154 130.356C106.749 130.59 106.147 130.67 105.6 130.564L93.4862 128.214C92.1497 127.954 91.4814 127.825 90.8361 127.911C90.1909 127.997 89.6967 128.283 88.7084 128.853L87.7229 129.422C86.1704 130.319 85.3941 130.767 85.3994 131.327C85.4047 131.887 86.1896 132.34 87.7593 133.246L92.4757 135.969C93.2333 136.407 93.6122 136.625 93.7923 136.867C94.0441 137.206 94.0478 137.588 93.8023 137.925C93.6268 138.166 93.2521 138.382 92.5027 138.815L92.5027 138.815C91.7533 139.248 91.3786 139.464 91.2031 139.705C90.9576 140.042 90.9613 140.424 91.2131 140.762C91.3932 141.005 91.7721 141.223 92.5297 141.661L97.4046 144.475C98.9743 145.382 99.7591 145.835 100.729 145.838C101.699 145.841 102.475 145.393 104.028 144.496L104.028 144.496L107.012 142.773C109.405 141.392 110.602 140.701 110.293 139.966C109.985 139.23 108.367 138.916 105.131 138.288L98.9489 137.089C97.8704 136.88 97.5391 136.09 98.3366 135.63C98.7418 135.396 99.3434 135.315 99.8914 135.422L112.005 137.772C113.341 138.031 114.009 138.161 114.655 138.075C115.3 137.988 115.794 137.703 116.782 137.132L117.768 136.563C119.32 135.667 120.097 135.219 120.091 134.659C120.086 134.099 119.301 133.646 117.732 132.739L113.015 130.016C112.258 129.579 111.879 129.36 111.699 129.118C111.447 128.779 111.443 128.398 111.689 128.061C111.864 127.82 112.239 127.603 112.988 127.171Z" fill="#272F30"/>
<path d="M112.988 127.171C113.738 126.738 114.112 126.522 114.288 126.281C114.533 125.943 114.53 125.562 114.278 125.223C114.098 124.981 113.719 124.762 112.961 124.325L108.086 121.51C106.517 120.604 105.732 120.151 104.762 120.148C103.792 120.145 103.016 120.593 101.463 121.489L98.4784 123.212C96.0855 124.594 94.8891 125.285 95.1976 126.02C95.506 126.755 97.1241 127.069 100.36 127.697L106.542 128.897C107.621 129.106 107.952 129.895 107.154 130.356C106.749 130.59 106.147 130.67 105.6 130.564L93.4862 128.214C92.1497 127.954 91.4814 127.825 90.8361 127.911C90.1909 127.997 89.6967 128.283 88.7084 128.853L87.7229 129.422C86.1704 130.319 85.3941 130.767 85.3994 131.327C85.4047 131.887 86.1896 132.34 87.7593 133.246L92.4757 135.969C93.2333 136.407 93.6122 136.625 93.7923 136.867C94.0441 137.206 94.0478 137.588 93.8023 137.925C93.6268 138.166 93.2521 138.382 92.5027 138.815L92.5027 138.815C91.7533 139.248 91.3786 139.464 91.2031 139.705C90.9576 140.042 90.9613 140.424 91.2131 140.762C91.3932 141.005 91.7721 141.223 92.5297 141.661L97.4046 144.475C98.9743 145.382 99.7591 145.835 100.729 145.838C101.699 145.841 102.475 145.393 104.028 144.496L104.028 144.496L107.012 142.773C109.405 141.392 110.602 140.701 110.293 139.966C109.985 139.23 108.367 138.916 105.131 138.288L98.9489 137.089C97.8704 136.88 97.5391 136.09 98.3366 135.63C98.7418 135.396 99.3434 135.315 99.8914 135.422L112.005 137.772C113.341 138.031 114.009 138.161 114.655 138.075C115.3 137.988 115.794 137.703 116.782 137.132L117.768 136.563C119.32 135.667 120.097 135.219 120.091 134.659C120.086 134.099 119.301 133.646 117.732 132.739L113.015 130.016C112.258 129.579 111.879 129.36 111.699 129.118C111.447 128.779 111.443 128.398 111.689 128.061C111.864 127.82 112.239 127.603 112.988 127.171Z" stroke="white"/>
<rect width="1.07919" height="64.7517" transform="matrix(0.866025 0.5 -0.866025 0.5 76.4961 21.4155)" fill="#BDCBFD" stroke="black" stroke-linejoin="bevel"/>
<rect width="1.07919" height="10.7919" transform="matrix(0.866025 0.5 0 1 20.4199 53.7915)" fill="#93AAFC" stroke="black" stroke-linejoin="bevel"/>
<rect width="64.7517" height="10.7919" transform="matrix(0.866025 -0.5 0 1 21.3555 54.3311)" fill="#FFB2B2" stroke="black" stroke-linejoin="bevel"/>
<rect width="1.07919" height="64.7517" transform="matrix(0.866025 0.5 -0.866025 0.5 76.4961 37.6045)" fill="#BDCBFD" stroke="black" stroke-linejoin="bevel"/>
<rect width="1.07919" height="10.7919" transform="matrix(0.866025 0.5 0 1 20.4199 69.9805)" fill="#93AAFC" stroke="black" stroke-linejoin="bevel"/>
<rect width="64.7517" height="10.7919" transform="matrix(0.866025 -0.5 0 1 21.3555 70.52)" fill="#FFB2B2" stroke="black" stroke-linejoin="bevel"/>
<rect width="1.07919" height="64.7517" transform="matrix(0.866025 0.5 -0.866025 0.5 76.4961 52.7129)" fill="#BDCBFD" stroke="black" stroke-linejoin="bevel"/>
<rect width="1.07919" height="10.7919" transform="matrix(0.866025 0.5 0 1 20.4199 85.0889)" fill="#93AAFC" stroke="black" stroke-linejoin="bevel"/>
<rect width="64.7517" height="10.7919" transform="matrix(0.866025 -0.5 0 1 21.3555 85.6284)" fill="#FFB2B2" stroke="black" stroke-linejoin="bevel"/>
<rect width="1.07919" height="64.7517" transform="matrix(0.866025 0.5 -0.866025 0.5 76.4961 68.8999)" fill="#BDCBFD" stroke="black" stroke-linejoin="bevel"/>
<rect width="1.07919" height="10.7919" transform="matrix(0.866025 0.5 0 1 20.4199 101.276)" fill="#93AAFC" stroke="black" stroke-linejoin="bevel"/>
<rect width="64.7517" height="10.7919" transform="matrix(0.866025 -0.5 0 1 21.3555 101.815)" fill="#FFB2B2" stroke="black" stroke-linejoin="bevel"/>
<path d="M25.7502 58.7769C25.6013 58.8629 25.4593 58.9129 25.3242 58.9269C25.1925 58.9389 25.0817 58.9069 24.9916 58.8309L25.1994 58.3869L25.2306 58.3209L25.2618 58.3269C25.2687 58.3549 25.2774 58.3799 25.2878 58.4019C25.2982 58.4279 25.3224 58.4539 25.3605 58.4799C25.409 58.4959 25.4645 58.4999 25.5268 58.4919C25.5926 58.4819 25.6654 58.4539 25.745 58.4079C25.849 58.3479 25.9408 58.2669 26.0204 58.1649C26.1036 58.0649 26.1677 57.9439 26.2127 57.8019C26.2577 57.6639 26.2802 57.5029 26.2802 57.3189V55.0389L25.3969 55.5489V55.1949L26.6596 54.4659V57.0759C26.6596 57.3519 26.618 57.5999 26.5349 57.8199C26.4517 58.0439 26.3409 58.2359 26.2023 58.3959C26.0672 58.5539 25.9165 58.6809 25.7502 58.7769ZM26.4413 54.0159C26.3686 54.0579 26.3062 54.0639 26.2543 54.0339C26.2023 54.0039 26.1763 53.9469 26.1763 53.8629C26.1763 53.7749 26.2006 53.6869 26.2491 53.5989C26.301 53.5089 26.3651 53.4419 26.4413 53.3979C26.5141 53.3559 26.5764 53.3519 26.6284 53.3859C26.6838 53.4139 26.7115 53.4699 26.7115 53.5539C26.7115 53.6379 26.6838 53.7259 26.6284 53.8179C26.5764 53.9079 26.5141 53.9739 26.4413 54.0159ZM28.5354 56.1729C28.3206 56.2969 28.1301 56.3469 27.9638 56.3229C27.801 56.2929 27.6728 56.1989 27.5793 56.0409C27.4858 55.8789 27.439 55.6599 27.439 55.3839C27.439 55.1039 27.4858 54.8309 27.5793 54.5649C27.6728 54.2949 27.801 54.0529 27.9638 53.8389C28.1301 53.6189 28.3206 53.4469 28.5354 53.3229C28.7502 53.1989 28.9389 53.1519 29.1018 53.1819C29.268 53.2059 29.3979 53.2989 29.4915 53.4609C29.585 53.6189 29.6318 53.8379 29.6318 54.1179C29.6318 54.3939 29.585 54.6669 29.4915 54.9369C29.3979 55.2029 29.268 55.4459 29.1018 55.6659C28.9389 55.8799 28.7502 56.0489 28.5354 56.1729ZM28.5354 55.8129C28.6739 55.7329 28.7952 55.6169 28.8991 55.4649C29.003 55.3129 29.0844 55.1399 29.1433 54.9459C29.2057 54.7499 29.2369 54.5479 29.2369 54.3399C29.2369 54.1319 29.2057 53.9659 29.1433 53.8419C29.0844 53.7159 29.003 53.6389 28.8991 53.6109C28.7952 53.5789 28.6739 53.6029 28.5354 53.6829C28.4003 53.7609 28.279 53.8769 28.1716 54.0309C28.0677 54.1789 27.9846 54.3509 27.9222 54.5469C27.8633 54.7409 27.8339 54.9419 27.8339 55.1499C27.8339 55.3579 27.8633 55.5249 27.9222 55.6509C27.9846 55.7749 28.0677 55.8529 28.1716 55.8849C28.279 55.9149 28.4003 55.8909 28.5354 55.8129ZM30.1098 51.2259L30.4683 51.0189L30.5203 50.9889V51.0309C30.4995 51.0669 30.4857 51.1009 30.4787 51.1329C30.4753 51.1629 30.4735 51.2119 30.4735 51.2799V52.7499C30.5359 52.6019 30.6086 52.4639 30.6918 52.3359C30.7784 52.2019 30.8685 52.0859 30.962 51.9879C31.059 51.8839 31.156 51.8039 31.253 51.7479C31.395 51.6659 31.5197 51.6319 31.6271 51.6459C31.7379 51.6579 31.8228 51.7309 31.8817 51.8649C31.9441 51.9969 31.9752 52.2009 31.9752 52.4769V54.1389L31.6115 54.3489V52.6989C31.6115 52.5069 31.5924 52.3659 31.5543 52.2759C31.5162 52.1819 31.4643 52.1299 31.3985 52.1199C31.3326 52.1059 31.2582 52.1229 31.175 52.1709C31.1127 52.2069 31.0486 52.2559 30.9828 52.3179C30.9169 52.3799 30.8529 52.4529 30.7905 52.5369C30.7316 52.6189 30.6779 52.7099 30.6294 52.8099C30.5809 52.9059 30.5428 53.0059 30.5151 53.1099C30.4874 53.2139 30.4735 53.3199 30.4735 53.4279V55.0059L30.1098 55.2159V51.2259ZM32.5988 53.7789V51.0369L32.9625 50.8269V51.3129C33.0249 51.1649 33.0976 51.0269 33.1807 50.8989C33.2639 50.7669 33.3557 50.6499 33.4561 50.5479C33.5566 50.4419 33.6605 50.3579 33.7679 50.2959C33.8995 50.2199 34.0173 50.1899 34.1212 50.2059C34.2252 50.2219 34.3083 50.2959 34.3707 50.4279C34.433 50.5599 34.4642 50.7639 34.4642 51.0399V52.7019L34.1005 52.9119V51.2619C34.1005 51.0699 34.0814 50.9289 34.0433 50.8389C34.0052 50.7449 33.9532 50.6929 33.8874 50.6829C33.8216 50.6689 33.7471 50.6859 33.664 50.7339C33.5843 50.7799 33.5029 50.8469 33.4198 50.9349C33.3401 51.0209 33.2656 51.1219 33.1963 51.2379C33.127 51.3499 33.0699 51.4709 33.0249 51.6009C32.9833 51.7289 32.9625 51.8589 32.9625 51.9909V53.5689L32.5988 53.7789ZM35.9347 51.9129C35.8135 51.9829 35.6939 52.0219 35.5762 52.0299C35.4619 52.0359 35.3562 52.0069 35.2592 51.9429C35.1657 51.8769 35.0912 51.7679 35.0358 51.6159C34.9803 51.4639 34.9526 51.2659 34.9526 51.0219C34.9526 50.7699 34.9821 50.5389 35.041 50.3289C35.0999 50.1149 35.1778 49.9239 35.2748 49.7559C35.3718 49.5839 35.4792 49.4379 35.597 49.3179C35.7147 49.1939 35.8342 49.0969 35.9555 49.0269C36.0663 48.9629 36.1651 48.9259 36.2517 48.9159C36.3417 48.9039 36.4197 48.9149 36.4855 48.9489C36.5548 48.9769 36.6085 49.0279 36.6466 49.1019V47.4519L36.9895 47.2539L37.0415 47.2239V47.2659C37.0207 47.3019 37.0068 47.3359 36.9999 47.3679C36.9964 47.3979 36.9947 47.4469 36.9947 47.5149L36.9999 50.8119C36.9999 50.8839 37.0016 50.9549 37.0051 51.0249C37.012 51.0889 37.0276 51.1499 37.0519 51.2079L36.6829 51.4209C36.6656 51.3829 36.6535 51.3419 36.6466 51.2979C36.6396 51.2539 36.6344 51.2109 36.631 51.1689C36.631 51.1209 36.631 51.0729 36.631 51.0249C36.5825 51.1489 36.5236 51.2689 36.4543 51.3849C36.385 51.4969 36.3071 51.5979 36.2205 51.6879C36.1339 51.7779 36.0386 51.8529 35.9347 51.9129ZM35.9919 51.5019C36.1062 51.4359 36.2032 51.3539 36.2828 51.2559C36.3625 51.1539 36.4266 51.0409 36.4751 50.9169C36.5236 50.7889 36.5582 50.6549 36.579 50.5149C36.6033 50.3689 36.6154 50.2219 36.6154 50.0739C36.6154 49.8699 36.5929 49.7009 36.5478 49.5669C36.5028 49.4289 36.4318 49.3419 36.3348 49.3059C36.2378 49.2659 36.1131 49.2899 35.9607 49.3779C35.8568 49.4379 35.7632 49.5159 35.6801 49.6119C35.6004 49.7019 35.5329 49.8069 35.4774 49.9269C35.4255 50.0449 35.3856 50.1739 35.3579 50.3139C35.3302 50.4499 35.3164 50.5939 35.3164 50.7459C35.3164 50.9739 35.3423 51.1589 35.3943 51.3009C35.4463 51.4429 35.5225 51.5329 35.6229 51.5709C35.7234 51.6089 35.8464 51.5859 35.9919 51.5019ZM38.512 50.4129C38.2972 50.5369 38.1067 50.5869 37.9404 50.5629C37.7776 50.5329 37.6494 50.4389 37.5559 50.2809C37.4624 50.1189 37.4156 49.8999 37.4156 49.6239C37.4156 49.3439 37.4624 49.0709 37.5559 48.8049C37.6494 48.5349 37.7776 48.2929 37.9404 48.0789C38.1067 47.8589 38.2972 47.6869 38.512 47.5629C38.7268 47.4389 38.9156 47.3919 39.0784 47.4219C39.2446 47.4459 39.3746 47.5389 39.4681 47.7009C39.5616 47.8589 39.6084 48.0779 39.6084 48.3579C39.6084 48.6339 39.5616 48.9069 39.4681 49.1769C39.3746 49.4429 39.2446 49.6859 39.0784 49.9059C38.9156 50.1199 38.7268 50.2889 38.512 50.4129ZM38.512 50.0529C38.6506 49.9729 38.7718 49.8569 38.8757 49.7049C38.9796 49.5529 39.0611 49.3799 39.1199 49.1859C39.1823 48.9899 39.2135 48.7879 39.2135 48.5799C39.2135 48.3719 39.1823 48.2059 39.1199 48.0819C39.0611 47.9559 38.9796 47.8789 38.8757 47.8509C38.7718 47.8189 38.6506 47.8429 38.512 47.9229C38.3769 48.0009 38.2556 48.1169 38.1483 48.2709C38.0443 48.4189 37.9612 48.5909 37.8988 48.7869C37.84 48.9809 37.8105 49.1819 37.8105 49.3899C37.8105 49.5979 37.84 49.7649 37.8988 49.8909C37.9612 50.0149 38.0443 50.0929 38.1483 50.1249C38.2556 50.1549 38.3769 50.1309 38.512 50.0529ZM41.1205 48.9189C40.9473 49.0189 40.7896 49.0799 40.6476 49.1019C40.5056 49.1199 40.3826 49.0989 40.2787 49.0389C40.1782 48.9769 40.1003 48.8739 40.0449 48.7299C39.9894 48.5819 39.9617 48.3939 39.9617 48.1659C39.9617 47.9339 39.9894 47.7119 40.0449 47.4999C40.1037 47.2859 40.1817 47.0909 40.2787 46.9149C40.3791 46.7329 40.4952 46.5719 40.6268 46.4319C40.7619 46.2899 40.904 46.1759 41.0529 46.0899C41.188 46.0119 41.3144 45.9649 41.4322 45.9489C41.55 45.9329 41.6522 45.9539 41.7388 46.0119C41.8254 46.0659 41.893 46.1609 41.9415 46.2969C41.9934 46.4309 42.0194 46.6099 42.0194 46.8339C42.0194 46.8659 42.0177 46.9009 42.0142 46.9389C42.0142 46.9709 42.0125 47.0039 42.009 47.0379L40.3203 48.0129C40.3272 48.1849 40.3532 48.3239 40.3982 48.4299C40.4432 48.5319 40.5021 48.6039 40.5749 48.6459C40.6476 48.6839 40.7307 48.6959 40.8243 48.6819C40.9213 48.6659 41.0235 48.6269 41.1309 48.5649C41.214 48.5169 41.2919 48.4619 41.3647 48.3999C41.4374 48.3339 41.505 48.2609 41.5673 48.1809C41.6331 48.0949 41.692 48.0029 41.744 47.9049L41.9518 48.0189C41.886 48.1489 41.8098 48.2709 41.7232 48.3849C41.6401 48.4969 41.5483 48.5959 41.4478 48.6819C41.3474 48.7719 41.2382 48.8509 41.1205 48.9189ZM40.3358 47.6679L41.6401 46.9149C41.6401 46.7869 41.6245 46.6819 41.5933 46.5999C41.5656 46.5119 41.524 46.4479 41.4686 46.4079C41.4166 46.3619 41.3526 46.3429 41.2763 46.3509C41.2036 46.3529 41.1205 46.3809 41.0269 46.4349C40.9438 46.4829 40.8641 46.5449 40.7879 46.6209C40.7152 46.6949 40.6476 46.7859 40.5853 46.8939C40.5229 46.9979 40.4692 47.1149 40.4242 47.2449C40.3826 47.3729 40.3532 47.5139 40.3358 47.6679ZM43.7341 47.4159C43.5644 47.5139 43.3964 47.5729 43.2301 47.5929C43.0673 47.6069 42.9201 47.5739 42.7884 47.4939C42.6603 47.4079 42.5563 47.2659 42.4767 47.0679C42.4004 46.8679 42.3623 46.5999 42.3623 46.2639C42.3623 45.9319 42.3987 45.6249 42.4715 45.3429C42.5442 45.0569 42.6412 44.8009 42.7624 44.5749C42.8837 44.3489 43.0171 44.1559 43.1625 43.9959C43.3115 43.8339 43.4605 43.7099 43.6094 43.6239C43.7376 43.5499 43.8623 43.5059 43.9835 43.4919C44.1048 43.4779 44.2122 43.4999 44.3057 43.5579C44.4027 43.6139 44.4789 43.7119 44.5343 43.8519C44.5898 43.9879 44.6175 44.1679 44.6175 44.3919V45.7899L44.3057 45.9699V45.7419C44.2399 45.8719 44.1637 45.9859 44.0771 46.0839C43.9939 46.1759 43.9021 46.2509 43.8017 46.3089C43.67 46.3849 43.5523 46.4189 43.4483 46.4109C43.3444 46.4029 43.2613 46.3569 43.1989 46.2729C43.14 46.1869 43.1106 46.0679 43.1106 45.9159C43.1106 45.7799 43.1348 45.6419 43.1833 45.5019C43.2318 45.3619 43.3046 45.2239 43.4016 45.0879C43.502 44.9499 43.625 44.8209 43.7705 44.7009C43.9195 44.5749 44.0927 44.4629 44.2901 44.3649C44.2901 44.2129 44.2624 44.0929 44.207 44.0049C44.1515 43.9129 44.0719 43.8609 43.968 43.8489C43.864 43.8369 43.7393 43.8729 43.5938 43.9569C43.4691 44.0289 43.3513 44.1269 43.2405 44.2509C43.1296 44.3749 43.0309 44.5259 42.9443 44.7039C42.8577 44.8779 42.7884 45.0759 42.7365 45.2979C42.688 45.5179 42.6637 45.7599 42.6637 46.0239C42.6637 46.3119 42.6949 46.5419 42.7572 46.7139C42.8196 46.8859 42.9027 47.0119 43.0067 47.0919C43.114 47.1659 43.2318 47.1999 43.36 47.1939C43.4916 47.1819 43.6267 47.1359 43.7653 47.0559C43.8658 46.9979 43.961 46.9269 44.0511 46.8429C44.1446 46.7529 44.2347 46.6509 44.3213 46.5369L44.4616 46.7499C44.3507 46.8939 44.2347 47.0209 44.1134 47.1309C43.9922 47.2449 43.8658 47.3399 43.7341 47.4159ZM43.8484 45.9519C43.9281 45.9059 43.9957 45.8489 44.0511 45.7809C44.11 45.7109 44.1585 45.6249 44.1966 45.5229C44.2347 45.4209 44.2624 45.2989 44.2797 45.1569C44.297 45.0149 44.3057 44.8479 44.3057 44.6559C44.1152 44.7459 43.9541 44.8489 43.8225 44.9649C43.6943 45.0789 43.5973 45.1989 43.5315 45.3249C43.4657 45.4509 43.4327 45.5779 43.4327 45.7059C43.4327 45.8539 43.4674 45.9519 43.5367 45.9999C43.606 46.0479 43.7099 46.0319 43.8484 45.9519ZM45.9789 47.0859C45.8126 47.1819 45.6619 47.2529 45.5268 47.2989C45.3952 47.3469 45.2808 47.3689 45.1839 47.3649C45.0903 47.3629 45.0176 47.3329 44.9656 47.2749C44.9171 47.2149 44.8929 47.1249 44.8929 47.0049C44.8929 46.8929 44.9137 46.7809 44.9552 46.6689C44.9968 46.5569 45.0505 46.4539 45.1163 46.3599C45.1856 46.2599 45.2601 46.1729 45.3397 46.0989L45.4956 46.1169C45.4333 46.1969 45.383 46.2699 45.3449 46.3359C45.3068 46.4019 45.2791 46.4679 45.2618 46.5339C45.2445 46.6039 45.2358 46.6789 45.2358 46.7589C45.2358 46.8269 45.2531 46.8769 45.2878 46.9089C45.3224 46.9449 45.3709 46.9629 45.4333 46.9629C45.4991 46.9609 45.577 46.9439 45.6671 46.9119C45.7606 46.8779 45.8663 46.8269 45.9841 46.7589C46.1434 46.6669 46.2716 46.5729 46.3686 46.4769C46.469 46.3829 46.5435 46.2879 46.592 46.1919C46.6405 46.0999 46.6648 46.0119 46.6648 45.9279C46.6648 45.8399 46.6509 45.7759 46.6232 45.7359C46.5955 45.6959 46.5383 45.6869 46.4517 45.7089C46.3651 45.7309 46.2335 45.7929 46.0568 45.8949C45.9356 45.9649 45.8247 46.0229 45.7243 46.0689C45.6238 46.1149 45.5337 46.1469 45.4541 46.1649C45.3744 46.1829 45.3068 46.1879 45.2514 46.1799C45.1994 46.1659 45.1596 46.1369 45.1319 46.0929C45.1042 46.0489 45.0903 45.9869 45.0903 45.9069C45.0903 45.8029 45.1146 45.6889 45.1631 45.5649C45.215 45.4389 45.2843 45.3069 45.3709 45.1689L45.5476 45.2289C45.5129 45.2929 45.4852 45.3489 45.4644 45.3969C45.4437 45.4409 45.4281 45.4819 45.4177 45.5199C45.4108 45.5519 45.4073 45.5859 45.4073 45.6219C45.4073 45.6859 45.4281 45.7259 45.4696 45.7419C45.5147 45.7559 45.5909 45.7419 45.6983 45.6999C45.8057 45.6539 45.9512 45.5779 46.1347 45.4719C46.3183 45.3659 46.4673 45.2979 46.5816 45.2679C46.6959 45.2339 46.7825 45.2319 46.8414 45.2619C46.9038 45.2899 46.9471 45.3389 46.9713 45.4089C46.9956 45.4789 47.0077 45.5639 47.0077 45.6639C47.0077 45.7719 46.9886 45.8849 46.9505 46.0029C46.9159 46.1229 46.8587 46.2439 46.7791 46.3659C46.6994 46.4919 46.5937 46.6149 46.4621 46.7349C46.3305 46.8589 46.1694 46.9759 45.9789 47.0859ZM45.8697 45.1869C45.7 45.2849 45.5528 45.3279 45.4281 45.3159C45.3034 45.2999 45.2064 45.2399 45.1371 45.1359C45.0713 45.0259 45.0384 44.8829 45.0384 44.7069C45.0384 44.5309 45.0713 44.3519 45.1371 44.1699C45.2064 43.9859 45.3034 43.8159 45.4281 43.6599C45.5528 43.4999 45.7 43.3709 45.8697 43.2729C46.0429 43.1729 46.1902 43.1319 46.3114 43.1499C46.4361 43.1619 46.5314 43.2209 46.5972 43.3269C46.6665 43.4309 46.7011 43.5709 46.7011 43.7469C46.7011 43.9229 46.6665 44.1049 46.5972 44.2929C46.5314 44.4749 46.4361 44.6459 46.3114 44.8059C46.1902 44.9599 46.0429 45.0869 45.8697 45.1869ZM45.8697 44.8269C45.9702 44.7689 46.0585 44.6919 46.1347 44.5959C46.2144 44.4939 46.2768 44.3839 46.3218 44.2659C46.3668 44.1479 46.3894 44.0349 46.3894 43.9269C46.3894 43.8149 46.3668 43.7279 46.3218 43.6659C46.2768 43.5999 46.2144 43.5639 46.1347 43.5579C46.0585 43.5459 45.9702 43.5689 45.8697 43.6269C45.7693 43.6849 45.6792 43.7649 45.5995 43.8669C45.5233 43.9629 45.4627 44.0699 45.4177 44.1879C45.3726 44.3019 45.3501 44.4149 45.3501 44.5269C45.3501 44.6349 45.3726 44.7219 45.4177 44.7879C45.4627 44.8539 45.5233 44.8929 45.5995 44.9049C45.6792 44.9109 45.7693 44.8849 45.8697 44.8269ZM46.5608 43.4199L46.4153 43.3059C46.5158 43.1319 46.6197 42.9879 46.7271 42.8739C46.838 42.7539 46.9679 42.6569 47.1168 42.5829L47.1636 42.9099C47.0493 42.9639 46.9419 43.0299 46.8414 43.1079C46.741 43.1859 46.6474 43.2899 46.5608 43.4199ZM47.387 45.2409V42.4989L47.73 42.3009V42.5709C47.7681 42.4809 47.8114 42.3979 47.8599 42.3219C47.9118 42.2399 47.9673 42.1679 48.0261 42.1059C48.0885 42.0419 48.1509 41.9919 48.2132 41.9559C48.2825 41.9159 48.3466 41.8969 48.4055 41.8989C48.4644 41.8969 48.5129 41.9149 48.551 41.9529C48.5925 41.9889 48.6202 42.0429 48.6341 42.1149C48.6653 42.0169 48.7068 41.9229 48.7588 41.8329C48.8142 41.7409 48.8766 41.6589 48.9459 41.5869C49.0186 41.5089 49.0931 41.4479 49.1693 41.4039C49.249 41.3579 49.3183 41.3359 49.3771 41.3379C49.436 41.3399 49.4845 41.3619 49.5226 41.4039C49.5607 41.4419 49.5885 41.4999 49.6058 41.5779C49.6231 41.6519 49.63 41.7399 49.6266 41.8419V43.9479L49.2836 44.1459V42.2019C49.2836 42.0339 49.2732 41.9179 49.2524 41.8539C49.2351 41.7879 49.2091 41.7549 49.1745 41.7549C49.1399 41.7509 49.1017 41.7609 49.0602 41.7849C48.9944 41.8229 48.932 41.8949 48.8731 42.0009C48.8177 42.1009 48.7709 42.2139 48.7328 42.3399C48.6982 42.4639 48.6809 42.5779 48.6809 42.6819V44.4939L48.3327 44.6949V42.7869C48.3327 42.5589 48.3137 42.4179 48.2756 42.3639C48.2409 42.3079 48.1734 42.3089 48.0729 42.3669C48.0348 42.3889 47.995 42.4279 47.9534 42.4839C47.9153 42.5339 47.8789 42.5969 47.8443 42.6729C47.8096 42.7449 47.7819 42.8269 47.7611 42.9189C47.7404 43.0109 47.73 43.1089 47.73 43.2129V45.0429L47.387 45.2409ZM50.7801 43.3479C50.5099 43.5039 50.3021 43.5539 50.1566 43.4979C50.0111 43.4379 49.9383 43.2979 49.9383 43.0779C49.9383 42.9299 49.9695 42.7799 50.0319 42.6279C50.0942 42.4719 50.1791 42.3229 50.2865 42.1809C50.3973 42.0329 50.5255 41.8949 50.671 41.7669C50.8165 41.6389 50.9706 41.5279 51.1334 41.4339C51.1923 41.3999 51.2512 41.3679 51.3101 41.3379C51.3725 41.3019 51.4366 41.2689 51.5024 41.2389C51.5717 41.2029 51.6427 41.1699 51.7154 41.1399L51.7258 41.4639C51.6635 41.4879 51.5994 41.5169 51.5335 41.5509C51.4712 41.5789 51.4088 41.6089 51.3465 41.6409C51.2841 41.6729 51.2235 41.7059 51.1646 41.7399C51.0399 41.8119 50.9256 41.8899 50.8217 41.9739C50.7178 42.0579 50.6277 42.1459 50.5515 42.2379C50.4753 42.3299 50.4164 42.4259 50.3748 42.5259C50.3332 42.6259 50.3125 42.7299 50.3125 42.8379C50.3125 42.9219 50.3246 42.9869 50.3488 43.0329C50.3765 43.0729 50.4129 43.0979 50.4579 43.1079C50.503 43.1139 50.5549 43.1079 50.6138 43.0899C50.6762 43.0699 50.7437 43.0389 50.8165 42.9969C50.9516 42.9189 51.0711 42.8259 51.175 42.7179C51.2824 42.6039 51.3725 42.4779 51.4452 42.3399C51.5214 42.1999 51.5786 42.0489 51.6167 41.8869C51.6548 41.7249 51.6738 41.5539 51.6738 41.3739C51.6738 41.1019 51.6461 40.9059 51.5907 40.7859C51.5353 40.6659 51.4521 40.6059 51.3413 40.6059C51.2339 40.6039 51.0953 40.6519 50.9256 40.7499C50.8113 40.8159 50.6987 40.9069 50.5878 41.0229C50.477 41.1349 50.3765 41.2689 50.2865 41.4249L50.1046 41.2539C50.2155 41.0619 50.3436 40.8919 50.4891 40.7439C50.6346 40.5959 50.7888 40.4749 50.9516 40.3809C51.1075 40.2909 51.2495 40.2309 51.3777 40.2009C51.5058 40.1709 51.615 40.1819 51.705 40.2339C51.7986 40.2799 51.8696 40.3749 51.9181 40.5189C51.97 40.6609 51.996 40.8619 51.996 41.1219V42.5799L51.5907 42.8139V42.3939C51.5457 42.5199 51.4902 42.6339 51.4244 42.7359C51.3621 42.8359 51.2945 42.9249 51.2218 43.0029C51.149 43.0769 51.0746 43.1419 50.9983 43.1979C50.9221 43.2579 50.8494 43.3079 50.7801 43.3479ZM52.6975 42.1749V41.8269L53.3054 41.4759V39.4299L52.7287 39.7629V39.4149L53.6796 38.8659V41.2599L54.2355 40.9389V41.2869L52.6975 42.1749ZM53.4717 38.4099C53.399 38.4519 53.3366 38.4579 53.2847 38.4279C53.2327 38.3979 53.2067 38.3409 53.2067 38.2569C53.2067 38.1689 53.231 38.0809 53.2795 37.9929C53.3314 37.9029 53.3955 37.8359 53.4717 37.7919C53.5445 37.7499 53.6068 37.7459 53.6588 37.7799C53.7142 37.8079 53.7419 37.8639 53.7419 37.9479C53.7419 38.0319 53.7142 38.1199 53.6588 38.2119C53.6068 38.3019 53.5445 38.3679 53.4717 38.4099ZM55.0825 40.7979V40.4499L55.784 40.0449V36.7509L55.1137 37.1379V36.7899L56.1633 36.1839V39.8259L56.8596 39.4239V39.7719L55.0825 40.7979ZM58.4029 38.9469C58.3197 38.9949 58.2487 39.0019 58.1898 38.9679C58.1309 38.9339 58.1015 38.8709 58.1015 38.7789C58.1015 38.6869 58.1309 38.5899 58.1898 38.4879C58.2487 38.3859 58.3197 38.3109 58.4029 38.2629C58.4825 38.2169 58.5518 38.2109 58.6107 38.2449C58.6696 38.2789 58.699 38.3419 58.699 38.4339C58.699 38.5259 58.6696 38.6229 58.6107 38.7249C58.5518 38.8269 58.4825 38.9009 58.4029 38.9469ZM61.1412 37.3659C60.968 37.4659 60.8087 37.5219 60.6632 37.5339C60.5177 37.5459 60.3913 37.5189 60.2839 37.4529C60.1799 37.3849 60.0985 37.2819 60.0397 37.1439C59.9808 37.0019 59.9513 36.8269 59.9513 36.6189C59.9513 36.4149 59.9808 36.2099 60.0397 36.0039C60.0985 35.7939 60.1799 35.5949 60.2839 35.4069C60.3913 35.2169 60.5177 35.0439 60.6632 34.8879C60.8087 34.7319 60.9663 34.6049 61.136 34.5069C61.33 34.3949 61.5032 34.3409 61.6557 34.3449C61.8115 34.3429 61.938 34.3939 62.035 34.4979L61.8011 34.8969L61.7648 34.9599L61.7388 34.9449C61.7388 34.9129 61.7319 34.8869 61.718 34.8669C61.7076 34.8449 61.6816 34.8219 61.6401 34.7979C61.5639 34.7619 61.4824 34.7529 61.3958 34.7709C61.3092 34.7889 61.2088 34.8309 61.0945 34.8969C60.994 34.9549 60.8987 35.0339 60.8087 35.1339C60.7186 35.2339 60.6372 35.3509 60.5645 35.4849C60.4952 35.6129 60.4398 35.7529 60.3982 35.9049C60.3566 36.0569 60.3358 36.2109 60.3358 36.3669C60.3358 36.5229 60.3566 36.6549 60.3982 36.7629C60.4398 36.8669 60.4969 36.9459 60.5697 36.9999C60.6424 37.0539 60.729 37.0799 60.8295 37.0779C60.9334 37.0699 61.0442 37.0319 61.162 36.9639C61.2417 36.9179 61.3179 36.8619 61.3906 36.7959C61.4634 36.7259 61.5327 36.6479 61.5985 36.5619C61.6643 36.4719 61.7249 36.3749 61.7804 36.2709L61.9986 36.4389C61.8808 36.6509 61.7492 36.8349 61.6037 36.9909C61.4617 37.1449 61.3075 37.2699 61.1412 37.3659ZM63.4535 36.0129C63.2387 36.1369 63.0482 36.1869 62.8819 36.1629C62.7191 36.1329 62.591 36.0389 62.4974 35.8809C62.4039 35.7189 62.3571 35.4999 62.3571 35.2239C62.3571 34.9439 62.4039 34.6709 62.4974 34.4049C62.591 34.1349 62.7191 33.8929 62.8819 33.6789C63.0482 33.4589 63.2387 33.2869 63.4535 33.1629C63.6683 33.0389 63.8571 32.9919 64.0199 33.0219C64.1862 33.0459 64.3161 33.1389 64.4096 33.3009C64.5031 33.4589 64.5499 33.6779 64.5499 33.9579C64.5499 34.2339 64.5031 34.5069 64.4096 34.7769C64.3161 35.0429 64.1862 35.2859 64.0199 35.5059C63.8571 35.7199 63.6683 35.8889 63.4535 36.0129ZM63.4535 35.6529C63.5921 35.5729 63.7133 35.4569 63.8173 35.3049C63.9212 35.1529 64.0026 34.9799 64.0615 34.7859C64.1238 34.5899 64.155 34.3879 64.155 34.1799C64.155 33.9719 64.1238 33.8059 64.0615 33.6819C64.0026 33.5559 63.9212 33.4789 63.8173 33.4509C63.7133 33.4189 63.5921 33.4429 63.4535 33.5229C63.3184 33.6009 63.1972 33.7169 63.0898 33.8709C62.9859 34.0189 62.9027 34.1909 62.8404 34.3869C62.7815 34.5809 62.752 34.7819 62.752 34.9899C62.752 35.1979 62.7815 35.3649 62.8404 35.4909C62.9027 35.6149 62.9859 35.6929 63.0898 35.7249C63.1972 35.7549 63.3184 35.7309 63.4535 35.6529ZM64.8461 35.1609V32.4189L65.189 32.2209V32.4909C65.2271 32.4009 65.2704 32.3179 65.3189 32.2419C65.3709 32.1599 65.4263 32.0879 65.4852 32.0259C65.5476 31.9619 65.6099 31.9119 65.6723 31.8759C65.7416 31.8359 65.8056 31.8169 65.8645 31.8189C65.9234 31.8169 65.9719 31.8349 66.01 31.8729C66.0516 31.9089 66.0793 31.9629 66.0932 32.0349C66.1243 31.9369 66.1659 31.8429 66.2179 31.7529C66.2733 31.6609 66.3357 31.5789 66.4049 31.5069C66.4777 31.4289 66.5522 31.3679 66.6284 31.3239C66.708 31.2779 66.7773 31.2559 66.8362 31.2579C66.8951 31.2599 66.9436 31.2819 66.9817 31.3239C67.0198 31.3619 67.0475 31.4199 67.0648 31.4979C67.0822 31.5719 67.0891 31.6599 67.0856 31.7619V33.8679L66.7427 34.0659V32.1219C66.7427 31.9539 66.7323 31.8379 66.7115 31.7739C66.6942 31.7079 66.6682 31.6749 66.6336 31.6749C66.5989 31.6709 66.5608 31.6809 66.5193 31.7049C66.4534 31.7429 66.3911 31.8149 66.3322 31.9209C66.2768 32.0209 66.23 32.1339 66.1919 32.2599C66.1573 32.3839 66.1399 32.4979 66.1399 32.6019V34.4139L65.7918 34.6149V32.7069C65.7918 32.4789 65.7727 32.3379 65.7346 32.2839C65.7 32.2279 65.6324 32.2289 65.532 32.2869C65.4939 32.3089 65.454 32.3479 65.4125 32.4039C65.3744 32.4539 65.338 32.5169 65.3034 32.5929C65.2687 32.6649 65.241 32.7469 65.2202 32.8389C65.1994 32.9309 65.189 33.0289 65.189 33.1329V34.9629L64.8461 35.1609Z" fill="black"/>
<path d="M24.7422 59.6649L67.2467 35.1249V35.4249L24.7422 59.9649V59.6649Z" fill="black"/>
<a href="mailto:johndoe@gmail.com">
<rect fill="black" fill-opacity="0" y="-0.147" width="49.08" height="6.294"/>
</a>
<path d="M35.0111 67.7989L36.3984 64.9399L36.518 65.1529L35.1306 67.9879L35.0111 67.7989ZM35.7541 68.3599C35.5393 68.4839 35.3575 68.5149 35.2085 68.4529C35.0596 68.3909 34.9452 68.2409 34.8656 68.0029C34.7894 67.7589 34.7513 67.4329 34.7513 67.0249C34.7513 66.6289 34.7894 66.2669 34.8656 65.9389C34.9452 65.6049 35.0596 65.3189 35.2085 65.0809C35.3575 64.8389 35.5393 64.6559 35.7541 64.5319C35.9689 64.4079 36.1508 64.3809 36.2997 64.4509C36.4487 64.5169 36.5613 64.6719 36.6375 64.9159C36.7171 65.1539 36.757 65.4709 36.757 65.8669C36.757 66.2749 36.7171 66.6459 36.6375 66.9799C36.5613 67.3079 36.4487 67.5889 36.2997 67.8229C36.1508 68.0569 35.9689 68.2359 35.7541 68.3599ZM35.7541 67.9939C35.8858 67.9179 35.9983 67.7929 36.0919 67.6189C36.1854 67.4449 36.2564 67.2299 36.3049 66.9739C36.3569 66.7119 36.3829 66.4149 36.3829 66.0829C36.3829 65.7669 36.3569 65.5099 36.3049 65.3119C36.2564 65.1079 36.1854 64.9689 36.0919 64.8949C35.9983 64.8209 35.8858 64.8219 35.7541 64.8979C35.6225 64.9739 35.5099 65.1029 35.4164 65.2849C35.3228 65.4669 35.2501 65.6889 35.1981 65.9509C35.1496 66.2069 35.1254 66.4929 35.1254 66.8089C35.1254 67.1409 35.1496 67.4089 35.1981 67.6129C35.2501 67.8109 35.3228 67.9429 35.4164 68.0089C35.5099 68.0749 35.6225 68.0699 35.7541 67.9939ZM38.1443 66.9139V63.6919L37.4896 64.2919L37.4065 64.1059L38.2535 63.1069L38.5081 62.9599V66.7039L38.1443 66.9139ZM40.6385 65.4739V62.2519L39.9838 62.8519L39.9006 62.6659L40.7476 61.6669L41.0022 61.5199V65.2639L40.6385 65.4739ZM42.5143 62.7049V62.3029L43.9692 61.4629V61.8649L42.5143 62.7049ZM44.811 62.7289C44.9981 62.4009 45.1695 62.1019 45.3254 61.8319C45.4813 61.5619 45.6199 61.3159 45.7411 61.0939C45.8658 60.8659 45.9715 60.6589 46.0581 60.4729C46.1447 60.2829 46.2105 60.1089 46.2555 59.9509C46.3006 59.7889 46.3231 59.6339 46.3231 59.4859C46.3231 59.3579 46.3092 59.2579 46.2815 59.1859C46.2538 59.1139 46.214 59.0669 46.162 59.0449C46.1135 59.0169 46.0546 59.0109 45.9853 59.0269C45.9195 59.0409 45.8485 59.0699 45.7723 59.1139C45.6892 59.1619 45.6095 59.2219 45.5333 59.2939C45.4571 59.3659 45.3843 59.4499 45.315 59.5459C45.2458 59.6379 45.1817 59.7449 45.1228 59.8669C45.0916 59.9409 45.0725 59.9959 45.0656 60.0319C45.0587 60.0639 45.057 60.0949 45.0604 60.1249L45.0396 60.1669L44.9981 60.1609L44.7331 60.0739C44.8023 59.8779 44.889 59.6959 44.9929 59.5279C45.0968 59.3599 45.2146 59.2099 45.3462 59.0779C45.4778 58.9459 45.6181 58.8369 45.7671 58.7509C45.9507 58.6449 46.1118 58.5959 46.2503 58.6039C46.3889 58.6079 46.498 58.6669 46.5777 58.7809C46.6574 58.8949 46.6972 59.0619 46.6972 59.2819C46.6972 59.4459 46.6712 59.6209 46.6193 59.8069C46.5673 59.9889 46.4963 60.1799 46.4062 60.3799C46.3162 60.5799 46.2105 60.7889 46.0893 61.0069C45.968 61.2249 45.8381 61.4539 45.6996 61.6939C45.5645 61.9279 45.4242 62.1729 45.2787 62.4289L46.4842 61.7329C46.5431 61.6989 46.5846 61.6709 46.6089 61.6489C46.6331 61.6269 46.6556 61.5979 46.6764 61.5619L46.7128 61.5409V61.6009V61.9669L44.811 63.0649V62.7289ZM48.1729 61.1899C48.0032 61.2879 47.8404 61.3459 47.6845 61.3639C47.5286 61.3819 47.3952 61.3529 47.2844 61.2769L47.5234 60.8089L47.5598 60.7399L47.5858 60.7549C47.5892 60.7849 47.5961 60.8129 47.6065 60.8389C47.6169 60.8609 47.6412 60.8849 47.6793 60.9109C47.7382 60.9369 47.8057 60.9479 47.8819 60.9439C47.9581 60.9359 48.0499 60.9009 48.1573 60.8389C48.2959 60.7589 48.4102 60.6609 48.5003 60.5449C48.5903 60.4289 48.6579 60.3019 48.7029 60.1639C48.748 60.0219 48.7705 59.8789 48.7705 59.7349C48.7705 59.5909 48.748 59.4819 48.7029 59.4079C48.6614 59.3319 48.6007 59.2889 48.5211 59.2789C48.4414 59.2649 48.3461 59.2799 48.2353 59.3239C48.1244 59.3639 47.9997 59.4319 47.8612 59.5279V59.1919C48.0274 59.0959 48.1625 58.9979 48.2665 58.8979C48.3738 58.7959 48.4552 58.6949 48.5107 58.5949C48.5696 58.4929 48.6094 58.3919 48.6302 58.2919C48.651 58.1879 48.6614 58.0879 48.6614 57.9919C48.6614 57.9079 48.6492 57.8389 48.625 57.7849C48.6042 57.7289 48.573 57.6889 48.5315 57.6649C48.4933 57.6389 48.4449 57.6309 48.386 57.6409C48.3305 57.6449 48.2682 57.6669 48.1989 57.7069C48.1296 57.7469 48.0603 57.7969 47.9911 57.8569C47.9252 57.9109 47.8594 57.9769 47.7936 58.0549C47.7312 58.1309 47.6689 58.2209 47.6065 58.3249L47.3883 58.1989C47.5061 57.9909 47.6343 57.8189 47.7728 57.6829C47.9148 57.5409 48.0551 57.4299 48.1937 57.3499C48.3704 57.2479 48.5211 57.2009 48.6458 57.2089C48.7705 57.2129 48.8657 57.2659 48.9316 57.3679C49.0008 57.4679 49.0355 57.6099 49.0355 57.7939C49.0355 57.9219 49.0164 58.0549 48.9783 58.1929C48.9437 58.3249 48.8883 58.4549 48.812 58.5829C48.7358 58.7109 48.6406 58.8299 48.5263 58.9399C48.6475 58.9139 48.7549 58.9179 48.8484 58.9519C48.942 58.9819 49.0147 59.0439 49.0667 59.1379C49.1186 59.2319 49.1446 59.3649 49.1446 59.5369C49.1446 59.7329 49.1065 59.9369 49.0303 60.1489C48.9575 60.3549 48.8484 60.5499 48.7029 60.7339C48.5609 60.9159 48.3842 61.0679 48.1729 61.1899ZM49.9968 58.3849V57.9829L51.4517 57.1429V57.5449L49.9968 58.3849ZM53.5665 58.0099V57.0919L52.1636 57.9019V57.5959L53.6445 54.2209L53.951 54.0439V56.5219L54.3667 56.2819V56.6359L53.951 56.8759V57.7879L53.5665 58.0099ZM52.5845 57.3049L53.5665 56.7379V55.0219L52.5845 57.3049ZM55.7021 56.8429C55.5047 56.9569 55.3211 57.0129 55.1514 57.0109C54.9851 57.0069 54.8482 56.9439 54.7409 56.8219L55.0318 56.4019L55.0734 56.3419L55.0942 56.3599C55.0907 56.3939 55.0942 56.4219 55.1046 56.4439C55.1184 56.4639 55.1427 56.4899 55.1773 56.5219C55.2466 56.5699 55.3228 56.5919 55.406 56.5879C55.4926 56.5779 55.5982 56.5369 55.7229 56.4649C55.8061 56.4169 55.8857 56.3509 55.962 56.2669C56.0382 56.1789 56.104 56.0809 56.1594 55.9729C56.2183 55.8629 56.2651 55.7419 56.2997 55.6099C56.3343 55.4779 56.3517 55.3439 56.3517 55.2079C56.3517 55.0679 56.3343 54.9539 56.2997 54.8659C56.2651 54.7739 56.2166 54.7079 56.1542 54.6679C56.0953 54.6259 56.026 54.6079 55.9464 54.6139C55.8667 54.6199 55.7801 54.6499 55.6866 54.7039C55.6138 54.7459 55.5393 54.8029 55.4631 54.8749C55.3904 54.9449 55.3211 55.0249 55.2553 55.1149C55.1929 55.2029 55.134 55.3009 55.0786 55.4089L54.85 55.4329L54.9591 53.4679L56.6011 52.5199V52.8979L55.2657 53.6689L55.2137 54.7729C55.2726 54.7069 55.3298 54.6479 55.3852 54.5959C55.4441 54.5379 55.503 54.4879 55.5618 54.4459C55.6242 54.3979 55.6848 54.3569 55.7437 54.3229C55.8857 54.2409 56.0156 54.1959 56.1334 54.1879C56.2512 54.1759 56.3534 54.2009 56.44 54.2629C56.5301 54.3189 56.5993 54.4109 56.6478 54.5389C56.6963 54.6629 56.7206 54.8209 56.7206 55.0129C56.7206 55.2689 56.6756 55.5169 56.5855 55.7569C56.4954 55.9929 56.3742 56.2049 56.2218 56.3929C56.0693 56.5809 55.8961 56.7309 55.7021 56.8429ZM57.4584 54.8389L58.8458 51.9799L58.9653 52.1929L57.578 55.0279L57.4584 54.8389ZM58.2015 55.3999C57.9867 55.5239 57.8049 55.5549 57.6559 55.4929C57.5069 55.4309 57.3926 55.2809 57.313 55.0429C57.2367 54.7989 57.1986 54.4729 57.1986 54.0649C57.1986 53.6689 57.2367 53.3069 57.313 52.9789C57.3926 52.6449 57.5069 52.3589 57.6559 52.1209C57.8049 51.8789 57.9867 51.6959 58.2015 51.5719C58.4163 51.4479 58.5981 51.4209 58.7471 51.4909C58.896 51.5569 59.0086 51.7119 59.0848 51.9559C59.1645 52.1939 59.2044 52.5109 59.2044 52.9069C59.2044 53.3149 59.1645 53.6859 59.0848 54.0199C59.0086 54.3479 58.896 54.6289 58.7471 54.8629C58.5981 55.0969 58.4163 55.2759 58.2015 55.3999ZM58.2015 55.0339C58.3331 54.9579 58.4457 54.8329 58.5392 54.6589C58.6328 54.4849 58.7038 54.2699 58.7523 54.0139C58.8042 53.7519 58.8302 53.4549 58.8302 53.1229C58.8302 52.8069 58.8042 52.5499 58.7523 52.3519C58.7038 52.1479 58.6328 52.0089 58.5392 51.9349C58.4457 51.8609 58.3331 51.8619 58.2015 51.9379C58.0699 52.0139 57.9573 52.1429 57.8637 52.3249C57.7702 52.5069 57.6975 52.7289 57.6455 52.9909C57.597 53.2469 57.5728 53.5329 57.5728 53.8489C57.5728 54.1809 57.597 54.4489 57.6455 54.6529C57.6975 54.8509 57.7702 54.9829 57.8637 55.0489C57.9573 55.1149 58.0699 55.1099 58.2015 55.0339ZM59.7759 54.0889C59.963 53.7609 60.1345 53.4619 60.2903 53.1919C60.4462 52.9219 60.5848 52.6759 60.706 52.4539C60.8307 52.2259 60.9364 52.0189 61.023 51.8329C61.1096 51.6429 61.1754 51.4689 61.2205 51.3109C61.2655 51.1489 61.288 50.9939 61.288 50.8459C61.288 50.7179 61.2742 50.6179 61.2464 50.5459C61.2187 50.4739 61.1789 50.4269 61.1269 50.4049C61.0784 50.3769 61.0195 50.3709 60.9503 50.3869C60.8844 50.4009 60.8134 50.4299 60.7372 50.4739C60.6541 50.5219 60.5744 50.5819 60.4982 50.6539C60.422 50.7259 60.3492 50.8099 60.28 50.9059C60.2107 50.9979 60.1466 51.1049 60.0877 51.2269C60.0565 51.3009 60.0375 51.3559 60.0305 51.3919C60.0236 51.4239 60.0219 51.4549 60.0253 51.4849L60.0046 51.5269L59.963 51.5209L59.698 51.4339C59.7673 51.2379 59.8539 51.0559 59.9578 50.8879C60.0617 50.7199 60.1795 50.5699 60.3111 50.4379C60.4428 50.3059 60.5831 50.1969 60.732 50.1109C60.9156 50.0049 61.0767 49.9559 61.2153 49.9639C61.3538 49.9679 61.4629 50.0269 61.5426 50.1409C61.6223 50.2549 61.6621 50.4219 61.6621 50.6419C61.6621 50.8059 61.6362 50.9809 61.5842 51.1669C61.5322 51.3489 61.4612 51.5399 61.3711 51.7399C61.2811 51.9399 61.1754 52.1489 61.0542 52.3669C60.9329 52.5849 60.803 52.8139 60.6645 53.0539C60.5294 53.2879 60.3891 53.5329 60.2436 53.7889L61.4491 53.0929C61.508 53.0589 61.5495 53.0309 61.5738 53.0089C61.598 52.9869 61.6206 52.9579 61.6413 52.9219L61.6777 52.9009V52.9609V53.3269L59.7759 54.4249V54.0889Z" fill="black"/>
<path d="M43.2853 79.4397V76.6977L43.6283 76.4997V76.7697C43.6664 76.6797 43.7097 76.5967 43.7582 76.5207C43.8102 76.4387 43.8656 76.3667 43.9245 76.3047C43.9868 76.2407 44.0492 76.1907 44.1115 76.1547C44.1808 76.1147 44.2449 76.0957 44.3038 76.0977C44.3627 76.0957 44.4112 76.1137 44.4493 76.1517C44.4909 76.1877 44.5186 76.2417 44.5324 76.3137C44.5636 76.2157 44.6052 76.1217 44.6571 76.0317C44.7126 75.9397 44.7749 75.8577 44.8442 75.7857C44.9169 75.7077 44.9914 75.6467 45.0676 75.6027C45.1473 75.5567 45.2166 75.5347 45.2755 75.5367C45.3344 75.5387 45.3829 75.5607 45.421 75.6027C45.4591 75.6407 45.4868 75.6987 45.5041 75.7767C45.5214 75.8507 45.5284 75.9387 45.5249 76.0407V78.1467L45.1819 78.3447V76.4007C45.1819 76.2327 45.1715 76.1167 45.1508 76.0527C45.1334 75.9867 45.1075 75.9537 45.0728 75.9537C45.0382 75.9497 45.0001 75.9597 44.9585 75.9837C44.8927 76.0217 44.8303 76.0937 44.7714 76.1997C44.716 76.2997 44.6693 76.4127 44.6311 76.5387C44.5965 76.6627 44.5792 76.7767 44.5792 76.8807V78.6927L44.231 78.8937V76.9857C44.231 76.7577 44.212 76.6167 44.1739 76.5627C44.1392 76.5067 44.0717 76.5077 43.9712 76.5657C43.9331 76.5877 43.8933 76.6267 43.8517 76.6827C43.8136 76.7327 43.7772 76.7957 43.7426 76.8717C43.708 76.9437 43.6803 77.0257 43.6595 77.1177C43.6387 77.2097 43.6283 77.3077 43.6283 77.4117V79.2417L43.2853 79.4397ZM46.6784 77.5467C46.4082 77.7027 46.2004 77.7527 46.0549 77.6967C45.9094 77.6367 45.8367 77.4967 45.8367 77.2767C45.8367 77.1287 45.8678 76.9787 45.9302 76.8267C45.9925 76.6707 46.0774 76.5217 46.1848 76.3797C46.2956 76.2317 46.4238 76.0937 46.5693 75.9657C46.7148 75.8377 46.869 75.7267 47.0318 75.6327C47.0907 75.5987 47.1495 75.5667 47.2084 75.5367C47.2708 75.5007 47.3349 75.4677 47.4007 75.4377C47.47 75.4017 47.541 75.3687 47.6137 75.3387L47.6241 75.6627C47.5618 75.6867 47.4977 75.7157 47.4319 75.7497C47.3695 75.7777 47.3072 75.8077 47.2448 75.8397C47.1825 75.8717 47.1218 75.9047 47.0629 75.9387C46.9382 76.0107 46.8239 76.0887 46.72 76.1727C46.6161 76.2567 46.526 76.3447 46.4498 76.4367C46.3736 76.5287 46.3147 76.6247 46.2731 76.7247C46.2316 76.8247 46.2108 76.9287 46.2108 77.0367C46.2108 77.1207 46.2229 77.1857 46.2472 77.2317C46.2749 77.2717 46.3112 77.2967 46.3563 77.3067C46.4013 77.3127 46.4533 77.3067 46.5122 77.2887C46.5745 77.2687 46.6421 77.2377 46.7148 77.1957C46.8499 77.1177 46.9694 77.0247 47.0733 76.9167C47.1807 76.8027 47.2708 76.6767 47.3435 76.5387C47.4197 76.3987 47.4769 76.2477 47.515 76.0857C47.5531 75.9237 47.5722 75.7527 47.5722 75.5727C47.5722 75.3007 47.5445 75.1047 47.489 74.9847C47.4336 74.8647 47.3505 74.8047 47.2396 74.8047C47.1322 74.8027 46.9937 74.8507 46.8239 74.9487C46.7096 75.0147 46.597 75.1057 46.4862 75.2217C46.3753 75.3337 46.2749 75.4677 46.1848 75.6237L46.0029 75.4527C46.1138 75.2607 46.242 75.0907 46.3874 74.9427C46.5329 74.7947 46.6871 74.6737 46.8499 74.5797C47.0058 74.4897 47.1478 74.4297 47.276 74.3997C47.4042 74.3697 47.5133 74.3807 47.6033 74.4327C47.6969 74.4787 47.7679 74.5737 47.8164 74.7177C47.8684 74.8597 47.8943 75.0607 47.8943 75.3207V76.7787L47.489 77.0127V76.5927C47.444 76.7187 47.3886 76.8327 47.3228 76.9347C47.2604 77.0347 47.1929 77.1237 47.1201 77.2017C47.0474 77.2757 46.9729 77.3407 46.8967 77.3967C46.8205 77.4567 46.7477 77.5067 46.6784 77.5467ZM48.4867 76.4367V76.0887L49.1882 75.6837V72.3897L48.5179 72.7767V72.4287L49.5675 71.8227V75.4647L50.2638 75.0627V75.4107L48.4867 76.4367ZM51.9837 74.4777C51.8105 74.5777 51.6529 74.6387 51.5109 74.6607C51.3688 74.6787 51.2459 74.6577 51.1419 74.5977C51.0415 74.5357 50.9635 74.4327 50.9081 74.2887C50.8527 74.1407 50.825 73.9527 50.825 73.7247C50.825 73.4927 50.8527 73.2707 50.9081 73.0587C50.967 72.8447 51.0449 72.6497 51.1419 72.4737C51.2424 72.2917 51.3584 72.1307 51.4901 71.9907C51.6252 71.8487 51.7672 71.7347 51.9162 71.6487C52.0513 71.5707 52.1777 71.5237 52.2955 71.5077C52.4133 71.4917 52.5154 71.5127 52.602 71.5707C52.6886 71.6247 52.7562 71.7197 52.8047 71.8557C52.8567 71.9897 52.8826 72.1687 52.8826 72.3927C52.8826 72.4247 52.8809 72.4597 52.8774 72.4977C52.8774 72.5297 52.8757 72.5627 52.8722 72.5967L51.1835 73.5717C51.1904 73.7437 51.2164 73.8827 51.2614 73.9887C51.3065 74.0907 51.3654 74.1627 51.4381 74.2047C51.5109 74.2427 51.594 74.2547 51.6875 74.2407C51.7845 74.2247 51.8867 74.1857 51.9941 74.1237C52.0772 74.0757 52.1552 74.0207 52.2279 73.9587C52.3007 73.8927 52.3682 73.8197 52.4306 73.7397C52.4964 73.6537 52.5553 73.5617 52.6072 73.4637L52.8151 73.5777C52.7493 73.7077 52.6731 73.8297 52.5865 73.9437C52.5033 74.0557 52.4115 74.1547 52.3111 74.2407C52.2106 74.3307 52.1015 74.4097 51.9837 74.4777ZM51.1991 73.2267L52.5033 72.4737C52.5033 72.3457 52.4877 72.2407 52.4566 72.1587C52.4288 72.0707 52.3873 72.0067 52.3318 71.9667C52.2799 71.9207 52.2158 71.9017 52.1396 71.9097C52.0668 71.9117 51.9837 71.9397 51.8902 71.9937C51.807 72.0417 51.7274 72.1037 51.6511 72.1797C51.5784 72.2537 51.5109 72.3447 51.4485 72.4527C51.3861 72.5567 51.3325 72.6737 51.2874 72.8037C51.2459 72.9317 51.2164 73.0727 51.1991 73.2267Z" fill="black"/>
<path d="M47.7836 92.7712C47.9707 92.4432 48.1422 92.1442 48.298 91.8742C48.4539 91.6042 48.5925 91.3582 48.7137 91.1362C48.8384 90.9082 48.9441 90.7012 49.0307 90.5152C49.1173 90.3252 49.1831 90.1512 49.2281 89.9932C49.2732 89.8312 49.2957 89.6762 49.2957 89.5282C49.2957 89.4002 49.2818 89.3002 49.2541 89.2282C49.2264 89.1562 49.1866 89.1092 49.1346 89.0872C49.0861 89.0592 49.0272 89.0532 48.9579 89.0692C48.8921 89.0832 48.8211 89.1122 48.7449 89.1562C48.6618 89.2042 48.5821 89.2642 48.5059 89.3362C48.4297 89.4082 48.3569 89.4922 48.2876 89.5882C48.2184 89.6802 48.1543 89.7872 48.0954 89.9092C48.0642 89.9832 48.0452 90.0382 48.0382 90.0742C48.0313 90.1062 48.0296 90.1372 48.033 90.1672L48.0122 90.2092L47.9707 90.2032L47.7057 90.1162C47.775 89.9202 47.8616 89.7382 47.9655 89.5702C48.0694 89.4022 48.1872 89.2522 48.3188 89.1202C48.4505 88.9882 48.5908 88.8792 48.7397 88.7932C48.9233 88.6872 49.0844 88.6382 49.223 88.6462C49.3615 88.6502 49.4706 88.7092 49.5503 88.8232C49.63 88.9372 49.6698 89.1042 49.6698 89.3242C49.6698 89.4882 49.6438 89.6632 49.5919 89.8492C49.5399 90.0312 49.4689 90.2222 49.3788 90.4222C49.2888 90.6222 49.1831 90.8312 49.0619 91.0492C48.9406 91.2672 48.8107 91.4962 48.6722 91.7362C48.5371 91.9702 48.3968 92.2152 48.2513 92.4712L49.4568 91.7752C49.5157 91.7412 49.5572 91.7132 49.5815 91.6912C49.6057 91.6692 49.6283 91.6402 49.649 91.6042L49.6854 91.5832V91.6432V92.0092L47.7836 93.1072V92.7712ZM51.1455 91.2322C50.9758 91.3302 50.813 91.3882 50.6571 91.4062C50.5012 91.4242 50.3678 91.3952 50.257 91.3192L50.496 90.8512L50.5324 90.7822L50.5584 90.7972C50.5618 90.8272 50.5688 90.8552 50.5791 90.8812C50.5895 90.9032 50.6138 90.9272 50.6519 90.9532C50.7108 90.9792 50.7783 90.9902 50.8545 90.9862C50.9308 90.9782 51.0226 90.9432 51.1299 90.8812C51.2685 90.8012 51.3828 90.7032 51.4729 90.5872C51.563 90.4712 51.6305 90.3442 51.6755 90.2062C51.7206 90.0642 51.7431 89.9212 51.7431 89.7772C51.7431 89.6332 51.7206 89.5242 51.6755 89.4502C51.634 89.3742 51.5733 89.3312 51.4937 89.3212C51.414 89.3072 51.3187 89.3222 51.2079 89.3662C51.097 89.4062 50.9723 89.4742 50.8338 89.5702V89.2342C51 89.1382 51.1351 89.0402 51.2391 88.9402C51.3464 88.8382 51.4279 88.7372 51.4833 88.6372C51.5422 88.5352 51.582 88.4342 51.6028 88.3342C51.6236 88.2302 51.634 88.1302 51.634 88.0342C51.634 87.9502 51.6218 87.8812 51.5976 87.8272C51.5768 87.7712 51.5456 87.7312 51.5041 87.7072C51.466 87.6812 51.4175 87.6732 51.3586 87.6832C51.3031 87.6872 51.2408 87.7092 51.1715 87.7492C51.1022 87.7892 51.0329 87.8392 50.9637 87.8992C50.8978 87.9532 50.832 88.0192 50.7662 88.0972C50.7039 88.1732 50.6415 88.2632 50.5791 88.3672L50.3609 88.2412C50.4787 88.0332 50.6069 87.8612 50.7454 87.7252C50.8875 87.5832 51.0277 87.4722 51.1663 87.3922C51.343 87.2902 51.4937 87.2432 51.6184 87.2512C51.7431 87.2552 51.8383 87.3082 51.9042 87.4102C51.9734 87.5102 52.0081 87.6522 52.0081 87.8362C52.0081 87.9642 51.989 88.0972 51.9509 88.2352C51.9163 88.3672 51.8609 88.4972 51.7847 88.6252C51.7084 88.7532 51.6132 88.8722 51.4989 88.9822C51.6201 88.9562 51.7275 88.9602 51.821 88.9942C51.9146 89.0242 51.9873 89.0862 52.0393 89.1802C52.0912 89.2742 52.1172 89.4072 52.1172 89.5792C52.1172 89.7752 52.0791 89.9792 52.0029 90.1912C51.9301 90.3972 51.821 90.5922 51.6755 90.7762C51.5335 90.9582 51.3568 91.1102 51.1455 91.2322Z" fill="black"/>
<rect width="86.3356" height="86.3356" rx="8" transform="matrix(0.866025 -0.5 0 1 185.752 103.665)" fill="white" stroke="black" stroke-linejoin="bevel"/>
<rect width="10.7919" height="69.0685" transform="matrix(0.866025 0.5 0 1 176.406 106.901)" fill="#B7B7B7" stroke="black" stroke-linejoin="bevel"/>
<rect width="69.0685" height="10.7919" transform="matrix(0.866025 -0.5 0.866025 0.5 183.881 93.9512)" fill="#E7E7E7" stroke="black" stroke-linejoin="bevel"/>
<path d="M185.752 181.366C185.752 183.576 186.482 185.364 187.942 186.207L178.596 180.811C177.136 179.968 176.406 178.18 176.406 175.97L185.752 181.366Z" fill="#B7B7B7" stroke="black" stroke-linejoin="bevel"/>
<path d="M185.752 112.297C185.752 107.529 189.1 101.731 193.229 99.3471L183.883 93.9512C179.754 96.3353 176.406 102.133 176.406 106.902L185.752 112.297Z" fill="#E7E7E7" stroke="black" stroke-linejoin="bevel"/>
<path d="M258.332 64.2899C256.872 63.447 254.959 63.7089 253.045 64.8136L243.699 59.4177C245.613 58.3129 247.526 58.0511 248.986 58.894L258.332 64.2899Z" fill="#E7E7E7" stroke="black" stroke-linejoin="bevel"/>
<rect width="1.07919" height="64.7517" transform="matrix(0.866025 0.5 -0.866025 0.5 250.828 81.0591)" fill="#BDCBFD" stroke="black" stroke-linejoin="bevel"/>
<rect width="1.07919" height="10.7919" transform="matrix(0.866025 0.5 0 1 194.752 113.435)" fill="#93AAFC" stroke="black" stroke-linejoin="bevel"/>
<rect width="64.7517" height="10.7919" transform="matrix(0.866025 -0.5 0 1 195.688 113.975)" fill="#CBFFD4" stroke="black" stroke-linejoin="bevel"/>
<rect width="1.07919" height="64.7517" transform="matrix(0.866025 0.5 -0.866025 0.5 250.828 97.2471)" fill="#BDCBFD" stroke="black" stroke-linejoin="bevel"/>
<rect width="1.07919" height="10.7919" transform="matrix(0.866025 0.5 0 1 194.752 129.624)" fill="#93AAFC" stroke="black" stroke-linejoin="bevel"/>
<rect width="64.7517" height="10.7919" transform="matrix(0.866025 -0.5 0 1 195.688 130.163)" fill="#CBFFD4" stroke="black" stroke-linejoin="bevel"/>
<rect width="1.07919" height="64.7517" transform="matrix(0.866025 0.5 -0.866025 0.5 250.828 112.356)" fill="#BDCBFD" stroke="black" stroke-linejoin="bevel"/>
<rect width="1.07919" height="10.7919" transform="matrix(0.866025 0.5 0 1 194.752 144.732)" fill="#93AAFC" stroke="black" stroke-linejoin="bevel"/>
<rect width="64.7517" height="10.7919" transform="matrix(0.866025 -0.5 0 1 195.688 145.271)" fill="#CBFFD4" stroke="black" stroke-linejoin="bevel"/>
<rect width="1.07919" height="64.7517" transform="matrix(0.866025 0.5 -0.866025 0.5 250.828 128.543)" fill="#BDCBFD" stroke="black" stroke-linejoin="bevel"/>
<rect width="1.07919" height="10.7919" transform="matrix(0.866025 0.5 0 1 194.752 160.919)" fill="#93AAFC" stroke="black" stroke-linejoin="bevel"/>
<rect width="64.7517" height="10.7919" transform="matrix(0.866025 -0.5 0 1 195.688 161.458)" fill="#CBFFD4" stroke="black" stroke-linejoin="bevel"/>
<path d="M198.996 119.133C198.847 119.219 198.705 119.269 198.57 119.283C198.439 119.295 198.328 119.263 198.238 119.187L198.446 118.743L198.477 118.677L198.508 118.683C198.515 118.711 198.523 118.736 198.534 118.758C198.544 118.784 198.569 118.81 198.607 118.836C198.655 118.852 198.711 118.856 198.773 118.848C198.839 118.838 198.911 118.81 198.991 118.764C199.095 118.704 199.187 118.623 199.267 118.521C199.35 118.421 199.414 118.3 199.459 118.158C199.504 118.02 199.526 117.859 199.526 117.675V115.395L198.643 115.905V115.551L199.906 114.822V117.432C199.906 117.708 199.864 117.956 199.781 118.176C199.698 118.4 199.587 118.592 199.448 118.752C199.313 118.91 199.163 119.037 198.996 119.133ZM199.687 114.372C199.615 114.414 199.552 114.42 199.5 114.39C199.448 114.36 199.422 114.303 199.422 114.219C199.422 114.131 199.447 114.043 199.495 113.955C199.547 113.865 199.611 113.798 199.687 113.754C199.76 113.712 199.823 113.708 199.874 113.742C199.93 113.77 199.958 113.826 199.958 113.91C199.958 113.994 199.93 114.082 199.874 114.174C199.823 114.264 199.76 114.33 199.687 114.372ZM200.862 116.676C201.049 116.348 201.22 116.049 201.376 115.779C201.532 115.509 201.671 115.263 201.792 115.041C201.917 114.813 202.022 114.606 202.109 114.42C202.195 114.23 202.261 114.056 202.306 113.898C202.351 113.736 202.374 113.581 202.374 113.433C202.374 113.305 202.36 113.205 202.332 113.133C202.305 113.061 202.265 113.014 202.213 112.992C202.164 112.964 202.105 112.958 202.036 112.974C201.97 112.988 201.899 113.017 201.823 113.061C201.74 113.109 201.66 113.169 201.584 113.241C201.508 113.313 201.435 113.397 201.366 113.493C201.296 113.585 201.232 113.692 201.174 113.814C201.142 113.888 201.123 113.943 201.116 113.979C201.109 114.011 201.108 114.042 201.111 114.072L201.09 114.114L201.049 114.108L200.784 114.021C200.853 113.825 200.94 113.643 201.044 113.475C201.148 113.307 201.265 113.157 201.397 113.025C201.529 112.893 201.669 112.784 201.818 112.698C202.001 112.592 202.163 112.543 202.301 112.551C202.44 112.555 202.549 112.614 202.628 112.728C202.708 112.842 202.748 113.009 202.748 113.229C202.748 113.393 202.722 113.568 202.67 113.754C202.618 113.936 202.547 114.127 202.457 114.327C202.367 114.527 202.261 114.736 202.14 114.954C202.019 115.172 201.889 115.401 201.75 115.641C201.615 115.875 201.475 116.12 201.329 116.376L202.535 115.68C202.594 115.646 202.635 115.618 202.66 115.596C202.684 115.574 202.706 115.545 202.727 115.509L202.764 115.488V115.548V115.914L200.862 117.012V116.676ZM203.496 115.491V115.143L204.104 114.792V112.746L203.527 113.079V112.731L204.478 112.182V114.576L205.034 114.255V114.603L203.496 115.491ZM204.27 111.726C204.198 111.768 204.135 111.774 204.083 111.744C204.031 111.714 204.005 111.657 204.005 111.573C204.005 111.485 204.03 111.397 204.078 111.309C204.13 111.219 204.194 111.152 204.27 111.108C204.343 111.066 204.406 111.062 204.457 111.096C204.513 111.124 204.541 111.18 204.541 111.264C204.541 111.348 204.513 111.436 204.457 111.528C204.406 111.618 204.343 111.684 204.27 111.726ZM206.718 113.697C206.548 113.795 206.385 113.853 206.229 113.871C206.073 113.889 205.94 113.86 205.829 113.784L206.068 113.316L206.105 113.247L206.131 113.262C206.134 113.292 206.141 113.32 206.151 113.346C206.162 113.368 206.186 113.392 206.224 113.418C206.283 113.444 206.351 113.455 206.427 113.451C206.503 113.443 206.595 113.408 206.702 113.346C206.841 113.266 206.955 113.168 207.045 113.052C207.135 112.936 207.203 112.809 207.248 112.671C207.293 112.529 207.315 112.386 207.315 112.242C207.315 112.098 207.293 111.989 207.248 111.915C207.206 111.839 207.146 111.796 207.066 111.786C206.986 111.772 206.891 111.787 206.78 111.831C206.669 111.871 206.545 111.939 206.406 112.035V111.699C206.572 111.603 206.707 111.505 206.811 111.405C206.919 111.303 207 111.202 207.056 111.102C207.114 111 207.154 110.899 207.175 110.799C207.196 110.695 207.206 110.595 207.206 110.499C207.206 110.415 207.194 110.346 207.17 110.292C207.149 110.236 207.118 110.196 207.076 110.172C207.038 110.146 206.99 110.138 206.931 110.148C206.875 110.152 206.813 110.174 206.744 110.214C206.675 110.254 206.605 110.304 206.536 110.364C206.47 110.418 206.404 110.484 206.338 110.562C206.276 110.638 206.214 110.728 206.151 110.832L205.933 110.706C206.051 110.498 206.179 110.326 206.318 110.19C206.46 110.048 206.6 109.937 206.739 109.857C206.915 109.755 207.066 109.708 207.191 109.716C207.315 109.72 207.411 109.773 207.476 109.875C207.546 109.975 207.58 110.117 207.58 110.301C207.58 110.429 207.561 110.562 207.523 110.7C207.489 110.832 207.433 110.962 207.357 111.09C207.281 111.218 207.185 111.337 207.071 111.447C207.192 111.421 207.3 111.425 207.393 111.459C207.487 111.489 207.56 111.551 207.612 111.645C207.664 111.739 207.689 111.872 207.689 112.044C207.689 112.24 207.651 112.444 207.575 112.656C207.502 112.862 207.393 113.057 207.248 113.241C207.106 113.423 206.929 113.575 206.718 113.697ZM209.264 112.209C209.049 112.333 208.859 112.383 208.692 112.359C208.53 112.329 208.401 112.235 208.308 112.077C208.214 111.915 208.168 111.696 208.168 111.42C208.168 111.14 208.214 110.867 208.308 110.601C208.401 110.331 208.53 110.089 208.692 109.875C208.859 109.655 209.049 109.483 209.264 109.359C209.479 109.235 209.668 109.188 209.83 109.218C209.997 109.242 210.126 109.335 210.22 109.497C210.314 109.655 210.36 109.874 210.36 110.154C210.36 110.43 210.314 110.703 210.22 110.973C210.126 111.239 209.997 111.482 209.83 111.702C209.668 111.916 209.479 112.085 209.264 112.209ZM209.264 111.849C209.402 111.769 209.524 111.653 209.628 111.501C209.732 111.349 209.813 111.176 209.872 110.982C209.934 110.786 209.965 110.584 209.965 110.376C209.965 110.168 209.934 110.002 209.872 109.878C209.813 109.752 209.732 109.675 209.628 109.647C209.524 109.615 209.402 109.639 209.264 109.719C209.129 109.797 209.008 109.913 208.9 110.067C208.796 110.215 208.713 110.387 208.651 110.583C208.592 110.777 208.562 110.978 208.562 111.186C208.562 111.394 208.592 111.561 208.651 111.687C208.713 111.811 208.796 111.889 208.9 111.921C209.008 111.951 209.129 111.927 209.264 111.849ZM210.979 111.171V110.823L211.587 110.472V108.426L211.01 108.759V108.411L211.961 107.862V110.256L212.517 109.935V110.283L210.979 111.171ZM211.753 107.406C211.68 107.448 211.618 107.454 211.566 107.424C211.514 107.394 211.488 107.337 211.488 107.253C211.488 107.165 211.512 107.077 211.561 106.989C211.613 106.899 211.677 106.832 211.753 106.788C211.826 106.746 211.888 106.742 211.94 106.776C211.995 106.804 212.023 106.86 212.023 106.944C212.023 107.028 211.995 107.116 211.94 107.208C211.888 107.298 211.826 107.364 211.753 107.406ZM213.961 110.493C213.812 110.579 213.67 110.629 213.535 110.643C213.404 110.655 213.293 110.623 213.203 110.547L213.41 110.103L213.442 110.037L213.473 110.043C213.48 110.071 213.488 110.096 213.499 110.118C213.509 110.144 213.533 110.17 213.572 110.196C213.62 110.212 213.675 110.216 213.738 110.208C213.804 110.198 213.876 110.17 213.956 110.124C214.06 110.064 214.152 109.983 214.231 109.881C214.315 109.781 214.379 109.66 214.424 109.518C214.469 109.38 214.491 109.219 214.491 109.035V106.755L213.608 107.265V106.911L214.871 106.182V108.792C214.871 109.068 214.829 109.316 214.746 109.536C214.663 109.76 214.552 109.952 214.413 110.112C214.278 110.27 214.128 110.397 213.961 110.493ZM214.652 105.732C214.58 105.774 214.517 105.78 214.465 105.75C214.413 105.72 214.387 105.663 214.387 105.579C214.387 105.491 214.412 105.403 214.46 105.315C214.512 105.225 214.576 105.158 214.652 105.114C214.725 105.072 214.787 105.068 214.839 105.102C214.895 105.13 214.923 105.186 214.923 105.27C214.923 105.354 214.895 105.442 214.839 105.534C214.787 105.624 214.725 105.69 214.652 105.732ZM216.98 107.772C216.81 107.87 216.642 107.929 216.476 107.949C216.313 107.963 216.166 107.93 216.035 107.85C215.906 107.764 215.802 107.622 215.723 107.424C215.647 107.224 215.608 106.956 215.608 106.62C215.608 106.288 215.645 105.981 215.718 105.699C215.79 105.413 215.887 105.157 216.009 104.931C216.13 104.705 216.263 104.512 216.409 104.352C216.558 104.19 216.707 104.066 216.856 103.98C216.984 103.906 217.108 103.862 217.23 103.848C217.351 103.834 217.458 103.856 217.552 103.914C217.649 103.97 217.725 104.068 217.78 104.208C217.836 104.344 217.864 104.524 217.864 104.748V106.146L217.552 106.326V106.098C217.486 106.228 217.41 106.342 217.323 106.44C217.24 106.532 217.148 106.607 217.048 106.665C216.916 106.741 216.798 106.775 216.694 106.767C216.591 106.759 216.507 106.713 216.445 106.629C216.386 106.543 216.357 106.424 216.357 106.272C216.357 106.136 216.381 105.998 216.429 105.858C216.478 105.718 216.551 105.58 216.648 105.444C216.748 105.306 216.871 105.177 217.017 105.057C217.166 104.931 217.339 104.819 217.536 104.721C217.536 104.569 217.508 104.449 217.453 104.361C217.398 104.269 217.318 104.217 217.214 104.205C217.11 104.193 216.985 104.229 216.84 104.313C216.715 104.385 216.597 104.483 216.487 104.607C216.376 104.731 216.277 104.882 216.19 105.06C216.104 105.234 216.035 105.432 215.983 105.654C215.934 105.874 215.91 106.116 215.91 106.38C215.91 106.668 215.941 106.898 216.003 107.07C216.066 107.242 216.149 107.368 216.253 107.448C216.36 107.522 216.478 107.556 216.606 107.55C216.738 107.538 216.873 107.492 217.011 107.412C217.112 107.354 217.207 107.283 217.297 107.199C217.391 107.109 217.481 107.007 217.567 106.893L217.708 107.106C217.597 107.25 217.481 107.377 217.36 107.487C217.238 107.601 217.112 107.696 216.98 107.772ZM217.095 106.308C217.174 106.262 217.242 106.205 217.297 106.137C217.356 106.067 217.405 105.981 217.443 105.879C217.481 105.777 217.508 105.655 217.526 105.513C217.543 105.371 217.552 105.204 217.552 105.012C217.361 105.102 217.2 105.205 217.069 105.321C216.94 105.435 216.843 105.555 216.778 105.681C216.712 105.807 216.679 105.934 216.679 106.062C216.679 106.21 216.713 106.308 216.783 106.356C216.852 106.404 216.956 106.388 217.095 106.308ZM218.321 102.942L218.679 102.735L218.731 102.705V102.747C218.711 102.783 218.697 102.817 218.69 102.849C218.686 102.879 218.685 102.928 218.685 102.996V104.466C218.747 104.318 218.82 104.18 218.903 104.052C218.989 103.918 219.079 103.802 219.173 103.704C219.27 103.6 219.367 103.52 219.464 103.464C219.606 103.382 219.731 103.348 219.838 103.362C219.949 103.374 220.034 103.447 220.093 103.581C220.155 103.713 220.186 103.917 220.186 104.193V105.855L219.823 106.065V104.415C219.823 104.223 219.803 104.082 219.765 103.992C219.727 103.898 219.675 103.846 219.609 103.836C219.544 103.822 219.469 103.839 219.386 103.887C219.324 103.923 219.26 103.972 219.194 104.034C219.128 104.096 219.064 104.169 219.002 104.253C218.943 104.335 218.889 104.426 218.84 104.526C218.792 104.622 218.754 104.722 218.726 104.826C218.698 104.93 218.685 105.036 218.685 105.144V106.722L218.321 106.932V102.942ZM221.735 105.009C221.52 105.133 221.329 105.183 221.163 105.159C221 105.129 220.872 105.035 220.779 104.877C220.685 104.715 220.638 104.496 220.638 104.22C220.638 103.94 220.685 103.667 220.779 103.401C220.872 103.131 221 102.889 221.163 102.675C221.329 102.455 221.52 102.283 221.735 102.159C221.949 102.035 222.138 101.988 222.301 102.018C222.467 102.042 222.597 102.135 222.691 102.297C222.784 102.455 222.831 102.674 222.831 102.954C222.831 103.23 222.784 103.503 222.691 103.773C222.597 104.039 222.467 104.282 222.301 104.502C222.138 104.716 221.949 104.885 221.735 105.009ZM221.735 104.649C221.873 104.569 221.995 104.453 222.098 104.301C222.202 104.149 222.284 103.976 222.343 103.782C222.405 103.586 222.436 103.384 222.436 103.176C222.436 102.968 222.405 102.802 222.343 102.678C222.284 102.552 222.202 102.475 222.098 102.447C221.995 102.415 221.873 102.439 221.735 102.519C221.6 102.597 221.478 102.713 221.371 102.867C221.267 103.015 221.184 103.187 221.122 103.383C221.063 103.577 221.033 103.778 221.033 103.986C221.033 104.194 221.063 104.361 221.122 104.487C221.184 104.611 221.267 104.689 221.371 104.721C221.478 104.751 221.6 104.727 221.735 104.649ZM224.483 103.416C224.331 103.504 224.206 103.546 224.109 103.542C224.012 103.538 223.938 103.489 223.886 103.395C223.834 103.297 223.799 103.157 223.782 102.975C223.768 102.791 223.765 102.565 223.772 102.297L223.834 100.305L224.224 100.026L224.276 99.9899L224.281 100.029C224.263 100.067 224.248 100.104 224.234 100.14C224.224 100.174 224.215 100.227 224.208 100.299L224.161 101.004L224.177 101.103L224.141 102.114C224.13 102.424 224.137 102.656 224.161 102.81C224.186 102.96 224.229 103.049 224.291 103.077C224.354 103.101 224.437 103.083 224.541 103.023C224.655 102.957 224.755 102.873 224.842 102.771C224.932 102.667 225.026 102.547 225.123 102.411L225.237 102.687C225.119 102.855 224.998 102.999 224.873 103.119C224.748 103.239 224.619 103.338 224.483 103.416ZM223.294 101.319L225.003 100.332V100.686L223.294 101.673V101.319ZM225.621 102.717V99.9749L225.964 99.7769V100.047C226.002 99.9569 226.046 99.8739 226.094 99.7979C226.146 99.7159 226.202 99.6439 226.261 99.5819C226.323 99.5179 226.385 99.4679 226.448 99.4319C226.517 99.3919 226.581 99.3729 226.64 99.3749C226.699 99.3729 226.747 99.3909 226.785 99.4289C226.827 99.4649 226.855 99.5189 226.868 99.5909C226.9 99.4929 226.941 99.3989 226.993 99.3089C227.049 99.2169 227.111 99.1349 227.18 99.0629C227.253 98.9849 227.327 98.9239 227.404 98.8799C227.483 98.8339 227.553 98.8119 227.612 98.8139C227.67 98.8159 227.719 98.8379 227.757 98.8799C227.795 98.9179 227.823 98.9759 227.84 99.0539C227.857 99.1279 227.864 99.2159 227.861 99.3179V101.424L227.518 101.622V99.6779C227.518 99.5099 227.508 99.3939 227.487 99.3299C227.47 99.2639 227.444 99.2309 227.409 99.2309C227.374 99.2269 227.336 99.2369 227.295 99.2609C227.229 99.2989 227.166 99.3709 227.108 99.4769C227.052 99.5769 227.005 99.6899 226.967 99.8159C226.933 99.9399 226.915 100.054 226.915 100.158V101.97L226.567 102.171V100.263C226.567 100.035 226.548 99.8939 226.51 99.8399C226.475 99.7839 226.408 99.7849 226.307 99.8429C226.269 99.8649 226.229 99.9039 226.188 99.9599C226.15 100.01 226.113 100.073 226.079 100.149C226.044 100.221 226.016 100.303 225.996 100.395C225.975 100.487 225.964 100.585 225.964 100.689V102.519L225.621 102.717ZM229.015 100.824C228.744 100.98 228.536 101.03 228.391 100.974C228.245 100.914 228.173 100.774 228.173 100.554C228.173 100.406 228.204 100.256 228.266 100.104C228.329 99.9479 228.413 99.7989 228.521 99.6569C228.632 99.5089 228.76 99.3709 228.905 99.2429C229.051 99.1149 229.205 99.0039 229.368 98.9099C229.427 98.8759 229.486 98.8439 229.545 98.8139C229.607 98.7779 229.671 98.7449 229.737 98.7149C229.806 98.6789 229.877 98.6459 229.95 98.6159L229.96 98.9399C229.898 98.9639 229.834 98.9929 229.768 99.0269C229.706 99.0549 229.643 99.0849 229.581 99.1169C229.519 99.1489 229.458 99.1819 229.399 99.2159C229.274 99.2879 229.16 99.3659 229.056 99.4499C228.952 99.5339 228.862 99.6219 228.786 99.7139C228.71 99.8059 228.651 99.9019 228.609 100.002C228.568 100.102 228.547 100.206 228.547 100.314C228.547 100.398 228.559 100.463 228.583 100.509C228.611 100.549 228.647 100.574 228.692 100.584C228.737 100.59 228.789 100.584 228.848 100.566C228.911 100.546 228.978 100.515 229.051 100.473C229.186 100.395 229.305 100.302 229.409 100.194C229.517 100.08 229.607 99.9539 229.68 99.8159C229.756 99.6759 229.813 99.5249 229.851 99.3629C229.889 99.2009 229.908 99.0299 229.908 98.8499C229.908 98.5779 229.881 98.3819 229.825 98.2619C229.77 98.1419 229.687 98.0819 229.576 98.0819C229.468 98.0799 229.33 98.1279 229.16 98.2259C229.046 98.2919 228.933 98.3829 228.822 98.4989C228.711 98.6109 228.611 98.7449 228.521 98.9009L228.339 98.7299C228.45 98.5379 228.578 98.3679 228.724 98.2199C228.869 98.0719 229.023 97.9509 229.186 97.8569C229.342 97.7669 229.484 97.7069 229.612 97.6769C229.74 97.6469 229.849 97.6579 229.939 97.7099C230.033 97.7559 230.104 97.8509 230.152 97.9949C230.204 98.1369 230.23 98.3379 230.23 98.5979V100.056L229.825 100.29V99.8699C229.78 99.9959 229.725 100.11 229.659 100.212C229.596 100.312 229.529 100.401 229.456 100.479C229.383 100.553 229.309 100.618 229.233 100.674C229.157 100.734 229.084 100.784 229.015 100.824ZM230.932 99.6509V99.3029L231.54 98.9519V96.9059L230.963 97.2389V96.8909L231.914 96.3419V98.7359L232.47 98.4149V98.7629L230.932 99.6509ZM231.706 95.8859C231.633 95.9279 231.571 95.9339 231.519 95.9039C231.467 95.8739 231.441 95.8169 231.441 95.7329C231.441 95.6449 231.465 95.5569 231.514 95.4689C231.566 95.3789 231.63 95.3119 231.706 95.2679C231.779 95.2259 231.841 95.2219 231.893 95.2559C231.949 95.2839 231.976 95.3399 231.976 95.4239C231.976 95.5079 231.949 95.5959 231.893 95.6879C231.841 95.7779 231.779 95.8439 231.706 95.8859ZM233.317 98.2739V97.9259L234.018 97.5209V94.2269L233.348 94.6139V94.2659L234.398 93.6599V97.3019L235.094 96.8999V97.2479L233.317 98.2739ZM236.637 96.4229C236.554 96.4709 236.483 96.4779 236.424 96.4439C236.365 96.4099 236.336 96.3469 236.336 96.2549C236.336 96.1629 236.365 96.0659 236.424 95.9639C236.483 95.8619 236.554 95.7869 236.637 95.7389C236.717 95.6929 236.786 95.6869 236.845 95.7209C236.904 95.7549 236.933 95.8179 236.933 95.9099C236.933 96.0019 236.904 96.0989 236.845 96.2009C236.786 96.3029 236.717 96.3769 236.637 96.4229ZM239.376 94.8419C239.202 94.9419 239.043 94.9979 238.898 95.0099C238.752 95.0219 238.626 94.9949 238.518 94.9289C238.414 94.8609 238.333 94.7579 238.274 94.6199C238.215 94.4779 238.186 94.3029 238.186 94.0949C238.186 93.8909 238.215 93.6859 238.274 93.4799C238.333 93.2699 238.414 93.0709 238.518 92.8829C238.626 92.6929 238.752 92.5199 238.898 92.3639C239.043 92.2079 239.201 92.0809 239.37 91.9829C239.564 91.8709 239.738 91.8169 239.89 91.8209C240.046 91.8189 240.172 91.8699 240.269 91.9739L240.036 92.3729L239.999 92.4359L239.973 92.4209C239.973 92.3889 239.966 92.3629 239.952 92.3429C239.942 92.3209 239.916 92.2979 239.874 92.2739C239.798 92.2379 239.717 92.2289 239.63 92.2469C239.544 92.2649 239.443 92.3069 239.329 92.3729C239.228 92.4309 239.133 92.5099 239.043 92.6099C238.953 92.7099 238.872 92.8269 238.799 92.9609C238.73 93.0889 238.674 93.2289 238.633 93.3809C238.591 93.5329 238.57 93.6869 238.57 93.8429C238.57 93.9989 238.591 94.1309 238.633 94.2389C238.674 94.3429 238.731 94.4219 238.804 94.4759C238.877 94.5299 238.963 94.5559 239.064 94.5539C239.168 94.5459 239.279 94.5079 239.396 94.4399C239.476 94.3939 239.552 94.3379 239.625 94.2719C239.698 94.2019 239.767 94.1239 239.833 94.0379C239.899 93.9479 239.959 93.8509 240.015 93.7469L240.233 93.9149C240.115 94.1269 239.984 94.3109 239.838 94.4669C239.696 94.6209 239.542 94.7459 239.376 94.8419ZM241.688 93.4889C241.473 93.6129 241.283 93.6629 241.116 93.6389C240.954 93.6089 240.825 93.5149 240.732 93.3569C240.638 93.1949 240.592 92.9759 240.592 92.6999C240.592 92.4199 240.638 92.1469 240.732 91.8809C240.825 91.6109 240.954 91.3689 241.116 91.1549C241.283 90.9349 241.473 90.7629 241.688 90.6389C241.903 90.5149 242.091 90.4679 242.254 90.4979C242.421 90.5219 242.55 90.6149 242.644 90.7769C242.738 90.9349 242.784 91.1539 242.784 91.4339C242.784 91.7099 242.738 91.9829 242.644 92.2529C242.55 92.5189 242.421 92.7619 242.254 92.9819C242.091 93.1959 241.903 93.3649 241.688 93.4889ZM241.688 93.1289C241.826 93.0489 241.948 92.9329 242.052 92.7809C242.156 92.6289 242.237 92.4559 242.296 92.2619C242.358 92.0659 242.389 91.8639 242.389 91.6559C242.389 91.4479 242.358 91.2819 242.296 91.1579C242.237 91.0319 242.156 90.9549 242.052 90.9269C241.948 90.8949 241.826 90.9189 241.688 90.9989C241.553 91.0769 241.432 91.1929 241.324 91.3469C241.22 91.4949 241.137 91.6669 241.075 91.8629C241.016 92.0569 240.986 92.2579 240.986 92.4659C240.986 92.6739 241.016 92.8409 241.075 92.9669C241.137 93.0909 241.22 93.1689 241.324 93.2009C241.432 93.2309 241.553 93.2069 241.688 93.1289ZM243.08 92.6369V89.8949L243.423 89.6969V89.9669C243.462 89.8769 243.505 89.7939 243.553 89.7179C243.605 89.6359 243.661 89.5639 243.72 89.5019C243.782 89.4379 243.844 89.3879 243.907 89.3519C243.976 89.3119 244.04 89.2929 244.099 89.2949C244.158 89.2929 244.206 89.3109 244.244 89.3489C244.286 89.3849 244.314 89.4389 244.328 89.5109C244.359 89.4129 244.4 89.3189 244.452 89.2289C244.508 89.1369 244.57 89.0549 244.639 88.9829C244.712 88.9049 244.787 88.8439 244.863 88.7999C244.942 88.7539 245.012 88.7319 245.071 88.7339C245.13 88.7359 245.178 88.7579 245.216 88.7999C245.254 88.8379 245.282 88.8959 245.299 88.9739C245.317 89.0479 245.323 89.1359 245.32 89.2379V91.3439L244.977 91.5419V89.5979C244.977 89.4299 244.967 89.3139 244.946 89.2499C244.929 89.1839 244.903 89.1509 244.868 89.1509C244.833 89.1469 244.795 89.1569 244.754 89.1809C244.688 89.2189 244.625 89.2909 244.567 89.3969C244.511 89.4969 244.464 89.6099 244.426 89.7359C244.392 89.8599 244.374 89.9739 244.374 90.0779V91.8899L244.026 92.0909V90.1829C244.026 89.9549 244.007 89.8139 243.969 89.7599C243.934 89.7039 243.867 89.7049 243.766 89.7629C243.728 89.7849 243.688 89.8239 243.647 89.8799C243.609 89.9299 243.572 89.9929 243.538 90.0689C243.503 90.1409 243.475 90.2229 243.455 90.3149C243.434 90.4069 243.423 90.5049 243.423 90.6089V92.4389L243.08 92.6369Z" fill="black"/>
<path d="M208.886 129.142C208.727 129.234 208.583 129.289 208.455 129.307C208.326 129.321 208.212 129.301 208.112 129.247L208.335 128.824L208.371 128.755L208.397 128.77C208.401 128.8 208.41 128.825 208.423 128.845C208.437 128.861 208.465 128.879 208.507 128.899C208.555 128.907 208.607 128.903 208.662 128.887C208.718 128.871 208.782 128.842 208.855 128.8C208.993 128.72 209.111 128.606 209.208 128.458C209.309 128.308 209.39 128.137 209.452 127.945C209.515 127.753 209.56 127.553 209.587 127.345C209.619 127.135 209.634 126.93 209.634 126.73C209.634 126.398 209.612 126.137 209.567 125.947C209.522 125.753 209.452 125.629 209.359 125.575C209.265 125.521 209.146 125.536 209 125.62C208.914 125.67 208.834 125.736 208.761 125.818C208.688 125.896 208.624 125.989 208.569 126.097C208.517 126.199 208.477 126.31 208.449 126.43C208.422 126.55 208.408 126.676 208.408 126.808C208.408 126.928 208.423 127.027 208.455 127.105C208.486 127.179 208.529 127.234 208.585 127.27C208.64 127.302 208.702 127.316 208.772 127.312C208.844 127.306 208.921 127.28 209 127.234C209.121 127.164 209.224 127.089 209.307 127.009C209.393 126.927 209.471 126.83 209.541 126.718C209.61 126.606 209.676 126.474 209.738 126.322L209.764 126.733C209.698 126.855 209.629 126.969 209.556 127.075C209.483 127.181 209.4 127.279 209.307 127.369C209.217 127.457 209.113 127.535 208.995 127.603C208.86 127.681 208.735 127.727 208.621 127.741C208.507 127.751 208.406 127.731 208.32 127.681C208.236 127.629 208.171 127.549 208.122 127.441C208.077 127.327 208.055 127.186 208.055 127.018C208.055 126.842 208.079 126.666 208.127 126.49C208.176 126.314 208.242 126.148 208.325 125.992C208.411 125.83 208.51 125.687 208.621 125.563C208.735 125.437 208.856 125.337 208.985 125.263C209.189 125.145 209.366 125.111 209.515 125.161C209.664 125.211 209.778 125.333 209.858 125.527C209.941 125.715 209.982 125.963 209.982 126.271C209.982 126.775 209.937 127.217 209.847 127.597C209.761 127.975 209.636 128.293 209.473 128.551C209.31 128.805 209.115 129.002 208.886 129.142ZM210.751 127.081L212.139 124.222L212.258 124.435L210.871 127.27L210.751 127.081ZM211.494 127.642C211.28 127.766 211.098 127.797 210.949 127.735C210.8 127.673 210.685 127.523 210.606 127.285C210.53 127.041 210.492 126.715 210.492 126.307C210.492 125.911 210.53 125.549 210.606 125.221C210.685 124.887 210.8 124.601 210.949 124.363C211.098 124.121 211.28 123.938 211.494 123.814C211.709 123.69 211.891 123.663 212.04 123.733C212.189 123.799 212.301 123.954 212.378 124.198C212.457 124.436 212.497 124.753 212.497 125.149C212.497 125.557 212.457 125.928 212.378 126.262C212.301 126.59 212.189 126.871 212.04 127.105C211.891 127.339 211.709 127.518 211.494 127.642ZM211.494 127.276C211.626 127.2 211.739 127.075 211.832 126.901C211.926 126.727 211.997 126.512 212.045 126.256C212.097 125.994 212.123 125.697 212.123 125.365C212.123 125.049 212.097 124.792 212.045 124.594C211.997 124.39 211.926 124.251 211.832 124.177C211.739 124.103 211.626 124.104 211.494 124.18C211.363 124.256 211.25 124.385 211.157 124.567C211.063 124.749 210.99 124.971 210.938 125.233C210.89 125.489 210.866 125.775 210.866 126.091C210.866 126.423 210.89 126.691 210.938 126.895C210.99 127.093 211.063 127.225 211.157 127.291C211.25 127.357 211.363 127.352 211.494 127.276ZM213.874 126.262C213.715 126.354 213.571 126.409 213.443 126.427C213.315 126.441 213.2 126.421 213.1 126.367L213.323 125.944L213.36 125.875L213.386 125.89C213.389 125.92 213.398 125.945 213.412 125.965C213.426 125.981 213.453 125.999 213.495 126.019C213.543 126.027 213.595 126.023 213.651 126.007C213.706 125.991 213.77 125.962 213.843 125.92C213.982 125.84 214.099 125.726 214.196 125.578C214.297 125.428 214.378 125.257 214.441 125.065C214.503 124.873 214.548 124.673 214.576 124.465C214.607 124.255 214.622 124.05 214.622 123.85C214.622 123.518 214.6 123.257 214.555 123.067C214.51 122.873 214.441 122.749 214.347 122.695C214.254 122.641 214.134 122.656 213.989 122.74C213.902 122.79 213.822 122.856 213.749 122.938C213.677 123.016 213.613 123.109 213.557 123.217C213.505 123.319 213.465 123.43 213.438 123.55C213.41 123.67 213.396 123.796 213.396 123.928C213.396 124.048 213.412 124.147 213.443 124.225C213.474 124.299 213.517 124.354 213.573 124.39C213.628 124.422 213.691 124.436 213.76 124.432C213.833 124.426 213.909 124.4 213.989 124.354C214.11 124.284 214.212 124.209 214.295 124.129C214.382 124.047 214.46 123.95 214.529 123.838C214.598 123.726 214.664 123.594 214.726 123.442L214.752 123.853C214.687 123.975 214.617 124.089 214.545 124.195C214.472 124.301 214.389 124.399 214.295 124.489C214.205 124.577 214.101 124.655 213.983 124.723C213.848 124.801 213.724 124.847 213.609 124.861C213.495 124.871 213.394 124.851 213.308 124.801C213.225 124.749 213.159 124.669 213.11 124.561C213.065 124.447 213.043 124.306 213.043 124.138C213.043 123.962 213.067 123.786 213.116 123.61C213.164 123.434 213.23 123.268 213.313 123.112C213.4 122.95 213.498 122.807 213.609 122.683C213.724 122.557 213.845 122.457 213.973 122.383C214.177 122.265 214.354 122.231 214.503 122.281C214.652 122.331 214.766 122.453 214.846 122.647C214.929 122.835 214.971 123.083 214.971 123.391C214.971 123.895 214.926 124.337 214.835 124.717C214.749 125.095 214.624 125.413 214.461 125.671C214.299 125.925 214.103 126.122 213.874 126.262ZM215.76 123.427V123.025L217.215 122.185V122.587L215.76 123.427ZM218.873 123.316V120.094L218.218 120.694L218.135 120.508L218.982 119.509L219.237 119.362V123.106L218.873 123.316ZM220.551 122.011C220.738 121.683 220.91 121.384 221.066 121.114C221.222 120.844 221.36 120.598 221.481 120.376C221.606 120.148 221.712 119.941 221.798 119.755C221.885 119.565 221.951 119.391 221.996 119.233C222.041 119.071 222.063 118.916 222.063 118.768C222.063 118.64 222.049 118.54 222.022 118.468C221.994 118.396 221.954 118.349 221.902 118.327C221.854 118.299 221.795 118.293 221.726 118.309C221.66 118.323 221.589 118.352 221.513 118.396C221.429 118.444 221.35 118.504 221.274 118.576C221.197 118.648 221.125 118.732 221.055 118.828C220.986 118.92 220.922 119.027 220.863 119.149C220.832 119.223 220.813 119.278 220.806 119.314C220.799 119.346 220.797 119.377 220.801 119.407L220.78 119.449L220.738 119.443L220.473 119.356C220.543 119.16 220.629 118.978 220.733 118.81C220.837 118.642 220.955 118.492 221.086 118.36C221.218 118.228 221.358 118.119 221.507 118.033C221.691 117.927 221.852 117.878 221.991 117.886C222.129 117.89 222.238 117.949 222.318 118.063C222.398 118.177 222.437 118.344 222.437 118.564C222.437 118.728 222.411 118.903 222.36 119.089C222.308 119.271 222.237 119.462 222.146 119.662C222.056 119.862 221.951 120.071 221.83 120.289C221.708 120.507 221.578 120.736 221.44 120.976C221.305 121.21 221.164 121.455 221.019 121.711L222.224 121.015C222.283 120.981 222.325 120.953 222.349 120.931C222.373 120.909 222.396 120.88 222.417 120.844L222.453 120.823V120.883V121.249L220.551 122.347V122.011ZM223.96 120.445C223.762 120.559 223.579 120.615 223.409 120.613C223.243 120.609 223.106 120.546 222.999 120.424L223.29 120.004L223.331 119.944L223.352 119.962C223.349 119.996 223.352 120.024 223.362 120.046C223.376 120.066 223.4 120.092 223.435 120.124C223.504 120.172 223.581 120.194 223.664 120.19C223.75 120.18 223.856 120.139 223.981 120.067C224.064 120.019 224.144 119.953 224.22 119.869C224.296 119.781 224.362 119.683 224.417 119.575C224.476 119.465 224.523 119.344 224.557 119.212C224.592 119.08 224.609 118.946 224.609 118.81C224.609 118.67 224.592 118.556 224.557 118.468C224.523 118.376 224.474 118.31 224.412 118.27C224.353 118.228 224.284 118.21 224.204 118.216C224.124 118.222 224.038 118.252 223.944 118.306C223.872 118.348 223.797 118.405 223.721 118.477C223.648 118.547 223.579 118.627 223.513 118.717C223.451 118.805 223.392 118.903 223.336 119.011L223.108 119.035L223.217 117.07L224.859 116.122V116.5L223.523 117.271L223.471 118.375C223.53 118.309 223.588 118.25 223.643 118.198C223.702 118.14 223.761 118.09 223.82 118.048C223.882 118 223.943 117.959 224.002 117.925C224.144 117.843 224.273 117.798 224.391 117.79C224.509 117.778 224.611 117.803 224.698 117.865C224.788 117.921 224.857 118.013 224.906 118.141C224.954 118.265 224.978 118.423 224.978 118.615C224.978 118.871 224.933 119.119 224.843 119.359C224.753 119.595 224.632 119.807 224.48 119.995C224.327 120.183 224.154 120.333 223.96 120.445ZM225.737 117.667V117.265L227.192 116.425V116.827L225.737 117.667ZM228.85 117.556V114.334L228.195 114.934L228.112 114.748L228.959 113.749L229.213 113.602V117.346L228.85 117.556ZM231.442 116.125C231.245 116.239 231.061 116.295 230.892 116.293C230.725 116.289 230.588 116.226 230.481 116.104L230.772 115.684L230.814 115.624L230.834 115.642C230.831 115.676 230.834 115.704 230.845 115.726C230.859 115.746 230.883 115.772 230.918 115.804C230.987 115.852 231.063 115.874 231.146 115.87C231.233 115.86 231.338 115.819 231.463 115.747C231.546 115.699 231.626 115.633 231.702 115.549C231.778 115.461 231.844 115.363 231.9 115.255C231.959 115.145 232.005 115.024 232.04 114.892C232.075 114.76 232.092 114.626 232.092 114.49C232.092 114.35 232.075 114.236 232.04 114.148C232.005 114.056 231.957 113.99 231.894 113.95C231.836 113.908 231.766 113.89 231.687 113.896C231.607 113.902 231.52 113.932 231.427 113.986C231.354 114.028 231.28 114.085 231.203 114.157C231.131 114.227 231.061 114.307 230.996 114.397C230.933 114.485 230.874 114.583 230.819 114.691L230.59 114.715L230.699 112.75L232.341 111.802V112.18L231.006 112.951L230.954 114.055C231.013 113.989 231.07 113.93 231.125 113.878C231.184 113.82 231.243 113.77 231.302 113.728C231.364 113.68 231.425 113.639 231.484 113.605C231.626 113.523 231.756 113.478 231.874 113.47C231.991 113.458 232.094 113.483 232.18 113.545C232.27 113.601 232.34 113.693 232.388 113.821C232.437 113.945 232.461 114.103 232.461 114.295C232.461 114.551 232.416 114.799 232.326 115.039C232.236 115.275 232.114 115.487 231.962 115.675C231.81 115.863 231.636 116.013 231.442 116.125ZM233.89 114.712C233.72 114.81 233.557 114.868 233.401 114.886C233.245 114.904 233.112 114.875 233.001 114.799L233.24 114.331L233.277 114.262L233.303 114.277C233.306 114.307 233.313 114.335 233.323 114.361C233.334 114.383 233.358 114.407 233.396 114.433C233.455 114.459 233.523 114.47 233.599 114.466C233.675 114.458 233.767 114.423 233.874 114.361C234.013 114.281 234.127 114.183 234.217 114.067C234.307 113.951 234.375 113.824 234.42 113.686C234.465 113.544 234.487 113.401 234.487 113.257C234.487 113.113 234.465 113.004 234.42 112.93C234.378 112.854 234.318 112.811 234.238 112.801C234.158 112.787 234.063 112.802 233.952 112.846C233.841 112.886 233.717 112.954 233.578 113.05V112.714C233.744 112.618 233.879 112.52 233.983 112.42C234.091 112.318 234.172 112.217 234.228 112.117C234.286 112.015 234.326 111.914 234.347 111.814C234.368 111.71 234.378 111.61 234.378 111.514C234.378 111.43 234.366 111.361 234.342 111.307C234.321 111.251 234.29 111.211 234.248 111.187C234.21 111.161 234.162 111.153 234.103 111.163C234.047 111.167 233.985 111.189 233.916 111.229C233.846 111.269 233.777 111.319 233.708 111.379C233.642 111.433 233.576 111.499 233.51 111.577C233.448 111.653 233.386 111.743 233.323 111.847L233.105 111.721C233.223 111.513 233.351 111.341 233.49 111.205C233.632 111.063 233.772 110.952 233.911 110.872C234.087 110.77 234.238 110.723 234.363 110.731C234.487 110.735 234.583 110.788 234.648 110.89C234.718 110.99 234.752 111.132 234.752 111.316C234.752 111.444 234.733 111.577 234.695 111.715C234.661 111.847 234.605 111.977 234.529 112.105C234.453 112.233 234.357 112.352 234.243 112.462C234.364 112.436 234.472 112.44 234.565 112.474C234.659 112.504 234.732 112.566 234.784 112.66C234.835 112.754 234.861 112.887 234.861 113.059C234.861 113.255 234.823 113.459 234.747 113.671C234.674 113.877 234.565 114.072 234.42 114.256C234.278 114.438 234.101 114.59 233.89 114.712ZM235.516 113.371C235.703 113.043 235.875 112.744 236.031 112.474C236.186 112.204 236.325 111.958 236.446 111.736C236.571 111.508 236.677 111.301 236.763 111.115C236.85 110.925 236.916 110.751 236.961 110.593C237.006 110.431 237.028 110.276 237.028 110.128C237.028 110 237.014 109.9 236.987 109.828C236.959 109.756 236.919 109.709 236.867 109.687C236.819 109.659 236.76 109.653 236.691 109.669C236.625 109.683 236.554 109.712 236.477 109.756C236.394 109.804 236.315 109.864 236.238 109.936C236.162 110.008 236.089 110.092 236.02 110.188C235.951 110.28 235.887 110.387 235.828 110.509C235.797 110.583 235.778 110.638 235.771 110.674C235.764 110.706 235.762 110.737 235.766 110.767L235.745 110.809L235.703 110.803L235.438 110.716C235.508 110.52 235.594 110.338 235.698 110.17C235.802 110.002 235.92 109.852 236.051 109.72C236.183 109.588 236.323 109.479 236.472 109.393C236.656 109.287 236.817 109.238 236.956 109.246C237.094 109.25 237.203 109.309 237.283 109.423C237.363 109.537 237.402 109.704 237.402 109.924C237.402 110.088 237.376 110.263 237.324 110.449C237.272 110.631 237.201 110.822 237.111 111.022C237.021 111.222 236.916 111.431 236.794 111.649C236.673 111.867 236.543 112.096 236.405 112.336C236.27 112.57 236.129 112.815 235.984 113.071L237.189 112.375C237.248 112.341 237.29 112.313 237.314 112.291C237.338 112.269 237.361 112.24 237.382 112.204L237.418 112.183V112.243V112.609L235.516 113.707V113.371Z" fill="black"/>
<path d="M214.244 141.592C214.151 141.646 214.062 141.681 213.979 141.697C213.896 141.713 213.82 141.709 213.75 141.685C213.685 141.655 213.627 141.604 213.579 141.532C213.53 141.46 213.492 141.362 213.465 141.238C213.44 141.112 213.428 140.961 213.428 140.785L213.433 139.252L213.797 139.042V140.572C213.797 140.744 213.811 140.882 213.839 140.986C213.866 141.09 213.905 141.164 213.953 141.208C214.005 141.25 214.064 141.268 214.13 141.262C214.196 141.256 214.265 141.232 214.338 141.19C214.421 141.142 214.5 141.078 214.577 140.998C214.653 140.914 214.72 140.817 214.779 140.707C214.842 140.595 214.89 140.469 214.925 140.329C214.959 140.189 214.977 140.037 214.977 139.873V138.361L215.34 138.151V140.467C215.34 140.539 215.342 140.61 215.346 140.68C215.353 140.744 215.368 140.805 215.392 140.863L215.034 141.07C215.017 141.032 215.004 140.993 214.997 140.953C214.991 140.909 214.985 140.864 214.982 140.818C214.982 140.77 214.982 140.724 214.982 140.68C214.944 140.778 214.899 140.872 214.847 140.962C214.795 141.052 214.736 141.138 214.67 141.22C214.608 141.296 214.54 141.365 214.467 141.427C214.398 141.491 214.324 141.546 214.244 141.592ZM215.964 140.533V137.791L216.328 137.581V138.067C216.39 137.919 216.463 137.781 216.546 137.653C216.629 137.521 216.721 137.404 216.821 137.302C216.922 137.196 217.026 137.112 217.133 137.05C217.265 136.974 217.383 136.944 217.486 136.96C217.59 136.976 217.674 137.05 217.736 137.182C217.798 137.314 217.829 137.518 217.829 137.794V139.456L217.466 139.666V138.016C217.466 137.824 217.447 137.683 217.409 137.593C217.37 137.499 217.318 137.447 217.253 137.437C217.187 137.423 217.112 137.44 217.029 137.488C216.95 137.534 216.868 137.601 216.785 137.689C216.705 137.775 216.631 137.876 216.562 137.992C216.492 138.104 216.435 138.225 216.39 138.355C216.348 138.483 216.328 138.613 216.328 138.745V140.323L215.964 140.533ZM219.118 137.338L218.806 137.854V138.892L218.427 139.111V135.121L218.801 134.905L218.853 134.875V134.917C218.832 134.953 218.818 134.987 218.811 135.019C218.808 135.049 218.806 135.098 218.806 135.166V137.41L219.996 135.451C220.017 135.443 220.038 135.435 220.059 135.427C220.079 135.419 220.1 135.411 220.121 135.403C220.145 135.389 220.169 135.377 220.194 135.367C220.221 135.351 220.247 135.336 220.272 135.322L220.407 135.244L219.409 136.906L220.573 137.872L220.09 138.175L219.118 137.338ZM220.952 137.653V134.911L221.316 134.701V135.187C221.378 135.039 221.451 134.901 221.534 134.773C221.617 134.641 221.709 134.524 221.81 134.422C221.91 134.316 222.014 134.232 222.121 134.17C222.253 134.094 222.371 134.064 222.475 134.08C222.579 134.096 222.662 134.17 222.724 134.302C222.787 134.434 222.818 134.638 222.818 134.914V136.576L222.454 136.786V135.136C222.454 134.944 222.435 134.803 222.397 134.713C222.359 134.619 222.307 134.567 222.241 134.557C222.175 134.543 222.101 134.56 222.017 134.608C221.938 134.654 221.856 134.721 221.773 134.809C221.694 134.895 221.619 134.996 221.55 135.112C221.481 135.224 221.423 135.345 221.378 135.475C221.337 135.603 221.316 135.733 221.316 135.865V137.443L220.952 137.653ZM224.371 135.727C224.157 135.851 223.966 135.901 223.8 135.877C223.637 135.847 223.509 135.753 223.415 135.595C223.322 135.433 223.275 135.214 223.275 134.938C223.275 134.658 223.322 134.385 223.415 134.119C223.509 133.849 223.637 133.607 223.8 133.393C223.966 133.173 224.157 133.001 224.371 132.877C224.586 132.753 224.775 132.706 224.938 132.736C225.104 132.76 225.234 132.853 225.327 133.015C225.421 133.173 225.468 133.392 225.468 133.672C225.468 133.948 225.421 134.221 225.327 134.491C225.234 134.757 225.104 135 224.938 135.22C224.775 135.434 224.586 135.603 224.371 135.727ZM224.371 135.367C224.51 135.287 224.631 135.171 224.735 135.019C224.839 134.867 224.92 134.694 224.979 134.5C225.042 134.304 225.073 134.102 225.073 133.894C225.073 133.686 225.042 133.52 224.979 133.396C224.92 133.27 224.839 133.193 224.735 133.165C224.631 133.133 224.51 133.157 224.371 133.237C224.236 133.315 224.115 133.431 224.008 133.585C223.904 133.733 223.821 133.905 223.758 134.101C223.699 134.295 223.67 134.496 223.67 134.704C223.67 134.912 223.699 135.079 223.758 135.205C223.821 135.329 223.904 135.407 224.008 135.439C224.115 135.469 224.236 135.445 224.371 135.367ZM226.128 134.671L225.65 132.199L225.977 132.01L226.361 133.99L226.767 131.812L226.995 131.68L227.499 133.327C227.544 132.945 227.581 132.632 227.609 132.388C227.64 132.142 227.662 131.943 227.676 131.791C227.693 131.633 227.704 131.503 227.707 131.401C227.714 131.297 227.718 131.195 227.718 131.095V131.005L228.066 130.804C228.031 131.132 227.993 131.462 227.952 131.794C227.913 132.12 227.87 132.449 227.822 132.781C227.777 133.111 227.726 133.444 227.671 133.78L227.318 133.984L226.881 132.46L226.465 134.476L226.128 134.671ZM228.435 133.333V130.591L228.798 130.381V130.867C228.861 130.719 228.934 130.581 229.017 130.453C229.1 130.321 229.192 130.204 229.292 130.102C229.393 129.996 229.496 129.912 229.604 129.85C229.736 129.774 229.853 129.744 229.957 129.76C230.061 129.776 230.144 129.85 230.207 129.982C230.269 130.114 230.3 130.318 230.3 130.594V132.256L229.936 132.466V130.816C229.936 130.624 229.917 130.483 229.879 130.393C229.841 130.299 229.789 130.247 229.723 130.237C229.658 130.223 229.583 130.24 229.5 130.288C229.42 130.334 229.339 130.401 229.256 130.489C229.176 130.575 229.102 130.676 229.032 130.792C228.963 130.904 228.906 131.025 228.861 131.155C228.819 131.283 228.798 131.413 228.798 131.545V133.123L228.435 133.333Z" fill="black"/>
<path d="M223.188 152.414C223.375 152.086 223.546 151.787 223.702 151.517C223.858 151.247 223.997 151.001 224.118 150.779C224.243 150.551 224.348 150.344 224.435 150.158C224.522 149.968 224.587 149.794 224.632 149.636C224.677 149.474 224.7 149.319 224.7 149.171C224.7 149.043 224.686 148.943 224.658 148.871C224.631 148.799 224.591 148.752 224.539 148.73C224.49 148.702 224.432 148.696 224.362 148.712C224.296 148.726 224.225 148.755 224.149 148.799C224.066 148.847 223.986 148.907 223.91 148.979C223.834 149.051 223.761 149.135 223.692 149.231C223.623 149.323 223.559 149.43 223.5 149.552C223.469 149.626 223.449 149.681 223.443 149.717C223.436 149.749 223.434 149.78 223.437 149.81L223.417 149.852L223.375 149.846L223.11 149.759C223.179 149.563 223.266 149.381 223.37 149.213C223.474 149.045 223.591 148.895 223.723 148.763C223.855 148.631 223.995 148.522 224.144 148.436C224.328 148.33 224.489 148.281 224.627 148.289C224.766 148.293 224.875 148.352 224.955 148.466C225.034 148.58 225.074 148.747 225.074 148.967C225.074 149.131 225.048 149.306 224.996 149.492C224.944 149.674 224.873 149.865 224.783 150.065C224.693 150.265 224.587 150.474 224.466 150.692C224.345 150.91 224.215 151.139 224.076 151.379C223.941 151.613 223.801 151.858 223.656 152.114L224.861 151.418C224.92 151.384 224.962 151.356 224.986 151.334C225.01 151.312 225.033 151.283 225.053 151.247L225.09 151.226V151.286V151.652L223.188 152.75V152.414ZM226.108 151.064C226.209 150.622 226.311 150.187 226.415 149.759C226.522 149.325 226.631 148.892 226.742 148.46C226.856 148.026 226.974 147.59 227.095 147.152L225.713 147.95V147.554L227.547 146.495V146.729C227.45 147.073 227.355 147.416 227.262 147.758C227.168 148.1 227.078 148.442 226.991 148.784C226.905 149.126 226.822 149.468 226.742 149.81C226.666 150.146 226.591 150.485 226.519 150.827L226.108 151.064Z" fill="black"/>
</svg>
