<svg width="243" height="185" viewBox="0 0 243 185" fill="none" xmlns="http://www.w3.org/2000/svg">
<path d="M6.42253 62.9687C5.85904 63.294 5.35097 63.4807 4.89833 63.5287C4.45492 63.5713 4.06232 63.4833 3.72053 63.2647L4.21936 61.9687L4.27479 61.7927L4.37178 61.8007C4.39026 61.8647 4.41335 61.9367 4.44107 62.0167C4.46878 62.086 4.53344 62.1553 4.63506 62.2247C4.87523 62.3207 5.15236 62.3473 5.46644 62.3047C5.78976 62.2567 6.15464 62.1153 6.5611 61.8807C6.81975 61.7313 7.05531 61.5527 7.26777 61.3447C7.48948 61.1207 7.67885 60.8887 7.83589 60.6487C8.00216 60.3927 8.12687 60.1393 8.21001 59.8887C8.30238 59.622 8.34857 59.3713 8.34857 59.1367C8.34857 58.9553 8.3301 58.8007 8.29315 58.6727C8.26543 58.5393 8.20539 58.4407 8.11301 58.3767C8.02988 58.2967 7.91441 58.2407 7.7666 58.2087C7.6188 58.166 7.42943 58.142 7.19849 58.1367C6.96755 58.1313 6.69042 58.142 6.36711 58.1687C5.76666 58.2487 5.29093 58.2353 4.9399 58.1287C4.59811 58.006 4.35331 57.8113 4.20551 57.5447C4.06694 57.2727 3.99766 56.95 3.99766 56.5767C3.99766 56.086 4.10389 55.598 4.31636 55.1127C4.52882 54.6167 4.82905 54.1553 5.21703 53.7287C5.61424 53.286 6.08536 52.9073 6.63038 52.5927C6.94446 52.4113 7.24468 52.2913 7.53105 52.2327C7.82665 52.158 8.09916 52.1393 8.34857 52.1767C8.60723 52.2087 8.83355 52.302 9.02754 52.4567L8.48714 53.6007L8.404 53.7767L8.32086 53.7607C8.31162 53.6807 8.29315 53.606 8.26543 53.5367C8.23772 53.4673 8.17306 53.398 8.07145 53.3287C7.84974 53.2113 7.61418 53.182 7.36477 53.2407C7.11535 53.2887 6.81975 53.4113 6.47796 53.6087C6.24702 53.742 6.03917 53.8993 5.85442 54.0807C5.67891 54.2567 5.52648 54.4513 5.39716 54.6647C5.26783 54.878 5.16622 55.0967 5.09232 55.3207C5.02765 55.5287 4.99532 55.7287 4.99532 55.9207C4.99532 56.102 5.0138 56.2567 5.05075 56.3847C5.0877 56.5127 5.15236 56.6193 5.24474 56.7047C5.33711 56.79 5.46182 56.8567 5.61886 56.9047C5.78514 56.9473 5.98837 56.9687 6.22854 56.9687C6.47796 56.9633 6.77818 56.9393 7.12921 56.8967C7.55414 56.854 7.90517 56.854 8.1823 56.8967C8.46866 56.9233 8.69036 57.0033 8.8474 57.1367C9.01368 57.254 9.12915 57.422 9.19381 57.6407C9.26771 57.854 9.30467 58.1153 9.30467 58.4247C9.30467 58.8833 9.20305 59.3953 8.99982 59.9607C8.80583 60.51 8.49637 61.0513 8.07145 61.5847C7.64652 62.118 7.09688 62.5793 6.42253 62.9687ZM13.7941 58.6647C13.3877 58.8993 13.0551 59.0113 12.7965 59.0007C12.5378 58.99 12.3392 58.8593 12.2007 58.6087C12.0621 58.3473 11.9697 57.974 11.9235 57.4887C11.8866 56.998 11.8773 56.3953 11.8958 55.6807L12.0621 50.3687L13.1013 49.6247L13.2399 49.5287L13.2537 49.6327C13.2076 49.734 13.166 49.8327 13.129 49.9287C13.1013 50.0193 13.0782 50.1607 13.0598 50.3527L12.935 52.2327L12.9766 52.4967L12.8796 55.1927C12.8519 56.0193 12.8704 56.638 12.935 57.0487C12.9997 57.4487 13.1152 57.686 13.2815 57.7607C13.4477 57.8247 13.6694 57.7767 13.9466 57.6167C14.2514 57.4407 14.5193 57.2167 14.7502 56.9447C14.9904 56.6673 15.2398 56.3473 15.4985 55.9847L15.8033 56.7207C15.4892 57.1687 15.1659 57.5527 14.8334 57.8727C14.5008 58.1927 14.1544 58.4567 13.7941 58.6647ZM10.621 53.0727L15.1798 50.4407V51.3847L10.621 54.0167V53.0727ZM19.2259 55.5927C18.5053 56.0087 17.9511 56.142 17.5631 55.9927C17.1751 55.8327 16.9811 55.4593 16.9811 54.8727C16.9811 54.478 17.0643 54.078 17.2305 53.6727C17.3968 53.2567 17.6231 52.8593 17.9095 52.4807C18.2051 52.086 18.5469 51.718 18.9349 51.3767C19.3228 51.0353 19.7339 50.7393 20.1681 50.4887C20.3251 50.398 20.4822 50.3127 20.6392 50.2327C20.8055 50.1367 20.9764 50.0487 21.1519 49.9687C21.3366 49.8727 21.526 49.7847 21.72 49.7047L21.7477 50.5687C21.5814 50.6327 21.4105 50.71 21.235 50.8007C21.0688 50.8753 20.9025 50.9553 20.7362 51.0407C20.5699 51.126 20.4083 51.214 20.2512 51.3047C19.9187 51.4967 19.6138 51.7047 19.3367 51.9287C19.0596 52.1527 18.8194 52.3873 18.6162 52.6327C18.4129 52.878 18.2559 53.134 18.1451 53.4007C18.0342 53.6673 17.9788 53.9447 17.9788 54.2327C17.9788 54.4567 18.0111 54.63 18.0758 54.7527C18.1497 54.8593 18.2467 54.926 18.3668 54.9527C18.4868 54.9687 18.6254 54.9527 18.7824 54.9047C18.9487 54.8513 19.1289 54.7687 19.3228 54.6567C19.6831 54.4487 20.0018 54.2007 20.2789 53.9127C20.5653 53.6087 20.8055 53.2727 20.9995 52.9047C21.2027 52.5313 21.3551 52.1287 21.4567 51.6967C21.5583 51.2647 21.6092 50.8087 21.6092 50.3287C21.6092 49.6033 21.5353 49.0807 21.3875 48.7607C21.2396 48.4407 21.0179 48.2807 20.7223 48.2807C20.436 48.2753 20.0665 48.4033 19.6138 48.6647C19.309 48.8407 19.0088 49.0833 18.7132 49.3927C18.4176 49.6913 18.1497 50.0487 17.9095 50.4647L17.4245 50.0087C17.7201 49.4967 18.0619 49.0433 18.4499 48.6487C18.8379 48.254 19.2489 47.9313 19.6831 47.6807C20.0988 47.4407 20.4775 47.2807 20.8193 47.2007C21.1611 47.1207 21.4521 47.15 21.6923 47.2887C21.9417 47.4113 22.1311 47.6647 22.2604 48.0487C22.399 48.4273 22.4683 48.9633 22.4683 49.6567V53.5447L21.3875 54.1687V53.0487C21.2674 53.3847 21.1196 53.6887 20.944 53.9607C20.7778 54.2273 20.5976 54.4647 20.4036 54.6727C20.2097 54.87 20.011 55.0433 19.8078 55.1927C19.6046 55.3527 19.4106 55.486 19.2259 55.5927ZM26.3758 54.0407C25.9324 54.2967 25.5305 54.486 25.1703 54.6087C24.8192 54.7367 24.5144 54.7953 24.2557 54.7847C24.0063 54.7793 23.8123 54.6993 23.6738 54.5447C23.5444 54.3847 23.4798 54.1447 23.4798 53.8247C23.4798 53.526 23.5352 53.2273 23.646 52.9287C23.7569 52.63 23.9001 52.3553 24.0756 52.1047C24.2603 51.838 24.459 51.606 24.6714 51.4087L25.0871 51.4567C24.9208 51.67 24.7869 51.8647 24.6853 52.0407C24.5837 52.2167 24.5098 52.3927 24.4636 52.5687C24.4174 52.7553 24.3943 52.9553 24.3943 53.1687C24.3943 53.35 24.4405 53.4833 24.5329 53.5687C24.6252 53.6647 24.7546 53.7127 24.9208 53.7127C25.0964 53.7073 25.3042 53.662 25.5444 53.5767C25.7938 53.486 26.0755 53.35 26.3896 53.1687C26.8145 52.9233 27.1563 52.6727 27.415 52.4167C27.6829 52.166 27.8815 51.9127 28.0108 51.6567C28.1401 51.4113 28.2048 51.1767 28.2048 50.9527C28.2048 50.718 28.1679 50.5473 28.094 50.4407C28.0201 50.334 27.8676 50.31 27.6367 50.3687C27.4058 50.4273 27.0547 50.5927 26.5836 50.8647C26.2603 51.0513 25.9647 51.206 25.6968 51.3287C25.4289 51.4513 25.1887 51.5367 24.9763 51.5847C24.7638 51.6327 24.5837 51.646 24.4359 51.6247C24.2973 51.5873 24.1911 51.51 24.1172 51.3927C24.0433 51.2753 24.0063 51.11 24.0063 50.8967C24.0063 50.6193 24.071 50.3153 24.2003 49.9847C24.3389 49.6487 24.5236 49.2967 24.7546 48.9287L25.2257 49.0887C25.1333 49.2593 25.0594 49.4087 25.004 49.5367C24.9485 49.654 24.907 49.7633 24.8793 49.8647C24.8608 49.95 24.8516 50.0407 24.8516 50.1367C24.8516 50.3073 24.907 50.414 25.0178 50.4567C25.1379 50.494 25.3411 50.4567 25.6275 50.3447C25.9139 50.222 26.3019 50.0193 26.7915 49.7367C27.281 49.454 27.6783 49.2727 27.9831 49.1927C28.2879 49.102 28.5189 49.0967 28.6759 49.1767C28.8422 49.2513 28.9577 49.382 29.0223 49.5687C29.087 49.7553 29.1193 49.982 29.1193 50.2487C29.1193 50.5367 29.0685 50.838 28.9669 51.1527C28.8745 51.4727 28.7221 51.7953 28.5096 52.1207C28.2972 52.4567 28.0154 52.7847 27.6644 53.1047C27.3134 53.4353 26.8838 53.7473 26.3758 54.0407ZM26.0848 48.9767C25.6321 49.238 25.2395 49.3527 24.907 49.3207C24.5744 49.278 24.3158 49.118 24.131 48.8407C23.9555 48.5473 23.8677 48.166 23.8677 47.6967C23.8677 47.2273 23.9555 46.75 24.131 46.2647C24.3158 45.774 24.5744 45.3207 24.907 44.9047C25.2395 44.478 25.6321 44.134 26.0848 43.8727C26.5467 43.606 26.9393 43.4967 27.2626 43.5447C27.5951 43.5767 27.8492 43.734 28.0247 44.0167C28.2094 44.294 28.3018 44.6673 28.3018 45.1367C28.3018 45.606 28.2094 46.0913 28.0247 46.5927C27.8492 47.078 27.5951 47.534 27.2626 47.9607C26.9393 48.3713 26.5467 48.71 26.0848 48.9767ZM26.0848 48.0167C26.3527 47.862 26.5882 47.6567 26.7915 47.4007C27.0039 47.1287 27.1702 46.8353 27.2903 46.5207C27.4104 46.206 27.4704 45.9047 27.4704 45.6167C27.4704 45.318 27.4104 45.086 27.2903 44.9207C27.1702 44.7447 27.0039 44.6487 26.7915 44.6327C26.5882 44.6007 26.3527 44.662 26.0848 44.8167C25.8169 44.9713 25.5767 45.1847 25.3642 45.4567C25.161 45.7127 24.9994 45.998 24.8793 46.3127C24.7592 46.6167 24.6991 46.918 24.6991 47.2167C24.6991 47.5047 24.7592 47.7367 24.8793 47.9127C24.9994 48.0887 25.161 48.1927 25.3642 48.2247C25.5767 48.2407 25.8169 48.1713 26.0848 48.0167ZM27.9277 44.2647L27.5397 43.9607C27.8076 43.4967 28.0847 43.1127 28.3711 42.8087C28.6667 42.4887 29.0131 42.23 29.4103 42.0327L29.535 42.9047C29.2302 43.0487 28.9438 43.2247 28.6759 43.4327C28.408 43.6407 28.1586 43.918 27.9277 44.2647ZM33.3732 47.4087C32.9114 47.6753 32.4911 47.838 32.1123 47.8967C31.7336 47.9447 31.4056 47.8887 31.1285 47.7287C30.8606 47.5633 30.6528 47.2887 30.505 46.9047C30.3572 46.51 30.2833 46.0087 30.2833 45.4007C30.2833 44.782 30.3572 44.19 30.505 43.6247C30.662 43.054 30.8699 42.534 31.1285 42.0647C31.3964 41.5793 31.7059 41.15 32.0569 40.7767C32.4171 40.398 32.7959 40.094 33.1931 39.8647C33.5534 39.6567 33.8905 39.5313 34.2046 39.4887C34.5187 39.446 34.7912 39.502 35.0222 39.6567C35.2531 39.8007 35.4332 40.054 35.5626 40.4167C35.7011 40.774 35.7704 41.2513 35.7704 41.8487C35.7704 41.934 35.7658 42.0273 35.7565 42.1287C35.7565 42.214 35.7519 42.302 35.7427 42.3927L31.2394 44.9927C31.2578 45.4513 31.3271 45.822 31.4472 46.1047C31.5673 46.3767 31.7243 46.5687 31.9183 46.6807C32.1123 46.782 32.334 46.814 32.5834 46.7767C32.8421 46.734 33.1146 46.63 33.401 46.4647C33.6227 46.3367 33.8305 46.19 34.0245 46.0247C34.2185 45.8487 34.3986 45.654 34.5649 45.4407C34.7404 45.2113 34.8974 44.966 35.036 44.7047L35.5903 45.0087C35.4148 45.3553 35.2115 45.6807 34.9806 45.9847C34.7589 46.2833 34.5141 46.5473 34.2462 46.7767C33.9783 47.0167 33.6873 47.2273 33.3732 47.4087ZM31.2809 44.0727L34.7589 42.0647C34.7589 41.7233 34.7173 41.4433 34.6342 41.2247C34.5603 40.99 34.4494 40.8193 34.3016 40.7127C34.1631 40.59 33.9922 40.5393 33.7889 40.5607C33.5949 40.566 33.3732 40.6407 33.1238 40.7847C32.9021 40.9127 32.6897 41.078 32.4864 41.2807C32.2924 41.478 32.1123 41.7207 31.946 42.0087C31.7798 42.286 31.6366 42.598 31.5165 42.9447C31.4056 43.286 31.3271 43.662 31.2809 44.0727Z" fill="black"/>
<path d="M207.748 47.448V37.464L209.757 38.624C210.256 38.912 210.677 39.208 211.018 39.512C211.36 39.816 211.651 40.1387 211.891 40.48C212.131 40.8107 212.344 41.1787 212.529 41.584C212.723 41.9947 212.88 42.4213 213 42.864C213.129 43.312 213.222 43.776 213.277 44.256C213.342 44.7307 213.374 45.2293 213.374 45.752C213.346 46.504 213.258 47.1413 213.111 47.664C212.963 48.1867 212.741 48.576 212.446 48.832C212.15 49.088 211.767 49.1973 211.295 49.16C210.834 49.1173 210.265 48.9013 209.591 48.512L207.748 47.448ZM208.663 47.096L209.55 47.608C210.215 47.992 210.755 48.1493 211.171 48.08C211.596 48.016 211.91 47.744 212.113 47.264C212.316 46.784 212.413 46.1147 212.404 45.256C212.404 44.3813 212.312 43.5813 212.127 42.856C211.942 42.1307 211.651 41.488 211.254 40.928C210.866 40.3733 210.349 39.9093 209.702 39.536L208.663 38.936V47.096ZM217.42 53.176C216.958 52.9093 216.538 52.5867 216.159 52.208C215.78 51.8187 215.452 51.384 215.175 50.904C214.907 50.4293 214.7 49.9147 214.552 49.36C214.404 48.7947 214.33 48.208 214.33 47.6C214.33 46.9813 214.404 46.4747 214.552 46.08C214.709 45.6907 214.917 45.4107 215.175 45.24C215.443 45.064 215.753 44.992 216.104 45.024C216.464 45.0613 216.843 45.1947 217.24 45.424C217.6 45.632 217.937 45.896 218.251 46.216C218.565 46.536 218.838 46.9067 219.069 47.328C219.3 47.7387 219.48 48.2 219.609 48.712C219.748 49.2293 219.817 49.7867 219.817 50.384C219.817 50.4693 219.813 50.5573 219.803 50.648C219.803 50.7333 219.799 50.816 219.789 50.896L215.286 48.296C215.305 48.776 215.374 49.2267 215.494 49.648C215.614 50.0587 215.771 50.432 215.965 50.768C216.159 51.0933 216.381 51.3813 216.63 51.632C216.889 51.888 217.161 52.0987 217.448 52.264C217.669 52.392 217.877 52.4853 218.071 52.544C218.265 52.592 218.445 52.6053 218.612 52.584C218.787 52.5573 218.944 52.4933 219.083 52.392L219.637 53.336C219.462 53.48 219.258 53.5707 219.027 53.608C218.806 53.6507 218.561 53.632 218.293 53.552C218.025 53.4827 217.734 53.3573 217.42 53.176ZM215.328 47.424L218.806 49.432C218.806 49.0907 218.764 48.7627 218.681 48.448C218.607 48.128 218.496 47.8293 218.348 47.552C218.21 47.2693 218.039 47.0213 217.836 46.808C217.642 46.5893 217.42 46.408 217.171 46.264C216.949 46.136 216.736 46.056 216.533 46.024C216.339 45.9973 216.159 46.032 215.993 46.128C215.827 46.2133 215.683 46.36 215.563 46.568C215.452 46.7813 215.374 47.0667 215.328 47.424ZM223.364 56.448L220.856 47.688L221.854 48.264L223.905 55.448L223.711 55.336L224.833 53.008C225.055 52.5493 225.23 52.1067 225.36 51.68C225.498 51.2587 225.6 50.8533 225.665 50.464L226.607 51.008C226.533 51.4133 226.417 51.8373 226.26 52.28C226.103 52.7227 225.909 53.1867 225.678 53.672L224.14 56.896L223.364 56.448Z" fill="black"/>
<path d="M207.748 47.448V37.464L209.757 38.624C210.256 38.912 210.677 39.208 211.018 39.512C211.36 39.816 211.651 40.1387 211.891 40.48C212.131 40.8107 212.344 41.1787 212.529 41.584C212.723 41.9947 212.88 42.4213 213 42.864C213.129 43.312 213.222 43.776 213.277 44.256C213.342 44.7307 213.374 45.2293 213.374 45.752C213.346 46.504 213.258 47.1413 213.111 47.664C212.963 48.1867 212.741 48.576 212.446 48.832C212.15 49.088 211.767 49.1973 211.295 49.16C210.834 49.1173 210.265 48.9013 209.591 48.512L207.748 47.448ZM208.663 47.096L209.55 47.608C210.215 47.992 210.755 48.1493 211.171 48.08C211.596 48.016 211.91 47.744 212.113 47.264C212.316 46.784 212.413 46.1147 212.404 45.256C212.404 44.3813 212.312 43.5813 212.127 42.856C211.942 42.1307 211.651 41.488 211.254 40.928C210.866 40.3733 210.349 39.9093 209.702 39.536L208.663 38.936V47.096ZM217.42 53.176C216.958 52.9093 216.538 52.5867 216.159 52.208C215.78 51.8187 215.452 51.384 215.175 50.904C214.907 50.4293 214.7 49.9147 214.552 49.36C214.404 48.7947 214.33 48.208 214.33 47.6C214.33 46.9813 214.404 46.4747 214.552 46.08C214.709 45.6907 214.917 45.4107 215.175 45.24C215.443 45.064 215.753 44.992 216.104 45.024C216.464 45.0613 216.843 45.1947 217.24 45.424C217.6 45.632 217.937 45.896 218.251 46.216C218.565 46.536 218.838 46.9067 219.069 47.328C219.3 47.7387 219.48 48.2 219.609 48.712C219.748 49.2293 219.817 49.7867 219.817 50.384C219.817 50.4693 219.813 50.5573 219.803 50.648C219.803 50.7333 219.799 50.816 219.789 50.896L215.286 48.296C215.305 48.776 215.374 49.2267 215.494 49.648C215.614 50.0587 215.771 50.432 215.965 50.768C216.159 51.0933 216.381 51.3813 216.63 51.632C216.889 51.888 217.161 52.0987 217.448 52.264C217.669 52.392 217.877 52.4853 218.071 52.544C218.265 52.592 218.445 52.6053 218.612 52.584C218.787 52.5573 218.944 52.4933 219.083 52.392L219.637 53.336C219.462 53.48 219.258 53.5707 219.027 53.608C218.806 53.6507 218.561 53.632 218.293 53.552C218.025 53.4827 217.734 53.3573 217.42 53.176ZM215.328 47.424L218.806 49.432C218.806 49.0907 218.764 48.7627 218.681 48.448C218.607 48.128 218.496 47.8293 218.348 47.552C218.21 47.2693 218.039 47.0213 217.836 46.808C217.642 46.5893 217.42 46.408 217.171 46.264C216.949 46.136 216.736 46.056 216.533 46.024C216.339 45.9973 216.159 46.032 215.993 46.128C215.827 46.2133 215.683 46.36 215.563 46.568C215.452 46.7813 215.374 47.0667 215.328 47.424ZM223.364 56.448L220.856 47.688L221.854 48.264L223.905 55.448L223.711 55.336L224.833 53.008C225.055 52.5493 225.23 52.1067 225.36 51.68C225.498 51.2587 225.6 50.8533 225.665 50.464L226.607 51.008C226.533 51.4133 226.417 51.8373 226.26 52.28C226.103 52.7227 225.909 53.1867 225.678 53.672L224.14 56.896L223.364 56.448Z" fill="black"/>
<path d="M87.5564 29.8552C87.1038 30.1378 86.7204 30.3325 86.4063 30.4392C86.1015 30.5512 85.8521 30.5725 85.6581 30.5032C85.4733 30.4285 85.3394 30.2712 85.2563 30.0312C85.1731 29.7912 85.1315 29.4632 85.1315 29.0472C84.6697 29.2392 84.2309 29.2632 83.8152 29.1192C83.3995 28.9752 83.0577 28.6178 82.7898 28.0472C82.5312 27.4712 82.4018 26.6498 82.4018 25.5832C82.4018 24.5912 82.4988 23.7085 82.6928 22.9352C82.8868 22.1512 83.1408 21.4765 83.4549 20.9112C83.769 20.3352 84.1016 19.8658 84.4526 19.5032C84.8129 19.1245 85.1546 18.8418 85.478 18.6552C85.8659 18.4312 86.2447 18.3138 86.6142 18.3032C86.9929 18.2765 87.3255 18.3885 87.6118 18.6392C87.9074 18.8738 88.1384 19.2685 88.3047 19.8232C88.4709 20.3672 88.5448 21.0925 88.5264 21.9992C88.5264 22.7352 88.4709 23.4285 88.3601 24.0792C88.2585 24.7138 88.0968 25.3085 87.8751 25.8632C87.6627 26.4125 87.3948 26.9138 87.0714 27.3672C86.7574 27.8152 86.3925 28.2125 85.9768 28.5592C85.9953 28.7832 86.0322 28.9698 86.0876 29.1192C86.1523 29.2632 86.2539 29.3432 86.3925 29.3592C86.5403 29.3805 86.7435 29.3165 87.0022 29.1672L88.1245 28.4392L88.0968 29.5432L87.5564 29.8552ZM85.5472 27.8152C85.7874 27.6765 86.0276 27.4738 86.2678 27.2072C86.508 26.9298 86.725 26.5858 86.919 26.1752C87.1223 25.7485 87.2839 25.2605 87.404 24.7112C87.5333 24.1458 87.598 23.5112 87.598 22.8072C87.598 21.9112 87.5287 21.2205 87.3901 20.7352C87.2608 20.2338 87.0853 19.8872 86.8636 19.6952C86.6511 19.4978 86.4202 19.4072 86.1708 19.4232C85.9306 19.4338 85.6997 19.5032 85.478 19.6312C85.1177 19.8392 84.8036 20.1325 84.5357 20.5112C84.2678 20.8792 84.0461 21.3005 83.8706 21.7752C83.6951 22.2392 83.5612 22.7325 83.4688 23.2552C83.3856 23.7725 83.3441 24.2872 83.3441 24.7992C83.3441 25.6418 83.4318 26.3378 83.6073 26.8872C83.7829 27.4258 84.0323 27.7832 84.3556 27.9592C84.6881 28.1298 85.0854 28.0818 85.5472 27.8152ZM93.5978 21.1352L90.4663 22.9432L90.6603 21.9672L93.3761 20.3992L93.5978 21.1352ZM92.1013 17.3272L89.8289 26.2232L88.8728 26.7752L92.0598 14.7912L92.1706 14.7272L95.3576 23.0312L94.3599 23.6072L92.1013 17.3272Z" fill="black"/>
<g filter="url(#filter0_d_3086_1847)">
<line y1="-0.5" x2="60" y2="-0.5" transform="matrix(0.866025 -0.5 0 1 48 150)" stroke="black" strokeDasharray="3 3"/>
</g>
<g filter="url(#filter1_d_3086_1847)">
<line y1="-0.5" x2="82" y2="-0.5" transform="matrix(0.866025 0.5 0 1 100 120)" stroke="black" strokeDasharray="3 3"/>
</g>
<g filter="url(#filter2_d_3086_1847)">
<circle cx="16.748" cy="16.748" r="16.748" transform="matrix(0.866025 0.5 -0.866025 0.5 126.008 118)" fill="white" stroke="black" strokeLinejoin="bevel"/>
<path d="M105.496 134.748C105.496 138.018 107.792 140.979 111.504 143.122V148.705C107.792 146.562 105.496 143.601 105.496 140.331V134.748Z" fill="#E7E7E7" stroke="black" strokeLinejoin="bevel"/>
<path d="M111.502 143.122C119.512 147.747 132.5 147.747 140.51 143.122V148.705C132.5 153.33 119.512 153.33 111.502 148.705V143.122Z" fill="#B7B7B7" stroke="black" strokeLinejoin="bevel"/>
<path d="M146.52 134.748C146.52 138.018 144.224 140.979 140.512 143.122V148.705C144.224 146.562 146.52 143.601 146.52 140.331V134.748Z" fill="#B7B7B7" stroke="black" strokeLinejoin="bevel"/>
<path d="M133.815 130.334C134.427 129.981 134.733 129.804 134.877 129.608C135.077 129.332 135.074 129.021 134.868 128.744C134.721 128.546 134.412 128.368 133.793 128.01L133.793 128.01L129.812 125.712C128.53 124.972 127.889 124.602 127.097 124.599C126.305 124.597 125.671 124.963 124.403 125.695L121.965 127.102C120.011 128.23 119.034 128.794 119.286 129.395C119.538 129.995 120.859 130.252 123.502 130.764L128.551 131.744C129.432 131.915 129.702 132.56 129.051 132.936C128.72 133.127 128.229 133.193 127.781 133.106L117.888 131.186L117.888 131.186C116.797 130.974 116.251 130.869 115.724 130.939C115.197 131.01 114.793 131.243 113.986 131.709L113.181 132.173C111.914 132.905 111.28 133.271 111.284 133.729C111.288 134.186 111.929 134.556 113.211 135.296L117.063 137.52C117.682 137.877 117.991 138.056 118.138 138.254C118.344 138.53 118.347 138.842 118.146 139.117C118.003 139.314 117.697 139.491 117.085 139.844C116.473 140.198 116.167 140.374 116.024 140.571C115.823 140.846 115.826 141.158 116.032 141.435C116.179 141.633 116.488 141.811 117.107 142.168L121.088 144.467C122.37 145.207 123.011 145.577 123.803 145.58C124.596 145.582 125.23 145.216 126.498 144.484L126.498 144.484L128.935 143.077C130.889 141.949 131.866 141.384 131.614 140.784C131.362 140.184 130.041 139.927 127.398 139.414L122.35 138.435C121.469 138.264 121.198 137.619 121.85 137.243C122.18 137.052 122.672 136.986 123.119 137.073L133.012 138.992C134.104 139.204 134.649 139.31 135.176 139.24C135.703 139.169 136.107 138.936 136.914 138.47L136.914 138.47L137.719 138.005C138.987 137.273 139.621 136.907 139.616 136.45C139.612 135.993 138.971 135.623 137.689 134.882L133.837 132.659C133.219 132.301 132.909 132.123 132.762 131.925C132.556 131.648 132.553 131.337 132.754 131.061C132.897 130.865 133.203 130.688 133.815 130.334Z" fill="#272F30"/>
<path d="M133.815 130.334C134.427 129.981 134.733 129.804 134.877 129.608C135.077 129.332 135.074 129.021 134.868 128.744C134.721 128.546 134.412 128.368 133.793 128.01L133.793 128.01L129.812 125.712C128.53 124.972 127.889 124.602 127.097 124.599C126.305 124.597 125.671 124.963 124.403 125.695L121.965 127.102C120.011 128.23 119.034 128.794 119.286 129.395C119.538 129.995 120.859 130.252 123.502 130.764L128.551 131.744C129.432 131.915 129.702 132.56 129.051 132.936C128.72 133.127 128.229 133.193 127.781 133.106L117.888 131.186L117.888 131.186C116.797 130.974 116.251 130.869 115.724 130.939C115.197 131.01 114.793 131.243 113.986 131.709L113.181 132.173C111.914 132.905 111.28 133.271 111.284 133.729C111.288 134.186 111.929 134.556 113.211 135.296L117.063 137.52C117.682 137.877 117.991 138.056 118.138 138.254C118.344 138.53 118.347 138.842 118.146 139.117C118.003 139.314 117.697 139.491 117.085 139.844C116.473 140.198 116.167 140.374 116.024 140.571C115.823 140.846 115.826 141.158 116.032 141.435C116.179 141.633 116.488 141.811 117.107 142.168L121.088 144.467C122.37 145.207 123.011 145.577 123.803 145.58C124.596 145.582 125.23 145.216 126.498 144.484L126.498 144.484L128.935 143.077C130.889 141.949 131.866 141.384 131.614 140.784C131.362 140.184 130.041 139.927 127.398 139.414L122.35 138.435C121.469 138.264 121.198 137.619 121.85 137.243C122.18 137.052 122.672 136.986 123.119 137.073L133.012 138.992C134.104 139.204 134.649 139.31 135.176 139.24C135.703 139.169 136.107 138.936 136.914 138.47L136.914 138.47L137.719 138.005C138.987 137.273 139.621 136.907 139.616 136.45C139.612 135.993 138.971 135.623 137.689 134.882L133.837 132.659C133.219 132.301 132.909 132.123 132.762 131.925C132.556 131.648 132.553 131.337 132.754 131.061C132.897 130.865 133.203 130.688 133.815 130.334Z" stroke="white"/>
</g>
<g filter="url(#filter3_d_3086_1847)">
<path d="M74.2761 147.767C88.0077 139.612 85.237 138.253 85.8611 136.554C84.9249 155.582 88.0077 152.863 81.454 157.62L58.6721 171.891C48.6855 177.871 39.115 174.722 35.5781 172.23V157.96C45.5647 163.668 55.1352 159.659 58.6721 157.28L74.2761 147.767Z" fill="#B7D0F6"/>
<path d="M74.2761 147.767C88.0077 139.612 85.237 138.253 85.8611 136.554C84.9249 155.582 88.0077 152.863 81.454 157.62L58.6721 171.891C48.6855 177.871 39.115 174.722 35.5781 172.23V157.96C45.5647 163.668 55.1352 159.659 58.6721 157.28L74.2761 147.767Z" stroke="black"/>
</g>
<g filter="url(#filter4_d_3086_1847)">
<rect width="54.9235" height="54.9235" rx="14" transform="matrix(0.846632 0.532179 -0.846632 0.532179 46.5 106.654)" fill="#E7E7E7"/>
<rect width="54.9235" height="54.9235" rx="14" transform="matrix(0.846632 0.532179 -0.846632 0.532179 46.5 106.654)" stroke="black" strokeLinejoin="bevel"/>
</g>
<path d="M64.5265 160.944C64.5265 162.011 63.8445 163.251 63.0579 163.745C62.2713 164.24 61.5893 163.857 61.5893 162.79C61.5893 161.723 62.2713 160.483 63.0579 159.989C63.8445 159.494 64.5265 159.877 64.5265 160.944Z" fill="#2246C8" stroke="black"/>
<path d="M58.2862 164.682C58.2862 165.749 57.6043 166.989 56.8177 167.483C56.0311 167.978 55.3491 167.595 55.3491 166.528C55.3491 165.461 56.0311 164.221 56.8177 163.726C57.6043 163.232 58.2862 163.614 58.2862 164.682Z" fill="#2246C8" stroke="black"/>
<rect x="0.423316" y="0.233911" width="15.9563" height="3.75684" rx="1.87842" transform="matrix(0.846632 -0.532179 0 1 66.8501 157.356)" fill="#B3F6CA" stroke="black"/>
<g filter="url(#filter5_d_3086_1847)">
<path d="M10.8979 142.33L35.5774 158.3L35.5536 172.23L12.1476 157.96C8.15301 155.513 7.15432 151.957 7.15431 150.485L7.15428 135.776C7.44357 140.193 9.33677 141.311 10.8979 142.33Z" fill="#B7B7B7"/>
<path d="M10.8979 142.33L35.5774 158.3L35.5536 172.23L12.1476 157.96C8.15301 155.513 7.15432 151.957 7.15431 150.485L7.15428 135.776C7.44357 140.193 9.33677 141.311 10.8979 142.33Z" stroke="black"/>
</g>
<path d="M74.2761 115.827C88.0077 107.672 85.237 106.313 85.8611 104.614C84.9249 123.642 88.0077 120.923 81.454 125.68L58.6721 139.951C48.6855 145.931 39.115 142.782 35.5781 140.291V126.02C45.5647 131.728 55.1352 127.719 58.6721 125.34L74.2761 115.827Z" fill="#B7D0F6" stroke="black"/>
<rect width="54.9235" height="54.9235" rx="14" transform="matrix(0.846632 0.532179 -0.846632 0.532179 46.5 74.7148)" fill="#E7E7E7" stroke="black" strokeLinejoin="bevel"/>
<path d="M64.5265 129.004C64.5265 130.072 63.8445 131.311 63.0579 131.806C62.2713 132.3 61.5893 131.918 61.5893 130.851C61.5893 129.783 62.2713 128.544 63.0579 128.049C63.8445 127.555 64.5265 127.937 64.5265 129.004Z" fill="#2246C8" stroke="black"/>
<path d="M58.2862 132.743C58.2862 133.81 57.6043 135.05 56.8177 135.544C56.0311 136.039 55.3491 135.656 55.3491 134.589C55.3491 133.522 56.0311 132.282 56.8177 131.787C57.6043 131.293 58.2862 131.675 58.2862 132.743Z" fill="#2246C8" stroke="black"/>
<rect x="0.423316" y="0.233911" width="15.9563" height="3.75684" rx="1.87842" transform="matrix(0.846632 -0.532179 0 1 66.8501 125.416)" fill="#B3F6CA" stroke="black"/>
<path d="M10.8979 110.391L35.5774 126.36L35.5536 140.291L12.1476 126.02C8.15299 123.574 7.15431 120.018 7.1543 118.545L7.15466 103.935C7.44394 108.352 9.33676 109.371 10.8979 110.391Z" fill="#B7B7B7" stroke="black"/>
<path d="M74.2761 83.8889C88.0077 75.7343 85.237 73.7663 85.8611 72.0674C84.9249 91.0947 88.0077 88.9855 81.454 93.7423L58.6721 108.013C48.6855 113.993 39.115 110.844 35.5781 108.353V94.0821C45.5647 99.7903 55.1352 95.7809 58.6721 93.4025L74.2761 83.8889Z" fill="#B7D0F6" stroke="black"/>
<rect width="54.9235" height="54.9235" rx="14" transform="matrix(0.846632 0.532179 -0.846632 0.532179 46.5 42.7764)" fill="#E7E7E7" stroke="black" strokeLinejoin="bevel"/>
<path d="M64.5265 97.0664C64.5265 98.1336 63.8445 99.3735 63.0579 99.8679C62.2713 100.362 61.5893 99.9799 61.5893 98.9126C61.5893 97.8454 62.2713 96.6055 63.0579 96.1111C63.8445 95.6166 64.5265 95.9991 64.5265 97.0664Z" fill="#2246C8" stroke="black"/>
<path d="M58.2862 100.804C58.2862 101.871 57.6043 103.111 56.8177 103.606C56.0311 104.1 55.3491 103.718 55.3491 102.65C55.3491 101.583 56.0311 100.343 56.8177 99.8489C57.6043 99.3544 58.2862 99.7369 58.2862 100.804Z" fill="#2246C8" stroke="black"/>
<rect x="0.423316" y="0.233911" width="15.9563" height="3.75684" rx="1.87842" transform="matrix(0.846632 -0.532179 0 1 66.8501 93.4777)" fill="#B3F6CA" stroke="black"/>
<path d="M10.8979 78.4523L35.5774 94.4217L35.5536 108.352L12.1476 94.0819C8.15299 91.6355 7.15431 88.0792 7.1543 86.6069L7.15466 71.9966C7.44394 76.4136 9.33676 77.433 10.8979 78.4523Z" fill="#B7B7B7" stroke="black"/>
<line x1="125.5" y1="127" x2="125.5" y2="95" stroke="black" strokeDasharray="3 3"/>
<g filter="url(#filter6_d_3086_1847)">
<path d="M153.276 81.0519C167.008 72.8973 164.237 71.5382 164.861 69.8394C163.925 88.8667 167.008 86.1485 160.454 90.9053L137.672 105.176C127.686 111.156 118.115 108.007 114.578 105.516V91.2451C124.565 96.9533 134.135 92.944 137.672 90.5656L153.276 81.0519Z" fill="#B7D0F6"/>
<path d="M153.276 81.0519C167.008 72.8973 164.237 71.5382 164.861 69.8394C163.925 88.8667 167.008 86.1485 160.454 90.9053L137.672 105.176C127.686 111.156 118.115 108.007 114.578 105.516V91.2451C124.565 96.9533 134.135 92.944 137.672 90.5656L153.276 81.0519Z" stroke="black"/>
</g>
<g filter="url(#filter7_d_3086_1847)">
<rect width="54.9235" height="54.9235" rx="14" transform="matrix(0.846632 0.532179 -0.846632 0.532179 125.5 39.939)" fill="#E7E7E7"/>
<rect width="54.9235" height="54.9235" rx="14" transform="matrix(0.846632 0.532179 -0.846632 0.532179 125.5 39.939)" stroke="black" strokeLinejoin="bevel"/>
</g>
<path d="M143.526 94.229C143.526 95.2962 142.844 96.5361 142.058 97.0305C141.271 97.525 140.589 97.1425 140.589 96.0752C140.589 95.008 141.271 93.7681 142.058 93.2737C142.844 92.7792 143.526 93.1617 143.526 94.229Z" fill="#2246C8" stroke="black"/>
<path d="M137.286 97.9668C137.286 99.034 136.604 100.274 135.818 100.768C135.031 101.263 134.349 100.88 134.349 99.813C134.349 98.7458 135.031 97.5059 135.818 97.0115C136.604 96.517 137.286 96.8995 137.286 97.9668Z" fill="#2246C8" stroke="black"/>
<rect x="0.423316" y="0.233911" width="15.9563" height="3.75684" rx="1.87842" transform="matrix(0.846632 -0.532179 0 1 145.85 90.6408)" fill="#B3F6CA" stroke="black"/>
<g filter="url(#filter8_d_3086_1847)">
<path d="M89.8979 75.6153L114.577 91.5847L114.554 105.515L91.1476 91.2449C87.153 88.7985 86.1543 85.2422 86.1543 83.7699L86.1543 69.0615C86.4436 73.4786 88.3368 74.596 89.8979 75.6153Z" fill="#B7B7B7"/>
<path d="M89.8979 75.6153L114.577 91.5847L114.554 105.515L91.1476 91.2449C87.153 88.7985 86.1543 85.2422 86.1543 83.7699L86.1543 69.0615C86.4436 73.4786 88.3368 74.596 89.8979 75.6153Z" stroke="black"/>
</g>
<path d="M153.276 49.112C167.008 40.9574 164.237 39.5983 164.861 37.8994C163.925 56.9268 167.008 54.2086 160.454 58.9654L137.672 73.2359C127.686 79.2159 118.115 76.0674 114.578 73.5757V59.3052C124.565 65.0134 134.135 61.004 137.672 58.6256L153.276 49.112Z" fill="#B7D0F6" stroke="black"/>
<rect width="54.9235" height="54.9235" rx="14" transform="matrix(0.846632 0.532179 -0.846632 0.532179 125.5 8)" fill="#E7E7E7" stroke="black" strokeLinejoin="bevel"/>
<path d="M143.526 62.2895C143.526 63.3568 142.844 64.5966 142.058 65.0911C141.271 65.5855 140.589 65.203 140.589 64.1358C140.589 63.0685 141.271 61.8287 142.058 61.3342C142.844 60.8398 143.526 61.2223 143.526 62.2895Z" fill="#2246C8" stroke="black"/>
<path d="M137.286 66.0278C137.286 67.0951 136.604 68.3349 135.818 68.8293C135.031 69.3238 134.349 68.9413 134.349 67.874C134.349 66.8068 135.031 65.5669 135.818 65.0725C136.604 64.5781 137.286 64.9606 137.286 66.0278Z" fill="#2246C8" stroke="black"/>
<rect x="0.423316" y="0.233911" width="15.9563" height="3.75684" rx="1.87842" transform="matrix(0.846632 -0.532179 0 1 145.85 58.7009)" fill="#B3F6CA" stroke="black"/>
<path d="M89.8979 43.6759L114.577 59.6453L114.554 73.576L91.1476 59.3055C87.153 56.8592 86.1543 53.3029 86.1543 51.8305L86.1547 37.2202C86.4439 41.6373 88.3368 42.6566 89.8979 43.6759Z" fill="#B7B7B7" stroke="black"/>
<g filter="url(#filter9_d_3086_1847)">
<path d="M224.276 147.99C238.008 139.836 235.237 138.477 235.861 136.778C234.925 155.805 238.008 153.087 231.454 157.844L208.672 172.114C198.686 178.094 189.115 174.946 185.578 172.454V158.184C195.565 163.892 205.135 159.882 208.672 157.504L224.276 147.99Z" fill="#B7D0F6"/>
<path d="M224.276 147.99C238.008 139.836 235.237 138.477 235.861 136.778C234.925 155.805 238.008 153.087 231.454 157.844L208.672 172.114C198.686 178.094 189.115 174.946 185.578 172.454V158.184C195.565 163.892 205.135 159.882 208.672 157.504L224.276 147.99Z" stroke="black"/>
</g>
<g filter="url(#filter10_d_3086_1847)">
<rect width="54.9235" height="54.9235" rx="14" transform="matrix(0.846632 0.532179 -0.846632 0.532179 196.5 106.877)" fill="#E7E7E7"/>
<rect width="54.9235" height="54.9235" rx="14" transform="matrix(0.846632 0.532179 -0.846632 0.532179 196.5 106.877)" stroke="black" strokeLinejoin="bevel"/>
</g>
<path d="M214.526 161.167C214.526 162.235 213.844 163.475 213.058 163.969C212.271 164.463 211.589 164.081 211.589 163.014C211.589 161.946 212.271 160.707 213.058 160.212C213.844 159.718 214.526 160.1 214.526 161.167Z" fill="#2246C8" stroke="black"/>
<path d="M208.286 164.905C208.286 165.973 207.604 167.212 206.818 167.707C206.031 168.201 205.349 167.819 205.349 166.751C205.349 165.684 206.031 164.444 206.818 163.95C207.604 163.456 208.286 163.838 208.286 164.905Z" fill="#2246C8" stroke="black"/>
<rect x="0.423316" y="0.233911" width="15.9563" height="3.75684" rx="1.87842" transform="matrix(0.846632 -0.532179 0 1 216.85 157.579)" fill="#B3F6CA" stroke="black"/>
<g filter="url(#filter11_d_3086_1847)">
<path d="M160.898 142.554L185.577 158.523L185.554 172.454L162.148 158.183C158.153 155.737 157.154 152.181 157.154 150.708L157.154 136C157.444 140.417 159.337 141.534 160.898 142.554Z" fill="#B7B7B7"/>
<path d="M160.898 142.554L185.577 158.523L185.554 172.454L162.148 158.183C158.153 155.737 157.154 152.181 157.154 150.708L157.154 136C157.444 140.417 159.337 141.534 160.898 142.554Z" stroke="black"/>
</g>
<path d="M224.276 116.05C238.008 107.896 235.237 106.537 235.861 104.838C234.925 123.865 238.008 121.147 231.454 125.904L208.672 140.174C198.686 146.154 189.115 143.006 185.578 140.514V126.244C195.565 131.952 205.135 127.943 208.672 125.564L224.276 116.05Z" fill="#B7D0F6" stroke="black"/>
<rect width="54.9235" height="54.9235" rx="14" transform="matrix(0.846632 0.532179 -0.846632 0.532179 196.5 74.9385)" fill="#E7E7E7" stroke="black" strokeLinejoin="bevel"/>
<path d="M214.526 129.228C214.526 130.295 213.844 131.535 213.058 132.03C212.271 132.524 211.589 132.142 211.589 131.074C211.589 130.007 212.271 128.767 213.058 128.273C213.844 127.778 214.526 128.161 214.526 129.228Z" fill="#2246C8" stroke="black"/>
<path d="M208.286 132.966C208.286 134.034 207.604 135.273 206.818 135.768C206.031 136.262 205.349 135.88 205.349 134.813C205.349 133.745 206.031 132.505 206.818 132.011C207.604 131.517 208.286 131.899 208.286 132.966Z" fill="#2246C8" stroke="black"/>
<rect x="0.423316" y="0.233911" width="15.9563" height="3.75684" rx="1.87842" transform="matrix(0.846632 -0.532179 0 1 216.85 125.639)" fill="#B3F6CA" stroke="black"/>
<path d="M160.898 110.614L185.577 126.584L185.554 140.515L162.148 126.244C158.153 123.798 157.154 120.241 157.154 118.769L157.155 104.159C157.444 108.576 159.337 109.595 160.898 110.614Z" fill="#B7B7B7" stroke="black"/>
<path d="M224.276 84.1125C238.008 75.9579 235.237 73.9899 235.861 72.291C234.925 91.3184 238.008 89.2091 231.454 93.9659L208.672 108.236C198.686 114.216 189.115 111.068 185.578 108.576V94.3057C195.565 100.014 205.135 96.0046 208.672 93.6262L224.276 84.1125Z" fill="#B7D0F6" stroke="black"/>
<rect width="54.9235" height="54.9235" rx="14" transform="matrix(0.846632 0.532179 -0.846632 0.532179 196.5 43)" fill="#E7E7E7" stroke="black" strokeLinejoin="bevel"/>
<path d="M214.526 97.29C214.526 98.3573 213.844 99.5971 213.058 100.092C212.271 100.586 211.589 100.204 211.589 99.1363C211.589 98.069 212.271 96.8292 213.058 96.3347C213.844 95.8403 214.526 96.2228 214.526 97.29Z" fill="#2246C8" stroke="black"/>
<path d="M208.286 101.028C208.286 102.095 207.604 103.335 206.818 103.829C206.031 104.324 205.349 103.941 205.349 102.874C205.349 101.807 206.031 100.567 206.818 100.073C207.604 99.5781 208.286 99.9606 208.286 101.028Z" fill="#2246C8" stroke="black"/>
<rect x="0.423316" y="0.233911" width="15.9563" height="3.75684" rx="1.87842" transform="matrix(0.846632 -0.532179 0 1 216.85 93.7014)" fill="#B3F6CA" stroke="black"/>
<path d="M160.898 78.6759L185.577 94.6453L185.554 108.576L162.148 94.3055C158.153 91.8592 157.154 88.3029 157.154 86.8305L157.155 72.2202C157.444 76.6373 159.337 77.6566 160.898 78.6759Z" fill="#B7B7B7" stroke="black"/>
<defs>
<filter id="filter0_d_3086_1847" x="44" y="119" width="59.9609" height="39" filterUnits="userSpaceOnUse" colorInterpolationFilters="sRGB">
<feFlood floodOpacity="0" result="BackgroundImageFix"/>
<feColorMatrix in="SourceAlpha" type="matrix" values="0 0 0 0 0 0 0 0 0 0 0 0 0 0 0 0 0 0 127 0" result="hardAlpha"/>
<feOffset dy="4"/>
<feGaussianBlur stdDeviation="2"/>
<feComposite in2="hardAlpha" operator="out"/>
<feColorMatrix type="matrix" values="0 0 0 0 0 0 0 0 0 0 0 0 0 0 0 0 0 0 0.25 0"/>
<feBlend mode="normal" in2="BackgroundImageFix" result="effect1_dropShadow_3086_1847"/>
<feBlend mode="normal" in="SourceGraphic" in2="effect1_dropShadow_3086_1847" result="shape"/>
</filter>
<filter id="filter1_d_3086_1847" x="96" y="119" width="79.0137" height="50" filterUnits="userSpaceOnUse" colorInterpolationFilters="sRGB">
<feFlood floodOpacity="0" result="BackgroundImageFix"/>
<feColorMatrix in="SourceAlpha" type="matrix" values="0 0 0 0 0 0 0 0 0 0 0 0 0 0 0 0 0 0 127 0" result="hardAlpha"/>
<feOffset dy="4"/>
<feGaussianBlur stdDeviation="2"/>
<feComposite in2="hardAlpha" operator="out"/>
<feColorMatrix type="matrix" values="0 0 0 0 0 0 0 0 0 0 0 0 0 0 0 0 0 0 0.25 0"/>
<feBlend mode="normal" in2="BackgroundImageFix" result="effect1_dropShadow_3086_1847"/>
<feBlend mode="normal" in="SourceGraphic" in2="effect1_dropShadow_3086_1847" result="shape"/>
</filter>
<filter id="filter2_d_3086_1847" x="100.883" y="122.552" width="50.25" height="38.1216" filterUnits="userSpaceOnUse" colorInterpolationFilters="sRGB">
<feFlood floodOpacity="0" result="BackgroundImageFix"/>
<feColorMatrix in="SourceAlpha" type="matrix" values="0 0 0 0 0 0 0 0 0 0 0 0 0 0 0 0 0 0 127 0" result="hardAlpha"/>
<feOffset dy="4"/>
<feGaussianBlur stdDeviation="2"/>
<feComposite in2="hardAlpha" operator="out"/>
<feColorMatrix type="matrix" values="0 0 0 0 0 0 0 0 0 0 0 0 0 0 0 0 0 0 0.25 0"/>
<feBlend mode="normal" in2="BackgroundImageFix" result="effect1_dropShadow_3086_1847"/>
<feBlend mode="normal" in="SourceGraphic" in2="effect1_dropShadow_3086_1847" result="shape"/>
</filter>
<filter id="filter3_d_3086_1847" x="31.0781" y="136.382" width="59.2832" height="47.4385" filterUnits="userSpaceOnUse" colorInterpolationFilters="sRGB">
<feFlood floodOpacity="0" result="BackgroundImageFix"/>
<feColorMatrix in="SourceAlpha" type="matrix" values="0 0 0 0 0 0 0 0 0 0 0 0 0 0 0 0 0 0 127 0" result="hardAlpha"/>
<feOffset dy="4"/>
<feGaussianBlur stdDeviation="2"/>
<feComposite in2="hardAlpha" operator="out"/>
<feColorMatrix type="matrix" values="0 0 0 0 0 0 0 0 0 0 0 0 0 0 0 0 0 0 0.25 0"/>
<feBlend mode="normal" in2="BackgroundImageFix" result="effect1_dropShadow_3086_1847"/>
<feBlend mode="normal" in="SourceGraphic" in2="effect1_dropShadow_3086_1847" result="shape"/>
</filter>
<filter id="filter4_d_3086_1847" x="2.34375" y="110.642" width="88.3125" height="58.4819" filterUnits="userSpaceOnUse" colorInterpolationFilters="sRGB">
<feFlood floodOpacity="0" result="BackgroundImageFix"/>
<feColorMatrix in="SourceAlpha" type="matrix" values="0 0 0 0 0 0 0 0 0 0 0 0 0 0 0 0 0 0 127 0" result="hardAlpha"/>
<feOffset dy="4"/>
<feGaussianBlur stdDeviation="2"/>
<feComposite in2="hardAlpha" operator="out"/>
<feColorMatrix type="matrix" values="0 0 0 0 0 0 0 0 0 0 0 0 0 0 0 0 0 0 0.25 0"/>
<feBlend mode="normal" in2="BackgroundImageFix" result="effect1_dropShadow_3086_1847"/>
<feBlend mode="normal" in="SourceGraphic" in2="effect1_dropShadow_3086_1847" result="shape"/>
</filter>
<filter id="filter5_d_3086_1847" x="2.6543" y="135.744" width="37.4238" height="45.376" filterUnits="userSpaceOnUse" colorInterpolationFilters="sRGB">
<feFlood floodOpacity="0" result="BackgroundImageFix"/>
<feColorMatrix in="SourceAlpha" type="matrix" values="0 0 0 0 0 0 0 0 0 0 0 0 0 0 0 0 0 0 127 0" result="hardAlpha"/>
<feOffset dy="4"/>
<feGaussianBlur stdDeviation="2"/>
<feComposite in2="hardAlpha" operator="out"/>
<feColorMatrix type="matrix" values="0 0 0 0 0 0 0 0 0 0 0 0 0 0 0 0 0 0 0.25 0"/>
<feBlend mode="normal" in2="BackgroundImageFix" result="effect1_dropShadow_3086_1847"/>
<feBlend mode="normal" in="SourceGraphic" in2="effect1_dropShadow_3086_1847" result="shape"/>
</filter>
<filter id="filter6_d_3086_1847" x="110.078" y="69.667" width="59.2832" height="47.4385" filterUnits="userSpaceOnUse" colorInterpolationFilters="sRGB">
<feFlood floodOpacity="0" result="BackgroundImageFix"/>
<feColorMatrix in="SourceAlpha" type="matrix" values="0 0 0 0 0 0 0 0 0 0 0 0 0 0 0 0 0 0 127 0" result="hardAlpha"/>
<feOffset dy="4"/>
<feGaussianBlur stdDeviation="2"/>
<feComposite in2="hardAlpha" operator="out"/>
<feColorMatrix type="matrix" values="0 0 0 0 0 0 0 0 0 0 0 0 0 0 0 0 0 0 0.25 0"/>
<feBlend mode="normal" in2="BackgroundImageFix" result="effect1_dropShadow_3086_1847"/>
<feBlend mode="normal" in="SourceGraphic" in2="effect1_dropShadow_3086_1847" result="shape"/>
</filter>
<filter id="filter7_d_3086_1847" x="81.3438" y="43.9272" width="88.3125" height="58.4819" filterUnits="userSpaceOnUse" colorInterpolationFilters="sRGB">
<feFlood floodOpacity="0" result="BackgroundImageFix"/>
<feColorMatrix in="SourceAlpha" type="matrix" values="0 0 0 0 0 0 0 0 0 0 0 0 0 0 0 0 0 0 127 0" result="hardAlpha"/>
<feOffset dy="4"/>
<feGaussianBlur stdDeviation="2"/>
<feComposite in2="hardAlpha" operator="out"/>
<feColorMatrix type="matrix" values="0 0 0 0 0 0 0 0 0 0 0 0 0 0 0 0 0 0 0.25 0"/>
<feBlend mode="normal" in2="BackgroundImageFix" result="effect1_dropShadow_3086_1847"/>
<feBlend mode="normal" in="SourceGraphic" in2="effect1_dropShadow_3086_1847" result="shape"/>
</filter>
<filter id="filter8_d_3086_1847" x="81.6543" y="69.0288" width="37.4238" height="45.376" filterUnits="userSpaceOnUse" colorInterpolationFilters="sRGB">
<feFlood floodOpacity="0" result="BackgroundImageFix"/>
<feColorMatrix in="SourceAlpha" type="matrix" values="0 0 0 0 0 0 0 0 0 0 0 0 0 0 0 0 0 0 127 0" result="hardAlpha"/>
<feOffset dy="4"/>
<feGaussianBlur stdDeviation="2"/>
<feComposite in2="hardAlpha" operator="out"/>
<feColorMatrix type="matrix" values="0 0 0 0 0 0 0 0 0 0 0 0 0 0 0 0 0 0 0.25 0"/>
<feBlend mode="normal" in2="BackgroundImageFix" result="effect1_dropShadow_3086_1847"/>
<feBlend mode="normal" in="SourceGraphic" in2="effect1_dropShadow_3086_1847" result="shape"/>
</filter>
<filter id="filter9_d_3086_1847" x="181.078" y="136.605" width="59.2832" height="47.4385" filterUnits="userSpaceOnUse" colorInterpolationFilters="sRGB">
<feFlood floodOpacity="0" result="BackgroundImageFix"/>
<feColorMatrix in="SourceAlpha" type="matrix" values="0 0 0 0 0 0 0 0 0 0 0 0 0 0 0 0 0 0 127 0" result="hardAlpha"/>
<feOffset dy="4"/>
<feGaussianBlur stdDeviation="2"/>
<feComposite in2="hardAlpha" operator="out"/>
<feColorMatrix type="matrix" values="0 0 0 0 0 0 0 0 0 0 0 0 0 0 0 0 0 0 0.25 0"/>
<feBlend mode="normal" in2="BackgroundImageFix" result="effect1_dropShadow_3086_1847"/>
<feBlend mode="normal" in="SourceGraphic" in2="effect1_dropShadow_3086_1847" result="shape"/>
</filter>
<filter id="filter10_d_3086_1847" x="152.344" y="110.866" width="88.3125" height="58.4819" filterUnits="userSpaceOnUse" colorInterpolationFilters="sRGB">
<feFlood floodOpacity="0" result="BackgroundImageFix"/>
<feColorMatrix in="SourceAlpha" type="matrix" values="0 0 0 0 0 0 0 0 0 0 0 0 0 0 0 0 0 0 127 0" result="hardAlpha"/>
<feOffset dy="4"/>
<feGaussianBlur stdDeviation="2"/>
<feComposite in2="hardAlpha" operator="out"/>
<feColorMatrix type="matrix" values="0 0 0 0 0 0 0 0 0 0 0 0 0 0 0 0 0 0 0.25 0"/>
<feBlend mode="normal" in2="BackgroundImageFix" result="effect1_dropShadow_3086_1847"/>
<feBlend mode="normal" in="SourceGraphic" in2="effect1_dropShadow_3086_1847" result="shape"/>
</filter>
<filter id="filter11_d_3086_1847" x="152.654" y="135.967" width="37.4238" height="45.376" filterUnits="userSpaceOnUse" colorInterpolationFilters="sRGB">
<feFlood floodOpacity="0" result="BackgroundImageFix"/>
<feColorMatrix in="SourceAlpha" type="matrix" values="0 0 0 0 0 0 0 0 0 0 0 0 0 0 0 0 0 0 127 0" result="hardAlpha"/>
<feOffset dy="4"/>
<feGaussianBlur stdDeviation="2"/>
<feComposite in2="hardAlpha" operator="out"/>
<feColorMatrix type="matrix" values="0 0 0 0 0 0 0 0 0 0 0 0 0 0 0 0 0 0 0.25 0"/>
<feBlend mode="normal" in2="BackgroundImageFix" result="effect1_dropShadow_3086_1847"/>
<feBlend mode="normal" in="SourceGraphic" in2="effect1_dropShadow_3086_1847" result="shape"/>
</filter>
</defs>
</svg>
