<svg width="99" height="82" viewBox="0 0 99 82" fill="none" xmlns="http://www.w3.org/2000/svg">
<path d="M88.7204 41.3095C91.6319 41.3095 93.0877 41.3095 94.2399 40.8445C95.8507 40.1944 97.128 38.9171 97.7781 37.3062C98.2431 36.1541 98.2431 34.6984 98.2431 31.7869V31.7868V13.0535C98.2431 7.02158 98.2431 4.0056 96.3693 2.13171C94.4954 0.257815 91.4794 0.257812 85.4474 0.257812H73.8515C64.5546 0.257812 59.9062 0.257812 58.0317 3.29734C56.1572 6.33686 58.244 10.4905 62.4176 18.7979L70.3905 34.6676C71.7816 37.4365 69.7687 40.7005 66.67 40.7005C65.0958 40.7005 63.6561 39.8127 62.9494 38.406L47.3266 7.30944C45.6027 3.87824 44.7408 2.16265 43.1967 1.21035C41.6525 0.258059 39.7326 0.258059 35.8927 0.258059L32.064 0.258059C26.032 0.25806 23.016 0.25806 21.1421 2.13195C19.2683 4.00584 19.2683 7.02182 19.2683 13.0538L19.2683 31.178C19.2683 34.0895 19.2683 35.5453 18.8032 36.6975C18.1531 38.3083 16.8758 39.5856 15.265 40.2357C14.1128 40.7008 12.657 40.7008 9.74546 40.7008C6.83388 40.7008 5.37809 40.7008 4.22596 41.1658C2.61508 41.8159 1.33783 43.0932 0.687668 44.7041C0.222656 45.8562 0.222656 47.312 0.222656 50.2235V68.9568C0.222656 74.9887 0.222656 78.0047 2.09655 79.8786C3.97043 81.7525 6.9864 81.7525 13.0183 81.7525H13.0184H24.6143C33.9112 81.7525 38.5596 81.7525 40.4341 78.713C42.3086 75.6734 40.2218 71.5198 36.0482 63.2124L28.0753 47.3427C26.6842 44.5738 28.6971 41.3098 31.7958 41.3098C33.37 41.3098 34.8097 42.1976 35.5164 43.6043L51.1392 74.7009C52.8631 78.1321 53.725 79.8477 55.2691 80.7999C56.8133 81.7522 58.7332 81.7522 62.5731 81.7522H66.4018C72.4338 81.7522 75.4498 81.7522 77.3237 79.8783C79.1976 78.0045 79.1976 74.9885 79.1976 68.9565V50.8323C79.1976 47.9208 79.1976 46.465 79.6626 45.3128C80.3127 43.702 81.59 42.4247 83.2009 41.7746C84.353 41.3095 85.8088 41.3095 88.7204 41.3095Z" fill="white"/>
<path d="M88.7204 41.3095C91.6319 41.3095 93.0877 41.3095 94.2399 40.8445C95.8507 40.1944 97.128 38.9171 97.7781 37.3062C98.2431 36.1541 98.2431 34.6984 98.2431 31.7869V31.7868V13.0535C98.2431 7.02158 98.2431 4.0056 96.3693 2.13171C94.4954 0.257815 91.4794 0.257812 85.4474 0.257812H73.8515C64.5546 0.257812 59.9062 0.257812 58.0317 3.29734C56.1572 6.33686 58.244 10.4905 62.4176 18.7979L70.3905 34.6676C71.7816 37.4365 69.7687 40.7005 66.67 40.7005C65.0958 40.7005 63.6561 39.8127 62.9494 38.406L47.3266 7.30944C45.6027 3.87824 44.7408 2.16265 43.1967 1.21035C41.6525 0.258059 39.7326 0.258059 35.8927 0.258059L32.064 0.258059C26.032 0.25806 23.016 0.25806 21.1421 2.13195C19.2683 4.00584 19.2683 7.02182 19.2683 13.0538L19.2683 31.178C19.2683 34.0895 19.2683 35.5453 18.8032 36.6975C18.1531 38.3083 16.8758 39.5856 15.265 40.2357C14.1128 40.7008 12.657 40.7008 9.74546 40.7008C6.83388 40.7008 5.37809 40.7008 4.22596 41.1658C2.61508 41.8159 1.33783 43.0932 0.687668 44.7041C0.222656 45.8562 0.222656 47.312 0.222656 50.2235V68.9568C0.222656 74.9887 0.222656 78.0047 2.09655 79.8786C3.97043 81.7525 6.9864 81.7525 13.0183 81.7525H13.0184H24.6143C33.9112 81.7525 38.5596 81.7525 40.4341 78.713C42.3086 75.6734 40.2218 71.5198 36.0482 63.2124L28.0753 47.3427C26.6842 44.5738 28.6971 41.3098 31.7958 41.3098C33.37 41.3098 34.8097 42.1976 35.5164 43.6043L51.1392 74.7009C52.8631 78.1321 53.725 79.8477 55.2691 80.7999C56.8133 81.7522 58.7332 81.7522 62.5731 81.7522H66.4018C72.4338 81.7522 75.4498 81.7522 77.3237 79.8783C79.1976 78.0045 79.1976 74.9885 79.1976 68.9565V50.8323C79.1976 47.9208 79.1976 46.465 79.6626 45.3128C80.3127 43.702 81.59 42.4247 83.2009 41.7746C84.353 41.3095 85.8088 41.3095 88.7204 41.3095Z" stroke="white"/>
</svg>
