<svg width="251" height="177" viewBox="0 0 251 177" fill="none" xmlns="http://www.w3.org/2000/svg">
<path d="M19.832 63.75C19.2431 64.09 18.5907 64.3467 17.8748 64.52C17.1473 64.6867 16.3621 64.7533 15.5192 64.72C14.6878 64.68 13.816 64.5233 12.9038 64.25C11.9916 63.9767 11.0563 63.5633 10.0979 63.01C9.25492 62.5233 8.60252 62.0533 8.14064 61.6C7.66721 61.14 7.35544 60.7067 7.20533 60.3C7.05522 59.8933 7.03213 59.5133 7.13605 59.16C7.23997 58.8067 7.4305 58.4833 7.70763 58.19C7.98475 57.8967 8.31962 57.6367 8.71222 57.41C9.49741 56.9567 10.3634 56.6833 11.3103 56.59C12.2456 56.49 13.1751 56.5467 14.0989 56.76L13.5446 57.64L13.458 57.77L13.2848 57.73C13.2271 57.6567 13.1463 57.61 13.0423 57.59C12.9269 57.5633 12.7421 57.53 12.4881 57.49C11.8068 57.43 11.2468 57.4533 10.808 57.56C10.3692 57.6533 9.98239 57.7967 9.64752 57.99C9.19719 58.25 8.89119 58.5467 8.72954 58.88C8.56788 59.2 8.55056 59.55 8.67757 59.93C8.80459 60.2967 9.07595 60.68 9.49164 61.08C9.91888 61.4733 10.4847 61.8733 11.189 62.28C11.8703 62.6733 12.5631 62.9867 13.2675 63.22C13.9834 63.4467 14.6762 63.6 15.346 63.68C16.0272 63.7533 16.6566 63.75 17.2339 63.67C17.8228 63.5833 18.3251 63.42 18.7408 63.18C19.0295 63.0133 19.2546 62.8233 19.4163 62.61C19.5895 62.39 19.6934 62.1567 19.7281 61.91C19.7512 61.6567 19.7107 61.4067 19.6068 61.16L21.0964 60.98C21.3273 61.5133 21.3504 62.0067 21.1657 62.46C20.9809 62.9133 20.5363 63.3433 19.832 63.75ZM27.0546 59.6C26.7429 59.78 26.4022 59.9233 26.0327 60.03C25.6632 60.1367 25.2706 60.2033 24.8549 60.23C24.4392 60.2433 24.0062 60.2133 23.5559 60.14C23.1056 60.0667 22.6321 59.94 22.1356 59.76C21.6506 59.5733 21.1541 59.3333 20.646 59.04L16.2466 56.48L17.4591 55.78L21.8758 58.33C22.3723 58.6167 22.84 58.8333 23.2788 58.98C23.7175 59.1267 24.1217 59.2133 24.4912 59.24C24.8722 59.26 25.2187 59.2333 25.5304 59.16C25.8422 59.0867 26.1193 58.98 26.3618 58.84C26.6389 58.68 26.8526 58.4967 27.0027 58.29C27.1412 58.0767 27.199 57.85 27.1759 57.61C27.1643 57.3633 27.0431 57.1067 26.8121 56.84C26.5812 56.5733 26.229 56.3033 25.7556 56.03L21.3908 53.51L22.6033 52.81L29.289 56.67C29.4968 56.79 29.7104 56.9067 29.9298 57.02C30.1492 57.12 30.4033 57.2067 30.6919 57.28L29.4968 57.97C29.3005 57.9233 29.1273 57.87 28.9772 57.81C28.8156 57.7433 28.6597 57.6733 28.5096 57.6C28.371 57.52 28.2382 57.4433 28.1112 57.37C28.2036 57.57 28.2497 57.77 28.2497 57.97C28.2497 58.17 28.2036 58.37 28.1112 58.57C28.0188 58.7567 27.8802 58.9367 27.6955 59.11C27.5338 59.2833 27.3202 59.4467 27.0546 59.6ZM35.8708 54.49C35.432 54.7433 34.9643 54.96 34.4678 55.14C33.9828 55.3133 33.469 55.45 32.9263 55.55C32.3951 55.6433 31.8409 55.6967 31.2635 55.71L30.7785 54.63L30.7266 54.48L30.8998 54.46C31.0153 54.5 31.1365 54.5433 31.2635 54.59C31.3905 54.6233 31.5868 54.6433 31.8524 54.65C32.3374 54.65 32.8281 54.6 33.3247 54.5C33.8212 54.3867 34.335 54.1767 34.8662 53.87C35.2934 53.6233 35.5994 53.3867 35.7842 53.16C35.9805 52.9267 36.0671 52.71 36.044 52.51C36.0093 52.3033 35.865 52.1267 35.611 51.98C35.4378 51.88 35.253 51.8133 35.0567 51.78C34.8489 51.74 34.6064 51.7333 34.3292 51.76C34.0637 51.78 33.7461 51.83 33.3766 51.91C33.0071 51.99 32.5799 52.1033 32.0949 52.25C31.3213 52.4967 30.5938 52.6833 29.9125 52.81C29.2312 52.9367 28.6193 52.9833 28.0765 52.95C27.5223 52.91 27.0489 52.7767 26.6563 52.55C26.2521 52.3167 26.0154 52.0533 25.9461 51.76C25.8653 51.46 25.9577 51.14 26.2232 50.8C26.4888 50.4467 26.9392 50.0867 27.5742 49.72C27.9438 49.5067 28.3075 49.33 28.6654 49.19C29.0119 49.0433 29.364 48.9267 29.722 48.84C30.0799 48.7533 30.4437 48.6967 30.8132 48.67C31.1827 48.63 31.5695 48.6133 31.9737 48.62L32.1295 49.53L32.1469 49.68H31.9737C31.8697 49.6333 31.7543 49.6 31.6272 49.58C31.5002 49.5467 31.3097 49.53 31.0557 49.53C30.5822 49.5633 30.1261 49.6467 29.6874 49.78C29.237 49.9067 28.856 50.06 28.5442 50.24C28.0823 50.5067 27.7648 50.7833 27.5916 51.07C27.4184 51.3567 27.4992 51.5967 27.8341 51.79C28.0073 51.89 28.2382 51.9567 28.5269 51.99C28.8156 52.01 29.2082 51.9767 29.7047 51.89C30.1896 51.7967 30.819 51.6267 31.5926 51.38C32.4586 51.12 33.1976 50.94 33.8096 50.84C34.4216 50.7267 34.9528 50.7 35.4031 50.76C35.865 50.8133 36.2865 50.95 36.6675 51.17C37.1063 51.4233 37.395 51.73 37.5335 52.09C37.6837 52.4433 37.6317 52.8267 37.3777 53.24C37.1121 53.6467 36.6098 54.0633 35.8708 54.49ZM44.964 49.18C44.456 49.4733 43.9537 49.6633 43.4572 49.75C42.9606 49.8367 42.4468 49.8267 41.9156 49.72C41.3729 49.6067 40.7956 49.4067 40.1836 49.12C39.5831 48.8267 38.9134 48.4533 38.1744 48L32.7358 44.62L33.8789 43.78L34.0348 43.67L34.1734 43.73C34.1965 43.81 34.2253 43.8867 34.26 43.96C34.3062 44.0267 34.4158 44.1233 34.5891 44.25L36.3904 45.47L36.7541 45.62L39.4908 47.34C40.3337 47.8667 41.0381 48.2467 41.6039 48.48C42.1581 48.7067 42.6315 48.8133 43.0241 48.8C43.4052 48.78 43.7689 48.67 44.1153 48.47C44.4964 48.25 44.7562 48.0133 44.8948 47.76C45.0449 47.5 45.1661 47.21 45.2585 46.89L46.6268 47.24C46.5229 47.6333 46.3324 47.99 46.0552 48.31C45.7781 48.63 45.4144 48.92 44.964 49.18ZM32.9609 46.83L38.6594 43.54L39.6813 44.13L33.9828 47.42L32.9609 46.83ZM52.4465 44.88C51.7306 45.2933 50.9223 45.56 50.0216 45.68C49.121 45.7867 48.2087 45.7533 47.285 45.58C46.3497 45.4 45.4837 45.08 44.6869 44.62C43.8786 44.1533 43.3244 43.6533 43.0241 43.12C42.7124 42.58 42.6546 42.0533 42.8509 41.54C43.0472 41.0133 43.5033 40.5433 44.2193 40.13C44.9352 39.7167 45.7435 39.4567 46.6441 39.35C47.5448 39.23 48.4628 39.26 49.3981 39.44C50.3218 39.6133 51.1879 39.9333 51.9962 40.4C52.7929 40.86 53.3472 41.36 53.6589 41.9C53.9592 42.4333 54.0111 42.9633 53.8148 43.49C53.6185 44.0033 53.1624 44.4667 52.4465 44.88ZM51.4073 44.28C51.8691 44.0133 52.1405 43.7033 52.2213 43.35C52.3022 42.9967 52.2098 42.63 51.9442 42.25C51.6902 41.8633 51.2629 41.4967 50.6625 41.15C50.062 40.8033 49.427 40.5567 48.7572 40.41C48.0991 40.2567 47.4697 40.2067 46.8693 40.26C46.2573 40.3067 45.7204 40.4633 45.2585 40.73C44.8082 40.99 44.5368 41.3 44.4444 41.66C44.352 42.0067 44.4329 42.3733 44.6869 42.76C44.9525 43.14 45.3855 43.5033 45.9859 43.85C46.5864 44.1967 47.2157 44.4467 47.8739 44.6C48.5436 44.7467 49.1845 44.7967 49.7965 44.75C50.42 44.6967 50.9569 44.54 51.4073 44.28ZM56.9498 42.12L49.0344 37.55L50.1775 36.89L50.9569 37.34C50.8877 37.1533 50.8646 36.9733 50.8877 36.8C50.9107 36.6133 50.98 36.44 51.0955 36.28C51.2225 36.1133 51.3899 35.97 51.5978 35.85C51.8287 35.7167 52.0943 35.6233 52.3945 35.57C52.6832 35.51 52.9777 35.4933 53.2779 35.52C53.5897 35.54 53.8841 35.6033 54.1612 35.71C54.0342 35.5167 53.9707 35.32 53.9707 35.12C53.9822 34.9133 54.0573 34.7167 54.1959 34.53C54.3344 34.33 54.5307 34.1567 54.7848 34.01C55.0503 33.8567 55.3332 33.7533 55.6335 33.7C55.9337 33.6467 56.2397 33.6367 56.5515 33.67C56.8517 33.6967 57.1577 33.7667 57.4694 33.88C57.7697 33.9867 58.0583 34.1267 58.3355 34.3L64.415 37.81L63.2718 38.47L57.66 35.23C57.175 34.95 56.7882 34.7667 56.4995 34.68C56.2224 34.5867 55.9972 34.5567 55.824 34.59C55.6392 34.6167 55.4776 34.67 55.339 34.75C55.1196 34.8767 55.0157 35.0567 55.0273 35.29C55.0388 35.51 55.1312 35.7433 55.3044 35.99C55.4891 36.23 55.7316 36.4367 56.0318 36.61L61.2626 39.63L60.1022 40.3L54.5942 37.12C53.9361 36.74 53.4338 36.5233 53.0874 36.47C52.7525 36.41 52.4176 36.4767 52.0828 36.67C51.9557 36.7433 51.8691 36.8467 51.823 36.98C51.7768 37.1 51.7768 37.24 51.823 37.4C51.8576 37.5533 51.9557 37.7167 52.1174 37.89C52.2791 38.0633 52.51 38.2367 52.8102 38.41L58.093 41.46L56.9498 42.12ZM69.4899 35.08C68.9125 35.4133 68.3005 35.6667 67.6539 35.84C66.9957 36.0067 66.3202 36.09 65.6274 36.09C64.9461 36.0833 64.2591 35.9867 63.5663 35.8C62.8619 35.6067 62.1806 35.32 61.5224 34.94C60.8527 34.5533 60.3504 34.1567 60.0156 33.75C59.6922 33.3367 59.519 32.9367 59.4959 32.55C59.4728 32.15 59.5883 31.77 59.8424 31.41C60.1079 31.0433 60.489 30.7167 60.9855 30.43C61.4358 30.17 61.9324 29.97 62.4751 29.83C63.0178 29.69 63.5894 29.6267 64.1898 29.64C64.7787 29.6467 65.3907 29.74 66.0258 29.92C66.6724 30.0933 67.319 30.3667 67.9657 30.74C68.058 30.7933 68.1504 30.8533 68.2428 30.92C68.3352 30.9733 68.4218 31.03 68.5026 31.09L62.8734 34.34C63.4046 34.62 63.9358 34.8267 64.4669 34.96C64.9865 35.0867 65.4888 35.15 65.9738 35.15C66.4472 35.1433 66.8976 35.0833 67.3248 34.97C67.7636 34.85 68.162 34.6867 68.5199 34.48C68.7971 34.32 69.028 34.1533 69.2127 33.98C69.386 33.8 69.513 33.6133 69.5938 33.42C69.6746 33.2133 69.7035 33.0033 69.6804 32.79L71.0487 32.78C71.0949 33.06 71.066 33.3367 70.9621 33.61C70.8697 33.8767 70.6965 34.13 70.4425 34.37C70.2 34.6167 69.8825 34.8533 69.4899 35.08ZM61.9555 33.75L66.3029 31.24C65.9334 31.0267 65.5523 30.8667 65.1597 30.76C64.7672 30.64 64.3746 30.5733 63.982 30.56C63.5894 30.5333 63.2141 30.5633 62.8561 30.65C62.4982 30.7233 62.1633 30.85 61.8515 31.03C61.5744 31.19 61.355 31.37 61.1934 31.57C61.0432 31.7633 60.9682 31.98 60.9682 32.22C60.9566 32.4533 61.0259 32.7 61.176 32.96C61.3377 33.2133 61.5975 33.4767 61.9555 33.75ZM67.065 27.14L68.364 26.39L70.6157 27.75L70.2 27.69C69.9113 27.4433 69.715 27.19 69.6111 26.93C69.5072 26.67 69.4841 26.4167 69.5418 26.17C69.588 25.9167 69.7093 25.68 69.9056 25.46C70.0903 25.2333 70.3386 25.03 70.6503 24.85C71.066 24.61 71.5221 24.4333 72.0187 24.32C72.5152 24.1933 73.0464 24.1333 73.6122 24.14L74.0278 25.02L74.1145 25.15L73.9239 25.18C73.8085 25.14 73.6872 25.11 73.5602 25.09C73.4332 25.07 73.2369 25.07 72.9713 25.09C72.6711 25.13 72.4228 25.1867 72.2265 25.26C72.0302 25.32 71.8339 25.4067 71.6376 25.52C71.3489 25.6867 71.118 25.8867 70.9448 26.12C70.76 26.3467 70.6619 26.5967 70.6503 26.87C70.6503 27.1367 70.76 27.4133 70.9794 27.7C71.1988 27.9867 71.5568 28.2733 72.0533 28.56L76.2622 30.99L74.9978 31.72L67.065 27.14ZM93.7213 20.97L79.172 16.81L80.4364 16.08L91.5042 19.27L85.8404 12.98L87.0356 12.29L94.2755 20.65L93.7213 20.97ZM98.8828 17.91L88.0921 11.68L91.5562 9.68C92.3645 9.21333 93.1555 8.91667 93.9291 8.79C94.7028 8.66333 95.436 8.66667 96.1288 8.8C96.8216 8.92 97.451 9.14333 98.0168 9.47C98.4324 9.71 98.7558 9.97 98.9867 10.25C99.2176 10.53 99.3331 10.83 99.3331 11.15C99.3447 11.4633 99.2176 11.7833 98.9521 12.11C98.6865 12.4367 98.2592 12.77 97.6703 13.11L95.3667 14.44L100.13 17.19L98.8828 17.91ZM94.2928 13.82L96.4579 12.57C96.9891 12.2633 97.3413 11.9733 97.5145 11.7C97.6761 11.42 97.6934 11.1567 97.5664 10.91C97.4279 10.6567 97.1738 10.4233 96.8043 10.21C96.4464 10.0033 96.048 9.86 95.6092 9.78C95.1704 9.7 94.7028 9.70333 94.2062 9.79C93.6982 9.87 93.1843 10.06 92.6647 10.36L90.4823 11.62L94.2928 13.82ZM111.284 10.95C110.695 11.29 110.043 11.5467 109.327 11.72C108.6 11.8867 107.814 11.9533 106.971 11.92C106.14 11.88 105.268 11.7233 104.356 11.45C103.444 11.1767 102.509 10.7633 101.55 10.21C100.707 9.72333 100.055 9.25333 99.5929 8.8C99.1195 8.34 98.8077 7.90667 98.6576 7.5C98.5075 7.09333 98.4844 6.71333 98.5883 6.36C98.6923 6.00667 98.8828 5.68333 99.1599 5.39C99.437 5.09667 99.7719 4.83667 100.164 4.61C100.95 4.15667 101.816 3.88333 102.763 3.79C103.698 3.69 104.627 3.74667 105.551 3.96L104.997 4.84L104.91 4.97L104.737 4.93C104.679 4.85667 104.599 4.81 104.495 4.79C104.379 4.76333 104.194 4.73 103.94 4.69C103.259 4.63 102.699 4.65333 102.26 4.76C101.821 4.85333 101.435 4.99667 101.1 5.19C100.649 5.45 100.343 5.74667 100.182 6.08C100.02 6.4 100.003 6.75 100.13 7.13C100.257 7.49667 100.528 7.88 100.944 8.28C101.371 8.67333 101.937 9.07333 102.641 9.48C103.323 9.87333 104.015 10.1867 104.72 10.42C105.436 10.6467 106.129 10.8 106.798 10.88C107.48 10.9533 108.109 10.95 108.686 10.87C109.275 10.7833 109.777 10.62 110.193 10.38C110.482 10.2133 110.707 10.0233 110.869 9.81C111.042 9.59 111.146 9.35667 111.18 9.11C111.203 8.85667 111.163 8.60667 111.059 8.36L112.549 8.18C112.78 8.71333 112.803 9.20667 112.618 9.66C112.433 10.1133 111.989 10.5433 111.284 10.95Z" fill="black"/>
<path d="M132.037 13.5C134.429 12.1193 138.306 12.1193 140.697 13.5L246.671 74.6842C249.063 76.0649 249.063 78.3035 246.671 79.6842L138.965 141.868C136.574 143.249 132.696 143.249 130.305 141.868L24.3308 80.6842C21.9394 79.3035 21.9394 77.0649 24.3308 75.6842L132.037 13.5Z" fill="#B7D0F6" stroke="black" stroke-linejoin="bevel"/>
<rect width="118.637" height="33.8964" transform="matrix(0.866025 -0.5 0 1 142.777 140.536)" fill="#B7B7B7" stroke="black" stroke-linejoin="bevel"/>
<path d="M22.3203 76.98C22.3203 78.6347 23.482 80.1327 25.3601 81.217V115.113C23.482 114.029 22.3203 112.531 22.3203 110.876V76.98Z" fill="#B7B7B7" stroke="black" stroke-linejoin="bevel"/>
<path d="M128.1 140.536C132.153 142.876 138.724 142.876 142.777 140.536V174.432C138.724 176.772 132.153 176.772 128.1 174.432V140.536Z" fill="#B7B7B7" stroke="black" stroke-linejoin="bevel"/>
<path d="M248.563 76.98C248.563 78.6347 247.402 80.1327 245.523 81.217V115.113C247.402 114.029 248.563 112.531 248.563 110.876V76.98Z" fill="#B7B7B7" stroke="black" stroke-linejoin="bevel"/>
<path d="M127.336 174.432L25.6465 115.113V82.0645L127.336 140.536V174.432Z" fill="#E7E7E7" stroke="black"/>
<circle cx="54.5898" cy="54.5898" r="54.5898" transform="matrix(0.866025 0.5 -0.866025 0.5 134.553 13)" fill="white" stroke="black" stroke-linejoin="bevel"/>
<path d="M67.6934 67.5894C67.6934 78.2487 75.1768 87.8989 87.2758 94.8843V113.081C75.1768 106.095 67.6934 96.4453 67.6934 85.786V67.5894Z" fill="#E7E7E7" stroke="black" stroke-linejoin="bevel"/>
<path d="M87.2715 94.8848C113.381 109.959 155.714 109.959 181.824 94.8848V113.081C155.714 128.156 113.381 128.156 87.2715 113.081V94.8848Z" fill="#B7B7B7" stroke="black" stroke-linejoin="bevel"/>
<path d="M201.405 67.5894C201.405 78.2487 193.921 87.8989 181.822 94.8843V113.081C193.921 106.095 201.405 96.4453 201.405 85.786V67.5894Z" fill="#B7B7B7" stroke="black" stroke-linejoin="bevel"/>
<path d="M159.997 53.2033C161.992 52.0516 162.99 51.4757 163.457 50.834C164.11 49.9367 164.101 48.9207 163.43 48.0192C162.951 47.3745 161.942 46.7923 159.925 45.6278L146.949 38.1357C142.77 35.7232 140.681 34.517 138.099 34.5089C135.517 34.5007 133.451 35.6937 129.318 38.0798L121.373 42.6669C115.003 46.3444 111.818 48.1832 112.639 50.1404C113.461 52.0975 117.768 52.9332 126.382 54.6047L142.838 57.7977C145.709 58.3548 146.591 60.4565 144.468 61.6823C143.389 62.305 141.788 62.5194 140.329 62.2364L108.084 55.9796C104.526 55.2893 102.747 54.9441 101.029 55.174C99.3118 55.404 97.9963 56.1635 95.3654 57.6824L92.7422 59.197C88.6093 61.5831 86.5429 62.7761 86.5571 64.2668C86.5713 65.7575 88.6605 66.9637 92.8389 69.3762L105.394 76.6247C107.411 77.7892 108.419 78.3714 108.899 79.0161C109.569 79.9176 109.579 80.9336 108.925 81.8309C108.458 82.4726 107.461 83.0485 105.466 84.2002C103.471 85.352 102.473 85.9278 102.006 86.5696C101.353 87.4668 101.363 88.4829 102.033 89.3843C102.512 90.0291 103.521 90.6113 105.538 91.7757L118.515 99.2679C122.693 101.68 124.782 102.887 127.364 102.895C129.946 102.903 132.013 101.71 136.145 99.3238L136.145 99.3237L144.09 94.7367C150.46 91.0591 153.645 89.2203 152.824 87.2632C152.003 85.3061 147.696 84.4703 139.081 82.7989L122.626 79.6058C119.754 79.0487 118.872 76.947 120.996 75.7213C122.074 75.0985 123.676 74.8841 125.134 75.1672L157.379 81.4239C160.937 82.1143 162.716 82.4595 164.434 82.2295C166.151 81.9995 167.467 81.2401 170.098 79.7211L170.098 79.7211L172.721 78.2066C176.854 75.8205 178.92 74.6274 178.906 73.1367C178.892 71.646 176.803 70.4398 172.624 68.0274L160.069 60.7788C158.053 59.6144 157.044 59.0321 156.565 58.3874C155.894 57.486 155.885 56.4699 156.538 55.5727C157.005 54.9309 158.003 54.3551 159.997 53.2033Z" fill="#272F30"/>
<path d="M159.997 53.2033C161.992 52.0516 162.99 51.4757 163.457 50.834C164.11 49.9367 164.101 48.9207 163.43 48.0192C162.951 47.3745 161.942 46.7923 159.925 45.6278L146.949 38.1357C142.77 35.7232 140.681 34.517 138.099 34.5089C135.517 34.5007 133.451 35.6937 129.318 38.0798L121.373 42.6669C115.003 46.3444 111.818 48.1832 112.639 50.1404C113.461 52.0975 117.768 52.9332 126.382 54.6047L142.838 57.7977C145.709 58.3548 146.591 60.4565 144.468 61.6823C143.389 62.305 141.788 62.5194 140.329 62.2364L108.084 55.9796C104.526 55.2893 102.747 54.9441 101.029 55.174C99.3118 55.404 97.9963 56.1635 95.3654 57.6824L92.7422 59.197C88.6093 61.5831 86.5429 62.7761 86.5571 64.2668C86.5713 65.7575 88.6605 66.9637 92.8389 69.3762L105.394 76.6247C107.411 77.7892 108.419 78.3714 108.899 79.0161C109.569 79.9176 109.579 80.9336 108.925 81.8309C108.458 82.4726 107.461 83.0485 105.466 84.2002C103.471 85.352 102.473 85.9278 102.006 86.5696C101.353 87.4668 101.363 88.4829 102.033 89.3843C102.512 90.0291 103.521 90.6113 105.538 91.7757L118.515 99.2679C122.693 101.68 124.782 102.887 127.364 102.895C129.946 102.903 132.013 101.71 136.145 99.3238L136.145 99.3237L144.09 94.7367C150.46 91.0591 153.645 89.2203 152.824 87.2632C152.003 85.3061 147.696 84.4703 139.081 82.7989L122.626 79.6058C119.754 79.0487 118.872 76.947 120.996 75.7213C122.074 75.0985 123.676 74.8841 125.134 75.1672L157.379 81.4239C160.937 82.1143 162.716 82.4595 164.434 82.2295C166.151 81.9995 167.467 81.2401 170.098 79.7211L170.098 79.7211L172.721 78.2066C176.854 75.8205 178.92 74.6274 178.906 73.1367C178.892 71.646 176.803 70.4398 172.624 68.0274L160.069 60.7788C158.053 59.6144 157.044 59.0321 156.565 58.3874C155.894 57.486 155.885 56.4699 156.538 55.5727C157.005 54.9309 158.003 54.3551 159.997 53.2033Z" stroke="white"/>
</svg>
