<svg width="586" height="497" viewBox="0 0 586 497" fill="none" xmlns="http://www.w3.org/2000/svg">
<g filter="url(#filter0_d_3082_374)">
<path d="M570 85.1848V187.937C570 195.935 570 201.885 569.684 206.627C569.37 211.36 568.745 214.818 567.53 217.838C564.075 226.423 557.29 233.228 548.734 236.692C545.723 237.911 542.277 238.538 537.559 238.853C532.832 239.169 526.901 239.17 518.927 239.17H518.889C510.96 239.17 504.963 239.17 500.161 239.491C495.344 239.813 491.66 240.461 488.37 241.793C479.309 245.462 472.125 252.668 468.469 261.755C467.142 265.053 466.495 268.748 466.174 273.58C465.854 278.395 465.854 284.411 465.854 292.364V292.402V391.814C465.854 408.385 465.852 420.713 464.582 430.187C463.316 439.633 460.806 446.092 455.899 451.014C450.992 455.936 444.554 458.453 435.138 459.723C425.694 460.997 413.404 460.999 396.884 460.999H375.947C365.428 460.999 357.614 460.997 351.373 460.351C345.155 459.707 340.582 458.429 336.534 455.925C332.485 453.42 329.294 449.895 325.928 444.61C322.55 439.306 319.041 432.302 314.318 422.874L228.889 252.309C224.855 244.256 216.638 239.171 207.65 239.171C189.957 239.171 178.473 257.861 186.411 273.709L230.009 360.755C241.435 383.568 249.951 400.577 254.346 413.965C258.738 427.34 258.928 436.844 254.034 444.804C249.14 452.764 240.59 456.859 226.706 458.927C212.806 460.997 193.832 461 168.38 461H104.97C88.4497 461 76.1602 460.998 66.7157 459.724C57.3002 458.454 50.8619 455.938 45.9551 451.016C41.0479 446.093 38.5381 439.634 37.272 430.188C36.0021 420.714 36 408.386 36 391.815L36 289.063C36 281.065 36.0005 275.115 36.3156 270.373C36.6302 265.64 37.2551 262.183 38.4705 259.162C41.9247 250.577 48.7099 243.772 57.2663 240.308C60.2767 239.089 63.7229 238.463 68.4408 238.147C73.1675 237.831 79.099 237.83 87.073 237.83H87.1113C95.0395 237.83 101.037 237.83 105.839 237.509C110.656 237.187 114.34 236.539 117.63 235.207C126.691 231.538 133.875 224.332 137.531 215.246C138.858 211.947 139.505 208.252 139.826 203.42C140.146 198.605 140.146 192.589 140.146 184.636V184.598L140.146 85.1861C140.146 68.6152 140.148 56.2874 141.418 46.8131C142.684 37.3673 145.194 30.908 150.101 25.9857C155.008 21.0639 161.446 18.5469 170.862 17.2772C180.306 16.0035 192.596 16.0014 209.116 16.0014L230.053 16.0014C240.572 16.0014 248.386 16.0026 254.627 16.649C260.845 17.2929 265.418 18.5708 269.466 21.0751C273.515 23.5796 276.706 27.1047 280.072 32.3899C283.45 37.6944 286.959 44.6978 291.682 54.1261L377.111 224.691C381.145 232.745 389.362 237.829 398.35 237.829C416.043 237.829 427.527 219.139 419.589 203.291L375.991 116.245C364.565 93.4321 356.049 76.4234 351.654 63.0351C347.262 49.6604 347.072 40.156 351.966 32.1956C356.86 24.2363 365.41 20.1412 379.294 18.0731C393.194 16.0027 412.168 16 437.62 16L501.03 16C517.55 16 529.84 16.0021 539.284 17.2758C548.7 18.5456 555.138 21.0625 560.045 25.9844C564.952 30.9066 567.462 37.3659 568.728 46.8118C569.998 56.286 570 68.6139 570 85.1848Z" fill="#272F30" stroke="#272F30" strokeWidth="2"/>
<path d="M526.735 237.273C524.013 238.375 520.892 238.943 516.61 239.229C512.319 239.516 506.934 239.516 499.687 239.516H499.649C492.449 239.516 486.997 239.516 482.631 239.808C478.249 240.101 474.891 240.691 471.889 241.906C463.634 245.247 457.089 251.811 453.758 260.087C452.546 263.096 451.958 266.463 451.666 270.856C451.375 275.233 451.375 280.7 451.375 287.92V287.958V378.252C451.375 393.305 451.373 404.495 450.22 413.093C449.071 421.662 446.795 427.506 442.357 431.957C437.918 436.408 432.091 438.689 423.546 439.841C414.973 440.997 403.814 440.999 388.801 440.999H369.779C360.219 440.999 353.125 440.998 347.46 440.411C341.818 439.827 337.679 438.669 334.016 436.404C330.353 434.139 327.463 430.949 324.409 426.156C321.343 421.343 318.157 414.987 313.865 406.421L236.246 251.501C232.565 244.155 225.067 239.518 216.866 239.518C200.723 239.518 190.245 256.566 197.487 271.021L237.1 350.083C247.483 370.806 255.216 386.247 259.207 398.4C263.194 410.538 263.358 419.138 258.933 426.333C254.508 433.528 246.772 437.241 234.167 439.118C221.546 440.997 204.315 441 181.186 441H123.574C108.561 441 97.4021 440.998 88.8285 439.842C80.2839 438.69 74.4566 436.409 70.0182 431.958C65.5794 427.507 63.3039 421.663 62.1549 413.094C61.0021 404.496 61 393.306 61 378.253L61 284.925C61 277.659 61.0005 272.259 61.2866 267.956C61.5721 263.662 62.1388 260.532 63.238 257.801C66.3671 250.027 72.5138 243.864 80.265 240.727C82.9874 239.625 86.1077 239.057 90.3898 238.771C94.6807 238.484 100.066 238.484 107.313 238.484H107.351C114.551 238.484 120.003 238.484 124.369 238.192C128.751 237.899 132.109 237.309 135.111 236.094C143.366 232.753 149.911 226.189 153.243 217.913C154.454 214.904 155.042 211.537 155.334 207.144C155.625 202.767 155.625 197.3 155.625 190.08V190.042L155.625 99.7485C155.625 84.6949 155.627 73.5051 156.78 64.9074C157.929 56.3381 160.205 50.4939 164.643 46.043C169.082 41.5924 174.909 39.3111 183.454 38.1592C192.027 37.0034 203.186 37.0012 218.199 37.0012L237.221 37.0012C246.781 37.0012 253.875 37.0025 259.54 37.5889C265.182 38.173 269.321 39.3311 272.984 41.596C276.647 43.861 279.537 47.0505 282.591 51.8442C285.657 56.6573 288.843 63.0133 293.135 71.5786L370.754 226.499C374.435 233.845 381.933 238.482 390.134 238.482C406.277 238.482 416.755 221.434 409.513 206.979L369.9 127.917C359.517 107.194 351.784 91.7528 347.793 79.6004C343.806 67.4619 343.642 58.8622 348.067 51.6665C352.492 44.4718 360.228 40.7589 372.833 38.8819C385.454 37.0027 402.685 37 425.814 37L483.426 37C498.439 37 509.598 37.0021 518.172 38.158C526.716 39.3099 532.543 41.5912 536.982 46.0417C541.421 50.4926 543.696 56.3369 544.845 64.9061C545.998 73.5039 546 84.6937 546 99.7473V193.075C546 200.341 545.999 205.741 545.713 210.044C545.428 214.338 544.861 217.468 543.762 220.199C540.633 227.973 534.486 234.136 526.735 237.273Z" stroke="white" strokeWidth="2"/>
<path d="M506 130.227V208.154C506 214.223 505.999 218.726 505.761 222.312C505.523 225.889 505.051 228.483 504.142 230.74C501.543 237.189 496.439 242.302 490.003 244.905C487.75 245.816 485.162 246.288 481.591 246.527C478.012 246.766 473.518 246.766 467.46 246.766H467.421C461.409 246.766 456.848 246.766 453.194 247.01C449.524 247.255 446.698 247.75 444.167 248.773C437.226 251.58 431.723 257.093 428.922 264.045C427.901 266.581 427.407 269.411 427.163 273.088C426.919 276.748 426.919 281.317 426.919 287.341V287.379V362.772C426.919 375.346 426.917 384.676 425.955 391.841C424.998 398.978 423.104 403.817 419.43 407.498C415.757 411.178 410.927 413.074 403.804 414.034C396.653 414.997 387.34 414.999 374.789 414.999H358.891C350.899 414.999 344.98 414.998 340.256 414.509C335.555 414.023 332.122 413.06 329.089 411.187C326.057 409.313 323.657 406.672 321.112 402.681C318.556 398.672 315.897 393.373 312.309 386.219L247.44 256.864C244.337 250.675 238.013 246.767 231.098 246.767C217.485 246.767 208.647 261.131 214.756 273.311L247.861 339.326C256.54 356.634 262.997 369.514 266.327 379.646C269.654 389.765 269.774 396.886 266.114 402.832C262.454 408.777 256.05 411.866 245.532 413.43C235 414.997 220.614 415 201.279 415H153.13C140.579 415 131.266 414.998 124.115 414.035C116.992 413.075 112.162 411.179 108.489 407.499C104.815 403.818 102.921 398.979 101.964 391.842C101.002 384.677 101 375.347 101 362.773L101 284.847C101 278.777 101.001 274.274 101.239 270.688C101.477 267.111 101.949 264.517 102.858 262.26C105.457 255.811 110.561 250.698 116.997 248.095C119.25 247.184 121.838 246.712 125.409 246.473C128.988 246.234 133.482 246.234 139.541 246.234H139.579C145.591 246.234 150.152 246.234 153.806 245.99C157.476 245.745 160.302 245.25 162.833 244.227C169.774 241.42 175.277 235.907 178.078 228.955C179.099 226.419 179.593 223.589 179.837 219.912C180.081 216.252 180.081 211.683 180.081 205.659V205.621L180.081 130.228C180.081 117.654 180.083 108.324 181.045 101.159C182.002 94.0223 183.896 89.1831 187.57 85.5025C191.243 81.8221 196.073 79.9258 203.196 78.9665C210.347 78.0032 219.66 78.001 232.211 78.001L248.109 78.001C256.101 78.001 262.02 78.0023 266.744 78.4909C271.446 78.9771 274.878 79.9395 277.911 81.8131C280.943 83.6867 283.343 86.328 285.888 90.3185C288.444 94.3285 291.103 99.6267 294.691 106.781L359.56 236.136C362.663 242.325 368.987 246.233 375.902 246.233C389.516 246.233 398.353 231.869 392.245 219.689L359.139 153.674C350.46 136.366 344.003 123.486 340.673 113.354C337.346 103.235 337.226 96.114 340.886 90.168C344.546 84.2225 350.95 81.1343 361.468 79.5696C372 78.0027 386.386 78 405.721 78L453.87 78C466.421 78 475.734 78.0021 482.885 78.9654C490.008 79.9248 494.838 81.821 498.512 85.5014C502.185 89.1821 504.079 94.0212 505.036 101.158C505.998 108.323 506 117.653 506 130.227Z" fill="#272F30" stroke="white" strokeWidth="2"/>
</g>
<defs>
<filter id="filter0_d_3082_374" x="0" y="0" width="586" height="497" filterUnits="userSpaceOnUse" colorInterpolationFilters="sRGB">
<feFlood floodOpacity="0" result="BackgroundImageFix"/>
<feColorMatrix in="SourceAlpha" type="matrix" values="0 0 0 0 0 0 0 0 0 0 0 0 0 0 0 0 0 0 127 0" result="hardAlpha"/>
<feOffset dx="-10" dy="10"/>
<feGaussianBlur stdDeviation="12.5"/>
<feComposite in2="hardAlpha" operator="out"/>
<feColorMatrix type="matrix" values="0 0 0 0 0 0 0 0 0 0 0 0 0 0 0 0 0 0 0.25 0"/>
<feBlend mode="normal" in2="BackgroundImageFix" result="effect1_dropShadow_3082_374"/>
<feBlend mode="normal" in="SourceGraphic" in2="effect1_dropShadow_3082_374" result="shape"/>
</filter>
</defs>
</svg>
