<svg width="544" height="455" viewBox="0 0 544 455" fill="none" xmlns="http://www.w3.org/2000/svg">
<g filter="url(#filter0_d_3082_374)">
<path d="M539 70.1848V172.937C539 180.935 539 186.885 538.684 191.627C538.37 196.36 537.745 199.818 536.53 202.838C533.075 211.423 526.29 218.228 517.734 221.692C514.723 222.911 511.277 223.538 506.559 223.853C501.832 224.169 495.901 224.17 487.927 224.17H487.889C479.96 224.17 473.963 224.17 469.161 224.491C464.344 224.813 460.66 225.461 457.37 226.793C448.309 230.462 441.125 237.668 437.469 246.755C436.142 250.053 435.495 253.748 435.174 258.58C434.854 263.395 434.854 269.411 434.854 277.364V277.402V376.814C434.854 393.385 434.852 405.713 433.582 415.187C432.316 424.633 429.806 431.092 424.899 436.014C419.992 440.936 413.554 443.453 404.138 444.723C394.694 445.997 382.404 445.999 365.884 445.999H344.947C334.428 445.999 326.614 445.997 320.373 445.351C314.155 444.707 309.582 443.429 305.534 440.925C301.485 438.42 298.294 434.895 294.928 429.61C291.55 424.306 288.041 417.302 283.318 407.874L197.889 237.309C193.855 229.256 185.638 224.171 176.65 224.171C158.957 224.171 147.473 242.861 155.411 258.709L199.009 345.755C210.435 368.568 218.951 385.577 223.346 398.965C227.738 412.34 227.928 421.844 223.034 429.804C218.14 437.764 209.59 441.859 195.706 443.927C181.806 445.997 162.832 446 137.38 446H73.9702C57.4497 446 45.1602 445.998 35.7157 444.724C26.3002 443.454 19.8619 440.938 14.9551 436.016C10.0479 431.093 7.53808 424.634 6.272 415.188C5.00212 405.714 5.00001 393.386 5 376.815L5 274.063C5 266.065 5.00051 260.115 5.31565 255.373C5.63021 250.64 6.25508 247.183 7.47051 244.162C10.9247 235.577 17.7099 228.772 26.2663 225.308C29.2767 224.089 32.7229 223.463 37.4408 223.147C42.1675 222.831 48.099 222.83 56.073 222.83H56.1113C64.0395 222.83 70.0374 222.83 74.8386 222.509C79.6563 222.187 83.3405 221.539 86.6302 220.207C95.6912 216.538 102.875 209.332 106.531 200.246C107.858 196.947 108.505 193.252 108.826 188.42C109.146 183.605 109.146 177.589 109.146 169.636V169.598L109.146 70.1861C109.146 53.6152 109.148 41.2874 110.418 31.8131C111.684 22.3673 114.194 15.908 119.101 10.9857C124.008 6.06386 130.446 3.54694 139.862 2.27718C149.306 1.00349 161.596 1.00136 178.116 1.00135L199.053 1.00135C209.572 1.00135 217.386 1.00259 223.627 1.64895C229.845 2.29292 234.418 3.57076 238.466 6.07514C242.515 8.57964 245.706 12.1047 249.072 17.3899C252.45 22.6944 255.959 29.6978 260.682 39.1261L346.111 209.691C350.145 217.745 358.362 222.829 367.35 222.829C385.043 222.829 396.527 204.139 388.589 188.291L344.991 101.245C333.565 78.4321 325.049 61.4234 320.654 48.0351C316.262 34.6604 316.072 25.156 320.966 17.1956C325.86 9.23625 334.41 5.14122 348.294 3.07306C362.194 1.00267 381.168 0.999997 406.62 1L470.03 1.00001C486.55 1.00001 498.84 1.00215 508.284 2.27583C517.7 3.54559 524.138 6.06251 529.045 10.9844C533.952 15.9066 536.462 22.3659 537.728 31.8118C538.998 41.286 539 53.6139 539 70.1848Z" fill="#272F30" stroke="#272F30" stroke-width="2"/>
<path d="M495.735 222.273C493.013 223.375 489.892 223.943 485.61 224.229C481.319 224.516 475.934 224.516 468.687 224.516H468.649C461.449 224.516 455.997 224.516 451.631 224.808C447.249 225.101 443.891 225.691 440.889 226.906C432.634 230.247 426.089 236.811 422.758 245.087C421.546 248.096 420.958 251.463 420.666 255.856C420.375 260.233 420.375 265.7 420.375 272.92V272.958V363.252C420.375 378.305 420.373 389.495 419.22 398.093C418.071 406.662 415.795 412.506 411.357 416.957C406.918 421.408 401.091 423.689 392.546 424.841C383.973 425.997 372.814 425.999 357.801 425.999H338.779C329.219 425.999 322.125 425.998 316.46 425.411C310.818 424.827 306.679 423.669 303.016 421.404C299.353 419.139 296.463 415.949 293.409 411.156C290.343 406.343 287.157 399.987 282.865 391.421L205.246 236.501C201.565 229.155 194.067 224.518 185.866 224.518C169.723 224.518 159.245 241.566 166.487 256.021L206.1 335.083C216.483 355.806 224.216 371.247 228.207 383.4C232.194 395.538 232.358 404.138 227.933 411.333C223.508 418.528 215.772 422.241 203.167 424.118C190.546 425.997 173.315 426 150.186 426H92.5737C77.5609 426 66.4021 425.998 57.8285 424.842C49.2839 423.69 43.4566 421.409 39.0182 416.958C34.5794 412.507 32.3039 406.663 31.1549 398.094C30.0021 389.496 30 378.306 30 363.253L30 269.925C30 262.659 30.0005 257.259 30.2866 252.956C30.5721 248.662 31.1388 245.532 32.238 242.801C35.3671 235.027 41.5138 228.864 49.265 225.727C51.9874 224.625 55.1077 224.057 59.3898 223.771C63.6807 223.484 69.0663 223.484 76.3126 223.484H76.3509C83.5514 223.484 89.0035 223.484 93.3688 223.192C97.7506 222.899 101.109 222.309 104.111 221.094C112.366 217.753 118.911 211.189 122.243 202.913C123.454 199.904 124.042 196.537 124.334 192.144C124.625 187.767 124.625 182.3 124.625 175.08V175.042L124.625 84.7485C124.625 69.6949 124.627 58.5051 125.78 49.9074C126.929 41.3381 129.205 35.4939 133.643 31.043C138.082 26.5924 143.909 24.3111 152.454 23.1592C161.027 22.0034 172.186 22.0012 187.199 22.0012L206.221 22.0012C215.781 22.0012 222.875 22.0025 228.54 22.5889C234.182 23.173 238.321 24.3311 241.984 26.596C245.647 28.861 248.537 32.0505 251.591 36.8442C254.657 41.6573 257.843 48.0133 262.135 56.5786L339.754 211.499C343.435 218.845 350.933 223.482 359.134 223.482C375.277 223.482 385.755 206.434 378.513 191.979L338.9 112.917C328.517 92.1941 320.784 76.7528 316.793 64.6004C312.806 52.4619 312.642 43.8622 317.067 36.6665C321.492 29.4718 329.228 25.7589 341.833 23.8819C354.454 22.0027 371.685 22 394.814 22L452.426 22C467.439 22 478.598 22.0021 487.172 23.158C495.716 24.3099 501.543 26.5912 505.982 31.0417C510.421 35.4926 512.696 41.3369 513.845 49.9061C514.998 58.5039 515 69.6937 515 84.7473V178.075C515 185.341 514.999 190.741 514.713 195.044C514.428 199.338 513.861 202.468 512.762 205.199C509.633 212.973 503.486 219.136 495.735 222.273Z" stroke="white" stroke-width="2"/>
<path d="M475 115.227V193.154C475 199.223 474.999 203.726 474.761 207.312C474.523 210.889 474.051 213.483 473.142 215.74C470.543 222.189 465.439 227.302 459.003 229.905C456.75 230.816 454.162 231.288 450.591 231.527C447.012 231.766 442.518 231.766 436.46 231.766H436.421C430.409 231.766 425.848 231.766 422.194 232.01C418.524 232.255 415.698 232.75 413.167 233.773C406.226 236.58 400.723 242.093 397.922 249.045C396.901 251.581 396.407 254.411 396.163 258.088C395.919 261.748 395.919 266.317 395.919 272.341V272.379V347.772C395.919 360.346 395.917 369.676 394.955 376.841C393.998 383.978 392.104 388.817 388.43 392.498C384.757 396.178 379.927 398.074 372.804 399.034C365.653 399.997 356.34 399.999 343.789 399.999H327.891C319.899 399.999 313.98 399.998 309.256 399.509C304.555 399.023 301.122 398.06 298.089 396.187C295.057 394.313 292.657 391.672 290.112 387.681C287.556 383.672 284.897 378.373 281.309 371.219L216.44 241.864C213.337 235.675 207.013 231.767 200.098 231.767C186.485 231.767 177.647 246.131 183.756 258.311L216.861 324.326C225.54 341.634 231.997 354.514 235.327 364.646C238.654 374.765 238.774 381.886 235.114 387.832C231.454 393.777 225.05 396.866 214.532 398.43C204 399.997 189.614 400 170.279 400H122.13C109.579 400 100.266 399.998 93.1146 399.035C85.9918 398.075 81.1622 396.179 77.4885 392.499C73.8146 388.818 71.9215 383.979 70.9637 376.842C70.0021 369.677 70 360.347 70 347.773L70 269.847C70 263.777 70.0005 259.274 70.2391 255.688C70.4772 252.111 70.949 249.517 71.8584 247.26C74.4567 240.811 79.5608 235.698 85.9973 233.095C88.2497 232.184 90.838 231.712 94.4085 231.473C97.9878 231.234 102.482 231.234 108.541 231.234H108.579C114.591 231.234 119.152 231.234 122.806 230.99C126.476 230.745 129.302 230.25 131.833 229.227C138.774 226.42 144.277 220.907 147.078 213.955C148.099 211.419 148.593 208.589 148.837 204.912C149.081 201.252 149.081 196.683 149.081 190.659V190.621L149.081 115.228C149.081 102.654 149.083 93.3243 150.045 86.159C151.002 79.0223 152.896 74.1831 156.57 70.5025C160.243 66.8221 165.073 64.9258 172.196 63.9665C179.347 63.0032 188.66 63.001 201.211 63.001L217.109 63.001C225.101 63.001 231.02 63.0023 235.744 63.4909C240.446 63.9771 243.878 64.9395 246.911 66.8131C249.943 68.6867 252.343 71.328 254.888 75.3185C257.444 79.3285 260.103 84.6267 263.691 91.7815L328.56 221.136C331.663 227.325 337.987 231.233 344.902 231.233C358.516 231.233 367.353 216.869 361.245 204.689L328.139 138.674C319.46 121.366 313.003 108.486 309.673 98.3536C306.346 88.2349 306.226 81.114 309.886 75.168C313.546 69.2225 319.95 66.1343 330.468 64.5696C341 63.0027 355.386 63 374.721 63L422.87 63C435.421 63 444.734 63.0021 451.885 63.9654C459.008 64.9248 463.838 66.821 467.512 70.5014C471.185 74.1821 473.079 79.0212 474.036 86.158C474.998 93.3233 475 102.653 475 115.227Z" fill="#272F30" stroke="white" stroke-width="2"/>
</g>
<defs>
<filter id="filter0_d_3082_374" x="0" y="0" width="544" height="455" filterUnits="userSpaceOnUse" color-interpolation-filters="sRGB">
<feFlood flood-opacity="0" result="BackgroundImageFix"/>
<feColorMatrix in="SourceAlpha" type="matrix" values="0 0 0 0 0 0 0 0 0 0 0 0 0 0 0 0 0 0 127 0" result="hardAlpha"/>
<feOffset dy="4"/>
<feGaussianBlur stdDeviation="2"/>
<feComposite in2="hardAlpha" operator="out"/>
<feColorMatrix type="matrix" values="0 0 0 0 0 0 0 0 0 0 0 0 0 0 0 0 0 0 0.25 0"/>
<feBlend mode="normal" in2="BackgroundImageFix" result="effect1_dropShadow_3082_374"/>
<feBlend mode="normal" in="SourceGraphic" in2="effect1_dropShadow_3082_374" result="shape"/>
</filter>
</defs>
</svg>
