<svg width="190" height="112" viewBox="0 0 190 112" fill="none" xmlns="http://www.w3.org/2000/svg">
<circle cx="54.5898" cy="54.5898" r="54.5898" transform="matrix(0.866025 0.5 -0.866025 0.5 94.5527 0)" fill="white" stroke="black" stroke-linejoin="bevel"/>
<path d="M27.6934 54.5894C27.6934 65.2487 35.1768 74.8989 47.2758 81.8843V100.081C35.1768 93.0955 27.6934 83.4453 27.6934 72.786V54.5894Z" fill="#E7E7E7" stroke="black" stroke-linejoin="bevel"/>
<path d="M47.2715 81.8848C73.3814 96.9593 115.714 96.9593 141.824 81.8848V100.081C115.714 115.156 73.3814 115.156 47.2715 100.081V81.8848Z" fill="#B7B7B7" stroke="black" stroke-linejoin="bevel"/>
<path d="M161.405 54.5894C161.405 65.2487 153.921 74.8989 141.822 81.8843V100.081C153.921 93.0955 161.405 83.4453 161.405 72.786V54.5894Z" fill="#B7B7B7" stroke="black" stroke-linejoin="bevel"/>
<path d="M119.997 40.2033C121.992 39.0516 122.99 38.4757 123.457 37.834C124.11 36.9367 124.101 35.9207 123.43 35.0192C122.951 34.3745 121.942 33.7923 119.925 32.6278L106.949 25.1357C102.77 22.7232 100.681 21.517 98.0991 21.5089C95.5171 21.5007 93.4507 22.6937 89.3178 25.0798L81.3728 29.6669C75.0031 33.3444 71.8182 35.1832 72.6394 37.1404C73.4606 39.0975 77.7677 39.9332 86.3819 41.6047L102.838 44.7977C105.709 45.3548 106.591 47.4565 104.468 48.6823C103.389 49.305 101.788 49.5194 100.329 49.2364L68.084 42.9796C64.526 42.2893 62.7471 41.9441 61.0294 42.174C59.3118 42.404 57.9963 43.1635 55.3654 44.6824L52.7422 46.197C48.6093 48.5831 46.5429 49.7761 46.5571 51.2668C46.5713 52.7575 48.6605 53.9637 52.8389 56.3762L65.3938 63.6247C67.4107 64.7892 68.4191 65.3714 68.8986 66.0161C69.569 66.9176 69.5787 67.9336 68.9254 68.8309C68.4581 69.4726 67.4607 70.0485 65.4658 71.2002C63.4709 72.352 62.4735 72.9278 62.0062 73.5696C61.3529 74.4668 61.3626 75.4829 62.033 76.3843C62.5125 77.0291 63.5209 77.6113 65.5378 78.7757L78.5146 86.2679C82.693 88.6803 84.7822 89.8865 87.3642 89.8947C89.9462 89.9029 92.0126 88.7098 96.1453 86.3238L96.1454 86.3237L104.09 81.7367C110.46 78.0591 113.645 76.2203 112.824 74.2632C112.003 72.3061 107.696 71.4703 99.0814 69.7989L82.6255 66.6058C79.7543 66.0487 78.8725 63.947 80.9956 62.7213C82.0742 62.0985 83.6755 61.8841 85.1342 62.1672L117.379 68.4239C120.937 69.1143 122.716 69.4595 124.434 69.2295C126.151 68.9995 127.467 68.2401 130.098 66.7211L130.098 66.7211L132.721 65.2066C136.854 62.8205 138.92 61.6274 138.906 60.1367C138.892 58.646 136.803 57.4398 132.624 55.0274L120.069 47.7788C118.053 46.6144 117.044 46.0321 116.565 45.3874C115.894 44.486 115.885 43.4699 116.538 42.5727C117.005 41.9309 118.003 41.3551 119.997 40.2033Z" fill="#272F30"/>
<path d="M119.997 40.2033C121.992 39.0516 122.99 38.4757 123.457 37.834C124.11 36.9367 124.101 35.9207 123.43 35.0192C122.951 34.3745 121.942 33.7923 119.925 32.6278L106.949 25.1357C102.77 22.7232 100.681 21.517 98.0991 21.5089C95.5171 21.5007 93.4507 22.6937 89.3178 25.0798L81.3728 29.6669C75.0031 33.3444 71.8182 35.1832 72.6394 37.1404C73.4606 39.0975 77.7677 39.9332 86.3819 41.6047L102.838 44.7977C105.709 45.3548 106.591 47.4565 104.468 48.6823C103.389 49.305 101.788 49.5194 100.329 49.2364L68.084 42.9796C64.526 42.2893 62.7471 41.9441 61.0294 42.174C59.3118 42.404 57.9963 43.1635 55.3654 44.6824L52.7422 46.197C48.6093 48.5831 46.5429 49.7761 46.5571 51.2668C46.5713 52.7575 48.6605 53.9637 52.8389 56.3762L65.3938 63.6247C67.4107 64.7892 68.4191 65.3714 68.8986 66.0161C69.569 66.9176 69.5787 67.9336 68.9254 68.8309C68.4581 69.4726 67.4607 70.0485 65.4658 71.2002C63.4709 72.352 62.4735 72.9278 62.0062 73.5696C61.3529 74.4668 61.3626 75.4829 62.033 76.3843C62.5125 77.0291 63.5209 77.6113 65.5378 78.7757L78.5146 86.2679C82.693 88.6803 84.7822 89.8865 87.3642 89.8947C89.9462 89.9029 92.0126 88.7098 96.1453 86.3238L96.1454 86.3237L104.09 81.7367C110.46 78.0591 113.645 76.2203 112.824 74.2632C112.003 72.3061 107.696 71.4703 99.0814 69.7989L82.6255 66.6058C79.7543 66.0487 78.8725 63.947 80.9956 62.7213C82.0742 62.0985 83.6755 61.8841 85.1342 62.1672L117.379 68.4239C120.937 69.1143 122.716 69.4595 124.434 69.2295C126.151 68.9995 127.467 68.2401 130.098 66.7211L130.098 66.7211L132.721 65.2066C136.854 62.8205 138.92 61.6274 138.906 60.1367C138.892 58.646 136.803 57.4398 132.624 55.0274L120.069 47.7788C118.053 46.6144 117.044 46.0321 116.565 45.3874C115.894 44.486 115.885 43.4699 116.538 42.5727C117.005 41.9309 118.003 41.3551 119.997 40.2033Z" stroke="white"/>
</svg>
