<svg width="547" height="259" viewBox="0 0 547 259" fill="none" xmlns="http://www.w3.org/2000/svg">
<g filter="url(#filter0_d_3838_449)">
<path d="M382.016 152.947L257.798 85.3035L132.965 152.947" stroke="black" stroke-dasharray="8 8"/>
</g>
<circle cx="36.4119" cy="36.4119" r="36.4119" transform="matrix(0.866025 0.5 -0.866025 0.5 258.754 44.1025)" fill="white" stroke="black" stroke-linejoin="bevel"/>
<path d="M214.154 80.5151C214.154 87.625 219.146 94.0618 227.216 98.7211V110.858C219.146 106.199 214.154 99.7623 214.154 92.6524V80.5151Z" fill="#E7E7E7" stroke="black" stroke-linejoin="bevel"/>
<path d="M227.215 98.7207C244.63 108.776 272.867 108.776 290.282 98.7207V110.858C272.867 120.913 244.63 120.913 227.215 110.858V98.7207Z" fill="#B7B7B7" stroke="black" stroke-linejoin="bevel"/>
<path d="M303.341 80.5151C303.341 87.625 298.349 94.0618 290.279 98.7211V110.858C298.349 106.199 303.341 99.7623 303.341 92.6524V80.5151Z" fill="#B7B7B7" stroke="black" stroke-linejoin="bevel"/>
<path d="M275.722 70.9178C277.053 70.1495 277.718 69.7654 278.03 69.3374C278.466 68.7389 278.459 68.0612 278.012 67.4599C277.692 67.0299 277.019 66.6415 275.674 65.8649L275.674 65.8648L267.019 60.8675C264.231 59.2584 262.838 58.4538 261.116 58.4484C259.394 58.4429 258.015 59.2387 255.259 60.8302L249.959 63.8898C245.711 66.3428 243.586 67.5693 244.134 68.8747C244.682 70.1802 247.555 70.7376 253.3 71.8525L264.276 73.9823C266.192 74.3539 266.78 75.7557 265.364 76.5733C264.644 76.9887 263.576 77.1317 262.603 76.9429L241.095 72.7696C238.722 72.3091 237.536 72.0789 236.39 72.2322C235.244 72.3856 234.367 72.8922 232.612 73.9054L230.862 74.9156C228.106 76.5071 226.727 77.3029 226.737 78.2972C226.746 79.2915 228.14 80.0961 230.927 81.7052L239.301 86.54C240.646 87.3167 241.319 87.7051 241.639 88.1351C242.086 88.7364 242.092 89.4141 241.657 90.0126C241.345 90.4406 240.68 90.8248 239.349 91.593C238.018 92.3612 237.353 92.7453 237.041 93.1734C236.606 93.7718 236.612 94.4495 237.059 95.0508C237.379 95.4809 238.052 95.8692 239.397 96.6459L248.053 101.643C250.84 103.252 252.233 104.057 253.955 104.062C255.678 104.068 257.056 103.272 259.813 101.681L259.813 101.68L265.112 98.6209C269.361 96.1679 271.485 94.9414 270.937 93.636C270.39 92.3306 267.517 91.7731 261.771 90.6582L250.795 88.5285C248.88 88.1569 248.291 86.755 249.708 85.9374C250.427 85.5221 251.495 85.3791 252.468 85.5678L273.976 89.7411C276.349 90.2016 277.536 90.4319 278.681 90.2785C279.827 90.1251 280.704 89.6185 282.459 88.6054L284.209 87.5951C286.966 86.0036 288.344 85.2078 288.334 84.2135C288.325 83.2192 286.931 82.4147 284.144 80.8055L275.77 75.9707C274.425 75.194 273.752 74.8056 273.432 74.3756C272.985 73.7743 272.979 73.0966 273.415 72.4981C273.726 72.0701 274.392 71.686 275.722 70.9178Z" fill="#272F30"/>
<path d="M275.722 70.9178C277.053 70.1495 277.718 69.7654 278.03 69.3374C278.466 68.7389 278.459 68.0612 278.012 67.4599C277.692 67.0299 277.019 66.6415 275.674 65.8649L275.674 65.8648L267.019 60.8675C264.231 59.2584 262.838 58.4538 261.116 58.4484C259.394 58.4429 258.015 59.2387 255.259 60.8302L249.959 63.8898C245.711 66.3428 243.586 67.5693 244.134 68.8747C244.682 70.1802 247.555 70.7376 253.3 71.8525L264.276 73.9823C266.192 74.3539 266.78 75.7557 265.364 76.5733C264.644 76.9887 263.576 77.1317 262.603 76.9429L241.095 72.7696C238.722 72.3091 237.536 72.0789 236.39 72.2322C235.244 72.3856 234.367 72.8922 232.612 73.9054L230.862 74.9156C228.106 76.5071 226.727 77.3029 226.737 78.2972C226.746 79.2915 228.14 80.0961 230.927 81.7052L239.301 86.54C240.646 87.3167 241.319 87.7051 241.639 88.1351C242.086 88.7364 242.092 89.4141 241.657 90.0126C241.345 90.4406 240.68 90.8248 239.349 91.593C238.018 92.3612 237.353 92.7453 237.041 93.1734C236.606 93.7718 236.612 94.4495 237.059 95.0508C237.379 95.4809 238.052 95.8692 239.397 96.6459L248.053 101.643C250.84 103.252 252.233 104.057 253.955 104.062C255.678 104.068 257.056 103.272 259.813 101.681L259.813 101.68L265.112 98.6209C269.361 96.1679 271.485 94.9414 270.937 93.636C270.39 92.3306 267.517 91.7731 261.771 90.6582L250.795 88.5285C248.88 88.1569 248.291 86.755 249.708 85.9374C250.427 85.5221 251.495 85.3791 252.468 85.5678L273.976 89.7411C276.349 90.2016 277.536 90.4319 278.681 90.2785C279.827 90.1251 280.704 89.6185 282.459 88.6054L284.209 87.5951C286.966 86.0036 288.344 85.2078 288.334 84.2135C288.325 83.2192 286.931 82.4147 284.144 80.8055L275.77 75.9707C274.425 75.194 273.752 74.8056 273.432 74.3756C272.985 73.7743 272.979 73.0966 273.415 72.4981C273.726 72.0701 274.392 71.686 275.722 70.9178Z" stroke="white"/>
<g filter="url(#filter1_d_3838_449)">
<rect width="161.601" height="159.448" rx="8" transform="matrix(0.866025 -0.5 0 1 402.182 93.7363)" fill="#B7D0F6"/>
<rect width="161.601" height="159.448" rx="8" transform="matrix(0.866025 -0.5 0 1 402.182 93.7363)" stroke="black" stroke-linejoin="bevel"/>
</g>
<rect width="20.4993" height="131.196" transform="matrix(0.866025 0.5 0 1 384.688 99.2422)" fill="#B7B7B7" stroke="black" stroke-linejoin="bevel"/>
<rect width="131.196" height="20.4993" transform="matrix(0.866025 -0.5 0.866025 0.5 398.887 74.6445)" fill="#E7E7E7" stroke="black" stroke-linejoin="bevel"/>
<g filter="url(#filter2_d_3838_449)">
<path d="M402.44 240.689C402.44 244.886 403.827 248.283 406.6 249.884L388.847 239.634C386.074 238.033 384.688 234.636 384.688 230.439L402.44 240.689Z" fill="#B7B7B7"/>
<path d="M402.44 240.689C402.44 244.886 403.827 248.283 406.6 249.884L388.847 239.634C386.074 238.033 384.688 234.636 384.688 230.439L402.44 240.689Z" stroke="black" stroke-linejoin="bevel"/>
</g>
<path d="M402.44 109.493C402.44 100.436 408.799 89.4228 416.643 84.8942L398.89 74.6445C391.046 79.1731 384.688 90.1865 384.688 99.2437L402.44 109.493Z" fill="#E7E7E7" stroke="black" stroke-linejoin="bevel"/>
<path d="M540.299 18.301C537.526 16.6999 533.892 17.1973 530.257 19.2958L512.504 9.04614C516.139 6.94764 519.773 6.45025 522.546 8.05134L540.299 18.301Z" fill="#E7E7E7" stroke="black" stroke-linejoin="bevel"/>
<line y1="-0.5" x2="127.908" y2="-0.5" transform="matrix(0.866025 -0.5 0 1 417.068 104.367)" stroke="black"/>
<path d="M424.143 34.6271L425.39 33.9071L425.563 33.8071V33.9471C425.494 34.0671 425.448 34.1804 425.425 34.2871C425.413 34.3871 425.408 34.5504 425.408 34.7771V45.1571L430.604 42.1571V43.3571L424.143 47.0871V34.6271ZM435.99 40.4071C435.274 40.8204 434.639 40.9871 434.085 40.9071C433.542 40.8071 433.115 40.4937 432.803 39.9671C432.492 39.4271 432.336 38.6971 432.336 37.7771C432.336 36.8437 432.492 35.9337 432.803 35.0471C433.115 34.1471 433.542 33.3404 434.085 32.6271C434.639 31.8937 435.274 31.3204 435.99 30.9071C436.706 30.4937 437.336 30.3371 437.878 30.4371C438.433 30.5171 438.866 30.8271 439.177 31.3671C439.489 31.8937 439.645 32.6237 439.645 33.5571C439.645 34.4771 439.489 35.3871 439.177 36.2871C438.866 37.1737 438.433 37.9837 437.878 38.7171C437.336 39.4304 436.706 39.9937 435.99 40.4071ZM435.99 39.2071C436.452 38.9404 436.856 38.5537 437.203 38.0471C437.549 37.5404 437.821 36.9637 438.017 36.3171C438.225 35.6637 438.329 34.9904 438.329 34.2971C438.329 33.6037 438.225 33.0504 438.017 32.6371C437.821 32.2171 437.549 31.9604 437.203 31.8671C436.856 31.7604 436.452 31.8404 435.99 32.1071C435.54 32.3671 435.136 32.7537 434.778 33.2671C434.432 33.7604 434.154 34.3337 433.947 34.9871C433.75 35.6337 433.652 36.3037 433.652 36.9971C433.652 37.6904 433.75 38.2471 433.947 38.6671C434.154 39.0804 434.432 39.3404 434.778 39.4471C435.136 39.5471 435.54 39.4671 435.99 39.2071ZM445.257 35.1171C444.68 35.4504 444.148 35.6371 443.663 35.6771C443.178 35.7171 442.757 35.6271 442.399 35.4071C442.053 35.1804 441.781 34.8371 441.585 34.3771C441.389 33.9037 441.29 33.3204 441.29 32.6271C441.29 31.9471 441.389 31.2637 441.585 30.5771C441.781 29.8771 442.053 29.2137 442.399 28.5871C442.757 27.9537 443.178 27.3771 443.663 26.8571C444.148 26.3371 444.674 25.9137 445.24 25.5871C445.886 25.2137 446.464 25.0337 446.972 25.0471C447.491 25.0404 447.913 25.2104 448.236 25.5571L447.457 26.8871L447.335 27.0971L447.249 27.0471C447.249 26.9404 447.226 26.8537 447.179 26.7871C447.145 26.7137 447.058 26.6371 446.92 26.5571C446.666 26.4371 446.394 26.4071 446.106 26.4671C445.817 26.5271 445.482 26.6671 445.101 26.8871C444.766 27.0804 444.449 27.3437 444.148 27.6771C443.848 28.0104 443.577 28.4004 443.334 28.8471C443.103 29.2737 442.919 29.7404 442.78 30.2471C442.641 30.7537 442.572 31.2671 442.572 31.7871C442.572 32.3071 442.641 32.7471 442.78 33.1071C442.919 33.4537 443.109 33.7171 443.352 33.8971C443.594 34.0771 443.883 34.1637 444.218 34.1571C444.564 34.1304 444.934 34.0037 445.326 33.7771C445.592 33.6237 445.846 33.4371 446.088 33.2171C446.331 32.9837 446.562 32.7237 446.781 32.4371C447 32.1371 447.203 31.8137 447.387 31.4671L448.115 32.0271C447.722 32.7337 447.283 33.3471 446.798 33.8671C446.325 34.3804 445.811 34.7971 445.257 35.1171ZM452.635 30.8571C451.735 31.3771 451.042 31.5437 450.557 31.3571C450.072 31.1571 449.829 30.6904 449.829 29.9571C449.829 29.4637 449.933 28.9637 450.141 28.4571C450.349 27.9371 450.632 27.4404 450.99 26.9671C451.359 26.4737 451.787 26.0137 452.272 25.5871C452.757 25.1604 453.27 24.7904 453.813 24.4771C454.009 24.3637 454.206 24.2571 454.402 24.1571C454.61 24.0371 454.824 23.9271 455.043 23.8271C455.274 23.7071 455.511 23.5971 455.753 23.4971L455.788 24.5771C455.58 24.6571 455.366 24.7537 455.147 24.8671C454.939 24.9604 454.731 25.0604 454.523 25.1671C454.315 25.2737 454.113 25.3837 453.917 25.4971C453.501 25.7371 453.12 25.9971 452.774 26.2771C452.428 26.5571 452.127 26.8504 451.873 27.1571C451.619 27.4637 451.423 27.7837 451.284 28.1171C451.146 28.4504 451.077 28.7971 451.077 29.1571C451.077 29.4371 451.117 29.6537 451.198 29.8071C451.29 29.9404 451.411 30.0237 451.562 30.0571C451.712 30.0771 451.885 30.0571 452.081 29.9971C452.289 29.9304 452.514 29.8271 452.757 29.6871C453.207 29.4271 453.605 29.1171 453.952 28.7571C454.31 28.3771 454.61 27.9571 454.852 27.4971C455.106 27.0304 455.297 26.5271 455.424 25.9871C455.551 25.4471 455.615 24.8771 455.615 24.2771C455.615 23.3704 455.522 22.7171 455.337 22.3171C455.153 21.9171 454.876 21.7171 454.506 21.7171C454.148 21.7104 453.686 21.8704 453.12 22.1971C452.739 22.4171 452.364 22.7204 451.995 23.1071C451.625 23.4804 451.29 23.9271 450.99 24.4471L450.384 23.8771C450.753 23.2371 451.18 22.6704 451.665 22.1771C452.15 21.6837 452.664 21.2804 453.207 20.9671C453.727 20.6671 454.2 20.4671 454.627 20.3671C455.054 20.2671 455.418 20.3037 455.718 20.4771C456.03 20.6304 456.267 20.9471 456.429 21.4271C456.602 21.9004 456.688 22.5704 456.688 23.4371V28.2971L455.337 29.0771V27.6771C455.187 28.0971 455.003 28.4771 454.783 28.8171C454.575 29.1504 454.35 29.4471 454.108 29.7071C453.865 29.9537 453.617 30.1704 453.363 30.3571C453.109 30.5571 452.866 30.7237 452.635 30.8571ZM459.009 26.9571V25.7971L461.348 24.4471V13.4671L459.113 14.7571V13.5971L462.612 11.5771V23.7171L464.933 22.3771V23.5371L459.009 26.9571Z" fill="black"/>
<path d="M7.02191 51.1571V38.6971L10.486 36.6971C11.2943 36.2304 11.9467 36.0137 12.4432 36.0471C12.9398 36.0804 13.3035 36.2971 13.5344 36.6971C13.7769 37.0771 13.8982 37.5937 13.8982 38.2471C13.8982 38.7271 13.8346 39.2104 13.7076 39.6971C13.5806 40.1837 13.3785 40.6671 13.1014 41.1471C12.8358 41.6204 12.4952 42.0637 12.0795 42.4771C11.6638 42.8904 11.1615 43.2671 10.5726 43.6071L8.26899 44.9371V50.4371L7.02191 51.1571ZM8.26899 43.6971L10.4341 42.4471C10.9652 42.1404 11.3925 41.8071 11.7158 41.4471C12.0391 41.0737 12.2758 40.6837 12.4259 40.2771C12.576 39.8571 12.6511 39.4337 12.6511 39.0071C12.6511 38.5937 12.576 38.2637 12.4259 38.0171C12.2758 37.7704 12.0391 37.6404 11.7158 37.6271C11.3925 37.6004 10.971 37.7371 10.4514 38.0371L8.26899 39.2971V43.6971ZM16.7214 36.4171L18.0204 35.6671L17.9685 38.3571L17.8126 38.1471C17.8819 37.6937 18.0031 37.2571 18.1763 36.8371C18.3495 36.4171 18.5574 36.0304 18.7999 35.6771C19.0423 35.3104 19.3079 34.9904 19.5966 34.7171C19.8853 34.4304 20.1855 34.1971 20.4973 34.0171C20.913 33.7771 21.294 33.6437 21.6404 33.6171C21.9984 33.5704 22.3159 33.6337 22.593 33.8071L22.0388 35.2471L21.9695 35.4671L21.8483 35.4571C21.8252 35.3637 21.7905 35.2837 21.7443 35.2171C21.6982 35.1504 21.6 35.0937 21.4499 35.0471C21.2651 35.0204 21.0919 35.0337 20.9303 35.0871C20.7802 35.1204 20.607 35.1937 20.4107 35.3071C20.122 35.4737 19.8333 35.7071 19.5446 36.0071C19.256 36.2937 18.9904 36.6404 18.7479 37.0471C18.517 37.4471 18.3322 37.8937 18.1936 38.3871C18.0551 38.8804 17.9858 39.4137 17.9858 39.9871V44.8471L16.7214 45.5771V36.4171ZM27.6506 39.4071C26.9347 39.8204 26.2996 39.9871 25.7454 39.9071C25.2027 39.8071 24.7754 39.4937 24.4637 38.9671C24.1519 38.4271 23.996 37.6971 23.996 36.7771C23.996 35.8437 24.1519 34.9337 24.4637 34.0471C24.7754 33.1471 25.2027 32.3404 25.7454 31.6271C26.2996 30.8937 26.9347 30.3204 27.6506 29.9071C28.3665 29.4937 28.9959 29.3371 29.5386 29.4371C30.0928 29.5171 30.5258 29.8271 30.8376 30.3671C31.1494 30.8937 31.3053 31.6237 31.3053 32.5571C31.3053 33.4771 31.1494 34.3871 30.8376 35.2871C30.5258 36.1737 30.0928 36.9837 29.5386 37.7171C28.9959 38.4304 28.3665 38.9937 27.6506 39.4071ZM27.6506 38.2071C28.1125 37.9404 28.5167 37.5537 28.8631 37.0471C29.2095 36.5404 29.4808 35.9637 29.6771 35.3171C29.885 34.6637 29.9889 33.9904 29.9889 33.2971C29.9889 32.6037 29.885 32.0504 29.6771 31.6371C29.4808 31.2171 29.2095 30.9604 28.8631 30.8671C28.5167 30.7604 28.1125 30.8404 27.6506 31.1071C27.2003 31.3671 26.7962 31.7537 26.4382 32.2671C26.0918 32.7604 25.8147 33.3337 25.6068 33.9871C25.4105 34.6337 25.3124 35.3037 25.3124 35.9971C25.3124 36.6904 25.4105 37.2471 25.6068 37.6671C25.8147 38.0804 26.0918 38.3404 26.4382 38.4471C26.7962 38.5471 27.2003 38.4671 27.6506 38.2071ZM36.0338 34.6071C35.6296 34.8404 35.2312 34.9704 34.8386 34.9971C34.4576 35.0171 34.1054 34.9204 33.7821 34.7071C33.4703 34.4871 33.2221 34.1237 33.0373 33.6171C32.8526 33.1104 32.7602 32.4504 32.7602 31.6371C32.7602 30.7971 32.8583 30.0271 33.0546 29.3271C33.2509 28.6137 33.5107 27.9771 33.8341 27.4171C34.1574 26.8437 34.5153 26.3571 34.9079 25.9571C35.3005 25.5437 35.6989 25.2204 36.103 24.9871C36.4725 24.7737 36.8016 24.6504 37.0903 24.6171C37.3905 24.5771 37.6503 24.6137 37.8697 24.7271C38.1007 24.8204 38.2797 24.9904 38.4067 25.2371V19.7371L39.5498 19.0771L39.723 18.9771V19.1171C39.6537 19.2371 39.6076 19.3504 39.5845 19.4571C39.5729 19.5571 39.5671 19.7204 39.5671 19.9471L39.5845 30.9371C39.5845 31.1771 39.5902 31.4137 39.6018 31.6471C39.6249 31.8604 39.6768 32.0637 39.7577 32.2571L38.5279 32.9671C38.4702 32.8404 38.4298 32.7037 38.4067 32.5571C38.3836 32.4104 38.3663 32.2671 38.3547 32.1271C38.3547 31.9671 38.3547 31.8071 38.3547 31.6471C38.1931 32.0604 37.9968 32.4604 37.7658 32.8471C37.5349 33.2204 37.2751 33.5571 36.9864 33.8571C36.6977 34.1571 36.3802 34.4071 36.0338 34.6071ZM36.2243 33.2371C36.6053 33.0171 36.9287 32.7437 37.1942 32.4171C37.4598 32.0771 37.6734 31.7004 37.8351 31.2871C37.9968 30.8604 38.1122 30.4137 38.1815 29.9471C38.2623 29.4604 38.3027 28.9704 38.3027 28.4771C38.3027 27.7971 38.2277 27.2337 38.0776 26.7871C37.9275 26.3271 37.6908 26.0371 37.3674 25.9171C37.0441 25.7837 36.6284 25.8637 36.1204 26.1571C35.774 26.3571 35.4622 26.6171 35.1851 26.9371C34.9195 27.2371 34.6943 27.5871 34.5096 27.9871C34.3364 28.3804 34.2036 28.8104 34.1112 29.2771C34.0188 29.7304 33.9726 30.2104 33.9726 30.7171C33.9726 31.4771 34.0592 32.0937 34.2324 32.5671C34.4056 33.0404 34.6597 33.3404 34.9945 33.4671C35.3294 33.5937 35.7393 33.5171 36.2243 33.2371Z" fill="black"/>
<line y1="-4" x2="127.908" y2="-4" transform="matrix(0.866025 -0.5 0 1 417.066 125.275)" stroke="#758AD5" stroke-width="8" stroke-dasharray="30 2"/>
<line y1="-4" x2="107" y2="-4" transform="matrix(0.866025 -0.5 0 1 417.066 138.804)" stroke="#758AD5" stroke-width="8" stroke-dasharray="30 2"/>
<line y1="-4" x2="67.6435" y2="-4" transform="matrix(0.866025 -0.5 0 1 417.066 151.103)" stroke="#758AD5" stroke-width="8" stroke-dasharray="30 2"/>
<line y1="-4" x2="127.908" y2="-4" transform="matrix(0.866025 -0.5 0 1 417.066 175.701)" stroke="#758AD5" stroke-width="8" stroke-dasharray="30 2"/>
<line y1="-4" x2="95.9307" y2="-4" transform="matrix(0.866025 -0.5 0 1 417.066 188)" stroke="#758AD5" stroke-width="8" stroke-dasharray="30 2"/>
<line y1="-4" x2="73.7929" y2="-4" transform="matrix(0.866025 -0.5 0 1 417.066 224.896)" stroke="#758AD5" stroke-width="8" stroke-dasharray="30 2"/>
<line y1="-4" x2="127.908" y2="-4" transform="matrix(0.866025 -0.5 0 1 417.066 212.597)" stroke="#758AD5" stroke-width="8" stroke-dasharray="30 2"/>
<g filter="url(#filter3_d_3838_449)">
<path d="M122.995 195.855C145.733 182.352 141.145 180.101 142.178 177.288C140.628 208.796 145.733 204.295 134.881 212.172L97.1557 235.802C80.6188 245.705 64.7709 240.491 58.9141 236.365V212.734C75.451 222.186 91.2989 215.547 97.1557 211.609L122.995 195.855Z" fill="#FFB2B2"/>
<path d="M122.995 195.855C145.733 182.352 141.145 180.101 142.178 177.288C140.628 208.796 145.733 204.295 134.881 212.172L97.1557 235.802C80.6188 245.705 64.7709 240.491 58.9141 236.365V212.734C75.451 222.186 91.2989 215.547 97.1557 211.609L122.995 195.855Z" stroke="black"/>
</g>
<g filter="url(#filter4_d_3838_449)">
<rect width="90.9486" height="90.9486" rx="24" transform="matrix(0.846632 0.532179 -0.846632 0.532179 77 127.775)" fill="#E7E7E7"/>
<rect width="90.9486" height="90.9486" rx="24" transform="matrix(0.846632 0.532179 -0.846632 0.532179 77 127.775)" stroke="black" stroke-linejoin="bevel"/>
</g>
<path d="M107.127 217.5C107.127 219.429 105.89 221.717 104.418 222.642C102.946 223.567 101.708 222.836 101.708 220.907C101.708 218.978 102.946 216.69 104.418 215.765C105.89 214.84 107.127 215.572 107.127 217.5Z" fill="#2246C8" stroke="black"/>
<path d="M96.7954 223.69C96.7954 225.619 95.5579 227.906 94.0859 228.832C92.614 229.757 91.3764 229.025 91.3764 227.096C91.3764 225.167 92.614 222.88 94.0859 221.955C95.5579 221.029 96.7954 221.761 96.7954 223.69Z" fill="#2246C8" stroke="black"/>
<rect x="0.423316" y="0.233911" width="27.0781" height="6.87691" rx="3.43846" transform="matrix(0.846632 -0.532179 0 1 110.655 211.586)" fill="#B3F6CA" stroke="black"/>
<g filter="url(#filter5_d_3838_449)">
<path d="M18.0468 186.852L58.9139 213.296L58.8745 236.364L20.1162 212.734C13.5014 208.683 11.8477 202.794 11.8477 200.356L11.8476 176C12.3267 183.314 15.4616 185.165 18.0468 186.852Z" fill="#B7B7B7"/>
<path d="M18.0468 186.852L58.9139 213.296L58.8745 236.364L20.1162 212.734C13.5014 208.683 11.8477 202.794 11.8477 200.356L11.8476 176C12.3267 183.314 15.4616 185.165 18.0468 186.852Z" stroke="black"/>
</g>
<path d="M122.995 142.965C145.733 129.462 141.145 127.212 142.178 124.398C140.628 155.906 145.733 151.405 134.881 159.282L97.1557 182.913C80.6188 192.815 64.7709 187.601 58.9141 183.475V159.845C75.451 169.297 91.2989 162.658 97.1557 158.719L122.995 142.965Z" fill="#FFB2B2" stroke="black"/>
<rect width="90.9486" height="90.9486" rx="24" transform="matrix(0.846632 0.532179 -0.846632 0.532179 77 74.8872)" fill="#E7E7E7" stroke="black" stroke-linejoin="bevel"/>
<path d="M107.127 164.612C107.127 166.541 105.89 168.828 104.418 169.753C102.946 170.679 101.708 169.947 101.708 168.018C101.708 166.089 102.946 163.802 104.418 162.876C105.89 161.951 107.127 162.683 107.127 164.612Z" fill="#2246C8" stroke="black"/>
<path d="M96.7954 170.802C96.7954 172.731 95.5579 175.018 94.0859 175.943C92.614 176.869 91.3764 176.137 91.3764 174.208C91.3764 172.279 92.614 169.992 94.0859 169.066C95.5579 168.141 96.7954 168.873 96.7954 170.802Z" fill="#2246C8" stroke="black"/>
<rect x="0.423316" y="0.233911" width="27.0781" height="6.87691" rx="3.43846" transform="matrix(0.846632 -0.532179 0 1 110.655 158.696)" fill="#B3F6CA" stroke="black"/>
<path d="M18.0468 133.964L58.9138 160.407L58.8745 183.476L20.1162 159.845C13.5014 155.794 11.8477 149.905 11.8477 147.467L11.8482 123.273C12.3273 130.588 15.4616 132.276 18.0468 133.964Z" fill="#B7B7B7" stroke="black"/>
<path d="M122.995 90.0788C145.733 76.5755 141.145 73.3166 142.178 70.5034C140.628 102.011 145.733 98.5183 134.881 106.395L97.1557 130.026C80.6188 139.928 64.7709 134.715 58.9141 130.589V106.958C75.451 116.41 91.2989 109.771 97.1557 105.833L122.995 90.0788Z" fill="#FFB2B2" stroke="black"/>
<rect width="90.9486" height="90.9486" rx="24" transform="matrix(0.846632 0.532179 -0.846632 0.532179 77 22)" fill="#E7E7E7" stroke="black" stroke-linejoin="bevel"/>
<path d="M107.127 111.725C107.127 113.654 105.89 115.941 104.418 116.867C102.946 117.792 101.708 117.06 101.708 115.131C101.708 113.203 102.946 110.915 104.418 109.99C105.89 109.065 107.127 109.796 107.127 111.725Z" fill="#2246C8" stroke="black"/>
<path d="M96.7954 117.915C96.7954 119.843 95.5579 122.131 94.0859 123.056C92.614 123.981 91.3764 123.25 91.3764 121.321C91.3764 119.392 92.614 117.104 94.0859 116.179C95.5579 115.254 96.7954 115.986 96.7954 117.915Z" fill="#2246C8" stroke="black"/>
<rect x="0.423316" y="0.233911" width="27.0781" height="6.87691" rx="3.43846" transform="matrix(0.846632 -0.532179 0 1 110.655 105.809)" fill="#B3F6CA" stroke="black"/>
<path d="M18.0468 81.0763L58.9138 107.52L58.8745 130.588L20.1162 106.958C13.5014 102.907 11.8477 97.0177 11.8477 94.5796L11.8482 70.3862C12.3273 77.7005 15.4616 79.3884 18.0468 81.0763Z" fill="#B7B7B7" stroke="black"/>
<defs>
<filter id="filter0_d_3838_449" x="128.727" y="84.7344" width="257.529" height="76.6523" filterUnits="userSpaceOnUse" color-interpolation-filters="sRGB">
<feFlood flood-opacity="0" result="BackgroundImageFix"/>
<feColorMatrix in="SourceAlpha" type="matrix" values="0 0 0 0 0 0 0 0 0 0 0 0 0 0 0 0 0 0 127 0" result="hardAlpha"/>
<feOffset dy="4"/>
<feGaussianBlur stdDeviation="2"/>
<feComposite in2="hardAlpha" operator="out"/>
<feColorMatrix type="matrix" values="0 0 0 0 0 0 0 0 0 0 0 0 0 0 0 0 0 0 0.25 0"/>
<feBlend mode="normal" in2="BackgroundImageFix" result="effect1_dropShadow_3838_449"/>
<feBlend mode="normal" in="SourceGraphic" in2="effect1_dropShadow_3838_449" result="shape"/>
</filter>
<filter id="filter1_d_3838_449" x="397.748" y="15.4307" width="148.816" height="243.259" filterUnits="userSpaceOnUse" color-interpolation-filters="sRGB">
<feFlood flood-opacity="0" result="BackgroundImageFix"/>
<feColorMatrix in="SourceAlpha" type="matrix" values="0 0 0 0 0 0 0 0 0 0 0 0 0 0 0 0 0 0 127 0" result="hardAlpha"/>
<feOffset dy="4"/>
<feGaussianBlur stdDeviation="2"/>
<feComposite in2="hardAlpha" operator="out"/>
<feColorMatrix type="matrix" values="0 0 0 0 0 0 0 0 0 0 0 0 0 0 0 0 0 0 0.25 0"/>
<feBlend mode="normal" in2="BackgroundImageFix" result="effect1_dropShadow_3838_449"/>
<feBlend mode="normal" in="SourceGraphic" in2="effect1_dropShadow_3838_449" result="shape"/>
</filter>
<filter id="filter2_d_3838_449" x="380.188" y="230.006" width="30.6621" height="28.3101" filterUnits="userSpaceOnUse" color-interpolation-filters="sRGB">
<feFlood flood-opacity="0" result="BackgroundImageFix"/>
<feColorMatrix in="SourceAlpha" type="matrix" values="0 0 0 0 0 0 0 0 0 0 0 0 0 0 0 0 0 0 127 0" result="hardAlpha"/>
<feOffset dy="4"/>
<feGaussianBlur stdDeviation="2"/>
<feComposite in2="hardAlpha" operator="out"/>
<feColorMatrix type="matrix" values="0 0 0 0 0 0 0 0 0 0 0 0 0 0 0 0 0 0 0.25 0"/>
<feBlend mode="normal" in2="BackgroundImageFix" result="effect1_dropShadow_3838_449"/>
<feBlend mode="normal" in="SourceGraphic" in2="effect1_dropShadow_3838_449" result="shape"/>
</filter>
<filter id="filter3_d_3838_449" x="54.4141" y="177.116" width="92.2637" height="72.8652" filterUnits="userSpaceOnUse" color-interpolation-filters="sRGB">
<feFlood flood-opacity="0" result="BackgroundImageFix"/>
<feColorMatrix in="SourceAlpha" type="matrix" values="0 0 0 0 0 0 0 0 0 0 0 0 0 0 0 0 0 0 127 0" result="hardAlpha"/>
<feOffset dy="4"/>
<feGaussianBlur stdDeviation="2"/>
<feComposite in2="hardAlpha" operator="out"/>
<feColorMatrix type="matrix" values="0 0 0 0 0 0 0 0 0 0 0 0 0 0 0 0 0 0 0.25 0"/>
<feBlend mode="normal" in2="BackgroundImageFix" result="effect1_dropShadow_3838_449"/>
<feBlend mode="normal" in="SourceGraphic" in2="effect1_dropShadow_3838_449" result="shape"/>
</filter>
<filter id="filter4_d_3838_449" x="7.30469" y="134.881" width="139.391" height="90.5908" filterUnits="userSpaceOnUse" color-interpolation-filters="sRGB">
<feFlood flood-opacity="0" result="BackgroundImageFix"/>
<feColorMatrix in="SourceAlpha" type="matrix" values="0 0 0 0 0 0 0 0 0 0 0 0 0 0 0 0 0 0 127 0" result="hardAlpha"/>
<feOffset dy="4"/>
<feGaussianBlur stdDeviation="2"/>
<feComposite in2="hardAlpha" operator="out"/>
<feColorMatrix type="matrix" values="0 0 0 0 0 0 0 0 0 0 0 0 0 0 0 0 0 0 0.25 0"/>
<feBlend mode="normal" in2="BackgroundImageFix" result="effect1_dropShadow_3838_449"/>
<feBlend mode="normal" in="SourceGraphic" in2="effect1_dropShadow_3838_449" result="shape"/>
</filter>
<filter id="filter5_d_3838_449" x="7.34766" y="175.967" width="56.0664" height="69.2866" filterUnits="userSpaceOnUse" color-interpolation-filters="sRGB">
<feFlood flood-opacity="0" result="BackgroundImageFix"/>
<feColorMatrix in="SourceAlpha" type="matrix" values="0 0 0 0 0 0 0 0 0 0 0 0 0 0 0 0 0 0 127 0" result="hardAlpha"/>
<feOffset dy="4"/>
<feGaussianBlur stdDeviation="2"/>
<feComposite in2="hardAlpha" operator="out"/>
<feColorMatrix type="matrix" values="0 0 0 0 0 0 0 0 0 0 0 0 0 0 0 0 0 0 0.25 0"/>
<feBlend mode="normal" in2="BackgroundImageFix" result="effect1_dropShadow_3838_449"/>
<feBlend mode="normal" in="SourceGraphic" in2="effect1_dropShadow_3838_449" result="shape"/>
</filter>
</defs>
</svg>
