<svg width="48" height="48" viewBox="0 0 48 48" fill="none" xmlns="http://www.w3.org/2000/svg">
<path d="M28.0511 47.2028C26.7916 48.7471 24.2378 47.901 24.2074 45.9292L23.7637 17.0898H43.6815C47.2891 17.0898 49.3012 21.1466 47.0579 23.8974L28.0511 47.2028Z" fill="url(#paint0_linear_3251_1373)"/>
<path d="M28.0511 47.2028C26.7916 48.7471 24.2378 47.901 24.2074 45.9292L23.7637 17.0898H43.6815C47.2891 17.0898 49.3012 21.1466 47.0579 23.8974L28.0511 47.2028Z" fill="url(#paint1_linear_3251_1373)" fill-opacity="0.2"/>
<path d="M19.9498 0.797559C21.2093 -0.746829 23.7632 0.0993838 23.7935 2.07117L23.988 30.9105H4.31943C0.711673 30.9105 -1.30044 26.8537 0.942972 24.103L19.9498 0.797559Z" fill="#3ECF8E"/>
<defs>
<linearGradient id="paint0_linear_3251_1373" x1="529.393" y1="656.531" x2="1662.18" y2="1144.51" gradientUnits="userSpaceOnUse">
<stop stop-color="#249361"/>
<stop offset="1" stop-color="#3ECF8E"/>
</linearGradient>
<linearGradient id="paint1_linear_3251_1373" x1="72.0238" y1="-389.643" x2="775.041" y2="969.665" gradientUnits="userSpaceOnUse">
<stop/>
<stop offset="1" stop-opacity="0"/>
</linearGradient>
</defs>
</svg>
