<svg width="237" height="171" viewBox="0 0 237 171" fill="none" xmlns="http://www.w3.org/2000/svg">
<path d="M6.42253 33.165C5.85904 33.4903 5.35097 33.677 4.89833 33.725C4.45492 33.7676 4.06232 33.6796 3.72053 33.461L4.21936 32.165L4.27479 31.989L4.37178 31.997C4.39026 32.061 4.41335 32.133 4.44107 32.213C4.46878 32.2823 4.53344 32.3516 4.63506 32.421C4.87523 32.517 5.15236 32.5436 5.46644 32.501C5.78976 32.453 6.15464 32.3116 6.5611 32.077C6.81975 31.9276 7.05531 31.749 7.26777 31.541C7.48948 31.317 7.67885 31.085 7.83589 30.845C8.00216 30.589 8.12687 30.3356 8.21001 30.085C8.30238 29.8183 8.34857 29.5676 8.34857 29.333C8.34857 29.1516 8.3301 28.997 8.29315 28.869C8.26543 28.7356 8.20539 28.637 8.11301 28.573C8.02988 28.493 7.91441 28.437 7.7666 28.405C7.6188 28.3623 7.42943 28.3383 7.19849 28.333C6.96755 28.3276 6.69042 28.3383 6.36711 28.365C5.76666 28.445 5.29093 28.4316 4.9399 28.325C4.59811 28.2023 4.35331 28.0076 4.20551 27.741C4.06694 27.469 3.99766 27.1463 3.99766 26.773C3.99766 26.2823 4.10389 25.7943 4.31636 25.309C4.52882 24.813 4.82905 24.3516 5.21703 23.925C5.61424 23.4823 6.08536 23.1036 6.63038 22.789C6.94446 22.6076 7.24468 22.4876 7.53105 22.429C7.82665 22.3543 8.09916 22.3356 8.34857 22.373C8.60723 22.405 8.83355 22.4983 9.02754 22.653L8.48714 23.797L8.404 23.973L8.32086 23.957C8.31162 23.877 8.29315 23.8023 8.26543 23.733C8.23772 23.6636 8.17306 23.5943 8.07145 23.525C7.84974 23.4076 7.61418 23.3783 7.36477 23.437C7.11535 23.485 6.81975 23.6076 6.47796 23.805C6.24702 23.9383 6.03917 24.0956 5.85442 24.277C5.67891 24.453 5.52648 24.6476 5.39716 24.861C5.26783 25.0743 5.16622 25.293 5.09232 25.517C5.02765 25.725 4.99532 25.925 4.99532 26.117C4.99532 26.2983 5.0138 26.453 5.05075 26.581C5.0877 26.709 5.15236 26.8156 5.24474 26.901C5.33711 26.9863 5.46182 27.053 5.61886 27.101C5.78514 27.1436 5.98837 27.165 6.22854 27.165C6.47796 27.1596 6.77818 27.1356 7.12921 27.093C7.55414 27.0503 7.90517 27.0503 8.1823 27.093C8.46866 27.1196 8.69036 27.1996 8.8474 27.333C9.01368 27.4503 9.12915 27.6183 9.19381 27.837C9.26771 28.0503 9.30467 28.3116 9.30467 28.621C9.30467 29.0796 9.20305 29.5916 8.99982 30.157C8.80583 30.7063 8.49637 31.2476 8.07145 31.781C7.64652 32.3143 7.09688 32.7756 6.42253 33.165ZM13.7941 28.861C13.3877 29.0956 13.0551 29.2076 12.7965 29.197C12.5378 29.1863 12.3392 29.0556 12.2007 28.805C12.0621 28.5436 11.9697 28.1703 11.9235 27.685C11.8866 27.1943 11.8773 26.5916 11.8958 25.877L12.0621 20.565L13.1013 19.821L13.2399 19.725L13.2537 19.829C13.2076 19.9303 13.166 20.029 13.129 20.125C13.1013 20.2156 13.0782 20.357 13.0598 20.549L12.935 22.429L12.9766 22.693L12.8796 25.389C12.8519 26.2156 12.8704 26.8343 12.935 27.245C12.9997 27.645 13.1152 27.8823 13.2815 27.957C13.4477 28.021 13.6694 27.973 13.9466 27.813C14.2514 27.637 14.5193 27.413 14.7502 27.141C14.9904 26.8636 15.2398 26.5436 15.4985 26.181L15.8033 26.917C15.4892 27.365 15.1659 27.749 14.8334 28.069C14.5008 28.389 14.1544 28.653 13.7941 28.861ZM10.621 23.269L15.1798 20.637V21.581L10.621 24.213V23.269ZM19.2259 25.789C18.5053 26.205 17.9511 26.3383 17.5631 26.189C17.1751 26.029 16.9811 25.6556 16.9811 25.069C16.9811 24.6743 17.0643 24.2743 17.2305 23.869C17.3968 23.453 17.6231 23.0556 17.9095 22.677C18.2051 22.2823 18.5469 21.9143 18.9349 21.573C19.3228 21.2316 19.7339 20.9356 20.1681 20.685C20.3251 20.5943 20.4822 20.509 20.6392 20.429C20.8055 20.333 20.9764 20.245 21.1519 20.165C21.3366 20.069 21.526 19.981 21.72 19.901L21.7477 20.765C21.5814 20.829 21.4105 20.9063 21.235 20.997C21.0688 21.0716 20.9025 21.1516 20.7362 21.237C20.5699 21.3223 20.4083 21.4103 20.2512 21.501C19.9187 21.693 19.6138 21.901 19.3367 22.125C19.0596 22.349 18.8194 22.5836 18.6162 22.829C18.4129 23.0743 18.2559 23.3303 18.1451 23.597C18.0342 23.8636 17.9788 24.141 17.9788 24.429C17.9788 24.653 18.0111 24.8263 18.0758 24.949C18.1497 25.0556 18.2467 25.1223 18.3668 25.149C18.4868 25.165 18.6254 25.149 18.7824 25.101C18.9487 25.0476 19.1289 24.965 19.3228 24.853C19.6831 24.645 20.0018 24.397 20.2789 24.109C20.5653 23.805 20.8055 23.469 20.9995 23.101C21.2027 22.7276 21.3551 22.325 21.4567 21.893C21.5583 21.461 21.6092 21.005 21.6092 20.525C21.6092 19.7996 21.5353 19.277 21.3875 18.957C21.2396 18.637 21.0179 18.477 20.7223 18.477C20.436 18.4716 20.0665 18.5996 19.6138 18.861C19.309 19.037 19.0088 19.2796 18.7132 19.589C18.4176 19.8876 18.1497 20.245 17.9095 20.661L17.4245 20.205C17.7201 19.693 18.0619 19.2396 18.4499 18.845C18.8379 18.4503 19.2489 18.1276 19.6831 17.877C20.0988 17.637 20.4775 17.477 20.8193 17.397C21.1611 17.317 21.4521 17.3463 21.6923 17.485C21.9417 17.6076 22.1311 17.861 22.2604 18.245C22.399 18.6236 22.4683 19.1596 22.4683 19.853V23.741L21.3875 24.365V23.245C21.2674 23.581 21.1196 23.885 20.944 24.157C20.7778 24.4236 20.5976 24.661 20.4036 24.869C20.2097 25.0663 20.011 25.2396 19.8078 25.389C19.6046 25.549 19.4106 25.6823 19.2259 25.789ZM26.3758 24.237C25.9324 24.493 25.5305 24.6823 25.1703 24.805C24.8192 24.933 24.5144 24.9916 24.2557 24.981C24.0063 24.9756 23.8123 24.8956 23.6738 24.741C23.5444 24.581 23.4798 24.341 23.4798 24.021C23.4798 23.7223 23.5352 23.4236 23.646 23.125C23.7569 22.8263 23.9001 22.5516 24.0756 22.301C24.2603 22.0343 24.459 21.8023 24.6714 21.605L25.0871 21.653C24.9208 21.8663 24.7869 22.061 24.6853 22.237C24.5837 22.413 24.5098 22.589 24.4636 22.765C24.4174 22.9516 24.3943 23.1516 24.3943 23.365C24.3943 23.5463 24.4405 23.6796 24.5329 23.765C24.6252 23.861 24.7546 23.909 24.9208 23.909C25.0964 23.9036 25.3042 23.8583 25.5444 23.773C25.7938 23.6823 26.0755 23.5463 26.3896 23.365C26.8145 23.1196 27.1563 22.869 27.415 22.613C27.6829 22.3623 27.8815 22.109 28.0108 21.853C28.1401 21.6076 28.2048 21.373 28.2048 21.149C28.2048 20.9143 28.1679 20.7436 28.094 20.637C28.0201 20.5303 27.8676 20.5063 27.6367 20.565C27.4058 20.6236 27.0547 20.789 26.5836 21.061C26.2603 21.2476 25.9647 21.4023 25.6968 21.525C25.4289 21.6476 25.1887 21.733 24.9763 21.781C24.7638 21.829 24.5837 21.8423 24.4359 21.821C24.2973 21.7836 24.1911 21.7063 24.1172 21.589C24.0433 21.4716 24.0063 21.3063 24.0063 21.093C24.0063 20.8156 24.071 20.5116 24.2003 20.181C24.3389 19.845 24.5236 19.493 24.7546 19.125L25.2257 19.285C25.1333 19.4556 25.0594 19.605 25.004 19.733C24.9485 19.8503 24.907 19.9596 24.8793 20.061C24.8608 20.1463 24.8516 20.237 24.8516 20.333C24.8516 20.5036 24.907 20.6103 25.0178 20.653C25.1379 20.6903 25.3411 20.653 25.6275 20.541C25.9139 20.4183 26.3019 20.2156 26.7915 19.933C27.281 19.6503 27.6783 19.469 27.9831 19.389C28.2879 19.2983 28.5189 19.293 28.6759 19.373C28.8422 19.4476 28.9577 19.5783 29.0223 19.765C29.087 19.9516 29.1193 20.1783 29.1193 20.445C29.1193 20.733 29.0685 21.0343 28.9669 21.349C28.8745 21.669 28.7221 21.9916 28.5096 22.317C28.2972 22.653 28.0154 22.981 27.6644 23.301C27.3134 23.6316 26.8838 23.9436 26.3758 24.237ZM26.0848 19.173C25.6321 19.4343 25.2395 19.549 24.907 19.517C24.5744 19.4743 24.3158 19.3143 24.131 19.037C23.9555 18.7436 23.8677 18.3623 23.8677 17.893C23.8677 17.4236 23.9555 16.9463 24.131 16.461C24.3158 15.9703 24.5744 15.517 24.907 15.101C25.2395 14.6743 25.6321 14.3303 26.0848 14.069C26.5467 13.8023 26.9393 13.693 27.2626 13.741C27.5951 13.773 27.8492 13.9303 28.0247 14.213C28.2094 14.4903 28.3018 14.8636 28.3018 15.333C28.3018 15.8023 28.2094 16.2876 28.0247 16.789C27.8492 17.2743 27.5951 17.7303 27.2626 18.157C26.9393 18.5676 26.5467 18.9063 26.0848 19.173ZM26.0848 18.213C26.3527 18.0583 26.5882 17.853 26.7915 17.597C27.0039 17.325 27.1702 17.0316 27.2903 16.717C27.4104 16.4023 27.4704 16.101 27.4704 15.813C27.4704 15.5143 27.4104 15.2823 27.2903 15.117C27.1702 14.941 27.0039 14.845 26.7915 14.829C26.5882 14.797 26.3527 14.8583 26.0848 15.013C25.8169 15.1676 25.5767 15.381 25.3642 15.653C25.161 15.909 24.9994 16.1943 24.8793 16.509C24.7592 16.813 24.6991 17.1143 24.6991 17.413C24.6991 17.701 24.7592 17.933 24.8793 18.109C24.9994 18.285 25.161 18.389 25.3642 18.421C25.5767 18.437 25.8169 18.3676 26.0848 18.213ZM27.9277 14.461L27.5397 14.157C27.8076 13.693 28.0847 13.309 28.3711 13.005C28.6667 12.685 29.0131 12.4263 29.4103 12.229L29.535 13.101C29.2302 13.245 28.9438 13.421 28.6759 13.629C28.408 13.837 28.1586 14.1143 27.9277 14.461ZM33.3732 17.605C32.9114 17.8716 32.4911 18.0343 32.1123 18.093C31.7336 18.141 31.4056 18.085 31.1285 17.925C30.8606 17.7596 30.6528 17.485 30.505 17.101C30.3572 16.7063 30.2833 16.205 30.2833 15.597C30.2833 14.9783 30.3572 14.3863 30.505 13.821C30.662 13.2503 30.8699 12.7303 31.1285 12.261C31.3964 11.7756 31.7059 11.3463 32.0569 10.973C32.4171 10.5943 32.7959 10.2903 33.1931 10.061C33.5534 9.85296 33.8905 9.72762 34.2046 9.68496C34.5187 9.64229 34.7912 9.69829 35.0222 9.85296C35.2531 9.99696 35.4332 10.2503 35.5626 10.613C35.7011 10.9703 35.7704 11.4476 35.7704 12.045C35.7704 12.1303 35.7658 12.2236 35.7565 12.325C35.7565 12.4103 35.7519 12.4983 35.7427 12.589L31.2394 15.189C31.2578 15.6476 31.3271 16.0183 31.4472 16.301C31.5673 16.573 31.7243 16.765 31.9183 16.877C32.1123 16.9783 32.334 17.0103 32.5834 16.973C32.8421 16.9303 33.1146 16.8263 33.401 16.661C33.6227 16.533 33.8305 16.3863 34.0245 16.221C34.2185 16.045 34.3986 15.8503 34.5649 15.637C34.7404 15.4076 34.8974 15.1623 35.036 14.901L35.5903 15.205C35.4148 15.5516 35.2115 15.877 34.9806 16.181C34.7589 16.4796 34.5141 16.7436 34.2462 16.973C33.9783 17.213 33.6873 17.4236 33.3732 17.605ZM31.2809 14.269L34.7589 12.261C34.7589 11.9196 34.7173 11.6396 34.6342 11.421C34.5603 11.1863 34.4494 11.0156 34.3016 10.909C34.1631 10.7863 33.9922 10.7356 33.7889 10.757C33.5949 10.7623 33.3732 10.837 33.1238 10.981C32.9021 11.109 32.6897 11.2743 32.4864 11.477C32.2924 11.6743 32.1123 11.917 31.946 12.205C31.7798 12.4823 31.6366 12.7943 31.5165 13.141C31.4056 13.4823 31.3271 13.8583 31.2809 14.269Z" fill="black"/>
<path d="M173.8 61.4459L174.673 60.9419L174.794 60.8719V60.9699C174.746 61.0539 174.714 61.1332 174.697 61.2079C174.689 61.2779 174.685 61.3922 174.685 61.5509V68.8169L178.323 66.7169V67.5569L173.8 70.1679V61.4459ZM181.851 65.6319C181.35 65.9212 180.905 66.0379 180.517 65.9819C180.137 65.9119 179.838 65.6925 179.62 65.3239C179.402 64.9459 179.293 64.4349 179.293 63.7909C179.293 63.1375 179.402 62.5005 179.62 61.8799C179.838 61.2499 180.137 60.6852 180.517 60.1859C180.905 59.6725 181.35 59.2712 181.851 58.9819C182.352 58.6925 182.792 58.5829 183.172 58.6529C183.56 58.7089 183.863 58.9259 184.082 59.3039C184.3 59.6725 184.409 60.1835 184.409 60.8369C184.409 61.4809 184.3 62.1179 184.082 62.7479C183.863 63.3685 183.56 63.9355 183.172 64.4489C182.792 64.9482 182.352 65.3425 181.851 65.6319ZM181.851 64.7919C182.174 64.6052 182.457 64.3345 182.699 63.9799C182.942 63.6252 183.132 63.2215 183.269 62.7689C183.415 62.3115 183.488 61.8402 183.488 61.3549C183.488 60.8695 183.415 60.4822 183.269 60.1929C183.132 59.8989 182.942 59.7192 182.699 59.6539C182.457 59.5792 182.174 59.6352 181.851 59.8219C181.536 60.0039 181.253 60.2745 181.002 60.6339C180.76 60.9792 180.566 61.3805 180.42 61.8379C180.283 62.2905 180.214 62.7595 180.214 63.2449C180.214 63.7302 180.283 64.1199 180.42 64.4139C180.566 64.7032 180.76 64.8852 181.002 64.9599C181.253 65.0299 181.536 64.9739 181.851 64.7919ZM188.095 62.0689C187.691 62.3022 187.319 62.4329 186.979 62.4609C186.64 62.4889 186.345 62.4259 186.094 62.2719C185.852 62.1132 185.662 61.8729 185.524 61.5509C185.387 61.2195 185.318 60.8112 185.318 60.3259C185.318 59.8499 185.387 59.3715 185.524 58.8909C185.662 58.4009 185.852 57.9365 186.094 57.4979C186.345 57.0545 186.64 56.6509 186.979 56.2869C187.319 55.9229 187.687 55.6265 188.083 55.3979C188.535 55.1365 188.939 55.0105 189.295 55.0199C189.659 55.0152 189.954 55.1342 190.18 55.3769L189.635 56.3079L189.55 56.4549L189.489 56.4199C189.489 56.3452 189.473 56.2845 189.441 56.2379C189.416 56.1865 189.356 56.1329 189.259 56.0769C189.081 55.9929 188.891 55.9719 188.689 56.0139C188.487 56.0559 188.252 56.1539 187.986 56.3079C187.751 56.4432 187.529 56.6275 187.319 56.8609C187.109 57.0942 186.919 57.3672 186.749 57.6799C186.587 57.9785 186.458 58.3052 186.361 58.6599C186.264 59.0145 186.216 59.3739 186.216 59.7379C186.216 60.1019 186.264 60.4099 186.361 60.6619C186.458 60.9045 186.591 61.0889 186.761 61.2149C186.931 61.3409 187.133 61.4015 187.367 61.3969C187.61 61.3782 187.869 61.2895 188.143 61.1309C188.329 61.0235 188.507 60.8929 188.677 60.7389C188.847 60.5755 189.008 60.3935 189.162 60.1929C189.315 59.9829 189.457 59.7565 189.586 59.5139L190.095 59.9059C189.821 60.4005 189.513 60.8299 189.174 61.1939C188.842 61.5532 188.483 61.8449 188.095 62.0689ZM193.017 59.2269C192.387 59.5909 191.902 59.7075 191.562 59.5769C191.223 59.4369 191.053 59.1102 191.053 58.5969C191.053 58.2515 191.126 57.9015 191.271 57.5469C191.417 57.1829 191.615 56.8352 191.865 56.5039C192.124 56.1585 192.423 55.8365 192.763 55.5379C193.102 55.2392 193.462 54.9802 193.842 54.7609C193.979 54.6815 194.117 54.6069 194.254 54.5369C194.399 54.4529 194.549 54.3759 194.703 54.3059C194.864 54.2219 195.03 54.1449 195.2 54.0749L195.224 54.8309C195.078 54.8869 194.929 54.9545 194.775 55.0339C194.63 55.0992 194.484 55.1692 194.339 55.2439C194.193 55.3185 194.052 55.3955 193.915 55.4749C193.624 55.6429 193.357 55.8249 193.114 56.0209C192.872 56.2169 192.662 56.4222 192.484 56.6369C192.306 56.8515 192.169 57.0755 192.072 57.3089C191.975 57.5422 191.926 57.7849 191.926 58.0369C191.926 58.2329 191.954 58.3845 192.011 58.4919C192.076 58.5852 192.161 58.6435 192.266 58.6669C192.371 58.6809 192.492 58.6669 192.629 58.6249C192.775 58.5782 192.932 58.5059 193.102 58.4079C193.417 58.2259 193.696 58.0089 193.939 57.7569C194.189 57.4909 194.399 57.1969 194.569 56.8749C194.747 56.5482 194.88 56.1959 194.969 55.8179C195.058 55.4399 195.103 55.0409 195.103 54.6209C195.103 53.9862 195.038 53.5289 194.909 53.2489C194.779 52.9689 194.585 52.8289 194.327 52.8289C194.076 52.8242 193.753 52.9362 193.357 53.1649C193.09 53.3189 192.827 53.5312 192.569 53.8019C192.31 54.0632 192.076 54.3759 191.865 54.7399L191.441 54.3409C191.7 53.8929 191.999 53.4962 192.338 53.1509C192.678 52.8055 193.038 52.5232 193.417 52.3039C193.781 52.0939 194.113 51.9539 194.412 51.8839C194.711 51.8139 194.965 51.8395 195.175 51.9609C195.394 52.0682 195.559 52.2899 195.673 52.6259C195.794 52.9572 195.854 53.4262 195.854 54.0329V57.4349L194.909 57.9809V57.0009C194.804 57.2949 194.674 57.5609 194.521 57.7989C194.375 58.0322 194.218 58.2399 194.048 58.4219C193.878 58.5945 193.704 58.7462 193.527 58.8769C193.349 59.0169 193.179 59.1335 193.017 59.2269ZM197.237 56.6369V55.8249L198.873 54.8799V47.1939L197.309 48.0969V47.2849L199.758 45.8709V54.3689L201.383 53.4309V54.2429L197.237 56.6369Z" fill="black"/>
<g filter="url(#filter0_d_3086_689)">
<rect width="67.6825" height="66.6926" rx="8" transform="matrix(0.866025 -0.5 0 1 164.035 97.3071)" fill="#B7D0F6"/>
<rect width="67.6825" height="66.6926" rx="8" transform="matrix(0.866025 -0.5 0 1 164.035 97.3071)" stroke="black" strokeLinejoin="bevel"/>
</g>
<rect width="8.54758" height="54.7045" transform="matrix(0.866025 0.5 0 1 157 99.4531)" fill="#B7B7B7" stroke="black" strokeLinejoin="bevel"/>
<rect width="54.7045" height="8.54758" transform="matrix(0.866025 -0.5 0.866025 0.5 162.92 89.1968)" fill="#E7E7E7" stroke="black" strokeLinejoin="bevel"/>
<g filter="url(#filter1_d_3086_689)">
<path d="M164.402 158.432C164.402 160.182 164.981 161.598 166.137 162.265L158.734 157.992C157.578 157.324 157 155.908 157 154.158L164.402 158.432Z" fill="#B7B7B7"/>
<path d="M164.402 158.432C164.402 160.182 164.981 161.598 166.137 162.265L158.734 157.992C157.578 157.324 157 155.908 157 154.158L164.402 158.432Z" stroke="black" strokeLinejoin="bevel"/>
</g>
<path d="M164.402 103.728C164.402 99.9511 167.054 95.3588 170.324 93.4706L162.922 89.1968C159.651 91.0851 157 95.6773 157 99.4539L164.402 103.728Z" fill="#E7E7E7" stroke="black" strokeLinejoin="bevel"/>
<path d="M221.887 65.7029C220.73 65.0353 219.215 65.2427 217.699 66.1177L210.297 61.8439C211.812 60.9689 213.328 60.7615 214.484 61.4291L221.887 65.7029Z" fill="#E7E7E7" stroke="black" strokeLinejoin="bevel"/>
<g filter="url(#filter2_d_3086_689)">
<line y1="-0.5" x2="60" y2="-0.5" transform="matrix(0.866025 -0.5 0 1 44 112)" stroke="black" strokeDasharray="3 3"/>
</g>
<g filter="url(#filter3_d_3086_689)">
<line y1="-0.5" x2="82" y2="-0.5" transform="matrix(0.866025 0.5 0 1 96 82)" stroke="black" strokeDasharray="3 3"/>
</g>
<g filter="url(#filter4_d_3086_689)">
<circle cx="16.748" cy="16.748" r="16.748" transform="matrix(0.866025 0.5 -0.866025 0.5 125.008 81)" fill="white" stroke="black" strokeLinejoin="bevel"/>
<path d="M104.496 97.748C104.496 101.018 106.792 103.979 110.504 106.122V111.705C106.792 109.562 104.496 106.601 104.496 103.331V97.748Z" fill="#E7E7E7" stroke="black" strokeLinejoin="bevel"/>
<path d="M110.502 106.122C118.512 110.747 131.5 110.747 139.51 106.122V111.705C131.5 116.33 118.512 116.33 110.502 111.705V106.122Z" fill="#B7B7B7" stroke="black" strokeLinejoin="bevel"/>
<path d="M145.52 97.748C145.52 101.018 143.224 103.979 139.512 106.122V111.705C143.224 109.562 145.52 106.601 145.52 103.331V97.748Z" fill="#B7B7B7" stroke="black" strokeLinejoin="bevel"/>
<path d="M132.815 93.3345C133.427 92.9811 133.733 92.8045 133.877 92.6076C134.077 92.3323 134.074 92.0206 133.868 91.744C133.721 91.5462 133.412 91.3676 132.793 91.0104L132.793 91.0103L128.812 88.7118C127.53 87.9716 126.889 87.6016 126.097 87.5991C125.305 87.5966 124.671 87.9626 123.403 88.6946L120.965 90.1019C119.011 91.2302 118.034 91.7943 118.286 92.3948C118.538 92.9952 119.859 93.2516 122.502 93.7644L127.551 94.744C128.432 94.915 128.702 95.5597 128.051 95.9358C127.72 96.1269 127.229 96.1926 126.781 96.1058L116.888 94.1863L116.888 94.1862C115.797 93.9744 115.251 93.8685 114.724 93.9391C114.197 94.0097 113.793 94.2427 112.986 94.7087L112.181 95.1733C110.914 95.9054 110.28 96.2714 110.284 96.7287C110.288 97.1861 110.929 97.5561 112.211 98.2963L116.063 100.52C116.682 100.877 116.991 101.056 117.138 101.254C117.344 101.53 117.347 101.842 117.146 102.117C117.003 102.314 116.697 102.491 116.085 102.844C115.473 103.198 115.167 103.374 115.024 103.571C114.823 103.846 114.826 104.158 115.032 104.435C115.179 104.633 115.488 104.811 116.107 105.168L120.088 107.467C121.37 108.207 122.011 108.577 122.803 108.58C123.596 108.582 124.23 108.216 125.498 107.484L125.498 107.484L127.935 106.077C129.889 104.949 130.866 104.384 130.614 103.784C130.362 103.184 129.041 102.927 126.398 102.414L121.35 101.435C120.469 101.264 120.198 100.619 120.85 100.243C121.18 100.052 121.672 99.9861 122.119 100.073L132.012 101.992C133.104 102.204 133.649 102.31 134.176 102.24C134.703 102.169 135.107 101.936 135.914 101.47L135.914 101.47L136.719 101.005C137.987 100.273 138.621 99.9074 138.616 99.45C138.612 98.9927 137.971 98.6226 136.689 97.8825L132.837 95.6586C132.219 95.3014 131.909 95.1228 131.762 94.925C131.556 94.6484 131.553 94.3367 131.754 94.0614C131.897 93.8645 132.203 93.6878 132.815 93.3345Z" fill="#272F30"/>
<path d="M132.815 93.3345C133.427 92.9811 133.733 92.8045 133.877 92.6076C134.077 92.3323 134.074 92.0206 133.868 91.744C133.721 91.5462 133.412 91.3676 132.793 91.0104L132.793 91.0103L128.812 88.7118C127.53 87.9716 126.889 87.6016 126.097 87.5991C125.305 87.5966 124.671 87.9626 123.403 88.6946L120.965 90.1019C119.011 91.2302 118.034 91.7943 118.286 92.3948C118.538 92.9952 119.859 93.2516 122.502 93.7644L127.551 94.744C128.432 94.915 128.702 95.5597 128.051 95.9358C127.72 96.1269 127.229 96.1926 126.781 96.1058L116.888 94.1863L116.888 94.1862C115.797 93.9744 115.251 93.8685 114.724 93.9391C114.197 94.0097 113.793 94.2427 112.986 94.7087L112.181 95.1733C110.914 95.9054 110.28 96.2714 110.284 96.7287C110.288 97.1861 110.929 97.5561 112.211 98.2963L116.063 100.52C116.682 100.877 116.991 101.056 117.138 101.254C117.344 101.53 117.347 101.842 117.146 102.117C117.003 102.314 116.697 102.491 116.085 102.844C115.473 103.198 115.167 103.374 115.024 103.571C114.823 103.846 114.826 104.158 115.032 104.435C115.179 104.633 115.488 104.811 116.107 105.168L120.088 107.467C121.37 108.207 122.011 108.577 122.803 108.58C123.596 108.582 124.23 108.216 125.498 107.484L125.498 107.484L127.935 106.077C129.889 104.949 130.866 104.384 130.614 103.784C130.362 103.184 129.041 102.927 126.398 102.414L121.35 101.435C120.469 101.264 120.198 100.619 120.85 100.243C121.18 100.052 121.672 99.9861 122.119 100.073L132.012 101.992C133.104 102.204 133.649 102.31 134.176 102.24C134.703 102.169 135.107 101.936 135.914 101.47L135.914 101.47L136.719 101.005C137.987 100.273 138.621 99.9074 138.616 99.45C138.612 98.9927 137.971 98.6226 136.689 97.8825L132.837 95.6586C132.219 95.3014 131.909 95.1228 131.762 94.925C131.556 94.6484 131.553 94.3367 131.754 94.0614C131.897 93.8645 132.203 93.6878 132.815 93.3345Z" stroke="white"/>
</g>
<g filter="url(#filter5_d_3086_689)">
<rect width="77.3224" height="76.1915" rx="8" transform="matrix(0.866025 -0.5 0 1 165.037 87.8081)" fill="#B7D0F6"/>
<rect width="77.3224" height="76.1915" rx="8" transform="matrix(0.866025 -0.5 0 1 165.037 87.8081)" stroke="black" strokeLinejoin="bevel"/>
</g>
<rect width="9.765" height="62.496" transform="matrix(0.866025 0.5 0 1 157 90.2598)" fill="#B7B7B7" stroke="black" strokeLinejoin="bevel"/>
<rect width="62.496" height="9.765" transform="matrix(0.866025 -0.5 0.866025 0.5 163.764 78.543)" fill="#E7E7E7" stroke="black" strokeLinejoin="bevel"/>
<g filter="url(#filter6_d_3086_689)">
<path d="M165.457 157.638C165.457 159.638 166.117 161.256 167.438 162.018L158.982 157.136C157.661 156.373 157 154.755 157 152.756L165.457 157.638Z" fill="#B7B7B7"/>
<path d="M165.457 157.638C165.457 159.638 166.117 161.256 167.438 162.018L158.982 157.136C157.661 156.373 157 154.755 157 152.756L165.457 157.638Z" stroke="black" strokeLinejoin="bevel"/>
</g>
<path d="M165.457 95.1435C165.457 90.829 168.486 85.5827 172.222 83.4255L163.765 78.543C160.029 80.7002 157 85.9465 157 90.261L165.457 95.1435Z" fill="#E7E7E7" stroke="black" strokeLinejoin="bevel"/>
<path d="M231.129 51.7027C229.808 50.94 228.077 51.1769 226.345 52.1766L217.889 47.2941C219.62 46.2944 221.351 46.0575 222.673 46.8202L231.129 51.7027Z" fill="#E7E7E7" stroke="black" strokeLinejoin="bevel"/>
<line y1="-1.5" x2="61.5865" y2="-1.5" transform="matrix(0.866025 -0.5 0 1 172.342 100.543)" stroke="#2246C8" strokeWidth="3" strokeDasharray="30 2"/>
<line y1="-1.5" x2="51.5194" y2="-1.5" transform="matrix(0.866025 -0.5 0 1 172.342 107.057)" stroke="#2246C8" strokeWidth="3" strokeDasharray="30 2"/>
<line y1="-1.5" x2="32.5698" y2="-1.5" transform="matrix(0.866025 -0.5 0 1 172.342 112.979)" stroke="#2246C8" strokeWidth="3" strokeDasharray="30 2"/>
<line y1="-1.5" x2="61.5865" y2="-1.5" transform="matrix(0.866025 -0.5 0 1 172.342 124.822)" stroke="#2246C8" strokeWidth="3" strokeDasharray="30 2"/>
<line y1="-1.5" x2="46.1898" y2="-1.5" transform="matrix(0.866025 -0.5 0 1 172.342 130.744)" stroke="#2246C8" strokeWidth="3" strokeDasharray="30 2"/>
<line y1="-1.5" x2="35.5306" y2="-1.5" transform="matrix(0.866025 -0.5 0 1 172.342 148.51)" stroke="#2246C8" strokeWidth="3" strokeDasharray="30 2"/>
<line y1="-1.5" x2="61.5865" y2="-1.5" transform="matrix(0.866025 -0.5 0 1 172.342 142.587)" stroke="#2246C8" strokeWidth="3" strokeDasharray="30 2"/>
<g filter="url(#filter7_d_3086_689)">
<path d="M74.2761 117.963C88.0077 109.808 85.237 108.449 85.8611 106.75C84.9249 125.778 88.0077 123.06 81.454 127.816L58.6721 142.087C48.6855 148.067 39.115 144.918 35.5781 142.427V128.156C45.5647 133.864 55.1352 129.855 58.6721 127.477L74.2761 117.963Z" fill="#B7D0F6"/>
<path d="M74.2761 117.963C88.0077 109.808 85.237 108.449 85.8611 106.75C84.9249 125.778 88.0077 123.06 81.454 127.816L58.6721 142.087C48.6855 148.067 39.115 144.918 35.5781 142.427V128.156C45.5647 133.864 55.1352 129.855 58.6721 127.477L74.2761 117.963Z" stroke="black"/>
</g>
<g filter="url(#filter8_d_3086_689)">
<rect width="54.9235" height="54.9235" rx="14" transform="matrix(0.846632 0.532179 -0.846632 0.532179 46.5 76.8501)" fill="#E7E7E7"/>
<rect width="54.9235" height="54.9235" rx="14" transform="matrix(0.846632 0.532179 -0.846632 0.532179 46.5 76.8501)" stroke="black" strokeLinejoin="bevel"/>
</g>
<path d="M64.5265 131.14C64.5265 132.207 63.8445 133.447 63.0579 133.942C62.2713 134.436 61.5893 134.054 61.5893 132.986C61.5893 131.919 62.2713 130.679 63.0579 130.185C63.8445 129.69 64.5265 130.073 64.5265 131.14Z" fill="#2246C8" stroke="black"/>
<path d="M58.2862 134.878C58.2862 135.945 57.6043 137.185 56.8177 137.679C56.0311 138.174 55.3491 137.791 55.3491 136.724C55.3491 135.657 56.0311 134.417 56.8177 133.923C57.6043 133.428 58.2862 133.811 58.2862 134.878Z" fill="#2246C8" stroke="black"/>
<rect x="0.423316" y="0.233911" width="15.9563" height="3.75684" rx="1.87842" transform="matrix(0.846632 -0.532179 0 1 66.8501 127.552)" fill="#B3F6CA" stroke="black"/>
<g filter="url(#filter9_d_3086_689)">
<path d="M10.8979 112.526L35.5774 128.496L35.5536 142.427L12.1476 128.156C8.15301 125.71 7.15432 122.153 7.15431 120.681L7.15428 105.973C7.44357 110.39 9.33677 111.507 10.8979 112.526Z" fill="#B7B7B7"/>
<path d="M10.8979 112.526L35.5774 128.496L35.5536 142.427L12.1476 128.156C8.15301 125.71 7.15432 122.153 7.15431 120.681L7.15428 105.973C7.44357 110.39 9.33677 111.507 10.8979 112.526Z" stroke="black"/>
</g>
<path d="M74.2761 86.0231C88.0077 77.8685 85.237 76.5094 85.8611 74.8105C84.9249 93.8379 88.0077 91.1197 81.454 95.8765L58.6721 110.147C48.6855 116.127 39.115 112.978 35.5781 110.487V96.2163C45.5647 101.925 55.1352 97.9152 58.6721 95.5368L74.2761 86.0231Z" fill="#B7D0F6" stroke="black"/>
<rect width="54.9235" height="54.9235" rx="14" transform="matrix(0.846632 0.532179 -0.846632 0.532179 46.5 44.9111)" fill="#E7E7E7" stroke="black" strokeLinejoin="bevel"/>
<path d="M64.5265 99.2007C64.5265 100.268 63.8445 101.508 63.0579 102.002C62.2713 102.497 61.5893 102.114 61.5893 101.047C61.5893 99.9796 62.2713 98.7398 63.0579 98.2454C63.8445 97.7509 64.5265 98.1334 64.5265 99.2007Z" fill="#2246C8" stroke="black"/>
<path d="M58.2862 102.939C58.2862 104.006 57.6043 105.246 56.8177 105.74C56.0311 106.235 55.3491 105.852 55.3491 104.785C55.3491 103.718 56.0311 102.478 56.8177 101.984C57.6043 101.489 58.2862 101.872 58.2862 102.939Z" fill="#2246C8" stroke="black"/>
<rect x="0.423316" y="0.233911" width="15.9563" height="3.75684" rx="1.87842" transform="matrix(0.846632 -0.532179 0 1 66.8501 95.612)" fill="#B3F6CA" stroke="black"/>
<path d="M10.8979 80.5871L35.5774 96.5564L35.5536 110.487L12.1476 96.2167C8.15299 93.7703 7.15431 90.214 7.1543 88.7416L7.15466 74.1313C7.44394 78.5484 9.33676 79.5677 10.8979 80.5871Z" fill="#B7B7B7" stroke="black"/>
<path d="M74.2761 54.0851C88.0077 45.9306 85.237 43.9625 85.8611 42.2637C84.9249 61.291 88.0077 59.1818 81.454 63.9386L58.6721 78.2091C48.6855 84.1891 39.115 81.0405 35.5781 78.5489V64.2784C45.5647 69.9866 55.1352 65.9772 58.6721 63.5988L74.2761 54.0851Z" fill="#B7D0F6" stroke="black"/>
<rect width="54.9235" height="54.9235" rx="14" transform="matrix(0.846632 0.532179 -0.846632 0.532179 46.5 12.9727)" fill="#E7E7E7" stroke="black" strokeLinejoin="bevel"/>
<path d="M64.5265 67.2627C64.5265 68.3299 63.8445 69.5698 63.0579 70.0642C62.2713 70.5586 61.5893 70.1762 61.5893 69.1089C61.5893 68.0417 62.2713 66.8018 63.0579 66.3074C63.8445 65.8129 64.5265 66.1954 64.5265 67.2627Z" fill="#2246C8" stroke="black"/>
<path d="M58.2862 71.0005C58.2862 72.0677 57.6043 73.3076 56.8177 73.802C56.0311 74.2964 55.3491 73.914 55.3491 72.8467C55.3491 71.7794 56.0311 70.5396 56.8177 70.0452C57.6043 69.5507 58.2862 69.9332 58.2862 71.0005Z" fill="#2246C8" stroke="black"/>
<rect x="0.423316" y="0.233911" width="15.9563" height="3.75684" rx="1.87842" transform="matrix(0.846632 -0.532179 0 1 66.8501 63.674)" fill="#B3F6CA" stroke="black"/>
<path d="M10.8979 48.6486L35.5774 64.618L35.5536 78.5487L12.1476 64.2782C8.15299 61.8318 7.15431 58.2755 7.1543 56.8032L7.15466 42.1929C7.44394 46.6099 9.33676 47.6293 10.8979 48.6486Z" fill="#B7B7B7" stroke="black"/>
<defs>
<filter id="filter0_d_3086_689" x="159.602" y="65.9604" width="67.4805" height="103.545" filterUnits="userSpaceOnUse" color-interpolation-filters="sRGB">
<feFlood flood-opacity="0" result="BackgroundImageFix"/>
<feColorMatrix in="SourceAlpha" type="matrix" values="0 0 0 0 0 0 0 0 0 0 0 0 0 0 0 0 0 0 127 0" result="hardAlpha"/>
<feOffset dy="4"/>
<feGaussianBlur stdDeviation="2"/>
<feComposite in2="hardAlpha" operator="out"/>
<feColorMatrix type="matrix" values="0 0 0 0 0 0 0 0 0 0 0 0 0 0 0 0 0 0 0.25 0"/>
<feBlend mode="normal" in2="BackgroundImageFix" result="effect1_dropShadow_3086_689"/>
<feBlend mode="normal" in="SourceGraphic" in2="effect1_dropShadow_3086_689" result="shape"/>
</filter>
<filter id="filter1_d_3086_689" x="152.5" y="153.725" width="17.8867" height="16.9736" filterUnits="userSpaceOnUse" color-interpolation-filters="sRGB">
<feFlood flood-opacity="0" result="BackgroundImageFix"/>
<feColorMatrix in="SourceAlpha" type="matrix" values="0 0 0 0 0 0 0 0 0 0 0 0 0 0 0 0 0 0 127 0" result="hardAlpha"/>
<feOffset dy="4"/>
<feGaussianBlur stdDeviation="2"/>
<feComposite in2="hardAlpha" operator="out"/>
<feColorMatrix type="matrix" values="0 0 0 0 0 0 0 0 0 0 0 0 0 0 0 0 0 0 0.25 0"/>
<feBlend mode="normal" in2="BackgroundImageFix" result="effect1_dropShadow_3086_689"/>
<feBlend mode="normal" in="SourceGraphic" in2="effect1_dropShadow_3086_689" result="shape"/>
</filter>
<filter id="filter2_d_3086_689" x="40" y="81" width="59.9609" height="39" filterUnits="userSpaceOnUse" color-interpolation-filters="sRGB">
<feFlood flood-opacity="0" result="BackgroundImageFix"/>
<feColorMatrix in="SourceAlpha" type="matrix" values="0 0 0 0 0 0 0 0 0 0 0 0 0 0 0 0 0 0 127 0" result="hardAlpha"/>
<feOffset dy="4"/>
<feGaussianBlur stdDeviation="2"/>
<feComposite in2="hardAlpha" operator="out"/>
<feColorMatrix type="matrix" values="0 0 0 0 0 0 0 0 0 0 0 0 0 0 0 0 0 0 0.25 0"/>
<feBlend mode="normal" in2="BackgroundImageFix" result="effect1_dropShadow_3086_689"/>
<feBlend mode="normal" in="SourceGraphic" in2="effect1_dropShadow_3086_689" result="shape"/>
</filter>
<filter id="filter3_d_3086_689" x="92" y="81" width="79.0137" height="50" filterUnits="userSpaceOnUse" color-interpolation-filters="sRGB">
<feFlood flood-opacity="0" result="BackgroundImageFix"/>
<feColorMatrix in="SourceAlpha" type="matrix" values="0 0 0 0 0 0 0 0 0 0 0 0 0 0 0 0 0 0 127 0" result="hardAlpha"/>
<feOffset dy="4"/>
<feGaussianBlur stdDeviation="2"/>
<feComposite in2="hardAlpha" operator="out"/>
<feColorMatrix type="matrix" values="0 0 0 0 0 0 0 0 0 0 0 0 0 0 0 0 0 0 0.25 0"/>
<feBlend mode="normal" in2="BackgroundImageFix" result="effect1_dropShadow_3086_689"/>
<feBlend mode="normal" in="SourceGraphic" in2="effect1_dropShadow_3086_689" result="shape"/>
</filter>
<filter id="filter4_d_3086_689" x="99.8828" y="85.5518" width="50.25" height="38.1216" filterUnits="userSpaceOnUse" color-interpolation-filters="sRGB">
<feFlood flood-opacity="0" result="BackgroundImageFix"/>
<feColorMatrix in="SourceAlpha" type="matrix" values="0 0 0 0 0 0 0 0 0 0 0 0 0 0 0 0 0 0 127 0" result="hardAlpha"/>
<feOffset dy="4"/>
<feGaussianBlur stdDeviation="2"/>
<feComposite in2="hardAlpha" operator="out"/>
<feColorMatrix type="matrix" values="0 0 0 0 0 0 0 0 0 0 0 0 0 0 0 0 0 0 0.25 0"/>
<feBlend mode="normal" in2="BackgroundImageFix" result="effect1_dropShadow_3086_689"/>
<feBlend mode="normal" in="SourceGraphic" in2="effect1_dropShadow_3086_689" result="shape"/>
</filter>
<filter id="filter5_d_3086_689" x="160.604" y="51.6416" width="75.8301" height="117.863" filterUnits="userSpaceOnUse" color-interpolation-filters="sRGB">
<feFlood flood-opacity="0" result="BackgroundImageFix"/>
<feColorMatrix in="SourceAlpha" type="matrix" values="0 0 0 0 0 0 0 0 0 0 0 0 0 0 0 0 0 0 127 0" result="hardAlpha"/>
<feOffset dy="4"/>
<feGaussianBlur stdDeviation="2"/>
<feComposite in2="hardAlpha" operator="out"/>
<feColorMatrix type="matrix" values="0 0 0 0 0 0 0 0 0 0 0 0 0 0 0 0 0 0 0.25 0"/>
<feBlend mode="normal" in2="BackgroundImageFix" result="effect1_dropShadow_3086_689"/>
<feBlend mode="normal" in="SourceGraphic" in2="effect1_dropShadow_3086_689" result="shape"/>
</filter>
<filter id="filter6_d_3086_689" x="152.5" y="152.323" width="19.1875" height="18.1284" filterUnits="userSpaceOnUse" color-interpolation-filters="sRGB">
<feFlood flood-opacity="0" result="BackgroundImageFix"/>
<feColorMatrix in="SourceAlpha" type="matrix" values="0 0 0 0 0 0 0 0 0 0 0 0 0 0 0 0 0 0 127 0" result="hardAlpha"/>
<feOffset dy="4"/>
<feGaussianBlur stdDeviation="2"/>
<feComposite in2="hardAlpha" operator="out"/>
<feColorMatrix type="matrix" values="0 0 0 0 0 0 0 0 0 0 0 0 0 0 0 0 0 0 0.25 0"/>
<feBlend mode="normal" in2="BackgroundImageFix" result="effect1_dropShadow_3086_689"/>
<feBlend mode="normal" in="SourceGraphic" in2="effect1_dropShadow_3086_689" result="shape"/>
</filter>
<filter id="filter7_d_3086_689" x="31.0781" y="106.578" width="59.2832" height="47.4385" filterUnits="userSpaceOnUse" color-interpolation-filters="sRGB">
<feFlood flood-opacity="0" result="BackgroundImageFix"/>
<feColorMatrix in="SourceAlpha" type="matrix" values="0 0 0 0 0 0 0 0 0 0 0 0 0 0 0 0 0 0 127 0" result="hardAlpha"/>
<feOffset dy="4"/>
<feGaussianBlur stdDeviation="2"/>
<feComposite in2="hardAlpha" operator="out"/>
<feColorMatrix type="matrix" values="0 0 0 0 0 0 0 0 0 0 0 0 0 0 0 0 0 0 0.25 0"/>
<feBlend mode="normal" in2="BackgroundImageFix" result="effect1_dropShadow_3086_689"/>
<feBlend mode="normal" in="SourceGraphic" in2="effect1_dropShadow_3086_689" result="shape"/>
</filter>
<filter id="filter8_d_3086_689" x="2.34375" y="80.8384" width="88.3125" height="58.4819" filterUnits="userSpaceOnUse" color-interpolation-filters="sRGB">
<feFlood flood-opacity="0" result="BackgroundImageFix"/>
<feColorMatrix in="SourceAlpha" type="matrix" values="0 0 0 0 0 0 0 0 0 0 0 0 0 0 0 0 0 0 127 0" result="hardAlpha"/>
<feOffset dy="4"/>
<feGaussianBlur stdDeviation="2"/>
<feComposite in2="hardAlpha" operator="out"/>
<feColorMatrix type="matrix" values="0 0 0 0 0 0 0 0 0 0 0 0 0 0 0 0 0 0 0.25 0"/>
<feBlend mode="normal" in2="BackgroundImageFix" result="effect1_dropShadow_3086_689"/>
<feBlend mode="normal" in="SourceGraphic" in2="effect1_dropShadow_3086_689" result="shape"/>
</filter>
<filter id="filter9_d_3086_689" x="2.6543" y="105.94" width="37.4238" height="45.376" filterUnits="userSpaceOnUse" color-interpolation-filters="sRGB">
<feFlood flood-opacity="0" result="BackgroundImageFix"/>
<feColorMatrix in="SourceAlpha" type="matrix" values="0 0 0 0 0 0 0 0 0 0 0 0 0 0 0 0 0 0 127 0" result="hardAlpha"/>
<feOffset dy="4"/>
<feGaussianBlur stdDeviation="2"/>
<feComposite in2="hardAlpha" operator="out"/>
<feColorMatrix type="matrix" values="0 0 0 0 0 0 0 0 0 0 0 0 0 0 0 0 0 0 0.25 0"/>
<feBlend mode="normal" in2="BackgroundImageFix" result="effect1_dropShadow_3086_689"/>
<feBlend mode="normal" in="SourceGraphic" in2="effect1_dropShadow_3086_689" result="shape"/>
</filter>
</defs>
</svg>
