<svg width="241" height="178" viewBox="0 0 241 178" fill="none" xmlns="http://www.w3.org/2000/svg">
<path d="M3.81753 34.3127V24.3447L6.58881 22.7447C7.23544 22.3713 7.75737 22.198 8.15458 22.2247C8.5518 22.2513 8.84278 22.4247 9.02754 22.7447C9.22153 23.0487 9.31852 23.462 9.31852 23.9847C9.31852 24.3687 9.26771 24.7553 9.1661 25.1447C9.06449 25.534 8.90283 25.9207 8.68113 26.3047C8.46866 26.6833 8.19615 27.038 7.8636 27.3687C7.53105 27.6993 7.12921 28.0007 6.65809 28.2727L4.81519 29.3367V33.7367L3.81753 34.3127ZM4.81519 28.3447L6.54724 27.3447C6.97217 27.0993 7.31396 26.8327 7.57261 26.5447C7.83127 26.246 8.02064 25.934 8.14073 25.6087C8.26082 25.2727 8.32086 24.934 8.32086 24.5927C8.32086 24.262 8.26082 23.998 8.14073 23.8007C8.02064 23.6033 7.83127 23.4993 7.57261 23.4887C7.31396 23.4673 6.97679 23.5767 6.5611 23.8167L4.81519 24.8247V28.3447ZM11.3 22.6807L12.3392 22.0807L12.2976 24.2327L12.1729 24.0647C12.2284 23.702 12.3254 23.3527 12.4639 23.0167C12.6025 22.6807 12.7688 22.3713 12.9628 22.0887C13.1567 21.7953 13.3692 21.5393 13.6002 21.3207C13.8311 21.0913 14.0713 20.9047 14.3207 20.7607C14.6532 20.5687 14.9581 20.462 15.2352 20.4407C15.5216 20.4033 15.7756 20.454 15.9973 20.5927L15.5539 21.7447L15.4985 21.9207L15.4015 21.9127C15.383 21.838 15.3553 21.774 15.3183 21.7207C15.2814 21.6673 15.2029 21.622 15.0828 21.5847C14.935 21.5633 14.7964 21.574 14.6671 21.6167C14.547 21.6433 14.4084 21.702 14.2514 21.7927C14.0205 21.926 13.7895 22.1127 13.5586 22.3527C13.3276 22.582 13.1152 22.8593 12.9212 23.1847C12.7364 23.5047 12.5886 23.862 12.4778 24.2567C12.3669 24.6513 12.3115 25.078 12.3115 25.5367V29.4247L11.3 30.0087V22.6807ZM19.7663 25.2327C19.1935 25.5633 18.6855 25.6967 18.242 25.6327C17.8079 25.5527 17.4661 25.302 17.2167 24.8807C16.9673 24.4487 16.8425 23.8647 16.8425 23.1287C16.8425 22.382 16.9673 21.654 17.2167 20.9447C17.4661 20.2247 17.8079 19.5793 18.242 19.0087C18.6855 18.422 19.1935 17.9633 19.7663 17.6327C20.339 17.302 20.8424 17.1767 21.2766 17.2567C21.72 17.3207 22.0664 17.5687 22.3158 18.0007C22.5652 18.422 22.69 19.006 22.69 19.7527C22.69 20.4887 22.5652 21.2167 22.3158 21.9367C22.0664 22.646 21.72 23.294 21.2766 23.8807C20.8424 24.4513 20.339 24.902 19.7663 25.2327ZM19.7663 24.2727C20.1358 24.0593 20.4591 23.75 20.7362 23.3447C21.0133 22.9393 21.2304 22.478 21.3875 21.9607C21.5537 21.438 21.6369 20.8993 21.6369 20.3447C21.6369 19.79 21.5537 19.3473 21.3875 19.0167C21.2304 18.6807 21.0133 18.4753 20.7362 18.4007C20.4591 18.3153 20.1358 18.3793 19.7663 18.5927C19.406 18.8007 19.0827 19.11 18.7963 19.5207C18.5192 19.9153 18.2975 20.374 18.1312 20.8967C17.9742 21.414 17.8956 21.95 17.8956 22.5047C17.8956 23.0593 17.9742 23.5047 18.1312 23.8407C18.2975 24.1713 18.5192 24.3793 18.7963 24.4647C19.0827 24.5447 19.406 24.4807 19.7663 24.2727ZM26.1956 21.5527C25.8723 21.7393 25.5536 21.8433 25.2395 21.8647C24.9347 21.8807 24.6529 21.8033 24.3943 21.6327C24.1449 21.4567 23.9463 21.166 23.7985 20.7607C23.6507 20.3553 23.5768 19.8273 23.5768 19.1767C23.5768 18.5047 23.6553 17.8887 23.8123 17.3287C23.9694 16.758 24.1772 16.2487 24.4359 15.8007C24.6945 15.342 24.9809 14.9527 25.295 14.6327C25.609 14.302 25.9277 14.0433 26.2511 13.8567C26.5467 13.686 26.8099 13.5873 27.0409 13.5607C27.281 13.5287 27.4889 13.558 27.6644 13.6487C27.8492 13.7233 27.9923 13.8593 28.094 14.0567V9.65667L29.0085 9.12867L29.147 9.04867V9.16067C29.0916 9.25667 29.0547 9.34733 29.0362 9.43267C29.027 9.51267 29.0223 9.64333 29.0223 9.82467L29.0362 18.6167C29.0362 18.8087 29.0408 18.998 29.05 19.1847C29.0685 19.3553 29.1101 19.518 29.1748 19.6727L28.1909 20.2407C28.1448 20.1393 28.1124 20.03 28.094 19.9127C28.0755 19.7953 28.0616 19.6807 28.0524 19.5687C28.0524 19.4407 28.0524 19.3127 28.0524 19.1847C27.9231 19.5153 27.766 19.8353 27.5813 20.1447C27.3965 20.4433 27.1887 20.7127 26.9577 20.9527C26.7268 21.1927 26.4728 21.3927 26.1956 21.5527ZM26.348 20.4567C26.6529 20.2807 26.9115 20.062 27.124 19.8007C27.3365 19.5287 27.5074 19.2273 27.6367 18.8967C27.766 18.5553 27.8584 18.198 27.9138 17.8247C27.9785 17.4353 28.0108 17.0433 28.0108 16.6487C28.0108 16.1047 27.9508 15.654 27.8307 15.2967C27.7106 14.9287 27.5212 14.6967 27.2626 14.6007C27.0039 14.494 26.6714 14.558 26.2649 14.7927C25.9878 14.9527 25.7384 15.1607 25.5167 15.4167C25.3042 15.6567 25.1241 15.9367 24.9763 16.2567C24.8377 16.5713 24.7315 16.9153 24.6576 17.2887C24.5837 17.6513 24.5467 18.0353 24.5467 18.4407C24.5467 19.0487 24.616 19.542 24.7546 19.9207C24.8931 20.2993 25.0964 20.5393 25.3642 20.6407C25.6321 20.742 25.9601 20.6807 26.348 20.4567Z" fill="black"/>
<path d="M156.748 52.3272V42.3432L158.757 41.1832C159.256 40.8952 159.677 40.7058 160.018 40.6152C160.36 40.5245 160.651 40.5112 160.891 40.5752C161.131 40.6285 161.344 40.7512 161.529 40.9432C161.723 41.1298 161.88 41.3752 162 41.6792C162.129 41.9778 162.222 42.3352 162.277 42.7512C162.342 43.1512 162.374 43.6125 162.374 44.1352C162.346 44.9192 162.258 45.6578 162.111 46.3512C161.963 47.0445 161.741 47.6898 161.446 48.2872C161.15 48.8845 160.767 49.4365 160.295 49.9432C159.834 50.4338 159.265 50.8738 158.591 51.2632L156.748 52.3272ZM157.663 50.9192L158.55 50.4072C159.215 50.0232 159.755 49.5565 160.171 49.0072C160.596 48.4525 160.91 47.8178 161.113 47.1032C161.316 46.3885 161.413 45.6072 161.404 44.7592C161.404 43.8845 161.312 43.1912 161.127 42.6792C160.942 42.1672 160.651 41.8605 160.254 41.7592C159.866 41.6525 159.349 41.7858 158.702 42.1592L157.663 42.7592V50.9192ZM166.42 46.8872C165.958 47.1538 165.538 47.3165 165.159 47.3752C164.78 47.4232 164.452 47.3672 164.175 47.2072C163.907 47.0418 163.7 46.7672 163.552 46.3832C163.404 45.9885 163.33 45.4872 163.33 44.8792C163.33 44.2605 163.404 43.6685 163.552 43.1032C163.709 42.5325 163.917 42.0125 164.175 41.5432C164.443 41.0578 164.753 40.6285 165.104 40.2552C165.464 39.8765 165.843 39.5725 166.24 39.3432C166.6 39.1352 166.937 39.0098 167.251 38.9672C167.565 38.9245 167.838 38.9805 168.069 39.1352C168.3 39.2792 168.48 39.5325 168.609 39.8952C168.748 40.2525 168.817 40.7298 168.817 41.3272C168.817 41.4125 168.813 41.5058 168.803 41.6072C168.803 41.6925 168.799 41.7805 168.789 41.8712L164.286 44.4712C164.305 44.9298 164.374 45.3005 164.494 45.5832C164.614 45.8552 164.771 46.0472 164.965 46.1592C165.159 46.2605 165.381 46.2925 165.63 46.2552C165.889 46.2125 166.161 46.1085 166.448 45.9432C166.669 45.8152 166.877 45.6685 167.071 45.5032C167.265 45.3272 167.445 45.1325 167.612 44.9192C167.787 44.6898 167.944 44.4445 168.083 44.1832L168.637 44.4872C168.462 44.8338 168.258 45.1592 168.027 45.4632C167.806 45.7618 167.561 46.0258 167.293 46.2552C167.025 46.4952 166.734 46.7058 166.42 46.8872ZM164.328 43.5512L167.806 41.5432C167.806 41.2018 167.764 40.9218 167.681 40.7032C167.607 40.4685 167.496 40.2978 167.348 40.1912C167.21 40.0685 167.039 40.0178 166.836 40.0392C166.642 40.0445 166.42 40.1192 166.171 40.2632C165.949 40.3912 165.736 40.5565 165.533 40.7592C165.339 40.9565 165.159 41.1992 164.993 41.4872C164.827 41.7645 164.683 42.0765 164.563 42.4232C164.452 42.7645 164.374 43.1405 164.328 43.5512ZM172.364 43.2952L169.856 37.4312L170.854 36.8552L172.905 41.6712L172.711 41.7832L173.833 38.1592C174.055 37.4445 174.23 36.7992 174.36 36.2232C174.498 35.6418 174.6 35.1192 174.665 34.6552L175.607 34.1112C175.533 34.6018 175.417 35.1592 175.26 35.7832C175.103 36.4072 174.909 37.0952 174.678 37.8472L173.14 42.8472L172.364 43.2952Z" fill="black"/>
<g filter="url(#filter0_d_3086_1848)">
<line y1="-0.5" x2="60" y2="-0.5" transform="matrix(0.866025 -0.5 0 1 58 119)" stroke="black" stroke-dasharray="3 3"/>
</g>
<g filter="url(#filter1_d_3086_1848)">
<line y1="-0.5" x2="82" y2="-0.5" transform="matrix(0.866025 0.5 0 1 110 89)" stroke="black" stroke-dasharray="3 3"/>
</g>
<g filter="url(#filter2_d_3086_1848)">
<circle cx="16.748" cy="16.748" r="16.748" transform="matrix(0.866025 0.5 -0.866025 0.5 122.008 75)" fill="white" stroke="black" stroke-linejoin="bevel"/>
<path d="M101.496 91.748C101.496 95.0183 103.792 97.979 107.504 100.122V105.705C103.792 103.562 101.496 100.601 101.496 97.3307V91.748Z" fill="#E7E7E7" stroke="black" stroke-linejoin="bevel"/>
<path d="M107.502 100.122C115.512 104.747 128.5 104.747 136.51 100.122V105.705C128.5 110.33 115.512 110.33 107.502 105.705V100.122Z" fill="#B7B7B7" stroke="black" stroke-linejoin="bevel"/>
<path d="M142.52 91.748C142.52 95.0183 140.224 97.979 136.512 100.122V105.705C140.224 103.562 142.52 100.601 142.52 97.3307V91.748Z" fill="#B7B7B7" stroke="black" stroke-linejoin="bevel"/>
<path d="M129.815 87.3345C130.427 86.9811 130.733 86.8045 130.877 86.6076C131.077 86.3323 131.074 86.0206 130.868 85.744C130.721 85.5462 130.412 85.3676 129.793 85.0104L129.793 85.0103L125.812 82.7118C124.53 81.9716 123.889 81.6016 123.097 81.5991C122.305 81.5966 121.671 81.9626 120.403 82.6946L117.965 84.1019C116.011 85.2302 115.034 85.7943 115.286 86.3948C115.538 86.9952 116.859 87.2516 119.502 87.7644L124.551 88.744C125.432 88.915 125.702 89.5597 125.051 89.9358C124.72 90.1269 124.229 90.1926 123.781 90.1058L113.888 88.1863L113.888 88.1862C112.797 87.9744 112.251 87.8685 111.724 87.9391C111.197 88.0097 110.793 88.2427 109.986 88.7087L109.181 89.1733C107.914 89.9054 107.28 90.2714 107.284 90.7287C107.288 91.1861 107.929 91.5561 109.211 92.2963L113.063 94.5201C113.682 94.8774 113.991 95.056 114.138 95.2538C114.344 95.5304 114.347 95.8421 114.146 96.1174C114.003 96.3142 113.697 96.4909 113.085 96.8443C112.473 97.1976 112.167 97.3743 112.024 97.5712C111.823 97.8465 111.826 98.1582 112.032 98.4347C112.179 98.6325 112.488 98.8112 113.107 99.1684L117.088 101.467C118.37 102.207 119.011 102.577 119.803 102.58C120.596 102.582 121.23 102.216 122.498 101.484L122.498 101.484L124.935 100.077C126.889 98.9486 127.866 98.3844 127.614 97.784C127.362 97.1835 126.041 96.9271 123.398 96.4143L118.35 95.4347C117.469 95.2638 117.198 94.619 117.85 94.2429C118.18 94.0519 118.672 93.9861 119.119 94.0729L129.012 95.9925C130.104 96.2043 130.649 96.3102 131.176 96.2397C131.703 96.1691 132.107 95.9361 132.914 95.4701L132.914 95.4701L133.719 95.0054C134.987 94.2734 135.621 93.9074 135.616 93.45C135.612 92.9927 134.971 92.6226 133.689 91.8825L129.837 89.6586C129.219 89.3014 128.909 89.1228 128.762 88.925C128.556 88.6484 128.553 88.3367 128.754 88.0614C128.897 87.8645 129.203 87.6878 129.815 87.3345Z" fill="#272F30"/>
<path d="M129.815 87.3345C130.427 86.9811 130.733 86.8045 130.877 86.6076C131.077 86.3323 131.074 86.0206 130.868 85.744C130.721 85.5462 130.412 85.3676 129.793 85.0104L129.793 85.0103L125.812 82.7118C124.53 81.9716 123.889 81.6016 123.097 81.5991C122.305 81.5966 121.671 81.9626 120.403 82.6946L117.965 84.1019C116.011 85.2302 115.034 85.7943 115.286 86.3948C115.538 86.9952 116.859 87.2516 119.502 87.7644L124.551 88.744C125.432 88.915 125.702 89.5597 125.051 89.9358C124.72 90.1269 124.229 90.1926 123.781 90.1058L113.888 88.1863L113.888 88.1862C112.797 87.9744 112.251 87.8685 111.724 87.9391C111.197 88.0097 110.793 88.2427 109.986 88.7087L109.181 89.1733C107.914 89.9054 107.28 90.2714 107.284 90.7287C107.288 91.1861 107.929 91.5561 109.211 92.2963L113.063 94.5201C113.682 94.8774 113.991 95.056 114.138 95.2538C114.344 95.5304 114.347 95.8421 114.146 96.1174C114.003 96.3142 113.697 96.4909 113.085 96.8443C112.473 97.1976 112.167 97.3743 112.024 97.5712C111.823 97.8465 111.826 98.1582 112.032 98.4347C112.179 98.6325 112.488 98.8112 113.107 99.1684L117.088 101.467C118.37 102.207 119.011 102.577 119.803 102.58C120.596 102.582 121.23 102.216 122.498 101.484L122.498 101.484L124.935 100.077C126.889 98.9486 127.866 98.3844 127.614 97.784C127.362 97.1835 126.041 96.9271 123.398 96.4143L118.35 95.4347C117.469 95.2638 117.198 94.619 117.85 94.2429C118.18 94.0519 118.672 93.9861 119.119 94.0729L129.012 95.9925C130.104 96.2043 130.649 96.3102 131.176 96.2397C131.703 96.1691 132.107 95.9361 132.914 95.4701L132.914 95.4701L133.719 95.0054C134.987 94.2734 135.621 93.9074 135.616 93.45C135.612 92.9927 134.971 92.6226 133.689 91.8825L129.837 89.6586C129.219 89.3014 128.909 89.1228 128.762 88.925C128.556 88.6484 128.553 88.3367 128.754 88.0614C128.897 87.8645 129.203 87.6878 129.815 87.3345Z" stroke="white"/>
</g>
<g filter="url(#filter3_d_3086_1848)">
<path d="M74.2761 117.767C88.0077 109.612 85.237 108.253 85.8611 106.554C84.9249 125.582 88.0077 122.863 81.454 127.62L58.6721 141.891C48.6855 147.871 39.115 144.722 35.5781 142.23V127.96C45.5647 133.668 55.1352 129.659 58.6721 127.28L74.2761 117.767Z" fill="#B7D0F6"/>
<path d="M74.2761 117.767C88.0077 109.612 85.237 108.253 85.8611 106.554C84.9249 125.582 88.0077 122.863 81.454 127.62L58.6721 141.891C48.6855 147.871 39.115 144.722 35.5781 142.23V127.96C45.5647 133.668 55.1352 129.659 58.6721 127.28L74.2761 117.767Z" stroke="black"/>
</g>
<g filter="url(#filter4_d_3086_1848)">
<rect width="54.9235" height="54.9235" rx="14" transform="matrix(0.846632 0.532179 -0.846632 0.532179 46.5 76.6538)" fill="#E7E7E7"/>
<rect width="54.9235" height="54.9235" rx="14" transform="matrix(0.846632 0.532179 -0.846632 0.532179 46.5 76.6538)" stroke="black" stroke-linejoin="bevel"/>
</g>
<path d="M64.5265 130.944C64.5265 132.011 63.8445 133.251 63.0579 133.745C62.2713 134.24 61.5893 133.857 61.5893 132.79C61.5893 131.723 62.2713 130.483 63.0579 129.989C63.8445 129.494 64.5265 129.877 64.5265 130.944Z" fill="#2246C8" stroke="black"/>
<path d="M58.2862 134.682C58.2862 135.749 57.6043 136.989 56.8177 137.483C56.0311 137.978 55.3491 137.595 55.3491 136.528C55.3491 135.461 56.0311 134.221 56.8177 133.726C57.6043 133.232 58.2862 133.614 58.2862 134.682Z" fill="#2246C8" stroke="black"/>
<rect x="0.423316" y="0.233911" width="15.9563" height="3.75684" rx="1.87842" transform="matrix(0.846632 -0.532179 0 1 66.8501 127.356)" fill="#B3F6CA" stroke="black"/>
<g filter="url(#filter5_d_3086_1848)">
<path d="M10.8979 112.33L35.5774 128.3L35.5536 142.23L12.1476 127.96C8.15301 125.513 7.15432 121.957 7.15431 120.485L7.15428 105.776C7.44357 110.193 9.33677 111.311 10.8979 112.33Z" fill="#B7B7B7"/>
<path d="M10.8979 112.33L35.5774 128.3L35.5536 142.23L12.1476 127.96C8.15301 125.513 7.15432 121.957 7.15431 120.485L7.15428 105.776C7.44357 110.193 9.33677 111.311 10.8979 112.33Z" stroke="black"/>
</g>
<path d="M74.2761 85.8268C88.0077 77.6722 85.237 76.3131 85.8611 74.6143C84.9249 93.6416 88.0077 90.9234 81.454 95.6802L58.6721 109.951C48.6855 115.931 39.115 112.782 35.5781 110.291V96.02C45.5647 101.728 55.1352 97.7189 58.6721 95.3405L74.2761 85.8268Z" fill="#B7D0F6" stroke="black"/>
<rect width="54.9235" height="54.9235" rx="14" transform="matrix(0.846632 0.532179 -0.846632 0.532179 46.5 44.7148)" fill="#E7E7E7" stroke="black" stroke-linejoin="bevel"/>
<path d="M64.5265 99.0044C64.5265 100.072 63.8445 101.311 63.0579 101.806C62.2713 102.3 61.5893 101.918 61.5893 100.851C61.5893 99.7834 62.2713 98.5435 63.0579 98.0491C63.8445 97.5546 64.5265 97.9371 64.5265 99.0044Z" fill="#2246C8" stroke="black"/>
<path d="M58.2862 102.743C58.2862 103.81 57.6043 105.05 56.8177 105.544C56.0311 106.039 55.3491 105.656 55.3491 104.589C55.3491 103.522 56.0311 102.282 56.8177 101.787C57.6043 101.293 58.2862 101.675 58.2862 102.743Z" fill="#2246C8" stroke="black"/>
<rect x="0.423316" y="0.233911" width="15.9563" height="3.75684" rx="1.87842" transform="matrix(0.846632 -0.532179 0 1 66.8501 95.4157)" fill="#B3F6CA" stroke="black"/>
<path d="M10.8979 80.3908L35.5774 96.3601L35.5536 110.291L12.1476 96.0204C8.15299 93.574 7.15431 90.0177 7.1543 88.5453L7.15466 73.9351C7.44394 78.3521 9.33676 79.3714 10.8979 80.3908Z" fill="#B7B7B7" stroke="black"/>
<path d="M74.2761 53.8889C88.0077 45.7343 85.237 43.7663 85.8611 42.0674C84.9249 61.0947 88.0077 58.9855 81.454 63.7423L58.6721 78.0128C48.6855 83.9928 39.115 80.8443 35.5781 78.3526V64.0821C45.5647 69.7903 55.1352 65.7809 58.6721 63.4025L74.2761 53.8889Z" fill="#B7D0F6" stroke="black"/>
<rect width="54.9235" height="54.9235" rx="14" transform="matrix(0.846632 0.532179 -0.846632 0.532179 46.5 12.7764)" fill="#E7E7E7" stroke="black" stroke-linejoin="bevel"/>
<path d="M64.5265 67.0664C64.5265 68.1336 63.8445 69.3735 63.0579 69.8679C62.2713 70.3624 61.5893 69.9799 61.5893 68.9126C61.5893 67.8454 62.2713 66.6055 63.0579 66.1111C63.8445 65.6166 64.5265 65.9991 64.5265 67.0664Z" fill="#2246C8" stroke="black"/>
<path d="M58.2862 70.8042C58.2862 71.8714 57.6043 73.1113 56.8177 73.6057C56.0311 74.1001 55.3491 73.7177 55.3491 72.6504C55.3491 71.5832 56.0311 70.3433 56.8177 69.8489C57.6043 69.3544 58.2862 69.7369 58.2862 70.8042Z" fill="#2246C8" stroke="black"/>
<rect x="0.423316" y="0.233911" width="15.9563" height="3.75684" rx="1.87842" transform="matrix(0.846632 -0.532179 0 1 66.8501 63.4777)" fill="#B3F6CA" stroke="black"/>
<path d="M10.8979 48.4523L35.5774 64.4217L35.5536 78.3524L12.1476 64.0819C8.15299 61.6355 7.15431 58.0792 7.1543 56.6069L7.15466 41.9966C7.44394 46.4136 9.33676 47.433 10.8979 48.4523Z" fill="#B7B7B7" stroke="black"/>
<g filter="url(#filter6_d_3086_1848)">
<path d="M222.276 140.99C236.008 132.836 233.237 131.477 233.861 129.778C232.925 148.805 236.008 146.087 229.454 150.844L206.672 165.114C196.686 171.094 187.115 167.946 183.578 165.454V151.184C193.565 156.892 203.135 152.882 206.672 150.504L222.276 140.99Z" fill="#B7D0F6"/>
<path d="M222.276 140.99C236.008 132.836 233.237 131.477 233.861 129.778C232.925 148.805 236.008 146.087 229.454 150.844L206.672 165.114C196.686 171.094 187.115 167.946 183.578 165.454V151.184C193.565 156.892 203.135 152.882 206.672 150.504L222.276 140.99Z" stroke="black"/>
</g>
<g filter="url(#filter7_d_3086_1848)">
<rect width="54.9235" height="54.9235" rx="14" transform="matrix(0.846632 0.532179 -0.846632 0.532179 194.5 99.8774)" fill="#E7E7E7"/>
<rect width="54.9235" height="54.9235" rx="14" transform="matrix(0.846632 0.532179 -0.846632 0.532179 194.5 99.8774)" stroke="black" stroke-linejoin="bevel"/>
</g>
<path d="M212.526 154.167C212.526 155.235 211.844 156.475 211.058 156.969C210.271 157.463 209.589 157.081 209.589 156.014C209.589 154.946 210.271 153.707 211.058 153.212C211.844 152.718 212.526 153.1 212.526 154.167Z" fill="#2246C8" stroke="black"/>
<path d="M206.286 157.905C206.286 158.973 205.604 160.212 204.818 160.707C204.031 161.201 203.349 160.819 203.349 159.751C203.349 158.684 204.031 157.444 204.818 156.95C205.604 156.456 206.286 156.838 206.286 157.905Z" fill="#2246C8" stroke="black"/>
<rect x="0.423316" y="0.233911" width="15.9563" height="3.75684" rx="1.87842" transform="matrix(0.846632 -0.532179 0 1 214.85 150.579)" fill="#B3F6CA" stroke="black"/>
<g filter="url(#filter8_d_3086_1848)">
<path d="M158.898 135.554L183.577 151.523L183.554 165.454L160.148 151.183C156.153 148.737 155.154 145.181 155.154 143.708L155.154 129C155.444 133.417 157.337 134.534 158.898 135.554Z" fill="#B7B7B7"/>
<path d="M158.898 135.554L183.577 151.523L183.554 165.454L160.148 151.183C156.153 148.737 155.154 145.181 155.154 143.708L155.154 129C155.444 133.417 157.337 134.534 158.898 135.554Z" stroke="black"/>
</g>
<path d="M222.276 109.05C236.008 100.896 233.237 99.5368 233.861 97.8379C232.925 116.865 236.008 114.147 229.454 118.904L206.672 133.174C196.686 139.154 187.115 136.006 183.578 133.514V119.244C193.565 124.952 203.135 120.943 206.672 118.564L222.276 109.05Z" fill="#B7D0F6" stroke="black"/>
<rect width="54.9235" height="54.9235" rx="14" transform="matrix(0.846632 0.532179 -0.846632 0.532179 194.5 67.9385)" fill="#E7E7E7" stroke="black" stroke-linejoin="bevel"/>
<path d="M212.526 122.228C212.526 123.295 211.844 124.535 211.058 125.03C210.271 125.524 209.589 125.142 209.589 124.074C209.589 123.007 210.271 121.767 211.058 121.273C211.844 120.778 212.526 121.161 212.526 122.228Z" fill="#2246C8" stroke="black"/>
<path d="M206.286 125.966C206.286 127.034 205.604 128.273 204.818 128.768C204.031 129.262 203.349 128.88 203.349 127.813C203.349 126.745 204.031 125.505 204.818 125.011C205.604 124.517 206.286 124.899 206.286 125.966Z" fill="#2246C8" stroke="black"/>
<rect x="0.423316" y="0.233911" width="15.9563" height="3.75684" rx="1.87842" transform="matrix(0.846632 -0.532179 0 1 214.85 118.639)" fill="#B3F6CA" stroke="black"/>
<path d="M158.898 103.614L183.577 119.584L183.554 133.515L160.148 119.244C156.153 116.798 155.154 113.241 155.154 111.769L155.155 97.1587C155.444 101.576 157.337 102.595 158.898 103.614Z" fill="#B7B7B7" stroke="black"/>
<path d="M222.276 77.1125C236.008 68.9579 233.237 66.9899 233.861 65.291C232.925 84.3184 236.008 82.2091 229.454 86.9659L206.672 101.236C196.686 107.216 187.115 104.068 183.578 101.576V87.3057C193.565 93.0139 203.135 89.0046 206.672 86.6262L222.276 77.1125Z" fill="#B7D0F6" stroke="black"/>
<rect width="54.9235" height="54.9235" rx="14" transform="matrix(0.846632 0.532179 -0.846632 0.532179 194.5 36)" fill="#E7E7E7" stroke="black" stroke-linejoin="bevel"/>
<path d="M212.526 90.29C212.526 91.3573 211.844 92.5971 211.058 93.0916C210.271 93.586 209.589 93.2035 209.589 92.1363C209.589 91.069 210.271 89.8292 211.058 89.3347C211.844 88.8403 212.526 89.2228 212.526 90.29Z" fill="#2246C8" stroke="black"/>
<path d="M206.286 94.0278C206.286 95.0951 205.604 96.3349 204.818 96.8293C204.031 97.3238 203.349 96.9413 203.349 95.874C203.349 94.8068 204.031 93.5669 204.818 93.0725C205.604 92.5781 206.286 92.9606 206.286 94.0278Z" fill="#2246C8" stroke="black"/>
<rect x="0.423316" y="0.233911" width="15.9563" height="3.75684" rx="1.87842" transform="matrix(0.846632 -0.532179 0 1 214.85 86.7014)" fill="#B3F6CA" stroke="black"/>
<path d="M158.898 71.6759L183.577 87.6453L183.554 101.576L160.148 87.3055C156.153 84.8592 155.154 81.3029 155.154 79.8305L155.155 65.2202C155.444 69.6373 157.337 70.6566 158.898 71.6759Z" fill="#B7B7B7" stroke="black"/>
<defs>
<filter id="filter0_d_3086_1848" x="54" y="88" width="59.9609" height="39" filterUnits="userSpaceOnUse" color-interpolation-filters="sRGB">
<feFlood flood-opacity="0" result="BackgroundImageFix"/>
<feColorMatrix in="SourceAlpha" type="matrix" values="0 0 0 0 0 0 0 0 0 0 0 0 0 0 0 0 0 0 127 0" result="hardAlpha"/>
<feOffset dy="4"/>
<feGaussianBlur stdDeviation="2"/>
<feComposite in2="hardAlpha" operator="out"/>
<feColorMatrix type="matrix" values="0 0 0 0 0 0 0 0 0 0 0 0 0 0 0 0 0 0 0.25 0"/>
<feBlend mode="normal" in2="BackgroundImageFix" result="effect1_dropShadow_3086_1848"/>
<feBlend mode="normal" in="SourceGraphic" in2="effect1_dropShadow_3086_1848" result="shape"/>
</filter>
<filter id="filter1_d_3086_1848" x="106" y="88" width="79.0137" height="50" filterUnits="userSpaceOnUse" color-interpolation-filters="sRGB">
<feFlood flood-opacity="0" result="BackgroundImageFix"/>
<feColorMatrix in="SourceAlpha" type="matrix" values="0 0 0 0 0 0 0 0 0 0 0 0 0 0 0 0 0 0 127 0" result="hardAlpha"/>
<feOffset dy="4"/>
<feGaussianBlur stdDeviation="2"/>
<feComposite in2="hardAlpha" operator="out"/>
<feColorMatrix type="matrix" values="0 0 0 0 0 0 0 0 0 0 0 0 0 0 0 0 0 0 0.25 0"/>
<feBlend mode="normal" in2="BackgroundImageFix" result="effect1_dropShadow_3086_1848"/>
<feBlend mode="normal" in="SourceGraphic" in2="effect1_dropShadow_3086_1848" result="shape"/>
</filter>
<filter id="filter2_d_3086_1848" x="96.8828" y="79.5518" width="50.25" height="38.1216" filterUnits="userSpaceOnUse" color-interpolation-filters="sRGB">
<feFlood flood-opacity="0" result="BackgroundImageFix"/>
<feColorMatrix in="SourceAlpha" type="matrix" values="0 0 0 0 0 0 0 0 0 0 0 0 0 0 0 0 0 0 127 0" result="hardAlpha"/>
<feOffset dy="4"/>
<feGaussianBlur stdDeviation="2"/>
<feComposite in2="hardAlpha" operator="out"/>
<feColorMatrix type="matrix" values="0 0 0 0 0 0 0 0 0 0 0 0 0 0 0 0 0 0 0.25 0"/>
<feBlend mode="normal" in2="BackgroundImageFix" result="effect1_dropShadow_3086_1848"/>
<feBlend mode="normal" in="SourceGraphic" in2="effect1_dropShadow_3086_1848" result="shape"/>
</filter>
<filter id="filter3_d_3086_1848" x="31.0781" y="106.382" width="59.2832" height="47.4385" filterUnits="userSpaceOnUse" color-interpolation-filters="sRGB">
<feFlood flood-opacity="0" result="BackgroundImageFix"/>
<feColorMatrix in="SourceAlpha" type="matrix" values="0 0 0 0 0 0 0 0 0 0 0 0 0 0 0 0 0 0 127 0" result="hardAlpha"/>
<feOffset dy="4"/>
<feGaussianBlur stdDeviation="2"/>
<feComposite in2="hardAlpha" operator="out"/>
<feColorMatrix type="matrix" values="0 0 0 0 0 0 0 0 0 0 0 0 0 0 0 0 0 0 0.25 0"/>
<feBlend mode="normal" in2="BackgroundImageFix" result="effect1_dropShadow_3086_1848"/>
<feBlend mode="normal" in="SourceGraphic" in2="effect1_dropShadow_3086_1848" result="shape"/>
</filter>
<filter id="filter4_d_3086_1848" x="2.34375" y="80.6421" width="88.3125" height="58.4819" filterUnits="userSpaceOnUse" color-interpolation-filters="sRGB">
<feFlood flood-opacity="0" result="BackgroundImageFix"/>
<feColorMatrix in="SourceAlpha" type="matrix" values="0 0 0 0 0 0 0 0 0 0 0 0 0 0 0 0 0 0 127 0" result="hardAlpha"/>
<feOffset dy="4"/>
<feGaussianBlur stdDeviation="2"/>
<feComposite in2="hardAlpha" operator="out"/>
<feColorMatrix type="matrix" values="0 0 0 0 0 0 0 0 0 0 0 0 0 0 0 0 0 0 0.25 0"/>
<feBlend mode="normal" in2="BackgroundImageFix" result="effect1_dropShadow_3086_1848"/>
<feBlend mode="normal" in="SourceGraphic" in2="effect1_dropShadow_3086_1848" result="shape"/>
</filter>
<filter id="filter5_d_3086_1848" x="2.6543" y="105.744" width="37.4238" height="45.376" filterUnits="userSpaceOnUse" color-interpolation-filters="sRGB">
<feFlood flood-opacity="0" result="BackgroundImageFix"/>
<feColorMatrix in="SourceAlpha" type="matrix" values="0 0 0 0 0 0 0 0 0 0 0 0 0 0 0 0 0 0 127 0" result="hardAlpha"/>
<feOffset dy="4"/>
<feGaussianBlur stdDeviation="2"/>
<feComposite in2="hardAlpha" operator="out"/>
<feColorMatrix type="matrix" values="0 0 0 0 0 0 0 0 0 0 0 0 0 0 0 0 0 0 0.25 0"/>
<feBlend mode="normal" in2="BackgroundImageFix" result="effect1_dropShadow_3086_1848"/>
<feBlend mode="normal" in="SourceGraphic" in2="effect1_dropShadow_3086_1848" result="shape"/>
</filter>
<filter id="filter6_d_3086_1848" x="179.078" y="129.605" width="59.2832" height="47.4385" filterUnits="userSpaceOnUse" color-interpolation-filters="sRGB">
<feFlood flood-opacity="0" result="BackgroundImageFix"/>
<feColorMatrix in="SourceAlpha" type="matrix" values="0 0 0 0 0 0 0 0 0 0 0 0 0 0 0 0 0 0 127 0" result="hardAlpha"/>
<feOffset dy="4"/>
<feGaussianBlur stdDeviation="2"/>
<feComposite in2="hardAlpha" operator="out"/>
<feColorMatrix type="matrix" values="0 0 0 0 0 0 0 0 0 0 0 0 0 0 0 0 0 0 0.25 0"/>
<feBlend mode="normal" in2="BackgroundImageFix" result="effect1_dropShadow_3086_1848"/>
<feBlend mode="normal" in="SourceGraphic" in2="effect1_dropShadow_3086_1848" result="shape"/>
</filter>
<filter id="filter7_d_3086_1848" x="150.344" y="103.866" width="88.3125" height="58.4819" filterUnits="userSpaceOnUse" color-interpolation-filters="sRGB">
<feFlood flood-opacity="0" result="BackgroundImageFix"/>
<feColorMatrix in="SourceAlpha" type="matrix" values="0 0 0 0 0 0 0 0 0 0 0 0 0 0 0 0 0 0 127 0" result="hardAlpha"/>
<feOffset dy="4"/>
<feGaussianBlur stdDeviation="2"/>
<feComposite in2="hardAlpha" operator="out"/>
<feColorMatrix type="matrix" values="0 0 0 0 0 0 0 0 0 0 0 0 0 0 0 0 0 0 0.25 0"/>
<feBlend mode="normal" in2="BackgroundImageFix" result="effect1_dropShadow_3086_1848"/>
<feBlend mode="normal" in="SourceGraphic" in2="effect1_dropShadow_3086_1848" result="shape"/>
</filter>
<filter id="filter8_d_3086_1848" x="150.654" y="128.967" width="37.4238" height="45.376" filterUnits="userSpaceOnUse" color-interpolation-filters="sRGB">
<feFlood flood-opacity="0" result="BackgroundImageFix"/>
<feColorMatrix in="SourceAlpha" type="matrix" values="0 0 0 0 0 0 0 0 0 0 0 0 0 0 0 0 0 0 127 0" result="hardAlpha"/>
<feOffset dy="4"/>
<feGaussianBlur stdDeviation="2"/>
<feComposite in2="hardAlpha" operator="out"/>
<feColorMatrix type="matrix" values="0 0 0 0 0 0 0 0 0 0 0 0 0 0 0 0 0 0 0.25 0"/>
<feBlend mode="normal" in2="BackgroundImageFix" result="effect1_dropShadow_3086_1848"/>
<feBlend mode="normal" in="SourceGraphic" in2="effect1_dropShadow_3086_1848" result="shape"/>
</filter>
</defs>
</svg>
