<svg width="237" height="171" viewBox="0 0 237 171" fill="none" xmlns="http://www.w3.org/2000/svg">
<path d="M3.81753 34.3127V24.3447L6.58881 22.7447C7.23544 22.3713 7.75737 22.198 8.15458 22.2247C8.5518 22.2513 8.84278 22.4247 9.02754 22.7447C9.22153 23.0487 9.31852 23.462 9.31852 23.9847C9.31852 24.3687 9.26771 24.7553 9.1661 25.1447C9.06449 25.534 8.90283 25.9207 8.68113 26.3047C8.46866 26.6833 8.19615 27.038 7.8636 27.3687C7.53105 27.6993 7.12921 28.0007 6.65809 28.2727L4.81519 29.3367V33.7367L3.81753 34.3127ZM4.81519 28.3447L6.54724 27.3447C6.97217 27.0993 7.31396 26.8327 7.57261 26.5447C7.83127 26.246 8.02064 25.934 8.14073 25.6087C8.26082 25.2727 8.32086 24.934 8.32086 24.5927C8.32086 24.262 8.26082 23.998 8.14073 23.8007C8.02064 23.6033 7.83127 23.4993 7.57261 23.4887C7.31396 23.4673 6.97679 23.5767 6.5611 23.8167L4.81519 24.8247V28.3447ZM11.3 22.6807L12.3392 22.0807L12.2976 24.2327L12.1729 24.0647C12.2284 23.702 12.3254 23.3527 12.4639 23.0167C12.6025 22.6807 12.7688 22.3713 12.9628 22.0887C13.1567 21.7953 13.3692 21.5393 13.6002 21.3207C13.8311 21.0913 14.0713 20.9047 14.3207 20.7607C14.6532 20.5687 14.9581 20.462 15.2352 20.4407C15.5216 20.4033 15.7756 20.454 15.9973 20.5927L15.5539 21.7447L15.4985 21.9207L15.4015 21.9127C15.383 21.838 15.3553 21.774 15.3183 21.7207C15.2814 21.6673 15.2029 21.622 15.0828 21.5847C14.935 21.5633 14.7964 21.574 14.6671 21.6167C14.547 21.6433 14.4084 21.702 14.2514 21.7927C14.0205 21.926 13.7895 22.1127 13.5586 22.3527C13.3276 22.582 13.1152 22.8593 12.9212 23.1847C12.7364 23.5047 12.5886 23.862 12.4778 24.2567C12.3669 24.6513 12.3115 25.078 12.3115 25.5367V29.4247L11.3 30.0087V22.6807ZM19.7663 25.2327C19.1935 25.5633 18.6855 25.6967 18.242 25.6327C17.8079 25.5527 17.4661 25.302 17.2167 24.8807C16.9673 24.4487 16.8425 23.8647 16.8425 23.1287C16.8425 22.382 16.9673 21.654 17.2167 20.9447C17.4661 20.2247 17.8079 19.5793 18.242 19.0087C18.6855 18.422 19.1935 17.9633 19.7663 17.6327C20.339 17.302 20.8424 17.1767 21.2766 17.2567C21.72 17.3207 22.0664 17.5687 22.3158 18.0007C22.5652 18.422 22.69 19.006 22.69 19.7527C22.69 20.4887 22.5652 21.2167 22.3158 21.9367C22.0664 22.646 21.72 23.294 21.2766 23.8807C20.8424 24.4513 20.339 24.902 19.7663 25.2327ZM19.7663 24.2727C20.1358 24.0593 20.4591 23.75 20.7362 23.3447C21.0133 22.9393 21.2304 22.478 21.3875 21.9607C21.5537 21.438 21.6369 20.8993 21.6369 20.3447C21.6369 19.79 21.5537 19.3473 21.3875 19.0167C21.2304 18.6807 21.0133 18.4753 20.7362 18.4007C20.4591 18.3153 20.1358 18.3793 19.7663 18.5927C19.406 18.8007 19.0827 19.11 18.7963 19.5207C18.5192 19.9153 18.2975 20.374 18.1312 20.8967C17.9742 21.414 17.8956 21.95 17.8956 22.5047C17.8956 23.0593 17.9742 23.5047 18.1312 23.8407C18.2975 24.1713 18.5192 24.3793 18.7963 24.4647C19.0827 24.5447 19.406 24.4807 19.7663 24.2727ZM26.1956 21.5527C25.8723 21.7393 25.5536 21.8433 25.2395 21.8647C24.9347 21.8807 24.6529 21.8033 24.3943 21.6327C24.1449 21.4567 23.9463 21.166 23.7985 20.7607C23.6507 20.3553 23.5768 19.8273 23.5768 19.1767C23.5768 18.5047 23.6553 17.8887 23.8123 17.3287C23.9694 16.758 24.1772 16.2487 24.4359 15.8007C24.6945 15.342 24.9809 14.9527 25.295 14.6327C25.609 14.302 25.9277 14.0433 26.2511 13.8567C26.5467 13.686 26.8099 13.5873 27.0409 13.5607C27.281 13.5287 27.4889 13.558 27.6644 13.6487C27.8492 13.7233 27.9923 13.8593 28.094 14.0567V9.65667L29.0085 9.12867L29.147 9.04867V9.16067C29.0916 9.25667 29.0547 9.34733 29.0362 9.43267C29.027 9.51267 29.0223 9.64333 29.0223 9.82467L29.0362 18.6167C29.0362 18.8087 29.0408 18.998 29.05 19.1847C29.0685 19.3553 29.1101 19.518 29.1748 19.6727L28.1909 20.2407C28.1448 20.1393 28.1124 20.03 28.094 19.9127C28.0755 19.7953 28.0616 19.6807 28.0524 19.5687C28.0524 19.4407 28.0524 19.3127 28.0524 19.1847C27.9231 19.5153 27.766 19.8353 27.5813 20.1447C27.3965 20.4433 27.1887 20.7127 26.9577 20.9527C26.7268 21.1927 26.4728 21.3927 26.1956 21.5527ZM26.348 20.4567C26.6529 20.2807 26.9115 20.062 27.124 19.8007C27.3365 19.5287 27.5074 19.2273 27.6367 18.8967C27.766 18.5553 27.8584 18.198 27.9138 17.8247C27.9785 17.4353 28.0108 17.0433 28.0108 16.6487C28.0108 16.1047 27.9508 15.654 27.8307 15.2967C27.7106 14.9287 27.5212 14.6967 27.2626 14.6007C27.0039 14.494 26.6714 14.558 26.2649 14.7927C25.9878 14.9527 25.7384 15.1607 25.5167 15.4167C25.3042 15.6567 25.1241 15.9367 24.9763 16.2567C24.8377 16.5713 24.7315 16.9153 24.6576 17.2887C24.5837 17.6513 24.5467 18.0353 24.5467 18.4407C24.5467 19.0487 24.616 19.542 24.7546 19.9207C24.8931 20.2993 25.0964 20.5393 25.3642 20.6407C25.6321 20.742 25.9601 20.6807 26.348 20.4567Z" fill="black"/>
<path d="M173.8 61.2496L174.673 60.7456L174.794 60.6756V60.7736C174.746 60.8576 174.714 60.9369 174.697 61.0116C174.689 61.0816 174.685 61.1959 174.685 61.3546V68.6206L178.323 66.5206V67.3606L173.8 69.9716V61.2496ZM181.851 65.4356C181.35 65.7249 180.905 65.8416 180.517 65.7856C180.137 65.7156 179.838 65.4963 179.62 65.1276C179.402 64.7496 179.293 64.2386 179.293 63.5946C179.293 62.9413 179.402 62.3043 179.62 61.6836C179.838 61.0536 180.137 60.4889 180.517 59.9896C180.905 59.4763 181.35 59.0749 181.851 58.7856C182.352 58.4963 182.792 58.3866 183.172 58.4566C183.56 58.5126 183.863 58.7296 184.082 59.1076C184.3 59.4763 184.409 59.9873 184.409 60.6406C184.409 61.2846 184.3 61.9216 184.082 62.5516C183.863 63.1723 183.56 63.7393 183.172 64.2526C182.792 64.7519 182.352 65.1463 181.851 65.4356ZM181.851 64.5956C182.174 64.4089 182.457 64.1383 182.699 63.7836C182.942 63.4289 183.132 63.0253 183.269 62.5726C183.415 62.1153 183.488 61.6439 183.488 61.1586C183.488 60.6733 183.415 60.2859 183.269 59.9966C183.132 59.7026 182.942 59.5229 182.699 59.4576C182.457 59.3829 182.174 59.4389 181.851 59.6256C181.536 59.8076 181.253 60.0783 181.002 60.4376C180.76 60.7829 180.566 61.1843 180.42 61.6416C180.283 62.0943 180.214 62.5633 180.214 63.0486C180.214 63.5339 180.283 63.9236 180.42 64.2176C180.566 64.5069 180.76 64.6889 181.002 64.7636C181.253 64.8336 181.536 64.7776 181.851 64.5956ZM188.095 61.8726C187.691 62.1059 187.319 62.2366 186.979 62.2646C186.64 62.2926 186.345 62.2296 186.094 62.0756C185.852 61.9169 185.662 61.6766 185.524 61.3546C185.387 61.0233 185.318 60.6149 185.318 60.1296C185.318 59.6536 185.387 59.1753 185.524 58.6946C185.662 58.2046 185.852 57.7403 186.094 57.3016C186.345 56.8583 186.64 56.4546 186.979 56.0906C187.319 55.7266 187.687 55.4303 188.083 55.2016C188.535 54.9403 188.939 54.8143 189.295 54.8236C189.659 54.8189 189.954 54.9379 190.18 55.1806L189.635 56.1116L189.55 56.2586L189.489 56.2236C189.489 56.1489 189.473 56.0883 189.441 56.0416C189.416 55.9903 189.356 55.9366 189.259 55.8806C189.081 55.7966 188.891 55.7756 188.689 55.8176C188.487 55.8596 188.252 55.9576 187.986 56.1116C187.751 56.2469 187.529 56.4313 187.319 56.6646C187.109 56.8979 186.919 57.1709 186.749 57.4836C186.587 57.7823 186.458 58.1089 186.361 58.4636C186.264 58.8183 186.216 59.1776 186.216 59.5416C186.216 59.9056 186.264 60.2136 186.361 60.4656C186.458 60.7083 186.591 60.8926 186.761 61.0186C186.931 61.1446 187.133 61.2053 187.367 61.2006C187.61 61.1819 187.869 61.0933 188.143 60.9346C188.329 60.8273 188.507 60.6966 188.677 60.5426C188.847 60.3793 189.008 60.1973 189.162 59.9966C189.315 59.7866 189.457 59.5603 189.586 59.3176L190.095 59.7096C189.821 60.2043 189.513 60.6336 189.174 60.9976C188.842 61.3569 188.483 61.6486 188.095 61.8726ZM193.017 59.0306C192.387 59.3946 191.902 59.5113 191.562 59.3806C191.223 59.2406 191.053 58.9139 191.053 58.4006C191.053 58.0553 191.126 57.7053 191.271 57.3506C191.417 56.9866 191.615 56.6389 191.865 56.3076C192.124 55.9623 192.423 55.6403 192.763 55.3416C193.102 55.0429 193.462 54.7839 193.842 54.5646C193.979 54.4853 194.117 54.4106 194.254 54.3406C194.399 54.2566 194.549 54.1796 194.703 54.1096C194.864 54.0256 195.03 53.9486 195.2 53.8786L195.224 54.6346C195.078 54.6906 194.929 54.7583 194.775 54.8376C194.63 54.9029 194.484 54.9729 194.339 55.0476C194.193 55.1223 194.052 55.1993 193.915 55.2786C193.624 55.4466 193.357 55.6286 193.114 55.8246C192.872 56.0206 192.662 56.2259 192.484 56.4406C192.306 56.6553 192.169 56.8793 192.072 57.1126C191.975 57.3459 191.926 57.5886 191.926 57.8406C191.926 58.0366 191.954 58.1883 192.011 58.2956C192.076 58.3889 192.161 58.4473 192.266 58.4706C192.371 58.4846 192.492 58.4706 192.629 58.4286C192.775 58.3819 192.932 58.3096 193.102 58.2116C193.417 58.0296 193.696 57.8126 193.939 57.5606C194.189 57.2946 194.399 57.0006 194.569 56.6786C194.747 56.3519 194.88 55.9996 194.969 55.6216C195.058 55.2436 195.103 54.8446 195.103 54.4246C195.103 53.7899 195.038 53.3326 194.909 53.0526C194.779 52.7726 194.585 52.6326 194.327 52.6326C194.076 52.6279 193.753 52.7399 193.357 52.9686C193.09 53.1226 192.827 53.3349 192.569 53.6056C192.31 53.8669 192.076 54.1796 191.865 54.5436L191.441 54.1446C191.7 53.6966 191.999 53.2999 192.338 52.9546C192.678 52.6093 193.038 52.3269 193.417 52.1076C193.781 51.8976 194.113 51.7576 194.412 51.6876C194.711 51.6176 194.965 51.6433 195.175 51.7646C195.394 51.8719 195.559 52.0936 195.673 52.4296C195.794 52.7609 195.854 53.2299 195.854 53.8366V57.2386L194.909 57.7846V56.8046C194.804 57.0986 194.674 57.3646 194.521 57.6026C194.375 57.8359 194.218 58.0436 194.048 58.2256C193.878 58.3983 193.704 58.5499 193.527 58.6806C193.349 58.8206 193.179 58.9373 193.017 59.0306ZM197.237 56.4406V55.6286L198.873 54.6836V46.9976L197.309 47.9006V47.0886L199.758 45.6746V54.1726L201.383 53.2346V54.0466L197.237 56.4406Z" fill="black"/>
<g filter="url(#filter0_d_3834_946)">
<rect width="67.6825" height="66.6926" rx="8" transform="matrix(0.866025 -0.5 0 1 164.035 97.1108)" fill="#B7D0F6"/>
<rect width="67.6825" height="66.6926" rx="8" transform="matrix(0.866025 -0.5 0 1 164.035 97.1108)" stroke="black" stroke-linejoin="bevel"/>
</g>
<rect width="8.54758" height="54.7045" transform="matrix(0.866025 0.5 0 1 157 99.2568)" fill="#B7B7B7" stroke="black" stroke-linejoin="bevel"/>
<rect width="54.7045" height="8.54758" transform="matrix(0.866025 -0.5 0.866025 0.5 162.92 89.0005)" fill="#E7E7E7" stroke="black" stroke-linejoin="bevel"/>
<g filter="url(#filter1_d_3834_946)">
<path d="M164.402 158.235C164.402 159.985 164.981 161.401 166.137 162.069L158.734 157.795C157.578 157.128 157 155.711 157 153.961L164.402 158.235Z" fill="#B7B7B7"/>
<path d="M164.402 158.235C164.402 159.985 164.981 161.401 166.137 162.069L158.734 157.795C157.578 157.128 157 155.711 157 153.961L164.402 158.235Z" stroke="black" stroke-linejoin="bevel"/>
</g>
<path d="M164.402 103.531C164.402 99.7548 167.054 95.1626 170.324 93.2743L162.922 89.0005C159.651 90.8888 157 95.481 157 99.2576L164.402 103.531Z" fill="#E7E7E7" stroke="black" stroke-linejoin="bevel"/>
<path d="M221.887 65.5066C220.73 64.839 219.215 65.0464 217.699 65.9214L210.297 61.6476C211.812 60.7726 213.328 60.5652 214.484 61.2328L221.887 65.5066Z" fill="#E7E7E7" stroke="black" stroke-linejoin="bevel"/>
<g filter="url(#filter2_d_3834_946)">
<line y1="-0.5" x2="60" y2="-0.5" transform="matrix(0.866025 -0.5 0 1 44 111.804)" stroke="black" stroke-dasharray="3 3"/>
</g>
<g filter="url(#filter3_d_3834_946)">
<line y1="-0.5" x2="82" y2="-0.5" transform="matrix(0.866025 0.5 0 1 96 81.8037)" stroke="black" stroke-dasharray="3 3"/>
</g>
<g filter="url(#filter4_d_3834_946)">
<circle cx="16.748" cy="16.748" r="16.748" transform="matrix(0.866025 0.5 -0.866025 0.5 125.008 80.8037)" fill="white" stroke="black" stroke-linejoin="bevel"/>
<path d="M104.496 97.5518C104.496 100.822 106.792 103.783 110.504 105.926V111.508C106.792 109.365 104.496 106.405 104.496 103.134V97.5518Z" fill="#E7E7E7" stroke="black" stroke-linejoin="bevel"/>
<path d="M110.502 105.926C118.512 110.551 131.5 110.551 139.51 105.926V111.508C131.5 116.133 118.512 116.133 110.502 111.508V105.926Z" fill="#B7B7B7" stroke="black" stroke-linejoin="bevel"/>
<path d="M145.52 97.5518C145.52 100.822 143.224 103.783 139.512 105.926V111.508C143.224 109.365 145.52 106.405 145.52 103.134V97.5518Z" fill="#B7B7B7" stroke="black" stroke-linejoin="bevel"/>
<path d="M132.815 93.1382C133.427 92.7848 133.733 92.6082 133.877 92.4113C134.077 92.136 134.074 91.8243 133.868 91.5477C133.721 91.3499 133.412 91.1713 132.793 90.8141L132.793 90.814L128.812 88.5155C127.53 87.7753 126.889 87.4053 126.097 87.4028C125.305 87.4003 124.671 87.7663 123.403 88.4983L120.965 89.9056C119.011 91.0339 118.034 91.598 118.286 92.1985C118.538 92.7989 119.859 93.0553 122.502 93.5681L127.551 94.5477C128.432 94.7187 128.702 95.3635 128.051 95.7395C127.72 95.9306 127.229 95.9963 126.781 95.9095L116.888 93.99L116.888 93.99C115.797 93.7782 115.251 93.6723 114.724 93.7428C114.197 93.8134 113.793 94.0464 112.986 94.5124L112.181 94.977C110.914 95.7091 110.28 96.0751 110.284 96.5325C110.288 96.9898 110.929 97.3599 112.211 98.1L116.063 100.324C116.682 100.681 116.991 100.86 117.138 101.058C117.344 101.334 117.347 101.646 117.146 101.921C117.003 102.118 116.697 102.295 116.085 102.648C115.473 103.001 115.167 103.178 115.024 103.375C114.823 103.65 114.826 103.962 115.032 104.238C115.179 104.436 115.488 104.615 116.107 104.972L120.088 107.271C121.37 108.011 122.011 108.381 122.803 108.383C123.596 108.386 124.23 108.02 125.498 107.288L125.498 107.288L127.935 105.881C129.889 104.752 130.866 104.188 130.614 103.588C130.362 102.987 129.041 102.731 126.398 102.218L121.35 101.238C120.469 101.067 120.198 100.423 120.85 100.047C121.18 99.8556 121.672 99.7898 122.119 99.8767L132.012 101.796C133.104 102.008 133.649 102.114 134.176 102.043C134.703 101.973 135.107 101.74 135.914 101.274L135.914 101.274L136.719 100.809C137.987 100.077 138.621 99.7111 138.616 99.2537C138.612 98.7964 137.971 98.4263 136.689 97.6862L132.837 95.4623C132.219 95.1051 131.909 94.9265 131.762 94.7287C131.556 94.4521 131.553 94.1404 131.754 93.8651C131.897 93.6682 132.203 93.4915 132.815 93.1382Z" fill="#272F30"/>
<path d="M132.815 93.1382C133.427 92.7848 133.733 92.6082 133.877 92.4113C134.077 92.136 134.074 91.8243 133.868 91.5477C133.721 91.3499 133.412 91.1713 132.793 90.8141L132.793 90.814L128.812 88.5155C127.53 87.7753 126.889 87.4053 126.097 87.4028C125.305 87.4003 124.671 87.7663 123.403 88.4983L120.965 89.9056C119.011 91.0339 118.034 91.598 118.286 92.1985C118.538 92.7989 119.859 93.0553 122.502 93.5681L127.551 94.5477C128.432 94.7187 128.702 95.3635 128.051 95.7395C127.72 95.9306 127.229 95.9963 126.781 95.9095L116.888 93.99L116.888 93.99C115.797 93.7782 115.251 93.6723 114.724 93.7428C114.197 93.8134 113.793 94.0464 112.986 94.5124L112.181 94.977C110.914 95.7091 110.28 96.0751 110.284 96.5325C110.288 96.9898 110.929 97.3599 112.211 98.1L116.063 100.324C116.682 100.681 116.991 100.86 117.138 101.058C117.344 101.334 117.347 101.646 117.146 101.921C117.003 102.118 116.697 102.295 116.085 102.648C115.473 103.001 115.167 103.178 115.024 103.375C114.823 103.65 114.826 103.962 115.032 104.238C115.179 104.436 115.488 104.615 116.107 104.972L120.088 107.271C121.37 108.011 122.011 108.381 122.803 108.383C123.596 108.386 124.23 108.02 125.498 107.288L125.498 107.288L127.935 105.881C129.889 104.752 130.866 104.188 130.614 103.588C130.362 102.987 129.041 102.731 126.398 102.218L121.35 101.238C120.469 101.067 120.198 100.423 120.85 100.047C121.18 99.8556 121.672 99.7898 122.119 99.8767L132.012 101.796C133.104 102.008 133.649 102.114 134.176 102.043C134.703 101.973 135.107 101.74 135.914 101.274L135.914 101.274L136.719 100.809C137.987 100.077 138.621 99.7111 138.616 99.2537C138.612 98.7964 137.971 98.4263 136.689 97.6862L132.837 95.4623C132.219 95.1051 131.909 94.9265 131.762 94.7287C131.556 94.4521 131.553 94.1404 131.754 93.8651C131.897 93.6682 132.203 93.4915 132.815 93.1382Z" stroke="white"/>
</g>
<g filter="url(#filter5_d_3834_946)">
<rect width="77.3224" height="76.1915" rx="8" transform="matrix(0.866025 -0.5 0 1 165.037 87.6118)" fill="#B7D0F6"/>
<rect width="77.3224" height="76.1915" rx="8" transform="matrix(0.866025 -0.5 0 1 165.037 87.6118)" stroke="black" stroke-linejoin="bevel"/>
</g>
<rect width="9.765" height="62.496" transform="matrix(0.866025 0.5 0 1 157 90.0635)" fill="#B7B7B7" stroke="black" stroke-linejoin="bevel"/>
<rect width="62.496" height="9.765" transform="matrix(0.866025 -0.5 0.866025 0.5 163.764 78.3467)" fill="#E7E7E7" stroke="black" stroke-linejoin="bevel"/>
<g filter="url(#filter6_d_3834_946)">
<path d="M165.457 157.442C165.457 159.441 166.117 161.059 167.438 161.822L158.982 156.939C157.661 156.177 157 154.559 157 152.56L165.457 157.442Z" fill="#B7B7B7"/>
<path d="M165.457 157.442C165.457 159.441 166.117 161.059 167.438 161.822L158.982 156.939C157.661 156.177 157 154.559 157 152.56L165.457 157.442Z" stroke="black" stroke-linejoin="bevel"/>
</g>
<path d="M165.457 94.9472C165.457 90.6327 168.486 85.3864 172.222 83.2292L163.765 78.3467C160.029 80.5039 157 85.7502 157 90.0647L165.457 94.9472Z" fill="#E7E7E7" stroke="black" stroke-linejoin="bevel"/>
<path d="M231.129 51.5064C229.808 50.7437 228.077 50.9807 226.345 51.9803L217.889 47.0978C219.62 46.0982 221.351 45.8612 222.673 46.6239L231.129 51.5064Z" fill="#E7E7E7" stroke="black" stroke-linejoin="bevel"/>
<line y1="-1.5" x2="61.5865" y2="-1.5" transform="matrix(0.866025 -0.5 0 1 172.342 100.347)" stroke="#2246C8" stroke-width="3" stroke-dasharray="30 2"/>
<line y1="-1.5" x2="51.5194" y2="-1.5" transform="matrix(0.866025 -0.5 0 1 172.342 106.86)" stroke="#2246C8" stroke-width="3" stroke-dasharray="30 2"/>
<line y1="-1.5" x2="32.5698" y2="-1.5" transform="matrix(0.866025 -0.5 0 1 172.342 112.782)" stroke="#2246C8" stroke-width="3" stroke-dasharray="30 2"/>
<line y1="-1.5" x2="61.5865" y2="-1.5" transform="matrix(0.866025 -0.5 0 1 172.342 124.626)" stroke="#2246C8" stroke-width="3" stroke-dasharray="30 2"/>
<line y1="-1.5" x2="46.1898" y2="-1.5" transform="matrix(0.866025 -0.5 0 1 172.342 130.547)" stroke="#2246C8" stroke-width="3" stroke-dasharray="30 2"/>
<line y1="-1.5" x2="35.5306" y2="-1.5" transform="matrix(0.866025 -0.5 0 1 172.342 148.313)" stroke="#2246C8" stroke-width="3" stroke-dasharray="30 2"/>
<line y1="-1.5" x2="61.5865" y2="-1.5" transform="matrix(0.866025 -0.5 0 1 172.342 142.391)" stroke="#2246C8" stroke-width="3" stroke-dasharray="30 2"/>
<g filter="url(#filter7_d_3834_946)">
<path d="M74.2761 117.767C88.0077 109.612 85.237 108.253 85.8611 106.554C84.9249 125.582 88.0077 122.863 81.454 127.62L58.6721 141.891C48.6855 147.871 39.115 144.722 35.5781 142.23V127.96C45.5647 133.668 55.1352 129.659 58.6721 127.28L74.2761 117.767Z" fill="#B7D0F6"/>
<path d="M74.2761 117.767C88.0077 109.612 85.237 108.253 85.8611 106.554C84.9249 125.582 88.0077 122.863 81.454 127.62L58.6721 141.891C48.6855 147.871 39.115 144.722 35.5781 142.23V127.96C45.5647 133.668 55.1352 129.659 58.6721 127.28L74.2761 117.767Z" stroke="black"/>
</g>
<g filter="url(#filter8_d_3834_946)">
<rect width="54.9235" height="54.9235" rx="14" transform="matrix(0.846632 0.532179 -0.846632 0.532179 46.5 76.6538)" fill="#E7E7E7"/>
<rect width="54.9235" height="54.9235" rx="14" transform="matrix(0.846632 0.532179 -0.846632 0.532179 46.5 76.6538)" stroke="black" stroke-linejoin="bevel"/>
</g>
<path d="M64.5265 130.944C64.5265 132.011 63.8445 133.251 63.0579 133.745C62.2713 134.24 61.5893 133.857 61.5893 132.79C61.5893 131.723 62.2713 130.483 63.0579 129.989C63.8445 129.494 64.5265 129.877 64.5265 130.944Z" fill="#2246C8" stroke="black"/>
<path d="M58.2862 134.682C58.2862 135.749 57.6043 136.989 56.8177 137.483C56.0311 137.978 55.3491 137.595 55.3491 136.528C55.3491 135.461 56.0311 134.221 56.8177 133.726C57.6043 133.232 58.2862 133.614 58.2862 134.682Z" fill="#2246C8" stroke="black"/>
<rect x="0.423316" y="0.233911" width="15.9563" height="3.75684" rx="1.87842" transform="matrix(0.846632 -0.532179 0 1 66.8501 127.356)" fill="#B3F6CA" stroke="black"/>
<g filter="url(#filter9_d_3834_946)">
<path d="M10.8979 112.33L35.5774 128.3L35.5536 142.23L12.1476 127.96C8.15301 125.513 7.15432 121.957 7.15431 120.485L7.15428 105.776C7.44357 110.193 9.33677 111.311 10.8979 112.33Z" fill="#B7B7B7"/>
<path d="M10.8979 112.33L35.5774 128.3L35.5536 142.23L12.1476 127.96C8.15301 125.513 7.15432 121.957 7.15431 120.485L7.15428 105.776C7.44357 110.193 9.33677 111.311 10.8979 112.33Z" stroke="black"/>
</g>
<path d="M74.2761 85.8268C88.0077 77.6722 85.237 76.3131 85.8611 74.6143C84.9249 93.6416 88.0077 90.9234 81.454 95.6802L58.6721 109.951C48.6855 115.931 39.115 112.782 35.5781 110.291V96.02C45.5647 101.728 55.1352 97.7189 58.6721 95.3405L74.2761 85.8268Z" fill="#B7D0F6" stroke="black"/>
<rect width="54.9235" height="54.9235" rx="14" transform="matrix(0.846632 0.532179 -0.846632 0.532179 46.5 44.7148)" fill="#E7E7E7" stroke="black" stroke-linejoin="bevel"/>
<path d="M64.5265 99.0044C64.5265 100.072 63.8445 101.311 63.0579 101.806C62.2713 102.3 61.5893 101.918 61.5893 100.851C61.5893 99.7834 62.2713 98.5435 63.0579 98.0491C63.8445 97.5546 64.5265 97.9371 64.5265 99.0044Z" fill="#2246C8" stroke="black"/>
<path d="M58.2862 102.743C58.2862 103.81 57.6043 105.05 56.8177 105.544C56.0311 106.039 55.3491 105.656 55.3491 104.589C55.3491 103.522 56.0311 102.282 56.8177 101.787C57.6043 101.293 58.2862 101.675 58.2862 102.743Z" fill="#2246C8" stroke="black"/>
<rect x="0.423316" y="0.233911" width="15.9563" height="3.75684" rx="1.87842" transform="matrix(0.846632 -0.532179 0 1 66.8501 95.4157)" fill="#B3F6CA" stroke="black"/>
<path d="M10.8979 80.3908L35.5774 96.3601L35.5536 110.291L12.1476 96.0204C8.15299 93.574 7.15431 90.0177 7.1543 88.5453L7.15466 73.9351C7.44394 78.3521 9.33676 79.3714 10.8979 80.3908Z" fill="#B7B7B7" stroke="black"/>
<path d="M74.2761 53.8889C88.0077 45.7343 85.237 43.7663 85.8611 42.0674C84.9249 61.0947 88.0077 58.9855 81.454 63.7423L58.6721 78.0128C48.6855 83.9928 39.115 80.8443 35.5781 78.3526V64.0821C45.5647 69.7903 55.1352 65.7809 58.6721 63.4025L74.2761 53.8889Z" fill="#B7D0F6" stroke="black"/>
<rect width="54.9235" height="54.9235" rx="14" transform="matrix(0.846632 0.532179 -0.846632 0.532179 46.5 12.7764)" fill="#E7E7E7" stroke="black" stroke-linejoin="bevel"/>
<path d="M64.5265 67.0664C64.5265 68.1336 63.8445 69.3735 63.0579 69.8679C62.2713 70.3624 61.5893 69.9799 61.5893 68.9126C61.5893 67.8454 62.2713 66.6055 63.0579 66.1111C63.8445 65.6166 64.5265 65.9991 64.5265 67.0664Z" fill="#2246C8" stroke="black"/>
<path d="M58.2862 70.8042C58.2862 71.8714 57.6043 73.1113 56.8177 73.6057C56.0311 74.1001 55.3491 73.7177 55.3491 72.6504C55.3491 71.5832 56.0311 70.3433 56.8177 69.8489C57.6043 69.3544 58.2862 69.7369 58.2862 70.8042Z" fill="#2246C8" stroke="black"/>
<rect x="0.423316" y="0.233911" width="15.9563" height="3.75684" rx="1.87842" transform="matrix(0.846632 -0.532179 0 1 66.8501 63.4777)" fill="#B3F6CA" stroke="black"/>
<path d="M10.8979 48.4523L35.5774 64.4217L35.5536 78.3524L12.1476 64.0819C8.15299 61.6355 7.15431 58.0792 7.1543 56.6069L7.15466 41.9966C7.44394 46.4136 9.33676 47.433 10.8979 48.4523Z" fill="#B7B7B7" stroke="black"/>
<circle cx="128" cy="36" r="12" fill="#31BA60"/>
<rect x="123.197" y="34.3501" width="7.48299" height="2.35148" transform="rotate(44.8812 123.197 34.3501)" fill="white"/>
<rect x="123.197" y="34.3501" width="7.48299" height="2.35148" transform="rotate(44.8812 123.197 34.3501)" fill="white"/>
<rect x="125.23" y="39.5859" width="11.5675" height="2.34552" transform="rotate(-45.1565 125.23 39.5859)" fill="white"/>
<rect x="125.23" y="39.5859" width="11.5675" height="2.34552" transform="rotate(-45.1565 125.23 39.5859)" fill="white"/>
<defs>
<filter id="filter0_d_3834_946" x="159.602" y="65.7642" width="67.4805" height="103.545" filterUnits="userSpaceOnUse" color-interpolation-filters="sRGB">
<feFlood flood-opacity="0" result="BackgroundImageFix"/>
<feColorMatrix in="SourceAlpha" type="matrix" values="0 0 0 0 0 0 0 0 0 0 0 0 0 0 0 0 0 0 127 0" result="hardAlpha"/>
<feOffset dy="4"/>
<feGaussianBlur stdDeviation="2"/>
<feComposite in2="hardAlpha" operator="out"/>
<feColorMatrix type="matrix" values="0 0 0 0 0 0 0 0 0 0 0 0 0 0 0 0 0 0 0.25 0"/>
<feBlend mode="normal" in2="BackgroundImageFix" result="effect1_dropShadow_3834_946"/>
<feBlend mode="normal" in="SourceGraphic" in2="effect1_dropShadow_3834_946" result="shape"/>
</filter>
<filter id="filter1_d_3834_946" x="152.5" y="153.528" width="17.8867" height="16.9736" filterUnits="userSpaceOnUse" color-interpolation-filters="sRGB">
<feFlood flood-opacity="0" result="BackgroundImageFix"/>
<feColorMatrix in="SourceAlpha" type="matrix" values="0 0 0 0 0 0 0 0 0 0 0 0 0 0 0 0 0 0 127 0" result="hardAlpha"/>
<feOffset dy="4"/>
<feGaussianBlur stdDeviation="2"/>
<feComposite in2="hardAlpha" operator="out"/>
<feColorMatrix type="matrix" values="0 0 0 0 0 0 0 0 0 0 0 0 0 0 0 0 0 0 0.25 0"/>
<feBlend mode="normal" in2="BackgroundImageFix" result="effect1_dropShadow_3834_946"/>
<feBlend mode="normal" in="SourceGraphic" in2="effect1_dropShadow_3834_946" result="shape"/>
</filter>
<filter id="filter2_d_3834_946" x="40" y="80.8037" width="59.9609" height="39" filterUnits="userSpaceOnUse" color-interpolation-filters="sRGB">
<feFlood flood-opacity="0" result="BackgroundImageFix"/>
<feColorMatrix in="SourceAlpha" type="matrix" values="0 0 0 0 0 0 0 0 0 0 0 0 0 0 0 0 0 0 127 0" result="hardAlpha"/>
<feOffset dy="4"/>
<feGaussianBlur stdDeviation="2"/>
<feComposite in2="hardAlpha" operator="out"/>
<feColorMatrix type="matrix" values="0 0 0 0 0 0 0 0 0 0 0 0 0 0 0 0 0 0 0.25 0"/>
<feBlend mode="normal" in2="BackgroundImageFix" result="effect1_dropShadow_3834_946"/>
<feBlend mode="normal" in="SourceGraphic" in2="effect1_dropShadow_3834_946" result="shape"/>
</filter>
<filter id="filter3_d_3834_946" x="92" y="80.8037" width="79.0137" height="50" filterUnits="userSpaceOnUse" color-interpolation-filters="sRGB">
<feFlood flood-opacity="0" result="BackgroundImageFix"/>
<feColorMatrix in="SourceAlpha" type="matrix" values="0 0 0 0 0 0 0 0 0 0 0 0 0 0 0 0 0 0 127 0" result="hardAlpha"/>
<feOffset dy="4"/>
<feGaussianBlur stdDeviation="2"/>
<feComposite in2="hardAlpha" operator="out"/>
<feColorMatrix type="matrix" values="0 0 0 0 0 0 0 0 0 0 0 0 0 0 0 0 0 0 0.25 0"/>
<feBlend mode="normal" in2="BackgroundImageFix" result="effect1_dropShadow_3834_946"/>
<feBlend mode="normal" in="SourceGraphic" in2="effect1_dropShadow_3834_946" result="shape"/>
</filter>
<filter id="filter4_d_3834_946" x="99.8828" y="85.3555" width="50.25" height="38.1216" filterUnits="userSpaceOnUse" color-interpolation-filters="sRGB">
<feFlood flood-opacity="0" result="BackgroundImageFix"/>
<feColorMatrix in="SourceAlpha" type="matrix" values="0 0 0 0 0 0 0 0 0 0 0 0 0 0 0 0 0 0 127 0" result="hardAlpha"/>
<feOffset dy="4"/>
<feGaussianBlur stdDeviation="2"/>
<feComposite in2="hardAlpha" operator="out"/>
<feColorMatrix type="matrix" values="0 0 0 0 0 0 0 0 0 0 0 0 0 0 0 0 0 0 0.25 0"/>
<feBlend mode="normal" in2="BackgroundImageFix" result="effect1_dropShadow_3834_946"/>
<feBlend mode="normal" in="SourceGraphic" in2="effect1_dropShadow_3834_946" result="shape"/>
</filter>
<filter id="filter5_d_3834_946" x="160.604" y="51.4453" width="75.8301" height="117.863" filterUnits="userSpaceOnUse" color-interpolation-filters="sRGB">
<feFlood flood-opacity="0" result="BackgroundImageFix"/>
<feColorMatrix in="SourceAlpha" type="matrix" values="0 0 0 0 0 0 0 0 0 0 0 0 0 0 0 0 0 0 127 0" result="hardAlpha"/>
<feOffset dy="4"/>
<feGaussianBlur stdDeviation="2"/>
<feComposite in2="hardAlpha" operator="out"/>
<feColorMatrix type="matrix" values="0 0 0 0 0 0 0 0 0 0 0 0 0 0 0 0 0 0 0.25 0"/>
<feBlend mode="normal" in2="BackgroundImageFix" result="effect1_dropShadow_3834_946"/>
<feBlend mode="normal" in="SourceGraphic" in2="effect1_dropShadow_3834_946" result="shape"/>
</filter>
<filter id="filter6_d_3834_946" x="152.5" y="152.126" width="19.1875" height="18.1284" filterUnits="userSpaceOnUse" color-interpolation-filters="sRGB">
<feFlood flood-opacity="0" result="BackgroundImageFix"/>
<feColorMatrix in="SourceAlpha" type="matrix" values="0 0 0 0 0 0 0 0 0 0 0 0 0 0 0 0 0 0 127 0" result="hardAlpha"/>
<feOffset dy="4"/>
<feGaussianBlur stdDeviation="2"/>
<feComposite in2="hardAlpha" operator="out"/>
<feColorMatrix type="matrix" values="0 0 0 0 0 0 0 0 0 0 0 0 0 0 0 0 0 0 0.25 0"/>
<feBlend mode="normal" in2="BackgroundImageFix" result="effect1_dropShadow_3834_946"/>
<feBlend mode="normal" in="SourceGraphic" in2="effect1_dropShadow_3834_946" result="shape"/>
</filter>
<filter id="filter7_d_3834_946" x="31.0781" y="106.382" width="59.2832" height="47.4385" filterUnits="userSpaceOnUse" color-interpolation-filters="sRGB">
<feFlood flood-opacity="0" result="BackgroundImageFix"/>
<feColorMatrix in="SourceAlpha" type="matrix" values="0 0 0 0 0 0 0 0 0 0 0 0 0 0 0 0 0 0 127 0" result="hardAlpha"/>
<feOffset dy="4"/>
<feGaussianBlur stdDeviation="2"/>
<feComposite in2="hardAlpha" operator="out"/>
<feColorMatrix type="matrix" values="0 0 0 0 0 0 0 0 0 0 0 0 0 0 0 0 0 0 0.25 0"/>
<feBlend mode="normal" in2="BackgroundImageFix" result="effect1_dropShadow_3834_946"/>
<feBlend mode="normal" in="SourceGraphic" in2="effect1_dropShadow_3834_946" result="shape"/>
</filter>
<filter id="filter8_d_3834_946" x="2.34375" y="80.6421" width="88.3125" height="58.4819" filterUnits="userSpaceOnUse" color-interpolation-filters="sRGB">
<feFlood flood-opacity="0" result="BackgroundImageFix"/>
<feColorMatrix in="SourceAlpha" type="matrix" values="0 0 0 0 0 0 0 0 0 0 0 0 0 0 0 0 0 0 127 0" result="hardAlpha"/>
<feOffset dy="4"/>
<feGaussianBlur stdDeviation="2"/>
<feComposite in2="hardAlpha" operator="out"/>
<feColorMatrix type="matrix" values="0 0 0 0 0 0 0 0 0 0 0 0 0 0 0 0 0 0 0.25 0"/>
<feBlend mode="normal" in2="BackgroundImageFix" result="effect1_dropShadow_3834_946"/>
<feBlend mode="normal" in="SourceGraphic" in2="effect1_dropShadow_3834_946" result="shape"/>
</filter>
<filter id="filter9_d_3834_946" x="2.6543" y="105.744" width="37.4238" height="45.376" filterUnits="userSpaceOnUse" color-interpolation-filters="sRGB">
<feFlood flood-opacity="0" result="BackgroundImageFix"/>
<feColorMatrix in="SourceAlpha" type="matrix" values="0 0 0 0 0 0 0 0 0 0 0 0 0 0 0 0 0 0 127 0" result="hardAlpha"/>
<feOffset dy="4"/>
<feGaussianBlur stdDeviation="2"/>
<feComposite in2="hardAlpha" operator="out"/>
<feColorMatrix type="matrix" values="0 0 0 0 0 0 0 0 0 0 0 0 0 0 0 0 0 0 0.25 0"/>
<feBlend mode="normal" in2="BackgroundImageFix" result="effect1_dropShadow_3834_946"/>
<feBlend mode="normal" in="SourceGraphic" in2="effect1_dropShadow_3834_946" result="shape"/>
</filter>
</defs>
</svg>
