<svg version="1.1" xmlns="http://www.w3.org/2000/svg" viewBox="0 0 1369.9872674991866 806.2103972199002" width="1369.9872674991866" height="806.2103972199002">
  <!-- svg-source:excalidraw -->
  
  <defs>
    <style class="style-fonts">
      @font-face {
        font-family: "Virgil";
        src: url("https://excalidraw.com/Virgil.woff2");
      }
      @font-face {
        font-family: "Cascadia";
        src: url("https://excalidraw.com/Cascadia.woff2");
      }
      @font-face {
        font-family: "Assistant";
        src: url("https://excalidraw.com/Assistant-Regular.woff2");
      }
    </style>
    
  </defs>
  <rect x="0" y="0" width="1369.9872674991866" height="806.2103972199002" fill="#ffffff"></rect><g stroke-linecap="round" transform="translate(345.64419481886716 254.67484156483027) rotate(0 116.994140625 83.677734375)"><path d="M32 0 C78.17 1.06, 122.53 -0.23, 201.99 0 M32 0 C76.76 2.28, 122.65 2.1, 201.99 0 M201.99 0 C223.53 -0.64, 232.41 10.17, 233.99 32 M201.99 0 C222.31 1.36, 234.49 9.71, 233.99 32 M233.99 32 C234.97 56.42, 235.32 78.69, 233.99 135.36 M233.99 32 C232.65 69.54, 233.05 104.63, 233.99 135.36 M233.99 135.36 C233.55 157, 221.75 168.36, 201.99 167.36 M233.99 135.36 C231.74 158.68, 224.46 165.73, 201.99 167.36 M201.99 167.36 C142.34 168, 84.41 168.32, 32 167.36 M201.99 167.36 C163.01 168.4, 125.55 168.58, 32 167.36 M32 167.36 C11.82 169.14, -1.95 155.63, 0 135.36 M32 167.36 C11.45 167.92, 0.5 157.28, 0 135.36 M0 135.36 C1.88 112.55, -0.13 85.09, 0 32 M0 135.36 C-1.97 101.14, -0.28 64.6, 0 32 M0 32 C-1.59 8.89, 10.71 -0.04, 32 0 M0 32 C0.68 12.8, 8.97 -1.51, 32 0" stroke="#1e1e1e" stroke-width="2" fill="none"></path></g><g transform="translate(444.7583458198437 325.8525759398302) rotate(0 17.879989624023438 12.5)"><text x="17.879989624023438" y="0" font-family="Virgil, Segoe UI Emoji" font-size="20px" fill="#1e1e1e" text-anchor="middle" style="white-space: pre;" direction="ltr" dominant-baseline="text-before-edge">CLI</text></g><g stroke-linecap="round" transform="translate(345.52967295638973 10) rotate(0 116.994140625 83.677734375)"><path d="M32 0 C89.71 -2.4, 146.45 0.47, 201.99 0 M32 0 C73.54 -1.89, 117.38 -0.42, 201.99 0 M201.99 0 C221.54 1.2, 234.47 10.37, 233.99 32 M201.99 0 C223.87 1, 231.82 12.46, 233.99 32 M233.99 32 C233.5 73.25, 232.1 111.16, 233.99 135.36 M233.99 32 C233.57 68.51, 233.56 104.42, 233.99 135.36 M233.99 135.36 C234.57 158.48, 224.97 167.33, 201.99 167.36 M233.99 135.36 C232.04 154.81, 222.96 165.47, 201.99 167.36 M201.99 167.36 C148.51 166.74, 93.22 169.63, 32 167.36 M201.99 167.36 C139.73 167.14, 78.75 168.06, 32 167.36 M32 167.36 C9.36 167.33, 0.81 158.47, 0 135.36 M32 167.36 C9.93 166.1, 1.17 154.41, 0 135.36 M0 135.36 C-2.14 99.06, -1.64 64.96, 0 32 M0 135.36 C0.73 112.83, 1.13 90.24, 0 32 M0 32 C1.28 11.2, 9.44 -0.67, 32 0 M0 32 C2.27 10.36, 12.28 0.41, 32 0" stroke="#1e1e1e" stroke-width="2" fill="none"></path></g><g transform="translate(446.1038306712335 81.177734375) rotate(0 16.41998291015625 12.5)"><text x="16.41998291015625" y="0" font-family="Virgil, Segoe UI Emoji" font-size="20px" fill="#1e1e1e" text-anchor="middle" style="white-space: pre;" direction="ltr" dominant-baseline="text-before-edge">App</text></g><g stroke-linecap="round" transform="translate(696.8639814268868 366.78979704044247) rotate(0 116.994140625 83.67773437500003)"><path d="M32 0 C85.52 0.33, 140.93 0.43, 201.99 0 M32 0 C87.03 1.17, 140.9 -0.79, 201.99 0 M201.99 0 C223.27 0.19, 233.74 10.45, 233.99 32 M201.99 0 C223.2 -0.38, 235.86 10.99, 233.99 32 M233.99 32 C234.62 60.77, 235.11 92.24, 233.99 135.36 M233.99 32 C233.87 53.2, 233.73 75.43, 233.99 135.36 M233.99 135.36 C232.96 156.65, 224.89 166.61, 201.99 167.36 M233.99 135.36 C232.8 156.74, 221.06 168.49, 201.99 167.36 M201.99 167.36 C151.5 170.64, 98.46 170.6, 32 167.36 M201.99 167.36 C150.45 168.5, 96.63 168.64, 32 167.36 M32 167.36 C11.88 168.29, 0.22 158.59, 0 135.36 M32 167.36 C10.23 168.6, 0.2 156.66, 0 135.36 M0 135.36 C0.77 104.5, 0.11 72.42, 0 32 M0 135.36 C-0.24 101.7, 1.29 69.14, 0 32 M0 32 C-0.63 12.4, 12.53 0.45, 32 0 M0 32 C-1.28 9.65, 10 0.93, 32 0" stroke="#1e1e1e" stroke-width="2" fill="none"></path></g><g transform="translate(795.2381345640938 437.96753141544247) rotate(0 18.61998748779297 12.5)"><text x="18.61998748779297" y="0" font-family="Virgil, Segoe UI Emoji" font-size="20px" fill="#1e1e1e" text-anchor="middle" style="white-space: pre;" direction="ltr" dominant-baseline="text-before-edge">API</text></g><g stroke-linecap="round" transform="translate(1125.9989862491866 211.7458872576825) rotate(0 116.994140625 83.677734375)"><path d="M32 0 C77.06 -2.26, 124.51 1.51, 201.99 0 M32 0 C79.26 -0.42, 126.96 1.16, 201.99 0 M201.99 0 C222.58 -0.68, 233.03 11.78, 233.99 32 M201.99 0 C224.87 1.53, 234.07 12.29, 233.99 32 M233.99 32 C235.25 64.01, 231.93 96.95, 233.99 135.36 M233.99 32 C234.1 58.57, 234.44 86.4, 233.99 135.36 M233.99 135.36 C235.72 157.14, 221.89 169.32, 201.99 167.36 M233.99 135.36 C235.58 156.42, 221.83 167.79, 201.99 167.36 M201.99 167.36 C167.87 170.08, 131.94 167.16, 32 167.36 M201.99 167.36 C162.63 168.2, 122.86 167.87, 32 167.36 M32 167.36 C10.18 166.33, -1.95 156.31, 0 135.36 M32 167.36 C11.02 167.39, 0.16 156.84, 0 135.36 M0 135.36 C1.67 102.38, -0.33 68.38, 0 32 M0 135.36 C-0.68 112.48, 0.55 92.12, 0 32 M0 32 C1.19 11.51, 11.75 0.99, 32 0 M0 32 C0.36 10.01, 9.19 -0.22, 32 0" stroke="#1e1e1e" stroke-width="2" fill="none"></path></g><g transform="translate(1199.0831689884444 282.9236216326825) rotate(0 43.90995788574219 12.5)"><text x="43.90995788574219" y="0" font-family="Virgil, Segoe UI Emoji" font-size="20px" fill="#1e1e1e" text-anchor="middle" style="white-space: pre;" direction="ltr" dominant-baseline="text-before-edge">Temporal</text></g><g stroke-linecap="round" transform="translate(1047.8778175524274 628.8549284699002) rotate(0 116.99414062499989 83.677734375)"><path d="M32 0 C68.13 0.86, 107.57 -1.47, 201.99 0 M32 0 C87.07 -1.78, 140.97 -1.75, 201.99 0 M201.99 0 C222.7 1.94, 233.52 9.37, 233.99 32 M201.99 0 C223.57 -2.04, 233.75 10.57, 233.99 32 M233.99 32 C233.15 68.95, 233.22 106.9, 233.99 135.36 M233.99 32 C232.63 55.52, 233.18 77.93, 233.99 135.36 M233.99 135.36 C233.66 155.54, 221.46 166.75, 201.99 167.36 M233.99 135.36 C234.38 157.03, 223.1 165.62, 201.99 167.36 M201.99 167.36 C141.63 166.06, 85.14 166.19, 32 167.36 M201.99 167.36 C135.45 166.79, 69.67 166.59, 32 167.36 M32 167.36 C10 166.84, -1.24 155.07, 0 135.36 M32 167.36 C10.2 166.97, -0.88 156.81, 0 135.36 M0 135.36 C-0.4 114.75, 0.45 94.34, 0 32 M0 135.36 C-0.27 111.1, 0.11 85.07, 0 32 M0 32 C1.21 11.94, 9.99 -1.01, 32 0 M0 32 C0.63 11.8, 11.66 0.21, 32 0" stroke="#1e1e1e" stroke-width="2" fill="none"></path></g><g transform="translate(1132.9319862535992 700.0326628449002) rotate(0 31.93997192382801 12.5)"><text x="31.939971923828125" y="0" font-family="Virgil, Segoe UI Emoji" font-size="20px" fill="#1e1e1e" text-anchor="middle" style="white-space: pre;" direction="ltr" dominant-baseline="text-before-edge">Worker</text></g><g stroke-linecap="round" transform="translate(10 257.6134685132387) rotate(0 84.65355730700844 84.6535573070085)"><path d="M102.85 1.02 C113.82 2, 124.65 8.32, 133.86 15.13 C143.08 21.94, 152.38 31.81, 158.13 41.87 C163.88 51.93, 167.34 64, 168.38 75.48 C169.42 86.96, 167.67 99.81, 164.37 110.77 C161.08 121.73, 156.23 132.66, 148.61 141.22 C140.99 149.78, 129.42 157.56, 118.66 162.12 C107.89 166.68, 95.51 168.55, 84.01 168.56 C72.51 168.56, 59.91 166.52, 49.64 162.15 C39.38 157.79, 29.96 151, 22.42 142.37 C14.89 133.75, 8.24 121.52, 4.43 110.39 C0.63 99.26, -1.59 86.87, -0.42 75.59 C0.74 64.31, 5.59 52.65, 11.41 42.71 C17.23 32.77, 25.22 22.73, 34.49 15.94 C43.76 9.15, 55.04 4.02, 67.03 1.96 C79.02 -0.1, 98.97 2.72, 106.42 3.6 C113.86 4.48, 111.84 6.08, 111.7 7.26 M57.15 5.27 C66.87 0.44, 79.19 -1.69, 90.59 -0.7 C102 0.28, 115.2 5.37, 125.59 11.18 C135.98 16.99, 146.02 25.4, 152.94 34.14 C159.86 42.88, 164.73 52.63, 167.09 63.61 C169.44 74.58, 168.97 88.55, 167.05 100 C165.12 111.46, 161.68 122.94, 155.52 132.32 C149.35 141.69, 139.91 150, 130.03 156.25 C120.14 162.5, 107.69 167.99, 96.21 169.8 C84.72 171.61, 72 170.67, 61.14 167.1 C50.27 163.53, 40 155.9, 31.02 148.39 C22.04 140.88, 12.57 132.32, 7.26 122.02 C1.95 111.73, -0.53 98.07, -0.82 86.61 C-1.11 75.15, 1.24 63.67, 5.51 53.26 C9.79 42.86, 16.44 32.1, 24.82 24.19 C33.2 16.28, 50.56 8.88, 55.79 5.79 C61.01 2.7, 55.7 4.7, 56.16 5.64" stroke="#2f9e44" stroke-width="2" fill="none"></path></g><g transform="translate(72.45447180455722 329.90792139689745) rotate(0 22.339981079101562 12.5)"><text x="22.339981079101562" y="0" font-family="Virgil, Segoe UI Emoji" font-size="20px" fill="#2f9e44" text-anchor="middle" style="white-space: pre;" direction="ltr" dominant-baseline="text-before-edge">User</text></g><g stroke-linecap="round"><g transform="translate(170.1133272740799 266.9585376198588) rotate(0 81.97926768477635 -62.05939013215455)"><path d="M-0.88 -0.8 C26.67 -21.56, 137.23 -104.1, 164.86 -124.83 M0.87 1.39 C28.36 -19.2, 137.09 -102.69, 164.38 -123.67" stroke="#2f9e44" stroke-width="2" fill="none"></path></g><g transform="translate(170.1133272740799 266.9585376198588) rotate(0 81.97926768477635 -62.05939013215455)"><path d="M148.27 -98.36 C151.3 -103.51, 155.76 -110.25, 164.38 -123.67 M148.27 -98.36 C151.46 -104.59, 155.78 -109.72, 164.38 -123.67" stroke="#2f9e44" stroke-width="2" fill="none"></path></g><g transform="translate(170.1133272740799 266.9585376198588) rotate(0 81.97926768477635 -62.05939013215455)"><path d="M135.77 -114.64 C142.1 -115.35, 149.91 -117.73, 164.38 -123.67 M135.77 -114.64 C141.43 -117.52, 148.37 -119.23, 164.38 -123.67" stroke="#2f9e44" stroke-width="2" fill="none"></path></g></g><mask></mask><g stroke-linecap="round"><g transform="translate(192.91883930420272 338.691930760432) rotate(0 64.33709336437823 5.14341807333679)"><path d="M-0.76 -0.6 C20.79 1.19, 108.24 9.26, 129.78 11.14 M1.04 1.71 C22.49 3.13, 108.32 8.33, 129.42 9.47" stroke="#2f9e44" stroke-width="2" fill="none"></path></g><g transform="translate(192.91883930420272 338.691930760432) rotate(0 64.33709336437823 5.14341807333679)"><path d="M100.68 18.08 C109.45 17.18, 121.67 12.08, 129.42 9.47 M100.68 18.08 C109.96 15.11, 119.02 13.52, 129.42 9.47" stroke="#2f9e44" stroke-width="2" fill="none"></path></g><g transform="translate(192.91883930420272 338.691930760432) rotate(0 64.33709336437823 5.14341807333679)"><path d="M101.87 -2.4 C110.3 3.67, 122.11 5.55, 129.42 9.47 M101.87 -2.4 C110.63 1.44, 119.29 6.67, 129.42 9.47" stroke="#2f9e44" stroke-width="2" fill="none"></path></g></g><mask></mask><g stroke-linecap="round"><g transform="translate(589.4697874373062 394.94894769971404) rotate(0 43.35748215375611 4.198310061299253)"><path d="M-0.63 -0.58 C13.83 0.79, 72.66 6.56, 87.35 7.93 M1.24 1.73 C15.55 3.29, 72.42 8.08, 86.74 9.22" stroke="#1e1e1e" stroke-width="2" fill="none"></path></g><g transform="translate(589.4697874373062 394.94894769971404) rotate(0 43.35748215375611 4.198310061299253)"><path d="M57.8 17.12 C66.91 15.59, 77.16 13.14, 86.74 9.22 M57.8 17.12 C64.98 15.64, 70.69 12.44, 86.74 9.22" stroke="#1e1e1e" stroke-width="2" fill="none"></path></g><g transform="translate(589.4697874373062 394.94894769971404) rotate(0 43.35748215375611 4.198310061299253)"><path d="M59.49 -3.33 C67.96 2.24, 77.63 6.9, 86.74 9.22 M59.49 -3.33 C66.3 0.02, 71.61 1.65, 86.74 9.22" stroke="#1e1e1e" stroke-width="2" fill="none"></path></g></g><mask></mask><g stroke-linecap="round"><g transform="translate(594.2125096197226 137.8010574051687) rotate(0 60.21876053542451 104.47320096020283)"><path d="M1.07 0.46 C21.24 35.28, 99.98 173.57, 119.81 208.22 M0.18 -0.35 C20.85 34.68, 102.38 174.43, 122.19 209.37" stroke="#1e1e1e" stroke-width="2" fill="none"></path></g><g transform="translate(594.2125096197226 137.8010574051687) rotate(0 60.21876053542451 104.47320096020283)"><path d="M99.22 190.07 C104.47 192.68, 107.09 196.89, 122.19 209.37 M99.22 190.07 C105.15 193.87, 110.02 198.6, 122.19 209.37" stroke="#1e1e1e" stroke-width="2" fill="none"></path></g><g transform="translate(594.2125096197226 137.8010574051687) rotate(0 60.21876053542451 104.47320096020283)"><path d="M117 179.82 C118.62 184.65, 117.68 190.9, 122.19 209.37 M117 179.82 C118.57 186.21, 119.04 193.47, 122.19 209.37" stroke="#1e1e1e" stroke-width="2" fill="none"></path></g></g><mask></mask><g stroke-linecap="round" transform="translate(760.8900511856309 113.94900272088873) rotate(0 116.994140625 83.67773437500001)"><path d="M32 0 C72.68 2.13, 116.21 -0.37, 201.99 0 M32 0 C80.5 2.45, 128.52 2.37, 201.99 0 M201.99 0 C223.28 -1.42, 233.18 11.63, 233.99 32 M201.99 0 C225.11 1.84, 235.85 10.01, 233.99 32 M233.99 32 C234.6 68.22, 234.82 105.14, 233.99 135.36 M233.99 32 C234.02 54.54, 233.83 76.41, 233.99 135.36 M233.99 135.36 C233.15 157.94, 223.22 167.98, 201.99 167.36 M233.99 135.36 C234.56 158, 223.64 165.96, 201.99 167.36 M201.99 167.36 C164.78 166.64, 128.32 165.44, 32 167.36 M201.99 167.36 C152.63 168.84, 104.23 168.04, 32 167.36 M32 167.36 C10.86 168.45, 0.97 156.53, 0 135.36 M32 167.36 C10.49 169.32, 1.34 157.21, 0 135.36 M0 135.36 C1.31 103.95, -0.42 73.07, 0 32 M0 135.36 C0.1 112.41, -1.58 90.3, 0 32 M0 32 C0.55 11.05, 10.16 -1.18, 32 0 M0 32 C1.95 9.56, 9.35 -0.9, 32 0" stroke="#1e1e1e" stroke-width="2" fill="none"></path></g><g transform="translate(828.4442275161973 185.12673709588873) rotate(0 49.439964294433594 12.5)"><text x="49.439964294433594" y="0" font-family="Virgil, Segoe UI Emoji" font-size="20px" fill="#1e1e1e" text-anchor="middle" style="white-space: pre;" direction="ltr" dominant-baseline="text-before-edge">Database</text></g><g stroke-linecap="round"><g transform="translate(867.7723642017904 343.6363435497274) rotate(0 1.5337103402748653 -23.87071093065842)"><path d="M-0.2 -0.06 C0.29 -7.95, 2.42 -39.51, 3.03 -47.55 M0.7 -0.56 C1.11 -8.6, 2.14 -40.52, 2.58 -48.41" stroke="#1e1e1e" stroke-width="2" fill="none"></path></g><g transform="translate(867.7723642017904 343.6363435497274) rotate(0 1.5337103402748653 -23.87071093065842)"><path d="M9.8 -25.61 C7.45 -32.91, 5.62 -39.35, 2.58 -48.41 M9.8 -25.61 C8.67 -29.79, 6.7 -34.83, 2.58 -48.41" stroke="#1e1e1e" stroke-width="2" fill="none"></path></g><g transform="translate(867.7723642017904 343.6363435497274) rotate(0 1.5337103402748653 -23.87071093065842)"><path d="M-6.55 -26.3 C-3.72 -33.36, -0.38 -39.58, 2.58 -48.41 M-6.55 -26.3 C-4.35 -30.33, -3.01 -35.22, 2.58 -48.41" stroke="#1e1e1e" stroke-width="2" fill="none"></path></g></g><mask></mask><g stroke-linecap="round"><g transform="translate(951.9122681315184 400.75726995480187) rotate(0 75.85807923997527 -38.405792317018125)"><path d="M-0.75 -1.11 C24.58 -14.01, 126.1 -64.34, 151.53 -77.03 M1.06 0.92 C26.26 -11.82, 125.47 -62.76, 150.48 -75.6" stroke="#1e1e1e" stroke-width="2" fill="none"></path></g><g transform="translate(951.9122681315184 400.75726995480187) rotate(0 75.85807923997527 -38.405792317018125)"><path d="M130.08 -53.6 C133.51 -59.56, 140.34 -64.8, 150.48 -75.6 M130.08 -53.6 C134.93 -59.72, 141.15 -66.03, 150.48 -75.6" stroke="#1e1e1e" stroke-width="2" fill="none"></path></g><g transform="translate(951.9122681315184 400.75726995480187) rotate(0 75.85807923997527 -38.405792317018125)"><path d="M120.71 -71.86 C126.65 -72.97, 135.93 -73.44, 150.48 -75.6 M120.71 -71.86 C128.13 -73.18, 136.84 -74.63, 150.48 -75.6" stroke="#1e1e1e" stroke-width="2" fill="none"></path></g></g><mask></mask><g stroke-linecap="round"><g transform="translate(1054.1376748135767 607.8403612765537) rotate(0 -50.45882758803714 -52.365257543189216)"><path d="M1.03 -0.14 C-15.55 -17.32, -83.14 -86.11, -100.13 -103.73 M0.12 -1.26 C-16.51 -18.71, -83.7 -88.02, -100.66 -105.33" stroke="#1e1e1e" stroke-width="2" fill="none"></path></g><g transform="translate(1054.1376748135767 607.8403612765537) rotate(0 -50.45882758803714 -52.365257543189216)"><path d="M-73.65 -92.29 C-80.56 -94, -85.41 -98.56, -100.66 -105.33 M-73.65 -92.29 C-78.34 -94.18, -83.82 -98.45, -100.66 -105.33" stroke="#1e1e1e" stroke-width="2" fill="none"></path></g><g transform="translate(1054.1376748135767 607.8403612765537) rotate(0 -50.45882758803714 -52.365257543189216)"><path d="M-88.35 -77.98 C-91.52 -83.39, -92.7 -91.53, -100.66 -105.33 M-88.35 -77.98 C-90.07 -82.89, -92.54 -90.09, -100.66 -105.33" stroke="#1e1e1e" stroke-width="2" fill="none"></path></g></g><mask></mask><g stroke-linecap="round"><g transform="translate(1191.8912170464687 604.5412608864574) rotate(0 20.798536971358544 -102.71793647002625)"><path d="M-0.81 -0.68 C6.18 -34.84, 34.24 -171.75, 41.17 -206.02 M0.96 1.57 C7.83 -32.34, 32.95 -170.28, 40 -204.79" stroke="#1e1e1e" stroke-width="2" fill="none"></path></g><g transform="translate(1191.8912170464687 604.5412608864574) rotate(0 20.798536971358544 -102.71793647002625)"><path d="M44.77 -175.17 C42.77 -182.86, 41.82 -190.4, 40 -204.79 M44.77 -175.17 C43.96 -182.63, 42.98 -188.04, 40 -204.79" stroke="#1e1e1e" stroke-width="2" fill="none"></path></g><g transform="translate(1191.8912170464687 604.5412608864574) rotate(0 20.798536971358544 -102.71793647002625)"><path d="M24.61 -179.04 C27.31 -185.68, 31.09 -192.31, 40 -204.79 M24.61 -179.04 C28.36 -185.44, 31.92 -189.97, 40 -204.79" stroke="#1e1e1e" stroke-width="2" fill="none"></path></g></g><mask></mask><g stroke-linecap="round" transform="translate(13.411617970968564 465.13622413248356) rotate(0 84.65355730700844 84.6535573070085)"><path d="M67.11 1.33 C77.5 -2.14, 90.54 -0.8, 101.69 1.72 C112.84 4.25, 124.58 9.7, 134.02 16.5 C143.47 23.3, 152.64 32.65, 158.35 42.53 C164.07 52.41, 167.25 64.45, 168.3 75.78 C169.36 87.12, 168.08 99.54, 164.67 110.55 C161.27 121.55, 155.51 133.12, 147.88 141.81 C140.26 150.51, 129.41 158.21, 118.93 162.74 C108.45 167.26, 96.54 169.14, 85 168.95 C73.46 168.76, 60.17 166.26, 49.68 161.6 C39.18 156.94, 29.53 149.47, 22.03 140.99 C14.53 132.51, 8.17 121.47, 4.67 110.73 C1.16 100, -0.18 88.06, 1 76.6 C2.18 65.13, 6.09 52.03, 11.75 41.96 C17.42 31.89, 24.03 23.11, 34.99 16.2 C45.96 9.28, 68.95 2.81, 77.55 0.5 C86.15 -1.82, 86.74 0.94, 86.6 2.31 M59.64 2.42 C69.39 -2.08, 82.75 -2.05, 94.36 -0.44 C105.98 1.17, 119.57 5.76, 129.33 12.08 C139.09 18.41, 146.7 28.22, 152.93 37.52 C159.17 46.83, 164.33 56.8, 166.73 67.91 C169.12 79.02, 169.54 92.79, 167.29 104.16 C165.05 115.54, 160.41 127.27, 153.26 136.16 C146.11 145.04, 134.81 151.91, 124.38 157.45 C113.96 162.98, 102.12 168.05, 90.71 169.35 C79.3 170.66, 66.72 169.15, 55.9 165.28 C45.09 161.42, 34.04 154.38, 25.82 146.17 C17.6 137.96, 10.66 126.8, 6.58 116 C2.49 105.21, 0.97 92.5, 1.31 81.39 C1.64 70.29, 3.99 59.53, 8.6 49.37 C13.2 39.22, 20.2 27.98, 28.95 20.48 C37.71 12.99, 55.99 6.86, 61.14 4.41 C66.28 1.96, 59.39 4.66, 59.82 5.78" stroke="#2f9e44" stroke-width="2" fill="none"></path></g><g transform="translate(64.6061105274789 524.9306770161423) rotate(0 33.59996032714844 25)"><text x="33.59996032714844" y="0" font-family="Virgil, Segoe UI Emoji" font-size="20px" fill="#2f9e44" text-anchor="middle" style="white-space: pre;" direction="ltr" dominant-baseline="text-before-edge">User </text><text x="33.59996032714844" y="25" font-family="Virgil, Segoe UI Emoji" font-size="20px" fill="#2f9e44" text-anchor="middle" style="white-space: pre;" direction="ltr" dominant-baseline="text-before-edge">Scripts</text></g><g stroke-linecap="round"><g transform="translate(195.6540084388189 531.7105414639061) rotate(0 245.66621553485652 -23.686012260170315)"><path d="M-0.7 -0.62 C81.15 -8.71, 409.73 -40.1, 491.78 -47.9 M1.13 1.66 C82.8 -6.32, 409.43 -38.68, 491.07 -46.65" stroke="#2f9e44" stroke-width="2" fill="none"></path></g><g transform="translate(195.6540084388189 531.7105414639061) rotate(0 245.66621553485652 -23.686012260170315)"><path d="M464.02 -33.67 C472.59 -37.41, 482.43 -42.38, 491.07 -46.65 M464.02 -33.67 C471.53 -37.85, 479.77 -41.05, 491.07 -46.65" stroke="#2f9e44" stroke-width="2" fill="none"></path></g><g transform="translate(195.6540084388189 531.7105414639061) rotate(0 245.66621553485652 -23.686012260170315)"><path d="M462.01 -54.1 C471.4 -50.51, 481.96 -48.17, 491.07 -46.65 M462.01 -54.1 C470.16 -52.24, 478.99 -49.43, 491.07 -46.65" stroke="#2f9e44" stroke-width="2" fill="none"></path></g></g><mask></mask></svg>